<?xml version="1.0" encoding="UTF-8"?>
<!--
Soliguide: Useful information for those who need it

SPDX-FileCopyrightText: © 2025 Solinum

SPDX-License-Identifier: AGPL-3.0-only

This program is free software: you can redistribute it and/or modify
it under the terms of the GNU Affero General Public License as published
by the Free Software Foundation, either version 3 of the License, or
(at your option) any later version.

This program is distributed in the hope that it will be useful,
but WITHOUT ANY WARRANTY; without even the implied warranty of
MERCHANTABILITY or FITNESS FOR A PARTICULAR PURPOSE.  See the
GNU Affero General Public License for more details.

You should have received a copy of the GNU Affero General Public License
along with this program.  If not, see <https://www.gnu.org/licenses/>.
-->
<svg width="200" height="200" viewBox="0 0 200 200" fill="none" xmlns="http://www.w3.org/2000/svg">
    <path opacity="0.1"
        d="M3.14723 136.514C3.74991 138.206 5.02223 139.51 6.67402 140.148C12.8526 141.068 56.6071 133.746 63.7365 131.474C57.1696 139.452 37.2231 157.345 40.0222 164.63C40.8213 166.702 42.6651 168.349 44.8749 168.787C45.7276 169.05 46.6829 169.251 47.5847 168.988C56.8437 166.287 88.0535 136.287 88.0535 136.287C87.7455 144.305 88.0222 152.331 88.8928 160.251C89.1338 162.465 90.4731 164.313 92.4731 165.193C94.5446 166.104 97.1517 165.97 98.8481 164.523C104.178 159.97 103.879 145.363 104.924 138.47C109.674 144.836 113.335 152.121 117.152 159.72C120.594 166.572 124.156 173.657 128.62 180.059C132.433 185.528 136.656 190.117 141.17 193.706C143.201 195.322 146.116 195.488 148.424 194.121C150.571 192.849 151.643 190.546 151.223 188.108C150.263 182.541 148.112 177.572 146.134 173.447C144.545 170.13 126.045 132.126 126.045 132.126L169.281 147.412C172.245 148.461 175.187 147.532 176.777 145.05C178.531 142.305 177.911 138.608 175.388 136.809C173.018 135.117 150.027 119.979 142.549 115.639L163.353 111.014C178.138 107.889 180.96 104.916 180.803 101.947C180.638 98.8625 178.424 96.3982 175.545 96.0723C159.442 94.2732 143.085 93.3045 126.826 93.1929C135.228 79.617 167.991 33.0054 171.46 26.7286C172.906 24.1125 172.286 21.05 170.018 19.2197C169.098 18.2197 167.902 17.55 166.603 17.3045C166.344 17.2554 166.08 17.2241 165.812 17.2107C164.009 17.1125 162.299 17.8224 160.995 19.2152L108.509 75.1661C104.339 58.059 91.0758 13.8045 86.5356 7.40271C84.9062 5.10807 81.7767 4.34914 79.1249 5.41164C76.558 6.43843 75.4419 8.87593 75.3928 11.6572C75.299 17.5054 80.7365 54.6482 83.2097 70.3625C72.7588 61.3224 41.116 40.8313 33.8481 38.0724C31.4999 37.1795 28.8928 37.4027 27.0044 39.1215C25.1428 40.8134 24.1919 43.55 25.3481 45.7465C31.1829 56.8357 65.1517 82.7822 72.4642 89.2732C67.5044 89.4563 31.1963 87.4652 26.7633 93.309C25.4062 95.0991 24.6204 97.242 25.3571 99.4652C26.1115 101.751 27.9821 103.363 30.2588 103.679C41.7901 105.278 53.3883 107.229 64.9062 109.501C49.9821 114.139 7.23205 128.505 7.23205 128.505C5.66509 128.898 4.36152 129.938 3.56688 131.429C2.72759 132.996 2.57134 134.894 3.14723 136.505V136.514Z"
        fill="#644E8C" />
    <path d="M106.411 149.634H72.2501L72.085 94.2637H106.246L106.411 149.634Z" fill="#C1B8D1" />
    <path d="M120.469 70.6875H86.0938L72.0447 94.2634H106.205L120.469 70.6875Z" fill="#644E8C" />
    <path d="M106.246 149.634H134.058V94.2634L120.505 70.6875L106.246 94.2634V149.634Z"
        fill="#A295BA" />
    <path d="M96.1874 133.281H86.5669V149.629H96.1874V133.281Z" fill="#644E8C" />
    <path d="M86.2053 117.486H78.1919V124.861H86.2053V117.486Z" fill="#644E8C" />
    <path d="M101.696 102.312H93.6831V109.688H101.696V102.312Z" fill="#644E8C" />
    <path d="M124.263 102.312H116.25V109.688H124.263V102.312Z" fill="#644E8C" />
    <path
        d="M116.674 149.634H146.254C146.268 149.607 146.277 149.576 146.286 149.54C146.786 146.714 146.259 143.549 143.987 141.594C143.357 141.053 142.652 140.656 141.893 140.411C141.92 140.388 141.951 140.37 141.978 140.348C142.879 139.647 143.549 138.714 143.987 137.665C144.964 135.335 144.969 132.661 144.08 130.357C143.192 128.049 140.888 126.701 139.12 126.504C138.482 126.433 137.848 126.344 137.21 126.286C137.933 125.245 138.446 124.062 138.661 122.808C139.116 120.138 138.192 117.254 136.165 115.428C134.138 113.603 131.107 113.076 128.58 114.116C125.995 115.178 124.384 117.803 124.259 120.549C124.156 122.79 124.982 125.053 126.513 126.678C125.295 126.745 124.067 126.795 122.888 127.143C120.777 127.768 119.272 129.469 118.696 131.571C118.045 133.946 118.679 136.473 119.804 138.598C120.107 139.17 120.451 139.71 120.87 140.187C119.87 140.62 118.978 141.281 118.259 142.103C116.536 144.085 115.772 146.924 116.567 149.464C116.589 149.531 116.629 149.589 116.679 149.634H116.674Z"
        fill="#644E8C" />
    <path
        d="M85.0267 58.6687C83.3035 57.2 80.7409 57.4633 79.1561 59.0973L78.5356 59.7357L77.9151 59.0973C76.3347 57.4633 73.7677 57.2 72.0445 58.6687C70.0713 60.3562 69.9642 63.3785 71.732 65.2089L77.8168 71.4946C78.2097 71.9008 78.8481 71.9008 79.2409 71.4946L85.3258 65.2089C87.0981 63.383 86.9909 60.3562 85.0177 58.6687H85.0267Z"
        fill="white" />
    <path d="M53.8124 56.418L48.116 56.4448" stroke="#F84B32" stroke-width="7.53"
        stroke-linecap="round" stroke-linejoin="round" />
    <path d="M56.6159 44.9464L51.7141 39.9062" stroke="#F84B32" stroke-width="7.53"
        stroke-linecap="round" stroke-linejoin="round" />
    <path d="M67.6741 40.334L66.1428 35.0215" stroke="#F84B32" stroke-width="7.53"
        stroke-linecap="round" stroke-linejoin="round" />
    <g filter="url(#filter0_d_9536_22003)">
        <path
            d="M60.8169 64.7539C60.8169 54.9682 68.7499 47.0352 78.5356 47.0352C88.3214 47.0352 96.2544 54.9682 96.2544 64.7539C96.2544 74.5396 88.3214 82.4727 78.5356 82.4727C68.7499 82.4727 60.8169 74.5396 60.8169 64.7539Z"
            fill="white" />
    </g>
    <path
        d="M82.5222 57.5137C80.982 57.5137 79.4999 58.2324 78.5356 59.3663C77.5713 58.2324 76.0892 57.5137 74.549 57.5137C71.8213 57.5137 69.6785 59.6565 69.6785 62.3842C69.6785 65.7324 72.6919 68.4601 77.2544 72.6074L78.5401 73.7681L79.8258 72.5985C84.3883 68.4601 87.4017 65.7324 87.4017 62.3842C87.4017 59.6565 85.2588 57.5137 82.5311 57.5137H82.5222Z"
        fill="#F84B32" />
    <defs>
        <filter id="filter0_d_9536_22003" x="50.8169" y="39.8652" width="55.4375" height="55.4375"
            filterUnits="userSpaceOnUse" color-interpolation-filters="sRGB">
            <feFlood flood-opacity="0" result="BackgroundImageFix" />
            <feColorMatrix in="SourceAlpha" type="matrix"
                values="0 0 0 0 0 0 0 0 0 0 0 0 0 0 0 0 0 0 127 0" result="hardAlpha" />
            <feOffset dy="2.83" />
            <feGaussianBlur stdDeviation="5" />
            <feColorMatrix type="matrix"
                values="0 0 0 0 0.392157 0 0 0 0 0.305882 0 0 0 0 0.54902 0 0 0 0.3 0" />
            <feBlend mode="normal" in2="BackgroundImageFix" result="effect1_dropShadow_9536_22003" />
            <feBlend mode="normal" in="SourceGraphic" in2="effect1_dropShadow_9536_22003"
                result="shape" />
        </filter>
    </defs>
</svg>