<svg version="1.2" xmlns="http://www.w3.org/2000/svg" viewBox="0 0 815 185" width="815" height="185">
  <style>
    .s0 {
      fill: #ffffff
    }

    .s1 {
      fill: #fefefe
    }

    .s2 {
      fill: #064da1
    }

    .s3 {
      fill: #fff100
    }

    .s4 {
      fill: #95a4d3
    }

    .s5 {
      mix-blend-mode: multiply;
      fill: #fefefe
    }
  </style>
  <g id="_Artboards_">
    <path id="Mesa de trabajo 2" class="s0" d="m-55 246h907.09v-311.81h-907.09z" />
    <path id="Mesa de trabajo 3" class="s0" d="m-17.71 198.62h833.71v-213.29h-833.71z" />
  </g>
  <g id="Capa 1">
    <g id="&lt;Group&gt;">
      <path id="&lt;Path&gt;" class="s1" d="m327.43 148.92h166.97v-113.39h-166.97z" />
      <path id="&lt;Path&gt;" class="s2" d="m330.73 145.9h160.56v-107.03h-160.56z" />
      <path id="&lt;Path&gt;" class="s3" d="m407.59 62.19l3.38-2.47 3.39 2.47-1.29-4 3.44-2.47h-4.24l-1.3-4.05-1.29 4.05h-4.24l3.44 2.47z" />
      <path id="&lt;Path&gt;" class="s3" d="m390.05 66.9l3.39-2.47 3.39 2.47-1.29-4 3.44-2.47h-4.24l-1.3-4.05-1.3 4.05h-4.24l3.44 2.47z" />
      <path id="&lt;Path&gt;" class="s3" d="m380.61 69.23l-1.29 4.06h-4.24l3.43 2.47-1.28 4 3.38-2.48 3.39 2.48-1.29-4 3.44-2.47h-4.24z" />
      <path id="&lt;Path&gt;" class="s3" d="m375.91 94.79l3.38 2.48-1.28-4 3.44-2.47h-4.24l-1.3-4.06-1.3 4.07-4.24-0.01 3.44 2.47-1.29 4z" />
      <path id="&lt;Path&gt;" class="s3" d="m381.91 108.36l-1.3-4.05-1.29 4.05h-4.24l3.44 2.47-1.29 4 3.38-2.48 3.39 2.48-1.29-4 3.44-2.47z" />
      <path id="&lt;Path&gt;" class="s3" d="m394.76 121.21l-1.29-4.05-1.3 4.06-4.24-0.01 3.44 2.47-1.29 4 3.39-2.47 3.38 2.47-1.28-4 3.44-2.47z" />
      <path id="&lt;Path&gt;" class="s3" d="m412.27 125.87l-1.29-4.05-1.3 4.05h-4.24l3.44 2.47-1.29 4 3.39-2.47 3.38 2.47-1.29-4 3.45-2.47z" />
      <path id="&lt;Path&gt;" class="s3" d="m429.79 121.21l-1.3-4.05-1.3 4.06-4.24-0.01 3.44 2.47-1.29 4 3.39-2.47 3.39 2.47-1.3-4 3.45-2.47z" />
      <path id="&lt;Path&gt;" class="s3" d="m442.64 108.36l-1.3-4.05-1.3 4.05h-4.24l3.45 2.47-1.3 4 3.39-2.48 3.39 2.48-1.29-4 3.44-2.47z" />
      <path id="&lt;Path&gt;" class="s3" d="m451.54 90.75h-4.25l-1.29-4.05-1.3 4.05h-4.24l3.44 2.47-1.29 4 3.39-2.48 3.38 2.48-1.28-4z" />
      <path id="&lt;Path&gt;" class="s3" d="m437.95 79.7l3.39-2.47 3.39 2.47-1.29-4 3.44-2.46h-4.24l-1.3-4.05-1.3 4.05h-4.24l3.44 2.46z" />
      <path id="&lt;Path&gt;" class="s3" d="m428.54 56.38l-1.3 4.06-4.24-0.01 3.44 2.48-1.29 3.99 3.39-2.47 3.39 2.47-1.29-3.99 3.44-2.48h-4.25z" />
      <g id="&lt;Group&gt;">
        <g id="&lt;Group&gt;">
          <path id="&lt;Compound Path&gt;" class="s2" d="m531.5 49.71l3.11 0.99q-0.72 2.59-2.38 3.85-1.65 1.26-4.2 1.26-3.16 0-5.19-2.16-2.03-2.15-2.03-5.89 0-3.96 2.04-6.14 2.04-2.19 5.37-2.19 2.91 0 4.72 1.72 1.08 1.01 1.62 2.91l-3.16 0.76q-0.28-1.23-1.17-1.94-0.9-0.72-2.17-0.72-1.76 0-2.86 1.27-1.09 1.26-1.09 4.09-0.01 3 1.08 4.28 1.08 1.27 2.8 1.27 1.28 0 2.2-0.81 0.92-0.81 1.31-2.55z" />
          <path id="&lt;Compound Path&gt;" fill-rule="evenodd" class="s2"
            d="m536.63 49.64q0-1.51 0.74-2.93 0.75-1.41 2.11-2.16 1.37-0.75 3.06-0.75 2.6 0 4.26 1.7 1.67 1.69 1.67 4.27 0 2.6-1.68 4.31-1.68 1.72-4.23 1.72-1.58 0-3.01-0.72-1.43-0.71-2.18-2.09-0.74-1.38-0.74-3.35zm3.11 0.16q0 1.71 0.81 2.61 0.81 0.91 2 0.91 1.19 0 1.99-0.91 0.81-0.9 0.81-2.63 0-1.69-0.81-2.59-0.8-0.91-1.99-0.91-1.19 0-2 0.91-0.81 0.9-0.81 2.61z" />
          <path id="&lt;Compound Path&gt;" class="s2" d="m549.51 44.06h1.69v-0.86q0-1.45 0.31-2.16 0.3-0.71 1.13-1.16 0.83-0.45 2.09-0.45 1.3 0 2.54 0.39l-0.41 2.12q-0.72-0.18-1.39-0.18-0.66 0-0.95 0.31-0.28 0.31-0.28 1.18v0.81h2.26v2.39h-2.26v9.09h-3.04v-9.09h-1.69z" />
          <path id="&lt;Compound Path&gt;" class="s2" d="m558.21 42.51v-2.81h3.04v2.81zm0 13.03v-11.48h3.03v11.48z" />
          <path id="&lt;Compound Path&gt;" class="s2" d="m574.79 55.54h-3.03v-5.86q0-1.86-0.2-2.4-0.19-0.55-0.63-0.85-0.44-0.3-1.05-0.3-0.79 0-1.42 0.43-0.62 0.43-0.86 1.14-0.23 0.72-0.23 2.64v5.2h-3.03v-11.48h2.81v1.69q1.51-1.95 3.79-1.95 1 0 1.83 0.37 0.83 0.36 1.26 0.92 0.43 0.56 0.59 1.27 0.17 0.72 0.17 2.05z" />
          <path id="&lt;Compound Path&gt;" fill-rule="evenodd" class="s2"
            d="m580.14 47.56l-2.75-0.49q0.46-1.67 1.59-2.47 1.14-0.8 3.37-0.8 2.04 0 3.03 0.49 0.99 0.48 1.4 1.22 0.4 0.74 0.4 2.71l-0.03 3.55q0 1.51 0.15 2.23 0.14 0.72 0.54 1.54h-3q-0.12-0.31-0.29-0.9-0.08-0.27-0.11-0.36-0.78 0.76-1.66 1.14-0.89 0.38-1.89 0.38-1.78 0-2.8-0.97-1.02-0.96-1.02-2.43 0-0.97 0.47-1.73 0.46-0.76 1.3-1.17 0.84-0.4 2.41-0.7 2.13-0.4 2.95-0.75v-0.3q0-0.88-0.43-1.25-0.43-0.37-1.63-0.37-0.81 0-1.26 0.32-0.46 0.31-0.74 1.11zm4.06 2.47q-0.58 0.19-1.85 0.46-1.26 0.27-1.65 0.53-0.59 0.42-0.59 1.07 0 0.64 0.47 1.1 0.48 0.47 1.21 0.47 0.83 0 1.57-0.54 0.55-0.41 0.72-1.01 0.12-0.39 0.12-1.48z" />
          <path id="&lt;Compound Path&gt;" class="s2" d="m600.61 55.54h-3.03v-5.86q0-1.86-0.2-2.4-0.19-0.55-0.63-0.85-0.44-0.3-1.05-0.3-0.79 0-1.42 0.43-0.62 0.43-0.86 1.14-0.23 0.72-0.23 2.64v5.2h-3.03v-11.48h2.82v1.69q1.5-1.95 3.78-1.95 1 0 1.83 0.37 0.83 0.36 1.26 0.92 0.43 0.56 0.59 1.27 0.17 0.72 0.17 2.05z" />
          <path id="&lt;Compound Path&gt;" class="s2" d="m613.7 47.46l-3 0.54q-0.15-0.9-0.68-1.35-0.54-0.46-1.39-0.46-1.14 0-1.81 0.78-0.68 0.79-0.68 2.62 0 2.05 0.69 2.89 0.69 0.84 1.84 0.84 0.87 0 1.42-0.49 0.55-0.49 0.77-1.69l2.98 0.51q-0.46 2.05-1.78 3.1-1.31 1.05-3.53 1.05-2.52 0-4.01-1.59-1.5-1.59-1.5-4.4 0-2.84 1.5-4.42 1.5-1.59 4.06-1.59 2.1 0 3.34 0.91 1.23 0.9 1.78 2.75z" />
          <path id="&lt;Compound Path&gt;" class="s2" d="m615.99 42.51v-2.81h3.04v2.81zm0 13.03v-11.48h3.04v11.48z" />
          <path id="&lt;Compound Path&gt;" fill-rule="evenodd" class="s2"
            d="m624.41 47.56l-2.75-0.49q0.46-1.67 1.59-2.47 1.14-0.8 3.38-0.8 2.03 0 3.02 0.49 0.99 0.48 1.4 1.22 0.41 0.74 0.41 2.71l-0.04 3.55q0 1.51 0.15 2.23 0.14 0.72 0.54 1.54h-3q-0.12-0.31-0.29-0.9-0.08-0.27-0.11-0.36-0.78 0.76-1.66 1.14-0.89 0.38-1.89 0.38-1.77 0-2.8-0.97-1.02-0.96-1.02-2.43 0-0.97 0.47-1.73 0.46-0.76 1.3-1.17 0.84-0.4 2.41-0.7 2.13-0.4 2.95-0.75v-0.3q0-0.88-0.43-1.25-0.43-0.37-1.63-0.37-0.81 0-1.26 0.32-0.46 0.31-0.74 1.11zm4.06 2.47q-0.58 0.19-1.84 0.46-1.27 0.27-1.66 0.53-0.59 0.42-0.59 1.07 0 0.64 0.47 1.1 0.48 0.47 1.21 0.47 0.83 0 1.57-0.54 0.55-0.41 0.72-1.01 0.12-0.39 0.12-1.48z" />
          <path id="&lt;Compound Path&gt;" fill-rule="evenodd" class="s2"
            d="m644.97 55.54h-2.82v-1.69q-0.7 0.98-1.66 1.46-0.96 0.49-1.93 0.49-1.98 0-3.38-1.6-1.42-1.59-1.41-4.44 0-2.92 1.37-4.44 1.37-1.52 3.46-1.52 1.93 0 3.33 1.6v-5.7h3.04zm-8.11-5.99q0.01 1.84 0.51 2.66 0.74 1.19 2.06 1.19 1.04 0 1.78-0.89 0.73-0.89 0.73-2.66 0-1.98-0.71-2.85-0.71-0.87-1.83-0.87-1.08 0-1.8 0.86-0.74 0.86-0.74 2.56z" />
          <path id="&lt;Compound Path&gt;" fill-rule="evenodd" class="s2"
            d="m647.26 49.64q0-1.51 0.74-2.93 0.75-1.41 2.12-2.16 1.36-0.75 3.05-0.75 2.6 0 4.27 1.7 1.66 1.69 1.66 4.27 0 2.6-1.68 4.31-1.68 1.72-4.23 1.72-1.58 0-3.01-0.72-1.43-0.71-2.18-2.09-0.74-1.38-0.74-3.35zm3.11 0.16q0 1.71 0.81 2.61 0.81 0.91 2 0.91 1.19 0 1.99-0.91 0.81-0.9 0.81-2.63 0-1.69-0.81-2.59-0.8-0.91-1.99-0.91-1.19 0-2 0.91-0.81 0.9-0.81 2.61z" />
          <path id="&lt;Compound Path&gt;" fill-rule="evenodd" class="s2"
            d="m667.54 44.06h2.83v1.69q0.55-0.87 1.49-1.41 0.94-0.54 2.08-0.54 2 0 3.39 1.57 1.4 1.57 1.4 4.37 0 2.87-1.41 4.46-1.4 1.6-3.4 1.6-0.95 0-1.72-0.38-0.77-0.38-1.63-1.3v5.78h-3.03zm3 5.54q0 1.94 0.77 2.86 0.76 0.92 1.87 0.92 1.05 0 1.76-0.84 0.7-0.85 0.7-2.79 0-1.8-0.73-2.68-0.72-0.87-1.79-0.87-1.11 0-1.85 0.86-0.73 0.86-0.73 2.54z" />
          <path id="&lt;Compound Path&gt;" fill-rule="evenodd" class="s2"
            d="m680.44 49.64q0-1.51 0.74-2.93 0.75-1.41 2.11-2.16 1.37-0.75 3.06-0.75 2.6 0 4.26 1.7 1.67 1.69 1.67 4.27 0 2.6-1.68 4.31-1.68 1.72-4.23 1.72-1.58 0-3.01-0.72-1.43-0.71-2.18-2.09-0.74-1.38-0.74-3.35zm3.11 0.16q0 1.71 0.81 2.61 0.81 0.91 2 0.91 1.18 0 1.99-0.91 0.8-0.9 0.8-2.63 0-1.69-0.8-2.59-0.81-0.91-1.99-0.91-1.19 0-2 0.91-0.81 0.9-0.81 2.61z" />
          <path id="&lt;Compound Path&gt;" class="s2" d="m697.56 55.54h-3.04v-11.48h2.82v1.63q0.73-1.15 1.3-1.52 0.58-0.37 1.32-0.37 1.03 0 1.99 0.58l-0.94 2.64q-0.76-0.49-1.42-0.49-0.64 0-1.08 0.35-0.44 0.35-0.7 1.27-0.25 0.92-0.25 3.84z" />
        </g>
        <g id="&lt;Group&gt;">
          <path id="&lt;Compound Path&gt;" class="s2" d="m521.35 81.69v-15.84h3.04v15.84z" />
          <path id="&lt;Compound Path&gt;" fill-rule="evenodd" class="s2"
            d="m529.77 73.71l-2.76-0.49q0.47-1.67 1.6-2.47 1.13-0.79 3.37-0.79 2.03 0 3.02 0.48 1 0.48 1.4 1.22 0.41 0.74 0.41 2.71l-0.03 3.55q0 1.51 0.14 2.23 0.15 0.72 0.55 1.54h-3.01q-0.11-0.3-0.29-0.9-0.07-0.27-0.11-0.36-0.77 0.76-1.66 1.14-0.88 0.38-1.89 0.38-1.77 0-2.79-0.96-1.02-0.97-1.02-2.44 0-0.97 0.46-1.73 0.47-0.76 1.3-1.17 0.84-0.4 2.42-0.7 2.13-0.4 2.95-0.75v-0.3q0-0.88-0.43-1.25-0.44-0.37-1.64-0.37-0.81 0-1.26 0.32-0.45 0.32-0.73 1.11zm4.06 2.47q-0.59 0.19-1.85 0.46-1.26 0.27-1.65 0.53-0.6 0.42-0.6 1.07 0 0.64 0.48 1.1 0.47 0.47 1.21 0.47 0.82 0 1.56-0.54 0.56-0.41 0.73-1.01 0.12-0.39 0.12-1.48z" />
          <path id="&lt;Compound Path&gt;" class="s2" d="m545.95 65.85h3.19v8.58q0.01 2.04 0.12 2.64 0.21 0.98 0.98 1.57 0.77 0.58 2.11 0.58 1.36 0 2.06-0.55 0.69-0.56 0.83-1.37 0.14-0.81 0.14-2.69v-8.76h3.2v8.32q0 2.85-0.26 4.03-0.26 1.18-0.96 1.99-0.7 0.81-1.86 1.29-1.17 0.48-3.05 0.48-2.27 0-3.44-0.53-1.17-0.52-1.85-1.36-0.68-0.84-0.9-1.75-0.31-1.36-0.31-4.02z" />
          <path id="&lt;Compound Path&gt;" class="s2" d="m561.98 81.69v-15.84h3.11l6.48 10.58v-10.58h2.97v15.84h-3.2l-6.39-10.33v10.33z" />
          <path id="&lt;Compound Path&gt;" class="s2" d="m577.83 81.69v-15.84h3.2v15.84z" />
          <path id="&lt;Compound Path&gt;" fill-rule="evenodd" class="s2"
            d="m583.43 73.87q-0.01-2.42 0.72-4.07 0.54-1.21 1.47-2.17 0.94-0.96 2.05-1.42 1.48-0.63 3.41-0.63 3.5 0 5.61 2.17 2.1 2.17 2.1 6.04 0 3.84-2.09 6-2.08 2.17-5.57 2.17-3.54 0-5.62-2.16-2.09-2.15-2.08-5.93zm3.29-0.11q0 2.69 1.24 4.08 1.24 1.38 3.16 1.38 1.91 0 3.13-1.37 1.23-1.38 1.23-4.14 0-2.72-1.19-4.06-1.2-1.34-3.17-1.34-1.98 0-3.19 1.36-1.21 1.36-1.21 4.09zm2.42-8.82l1.49-3.23h3.4l-2.97 3.23z" />
          <path id="&lt;Compound Path&gt;" class="s2" d="m601.31 81.69v-15.84h3.11l6.49 10.58v-10.58h2.97v15.84h-3.21l-6.39-10.33v10.33z" />
          <path id="&lt;Compound Path&gt;" class="s2" d="m623.41 81.69v-15.84h11.74v2.68h-8.55v3.51h7.95v2.67h-7.95v4.31h8.85v2.67z" />
          <path id="&lt;Compound Path&gt;" class="s2" d="m638.14 65.85h3.2v8.58q0 2.04 0.12 2.64 0.21 0.98 0.98 1.57 0.77 0.58 2.11 0.58 1.36 0 2.05-0.55 0.69-0.56 0.83-1.37 0.14-0.81 0.14-2.69v-8.76h3.2v8.32q0 2.85-0.26 4.03-0.26 1.18-0.95 1.99-0.7 0.81-1.87 1.29-1.16 0.48-3.04 0.48-2.27 0-3.44-0.53-1.18-0.52-1.86-1.36-0.68-0.84-0.89-1.75-0.32-1.36-0.32-4.02z" />
          <path id="&lt;Compound Path&gt;" fill-rule="evenodd" class="s2"
            d="m654.15 81.69v-15.84h6.73q2.54 0 3.69 0.43 1.15 0.42 1.84 1.51 0.69 1.1 0.7 2.5 0 1.78-1.05 2.94-1.05 1.17-3.14 1.47 1.04 0.6 1.72 1.33 0.67 0.72 1.82 2.57l1.93 3.09h-3.82l-2.32-3.45q-1.23-1.85-1.68-2.33-0.45-0.48-0.96-0.66-0.51-0.17-1.61-0.17h-0.65v6.61zm3.2-9.14h2.36q2.3 0 2.88-0.2 0.57-0.19 0.89-0.67 0.33-0.47 0.33-1.18 0-0.8-0.43-1.29-0.43-0.5-1.2-0.63-0.39-0.05-2.34-0.05h-2.49z" />
          <path id="&lt;Compound Path&gt;" fill-rule="evenodd" class="s2"
            d="m669.47 73.87q0-2.42 0.72-4.07 0.54-1.21 1.48-2.17 0.93-0.96 2.04-1.42 1.48-0.63 3.42-0.63 3.5 0 5.6 2.17 2.1 2.17 2.1 6.04 0 3.84-2.08 6-2.09 2.17-5.58 2.17-3.53 0-5.62-2.16-2.08-2.15-2.08-5.93zm3.29-0.11q0 2.69 1.25 4.08 1.24 1.38 3.15 1.38 1.91 0 3.14-1.37 1.23-1.38 1.23-4.14 0-2.72-1.2-4.06-1.19-1.34-3.17-1.34-1.98 0-3.19 1.36-1.21 1.36-1.21 4.09z" />
          <path id="&lt;Compound Path&gt;" fill-rule="evenodd" class="s2" d="m687.33 81.69v-15.84h5.13q2.91 0 3.8 0.24 1.36 0.35 2.28 1.55 0.92 1.19 0.92 3.08 0 1.46-0.53 2.45-0.53 1-1.34 1.57-0.82 0.56-1.66 0.75-1.15 0.22-3.32 0.22h-2.08v5.98zm3.19-13.16v4.49h1.75q1.89 0 2.53-0.24 0.64-0.25 1-0.78 0.36-0.53 0.36-1.23 0-0.87-0.51-1.43-0.5-0.56-1.28-0.7-0.57-0.11-2.3-0.11z" />
          <path id="&lt;Compound Path&gt;" class="s2" d="m702.09 81.69v-15.84h11.74v2.68h-8.55v3.51h7.95v2.67h-7.95v4.31h8.85v2.67z" />
          <path id="&lt;Compound Path&gt;" fill-rule="evenodd" class="s2" d="m731.12 81.69h-3.48l-1.38-3.6h-6.33l-1.31 3.6h-3.39l6.17-15.84h3.38zm-5.89-6.27l-2.18-5.87-2.14 5.87z" />
        </g>
        <g id="&lt;Group&gt;">
          <path id="&lt;Compound Path&gt;" class="s2" d="m531.59 113.67l3.1 0.99q-0.71 2.59-2.37 3.85-1.66 1.26-4.21 1.26-3.15 0-5.18-2.16-2.04-2.15-2.03-5.89 0-3.96 2.04-6.14 2.04-2.19 5.37-2.19 2.9 0 4.72 1.72 1.08 1.01 1.62 2.91l-3.17 0.76q-0.28-1.23-1.17-1.95-0.89-0.71-2.17-0.71-1.76 0-2.85 1.26-1.1 1.27-1.1 4.1 0 3 1.08 4.28 1.08 1.27 2.81 1.27 1.27 0 2.19-0.81 0.92-0.81 1.32-2.55z" />
          <path id="&lt;Compound Path&gt;" fill-rule="evenodd" class="s2"
            d="m536.71 113.6q0-1.51 0.75-2.93 0.74-1.42 2.11-2.16 1.37-0.75 3.05-0.75 2.6 0 4.27 1.7 1.66 1.69 1.66 4.27 0 2.6-1.68 4.31-1.68 1.71-4.23 1.72-1.58 0-3.01-0.72-1.43-0.71-2.17-2.09-0.75-1.38-0.75-3.35zm3.11 0.16q0 1.71 0.81 2.61 0.81 0.91 2 0.91 1.19 0 1.99-0.91 0.81-0.9 0.81-2.63 0-1.69-0.81-2.6-0.8-0.9-1.99-0.9-1.19 0-2 0.9-0.81 0.91-0.81 2.62z" />
          <path id="&lt;Compound Path&gt;" class="s2" d="m549.6 108.02h1.68v-0.86q0-1.45 0.31-2.16 0.31-0.71 1.14-1.16 0.82-0.45 2.09-0.45 1.29 0 2.53 0.39l-0.41 2.11q-0.72-0.17-1.39-0.17-0.66 0-0.95 0.31-0.28 0.31-0.28 1.18v0.81h2.27v2.39h-2.27v9.09h-3.04v-9.09h-1.68z" />
          <path id="&lt;Compound Path&gt;" class="s2" d="m558.3 106.47v-2.81h3.03v2.81zm0 13.03v-11.48h3.03v11.48z" />
          <path id="&lt;Compound Path&gt;" class="s2" d="m574.88 119.5h-3.04v-5.86q0-1.86-0.19-2.4-0.2-0.55-0.63-0.85-0.44-0.3-1.06-0.3-0.79 0-1.41 0.43-0.63 0.43-0.86 1.14-0.23 0.72-0.23 2.64v5.2h-3.04v-11.48h2.82v1.69q1.5-1.95 3.78-1.95 1.01 0 1.84 0.37 0.83 0.36 1.26 0.92 0.42 0.56 0.59 1.27 0.17 0.72 0.17 2.05z" />
          <path id="&lt;Compound Path&gt;" fill-rule="evenodd" class="s2"
            d="m580.23 111.52l-2.76-0.49q0.46-1.67 1.6-2.47 1.13-0.8 3.37-0.8 2.03 0 3.02 0.49 1 0.48 1.4 1.21 0.41 0.74 0.41 2.72l-0.03 3.54q0 1.52 0.14 2.24 0.15 0.71 0.55 1.54h-3.01q-0.11-0.31-0.29-0.9-0.07-0.27-0.1-0.36-0.78 0.76-1.67 1.14-0.89 0.38-1.89 0.38-1.77 0-2.79-0.97-1.02-0.96-1.02-2.43 0-0.97 0.46-1.73 0.47-0.76 1.3-1.17 0.84-0.4 2.42-0.71 2.13-0.39 2.95-0.74v-0.3q0-0.88-0.43-1.25-0.44-0.37-1.64-0.37-0.81 0-1.26 0.32-0.45 0.31-0.73 1.11zm4.06 2.47q-0.59 0.19-1.85 0.46-1.26 0.27-1.65 0.53-0.6 0.42-0.6 1.07 0 0.64 0.48 1.1 0.47 0.47 1.21 0.47 0.82 0 1.56-0.54 0.55-0.41 0.73-1.01 0.12-0.39 0.12-1.48z" />
          <path id="&lt;Compound Path&gt;" class="s2" d="m600.7 119.5h-3.04v-5.86q0-1.86-0.19-2.4-0.2-0.55-0.64-0.85-0.43-0.3-1.05-0.3-0.79 0-1.41 0.43-0.63 0.43-0.86 1.14-0.23 0.72-0.23 2.64v5.2h-3.04v-11.48h2.82v1.69q1.5-1.95 3.78-1.95 1.01 0 1.84 0.37 0.83 0.36 1.26 0.92 0.42 0.56 0.59 1.27 0.17 0.72 0.17 2.05z" />
          <path id="&lt;Compound Path&gt;" class="s2" d="m613.78 111.42l-2.99 0.54q-0.16-0.9-0.69-1.36-0.53-0.45-1.39-0.45-1.13 0-1.81 0.78-0.67 0.79-0.67 2.62 0 2.05 0.68 2.89 0.69 0.84 1.85 0.84 0.86 0 1.41-0.49 0.55-0.49 0.78-1.69l2.98 0.51q-0.47 2.05-1.78 3.1-1.32 1.05-3.53 1.05-2.52-0.01-4.02-1.59-1.49-1.59-1.49-4.4 0-2.84 1.5-4.42 1.5-1.59 4.06-1.59 2.09 0 3.33 0.91 1.24 0.9 1.78 2.75z" />
          <path id="&lt;Compound Path&gt;" fill-rule="evenodd" class="s2"
            d="m622.72 115.84l3.03 0.51q-0.58 1.67-1.84 2.54-1.26 0.86-3.15 0.87-2.99 0-4.43-1.96-1.13-1.57-1.13-3.96 0-2.85 1.49-4.46 1.49-1.62 3.77-1.62 2.56 0 4.04 1.7 1.48 1.69 1.41 5.17h-7.6q0.03 1.35 0.73 2.11 0.7 0.75 1.75 0.75 0.71 0 1.2-0.39 0.49-0.39 0.73-1.26zm0.18-3.06q-0.03-1.32-0.68-2.01-0.65-0.68-1.58-0.68-0.99 0-1.64 0.72-0.65 0.72-0.64 1.97zm-3.88-6.16l1.49-3.23h3.41l-2.97 3.23z" />
          <path id="&lt;Compound Path&gt;" fill-rule="evenodd" class="s2"
            d="m634.45 108.02h2.83v1.69q0.55-0.87 1.49-1.41 0.94-0.54 2.08-0.54 2 0 3.39 1.57 1.4 1.57 1.4 4.36 0 2.88-1.41 4.47-1.4 1.6-3.4 1.6-0.95 0-1.72-0.38-0.77-0.38-1.63-1.3v5.78h-3.03zm3 5.54q0 1.94 0.77 2.86 0.76 0.92 1.87 0.92 1.05 0 1.76-0.84 0.7-0.85 0.7-2.79 0-1.8-0.73-2.68-0.72-0.87-1.79-0.87-1.11 0-1.85 0.86-0.73 0.86-0.73 2.54z" />
          <path id="&lt;Compound Path&gt;" fill-rule="evenodd" class="s2"
            d="m650.32 111.52l-2.76-0.49q0.47-1.67 1.6-2.47 1.13-0.8 3.37-0.8 2.03 0 3.03 0.49 0.99 0.48 1.39 1.21 0.41 0.74 0.41 2.72l-0.03 3.54q0 1.52 0.14 2.24 0.15 0.71 0.55 1.54h-3q-0.12-0.31-0.3-0.9-0.07-0.27-0.1-0.36-0.78 0.76-1.67 1.14-0.88 0.38-1.89 0.38-1.77 0-2.79-0.97-1.02-0.96-1.02-2.43 0-0.97 0.46-1.73 0.47-0.76 1.3-1.17 0.84-0.4 2.42-0.71 2.13-0.39 2.95-0.74v-0.3q0-0.88-0.43-1.25-0.44-0.37-1.64-0.37-0.8 0-1.26 0.32-0.45 0.31-0.73 1.11zm4.06 2.47q-0.58 0.19-1.85 0.46-1.26 0.27-1.65 0.53-0.6 0.42-0.6 1.07 0 0.64 0.48 1.1 0.47 0.47 1.21 0.47 0.82 0 1.57-0.54 0.55-0.41 0.72-1.01 0.12-0.39 0.12-1.48z" />
          <path id="&lt;Compound Path&gt;" class="s2" d="m663.26 119.5h-3.04v-11.48h2.82v1.63q0.73-1.15 1.3-1.52 0.58-0.37 1.32-0.37 1.03 0 1.99 0.58l-0.94 2.64q-0.76-0.49-1.42-0.49-0.64 0-1.08 0.35-0.45 0.35-0.7 1.27-0.25 0.91-0.25 3.84z" />
        </g>
        <g id="&lt;Group&gt;">
          <path id="&lt;Compound Path&gt;" class="s2" d="m521.44 145.65v-15.84h3.03v15.84z" />
          <path id="&lt;Compound Path&gt;" class="s2" d="m527.51 129.85h3.03v2.17q0 1.32-0.22 2.08-0.23 0.77-0.86 1.37-0.64 0.61-1.61 0.95l-0.59-1.25q0.92-0.3 1.31-0.83 0.39-0.53 0.41-1.45h-1.47z" />
          <path id="&lt;Compound Path&gt;" class="s2" d="m533.73 129.81h3.2v8.58q0 2.04 0.12 2.64 0.2 0.98 0.97 1.56 0.77 0.59 2.11 0.59 1.37 0 2.06-0.55 0.69-0.56 0.83-1.37 0.14-0.81 0.14-2.69v-8.76h3.2v8.32q0 2.85-0.26 4.03-0.26 1.17-0.96 1.98-0.69 0.82-1.86 1.3-1.17 0.48-3.05 0.48-2.27 0-3.44-0.53-1.17-0.52-1.85-1.36-0.68-0.83-0.9-1.75-0.31-1.36-0.31-4.02z" />
          <path id="&lt;Compound Path&gt;" class="s2" d="m549.76 145.65v-15.84h3.11l6.48 10.57v-10.57h2.98v15.84h-3.21l-6.39-10.33v10.33z" />
          <path id="&lt;Compound Path&gt;" class="s2" d="m565.61 145.65v-15.84h3.2v15.84z" />
          <path id="&lt;Compound Path&gt;" fill-rule="evenodd" class="s2"
            d="m571.21 137.83q0-2.42 0.72-4.07 0.54-1.21 1.47-2.17 0.94-0.96 2.05-1.42 1.48-0.63 3.41-0.63 3.51 0 5.61 2.17 2.1 2.17 2.1 6.04 0 3.84-2.09 6-2.08 2.17-5.57 2.17-3.53 0-5.62-2.16-2.08-2.15-2.08-5.93zm3.29-0.11q0 2.69 1.24 4.08 1.24 1.38 3.16 1.38 1.91 0 3.13-1.37 1.23-1.38 1.23-4.14 0-2.72-1.19-4.06-1.2-1.34-3.17-1.34-1.98 0-3.19 1.36-1.21 1.35-1.21 4.09z" />
          <path id="&lt;Compound Path&gt;" class="s2" d="m589.09 145.65v-15.84h3.12l6.48 10.57v-10.57h2.97v15.84h-3.21l-6.38-10.33v10.33z" />
          <path id="&lt;Compound Path&gt;" class="s2" d="m611.19 145.65v-15.84h11.74v2.68h-8.55v3.51h7.96v2.67h-7.96v4.31h8.85v2.67z" />
          <path id="&lt;Compound Path&gt;" class="s2" d="m625.92 129.81h3.2v8.58q0 2.04 0.12 2.64 0.2 0.98 0.98 1.56 0.77 0.59 2.11 0.59 1.36 0 2.05-0.55 0.69-0.56 0.83-1.37 0.14-0.81 0.14-2.69v-8.76h3.2v8.32q0 2.85-0.26 4.03-0.26 1.17-0.96 1.98-0.69 0.82-1.86 1.3-1.16 0.48-3.04 0.48-2.27 0-3.45-0.53-1.17-0.52-1.85-1.36-0.68-0.83-0.9-1.75-0.31-1.36-0.31-4.02z" />
          <path id="&lt;Compound Path&gt;" fill-rule="evenodd" class="s2"
            d="m641.93 145.65v-15.84h6.73q2.54 0 3.69 0.43 1.15 0.42 1.84 1.51 0.69 1.1 0.7 2.5 0 1.78-1.05 2.94-1.05 1.16-3.14 1.47 1.04 0.6 1.72 1.33 0.67 0.72 1.82 2.57l1.93 3.09h-3.82l-2.32-3.45q-1.23-1.85-1.68-2.33-0.45-0.48-0.96-0.66-0.51-0.17-1.61-0.17h-0.65v6.61zm3.2-9.14h2.36q2.3 0 2.88-0.2 0.57-0.19 0.89-0.67 0.33-0.47 0.33-1.18 0-0.8-0.43-1.3-0.43-0.49-1.2-0.62-0.39-0.05-2.34-0.05h-2.49z" />
          <path id="&lt;Compound Path&gt;" fill-rule="evenodd" class="s2"
            d="m657.25 137.83q0-2.42 0.73-4.07 0.54-1.21 1.47-2.17 0.93-0.96 2.05-1.42 1.48-0.63 3.41-0.63 3.5 0 5.6 2.17 2.1 2.17 2.1 6.04 0 3.84-2.08 6-2.09 2.17-5.58 2.17-3.53 0-5.61-2.16-2.09-2.15-2.09-5.93zm3.3-0.11q0 2.69 1.24 4.08 1.24 1.38 3.15 1.38 1.92 0 3.14-1.37 1.23-1.38 1.23-4.14 0-2.72-1.2-4.06-1.19-1.34-3.17-1.34-1.97 0-3.18 1.36-1.21 1.35-1.21 4.09z" />
          <path id="&lt;Compound Path&gt;" fill-rule="evenodd" class="s2" d="m675.11 145.65v-15.84h5.13q2.92 0 3.8 0.24 1.36 0.35 2.28 1.55 0.92 1.19 0.92 3.08 0 1.46-0.53 2.45-0.53 1-1.34 1.57-0.82 0.56-1.66 0.75-1.15 0.22-3.32 0.22h-2.08v5.98zm3.19-13.16v4.49h1.75q1.89 0 2.53-0.25 0.64-0.24 1-0.77 0.36-0.53 0.36-1.24 0-0.86-0.51-1.42-0.5-0.56-1.28-0.7-0.57-0.11-2.3-0.11z" />
          <path id="&lt;Compound Path&gt;" class="s2" d="m689.87 145.65v-15.84h11.74v2.68h-8.55v3.51h7.95v2.67h-7.95v4.31h8.85v2.67zm4.06-16.75l1.49-3.23h3.4l-2.96 3.23z" />
          <path id="&lt;Compound Path&gt;" class="s2" d="m704.62 145.65v-15.84h11.74v2.68h-8.54v3.51h7.95v2.67h-7.95v4.31h8.85v2.67z" />
          <path id="&lt;Compound Path&gt;" class="s2" d="m719.41 145.65v-15.84h3.11l6.48 10.57v-10.57h2.98v15.84h-3.21l-6.39-10.33v10.33z" />
          <path id="&lt;Compound Path&gt;" class="s2" d="m735.39 145.65v-15.84h3.11l6.48 10.57v-10.57h2.97v15.84h-3.21l-6.38-10.33v10.33z" />
          <path id="&lt;Compound Path&gt;" class="s2" d="m751.34 145.65v-15.84h11.74v2.68h-8.55v3.51h7.96v2.67h-7.96v4.31h8.85v2.67z" />
        </g>
      </g>
      <g id="&lt;Group&gt;">
        <path id="&lt;Path&gt;" class="s4" d="m221.59 55.87c3.44 0 5.75 2.18 6.63 5.53q4.56 0.42 9.01 0.89c-1.24-7.64-6.26-13.88-15.64-13.88-7.49 0-13.19 4.75-15.31 11.32q4.51 0.27 8.94 0.6c1.16-2.76 3.35-4.46 6.37-4.46z" />
        <path id="&lt;Path&gt;" class="s2" d="m205.38 65.6c0 10.03 7.28 16.95 17.13 16.95 5.93 0 10.34-2.33 13.4-6.12l-5.33-4.71c-2.57 2.38-4.83 3.36-7.95 3.36-4.16 0-7.1-2.2-8.01-6.42h22.82c0.06-0.86 0.12-1.71 0.12-2.45q-0.01-2-0.32-3.92-4.45-0.48-9.02-0.89 0.18 0.69 0.28 1.44h-14.01q0.25-1.37 0.73-2.51-4.43-0.33-8.94-0.6c-0.58 1.8-0.9 3.73-0.9 5.75z" />
        <path id="&lt;Path&gt;" class="s4" d="m46.45 38.98h-9.42v28.96q4.6-0.88 9.42-1.68z" />
        <path id="&lt;Path&gt;" class="s4" d="m104.05 56.97h7.71v-7.95h-7.71v-8.38h-9.3v8.38h-3.92v7.95h3.92v3.6q4.6-0.35 9.3-0.66z" />
        <path id="&lt;Path&gt;" class="s4" d="m133.24 55.87c2.28 0 4.06 0.96 5.26 2.59q4.64-0.1 9.33-0.15c-2.16-5.71-6.91-9.9-14.59-9.9-7.27 0-12.86 4.47-15.12 10.73q4.76-0.22 9.59-0.39c1.26-1.81 3.13-2.88 5.53-2.88z" />
        <path id="&lt;Path&gt;" class="s4" d="m172.71 58.41q1.25-0.27 2.68-0.28h0.49v-9.72c-5.5-0.25-8.56 2.69-10.46 7.22v-6.61h-9.3v9.24q0.25 0 0.51 0 8.1 0 16.08 0.15z" />
        <path id="&lt;Path&gt;" class="s4" d="m200.97 58.13h0.49v-9.72c-5.51-0.25-8.57 2.69-10.46 7.22v-6.61h-9.3v9.61q7.25 0.21 14.35 0.55 2.1-1.05 4.92-1.05z" />
        <path id="&lt;Path&gt;" class="s4" d="m251.08 63.82v-0.12c0-4.46 3.43-7.59 7.96-7.59 4.52 0 8.01 3.13 8.01 7.59v0.12q0 1.3-0.37 2.42 4.89 0.81 9.55 1.7v-18.92h-9.3v4.28c-2.51-2.75-5.51-4.89-10.59-4.89-7.28 0-14.09 5.17-14.52 14.39q4.71 0.54 9.27 1.14-0.01-0.06-0.01-0.12z" />
        <path id="&lt;Path&gt;" class="s4" d="m67.92 57.04c0.62-0.3 1.98-0.58 2.65-0.58 0.67 0 2.03 0.28 2.65 0.58 2.36 1.12 3.43 2.81 3.74 5.15q4.42-0.46 8.96-0.87c-1.05-4.77-3.9-8.8-8.32-11.04-2.02-1.03-4.37-1.88-7.03-1.88-2.66 0-5.01 0.85-7.04 1.88-5.5 2.79-8.59 8.36-8.75 14.69q4.56-0.67 9.29-1.28c0.02-3.17 1-5.3 3.85-6.65z" />
        <path id="&lt;Path&gt;" class="s2" d="m46.45 81.81v-15.55q-4.82 0.8-9.42 1.68v13.87z" />
        <path id="&lt;Path&gt;" class="s2" d="m104.3 82.36c3.11 0 5.38-0.73 7.34-1.89v-7.47c-1.35 0.73-2.88 1.16-4.59 1.16-2.08 0-3-1.04-3-3.18v-11.07q-4.7 0.31-9.3 0.66v11.94c0 7.59 3.85 9.85 9.55 9.85z" />
        <path id="&lt;Path&gt;" class="s2" d="m117.02 65.6c0 10.03 7.28 16.95 17.13 16.95 5.94 0 10.34-2.33 13.4-6.12l-5.32-4.71c-2.57 2.38-4.83 3.36-7.95 3.36-4.16 0-7.1-2.2-8.02-6.42h22.82c0.06-0.86 0.13-1.71 0.13-2.45 0-2.77-0.46-5.47-1.38-7.9q-4.69 0.05-9.33 0.14c0.86 1.16 1.42 2.66 1.65 4.39h-14.01c0.28-1.59 0.81-2.98 1.57-4.09q-4.83 0.17-9.59 0.39c-0.71 1.96-1.1 4.1-1.1 6.34z" />
        <path id="&lt;Path&gt;" class="s2" d="m165.42 81.81v-12.11c0-6.62 2.72-10.3 7.29-11.28q-7.98-0.16-16.08-0.16-0.25 0-0.51 0v23.55z" />
        <path id="&lt;Path&gt;" class="s2" d="m191 81.81v-12.11c0-5.46 1.84-8.92 5.05-10.52q-7.1-0.34-14.35-0.55v23.18z" />
        <path id="&lt;Path&gt;" class="s2" d="m241.78 63.82c0 9.73 6.92 15.3 14.57 15.3 4.95 0 7.95-2.02 10.7-5.32v1.59c0 5.87-3 8.93-9.36 8.93-4.34 0-7.71-1.1-11.07-3l-3.19 6.98c4.16 2.2 9.18 3.42 14.51 3.42 6.36 0 11.07-1.34 14.13-4.4 2.75-2.76 4.16-7.04 4.16-12.91v-6.47q-4.66-0.89-9.55-1.7c-1.02 3.14-3.99 5.17-7.64 5.17-4.49 0-7.89-3.01-7.95-7.47q-4.56-0.6-9.27-1.14-0.03 0.44-0.04 0.9z" />
        <path id="&lt;Path&gt;" class="s2" d="m77.07 63.77v3.19 13.64 1.2h9.3v-16.21-0.13q-0.01-2.14-0.45-4.14-4.54 0.41-8.96 0.87 0.1 0.75 0.11 1.58z" />
        <path id="&lt;Path&gt;" class="s2" d="m54.77 65.59v16.21h9.3v-1.2-13.64-3.19q0-0.04 0-0.08-4.73 0.61-9.29 1.27-0.01 0.25-0.01 0.5z" />
        <g id="&lt;Group&gt;">
          <path id="&lt;Compound Path&gt;" fill-rule="evenodd" class="s2" d="m59.61 113q3.35 1.51 5.15 4.29 1.81 2.79 1.81 6.59 0 3.76-1.81 6.57-1.8 2.81-5.15 4.3-3.34 1.49-7.88 1.49h-6.88v9.42h-7.91v-34.18h14.79q4.54 0 7.88 1.52zm-2.9 15.25q1.85-1.53 1.85-4.37 0-2.88-1.85-4.41-1.86-1.54-5.42-1.54h-6.44v11.86h6.44q3.56 0 5.42-1.54z" />
          <path id="&lt;Compound Path&gt;" fill-rule="evenodd" class="s2"
            d="m79.63 143.95q-4.27-2.29-6.69-6.32-2.41-4.03-2.41-9.06 0-5.03 2.41-9.06 2.42-4.02 6.69-6.32 4.27-2.29 9.6-2.29 5.32 0 9.56 2.29 4.25 2.3 6.69 6.32 2.44 4.03 2.44 9.06 0 5.03-2.44 9.06-2.44 4.03-6.69 6.32-4.24 2.3-9.56 2.3-5.33 0-9.6-2.3zm15.06-5.83q2.44-1.4 3.84-3.89 1.39-2.48 1.39-5.66 0-3.17-1.39-5.66-1.4-2.49-3.84-3.88-2.44-1.4-5.46-1.39-3.03-0.01-5.47 1.39-2.44 1.39-3.84 3.88-1.39 2.49-1.39 5.66 0 3.18 1.39 5.66 1.4 2.49 3.84 3.89 2.44 1.39 5.47 1.39 3.02 0 5.46-1.39z" />
        </g>
        <g id="&lt;Group&gt;">
          <path id="&lt;Compound Path&gt;" class="s2"
            d="m120.79 143.98q-4.22-2.27-6.64-6.3-2.42-4.03-2.42-9.11 0-5.08 2.42-9.1 2.42-4.03 6.64-6.3 4.22-2.27 9.5-2.27 4.44 0 8.03 1.56 3.59 1.56 6.03 4.49l-5.08 4.69q-3.47-4-8.59-4-3.18-0.01-5.67 1.39-2.49 1.39-3.88 3.88-1.39 2.49-1.39 5.66 0 3.18 1.39 5.66 1.39 2.49 3.88 3.89 2.49 1.39 5.67 1.39 5.12 0 8.59-4.05l5.08 4.68q-2.45 2.98-6.06 4.54-3.61 1.57-8.05 1.57-5.23 0-9.45-2.27z" />
        </g>
        <g id="&lt;Group&gt;">
          <path id="&lt;Compound Path&gt;" class="s2" d="m158.16 117.93h-10.93v-6.45h29.78v6.45h-10.94v27.73h-7.91z" />
        </g>
        <g id="&lt;Group&gt;">
          <path id="&lt;Compound Path&gt;" class="s2" d="m208.21 139.31v6.35h-26.46v-34.18h25.83v6.35h-17.97v7.42h15.87v6.15h-15.87v7.91z" />
          <path id="&lt;Compound Path&gt;" class="s2" d="m222.42 117.83v9.03h15.82v6.35h-15.82v12.45h-7.91v-34.18h25.83v6.35z" />
          <path id="&lt;Compound Path&gt;" fill-rule="evenodd" class="s2" d="m266.85 138.34h-15.87l-3.03 7.32h-8.1l15.23-34.18h7.81l15.28 34.18h-8.3zm-2.49-6.01l-5.42-13.08-5.42 13.08z" />
        </g>
      </g>
      <path id="&lt;Path&gt;" class="s5" d="m-17.71 198.62h833.71v-213.29h-833.71z" />
    </g>
  </g>
</svg>