<svg width="48" height="48" viewBox="0 0 48 48" fill="none" xmlns="http://www.w3.org/2000/svg">
<path d="M32.3998 22.8C31.0648 22.8 29.8123 22.4401 28.7398 21.8026L38.6023 11.94C39.2323 13.0125 39.5998 14.265 39.5998 15.6C39.5998 19.575 36.3748 22.8 32.3998 22.8ZM25.1998 15.6C25.1998 11.625 28.4248 8.40005 32.3998 8.40005C33.7348 8.40005 34.9873 8.76005 36.0598 9.39755L26.1973 19.26C25.5673 18.1875 25.1998 16.935 25.1998 15.6ZM32.3998 26.4C38.3623 26.4 43.1998 21.5625 43.1998 15.6C43.1998 9.63755 38.3623 4.80005 32.3998 4.80005C26.4373 4.80005 21.5998 9.63755 21.5998 15.6C21.5998 21.5625 26.4373 26.4 32.3998 26.4ZM15.5998 39.6001C12.2473 39.6001 9.4273 37.305 8.6248 34.2001H22.5748C21.7723 37.305 18.9598 39.6001 15.5998 39.6001ZM8.6248 30.6C9.4273 27.4951 12.2398 25.2001 15.5998 25.2001C18.9598 25.2001 21.7723 27.4951 22.5748 30.6H8.6248ZM15.5998 43.2001C21.5623 43.2001 26.3998 38.3625 26.3998 32.4C26.3998 26.4375 21.5623 21.6 15.5998 21.6C9.6373 21.6 4.7998 26.4375 4.7998 32.4C4.7998 38.3625 9.6373 43.2001 15.5998 43.2001Z" fill="#271332"/>
</svg>
