<svg width="48" height="48" viewBox="0 0 48 48" fill="none" xmlns="http://www.w3.org/2000/svg">
<path d="M41.9474 10.545C41.6024 9.89255 40.7249 9.81755 40.1999 10.3425L27.1424 23.4C26.6174 23.925 26.6924 24.8025 27.3449 25.1475C28.8524 25.95 30.5699 26.4 32.3999 26.4C38.3624 26.4 43.1999 21.5625 43.1999 15.6C43.1999 13.7775 42.7499 12.0525 41.9474 10.545ZM22.8524 20.655C23.1974 21.3075 24.0749 21.3825 24.5999 20.8575L37.6574 7.80005C38.1824 7.27505 38.1074 6.39755 37.4549 6.05255C35.9474 5.25005 34.2299 4.80005 32.3999 4.80005C26.4374 4.80005 21.5999 9.63755 21.5999 15.6C21.5999 17.4225 22.0499 19.1475 22.8524 20.655ZM15.5999 21.6C10.7399 21.6 6.62991 24.8101 5.27241 29.2201C5.05491 29.9326 5.62491 30.6 6.36741 30.6H24.8324C25.5749 30.6 26.1449 29.9326 25.9274 29.2201C25.8599 28.9951 25.7849 28.7775 25.7024 28.5675C22.8974 27.21 20.6024 24.9676 19.1774 22.2076C18.0599 21.8176 16.8599 21.6 15.6074 21.6H15.5999ZM25.9274 35.58C26.1449 34.8675 25.5749 34.2001 24.8324 34.2001H6.36741C5.62491 34.2001 5.05491 34.8675 5.27241 35.58C6.62991 39.9901 10.7399 43.2001 15.5999 43.2001C20.4599 43.2001 24.5699 39.9901 25.9274 35.58Z" fill="#271332"/>
</svg>
