<svg width="64" height="64" viewBox="0 0 64 64" fill="none" xmlns="http://www.w3.org/2000/svg">
<path d="M30.4002 7.01002C31.3102 6.19002 32.6902 6.19002 33.6002 7.01002L56.8002 27.81C57.7902 28.69 57.8702 30.21 56.9802 31.2C56.0902 32.19 54.5802 32.27 53.5902 31.38L52.7902 30.66V51.19C52.7902 54.72 49.9202 57.59 46.3902 57.59H17.5902C14.0602 57.59 11.1902 54.72 11.1902 51.19V30.66L10.3902 31.38C9.40015 32.26 7.89015 32.18 7.00015 31.2C6.11015 30.22 6.20015 28.7 7.18015 27.81L30.4002 7.01002ZM32.0002 12.02L16.0002 26.37V51.2C16.0002 52.08 16.7202 52.8 17.6002 52.8H22.4002V42.4C22.4002 38.42 25.6202 35.2 29.6002 35.2H34.4002C38.3802 35.2 41.6002 38.42 41.6002 42.4V52.8H46.4002C47.2802 52.8 48.0002 52.08 48.0002 51.2V26.37L32.0002 12.03V12.02ZM27.2002 52.8H36.8002V42.4C36.8002 41.07 35.7302 40 34.4002 40H29.6002C28.2702 40 27.2002 41.07 27.2002 42.4V52.8Z" fill="#271332"/>
</svg>
