<svg width="48" height="48" viewBox="0 0 48 48" fill="none" xmlns="http://www.w3.org/2000/svg">
<path d="M15.1274 21.8625C17.6999 23.265 19.9649 25.17 21.7874 27.4499C22.6199 28.4924 23.3624 29.6174 23.9924 30.8099C24.6299 29.6174 25.3649 28.4999 26.1974 27.4499C28.0199 25.1625 30.2849 23.2575 32.8574 21.8625C35.9849 20.16 39.5624 19.2 43.3349 19.2H44.0774C44.9099 19.2 45.5849 19.875 45.5849 20.7075C45.5849 31.8075 36.5924 40.7999 25.4924 40.7999H22.4774C11.3924 40.7999 2.3999 31.8075 2.3999 20.7075C2.3999 19.875 3.0749 19.2 3.9074 19.2H4.6499C8.4299 19.2 12.0074 20.16 15.1274 21.8625ZM25.1924 7.64995C26.4599 8.84245 29.7974 12.405 31.8674 18.3225C28.8599 19.8375 26.1824 21.9374 23.9999 24.4799C21.8099 21.9374 19.1399 19.845 16.1324 18.3225C18.2024 12.405 21.5474 8.84245 22.8074 7.64995C23.1299 7.34245 23.5574 7.19995 23.9999 7.19995C24.4424 7.19995 24.8699 7.34995 25.1924 7.64995Z" fill="#271332"/>
</svg>
