<svg width="48" height="48" viewBox="0 0 48 48" fill="none" xmlns="http://www.w3.org/2000/svg">
<path d="M21.6 14.4H26.4V8.40005H21.6V14.4ZM18 14.4V7.20005C18 5.87255 19.0725 4.80005 20.4 4.80005H27.6C28.9275 4.80005 30 5.87255 30 7.20005V7.80005H34.2C35.1975 7.80005 36 8.60255 36 9.60005C36 10.5975 35.1975 11.4 34.2 11.4H30V14.4H31.2C33.8475 14.4 36 16.5525 36 19.2V38.4001C36 41.0476 33.8475 43.2001 31.2 43.2001H16.8C14.1525 43.2001 12 41.0476 12 38.4001V19.2C12 16.5525 14.1525 14.4 16.8 14.4H18ZM30 18H16.8C16.14 18 15.6 18.54 15.6 19.2V38.4001C15.6 39.0601 16.14 39.6001 16.8 39.6001H31.2C31.86 39.6001 32.4 39.0601 32.4 38.4001V19.2C32.4 18.54 31.86 18 31.2 18H30ZM21.9 24C21.9 23.34 22.44 22.8 23.1 22.8H24.9C25.56 22.8 26.1 23.34 26.1 24V26.7001H28.8C29.46 26.7001 30 27.24 30 27.9V29.7001C30 30.3601 29.46 30.9 28.8 30.9H26.1V33.6C26.1 34.26 25.56 34.8001 24.9 34.8001H23.1C22.44 34.8001 21.9 34.26 21.9 33.6V30.9H19.2C18.54 30.9 18 30.3601 18 29.7001V27.9C18 27.24 18.54 26.7001 19.2 26.7001H21.9V24Z" fill="#271332"/>
</svg>
