<svg width="48" height="48" viewBox="0 0 48 48" fill="none" xmlns="http://www.w3.org/2000/svg">
<path d="M17.8874 9C15.1424 9 12.5324 10.23 10.7924 12.36L2.20489 22.86C1.67239 23.5125 1.66489 24.4425 2.18239 25.11L7.93489 32.4675C11.4599 36.975 16.8599 39.6075 22.5824 39.6075H25.4099C31.1324 39.6075 36.5324 36.975 40.0574 32.4675L45.8099 25.11C46.3274 24.45 46.3199 23.5125 45.7874 22.86L37.1999 12.36C35.4599 10.23 32.8574 9 30.1049 9C28.5974 9 27.1124 9.375 25.7849 10.08L23.9999 11.04L22.2074 10.08C20.8799 9.375 19.3949 9 17.8874 9ZM13.5824 14.64C14.6399 13.35 16.2224 12.6 17.8874 12.6C18.8024 12.6 19.7024 12.825 20.5124 13.26L23.1524 14.67C23.6849 14.955 24.3224 14.955 24.8474 14.67L27.4874 13.26C28.2974 12.8325 29.1974 12.6 30.1124 12.6C31.7774 12.6 33.3599 13.35 34.4174 14.64L42.0974 24.0225L37.2299 30.24C34.3874 33.87 30.0299 35.9925 25.4174 35.9925H22.5899C17.9774 35.9925 13.6199 33.87 10.7774 30.24L5.90239 24.0225L13.5824 14.64ZM17.3699 17.49C16.7249 17.2725 16.0124 17.445 15.5249 17.925L10.7249 22.725C10.3424 23.1075 10.1549 23.64 10.2074 24.1725C10.2599 24.705 10.5524 25.1925 11.0024 25.4925L14.5724 27.8775C17.2349 29.655 20.3624 30.6 23.5574 30.6H24.4349C27.6299 30.6 30.7574 29.655 33.4199 27.8775L36.9974 25.5C37.4474 25.2 37.7399 24.72 37.7924 24.18C37.8449 23.64 37.6574 23.1075 37.2749 22.7325L32.4749 17.9325C31.9949 17.4525 31.2824 17.28 30.6299 17.4975L23.9999 19.71L17.3699 17.4975V17.49ZM14.8274 23.715L17.2874 21.255L23.4299 23.3025C23.7974 23.4225 24.2024 23.4225 24.5699 23.3025L30.7124 21.255L33.1724 23.715L31.4249 24.8775C29.3549 26.2575 26.9249 26.9925 24.4349 26.9925H23.5574C21.0674 26.9925 18.6374 26.2575 16.5674 24.8775L14.8199 23.715H14.8274Z" fill="#271332"/>
</svg>
