<svg width="48" height="48" viewBox="0 0 48 48" fill="none" xmlns="http://www.w3.org/2000/svg">
<path d="M4.64988 21.3076L12.3449 12.0751C13.6499 10.5076 15.5924 9.6001 17.6399 9.6001C19.0124 9.6001 20.3549 10.0126 21.4949 10.7776L24.0149 12.4801L26.5349 10.7776C27.6749 10.0126 29.0174 9.6001 30.3899 9.6001C32.4374 9.6001 34.3724 10.5076 35.6849 12.0751L43.3649 21.3076C44.6624 22.8676 44.6624 25.1251 43.3649 26.6851L38.6399 32.3551C35.4524 36.1876 30.7274 38.4001 25.7399 38.4001H22.2749C17.2874 38.4001 12.5624 36.1876 9.36738 32.3551L4.64988 26.6851C3.35238 25.1251 3.35238 22.8676 4.64988 21.3076ZM11.3249 22.8526C10.5599 23.3626 10.6274 24.5101 11.4524 24.9226L16.1624 27.2776C18.1649 28.2751 20.3699 28.8001 22.6049 28.8001H24.9824C27.4874 28.8001 29.9474 28.1476 32.1299 26.9026L35.6774 24.8776C36.4124 24.4576 36.4949 23.4301 35.8349 22.8976L31.7249 19.6051C31.4099 19.3501 30.9824 19.2751 30.5924 19.4026L27.0449 20.5876C25.0724 21.2476 22.9424 21.2476 20.9699 20.5876L17.3624 19.3876C17.0099 19.2676 16.6274 19.3201 16.3199 19.5301L11.3249 22.8526Z" fill="#271332"/>
</svg>
