<svg width="48" height="48" viewBox="0 0 48 48" fill="none" xmlns="http://www.w3.org/2000/svg">
<path d="M11.9998 43.2001H16.7998C20.7748 43.2001 23.9998 39.9751 23.9998 36V30C23.9998 29.34 24.5398 28.8 25.1998 28.8H25.2748C27.2248 28.8 28.7998 27.225 28.7998 25.275C28.7998 24.4501 28.5073 23.655 27.9823 23.0175L25.2973 19.8C25.1548 19.62 25.0573 19.4025 25.0273 19.1775C23.8498 11.0475 16.8523 4.80005 8.3998 4.80005C7.8298 4.80005 7.2673 4.83005 6.7048 4.88255C5.5873 4.99505 4.7998 5.99255 4.7998 7.11755V40.8C4.7998 42.1276 5.8723 43.2001 7.1998 43.2001H11.9998ZM13.1998 19.2C13.1998 17.8725 14.2723 16.8 15.5998 16.8C16.9273 16.8 17.9998 17.8725 17.9998 19.2C17.9998 20.5275 16.9273 21.6 15.5998 21.6C14.2723 21.6 13.1998 20.5275 13.1998 19.2ZM17.9323 36.9901L14.8198 36.7276C13.9048 36.6526 13.1998 35.8875 13.1998 34.9725C13.1998 34.1625 13.7473 33.4576 14.5348 33.2626L17.5648 32.505C19.0048 32.1451 20.3998 33.2325 20.3998 34.7176C20.3998 36.0525 19.2598 37.1026 17.9323 36.9901ZM40.7998 28.2001C41.7973 28.2001 42.5998 27.3976 42.5998 26.4C42.5998 25.4025 41.7973 24.6 40.7998 24.6C39.8023 24.6 38.9998 25.4025 38.9998 26.4C38.9998 27.3976 39.8023 28.2001 40.7998 28.2001ZM37.7998 30C37.7998 29.0026 36.9973 28.2001 35.9998 28.2001C35.0023 28.2001 34.1998 29.0026 34.1998 30C34.1998 30.9975 35.0023 31.8001 35.9998 31.8001C36.9973 31.8001 37.7998 30.9975 37.7998 30ZM32.9998 33.6C32.9998 32.6026 32.1973 31.8001 31.1998 31.8001C30.2023 31.8001 29.3998 32.6026 29.3998 33.6C29.3998 34.5975 30.2023 35.4 31.1998 35.4C32.1973 35.4 32.9998 34.5975 32.9998 33.6ZM42.5998 33.6C42.5998 32.6026 41.7973 31.8001 40.7998 31.8001C39.8023 31.8001 38.9998 32.6026 38.9998 33.6C38.9998 34.5975 39.8023 35.4 40.7998 35.4C41.7973 35.4 42.5998 34.5975 42.5998 33.6ZM40.7998 42.6001C41.7973 42.6001 42.5998 41.7976 42.5998 40.8C42.5998 39.8026 41.7973 39 40.7998 39C39.8023 39 38.9998 39.8026 38.9998 40.8C38.9998 41.7976 39.8023 42.6001 40.7998 42.6001ZM37.7998 37.2001C37.7998 36.2026 36.9973 35.4 35.9998 35.4C35.0023 35.4 34.1998 36.2026 34.1998 37.2001C34.1998 38.1976 35.0023 39 35.9998 39C36.9973 39 37.7998 38.1976 37.7998 37.2001Z" fill="#271332"/>
</svg>
