<svg width="48" height="48" viewBox="0 0 48 48" fill="none" xmlns="http://www.w3.org/2000/svg">
<path d="M25.005 5.01755C24.69 4.87505 24.3525 4.80005 24 4.80005C23.6475 4.80005 23.31 4.87505 22.995 5.01755L8.87253 11.01C7.22253 11.7075 5.99253 13.335 6.00003 15.3C6.03753 22.74 9.09753 36.3526 22.02 42.5401C23.2725 43.1401 24.7275 43.1401 25.98 42.5401C38.91 36.3526 41.97 22.74 42 15.3C42.0075 13.335 40.7775 11.7075 39.1275 11.01L25.005 5.01755ZM16.8675 26.2651C17.2275 26.3551 17.61 26.4 18 26.4C20.6475 26.4 22.8 24.2475 22.8 21.6V16.8H26.115C27.0225 16.8 27.855 17.31 28.26 18.1275L28.8 19.2H33.6C34.26 19.2 34.8 19.74 34.8 20.4V22.8C34.8 26.115 32.115 28.8 28.8 28.8H25.2V32.6026C25.2 33.1501 24.7575 33.6 24.2025 33.6C24.0675 33.6 23.9325 33.57 23.8125 33.5175L16.41 30.3451C15.915 30.135 15.6 29.6476 15.6 29.1151C15.6 28.9051 15.645 28.7026 15.7425 28.5151L16.8675 26.2651ZM16.8 16.8H20.4V21.6C20.4 22.9275 19.3275 24 18 24C16.6725 24 15.6 22.9275 15.6 21.6V18C15.6 17.34 16.14 16.8 16.8 16.8ZM26.4 20.4C26.4 19.74 25.86 19.2 25.2 19.2C24.54 19.2 24 19.74 24 20.4C24 21.06 24.54 21.6 25.2 21.6C25.86 21.6 26.4 21.06 26.4 20.4Z" fill="#271332"/>
</svg>
