<svg width="48" height="48" viewBox="0 0 48 48" fill="none" xmlns="http://www.w3.org/2000/svg">
<path d="M10.2825 14.325L24 8.50505L37.725 14.325C38.1675 14.5125 38.4075 14.91 38.4 15.285C38.37 22.14 35.52 33.9826 24.4275 39.2926C24.1575 39.4201 23.8425 39.4201 23.58 39.2926C12.48 33.9826 9.63753 22.14 9.60003 15.285C9.60003 14.91 9.83253 14.52 10.275 14.325H10.2825ZM39.135 11.01L25.005 5.01755C24.69 4.87505 24.3525 4.80005 24 4.80005C23.6475 4.80005 23.31 4.87505 22.995 5.01755L8.87253 11.01C7.22253 11.7075 5.99253 13.335 6.00003 15.3C6.03753 22.74 9.09753 36.3526 22.02 42.5401C23.2725 43.1401 24.7275 43.1401 25.98 42.5401C38.91 36.3526 41.9625 22.74 42 15.3C42.0075 13.335 40.7775 11.7075 39.1275 11.01H39.135ZM16.8675 25.0651L15.7425 27.3151C15.6525 27.5026 15.6 27.7051 15.6 27.9151C15.6 28.4475 15.9225 28.9351 16.41 29.1451L23.8125 32.3175C23.94 32.37 24.0675 32.4 24.2025 32.4C24.75 32.4 25.2 31.9576 25.2 31.4026V27.6H28.8C32.115 27.6 34.8 24.9151 34.8 21.6V19.2C34.8 18.54 34.26 18 33.6 18H28.8L28.26 16.9275C27.855 16.1175 27.0225 15.6 26.115 15.6H22.8V20.4C22.8 23.0476 20.6475 25.2001 18 25.2001C17.61 25.2001 17.2275 25.1551 16.8675 25.0651ZM16.8 15.6C16.14 15.6 15.6 16.14 15.6 16.8V20.4C15.6 21.7276 16.6725 22.8 18 22.8C19.3275 22.8 20.4 21.7276 20.4 20.4V15.6H16.8ZM24 19.2C24 18.54 24.54 18 25.2 18C25.86 18 26.4 18.54 26.4 19.2C26.4 19.86 25.86 20.4 25.2 20.4C24.54 20.4 24 19.86 24 19.2Z" fill="#271332"/>
</svg>
