<svg width="48" height="48" viewBox="0 0 48 48" fill="none" xmlns="http://www.w3.org/2000/svg">
<path d="M24 2.40002C27.975 2.40002 31.2 5.62502 31.2 9.60002C31.2 13.575 27.975 16.8 24 16.8C20.025 16.8 16.8 13.575 16.8 9.60002C16.8 5.62502 20.025 2.40002 24 2.40002ZM6 27.6C6 22.3425 9.525 17.745 14.7825 15.2325C16.68 18.33 20.1 20.4 24 20.4C28.1775 20.4 31.8075 18.0225 33.6 14.55C34.785 13.7025 36.2325 13.2 37.8 13.2H39.2625C40.0425 13.2 40.6125 13.935 40.425 14.6925L39.1425 19.815C39.885 20.745 40.5075 21.7425 40.9725 22.8H42.6C43.5975 22.8 44.4 23.6025 44.4 24.6V33C44.4 33.9975 43.5975 34.8 42.6 34.8H39.6C38.3625 36.45 36.7125 37.77 34.8 38.6025V40.8C34.8 42.1275 33.7275 43.2 32.4 43.2H29.925C28.8525 43.2 27.915 42.4875 27.615 41.46L27.0825 39.6H20.91L20.3775 41.46C20.085 42.4875 19.1475 43.2 18.075 43.2H15.6C14.2725 43.2 13.2 42.1275 13.2 40.8V38.6025C8.9625 36.75 6 32.52 6 27.6ZM34.2 28.8C35.1975 28.8 36 27.9975 36 27C36 26.0025 35.1975 25.2 34.2 25.2C33.2025 25.2 32.4 26.0025 32.4 27C32.4 27.9975 33.2025 28.8 34.2 28.8Z" fill="#271332"/>
</svg>
