<svg width="48" height="48" viewBox="0 0 48 48" fill="none" xmlns="http://www.w3.org/2000/svg">
<path d="M33.0002 5.99995C33.0002 5.00245 32.1977 4.19995 31.2002 4.19995C30.2027 4.19995 29.4002 5.00245 29.4002 5.99995V7.75495C28.3577 8.15245 27.3827 8.76745 26.5352 9.59245L25.2752 8.32495C24.5702 7.61995 23.4302 7.61995 22.7327 8.32495C22.0352 9.02995 22.0277 10.17 22.7327 10.8675L23.9927 12.1275L21.7352 14.385L20.4752 13.125C19.7702 12.42 18.6302 12.42 17.9327 13.125C17.2352 13.83 17.2277 14.9699 17.9327 15.6674L19.1927 16.9275C18.4427 17.6775 17.6927 18.4275 16.9352 19.185L15.6752 17.925C14.9702 17.22 13.8302 17.22 13.1327 17.925C12.4352 18.63 12.4277 19.7699 13.1327 20.4674L14.3927 21.7275L12.1352 23.9849L10.8752 22.725C10.1702 22.02 9.03019 22.02 8.3327 22.725C7.6352 23.43 7.6277 24.57 8.3327 25.2675L9.5927 26.5275C8.76769 27.375 8.1527 28.3499 7.7552 29.3924L6.0002 29.4C5.0027 29.4 4.2002 30.2024 4.2002 31.1999C4.2002 32.1974 5.0027 33 6.0002 33H7.2227C7.3202 34.3724 7.75519 35.7299 8.52769 36.9299L7.7252 37.7249C7.0202 38.43 7.0202 39.57 7.7252 40.2675C8.43019 40.965 9.57019 40.9725 10.2677 40.2675L11.0627 39.4724C12.2327 40.2224 13.5527 40.6574 14.8877 40.7699V41.79C14.8877 42.7874 15.6902 43.59 16.6877 43.59C17.6852 43.59 18.4877 42.7874 18.4877 41.79V40.2824C19.5677 39.8849 20.5802 39.2624 21.4577 38.4074L22.7252 39.6749C23.4302 40.3799 24.5702 40.3799 25.2677 39.6749C25.9652 38.9699 25.9727 37.8299 25.2677 37.1325L24.0077 35.8724L26.2652 33.615L27.5252 34.8749C28.2302 35.5799 29.3702 35.5799 30.0677 34.8749C30.7652 34.1699 30.7727 33.0299 30.0677 32.3325L28.8077 31.0724C29.5577 30.3224 30.3077 29.5725 31.0652 28.815L32.3252 30.0749C33.0302 30.7799 34.1702 30.7799 34.8677 30.0749C35.5652 29.3699 35.5727 28.2299 34.8677 27.5324L33.6077 26.2724L35.8652 24.015L37.1252 25.275C37.8302 25.9799 38.9702 25.9799 39.6677 25.275C40.3652 24.57 40.3727 23.43 39.6677 22.7325L38.4077 21.4724C39.2327 20.6249 39.8477 19.65 40.2452 18.6075H42.0002C42.9977 18.6075 43.8002 17.805 43.8002 16.8075C43.8002 15.81 42.9977 15.0075 42.0002 15.0075H40.7777C40.6802 13.635 40.2452 12.2775 39.4727 11.0775L40.2752 10.275C40.9802 9.56995 40.9802 8.42995 40.2752 7.73245C39.5702 7.03495 38.4302 7.02745 37.7327 7.73245L36.9302 8.52745C35.7302 7.75495 34.3727 7.31995 33.0002 7.22245V5.99995ZM35.7977 18.9975C30.1952 24.6 24.6002 30.1949 18.9977 35.7974C17.1227 37.6724 14.0852 37.6724 12.2102 35.7974C10.3352 33.9224 10.3352 30.8849 12.2102 29.0099C17.8127 23.4074 23.4077 17.8125 29.0102 12.21C30.8852 10.335 33.9227 10.335 35.7977 12.21C37.6727 14.085 37.6727 17.1225 35.7977 18.9975ZM19.2002 31.1999C19.2002 29.8724 18.1277 28.7999 16.8002 28.7999C15.4727 28.7999 14.4002 29.8724 14.4002 31.1999C14.4002 32.5274 15.4727 33.5999 16.8002 33.5999C18.1277 33.5999 19.2002 32.5274 19.2002 31.1999ZM22.8002 27.5999C24.1277 27.5999 25.2002 26.5275 25.2002 25.1999C25.2002 23.8724 24.1277 22.7999 22.8002 22.7999C21.4727 22.7999 20.4002 23.8724 20.4002 25.1999C20.4002 26.5275 21.4727 27.5999 22.8002 27.5999Z" fill="#271332"/>
</svg>
