<svg width="48" height="48" viewBox="0 0 48 48" fill="none" xmlns="http://www.w3.org/2000/svg">
<path d="M25.635 5.44496C24.7125 4.58996 23.2875 4.58996 22.3725 5.44496L5.57252 21.045C4.85252 21.72 4.61252 22.7625 4.97252 23.6775C5.33252 24.5925 6.21002 25.2 7.20002 25.2H8.40002V38.4C8.40002 41.0475 10.5525 43.2 13.2 43.2H34.8C37.4475 43.2 39.6 41.0475 39.6 38.4V25.2H40.8C41.79 25.2 42.675 24.5925 43.035 23.6775C43.395 22.7625 43.155 21.7125 42.435 21.045L25.635 5.44496ZM23.52 23.3625L24 24L24.48 23.3625C25.3125 22.2525 26.6175 21.6 27.9975 21.6C30.4275 21.6 32.4 23.5725 32.4 26.0025V26.4C32.4 30.0825 27.465 33.7575 25.1625 35.2725C24.45 35.7375 23.55 35.7375 22.845 35.2725C20.5425 33.7575 15.6075 30.075 15.6075 26.4V26.0025C15.6075 23.5725 17.58 21.6 20.01 21.6C21.3975 21.6 22.7025 22.2525 23.5275 23.3625H23.52Z" fill="#271332"/>
</svg>
