<svg width="48" height="48" viewBox="0 0 48 48" fill="none" xmlns="http://www.w3.org/2000/svg">
<path d="M14.2048 9.04505C14.7373 8.62505 15.3898 8.40005 16.0648 8.40005H16.4098C17.2198 11.8425 20.3098 14.4 23.9998 14.4C27.6898 14.4 30.7798 11.8425 31.5898 8.40005H31.9348C32.6098 8.40005 33.2623 8.62505 33.7948 9.04505L42.5998 15.9975L38.9998 21.6075L35.0773 19.425C34.5223 19.1175 33.8398 19.125 33.2923 19.4475C32.7448 19.77 32.3998 20.3625 32.3998 21V39C32.3998 39.3301 32.1298 39.6001 31.7998 39.6001H16.1998C15.8698 39.6001 15.5998 39.3301 15.5998 39V21C15.5998 20.3625 15.2623 19.77 14.7148 19.4475C14.1673 19.125 13.4848 19.1175 12.9298 19.425L8.99983 21.6075L5.39983 15.9975L14.2048 9.04505ZM16.0648 4.80005C14.5798 4.80005 13.1398 5.30255 11.9773 6.21755L1.88233 14.19C1.15483 14.7675 0.982334 15.795 1.48483 16.575L6.88483 24.975C7.39483 25.7701 8.44483 26.0325 9.26983 25.5751L11.9998 24.06V39C11.9998 41.3176 13.8823 43.2001 16.1998 43.2001H31.7998C34.1173 43.2001 35.9998 41.3176 35.9998 39V24.06L38.7223 25.5751C39.5548 26.0325 40.5973 25.7701 41.1073 24.975L46.5073 16.575C47.0098 15.795 46.8373 14.76 46.1098 14.19L36.0223 6.21755C34.8598 5.30255 33.4198 4.80005 31.9348 4.80005H16.0648ZM20.2048 8.40005H27.7948C27.1198 9.81755 25.6723 10.8 23.9998 10.8C22.3273 10.8 20.8798 9.81755 20.2048 8.40005Z" fill="#271332"/>
</svg>
