<svg width="48" height="48" viewBox="0 0 48 48" fill="none" xmlns="http://www.w3.org/2000/svg">
<path d="M40.4473 4.815C41.6548 4.935 42.5998 5.955 42.5998 7.2V9.6L42.5773 10.4625C42.1423 19.05 35.2498 25.9425 26.6623 26.3775L25.7998 26.4V41.4C25.7998 42.3975 24.9973 43.2 23.9998 43.2C23.0023 43.2 22.1998 42.3975 22.1998 41.4V31.2H21.5998C12.6148 31.2 5.2723 24.1425 4.8223 15.2625L4.7998 14.4V12C4.7998 10.6725 5.8723 9.6 7.1998 9.6H8.9998L9.8623 9.6225C15.2623 9.9 19.9873 12.7275 22.8598 16.92C24.8098 10.185 30.8623 5.19 38.1298 4.8225L38.9923 4.8H40.1923L40.4398 4.815H40.4473ZM8.3998 14.4C8.3998 21.69 14.3098 27.6 21.5998 27.6H22.1998V26.4C22.1998 19.11 16.2898 13.2 8.9998 13.2H8.3998V14.4ZM38.9998 8.4C31.7098 8.4 25.7998 14.31 25.7998 21.6V22.8C33.0898 22.8 38.9998 16.89 38.9998 9.6V8.4Z" fill="#271332"/>
</svg>
