<svg width="48" height="48" viewBox="0 0 48 48" fill="none" xmlns="http://www.w3.org/2000/svg">
<path d="M43.1998 7.2C43.1998 15.3075 37.4548 22.0725 29.8198 23.655C29.2273 19.2975 27.2698 15.375 24.3823 12.3375C27.3898 7.8 32.5423 4.8 38.3998 4.8H40.7998C42.1273 4.8 43.1998 5.8725 43.1998 7.2ZM4.7998 12C4.7998 10.6725 5.8723 9.6 7.1998 9.6H9.5998C18.8773 9.6 26.3998 17.1225 26.3998 26.4V40.8C26.3998 42.1275 25.3273 43.2 23.9998 43.2C22.6723 43.2 21.5998 42.1275 21.5998 40.8V28.8C12.3223 28.8 4.7998 21.2775 4.7998 12Z" fill="#271332"/>
</svg>
