<svg width="48" height="48" viewBox="0 0 48 48" fill="none" xmlns="http://www.w3.org/2000/svg">
<path d="M10.2825 14.325L24 8.50505L37.725 14.325C38.1675 14.5125 38.4075 14.91 38.4 15.285C38.37 22.14 35.52 33.9826 24.4275 39.2926C24.1575 39.4201 23.8425 39.4201 23.58 39.2926C12.48 33.9826 9.63753 22.14 9.60003 15.285C9.60003 14.91 9.83253 14.52 10.275 14.325H10.2825ZM39.135 11.01L25.005 5.01755C24.69 4.87505 24.3525 4.80005 24 4.80005C23.6475 4.80005 23.31 4.87505 22.995 5.01755L8.87253 11.01C7.22253 11.7075 5.99253 13.335 6.00003 15.3C6.03753 22.74 9.09753 36.3526 22.02 42.5401C23.2725 43.1401 24.7275 43.1401 25.98 42.5401C38.91 36.3526 41.9625 22.74 42 15.3C42.0075 13.335 40.7775 11.7075 39.1275 11.01H39.135ZM23.52 18.5625C22.6875 17.4525 21.3825 16.8 20.0025 16.8C17.5725 16.8 15.6 18.7726 15.6 21.2026V21.6C15.6 25.2825 20.535 28.9575 22.8375 30.4725C23.55 30.9375 24.45 30.9375 25.155 30.4725C27.4575 28.9575 32.3925 25.275 32.3925 21.6V21.2026C32.3925 18.7726 30.42 16.8 27.99 16.8C26.6025 16.8 25.2975 17.4525 24.4725 18.5625L23.9925 19.2L23.5125 18.5625H23.52Z" fill="#271332"/>
</svg>
