<svg width="48" height="48" viewBox="0 0 48 48" fill="none" xmlns="http://www.w3.org/2000/svg">
<path d="M38.3998 33.6H9.5998V39.6C9.5998 41.5875 11.2123 43.2 13.1998 43.2H34.7998C36.7873 43.2 38.3998 41.5875 38.3998 39.6V33.6ZM38.3998 30V23.19C41.2348 21.84 43.1998 18.9525 43.1998 15.6C43.1998 10.9575 39.4423 7.2 34.7998 7.2C33.5023 7.2 32.2723 7.4925 31.1773 8.0175C29.4223 6.045 26.8573 4.8 23.9998 4.8C21.1423 4.8 18.5848 6.045 16.8223 8.0175C15.7273 7.4925 14.4973 7.2 13.1998 7.2C8.5573 7.2 4.7998 10.9575 4.7998 15.6C4.7998 18.9525 6.7648 21.84 9.5998 23.19V30H14.3998V21C14.3998 20.0025 15.2023 19.2 16.1998 19.2C17.1973 19.2 17.9998 20.0025 17.9998 21V30H22.1998V21C22.1998 20.0025 23.0023 19.2 23.9998 19.2C24.9973 19.2 25.7998 20.0025 25.7998 21V30H29.9998V21C29.9998 20.0025 30.8023 19.2 31.7998 19.2C32.7973 19.2 33.5998 20.0025 33.5998 21V30H38.3998Z" fill="#271332"/>
</svg>
