<svg width="48" height="48" viewBox="0 0 48 48" fill="none" xmlns="http://www.w3.org/2000/svg">
<path d="M7.1998 9.60001C7.1998 8.27251 8.2723 7.20001 9.5998 7.20001H35.9998C41.3023 7.20001 45.5998 11.4975 45.5998 16.8C45.5998 22.1025 41.3023 26.4 35.9998 26.4C35.9998 30.375 32.7748 33.6 28.7998 33.6H14.3998C10.4248 33.6 7.1998 30.375 7.1998 26.4V9.60001ZM40.7998 16.8C40.7998 14.1525 38.6473 12 35.9998 12V21.6C38.6473 21.6 40.7998 19.4475 40.7998 16.8ZM7.1998 38.4H35.9998C37.3273 38.4 38.3998 39.4725 38.3998 40.8C38.3998 42.1275 37.3273 43.2 35.9998 43.2H7.1998C5.8723 43.2 4.7998 42.1275 4.7998 40.8C4.7998 39.4725 5.8723 38.4 7.1998 38.4Z" fill="#271332"/>
</svg>
