<svg width="48" height="48" viewBox="0 0 48 48" fill="none" xmlns="http://www.w3.org/2000/svg">
<path d="M7.1999 9.59999C7.1999 6.95249 9.3524 4.79999 11.9999 4.79999H33.5999C36.2474 4.79999 38.3999 6.95249 38.3999 9.59999V13.2H33.5999V9.59999H11.9999V24H22.7999V31.2H8.1599C4.9799 31.2 2.3999 28.62 2.3999 25.44C2.3999 24.645 3.0449 24 3.8399 24H7.1999V9.59999ZM26.3999 21.6C26.3999 18.9525 28.5524 16.8 31.1999 16.8H38.3999C41.0474 16.8 43.1999 18.9525 43.1999 21.6V38.4C43.1999 41.0475 41.0474 43.2 38.3999 43.2H31.1999C28.5524 43.2 26.3999 41.0475 26.3999 38.4V21.6ZM32.9999 34.8C32.0024 34.8 31.1999 35.6025 31.1999 36.6C31.1999 37.5975 32.0024 38.4 32.9999 38.4H36.5999C37.5974 38.4 38.3999 37.5975 38.3999 36.6C38.3999 35.6025 37.5974 34.8 36.5999 34.8H32.9999Z" fill="#271332"/>
</svg>
