<svg width="48" height="48" viewBox="0 0 48 48" fill="none" xmlns="http://www.w3.org/2000/svg">
<path d="M34.8002 13.2C37.1177 13.2 39.0002 11.3175 39.0002 8.99999C39.0002 6.68249 37.1177 4.79999 34.8002 4.79999C32.4827 4.79999 30.6002 6.68249 30.6002 8.99999C30.6002 11.3175 32.4827 13.2 34.8002 13.2ZM20.6627 13.08C21.2927 12.45 22.2977 12.375 23.0177 12.915L25.0277 14.4225L20.2127 19.245C19.8752 19.215 19.5377 19.2 19.2002 19.2C12.5702 19.2 7.2002 24.57 7.2002 31.2C7.2002 37.83 12.5702 43.2 19.2002 43.2C25.8302 43.2 31.2002 37.83 31.2002 31.2C31.2002 30.375 31.1177 29.5725 30.9602 28.8H36.1802L34.2377 38.0325C34.0352 39.0075 34.6577 39.96 35.6252 40.1625C36.5927 40.365 37.5527 39.7425 37.7552 38.775L39.8477 28.8225C40.2377 26.955 38.8202 25.2075 36.9152 25.2075H30.0302L32.2652 22.7475C34.4102 20.3925 34.0577 16.7025 31.5077 14.7975L25.1777 10.035C23.0252 8.42249 20.0177 8.63999 18.1202 10.5375L14.9252 13.725C14.2202 14.43 14.2202 15.57 14.9252 16.2675C15.6302 16.965 16.7702 16.9725 17.4677 16.2675L20.6627 13.0725V13.08ZM27.5477 22.5825C26.5877 21.6525 25.4702 20.88 24.2402 20.31L27.9377 16.6125L29.3552 17.67C30.2027 18.3075 30.3227 19.5375 29.6102 20.3175L27.5552 22.5825H27.5477ZM19.2002 22.8C23.8427 22.8 27.6002 26.5575 27.6002 31.2C27.6002 35.8425 23.8427 39.6 19.2002 39.6C14.5577 39.6 10.8002 35.8425 10.8002 31.2C10.8002 26.5575 14.5577 22.8 19.2002 22.8Z" fill="#271332"/>
</svg>
