<svg width="48" height="48" viewBox="0 0 48 48" fill="none" xmlns="http://www.w3.org/2000/svg">
<path d="M30.6002 8.99999C30.6002 6.68249 32.4827 4.79999 34.8002 4.79999C37.1177 4.79999 39.0002 6.68249 39.0002 8.99999C39.0002 11.3175 37.1177 13.2 34.8002 13.2C32.4827 13.2 30.6002 11.3175 30.6002 8.99999ZM22.6052 14.1075C22.1252 13.7175 21.4352 13.755 21.0002 14.19L18.4952 16.695C17.5577 17.6325 16.0352 17.6325 15.0977 16.695C14.1602 15.7575 14.1602 14.235 15.0977 13.2975L17.6102 10.8C19.7852 8.62499 23.2502 8.44499 25.6352 10.3875L31.7327 15.3375C33.3377 16.6425 33.5177 19.0275 32.1227 20.55L28.9877 24H36.3377C38.6102 24 40.3127 26.0775 39.8702 28.305L37.7552 38.8725C37.4927 40.17 36.2327 41.0175 34.9277 40.755C33.6227 40.4925 32.7827 39.2325 33.0452 37.9275L34.8752 28.8H30.9602C31.1177 29.5725 31.2002 30.375 31.2002 31.2C31.2002 37.83 25.8302 43.2 19.2002 43.2C12.5702 43.2 7.2002 37.83 7.2002 31.2C7.2002 24.57 12.5702 19.2 19.2002 19.2C19.6502 19.2 20.0927 19.2225 20.5352 19.275L24.3152 15.495L22.6127 14.1075H22.6052ZM19.2002 38.4C23.1752 38.4 26.4002 35.175 26.4002 31.2C26.4002 27.225 23.1752 24 19.2002 24C15.2252 24 12.0002 27.225 12.0002 31.2C12.0002 35.175 15.2252 38.4 19.2002 38.4Z" fill="#271332"/>
</svg>
