<svg width="48" height="48" viewBox="0 0 48 48" fill="none" xmlns="http://www.w3.org/2000/svg">
<path d="M16.8002 2.3999C18.1277 2.3999 19.2002 3.4724 19.2002 4.7999V11.9999H28.8002V4.7999C28.8002 3.4724 29.8727 2.3999 31.2002 2.3999C32.5277 2.3999 33.6002 3.4724 33.6002 4.7999V11.9999H38.4002C39.7277 11.9999 40.8002 13.0724 40.8002 14.3999C40.8002 15.7274 39.7277 16.7999 38.4002 16.7999V21.5999C38.4002 28.7324 33.2102 34.6574 26.4002 35.7974V40.7999C26.4002 42.1274 25.3277 43.1999 24.0002 43.1999C22.6727 43.1999 21.6002 42.1274 21.6002 40.7999V35.7974C14.7902 34.6574 9.6002 28.7324 9.6002 21.5999V16.7999C8.2727 16.7999 7.2002 15.7274 7.2002 14.3999C7.2002 13.0724 8.2727 11.9999 9.6002 11.9999H14.4002V4.7999C14.4002 3.4724 15.4727 2.3999 16.8002 2.3999Z" fill="#271332"/>
</svg>
