<svg width="48" height="48" viewBox="0 0 48 48" fill="none" xmlns="http://www.w3.org/2000/svg">
<path d="M5.9999 8.99995C5.9999 8.00245 5.1974 7.19995 4.1999 7.19995C3.2024 7.19995 2.3999 8.00245 2.3999 8.99995V38.9999C2.3999 39.9974 3.2024 40.7999 4.1999 40.7999C5.1974 40.7999 5.9999 39.9974 5.9999 38.9999V33.5999H41.9999V38.9999C41.9999 39.9974 42.8024 40.7999 43.7999 40.7999C44.7974 40.7999 45.5999 39.9974 45.5999 38.9999V24.6C45.5999 19.6274 41.5724 15.6 36.5999 15.6H26.9999C24.6824 15.6 22.7999 17.4825 22.7999 19.8V30H5.9999V8.99995ZM41.9999 24.6V30H26.3999V19.8C26.3999 19.47 26.6699 19.2 26.9999 19.2H36.5999C39.5849 19.2 41.9999 21.615 41.9999 24.6ZM11.9999 21.6C11.9999 20.2725 13.0724 19.2 14.3999 19.2C15.7274 19.2 16.7999 20.2725 16.7999 21.6C16.7999 22.9275 15.7274 24 14.3999 24C13.0724 24 11.9999 22.9275 11.9999 21.6ZM20.3999 21.6C20.3999 18.285 17.7149 15.6 14.3999 15.6C11.0849 15.6 8.3999 18.285 8.3999 21.6C8.3999 24.9149 11.0849 27.6 14.3999 27.6C17.7149 27.6 20.3999 24.9149 20.3999 21.6Z" fill="#271332"/>
</svg>
