<svg width="48" height="48" viewBox="0 0 48 48" fill="none" xmlns="http://www.w3.org/2000/svg">
<path d="M21.3977 18.9975L29.0027 26.6025L34.4252 21.1875C35.4377 20.175 36.0002 18.81 36.0002 17.385C36.0002 14.415 33.5927 12 30.6152 12C29.1902 12 27.8177 12.57 26.8127 13.575L21.3977 18.99V18.9975ZM37.8227 24.5849L24.5852 37.815C22.6727 39.7275 20.0852 40.7999 17.3852 40.7999C11.7602 40.7999 7.2002 36.24 7.2002 30.615C7.2002 27.915 8.2727 25.3275 10.1852 23.415L23.4152 10.185C25.3277 8.27245 27.9152 7.19995 30.6152 7.19995C36.2402 7.19995 40.8002 11.76 40.8002 17.385C40.8002 20.085 39.7277 22.6724 37.8152 24.5849H37.8227Z" fill="#271332"/>
</svg>
