<svg width="48" height="48" viewBox="0 0 48 48" fill="none" xmlns="http://www.w3.org/2000/svg">
<path d="M21.5998 4.80005C12.3223 4.80005 4.7998 12.3225 4.7998 21.6C4.7998 25.935 6.4498 29.895 9.14981 32.8725C9.4648 33.225 9.5998 33.6 9.5998 33.9076V41.4001C9.5998 42.3975 10.4023 43.2001 11.3998 43.2001C12.3973 43.2001 13.1998 42.3975 13.1998 41.4001V33.9076C13.1998 32.5501 12.6148 31.3426 11.8123 30.4576C9.68981 28.1175 8.3998 25.0126 8.3998 21.6C8.3998 18.045 9.8023 14.82 12.0898 12.4425L12.3448 12.825C12.7048 13.365 12.8998 14.0025 12.8998 14.655V16.605C11.9998 17.1225 11.3998 18.09 11.3998 19.2C11.3998 20.8575 12.7423 22.2001 14.3998 22.2001C16.0573 22.2001 17.3998 20.8575 17.3998 19.2C17.3998 18.09 16.7998 17.1225 15.8998 16.605V14.655C15.8998 13.41 15.5323 12.195 14.8423 11.16L14.4148 10.5225C16.0873 9.43505 18.0148 8.71505 20.0998 8.48255V11.7975C19.1998 12.315 18.5998 13.2825 18.5998 14.3925C18.5998 16.05 19.9423 17.3925 21.5998 17.3925C23.2573 17.3925 24.5998 16.05 24.5998 14.3925C24.5998 13.2825 23.9998 12.315 23.0998 11.7975V8.48255C25.1773 8.71505 27.1123 9.43505 28.7848 10.5225L28.3573 11.16C27.6673 12.195 27.2998 13.41 27.2998 14.655V16.605C26.3998 17.1225 25.7998 18.09 25.7998 19.2C25.7998 20.8575 27.1423 22.2001 28.7998 22.2001C30.4573 22.2001 31.7998 20.8575 31.7998 19.2C31.7998 18.09 31.1998 17.1225 30.2998 16.605V14.655C30.2998 14.0025 30.4948 13.365 30.8548 12.825L31.1098 12.4425C32.8873 14.2875 34.1323 16.6501 34.5973 19.2825C34.6648 19.6425 34.8373 19.98 35.0998 20.2425L39.0148 24.1576C39.3898 24.5326 39.6073 25.0501 39.6073 25.5826C39.6073 26.7001 38.7073 27.6 37.5898 27.6H36.5998C35.6023 27.6 34.7998 28.4025 34.7998 29.4V33C34.7998 34.6576 33.4573 36 31.7998 36H28.1998C27.2023 36 26.3998 36.8026 26.3998 37.8V41.4001C26.3998 42.3975 27.2023 43.2001 28.1998 43.2001C29.1973 43.2001 29.9998 42.3975 29.9998 41.4001V39.6001H31.7998C35.4448 39.6001 38.3998 36.6451 38.3998 33V31.1401C41.1148 30.7425 43.1998 28.4025 43.1998 25.5826C43.1998 24.09 42.6073 22.6651 41.5573 21.6075L38.0323 18.0826C36.4123 10.4925 29.6773 4.80005 21.5998 4.80005ZM24.5998 24C24.5998 22.3426 23.2573 21 21.5998 21C19.9423 21 18.5998 22.3426 18.5998 24C18.5998 25.6575 19.9423 27 21.5998 27C23.2573 27 24.5998 25.6575 24.5998 24Z" fill="#271332"/>
</svg>
