<svg width="64" height="64" viewBox="0 0 64 64" fill="none" xmlns="http://www.w3.org/2000/svg">
<path d="M18.9399 12.06C19.6499 11.5 20.5199 11.2 21.4199 11.2H21.8799C22.9599 15.79 27.0799 19.2 31.9999 19.2C36.9199 19.2 41.0399 15.79 42.1199 11.2H42.5799C43.4799 11.2 44.3499 11.5 45.0599 12.06L56.7999 21.33L51.9999 28.81L46.7699 25.9C46.0299 25.49 45.1199 25.5 44.3899 25.93C43.6599 26.36 43.1999 27.15 43.1999 28V52C43.1999 52.44 42.8399 52.8 42.3999 52.8H21.5999C21.1599 52.8 20.7999 52.44 20.7999 52V28C20.7999 27.15 20.3499 26.36 19.6199 25.93C18.8899 25.5 17.9799 25.49 17.2399 25.9L11.9999 28.81L7.19994 21.33L18.9399 12.06ZM21.4199 6.40002C19.4399 6.40002 17.5199 7.07002 15.9699 8.29002L2.50994 18.92C1.53994 19.69 1.30994 21.06 1.97994 22.1L9.17994 33.3C9.85994 34.36 11.2599 34.71 12.3599 34.1L15.9999 32.08V52C15.9999 55.09 18.5099 57.6 21.5999 57.6H42.3999C45.4899 57.6 47.9999 55.09 47.9999 52V32.08L51.6299 34.1C52.7399 34.71 54.1299 34.36 54.8099 33.3L62.0099 22.1C62.6799 21.06 62.4499 19.68 61.4799 18.92L48.0299 8.29002C46.4799 7.07002 44.5599 6.40002 42.5799 6.40002H21.4199ZM26.9399 11.2H37.0599C36.1599 13.09 34.2299 14.4 31.9999 14.4C29.7699 14.4 27.8399 13.09 26.9399 11.2Z" fill="#271332"/>
</svg>
