<svg width="48" height="48" viewBox="0 0 48 48" fill="none" xmlns="http://www.w3.org/2000/svg">
<path d="M2.3999 14.4C2.3999 11.7525 4.5524 9.6 7.1999 9.6H40.7999C43.4474 9.6 45.5999 11.7525 45.5999 14.4V19.2C45.5999 19.86 45.0449 20.3775 44.4224 20.595C43.0124 21.0825 41.9999 22.425 41.9999 24C41.9999 25.575 43.0124 26.9175 44.4224 27.405C45.0449 27.6225 45.5999 28.14 45.5999 28.8V33.6C45.5999 36.2475 43.4474 38.4 40.7999 38.4H7.1999C4.5524 38.4 2.3999 36.2475 2.3999 33.6V28.8C2.3999 28.14 2.9549 27.6225 3.5774 27.405C4.9874 26.9175 5.9999 25.575 5.9999 24C5.9999 22.425 4.9874 21.0825 3.5774 20.595C2.9549 20.3775 2.3999 19.86 2.3999 19.2V14.4Z" fill="#271332"/>
</svg>
