<svg width="48" height="48" viewBox="0 0 48 48" fill="none" xmlns="http://www.w3.org/2000/svg">
<path d="M4.8 10.8C4.14 10.8 3.6 11.34 3.6 12V30.72C4.5 30.2625 5.52 30 6.6 30C8.49 30 10.2 30.795 11.4 32.07C12.6 30.795 14.31 30 16.2 30C19.2225 30 21.765 32.0325 22.5525 34.8H32.4V12C32.4 11.34 31.86 10.8 31.2 10.8H4.8ZM36 30.72C36.9 30.2625 37.92 30 39 30C41.235 30 43.2075 31.11 44.4 32.805V27.6H36V30.72ZM48 33.6C48 35.4225 46.9875 37.005 45.4875 37.8225C44.9175 40.8825 42.225 43.2 39 43.2C35.9775 43.2 33.435 41.1675 32.6475 38.4H22.5525C21.7725 41.1675 19.2225 43.2 16.2 43.2C14.31 43.2 12.6 42.405 11.4 41.13C10.2 42.405 8.49 43.2 6.6 43.2C2.955 43.2 0 40.245 0 36.6V12C0 9.3525 2.1525 7.2 4.8 7.2H31.2C33.8475 7.2 36 9.3525 36 12V14.4H40.155C41.43 14.4 42.6525 14.9025 43.5525 15.8025L46.5975 18.8475C47.4975 19.7475 48 20.97 48 22.245V33.6ZM44.4 24V22.245C44.4 21.93 44.2725 21.6225 44.0475 21.3975L41.0025 18.3525C40.7775 18.1275 40.47 18 40.155 18H36V24H44.4ZM6.6 39.6C8.2575 39.6 9.6 38.2575 9.6 36.6C9.6 34.9425 8.2575 33.6 6.6 33.6C4.9425 33.6 3.6 34.9425 3.6 36.6C3.6 38.2575 4.9425 39.6 6.6 39.6ZM42 36.6C42 34.9425 40.6575 33.6 39 33.6C37.3425 33.6 36 34.9425 36 36.6C36 38.2575 37.3425 39.6 39 39.6C40.6575 39.6 42 38.2575 42 36.6ZM16.2 39.6C17.8575 39.6 19.2 38.2575 19.2 36.6C19.2 34.9425 17.8575 33.6 16.2 33.6C14.5425 33.6 13.2 34.9425 13.2 36.6C13.2 38.2575 14.5425 39.6 16.2 39.6Z" fill="#271332"/>
</svg>
