<svg width="48" height="48" viewBox="0 0 48 48" fill="none" xmlns="http://www.w3.org/2000/svg">
<path d="M4.7998 8.40005C4.7998 6.41255 6.4123 4.80005 8.3998 4.80005H12.5998C13.5973 4.80005 14.3998 5.60255 14.3998 6.60005C14.3998 7.59755 13.5973 8.40005 12.5998 8.40005H8.3998V18C8.3998 22.6425 12.1573 26.4 16.7998 26.4C21.4423 26.4 25.1998 22.6425 25.1998 18V8.40005H20.9998C20.0023 8.40005 19.1998 7.59755 19.1998 6.60005C19.1998 5.60255 20.0023 4.80005 20.9998 4.80005H25.1998C27.1873 4.80005 28.7998 6.41255 28.7998 8.40005V18C28.7998 24.015 24.3748 28.9951 18.5998 29.8651V33C18.5998 37.9725 22.6273 42 27.5998 42C32.5723 42 36.5998 37.9725 36.5998 33V25.2001C36.5998 25.1101 36.6073 25.0201 36.6223 24.93C34.1773 24.1725 32.3998 21.8925 32.3998 19.2C32.3998 15.885 35.0848 13.2 38.3998 13.2C41.7148 13.2 44.3998 15.885 44.3998 19.2C44.3998 21.8925 42.6223 24.1725 40.1773 24.93C40.1923 25.0201 40.1998 25.1101 40.1998 25.2001V33C40.1998 39.96 34.5598 45.6001 27.5998 45.6001C20.6398 45.6001 14.9998 39.96 14.9998 33V29.8651C9.2248 28.9951 4.7998 24.015 4.7998 18V8.40005ZM38.3998 21.6C39.7273 21.6 40.7998 20.5275 40.7998 19.2C40.7998 17.8725 39.7273 16.8 38.3998 16.8C37.0723 16.8 35.9998 17.8725 35.9998 19.2C35.9998 20.5275 37.0723 21.6 38.3998 21.6Z" fill="#271332"/>
</svg>
