<svg width="48" height="48" viewBox="0 0 48 48" fill="none" xmlns="http://www.w3.org/2000/svg">
<path d="M4.7998 8.40005C4.7998 6.41255 6.4123 4.80005 8.3998 4.80005H11.9998C13.3273 4.80005 14.3998 5.87255 14.3998 7.20005C14.3998 8.52755 13.3273 9.60005 11.9998 9.60005H9.5998V19.2C9.5998 23.175 12.8248 26.4 16.7998 26.4C20.7748 26.4 23.9998 23.175 23.9998 19.2V9.60005H21.5998C20.2723 9.60005 19.1998 8.52755 19.1998 7.20005C19.1998 5.87255 20.2723 4.80005 21.5998 4.80005H25.1998C27.1873 4.80005 28.7998 6.41255 28.7998 8.40005V19.2C28.7998 25.0051 24.6748 29.85 19.1998 30.96V32.4C19.1998 37.0425 22.9573 40.8 27.5998 40.8C32.2423 40.8 35.9998 37.0425 35.9998 32.4V25.9875C33.2023 24.9975 31.1998 22.335 31.1998 19.2C31.1998 15.225 34.4248 12 38.3998 12C42.3748 12 45.5998 15.225 45.5998 19.2C45.5998 22.335 43.5973 25.005 40.7998 25.9875V32.4C40.7998 39.69 34.8898 45.6001 27.5998 45.6001C20.3098 45.6001 14.3998 39.69 14.3998 32.4V30.96C8.9248 29.85 4.7998 25.0051 4.7998 19.2V8.40005ZM38.3998 21.6C39.7273 21.6 40.7998 20.5275 40.7998 19.2C40.7998 17.8725 39.7273 16.8 38.3998 16.8C37.0723 16.8 35.9998 17.8725 35.9998 19.2C35.9998 20.5275 37.0723 21.6 38.3998 21.6Z" fill="#271332"/>
</svg>
