<svg width="48" height="48" viewBox="0 0 48 48" fill="none" xmlns="http://www.w3.org/2000/svg">
<path d="M22.2598 3.9676C23.2948 3.1651 24.7348 3.1651 25.7698 3.9676L25.9873 4.1476L26.8423 4.9801C27.8023 5.9551 29.0473 7.3351 30.1648 8.9551C30.5623 9.5326 30.9523 10.1626 31.3123 10.8301C32.2873 10.7701 33.2398 10.7926 34.1323 10.8601C36.0973 11.0101 37.9123 11.4001 39.2398 11.7451L40.3798 12.0751C41.8423 12.5176 42.6973 14.0026 42.3523 15.4876L42.0598 16.6426C41.6998 17.9626 41.1223 19.7251 40.2748 21.5026C39.9298 22.2151 39.5323 22.9576 39.0673 23.6776C39.5248 24.4051 39.9298 25.1401 40.2748 25.8601C41.4073 28.2301 42.0523 30.5851 42.3523 31.8751L42.4048 32.1526C42.5773 33.4501 41.8573 34.6951 40.6498 35.1976L40.3798 35.2951C39.1123 35.6776 36.7498 36.3001 34.1323 36.5026C33.2323 36.5701 32.2723 36.5926 31.2898 36.5326C30.9298 37.2001 30.5398 37.8301 30.1423 38.4151C28.6573 40.5826 26.9398 42.3151 25.9723 43.2226L25.7548 43.4026C24.7198 44.2051 23.2798 44.1976 22.2448 43.4026L22.0273 43.2226L21.1723 42.3901C20.2123 41.4226 18.9673 40.0351 17.8498 38.4151C17.4523 37.8301 17.0623 37.2001 16.7023 36.5326C15.7273 36.5926 14.7748 36.5776 13.8823 36.5101C11.9173 36.3601 10.1023 35.9701 8.77485 35.6251L7.63485 35.3026C6.17235 34.8601 5.31735 33.3751 5.66235 31.8901L5.95485 30.7351C6.31485 29.4151 6.89235 27.6526 7.73985 25.8751C8.08485 25.1626 8.48235 24.4201 8.94735 23.6926C8.48235 22.9726 8.08485 22.2301 7.73985 21.5176C6.60735 19.1476 5.96235 16.7926 5.66235 15.5026L5.60985 15.2251C5.43735 13.9201 6.15735 12.6751 7.37235 12.1726L7.63485 12.0751C8.90235 11.6926 11.2648 11.0701 13.8823 10.8676C14.7823 10.8001 15.7423 10.7776 16.7173 10.8376C17.0773 10.1701 17.4748 9.5401 17.8723 8.9551C19.3573 6.7876 21.0748 5.0551 22.0423 4.1476L22.2598 3.9676ZM24.0073 33.5851C23.6023 33.9901 23.1598 34.3726 22.6723 34.7026L22.1098 35.0551C21.5773 35.3626 21.0223 35.6026 20.4523 35.8051C20.5723 35.9926 20.6998 36.1876 20.8273 36.3751C21.8923 37.9276 23.1223 39.2476 23.9998 40.1176C24.8848 39.2476 26.1073 37.9276 27.1723 36.3751C27.2998 36.1876 27.4273 35.9926 27.5473 35.8051C27.1573 35.6626 26.7673 35.5051 26.3923 35.3176L25.9048 35.0551C25.1923 34.6426 24.5548 34.1401 23.9998 33.5776L24.0073 33.5851ZM24.0148 7.2526C23.1298 8.1226 21.9073 9.4426 20.8423 10.9951C19.5373 12.9001 18.6148 14.9326 18.6148 16.8001C18.6148 17.6851 18.8248 18.5176 19.1998 19.2451C19.4848 19.8001 19.4548 20.4676 19.1323 21.0001C18.8098 21.5326 18.2248 21.8626 17.6023 21.8626C16.8073 21.8626 15.9973 22.0426 15.2323 22.4176L14.9098 22.5901C13.2973 23.5201 11.9923 25.3351 10.9948 27.4201C10.1848 29.1226 9.65985 30.8401 9.34485 32.0401C10.5373 32.3701 12.2923 32.7751 14.1673 32.9251C16.4698 33.1051 18.6898 32.8801 20.3098 31.9501L20.6473 31.7401C21.4123 31.2151 22.0123 30.5326 22.4098 29.7526L22.5373 29.5426C22.8748 29.0701 23.4223 28.7776 24.0073 28.7776C24.6823 28.7776 25.2973 29.1526 25.6048 29.7526C26.0623 30.6451 26.7673 31.4176 27.7048 31.9576L28.0123 32.1226C29.5948 32.9176 31.6873 33.1051 33.8473 32.9326C35.7223 32.7826 37.4773 32.3776 38.6698 32.0476C38.3548 30.8476 37.8298 29.1301 37.0198 27.4276C36.0898 25.4701 34.8823 23.7601 33.4048 22.7851L33.1048 22.5976C32.2573 22.1101 31.3348 21.8776 30.4273 21.8701C29.8048 21.8701 29.2198 21.5401 28.8973 21.0076C28.5748 20.4751 28.5448 19.8076 28.8298 19.2526C29.2048 18.5176 29.4148 17.6926 29.4148 16.8076L29.4073 16.4551C29.3023 14.6851 28.4173 12.7876 27.1948 11.0026C26.1298 9.4501 24.8998 8.1301 24.0223 7.2601L24.0148 7.2526ZM24.0148 25.8001C22.3573 25.8001 21.0148 24.4576 21.0148 22.8001C21.0148 21.1426 22.3573 19.8001 24.0148 19.8001C25.6723 19.8001 27.0148 21.1426 27.0148 22.8001C27.0148 24.4576 25.6723 25.8001 24.0148 25.8001ZM32.7148 14.4076C32.9023 15.1876 33.0148 15.9826 33.0148 16.8001L32.9998 17.3476C32.9773 17.7751 32.9173 18.1876 32.8348 18.6001C33.5473 18.8026 34.2448 19.0876 34.9123 19.4776L35.3773 19.7626C35.8198 20.0551 36.2398 20.3851 36.6298 20.7376C36.7648 20.4826 36.8998 20.2276 37.0273 19.9651C37.8373 18.2701 38.3623 16.5451 38.6773 15.3451C37.4848 15.0151 35.7298 14.6101 33.8548 14.4601C33.4723 14.4301 33.0973 14.4151 32.7223 14.4076H32.7148ZM15.3073 14.4076C14.9323 14.4151 14.5498 14.4301 14.1673 14.4601C12.2923 14.6101 10.5373 15.0151 9.34485 15.3451C9.65985 16.5451 10.1848 18.2626 10.9948 19.9651C11.1223 20.2276 11.2498 20.4826 11.3848 20.7376C11.9098 20.2651 12.4873 19.8376 13.1098 19.4776L13.6498 19.1926C14.1523 18.9451 14.6773 18.7501 15.2023 18.6001C15.0823 18.0226 15.0223 17.4226 15.0223 16.8076C15.0223 15.9901 15.1273 15.1951 15.3148 14.4151L15.3073 14.4076Z" fill="#271332"/>
</svg>
