<svg width="48" height="48" viewBox="0 0 48 48" fill="none" xmlns="http://www.w3.org/2000/svg">
<path d="M17.9999 15.6V13.2H19.3424C21.4049 13.2 23.2424 11.88 23.8949 9.91505L23.9999 9.60005L24.1049 9.91505C24.7574 11.8725 26.5949 13.2 28.6574 13.2H29.9999V15.6C29.9999 18.915 27.3149 21.6 23.9999 21.6C20.6849 21.6 17.9999 18.915 17.9999 15.6ZM33.5999 15.6V13.2V13.095C34.2974 12.8475 34.7999 12.18 34.7999 11.4C34.7999 10.4025 33.9974 9.60005 32.9999 9.60005C32.9324 9.60005 32.8649 9.60755 32.7974 9.61505C31.4549 6.77255 28.5524 4.80005 25.1999 4.80005H22.7999C19.4474 4.80005 16.5524 6.76505 15.2024 9.61505C15.1349 9.60755 15.0674 9.60005 14.9999 9.60005C14.0024 9.60005 13.1999 10.4025 13.1999 11.4C13.1999 12.1875 13.7024 12.8475 14.3999 13.095V13.2V15.6C14.3999 17.4525 14.9249 19.185 15.8324 20.6475L14.7074 22.335C14.5049 22.635 14.3999 22.995 14.3999 23.355C14.3999 24.375 15.2249 25.2 16.2449 25.2H31.7624C32.7824 25.2 33.6074 24.375 33.6074 23.355C33.6074 22.995 33.5024 22.635 33.2999 22.335L32.1749 20.6475C33.0749 19.185 33.5999 17.4525 33.5999 15.6ZM28.4999 28.86C28.0949 28.8225 27.6749 28.8 27.2549 28.8H20.7374C20.3174 28.8 19.9049 28.8225 19.4924 28.86V33.9225C20.7299 34.4925 21.5924 35.745 21.5924 37.1925C21.5924 39.18 19.9799 40.7926 17.9924 40.7926C16.0049 40.7926 14.3924 39.18 14.3924 37.1925C14.3924 35.7375 15.2549 34.485 16.4924 33.9225V29.5425C11.7749 31.275 8.3999 35.82 8.3999 41.145C8.3999 42.2775 9.3224 43.2001 10.4549 43.2001H37.5374C38.6699 43.2001 39.5924 42.2775 39.5924 41.145C39.5924 35.82 36.2174 31.2825 31.4924 29.55V32.355C33.2399 32.97 34.4924 34.6425 34.4924 36.6001V39.0001C34.4924 39.8251 33.8174 40.5001 32.9924 40.5001C32.1674 40.5001 31.4924 39.8251 31.4924 39.0001V36.6001C31.4924 35.7751 30.8174 35.1001 29.9924 35.1001C29.1674 35.1001 28.4924 35.7751 28.4924 36.6001V39.0001C28.4924 39.8251 27.8174 40.5001 26.9924 40.5001C26.1674 40.5001 25.4924 39.8251 25.4924 39.0001V36.6001C25.4924 34.6425 26.7449 32.9775 28.4924 32.355V28.86H28.4999Z" fill="black"/>
</svg>
