<svg width="48" height="48" viewBox="0 0 48 48" fill="none" xmlns="http://www.w3.org/2000/svg">
<path d="M20.3999 6.60005V10.8H16.1999C15.2024 10.8 14.3999 11.6025 14.3999 12.6V16.2C14.3999 17.1975 15.2024 18 16.1999 18H20.3999V22.2001C20.3999 23.1975 21.2024 24 22.1999 24H25.7999C26.7974 24 27.5999 23.1975 27.5999 22.2001V18H31.7999C32.7974 18 33.5999 17.1975 33.5999 16.2V12.6C33.5999 11.6025 32.7974 10.8 31.7999 10.8H27.5999V6.60005C27.5999 5.60255 26.7974 4.80005 25.7999 4.80005H22.1999C21.2024 4.80005 20.3999 5.60255 20.3999 6.60005ZM14.7899 30.5026C15.2849 30.1726 15.8624 30 16.4549 30H26.3999C27.0599 30 27.5999 30.5401 27.5999 31.2001C27.5999 31.8601 27.0599 32.4 26.3999 32.4H21.5999C20.6024 32.4 19.7999 33.2026 19.7999 34.2001C19.7999 35.1975 20.6024 36 21.5999 36H32.3999C32.7599 36 33.1199 35.8875 33.4199 35.685L39.1199 31.7776C39.9224 31.2301 41.0249 31.4701 41.5199 32.3026C41.9774 33.0676 41.7599 34.0651 41.0249 34.5675L35.0174 38.6626C34.1174 39.2775 33.0599 39.6001 31.9724 39.6001H4.1999C3.2024 39.6001 2.3999 40.4025 2.3999 41.4001C2.3999 42.3975 3.2024 43.2001 4.1999 43.2001H31.9799C33.7874 43.2001 35.5574 42.6525 37.0499 41.6325L43.0574 37.5376C45.3749 35.9625 46.0574 32.85 44.6099 30.4501C43.0424 27.84 39.5999 27.09 37.0874 28.8076L31.8449 32.4H31.0499C31.1474 32.0175 31.1999 31.6126 31.1999 31.2001C31.1999 28.5525 29.0474 26.4 26.3999 26.4H16.4549C15.1499 26.4 13.8749 26.7825 12.7949 27.51L7.2524 31.2001H4.1999C3.2024 31.2001 2.3999 32.0026 2.3999 33C2.3999 33.9975 3.2024 34.8001 4.1999 34.8001H7.7999C8.1524 34.8001 8.5049 34.695 8.7974 34.5L14.7899 30.5026Z" fill="#271332"/>
</svg>
