<svg width="48" height="48" viewBox="0 0 48 48" fill="none" xmlns="http://www.w3.org/2000/svg">
<path d="M23.8048 5.01755C23.4898 4.87505 23.1523 4.80005 22.7998 4.80005C22.4473 4.80005 22.1098 4.87505 21.7948 5.01755L7.67234 11.01C6.02234 11.7075 4.79234 13.335 4.79984 15.3C4.83734 22.74 7.89734 36.3526 20.8198 42.5401C22.0723 43.1401 23.5273 43.1401 24.7798 42.5401C37.7098 36.3526 40.7698 22.74 40.7998 15.3C40.8073 13.335 39.5773 11.7075 37.9273 11.01L23.8048 5.01755ZM22.7998 14.4C23.7973 14.4 24.5998 15.2025 24.5998 16.2C24.5998 17.9175 26.6773 18.78 27.8923 17.565C28.5973 16.86 29.7373 16.86 30.4348 17.565C31.1323 18.27 31.1398 19.41 30.4348 20.1075C29.2198 21.3225 30.0823 23.4 31.7998 23.4C32.7973 23.4 33.5998 24.2025 33.5998 25.2001C33.5998 26.1975 32.7973 27 31.7998 27C30.0823 27 29.2198 29.0775 30.4348 30.2925C31.1398 30.9975 31.1398 32.1375 30.4348 32.835C29.7298 33.5325 28.5898 33.54 27.8923 32.835C26.6773 31.62 24.5998 32.4825 24.5998 34.2001C24.5998 35.1975 23.7973 36 22.7998 36C21.8023 36 20.9998 35.1975 20.9998 34.2001C20.9998 32.4825 18.9223 31.62 17.7073 32.835C17.0023 33.54 15.8623 33.54 15.1648 32.835C14.4673 32.13 14.4598 30.99 15.1648 30.2925C16.3798 29.0775 15.5173 27 13.7998 27C12.8023 27 11.9998 26.1975 11.9998 25.2001C11.9998 24.2025 12.8023 23.4 13.7998 23.4C15.5173 23.4 16.3798 21.3225 15.1648 20.1075C14.4598 19.4025 14.4598 18.2625 15.1648 17.565C15.8698 16.8675 17.0098 16.86 17.7073 17.565C18.9223 18.78 20.9998 17.9175 20.9998 16.2C20.9998 15.2025 21.8023 14.4 22.7998 14.4ZM20.3998 24.6C21.3973 24.6 22.1998 23.7976 22.1998 22.8C22.1998 21.8025 21.3973 21 20.3998 21C19.4023 21 18.5998 21.8025 18.5998 22.8C18.5998 23.7976 19.4023 24.6 20.3998 24.6ZM26.9998 27.6C26.9998 26.6026 26.1973 25.8 25.1998 25.8C24.2023 25.8 23.3998 26.6026 23.3998 27.6C23.3998 28.5975 24.2023 29.4 25.1998 29.4C26.1973 29.4 26.9998 28.5975 26.9998 27.6Z" fill="#271332"/>
</svg>
