<svg width="48" height="48" viewBox="0 0 48 48" fill="none" xmlns="http://www.w3.org/2000/svg">
<path d="M18.0002 15.6V13.2H19.3427C21.4052 13.2 23.2427 11.88 23.8952 9.91505L24.0002 9.60005L24.1052 9.91505C24.7577 11.8725 26.5952 13.2 28.6577 13.2H30.0002V15.6C30.0002 18.915 27.3152 21.6 24.0002 21.6C20.6852 21.6 18.0002 18.915 18.0002 15.6ZM33.6002 15.6V13.2V13.095C34.2977 12.8475 34.8002 12.18 34.8002 11.4C34.8002 10.4025 33.9977 9.60005 33.0002 9.60005C32.9327 9.60005 32.8652 9.60755 32.7977 9.61505C31.4552 6.77255 28.5527 4.80005 25.2002 4.80005H22.8002C19.4477 4.80005 16.5527 6.76505 15.2027 9.61505C15.1352 9.60755 15.0677 9.60005 15.0002 9.60005C14.0027 9.60005 13.2002 10.4025 13.2002 11.4C13.2002 12.1875 13.7027 12.8475 14.4002 13.095V13.2V15.6C14.4002 17.4525 14.9252 19.185 15.8327 20.6475L14.7077 22.335C14.5052 22.635 14.4002 22.995 14.4002 23.355C14.4002 24.375 15.2252 25.2 16.2452 25.2H31.7627C32.7827 25.2 33.6077 24.375 33.6077 23.355C33.6077 22.995 33.5027 22.635 33.3002 22.335L32.1752 20.6475C33.0752 19.185 33.6002 17.4525 33.6002 15.6ZM19.8002 36.48V32.4H27.0002V35.4751C25.4102 36.1726 24.3002 37.7551 24.3002 39.6001V41.4001C24.3002 42.2251 24.9752 42.9001 25.8002 42.9001C26.6252 42.9001 27.3002 42.2251 27.3002 41.4001V39.6001C27.3002 38.7751 27.9752 38.1001 28.8002 38.1001C29.6252 38.1001 30.3002 38.7751 30.3002 39.6001V41.4001C30.3002 42.2251 30.9752 42.9001 31.8002 42.9001C32.6252 42.9001 33.3002 42.2251 33.3002 41.4001V39.6001C33.3002 37.7551 32.1902 36.1726 30.6002 35.4751V32.7225C34.4027 33.7725 37.2002 37.2601 37.2002 41.4001C37.2002 42.3976 38.0027 43.2001 39.0002 43.2001C39.9977 43.2001 40.8002 42.3976 40.8002 41.4001C40.8002 34.44 35.1602 28.8 28.2002 28.8H19.8002C12.8402 28.8 7.2002 34.44 7.2002 41.4001C7.2002 42.3976 8.0027 43.2001 9.0002 43.2001C9.9977 43.2001 10.8002 42.3976 10.8002 41.4001C10.8002 37.7101 13.0202 34.5376 16.2002 33.15V36.48C15.1277 37.1025 14.4002 38.2651 14.4002 39.6001C14.4002 41.5876 16.0127 43.2001 18.0002 43.2001C19.9877 43.2001 21.6002 41.5876 21.6002 39.6001C21.6002 38.2651 20.8727 37.1025 19.8002 36.48Z" fill="black"/>
</svg>
