<svg width="48" height="48" viewBox="0 0 48 48" fill="none" xmlns="http://www.w3.org/2000/svg">
<path d="M32.4001 30.9C31.5001 31.545 30.7276 32.3776 30.3151 33.4051L28.8076 37.1701C27.3526 40.8076 23.8276 43.2001 19.8976 43.2001H19.2001C13.8976 43.2001 9.6001 38.9025 9.6001 33.6V19.2C9.6001 11.25 16.0501 4.80005 24.0001 4.80005C31.9501 4.80005 38.4001 11.25 38.4001 19.2C38.4001 24.015 36.0376 28.2825 32.4001 30.9ZM18.0001 19.2C18.0001 15.885 20.6851 13.2 24.0001 13.2C27.3151 13.2 30.0001 15.885 30.0001 19.2V19.8C30.0001 20.7975 30.8026 21.6 31.8001 21.6C32.7976 21.6 33.6001 20.7975 33.6001 19.8V19.2C33.6001 13.8975 29.3026 9.60005 24.0001 9.60005C18.6976 9.60005 14.4001 13.8975 14.4001 19.2V22.2001C14.4001 23.1975 15.2026 24 16.2001 24H17.4001C18.3976 24 19.2001 24.8025 19.2001 25.8C19.2001 26.7976 18.3976 27.6 17.4001 27.6H16.2001C15.2026 27.6 14.4001 28.4025 14.4001 29.4C14.4001 30.3976 15.2026 31.2001 16.2001 31.2001H17.4001C20.3851 31.2001 22.8001 28.785 22.8001 25.8C22.8001 23.0175 20.7001 20.73 18.0001 20.43V19.2Z" fill="#271332"/>
</svg>
