<svg width="48" height="48" viewBox="0 0 48 48" fill="none" xmlns="http://www.w3.org/2000/svg">
<path d="M34.8001 19.2C34.8001 22.8075 33.0301 26.01 30.3001 27.975C29.0401 28.8825 27.7201 30.2101 26.9776 32.0625L25.4701 35.8276C24.5551 38.1076 22.3501 39.6001 19.8976 39.6001H19.2001C15.8851 39.6001 13.2001 36.9151 13.2001 33.6V19.2C13.2001 13.2375 18.0376 8.40005 24.0001 8.40005C29.9626 8.40005 34.8001 13.2375 34.8001 19.2ZM30.3226 33.4051C30.7351 32.3776 31.5076 31.545 32.4076 30.9C36.0376 28.2825 38.4076 24.0226 38.4076 19.2C38.4076 11.25 31.9576 4.80005 24.0076 4.80005C16.0576 4.80005 9.6001 11.25 9.6001 19.2V33.6C9.6001 38.9025 13.8976 43.2001 19.2001 43.2001H19.8976C23.8201 43.2001 27.3526 40.8075 28.8076 37.1626L30.3151 33.3975L30.3226 33.4051ZM19.2001 19.2C19.2001 16.5525 21.3526 14.4 24.0001 14.4C26.6476 14.4 28.8001 16.5525 28.8001 19.2V19.8C28.8001 20.7975 29.6026 21.6 30.6001 21.6C31.5976 21.6 32.4001 20.7975 32.4001 19.8V19.2C32.4001 14.5575 28.6426 10.8 24.0001 10.8C19.3576 10.8 15.6001 14.5575 15.6001 19.2V22.2001C15.6001 23.1975 16.4026 24 17.4001 24H18.6001C19.5976 24 20.4001 24.8025 20.4001 25.8C20.4001 26.7976 19.5976 27.6 18.6001 27.6H17.4001C16.4026 27.6 15.6001 28.4025 15.6001 29.4C15.6001 30.3976 16.4026 31.2001 17.4001 31.2001H18.6001C21.5851 31.2001 24.0001 28.785 24.0001 25.8C24.0001 23.0175 21.9001 20.73 19.2001 20.43V19.2Z" fill="#271332"/>
</svg>
