<svg width="48" height="48" viewBox="0 0 48 48" fill="none" xmlns="http://www.w3.org/2000/svg">
<path d="M26.8124 8.40005H21.1874C19.5674 8.40005 18.0899 9.33005 17.3924 10.7925L17.2199 11.1525L18.3749 12.6H29.6174L30.7724 11.1525L30.5999 10.7925C29.9024 9.33005 28.4249 8.40005 26.8049 8.40005H26.8124ZM21.2399 16.2L23.9999 19.6651L26.7599 16.2H21.2399ZM28.9424 25.8825L32.8424 21.0075C33.8474 19.7476 34.0499 18.03 33.3524 16.575L32.4899 14.7675L26.2949 22.56L28.9424 25.8825ZM35.6549 23.2575L31.2449 28.7775L38.0099 37.2826C38.6249 38.0625 38.4974 39.1875 37.7249 39.8101L31.7249 44.6101C31.3499 44.91 30.8774 45.0451 30.4049 44.9926C29.9324 44.9401 29.4974 44.7001 29.1974 44.3251L12.3449 23.2575C10.4774 20.9251 10.1024 17.73 11.3924 15.03L14.1449 9.24755C15.4424 6.53255 18.1799 4.80005 21.1874 4.80005H26.8124C29.8199 4.80005 32.5574 6.53255 33.8549 9.24755L36.6074 15.0375C37.8899 17.7375 37.5224 20.9326 35.6549 23.2651V23.2575ZM9.98986 37.2826L14.4524 31.6651L16.7624 34.545L13.9274 38.1151L17.1224 40.6726L19.3949 37.8376L21.6974 40.7176L18.8099 44.3326C18.5099 44.7076 18.0749 44.9476 17.6024 45C17.1299 45.0526 16.6499 44.9025 16.2749 44.6026L10.2749 39.8026C9.50236 39.18 9.37486 38.055 9.98986 37.2751V37.2826ZM15.5024 14.7675L14.6399 16.5826C13.9499 18.0375 14.1449 19.7551 15.1499 21.0151L30.8774 40.6726L34.0724 38.1151L15.5024 14.7675Z" fill="#271332"/>
</svg>
