<svg width="48" height="48" viewBox="0 0 48 48" fill="none" xmlns="http://www.w3.org/2000/svg">
<path d="M27.2323 4.80005C29.7373 4.80005 32.0698 6.10505 33.3748 8.24255C33.4648 8.39255 34.3498 9.84005 36.0223 12.5775C37.6048 15.165 37.3948 18.4651 35.4973 20.8276L30.4723 27.1276L36.9373 35.25C37.3498 35.7675 37.2673 36.5175 36.7498 36.9375L30.7498 41.7375C30.2323 42.1501 29.4748 42.0676 29.0623 41.55L12.4948 20.835C10.5973 18.4725 10.3873 15.1725 11.9698 12.585C13.6498 9.84005 14.5273 8.39255 14.6248 8.24255C15.9298 6.10505 18.2548 4.80005 20.7673 4.80005H27.2398H27.2323ZM23.9998 18.99L27.6448 14.4H20.3473L23.9923 18.99H23.9998ZM15.2248 30.0151L21.6898 38.1001L18.9298 41.55C18.5173 42.0676 17.7598 42.1501 17.2423 41.7375L11.2423 36.9375C10.7248 36.525 10.6423 35.7675 11.0548 35.25L15.2248 30.0151Z" fill="#271332"/>
</svg>
