<svg width="48" height="48" viewBox="0 0 48 48" fill="none" xmlns="http://www.w3.org/2000/svg">
<path d="M7.1999 21.6C4.5524 21.6 2.3999 19.4475 2.3999 16.8C2.3999 14.1525 4.5524 12 7.1999 12H23.9999C26.3399 12 26.8649 10.2975 26.9699 8.40004C27.0074 7.74004 27.5399 7.19254 28.1999 7.26004C32.1299 7.65754 35.9999 10.0125 35.9999 14.4C35.9999 18.375 32.7749 21.6 28.7999 21.6H7.1999ZM6.5999 24C7.5974 24 8.3999 24.8025 8.3999 25.8V36H10.7999V25.8C10.7999 24.8025 11.6024 24 12.5999 24C13.5974 24 14.3999 24.8025 14.3999 25.8V36H16.7999V25.8C16.7999 24.8025 17.6024 24 18.5999 24C19.5974 24 20.3999 24.8025 20.3999 25.8V36H22.7999V25.8C22.7999 24.8025 23.6024 24 24.5999 24C25.5974 24 26.3999 24.8025 26.3999 25.8V36H28.7999V25.8C28.7999 24.8025 29.6024 24 30.5999 24C31.5974 24 32.3999 24.8025 32.3999 25.8V36H43.1999C44.5274 36 45.5999 37.0725 45.5999 38.4C45.5999 39.7275 44.5274 40.8 43.1999 40.8H4.7999C3.4724 40.8 2.3999 39.7275 2.3999 38.4C2.3999 37.0725 3.4724 36 4.7999 36V25.8C4.7999 24.8025 5.6024 24 6.5999 24Z" fill="#271332"/>
</svg>
