<svg width="48" height="48" viewBox="0 0 48 48" fill="none" xmlns="http://www.w3.org/2000/svg">
<path d="M7.1999 18C6.5399 18 5.9999 17.46 5.9999 16.8C5.9999 16.14 6.5399 15.6 7.1999 15.6H23.9999C26.2049 15.6 28.1324 14.7075 29.3249 12.8925C29.6474 12.405 29.8799 11.9025 30.0524 11.4C30.5324 11.6025 30.9524 11.85 31.2974 12.1275C32.0099 12.705 32.3924 13.4025 32.3924 14.4C32.3924 16.3875 30.7799 18 28.7924 18H7.1999ZM2.3999 16.8C2.3999 19.4475 4.5524 21.6 7.1999 21.6H28.7999C32.7749 21.6 35.9999 18.375 35.9999 14.4C35.9999 10.0125 32.1299 7.65754 28.1999 7.26004C27.5399 7.19254 27.0149 7.74004 26.9699 8.40004C26.8574 10.2975 26.3399 12 23.9999 12H7.1999C4.5524 12 2.3999 14.1525 2.3999 16.8ZM8.3999 25.8C8.3999 24.8025 7.5974 24 6.5999 24C5.6024 24 4.7999 24.8025 4.7999 25.8V37.2H4.1999C3.2024 37.2 2.3999 38.0025 2.3999 39C2.3999 39.9975 3.2024 40.8 4.1999 40.8H43.7999C44.7974 40.8 45.5999 39.9975 45.5999 39C45.5999 38.0025 44.7974 37.2 43.7999 37.2H32.3999V25.8C32.3999 24.8025 31.5974 24 30.5999 24C29.6024 24 28.7999 24.8025 28.7999 25.8V37.2H26.3999V25.8C26.3999 24.8025 25.5974 24 24.5999 24C23.6024 24 22.7999 24.8025 22.7999 25.8V37.2H20.3999V25.8C20.3999 24.8025 19.5974 24 18.5999 24C17.6024 24 16.7999 24.8025 16.7999 25.8V37.2H14.3999V25.8C14.3999 24.8025 13.5974 24 12.5999 24C11.6024 24 10.7999 24.8025 10.7999 25.8V37.2H8.3999V25.8Z" fill="#271332"/>
</svg>
