<svg width="64" height="64" viewBox="0 0 64 64" fill="none" xmlns="http://www.w3.org/2000/svg">
<path d="M14.3999 13.33C14.3999 12.16 15.3499 11.2 16.5299 11.2C17.0899 11.2 17.6299 11.42 18.0299 11.82L18.5099 12.3C17.9299 13.41 17.5999 14.67 17.5999 16C17.5999 18.39 18.6499 20.54 20.3199 22.01C19.7899 22.93 19.9199 24.12 20.7099 24.9C21.6499 25.84 23.1699 25.84 24.0999 24.9L34.4999 14.5C35.4399 13.56 35.4399 12.04 34.4999 11.11C33.7199 10.33 32.5299 10.2 31.6099 10.72C30.1399 9.05002 27.9999 8.00002 25.5999 8.00002C24.2599 8.00002 23.0099 8.33002 21.8999 8.91002L21.4199 8.43002C20.1199 7.13002 18.3599 6.40002 16.5299 6.40002C12.6999 6.40002 9.5999 9.50002 9.5999 13.33V32H8.7999C7.4699 32 6.3999 33.07 6.3999 34.4C6.3999 35.73 7.4699 36.8 8.7999 36.8H9.5999V43.2C9.5999 46.04 10.8399 48.6 12.7999 50.36V55.2C12.7999 56.53 13.8699 57.6 15.1999 57.6C16.5299 57.6 17.5999 56.53 17.5999 55.2V52.67C18.1199 52.76 18.6499 52.8 19.1999 52.8H44.7999C45.3499 52.8 45.8799 52.75 46.3999 52.67V55.2C46.3999 56.53 47.4699 57.6 48.7999 57.6C50.1299 57.6 51.1999 56.53 51.1999 55.2V50.36C53.1599 48.6 54.3999 46.05 54.3999 43.2V36.8H55.1999C56.5299 36.8 57.5999 35.73 57.5999 34.4C57.5999 33.07 56.5299 32 55.1999 32H14.3999V13.33ZM28.1499 14.06L23.6699 18.54C22.8999 17.96 22.4099 17.03 22.4099 15.99C22.4099 14.22 23.8399 12.79 25.6099 12.79C26.6499 12.79 27.5699 13.28 28.1599 14.05L28.1499 14.06ZM14.3999 36.8H49.5999V43.2C49.5999 45.85 47.4499 48 44.7999 48H19.1999C16.5499 48 14.3999 45.85 14.3999 43.2V36.8Z" fill="#271332"/>
</svg>
