<svg width="48" height="48" viewBox="0 0 48 48" fill="none" xmlns="http://www.w3.org/2000/svg">
<path d="M35.9999 15.6V32.4H40.7999C41.4599 32.4 41.9999 31.86 41.9999 31.2V16.8C41.9999 16.14 41.4599 15.6 40.7999 15.6H35.9999ZM32.3999 12H40.7999C43.4474 12 45.5999 14.1525 45.5999 16.8V31.2C45.5999 33.8475 43.4474 36 40.7999 36H7.1999C4.5524 36 2.3999 33.8475 2.3999 31.2V16.8C2.3999 14.1525 4.5524 12 7.1999 12H32.3999ZM15.5999 15.6V32.4H32.3999V15.6H15.5999ZM11.9999 15.6H7.1999C6.5399 15.6 5.9999 16.14 5.9999 16.8V31.2C5.9999 31.86 6.5399 32.4 7.1999 32.4H11.9999V15.6ZM20.3999 18.6C21.3974 18.6 22.1999 19.4025 22.1999 20.4C22.1999 21.3975 21.3974 22.2 20.3999 22.2C19.4024 22.2 18.5999 21.3975 18.5999 20.4C18.5999 19.4025 19.4024 18.6 20.3999 18.6ZM25.7999 20.4C25.7999 19.4025 26.6024 18.6 27.5999 18.6C28.5974 18.6 29.3999 19.4025 29.3999 20.4C29.3999 21.3975 28.5974 22.2 27.5999 22.2C26.6024 22.2 25.7999 21.3975 25.7999 20.4ZM20.3999 25.8C21.3974 25.8 22.1999 26.6025 22.1999 27.6C22.1999 28.5975 21.3974 29.4 20.3999 29.4C19.4024 29.4 18.5999 28.5975 18.5999 27.6C18.5999 26.6025 19.4024 25.8 20.3999 25.8ZM25.7999 27.6C25.7999 26.6025 26.6024 25.8 27.5999 25.8C28.5974 25.8 29.3999 26.6025 29.3999 27.6C29.3999 28.5975 28.5974 29.4 27.5999 29.4C26.6024 29.4 25.7999 28.5975 25.7999 27.6Z" fill="#271332"/>
</svg>
