<svg width="48" height="48" viewBox="0 0 48 48" fill="none" xmlns="http://www.w3.org/2000/svg">
<path d="M19.1998 8.99999V12H28.7998V8.99999C28.7998 8.66999 28.5298 8.39999 28.1998 8.39999H19.7998C19.4698 8.39999 19.1998 8.66999 19.1998 8.99999ZM15.5998 12V8.99999C15.5998 6.68249 17.4823 4.79999 19.7998 4.79999H28.1998C30.5173 4.79999 32.3998 6.68249 32.3998 8.99999V12H38.3998C41.0473 12 43.1998 14.1525 43.1998 16.8V36C43.1998 38.6475 41.0473 40.8 38.3998 40.8H9.5998C6.9523 40.8 4.7998 38.6475 4.7998 36V16.8C4.7998 14.1525 6.9523 12 9.5998 12H15.5998ZM8.3998 27.6V36C8.3998 36.66 8.93981 37.2 9.5998 37.2H38.3998C39.0598 37.2 39.5998 36.66 39.5998 36V27.6H28.7998V28.8C28.7998 30.1275 27.7273 31.2 26.3998 31.2H21.5998C20.2723 31.2 19.1998 30.1275 19.1998 28.8V27.6H8.3998ZM19.1998 24H39.5998V16.8C39.5998 16.14 39.0598 15.6 38.3998 15.6H9.5998C8.93981 15.6 8.3998 16.14 8.3998 16.8V24H19.1998Z" fill="#271332"/>
</svg>
