<svg width="48" height="48" viewBox="0 0 48 48" fill="none" xmlns="http://www.w3.org/2000/svg">
<path d="M19.7998 8.39999H28.1998C28.5298 8.39999 28.7998 8.66999 28.7998 8.99999V12H19.1998V8.99999C19.1998 8.66999 19.4698 8.39999 19.7998 8.39999ZM15.5998 8.99999V12H9.5998C6.9523 12 4.7998 14.1525 4.7998 16.8V24H43.1998V16.8C43.1998 14.1525 41.0473 12 38.3998 12H32.3998V8.99999C32.3998 6.68249 30.5173 4.79999 28.1998 4.79999H19.7998C17.4823 4.79999 15.5998 6.68249 15.5998 8.99999ZM43.1998 27.6H28.7998V28.8C28.7998 30.1275 27.7273 31.2 26.3998 31.2H21.5998C20.2723 31.2 19.1998 30.1275 19.1998 28.8V27.6H4.7998V36C4.7998 38.6475 6.9523 40.8 9.5998 40.8H38.3998C41.0473 40.8 43.1998 38.6475 43.1998 36V27.6Z" fill="#271332"/>
</svg>
