<svg width="48" height="48" viewBox="0 0 48 48" fill="none" xmlns="http://www.w3.org/2000/svg">
<path d="M10.1999 6.60002C10.1999 4.28252 12.0824 2.40002 14.3999 2.40002C16.7174 2.40002 18.5999 4.28252 18.5999 6.60002C18.5999 8.91752 16.7174 10.8 14.3999 10.8C12.0824 10.8 10.1999 8.91752 10.1999 6.60002ZM8.39988 43.8V20.9475L4.44738 26.2725C3.85488 27.0675 2.72988 27.24 1.92738 26.6475C1.12488 26.055 0.95988 24.93 1.55238 24.1275L6.60738 17.325C8.53488 14.73 11.5724 13.2 14.7974 13.2H23.9999V8.40002C23.9999 6.41252 25.6124 4.80002 27.5999 4.80002H44.3999C46.3874 4.80002 47.9999 6.41252 47.9999 8.40002V25.2C47.9999 27.1875 46.3874 28.8 44.3999 28.8H27.5999C25.6124 28.8 23.9999 27.1875 23.9999 25.2V20.4H27.5999V25.2H44.3999V8.40002H27.5999V13.2H29.9999C30.9974 13.2 31.7999 14.0025 31.7999 15C31.7999 15.9975 30.9974 16.8 29.9999 16.8H20.3999V43.8C20.3999 44.7975 19.5974 45.6 18.5999 45.6C17.6024 45.6 16.7999 44.7975 16.7999 43.8V32.4H11.9999V43.8C11.9999 44.7975 11.1974 45.6 10.1999 45.6C9.20238 45.6 8.39988 44.7975 8.39988 43.8ZM11.9999 28.8H16.7999V16.8H14.7974C13.8149 16.8 12.8624 17.0175 11.9999 17.4225V28.8Z" fill="#271332"/>
</svg>
