<svg width="48" height="48" viewBox="0 0 48 48" fill="none" xmlns="http://www.w3.org/2000/svg">
<path d="M14.3998 10.8C16.7174 10.8 18.5998 8.91752 18.5998 6.60002C18.5998 4.28252 16.7174 2.40002 14.3998 2.40002C12.0823 2.40002 10.1999 4.28252 10.1999 6.60002C10.1999 8.91752 12.0823 10.8 14.3998 10.8ZM13.1999 43.2V31.2C13.1999 30.54 13.7399 30 14.3998 30C15.0599 30 15.5999 30.54 15.5999 31.2V43.2C15.5999 44.5275 16.6723 45.6 17.9999 45.6C19.3274 45.6 20.3999 44.5275 20.3999 43.2V18H29.9999C31.3274 18 32.3999 16.9275 32.3999 15.6C32.3999 14.2725 31.3274 13.2 29.9999 13.2H28.7999V9.60002H43.1998V24H28.7999V21.6H23.9999V25.2C23.9999 27.1875 25.6124 28.8 27.5999 28.8H44.3998C46.3873 28.8 47.9998 27.1875 47.9998 25.2V8.40002C47.9998 6.41252 46.3873 4.80002 44.3998 4.80002H27.5999C25.6124 4.80002 23.9999 6.41252 23.9999 8.40002V13.2H14.7974C11.3774 13.2 8.15985 14.82 6.12735 17.565L1.07235 24.3675C0.28485 25.4325 0.50235 26.9325 1.56735 27.7275C2.63235 28.5225 4.13235 28.2975 4.92735 27.2325L8.39985 22.5525V43.2C8.39985 44.5275 9.47235 45.6 10.7999 45.6C12.1273 45.6 13.1999 44.5275 13.1999 43.2Z" fill="#271332"/>
</svg>
