<svg width="48" height="48" viewBox="0 0 48 48" fill="none" xmlns="http://www.w3.org/2000/svg">
<path d="M7.2002 9.60005C7.2002 6.95255 9.3527 4.80005 12.0002 4.80005H36.0002C38.6477 4.80005 40.8002 6.95255 40.8002 9.60005V38.4001C40.8002 41.0476 38.6477 43.2001 36.0002 43.2001H12.0002C9.3527 43.2001 7.2002 41.0476 7.2002 38.4001V9.60005ZM34.8002 27.6C34.8002 21.6376 29.9627 16.8 24.0002 16.8C18.0377 16.8 13.2002 21.6376 13.2002 27.6C13.2002 33.5625 18.0377 38.4001 24.0002 38.4001C29.9627 38.4001 34.8002 33.5625 34.8002 27.6ZM14.4002 13.8C15.3977 13.8 16.2002 12.9975 16.2002 12C16.2002 11.0025 15.3977 10.2 14.4002 10.2C13.4027 10.2 12.6002 11.0025 12.6002 12C12.6002 12.9975 13.4027 13.8 14.4002 13.8ZM23.4002 12C23.4002 11.0025 22.5977 10.2 21.6002 10.2C20.6027 10.2 19.8002 11.0025 19.8002 12C19.8002 12.9975 20.6027 13.8 21.6002 13.8C22.5977 13.8 23.4002 12.9975 23.4002 12ZM24.0002 34.8001C20.0252 34.8001 16.8002 31.5751 16.8002 27.6C16.8002 26.2875 17.1527 25.0651 17.7602 24C17.8427 24 17.9177 24 18.0002 24C22.8002 24 25.2002 28.8 30.0002 28.8C30.3752 28.8 30.7502 28.785 31.1102 28.755C30.5552 32.1826 27.5852 34.8001 24.0002 34.8001Z" fill="#271332"/>
</svg>
