<svg width="48" height="48" viewBox="0 0 48 48" fill="none" xmlns="http://www.w3.org/2000/svg">
<path d="M15.1201 16.305L13.7176 14.9025C12.7801 13.965 12.7801 12.4425 13.7176 11.505L22.3201 2.89499C23.2576 1.95749 24.7801 1.95749 25.7176 2.89499L27.1201 4.30499C28.0576 5.24249 28.0576 6.76499 27.1201 7.70249L18.5176 16.305C17.5801 17.2425 16.0576 17.2425 15.1201 16.305ZM23.1001 20.6775L20.7451 18.3225L29.1451 9.92249L38.1001 18.8775L29.7001 27.2775L27.3451 24.9225L9.94514 42.3225C8.77514 43.4925 6.87764 43.4925 5.70014 42.3225C4.52264 41.1525 4.53014 39.255 5.70014 38.0775L23.1001 20.6775ZM31.7176 32.895C30.7801 31.9575 30.7801 30.435 31.7176 29.4975L40.3201 20.895C41.2576 19.9575 42.7801 19.9575 43.7176 20.895L45.1201 22.2975C46.0576 23.235 46.0576 24.7575 45.1201 25.695L36.5176 34.305C35.5801 35.2425 34.0576 35.2425 33.1201 34.305L31.7176 32.9025V32.895Z" fill="#271332"/>
</svg>
