<svg width="48" height="48" viewBox="0 0 48 48" fill="none" xmlns="http://www.w3.org/2000/svg">
<path d="M28.7999 7.19999H38.3999C39.7274 7.19999 40.7999 8.27249 40.7999 9.59999C40.7999 10.9275 39.7274 12 38.3999 12H29.8799C29.4899 13.935 28.1624 15.5325 26.3999 16.2975V38.4H38.3999C39.7274 38.4 40.7999 39.4725 40.7999 40.8C40.7999 42.1275 39.7274 43.2 38.3999 43.2H9.59994C8.27244 43.2 7.19994 42.1275 7.19994 40.8C7.19994 39.4725 8.27244 38.4 9.59994 38.4H21.5999V16.2975C19.8374 15.525 18.5099 13.9275 18.1199 12H9.59994C8.27244 12 7.19994 10.9275 7.19994 9.59999C7.19994 8.27249 8.27244 7.19999 9.59994 7.19999H19.1999C20.2949 5.74499 22.0349 4.79999 23.9999 4.79999C25.9649 4.79999 27.7049 5.74499 28.7999 7.19999ZM32.9699 28.8H43.8299L38.3999 19.485L32.9699 28.8ZM38.3999 36C33.6824 36 29.7599 33.45 28.9499 30.0825C28.7549 29.2575 29.0249 28.41 29.4524 27.675L36.5924 15.435C36.9674 14.79 37.6574 14.4 38.3999 14.4C39.1424 14.4 39.8324 14.7975 40.2074 15.435L47.3474 27.675C47.7749 28.41 48.0449 29.2575 47.8499 30.0825C47.0399 33.4425 43.1174 36 38.3999 36ZM9.50994 19.485L4.07994 28.8H14.9474L9.50994 19.485ZM0.0674387 30.0825C-0.127561 29.2575 0.142439 28.41 0.569939 27.675L7.70994 15.435C8.08494 14.79 8.77494 14.4 9.51744 14.4C10.2599 14.4 10.9499 14.7975 11.3249 15.435L18.4649 27.675C18.8924 28.41 19.1624 29.2575 18.9674 30.0825C18.1574 33.4425 14.2349 36 9.51744 36C4.79994 36 0.877439 33.45 0.0674387 30.0825Z" fill="#271332"/>
</svg>
