<svg width="48" height="48" viewBox="0 0 48 48" fill="none" xmlns="http://www.w3.org/2000/svg">
<path d="M43.2 8.40005H26.4C25.74 8.40005 25.2 8.94005 25.2 9.60005V14.9925L21.6 11.865V9.60005C21.6 6.95255 23.7525 4.80005 26.4 4.80005H43.2C45.8475 4.80005 48 6.95255 48 9.60005V38.4001C48 41.0476 45.8475 43.2001 43.2 43.2001H30.8925C31.6275 42.1501 32.1225 40.9276 32.31 39.6001H43.2C43.86 39.6001 44.4 39.0601 44.4 38.4001V9.60005C44.4 8.94005 43.86 8.40005 43.2 8.40005ZM36 13.2C36 12.54 36.54 12 37.2 12H39.6C40.26 12 40.8 12.54 40.8 13.2V15.6C40.8 16.26 40.26 16.8 39.6 16.8H37.2C36.54 16.8 36 16.26 36 15.6V13.2ZM37.2 19.2H39.6C40.26 19.2 40.8 19.74 40.8 20.4V22.8C40.8 23.46 40.26 24 39.6 24H37.2C36.54 24 36 23.46 36 22.8V20.4C36 19.74 36.54 19.2 37.2 19.2ZM36 27.6C36 26.9401 36.54 26.4 37.2 26.4H39.6C40.26 26.4 40.8 26.9401 40.8 27.6V30C40.8 30.66 40.26 31.2001 39.6 31.2001H37.2C36.54 31.2001 36 30.66 36 30V27.6ZM30 12H32.4C33.06 12 33.6 12.54 33.6 13.2V15.6C33.6 16.26 33.06 16.8 32.4 16.8H30C29.34 16.8 28.8 16.26 28.8 15.6V13.2C28.8 12.54 29.34 12 30 12ZM16.7775 12.4425L30.5775 24.4425C31.3275 25.095 31.41 26.235 30.7575 26.985C30.255 27.5625 29.475 27.7425 28.8 27.5026V38.4001C28.8 41.0476 26.6475 43.2001 24 43.2001H7.19999C4.55249 43.2001 2.39999 41.0476 2.39999 38.4001V27.4951C1.72499 27.7351 0.93749 27.555 0.44249 26.9776C-0.21001 26.2276 -0.12751 25.0875 0.62249 24.435L14.4225 12.435C15.0975 11.8425 16.11 11.8425 16.785 12.435L16.7775 12.4425ZM25.2 24.5326L15.6 16.185L5.99999 24.5326V38.4001C5.99999 39.0601 6.53999 39.6001 7.19999 39.6001H24C24.66 39.6001 25.2 39.0601 25.2 38.4001V24.5326ZM12 27C12 26.0026 12.8025 25.2001 13.8 25.2001H17.4C18.3975 25.2001 19.2 26.0026 19.2 27V30.6C19.2 31.5975 18.3975 32.4 17.4 32.4H13.8C12.8025 32.4 12 31.5975 12 30.6V27Z" fill="#271332"/>
</svg>
