<svg width="48" height="48" viewBox="0 0 48 48" fill="none" xmlns="http://www.w3.org/2000/svg">
<path d="M20.4001 6.60002V12H27.6001V6.60002C27.6001 6.27002 27.3301 6.00002 27.0001 6.00002H21.0001C20.6701 6.00002 20.4001 6.27002 20.4001 6.60002ZM16.8001 12V6.60002C16.8001 4.28252 18.6826 2.40002 21.0001 2.40002H27.0001C29.3176 2.40002 31.2001 4.28252 31.2001 6.60002V12H33.6001C36.2476 12 38.4001 14.1525 38.4001 16.8V38.4C38.4001 41.0475 36.2476 43.2 33.6001 43.2V43.8C33.6001 44.7975 32.7976 45.6 31.8001 45.6C30.8026 45.6 30.0001 44.7975 30.0001 43.8V43.2H18.0001V43.8C18.0001 44.7975 17.1976 45.6 16.2001 45.6C15.2026 45.6 14.4001 44.7975 14.4001 43.8V43.2C11.7526 43.2 9.6001 41.0475 9.6001 38.4V16.8C9.6001 14.1525 11.7526 12 14.4001 12H16.8001ZM14.4001 15.6C13.7401 15.6 13.2001 16.14 13.2001 16.8V38.4C13.2001 39.06 13.7401 39.6 14.4001 39.6H33.6001C34.2601 39.6 34.8001 39.06 34.8001 38.4V16.8C34.8001 16.14 34.2601 15.6 33.6001 15.6H14.4001ZM16.8001 23.4C16.8001 22.4025 17.6026 21.6 18.6001 21.6H29.4001C30.3976 21.6 31.2001 22.4025 31.2001 23.4C31.2001 24.3975 30.3976 25.2 29.4001 25.2H18.6001C17.6026 25.2 16.8001 24.3975 16.8001 23.4ZM16.8001 31.8C16.8001 30.8025 17.6026 30 18.6001 30H29.4001C30.3976 30 31.2001 30.8025 31.2001 31.8C31.2001 32.7975 30.3976 33.6 29.4001 33.6H18.6001C17.6026 33.6 16.8001 32.7975 16.8001 31.8Z" fill="#271332"/>
</svg>
