<svg width="48" height="48" viewBox="0 0 48 48" fill="none" xmlns="http://www.w3.org/2000/svg">
<path d="M20.4001 6.60002C20.4001 6.27002 20.6701 6.00002 21.0001 6.00002H27.0001C27.3301 6.00002 27.6001 6.27002 27.6001 6.60002V12H20.4001V6.60002ZM33.6001 12H31.2001V6.60002C31.2001 4.28252 29.3176 2.40002 27.0001 2.40002H21.0001C18.6826 2.40002 16.8001 4.28252 16.8001 6.60002V12H14.4001C11.7526 12 9.6001 14.1525 9.6001 16.8V38.4C9.6001 41.0475 11.7526 43.2 14.4001 43.2C14.4001 44.5275 15.4726 45.6 16.8001 45.6C18.1276 45.6 19.2001 44.5275 19.2001 43.2H28.8001C28.8001 44.5275 29.8726 45.6 31.2001 45.6C32.5276 45.6 33.6001 44.5275 33.6001 43.2C36.2476 43.2 38.4001 41.0475 38.4001 38.4V16.8C38.4001 14.1525 36.2476 12 33.6001 12ZM18.6001 20.4H29.4001C30.3976 20.4 31.2001 21.2025 31.2001 22.2C31.2001 23.1975 30.3976 24 29.4001 24H18.6001C17.6026 24 16.8001 23.1975 16.8001 22.2C16.8001 21.2025 17.6026 20.4 18.6001 20.4ZM18.6001 30H29.4001C30.3976 30 31.2001 30.8025 31.2001 31.8C31.2001 32.7975 30.3976 33.6 29.4001 33.6H18.6001C17.6026 33.6 16.8001 32.7975 16.8001 31.8C16.8001 30.8025 17.6026 30 18.6001 30Z" fill="#271332"/>
</svg>
