<svg width="48" height="48" viewBox="0 0 48 48" fill="none" xmlns="http://www.w3.org/2000/svg">
<path d="M11.9999 9.60005C11.9999 6.95255 14.1524 4.80005 16.7999 4.80005H31.1999C33.8474 4.80005 35.9999 6.95255 35.9999 9.60005V14.4H40.7999C43.4474 14.4 45.5999 16.5525 45.5999 19.2V38.4001C45.5999 41.0476 43.4474 43.2001 40.7999 43.2001H7.1999C4.5524 43.2001 2.3999 41.0476 2.3999 38.4001V19.2C2.3999 16.5525 4.5524 14.4 7.1999 14.4H11.9999V9.60005ZM22.7999 31.2001C21.4724 31.2001 20.3999 32.2726 20.3999 33.6V39.6001H27.5999V33.6C27.5999 32.2726 26.5274 31.2001 25.1999 31.2001H22.7999ZM11.9999 32.4V30C11.9999 29.34 11.4599 28.8 10.7999 28.8H8.3999C7.7399 28.8 7.1999 29.34 7.1999 30V32.4C7.1999 33.06 7.7399 33.6 8.3999 33.6H10.7999C11.4599 33.6 11.9999 33.06 11.9999 32.4ZM10.7999 24C11.4599 24 11.9999 23.46 11.9999 22.8V20.4C11.9999 19.74 11.4599 19.2 10.7999 19.2H8.3999C7.7399 19.2 7.1999 19.74 7.1999 20.4V22.8C7.1999 23.46 7.7399 24 8.3999 24H10.7999ZM40.7999 32.4V30C40.7999 29.34 40.2599 28.8 39.5999 28.8H37.1999C36.5399 28.8 35.9999 29.34 35.9999 30V32.4C35.9999 33.06 36.5399 33.6 37.1999 33.6H39.5999C40.2599 33.6 40.7999 33.06 40.7999 32.4ZM39.5999 24C40.2599 24 40.7999 23.46 40.7999 22.8V20.4C40.7999 19.74 40.2599 19.2 39.5999 19.2H37.1999C36.5399 19.2 35.9999 19.74 35.9999 20.4V22.8C35.9999 23.46 36.5399 24 37.1999 24H39.5999ZM22.1999 12.6V15H19.7999C19.1399 15 18.5999 15.54 18.5999 16.2V17.4C18.5999 18.06 19.1399 18.6 19.7999 18.6H22.1999V21C22.1999 21.66 22.7399 22.2001 23.3999 22.2001H24.5999C25.2599 22.2001 25.7999 21.66 25.7999 21V18.6H28.1999C28.8599 18.6 29.3999 18.06 29.3999 17.4V16.2C29.3999 15.54 28.8599 15 28.1999 15H25.7999V12.6C25.7999 11.94 25.2599 11.4 24.5999 11.4H23.3999C22.7399 11.4 22.1999 11.94 22.1999 12.6Z" fill="#271332"/>
</svg>
