<svg width="48" height="48" viewBox="0 0 48 48" fill="none" xmlns="http://www.w3.org/2000/svg">
<path d="M15.5999 4.80005C12.9524 4.80005 10.7999 6.95255 10.7999 9.60005V13.2H7.1999C4.5524 13.2 2.3999 15.3525 2.3999 18V38.4001C2.3999 41.0476 4.5524 43.2001 7.1999 43.2001H40.7999C43.4474 43.2001 45.5999 41.0476 45.5999 38.4001V18C45.5999 15.3525 43.4474 13.2 40.7999 13.2H37.1999V9.60005C37.1999 6.95255 35.0474 4.80005 32.3999 4.80005H15.5999ZM14.3999 9.60005C14.3999 8.94005 14.9399 8.40005 15.5999 8.40005H32.3999C33.0599 8.40005 33.5999 8.94005 33.5999 9.60005V15C33.5999 15.9975 34.4024 16.8 35.3999 16.8H40.7999C41.4599 16.8 41.9999 17.34 41.9999 18V38.4001C41.9999 39.0601 41.4599 39.6001 40.7999 39.6001H27.5999V33.6C27.5999 32.2726 26.5274 31.2001 25.1999 31.2001H22.7999C21.4724 31.2001 20.3999 32.2726 20.3999 33.6V39.6001H7.1999C6.5399 39.6001 5.9999 39.0601 5.9999 38.4001V18C5.9999 17.34 6.5399 16.8 7.1999 16.8H12.5999C13.5974 16.8 14.3999 15.9975 14.3999 15V9.60005ZM10.7999 21.6C10.1399 21.6 9.5999 22.14 9.5999 22.8V25.2001C9.5999 25.8601 10.1399 26.4 10.7999 26.4H13.1999C13.8599 26.4 14.3999 25.8601 14.3999 25.2001V22.8C14.3999 22.14 13.8599 21.6 13.1999 21.6H10.7999ZM9.5999 30V32.4C9.5999 33.06 10.1399 33.6 10.7999 33.6H13.1999C13.8599 33.6 14.3999 33.06 14.3999 32.4V30C14.3999 29.34 13.8599 28.8 13.1999 28.8H10.7999C10.1399 28.8 9.5999 29.34 9.5999 30ZM33.5999 30V32.4C33.5999 33.06 34.1399 33.6 34.7999 33.6H37.1999C37.8599 33.6 38.3999 33.06 38.3999 32.4V30C38.3999 29.34 37.8599 28.8 37.1999 28.8H34.7999C34.1399 28.8 33.5999 29.34 33.5999 30ZM34.7999 21.6C34.1399 21.6 33.5999 22.14 33.5999 22.8V25.2001C33.5999 25.8601 34.1399 26.4 34.7999 26.4H37.1999C37.8599 26.4 38.3999 25.8601 38.3999 25.2001V22.8C38.3999 22.14 37.8599 21.6 37.1999 21.6H34.7999ZM22.1999 12.6V15H19.7999C19.1399 15 18.5999 15.54 18.5999 16.2V17.4C18.5999 18.06 19.1399 18.6 19.7999 18.6H22.1999V21C22.1999 21.66 22.7399 22.2001 23.3999 22.2001H24.5999C25.2599 22.2001 25.7999 21.66 25.7999 21V18.6H28.1999C28.8599 18.6 29.3999 18.06 29.3999 17.4V16.2C29.3999 15.54 28.8599 15 28.1999 15H25.7999V12.6C25.7999 11.94 25.2599 11.4 24.5999 11.4H23.3999C22.7399 11.4 22.1999 11.94 22.1999 12.6Z" fill="#271332"/>
</svg>
