<svg width="48" height="48" viewBox="0 0 48 48" fill="none" xmlns="http://www.w3.org/2000/svg">
<path d="M22.7999 8.40005C22.7999 7.45505 22.9799 6.54755 23.3174 5.72255C22.0649 5.13005 20.6699 4.80005 19.1999 4.80005C13.8974 4.80005 9.5999 9.09755 9.5999 14.4C9.5999 19.7025 13.8974 24 19.1999 24C21.7349 24 24.0374 23.0175 25.7549 21.4125C24.7724 20.6925 23.9774 19.7325 23.4674 18.6226C22.3799 19.7175 20.8724 20.4 19.2074 20.4C15.8924 20.4 13.2074 17.715 13.2074 14.4C13.2074 11.085 15.8924 8.40005 19.2074 8.40005C20.5574 8.40005 21.8024 8.85005 22.8074 9.60005V8.40005H22.7999ZM14.9999 36.48V32.4H22.1999V35.475C20.6099 36.1726 19.4999 37.7551 19.4999 39.6001V41.4001C19.4999 42.2251 20.1749 42.9001 20.9999 42.9001C21.8249 42.9001 22.4999 42.2251 22.4999 41.4001V39.6001C22.4999 38.7751 23.1749 38.1001 23.9999 38.1001C24.8249 38.1001 25.4999 38.7751 25.4999 39.6001V41.4001C25.4999 42.2251 26.1749 42.9001 26.9999 42.9001C27.8249 42.9001 28.4999 42.2251 28.4999 41.4001V39.6001C28.4999 37.7551 27.3899 36.1726 25.7999 35.475V32.7225C29.6024 33.7725 32.3999 37.2601 32.3999 41.4001C32.3999 42.3975 33.2024 43.2001 34.1999 43.2001C35.1974 43.2001 35.9999 42.3975 35.9999 41.4001C35.9999 34.4401 30.3599 28.8 23.3999 28.8H14.9999C8.0399 28.8 2.3999 34.4401 2.3999 41.4001C2.3999 42.3975 3.2024 43.2001 4.1999 43.2001C5.1974 43.2001 5.9999 42.3975 5.9999 41.4001C5.9999 37.71 8.2199 34.5375 11.3999 33.15V36.48C10.3274 37.1026 9.5999 38.265 9.5999 39.6001C9.5999 41.5876 11.2124 43.2001 13.1999 43.2001C15.1874 43.2001 16.7999 41.5876 16.7999 39.6001C16.7999 38.265 16.0724 37.1026 14.9999 36.48ZM26.3999 8.40005V15.6C26.3999 17.5875 28.0124 19.2 29.9999 19.2H31.1999V22.305C31.1999 23.3775 32.4899 23.9101 33.2474 23.1525L37.1999 19.2H41.9999C43.9874 19.2 45.5999 17.5875 45.5999 15.6V8.40005C45.5999 6.41255 43.9874 4.80005 41.9999 4.80005H29.9999C28.0124 4.80005 26.3999 6.41255 26.3999 8.40005Z" fill="#271332"/>
</svg>
