<svg width="48" height="48" viewBox="0 0 48 48" fill="none" xmlns="http://www.w3.org/2000/svg">
<path d="M26.4001 8.40005V15.6C26.4001 17.5875 28.0126 19.2 30.0001 19.2H31.2001V22.305C31.2001 23.3775 32.4901 23.9101 33.2476 23.1525L37.2001 19.2H42.0001C43.9876 19.2 45.6001 17.5875 45.6001 15.6V8.40005C45.6001 6.41255 43.9876 4.80005 42.0001 4.80005H30.0001C28.0126 4.80005 26.4001 6.41255 26.4001 8.40005ZM22.8001 8.40005C22.8001 7.66505 22.9126 6.96005 23.1151 6.29255C21.9301 5.72255 20.6026 5.40005 19.2001 5.40005C14.2276 5.40005 10.2001 9.42755 10.2001 14.4C10.2001 19.3726 14.2276 23.4 19.2001 23.4C21.5401 23.4 23.6776 22.5075 25.2826 21.0375C23.7601 19.7175 22.8001 17.775 22.8001 15.6V8.40005ZM23.7001 28.86C23.2951 28.8225 22.8751 28.8 22.4551 28.8H15.9376C15.5176 28.8 15.1051 28.8225 14.6926 28.86V33.9225C15.9301 34.4925 16.7926 35.7451 16.7926 37.1926C16.7926 39.18 15.1801 40.7926 13.1926 40.7926C11.2051 40.7926 9.5926 39.18 9.5926 37.1926C9.5926 35.7375 10.4551 34.485 11.6926 33.9225V29.5425C6.9751 31.275 3.6001 35.82 3.6001 41.1451C3.6001 42.2775 4.5226 43.2001 5.6551 43.2001H32.7376C33.8701 43.2001 34.7926 42.2775 34.7926 41.1451C34.7926 35.82 31.4176 31.2826 26.6926 29.5501V32.355C28.4401 32.97 29.6926 34.6425 29.6926 36.6V39C29.6926 39.8251 29.0176 40.5 28.1926 40.5C27.3676 40.5 26.6926 39.8251 26.6926 39V36.6C26.6926 35.775 26.0176 35.1 25.1926 35.1C24.3676 35.1 23.6926 35.775 23.6926 36.6V39C23.6926 39.8251 23.0176 40.5 22.1926 40.5C21.3676 40.5 20.6926 39.8251 20.6926 39V36.6C20.6926 34.6425 21.9451 32.9775 23.6926 32.355V28.86H23.7001Z" fill="#271332"/>
</svg>
