<svg width="64" height="64" viewBox="0 0 64 64" fill="none" xmlns="http://www.w3.org/2000/svg">
<path d="M14.6998 17.0701L11.7198 25.6001H24.0098V16.0001H16.2198C15.5398 16.0001 14.9298 16.4301 14.7098 17.0701H14.6998ZM4.85977 25.7901L8.64977 14.9601C9.77977 11.7501 12.8098 9.6001 16.2098 9.6001H35.9998C38.5198 9.6001 40.8898 10.7901 42.3998 12.8001L52.0198 25.6301C58.7098 26.0501 63.9998 31.6101 63.9998 38.4001V40.0001C63.9998 43.5301 61.1298 46.4001 57.5998 46.4001H55.9598C55.5598 50.8901 51.7898 54.4001 47.1998 54.4001C42.6098 54.4001 38.8398 50.8901 38.4398 46.4001H23.9698C23.5698 50.8901 19.7998 54.4001 15.2098 54.4001C10.6198 54.4001 6.84977 50.8901 6.44977 46.4001H6.40977C2.87977 46.4001 0.00976562 43.5301 0.00976562 40.0001V32.0001C0.00976562 28.9901 2.07977 26.4701 4.86977 25.7901H4.85977ZM43.9998 25.6001L37.2798 16.6401C36.9798 16.2401 36.4998 16.0001 35.9998 16.0001H28.7998V25.6001H43.9998ZM15.1998 49.6001C17.4098 49.6001 19.1998 47.8101 19.1998 45.6001C19.1998 43.3901 17.4098 41.6001 15.1998 41.6001C12.9898 41.6001 11.1998 43.3901 11.1998 45.6001C11.1998 47.8101 12.9898 49.6001 15.1998 49.6001ZM51.1998 45.6001C51.1998 43.3901 49.4098 41.6001 47.1998 41.6001C44.9898 41.6001 43.1998 43.3901 43.1998 45.6001C43.1998 47.8101 44.9898 49.6001 47.1998 49.6001C49.4098 49.6001 51.1998 47.8101 51.1998 45.6001Z" fill="#271332"/>
</svg>
