<svg width="48" height="48" viewBox="0 0 48 48" fill="none" xmlns="http://www.w3.org/2000/svg">
<path d="M13.7999 9.00005C13.7999 6.68255 15.6824 4.80005 17.9999 4.80005H19.7999C21.1274 4.80005 22.1999 5.87255 22.1999 7.20005V40.8001C22.1999 42.1276 21.1274 43.2001 19.7999 43.2001H17.3999C15.1649 43.2001 13.2824 41.6701 12.7499 39.6001C12.6974 39.6001 12.6524 39.6001 12.5999 39.6001C9.2849 39.6001 6.5999 36.9151 6.5999 33.6C6.5999 32.25 7.0499 31.005 7.7999 30C6.3449 28.905 5.3999 27.165 5.3999 25.2C5.3999 22.8825 6.7199 20.865 8.6399 19.8675C8.1074 18.9675 7.7999 17.9175 7.7999 16.8C7.7999 13.485 10.4849 10.8 13.7999 10.8V9.00005ZM34.1999 9.00005V10.8C37.5149 10.8 40.1999 13.485 40.1999 16.8C40.1999 17.925 39.8924 18.975 39.3599 19.8675C41.2874 20.865 42.5999 22.875 42.5999 25.2C42.5999 27.165 41.6549 28.905 40.1999 30C40.9499 31.005 41.3999 32.25 41.3999 33.6C41.3999 36.9151 38.7149 39.6001 35.3999 39.6001C35.3474 39.6001 35.3024 39.6001 35.2499 39.6001C34.7174 41.6701 32.8349 43.2001 30.5999 43.2001H28.1999C26.8724 43.2001 25.7999 42.1276 25.7999 40.8001V7.20005C25.7999 5.87255 26.8724 4.80005 28.1999 4.80005H29.9999C32.3174 4.80005 34.1999 6.68255 34.1999 9.00005Z" fill="#271332"/>
</svg>
