<svg width="48" height="48" viewBox="0 0 48 48" fill="none" xmlns="http://www.w3.org/2000/svg">
<path d="M19.7999 4.80005C17.0549 4.80005 14.7374 6.64505 14.0249 9.15755C10.4699 9.88505 7.7999 13.0275 7.7999 16.8C7.7999 17.6475 7.9349 18.465 8.1824 19.2225C6.4799 20.655 5.3999 22.8 5.3999 25.2C5.3999 26.9775 5.9999 28.6201 6.9974 29.9326C6.7349 30.7126 6.5999 31.5375 6.5999 32.4C6.5999 36.4501 9.6899 39.7876 13.6424 40.1626C14.8124 41.9851 16.8599 43.2001 19.1999 43.2001C21.0899 43.2001 22.7999 42.4051 23.9999 41.1301C25.1999 42.4051 26.9099 43.2001 28.7999 43.2001C31.1324 43.2001 33.1799 41.9851 34.3574 40.1626C38.3099 39.7801 41.3999 36.4501 41.3999 32.4C41.3999 31.5375 41.2574 30.7126 41.0024 29.9326C42.0074 28.6201 42.5999 26.9775 42.5999 25.2C42.5999 22.8 41.5124 20.655 39.8174 19.2225C40.0649 18.4575 40.1999 17.64 40.1999 16.8C40.1999 13.0275 37.5299 9.88505 33.9749 9.15755C33.2624 6.64505 30.9449 4.80005 28.1999 4.80005C26.5649 4.80005 25.0799 5.45255 23.9999 6.51755C22.9199 5.46005 21.4349 4.80005 19.7999 4.80005ZM22.1999 10.8V36.8326C22.1924 36.8776 22.1849 36.9226 22.1774 36.9751C21.9899 38.4526 20.7299 39.6001 19.1999 39.6001C17.9399 39.6001 16.8599 38.8275 16.4174 37.7175C16.1324 36.9975 15.4199 36.5475 14.6474 36.5925C14.5649 36.6 14.4824 36.6001 14.4074 36.6001C12.0899 36.6001 10.2074 34.7175 10.2074 32.4C10.2074 31.6875 10.3874 31.0126 10.6949 30.4276C11.0774 29.7076 10.9274 28.8225 10.3349 28.2675C9.5099 27.5025 8.9999 26.4075 8.9999 25.2C8.9999 23.58 9.9149 22.1701 11.2724 21.4651C11.7149 21.2401 12.0374 20.835 12.1724 20.3625C12.3074 19.89 12.2399 19.3725 11.9849 18.945C11.6099 18.315 11.3924 17.5875 11.3924 16.8C11.3924 14.4825 13.2749 12.6 15.5924 12.6C16.5899 12.6 17.3924 11.7975 17.3924 10.8C17.3924 9.47255 18.4649 8.40005 19.7924 8.40005C21.1199 8.40005 22.1924 9.47255 22.1924 10.8H22.1999ZM25.7999 36.8326V10.8C25.7999 9.47255 26.8724 8.40005 28.1999 8.40005C29.5274 8.40005 30.5999 9.47255 30.5999 10.8C30.5999 11.7975 31.4024 12.6 32.3999 12.6C34.7174 12.6 36.5999 14.4825 36.5999 16.8C36.5999 17.5875 36.3824 18.3225 36.0074 18.945C35.7524 19.3725 35.6849 19.8825 35.8199 20.3625C35.9549 20.8425 36.2849 21.2401 36.7199 21.4651C38.0699 22.1626 38.9924 23.5725 38.9924 25.2C38.9924 26.4075 38.4824 27.5025 37.6574 28.2675C37.0649 28.8225 36.9149 29.7076 37.2974 30.4276C37.6124 31.0126 37.7849 31.68 37.7849 32.4C37.7849 34.7175 35.9024 36.6001 33.5849 36.6001C33.5024 36.6001 33.4199 36.6 33.3449 36.5925C32.5724 36.5475 31.8599 37.005 31.5749 37.7175C31.1324 38.82 30.0449 39.6001 28.7924 39.6001C27.2624 39.6001 26.0024 38.4526 25.8149 36.9751C25.8074 36.9301 25.7999 36.8776 25.7924 36.8326H25.7999Z" fill="#271332"/>
</svg>
