<svg width="48" height="48" viewBox="0 0 48 48" fill="none" xmlns="http://www.w3.org/2000/svg">
<path d="M24.0002 10.8C19.1102 10.8 15.0902 13.02 12.0077 15.8774C9.12016 18.5625 7.12516 21.75 6.10516 24C7.12516 26.25 9.12016 29.4374 12.0077 32.1224C15.0902 34.9799 19.1102 37.1999 24.0002 37.1999C28.8902 37.1999 32.9102 34.9799 35.9927 32.1224C38.8802 29.4374 40.8752 26.25 41.8952 24C40.8752 21.75 38.8802 18.5625 35.9927 15.8774C32.9102 13.02 28.8902 10.8 24.0002 10.8ZM9.55516 13.245C13.0877 9.95995 17.9402 7.19995 24.0002 7.19995C30.0602 7.19995 34.9127 9.95995 38.4452 13.245C41.9552 16.5075 44.3027 20.4 45.4202 23.0775C45.6677 23.67 45.6677 24.3299 45.4202 24.9224C44.3027 27.5999 41.9552 31.4999 38.4452 34.7549C34.9127 38.0324 30.0602 40.7999 24.0002 40.7999C17.9402 40.7999 13.0877 38.0399 9.55516 34.7549C6.04516 31.4924 3.69766 27.5999 2.58016 24.9224C2.33266 24.3299 2.33266 23.67 2.58016 23.0775C3.69766 20.4 6.04516 16.5 9.55516 13.245ZM24.0002 30C27.3152 30 30.0002 27.315 30.0002 24C30.0002 21.78 28.7927 19.8375 27.0002 18.8025C26.8952 23.2799 23.2802 26.895 18.8027 27C19.8377 28.7924 21.7802 30 24.0002 30ZM18.0302 23.37C18.2177 23.3925 18.4052 23.4 18.6002 23.4C21.2477 23.4 23.4002 21.2474 23.4002 18.6C23.4002 18.405 23.3852 18.2175 23.3702 18.03C20.5652 18.3224 18.3302 20.5575 18.0377 23.3624L18.0302 23.37ZM21.4502 14.745C22.2602 14.52 23.1152 14.4075 23.9927 14.4075C24.6527 14.4075 25.3052 14.475 25.9277 14.6025C25.9502 14.61 25.9652 14.61 25.9877 14.6175C30.3302 15.5325 33.5927 19.395 33.5927 24.0075C33.5927 29.3099 29.2952 33.6075 23.9927 33.6075C19.3727 33.6075 15.5177 30.345 14.6027 26.0025C14.4677 25.3575 14.3927 24.69 14.3927 24.0075C14.3927 23.1825 14.4977 22.3725 14.6927 21.6075C14.7077 21.555 14.7152 21.51 14.7302 21.465C15.6227 18.21 18.1877 15.645 21.4427 14.7525L21.4502 14.745Z" fill="#271332"/>
</svg>
