<svg width="48" height="48" viewBox="0 0 48 48" fill="none" xmlns="http://www.w3.org/2000/svg">
<path d="M19.2977 4.57508C20.0852 3.96758 21.2177 4.11008 21.8252 4.89758L38.6402 26.6026C40.0352 28.4101 40.8002 30.6226 40.8002 32.9101C40.8002 38.5951 36.1952 43.2076 30.5027 43.2076L16.2002 43.2001C11.2277 43.2001 7.2002 39.1726 7.2002 34.2001C7.2002 29.2276 11.2277 25.2001 16.2002 25.2001H17.4002C18.3977 25.2001 19.2002 26.0026 19.2002 27.0001C19.2002 27.9976 18.3977 28.8001 17.4002 28.8001H16.2002C13.2152 28.8001 10.8002 31.2151 10.8002 34.2001C10.8002 36.9826 12.9002 39.2701 15.6002 39.5701V38.4001C15.6002 35.0851 18.2852 32.4001 21.6002 32.4001C24.9152 32.4001 27.6002 35.0851 27.6002 38.4001V39.6001H30.5027C34.2002 39.6001 37.2002 36.6001 37.2002 32.9026C37.2002 31.4176 36.7052 29.9776 35.7977 28.8001L18.9752 7.10258C18.3677 6.31508 18.5102 5.18258 19.2977 4.57508ZM24.0002 39.6001V38.4001C24.0002 37.0726 22.9277 36.0001 21.6002 36.0001C20.2727 36.0001 19.2002 37.0726 19.2002 38.4001V39.6001H24.0002Z" fill="black"/>
</svg>
