<svg width="48" height="48" viewBox="0 0 48 48" fill="none" xmlns="http://www.w3.org/2000/svg">
<path d="M19.1927 4.80005H14.4002C13.0727 4.80005 12.0002 5.87255 12.0002 7.20005V23.3475C13.1402 22.9875 14.3477 22.8 15.6002 22.8H17.4002C18.3977 22.8 19.2002 23.6025 19.2002 24.6C19.2002 25.5975 18.3977 26.4 17.4002 26.4H15.6002C10.9577 26.4 7.2002 30.1575 7.2002 34.8001C7.2002 39.0301 10.3277 42.5326 14.4002 43.1176C14.4452 39.8401 17.1152 37.2001 20.4002 37.2001C23.7152 37.2001 26.4002 39.8851 26.4002 43.2001H32.6777C37.1627 43.2001 40.8002 39.5626 40.8002 35.0776C40.8002 33.3376 40.2452 31.65 39.2102 30.2475L21.1202 5.77505C20.6702 5.16005 19.9502 4.80005 19.1927 4.80005Z" fill="black"/>
</svg>
