<svg width="48" height="48" viewBox="0 0 48 48" fill="none" xmlns="http://www.w3.org/2000/svg">
<path d="M24 2.3999C25.6575 2.3999 27 3.7424 27 5.3999C27 7.0574 25.6575 8.3999 24 8.3999C22.3425 8.3999 21 7.0574 21 5.3999C21 3.7424 22.3425 2.3999 24 2.3999ZM3 9.5999C4.6575 9.5999 6 10.9424 6 12.5999V24.6149C6 25.8899 6.5025 27.1124 7.4025 28.0124L11.235 31.8449C11.8575 32.4674 12.8325 32.5649 13.56 32.0774C14.5275 31.4324 14.6625 30.0599 13.8375 29.2424C13.29 28.6949 12.105 27.5099 10.2975 25.7024C9.36 24.7649 9.36 23.2424 10.2975 22.3049C11.235 21.3674 12.7575 21.3674 13.695 22.3049C15.5025 24.1124 16.6875 25.2974 17.235 25.8449L19.1325 27.7424C20.7075 29.3174 21.5925 31.4549 21.5925 33.6824V39.5999C21.5925 41.5874 19.98 43.1999 17.9925 43.1999H12.99C11.715 43.1999 10.4925 42.6974 9.5925 41.7974L2.1075 34.3049C0.7575 32.9549 0 31.1249 0 29.2124V12.5999C0 10.9424 1.3425 9.5999 3 9.5999ZM45 9.5999C46.6575 9.5999 48 10.9424 48 12.5999V29.2124C48 31.1249 47.2425 32.9549 45.8925 34.3049L38.4 41.7974C37.5 42.6974 36.2775 43.1999 35.0025 43.1999H30C28.0125 43.1999 26.4 41.5874 26.4 39.5999V33.6824C26.4 31.4549 27.285 29.3174 28.86 27.7424L30.7575 25.8449C31.305 25.2974 32.49 24.1124 34.2975 22.3049C35.235 21.3674 36.7575 21.3674 37.695 22.3049C38.6325 23.2424 38.6325 24.7649 37.695 25.7024C35.8875 27.5099 34.7025 28.6949 34.155 29.2424C33.33 30.0674 33.465 31.4324 34.4325 32.0774C35.16 32.5649 36.135 32.4674 36.7575 31.8449L40.59 28.0124C41.49 27.1124 41.9925 25.8899 41.9925 24.6149L42 12.5999C42 10.9424 43.3425 9.5999 45 9.5999ZM28.8375 15.9749L27.3525 14.7224L28.185 21.3824C28.305 22.3724 27.6075 23.2649 26.625 23.3924C25.6425 23.5199 24.7425 22.8149 24.615 21.8324L24.285 19.2074H23.715L23.385 21.8324C23.265 22.8224 22.365 23.5199 21.375 23.3924C20.385 23.2649 19.6875 22.3724 19.815 21.3824L20.6475 14.7224L19.1625 15.9749C18.405 16.6199 17.265 16.5224 16.6275 15.7649C15.99 15.0074 16.08 13.8674 16.8375 13.2299L18.93 11.4599C20.3475 10.2599 22.1475 9.5999 24 9.5999C25.8525 9.5999 27.6525 10.2599 29.07 11.4524L31.1625 13.2224C31.92 13.8674 32.0175 14.9999 31.3725 15.7574C30.7275 16.5149 29.595 16.6124 28.8375 15.9674V15.9749Z" fill="#271332"/>
</svg>
