<svg width="48" height="48" viewBox="0 0 48 48" fill="none" xmlns="http://www.w3.org/2000/svg">
<path d="M24 8.3999C25.6575 8.3999 27 7.0574 27 5.3999C27 3.7424 25.6575 2.3999 24 2.3999C22.3425 2.3999 21 3.7424 21 5.3999C21 7.0574 22.3425 8.3999 24 8.3999ZM10.8 14.9999C10.8 12.0149 8.385 9.5999 5.4 9.5999C2.415 9.5999 0 12.0149 0 14.9999V31.2149C0 33.5999 0.945 35.8874 2.6325 37.5824L7.725 42.6749C8.43 43.3799 9.57 43.3799 10.2675 42.6749C10.965 41.9699 10.9725 40.8299 10.2675 40.1324L5.1825 35.0324C4.17 34.0199 3.6 32.6474 3.6 31.2149V14.9999C3.6 14.0024 4.4025 13.1999 5.4 13.1999C6.3975 13.1999 7.2 14.0024 7.2 14.9999V25.9424C7.2 27.8624 7.965 29.7074 9.3225 31.0724L10.515 32.2649L12.5175 34.2674L13.7175 35.4674C14.4225 36.1724 15.5625 36.1724 16.26 35.4674C16.9575 34.7624 16.965 33.6224 16.26 32.9249L15.06 31.7249L13.0575 29.7224C12.7575 29.4224 12.5925 29.0174 12.5925 28.5974C12.5925 27.7199 13.305 26.9999 14.19 26.9999C14.61 26.9999 15.015 27.1649 15.315 27.4649L19.92 32.0699C21.3825 33.5249 22.2 35.5049 22.2 37.5599V41.3999C22.2 42.3974 23.0025 43.1999 24 43.1999C24.9975 43.1999 25.8 42.3974 25.8 41.3999V37.5599C25.8 35.5049 26.6175 33.5249 28.0725 32.0699L32.6775 27.4649C32.9775 27.1649 33.3825 26.9999 33.8025 26.9999C34.68 26.9999 35.4 27.7124 35.4 28.5974C35.4 29.0174 35.235 29.4224 34.935 29.7224L32.9325 31.7249L31.7325 32.9249C31.0275 33.6299 31.0275 34.7699 31.7325 35.4674C32.4375 36.1649 33.5775 36.1724 34.275 35.4674L35.475 34.2674C38.955 30.7874 37.02 32.7299 38.6775 31.0649C40.035 29.7074 40.8 27.8624 40.8 25.9349V14.9999C40.8 14.0024 41.6025 13.1999 42.6 13.1999C43.5975 13.1999 44.4 14.0024 44.4 14.9999V31.2149C44.4 32.6474 43.83 34.0199 42.8175 35.0324L37.725 40.1249C37.02 40.8299 37.02 41.9699 37.725 42.6674C38.43 43.3649 39.57 43.3724 40.2675 42.6674L45.36 37.5749C47.0475 35.8874 47.9925 33.5999 47.9925 31.2074L48 14.9999C48 12.0149 45.585 9.5999 42.6 9.5999C39.615 9.5999 37.2 12.0149 37.2 14.9999V24.6599C36.2925 23.8724 35.1 23.3999 33.8025 23.3999C32.4225 23.3999 31.1025 23.9474 30.1275 24.9224L25.5225 29.5274C24.945 30.1049 24.435 30.7424 23.9925 31.4249C23.5575 30.7424 23.0475 30.1124 22.4625 29.5274L17.8575 24.9224C16.8825 23.9474 15.5625 23.3999 14.1825 23.3999C12.885 23.3999 11.7 23.8724 10.785 24.6599L10.8 14.9999ZM28.8375 15.9749C29.595 16.6199 30.735 16.5224 31.3725 15.7649C32.01 15.0074 31.92 13.8674 31.1625 13.2299L29.07 11.4524C27.6525 10.2599 25.8525 9.5999 24 9.5999C22.1475 9.5999 20.3475 10.2599 18.93 11.4524L16.8375 13.2224C16.08 13.8674 15.9825 14.9999 16.6275 15.7574C17.2725 16.5149 18.405 16.6124 19.1625 15.9674L20.6475 14.7149L19.815 21.3749C19.695 22.3649 20.3925 23.2574 21.375 23.3849C22.3575 23.5124 23.2575 22.8074 23.385 21.8249L23.715 19.1999H24.285L24.615 21.8249C24.735 22.8149 25.635 23.5124 26.625 23.3849C27.615 23.2574 28.3125 22.3649 28.185 21.3749L27.3525 14.7149L28.8375 15.9674V15.9749Z" fill="#271332"/>
</svg>
