<svg width="48" height="48" viewBox="0 0 48 48" fill="none" xmlns="http://www.w3.org/2000/svg">
<path d="M24 8.39999C25.6575 8.39999 27 7.05749 27 5.39999C27 3.74249 25.6575 2.39999 24 2.39999C22.3425 2.39999 21 3.74249 21 5.39999C21 7.05749 22.3425 8.39999 24 8.39999ZM10.8 15C10.8 12.015 8.385 9.59999 5.4 9.59999C2.415 9.59999 0 12.015 0 15V31.215C0 33.6 0.945 35.8875 2.6325 37.5825L7.725 42.675C8.43 43.38 9.57 43.38 10.2675 42.675C10.965 41.97 10.9725 40.83 10.2675 40.1325L5.1825 35.0325C4.17 34.02 3.6 32.6475 3.6 31.215V15C3.6 14.0025 4.4025 13.2 5.4 13.2C6.3975 13.2 7.2 14.0025 7.2 15V25.9425C7.2 27.8625 7.965 29.7075 9.3225 31.0725L10.515 32.265L12.5175 34.2675L13.7175 35.4675C14.4225 36.1725 15.5625 36.1725 16.26 35.4675C16.9575 34.7625 16.965 33.6225 16.26 32.925L15.06 31.725L13.0575 29.7225C12.7575 29.4225 12.5925 29.0175 12.5925 28.5975C12.5925 27.72 13.305 27 14.19 27C14.61 27 15.015 27.165 15.315 27.465L19.92 32.07C21.3825 33.525 22.2 35.505 22.2 37.56V41.4C22.2 42.3975 23.0025 43.2 24 43.2C24.9975 43.2 25.8 42.3975 25.8 41.4V37.56C25.8 35.505 26.6175 33.525 28.0725 32.07L32.6775 27.465C32.9775 27.165 33.3825 27 33.8025 27C34.68 27 35.4 27.7125 35.4 28.5975C35.4 29.0175 35.235 29.4225 34.935 29.7225L32.9325 31.725L31.7325 32.925C31.0275 33.63 31.0275 34.77 31.7325 35.4675C32.4375 36.165 33.5775 36.1725 34.275 35.4675L35.475 34.2675C38.955 30.7875 37.02 32.73 38.6775 31.065C40.035 29.7075 40.8 27.8625 40.8 25.935V15C40.8 14.0025 41.6025 13.2 42.6 13.2C43.5975 13.2 44.4 14.0025 44.4 15V31.215C44.4 32.6475 43.83 34.02 42.8175 35.0325L37.725 40.125C37.02 40.83 37.02 41.97 37.725 42.6675C38.43 43.365 39.57 43.3725 40.2675 42.6675L45.36 37.575C47.0475 35.8875 47.9925 33.6 47.9925 31.2075L48 15C48 12.015 45.585 9.59999 42.6 9.59999C39.615 9.59999 37.2 12.015 37.2 15V24.66C36.2925 23.8725 35.1 23.4 33.8025 23.4C32.4225 23.4 31.1025 23.9475 30.1275 24.9225L25.5225 29.5275C24.945 30.105 24.435 30.7425 23.9925 31.425C23.5575 30.7425 23.0475 30.1125 22.4625 29.5275L17.8575 24.9225C16.8825 23.9475 15.5625 23.4 14.1825 23.4C12.885 23.4 11.7 23.8725 10.785 24.66L10.8 15ZM28.8375 15.975C29.595 16.62 30.735 16.5225 31.3725 15.765C32.01 15.0075 31.92 13.8675 31.1625 13.23L29.07 11.4525C27.6525 10.26 25.8525 9.59999 24 9.59999C22.1475 9.59999 20.3475 10.26 18.93 11.4525L16.8375 13.2225C16.08 13.8675 15.9825 15 16.6275 15.7575C17.2725 16.515 18.405 16.6125 19.1625 15.9675L20.6475 14.715L19.815 21.375C19.695 22.365 20.3925 23.2575 21.375 23.385C22.3575 23.5125 23.2575 22.8075 23.385 21.825L23.715 19.2H24.285L24.615 21.825C24.735 22.815 25.635 23.5125 26.625 23.385C27.615 23.2575 28.3125 22.365 28.185 21.375L27.3525 14.715L28.8375 15.9675V15.975Z" fill="#271332"/>
</svg>
