<svg width="48" height="48" viewBox="0 0 48 48" fill="none" xmlns="http://www.w3.org/2000/svg">
<path d="M17.9999 10.5975V15.63C21.6524 15.81 24.2399 16.8 26.3849 17.655L26.5424 17.7225C28.7699 18.615 30.2324 19.2 32.3924 19.2C35.0024 19.2 37.6724 18.6676 39.5549 17.67C41.3549 16.7175 41.9924 15.645 41.9924 14.4C41.9924 13.5225 41.2424 12.0525 38.2799 10.5675C35.5199 9.18755 31.8824 8.40005 28.7924 8.40005C26.8649 8.40005 24.2249 8.90255 21.8699 9.49505C20.7374 9.78005 19.7399 10.065 19.0274 10.275C18.6749 10.38 18.3899 10.47 18.2024 10.53C18.1124 10.56 18.0374 10.5825 17.9924 10.5975H17.9999ZM14.3999 15.6V10.8H13.1999C11.8724 10.8 10.7999 11.8725 10.7999 13.2C10.7999 14.5275 11.8724 15.6 13.1999 15.6H14.3999ZM16.7999 7.20005C16.7999 7.20005 24.0224 4.80005 28.7999 4.80005C35.9999 4.80005 45.5999 8.40005 45.5999 14.4C45.5999 20.4 38.3999 22.8 32.3999 22.8C29.5349 22.8 27.4949 21.9825 25.3574 21.1201C23.0174 20.1825 20.5649 19.2 16.7999 19.2H13.1999C9.8849 19.2 7.1999 16.515 7.1999 13.2C7.1999 9.88505 9.8849 7.20005 13.1999 7.20005H16.7999ZM9.5999 37.2001V32.4H8.3999C7.0724 32.4 5.9999 33.4725 5.9999 34.8001C5.9999 36.1276 7.0724 37.2001 8.3999 37.2001H9.5999ZM13.4099 37.4701C13.5974 37.5301 13.8824 37.62 14.2349 37.7251C14.9474 37.9351 15.9449 38.2201 17.0774 38.5051C19.4324 39.0901 22.0724 39.6001 23.9999 39.6001C27.0899 39.6001 30.7349 38.805 33.4874 37.4326C36.4424 35.955 37.1999 34.4776 37.1999 33.6C37.1999 32.3626 36.5699 31.2825 34.7624 30.33C32.8799 29.3326 30.2024 28.8 27.5999 28.8C25.4399 28.8 23.9699 29.385 21.7499 30.2776L21.5924 30.3451C19.4474 31.2001 16.8599 32.1901 13.2074 32.3701V37.4025C13.2524 37.4175 13.3274 37.4401 13.4174 37.4701H13.4099ZM11.9999 40.8H8.3999C5.0849 40.8 2.3999 38.1151 2.3999 34.8001C2.3999 31.4851 5.0849 28.8 8.3999 28.8H11.9999C15.7649 28.8 18.2174 27.8175 20.5574 26.88C22.6949 26.025 24.7349 25.2001 27.5999 25.2001C33.5999 25.2001 40.7999 27.6 40.7999 33.6C40.7999 39.6001 31.1999 43.2001 23.9999 43.2001C19.2224 43.2001 11.9999 40.8 11.9999 40.8Z" fill="#271332"/>
</svg>
