<svg width="48" height="48" viewBox="0 0 48 48" fill="none" xmlns="http://www.w3.org/2000/svg">
<path d="M25.8002 6.60005C25.8002 5.60255 24.9977 4.80005 24.0002 4.80005C23.0027 4.80005 22.2002 5.60255 22.2002 6.60005V18.18L19.2002 19.98V10.2975C19.2002 8.58755 17.8127 7.20005 16.1027 7.20005C15.3377 7.20005 14.5952 7.48505 14.0252 8.00255L11.8727 9.94505C5.0777 16.095 1.2002 24.8325 1.2002 33.9975V35.5126C1.2002 39.7575 4.6427 43.2001 8.88769 43.2001C10.5152 43.2001 12.0977 42.6826 13.4102 41.7301L14.5052 40.9276C17.4527 38.7826 19.2002 35.355 19.2002 31.71V24.18L24.0002 21.3L28.8002 24.18V31.71C28.8002 35.355 30.5477 38.7826 33.4952 40.9276L34.5902 41.7301C35.9027 42.6826 37.4852 43.2001 39.1127 43.2001C43.3577 43.2001 46.8002 39.7575 46.8002 35.5126V33.4576C46.8002 24.6225 43.1777 16.1775 36.7727 10.095L34.7327 8.16755C34.0802 7.54505 33.2177 7.20005 32.3177 7.20005C30.3752 7.20005 28.8002 8.77505 28.8002 10.7175V19.98L25.8002 18.18V6.60005ZM32.4002 26.34L35.0777 27.945C35.9327 28.455 37.0352 28.1775 37.5452 27.33C38.0552 26.4825 37.7777 25.3725 36.9302 24.8625L32.4077 22.1475V10.92L34.2977 12.72C39.9827 18.1125 43.2002 25.6126 43.2002 33.4576V35.5126C43.2002 37.7701 41.3702 39.6001 39.1127 39.6001C38.2502 39.6001 37.4102 39.33 36.7127 38.82L35.6177 38.0176C33.6002 36.5476 32.4077 34.2075 32.4077 31.71V26.34H32.4002ZM15.6002 11.43V22.1401L11.0777 24.855C10.2227 25.365 9.9452 26.475 10.4627 27.3225C10.9802 28.17 12.0827 28.4475 12.9302 27.9375L15.6077 26.3326V31.7026C15.6077 34.2001 14.4152 36.54 12.3977 38.01L11.3027 38.8125C10.6052 39.3226 9.76519 39.5926 8.90269 39.5926C6.64519 39.5926 4.81519 37.7626 4.81519 35.505V33.9901C4.81519 25.8376 8.26519 18.0675 14.3027 12.6L15.6002 11.43Z" fill="#271332"/>
</svg>
