<svg width="48" height="48" viewBox="0 0 48 48" fill="none" xmlns="http://www.w3.org/2000/svg">
<path d="M29.5273 38.4001C29.1448 38.4001 28.7998 38.6775 28.7998 39.0601V39.6001C28.7998 41.5876 27.1873 43.2001 25.1998 43.2001H13.1998C11.2123 43.2001 9.5998 41.5876 9.5998 39.6001V34.83C9.5998 33.885 9.2173 32.9925 8.6173 32.2651C6.2323 29.3626 4.7998 25.65 4.7998 21.6C4.7998 12.3225 12.3223 4.80005 21.5998 4.80005C30.0523 4.80005 37.0498 11.0475 38.2273 19.1775C38.2573 19.4025 38.3548 19.62 38.4973 19.8L41.1823 23.0175C41.7073 23.6475 41.9998 24.4501 41.9998 25.275C41.9998 27.2176 40.4248 28.8 38.4748 28.8H38.3998C37.7398 28.8 37.1998 29.34 37.1998 30V33.6C37.1998 36.2476 35.0473 38.4001 32.3998 38.4001H29.5273ZM19.1998 16.2V19.2H16.1998C15.5398 19.2 14.9998 19.74 14.9998 20.4V22.8C14.9998 23.46 15.5398 24 16.1998 24H19.1998V27C19.1998 27.66 19.7398 28.2001 20.3998 28.2001H22.7998C23.4598 28.2001 23.9998 27.66 23.9998 27V24H26.9998C27.6598 24 28.1998 23.46 28.1998 22.8V20.4C28.1998 19.74 27.6598 19.2 26.9998 19.2H23.9998V16.2C23.9998 15.54 23.4598 15 22.7998 15H20.3998C19.7398 15 19.1998 15.54 19.1998 16.2Z" fill="#271332"/>
</svg>
