<svg width="48" height="48" viewBox="0 0 48 48" fill="none" xmlns="http://www.w3.org/2000/svg">
<path d="M6.81739 28.395C6.01489 29.1975 5.42989 30.2025 5.12239 31.2975L2.46739 40.875C2.29489 41.4975 2.46739 42.1725 2.93239 42.63C3.39739 43.0875 4.06489 43.2675 4.68739 43.095L14.2724 40.4325C15.3674 40.125 16.3649 39.5475 17.1749 38.7375L30.7574 25.1475L33.2999 22.605C32.0549 21.36 29.4524 18.7575 25.4999 14.805L22.9574 12.2625L20.4149 14.805L6.82489 28.395H6.81739ZM8.59489 32.2575C8.61739 32.175 8.64739 32.0925 8.67739 32.01L9.97489 31.4925C10.3724 31.335 10.7999 31.6275 10.7999 32.0475V33.5625C10.7999 34.2225 11.3399 34.7625 11.9999 34.7625H13.5149C13.9424 34.7625 14.2274 35.19 14.0699 35.5875L13.5524 36.885C13.4699 36.915 13.3874 36.945 13.3049 36.9675L6.78739 38.775L8.59489 32.2575ZM38.3924 17.5125L39.2099 16.695C40.2299 15.675 40.7999 14.295 40.7999 12.855C40.7999 11.415 40.2299 10.035 39.2099 9.02251L36.5324 6.345C35.5199 5.325 34.1399 4.755 32.6999 4.755C31.2599 4.755 29.8799 5.325 28.8674 6.345C28.6049 6.6075 27.4874 7.725 25.4999 9.7125C26.7449 10.9575 29.3474 13.56 33.2999 17.5125L35.8424 20.055L38.3849 17.5125H38.3924ZM23.3999 39.6C22.4024 39.6 21.5999 40.4025 21.5999 41.4C21.5999 42.3975 22.4024 43.2 23.3999 43.2H43.7999C44.7974 43.2 45.5999 42.3975 45.5999 41.4C45.5999 40.4025 44.7974 39.6 43.7999 39.6H23.3999Z" fill="#271332"/>
</svg>
