<svg width="48" height="48" viewBox="0 0 48 48" fill="none" xmlns="http://www.w3.org/2000/svg">
<path d="M6.5998 7.19995C5.6023 7.19995 4.7998 8.00245 4.7998 8.99995C4.7998 9.99745 5.6023 10.8 6.5998 10.8H7.1998V37.1999H6.5998C5.6023 37.1999 4.7998 38.0024 4.7998 38.9999C4.7998 39.9974 5.6023 40.7999 6.5998 40.7999H41.3998C42.3973 40.7999 43.1998 39.9974 43.1998 38.9999C43.1998 38.0024 42.3973 37.1999 41.3998 37.1999H40.7998V10.8H41.3998C42.3973 10.8 43.1998 9.99745 43.1998 8.99995C43.1998 8.00245 42.3973 7.19995 41.3998 7.19995H6.5998ZM10.7998 37.1999V10.8H37.1998V37.1999H10.7998ZM25.7998 15C25.7998 14.0025 24.9973 13.2 23.9998 13.2C23.0023 13.2 22.1998 14.0025 22.1998 15V15.6H17.3998C16.4023 15.6 15.5998 16.4025 15.5998 17.4C15.5998 18.3975 16.4023 19.2 17.3998 19.2H22.1998V22.2H16.1998C15.2023 22.2 14.3998 23.0024 14.3998 24C14.3998 24.9974 15.2023 25.7999 16.1998 25.7999H22.1998V28.7999H17.3998C16.4023 28.7999 15.5998 29.6024 15.5998 30.5999C15.5998 31.5975 16.4023 32.4 17.3998 32.4H22.1998V33C22.1998 33.9974 23.0023 34.7999 23.9998 34.7999C24.9973 34.7999 25.7998 33.9974 25.7998 33V32.4H30.5998C31.5973 32.4 32.3998 31.5975 32.3998 30.5999C32.3998 29.6024 31.5973 28.7999 30.5998 28.7999H25.7998V25.7999H31.7998C32.7973 25.7999 33.5998 24.9974 33.5998 24C33.5998 23.0024 32.7973 22.2 31.7998 22.2H25.7998V19.2H30.5998C31.5973 19.2 32.3998 18.3975 32.3998 17.4C32.3998 16.4025 31.5973 15.6 30.5998 15.6H25.7998V15Z" fill="#271332"/>
</svg>
