<svg width="48" height="48" viewBox="0 0 48 48" fill="none" xmlns="http://www.w3.org/2000/svg">
<path d="M11.9998 19.2V21.9075C13.9198 22.5825 15.3373 24.315 15.5698 26.4H32.4373C32.6698 24.315 34.0873 22.5825 36.0073 21.9075V19.2C36.0073 15.885 33.3223 13.2 30.0073 13.2H18.0073C14.6923 13.2 12.0073 15.885 12.0073 19.2H11.9998ZM8.3998 21.9075V19.2C8.3998 13.8975 12.6973 9.60001 17.9998 9.60001H29.9998C35.3023 9.60001 39.5998 13.8975 39.5998 19.2V21.9075C41.6998 22.65 43.1998 24.6525 43.1998 27V31.8C43.1998 34.8225 41.1673 37.365 38.3998 38.1525V39C38.3998 39.9975 37.5973 40.8 36.5998 40.8C35.6023 40.8 34.7998 39.9975 34.7998 39V38.4H13.1998V39C13.1998 39.9975 12.3973 40.8 11.3998 40.8C10.4023 40.8 9.5998 39.9975 9.5998 39V38.1525C6.8323 37.365 4.7998 34.8225 4.7998 31.8V27C4.7998 24.645 6.2998 22.65 8.3998 21.9075ZM8.3998 27V31.8C8.3998 33.4575 9.7423 34.8 11.3998 34.8H36.5998C38.2573 34.8 39.5998 33.4575 39.5998 31.8V27C39.5998 26.0025 38.7973 25.2 37.7998 25.2C36.8023 25.2 35.9998 26.0025 35.9998 27V28.2C35.9998 29.1975 35.1973 30 34.1998 30H13.7998C12.8023 30 11.9998 29.1975 11.9998 28.2V27C11.9998 26.0025 11.1973 25.2 10.1998 25.2C9.2023 25.2 8.3998 26.0025 8.3998 27Z" fill="#271332"/>
</svg>
