<svg width="48" height="48" viewBox="0 0 48 48" fill="none" xmlns="http://www.w3.org/2000/svg">
<path d="M44.9474 13.6951C45.3599 14.0401 45.5999 14.5426 45.5999 15.0826V19.2001C45.5999 19.8676 45.2249 20.4826 44.6324 20.7976L39.9749 23.2276C34.5749 26.0476 30.5699 30.9526 28.8974 36.8101L28.1324 39.4951C27.9074 40.2676 27.2024 40.8001 26.3999 40.8001H21.5999C20.7974 40.8001 20.0924 40.2676 19.8674 39.4951L19.1024 36.8101C17.4299 30.9526 13.4249 26.0401 8.0249 23.2276L3.3674 20.7976C2.7749 20.4826 2.3999 19.8676 2.3999 19.2001V15.0826C2.3999 14.5501 2.6399 14.0401 3.0524 13.6951C3.4649 13.3501 4.0049 13.2151 4.5374 13.3126C10.1924 14.3851 16.8524 15.0001 23.9999 15.0001C31.1474 15.0001 37.8074 14.3851 43.4699 13.3126C43.9949 13.2151 44.5424 13.3576 44.9549 13.6951H44.9474ZM41.9999 17.2201C36.5924 18.1051 30.4724 18.6001 23.9999 18.6001C17.5274 18.6001 11.4074 18.1051 5.9999 17.2276V18.1126L9.6899 20.0401C15.9674 23.3101 20.6174 29.0176 22.5599 35.8276L22.9574 37.2076H25.0424L25.4399 35.8276C27.3824 29.0251 32.0399 23.3176 38.3099 20.0401L41.9999 18.1126V17.2276V17.2201Z" fill="#271332"/>
</svg>
