<svg width="48" height="48" viewBox="0 0 48 48" fill="none" xmlns="http://www.w3.org/2000/svg">
<path d="M16.8001 12C18.7876 12 20.4001 10.3875 20.4001 8.40005C20.4001 6.41255 18.7876 4.80005 16.8001 4.80005C14.8126 4.80005 13.2001 6.41255 13.2001 8.40005C13.2001 10.3875 14.8126 12 16.8001 12ZM6.85507 27.6376L9.00007 24.0675V40.8C9.00007 42.1276 10.0726 43.2001 11.4001 43.2001C12.7276 43.2001 13.8001 42.1276 13.8001 40.8V31.2001H15.0001V40.8C15.0001 42.1276 16.0726 43.2001 17.4001 43.2001C18.7276 43.2001 19.8001 42.1276 19.8001 40.8V22.4475L23.3551 26.73C24.2026 27.75 25.7176 27.8925 26.7376 27.045C27.7576 26.1975 27.9001 24.6826 27.0526 23.6625L21.5251 16.995C20.1601 15.345 18.1276 14.3925 15.9826 14.3925H13.2901C10.7626 14.3925 8.42257 15.72 7.11757 17.8875L2.74507 25.1625C2.06257 26.295 2.43007 27.7725 3.56257 28.455C4.69507 29.1375 6.17257 28.7701 6.85507 27.6376ZM38.4001 22.8C38.4001 20.8125 36.7876 19.2 34.8001 19.2C32.8126 19.2 31.2001 20.8125 31.2001 22.8C31.2001 24.7875 32.8126 26.4 34.8001 26.4C36.7876 26.4 38.4001 24.7875 38.4001 22.8ZM37.2001 30.6V35.0026L34.0951 31.8975C33.5476 31.35 32.7751 31.1025 32.0101 31.2225C31.2451 31.3425 30.5926 31.83 30.2476 32.5201L26.6476 39.72C26.0551 40.905 26.5351 42.3451 27.7201 42.9375C28.9051 43.5301 30.3451 43.0501 30.9376 41.8651L33.0451 37.6426L37.1476 41.745C38.0776 42.675 39.3301 43.1926 40.6426 43.1926C43.3726 43.1926 45.5851 40.98 45.5851 38.25L45.6001 30.6C45.6001 28.2825 43.7176 26.4 41.4001 26.4C39.0826 26.4 37.2001 28.2825 37.2001 30.6ZM24.0001 8.40005C24.0001 9.06005 24.5401 9.60005 25.2001 9.60005H29.4001C30.0601 9.60005 30.6001 9.06005 30.6001 8.40005C30.6001 7.74005 30.0601 7.20005 29.4001 7.20005H25.2001C24.5401 7.20005 24.0001 7.74005 24.0001 8.40005ZM23.9401 12.1275C23.3476 11.8275 22.6276 12.075 22.3276 12.6675C22.0276 13.26 22.2751 13.98 22.8676 14.28L26.4676 16.08C27.0601 16.38 27.7801 16.1325 28.0801 15.54C28.3801 14.9475 28.1326 14.2275 27.5401 13.9275L23.9401 12.1275Z" fill="#271332"/>
</svg>
