<svg width="48" height="48" viewBox="0 0 48 48" fill="none" xmlns="http://www.w3.org/2000/svg">
<path d="M20.28 25.08C17.0325 28.3275 11.7675 28.3275 8.52 25.08C5.2725 21.8326 5.2725 16.5675 8.52 13.32C11.7675 10.0725 17.0325 10.0725 20.28 13.32C23.5275 16.5675 23.5275 21.8326 20.28 25.08ZM16.8 7.20005C16.8 5.87255 15.7275 4.80005 14.4 4.80005C13.0725 4.80005 12 5.87255 12 7.20005C12 9.48755 9.2325 10.635 7.6125 9.01505C6.675 8.07755 5.1525 8.07755 4.215 9.01505C3.2775 9.95255 3.2775 11.475 4.215 12.4125C5.835 14.0325 4.6875 16.8 2.4 16.8C1.0725 16.8 0 17.8725 0 19.2C0 20.5275 1.0725 21.6 2.4 21.6C4.6875 21.6 5.835 24.3675 4.215 25.9875C3.2775 26.925 3.2775 28.4475 4.215 29.385C5.1525 30.3225 6.675 30.3225 7.6125 29.385C9.2325 27.765 12 28.9125 12 31.2001C12 32.5275 13.0725 33.6 14.4 33.6C15.7275 33.6 16.8 32.5275 16.8 31.2001C16.8 28.9125 19.5675 27.765 21.1875 29.385C22.125 30.3225 23.6475 30.3225 24.585 29.385C25.5225 28.4475 25.5225 26.925 24.585 25.9875C22.965 24.3675 24.1125 21.6 26.4 21.6C27.7275 21.6 28.8 20.5275 28.8 19.2C28.8 17.8725 27.7275 16.8 26.4 16.8C24.1125 16.8 22.965 14.0325 24.585 12.4125C25.5225 11.475 25.5225 9.95255 24.585 9.01505C23.6475 8.07755 22.125 8.07755 21.1875 9.01505C19.5675 10.635 16.8 9.48755 16.8 7.20005ZM39 25.8C39 24.8025 38.1975 24 37.2 24C36.2025 24 35.4 24.8025 35.4 25.8C35.4 27.5175 33.3225 28.3801 32.1075 27.1651C31.4025 26.4601 30.2625 26.4601 29.565 27.1651C28.8675 27.8701 28.86 29.01 29.565 29.7076C30.78 30.9226 29.9175 33 28.2 33C27.2025 33 26.4 33.8025 26.4 34.8001C26.4 35.7976 27.2025 36.6 28.2 36.6C29.9175 36.6 30.78 38.6776 29.565 39.8926C28.86 40.5976 28.86 41.7375 29.565 42.4351C30.27 43.1325 31.41 43.14 32.1075 42.4351C33.3225 41.2201 35.4 42.0826 35.4 43.8C35.4 44.7976 36.2025 45.6001 37.2 45.6001C38.1975 45.6001 39 44.7976 39 43.8C39 42.0826 41.0775 41.2201 42.2925 42.4351C42.9975 43.14 44.1375 43.14 44.835 42.4351C45.5325 41.73 45.54 40.5901 44.835 39.8926C43.62 38.6776 44.4825 36.6 46.2 36.6C47.1975 36.6 48 35.7976 48 34.8001C48 33.8025 47.1975 33 46.2 33C44.4825 33 43.62 30.9226 44.835 29.7076C45.54 29.0026 45.54 27.8626 44.835 27.1651C44.13 26.4676 42.99 26.4601 42.2925 27.1651C41.0775 28.3801 39 27.5175 39 25.8ZM34.2 33.6C34.2 32.6026 35.0025 31.8001 36 31.8001C36.9975 31.8001 37.8 32.6026 37.8 33.6C37.8 34.5975 36.9975 35.4 36 35.4C35.0025 35.4 34.2 34.5975 34.2 33.6ZM13.8 16.8C13.8 15.8025 12.9975 15 12 15C11.0025 15 10.2 15.8025 10.2 16.8C10.2 17.7975 11.0025 18.6 12 18.6C12.9975 18.6 13.8 17.7975 13.8 16.8ZM16.8 23.4C17.7975 23.4 18.6 22.5975 18.6 21.6C18.6 20.6025 17.7975 19.8 16.8 19.8C15.8025 19.8 15 20.6025 15 21.6C15 22.5975 15.8025 23.4 16.8 23.4Z" fill="#271332"/>
</svg>
