<svg width="48" height="48" viewBox="0 0 48 48" fill="none" xmlns="http://www.w3.org/2000/svg">
<path d="M14.4 4.80005C15.7275 4.80005 16.8 5.87255 16.8 7.20005C16.8 9.48755 19.5675 10.635 21.1875 9.01505C22.125 8.07755 23.6475 8.07755 24.585 9.01505C25.5225 9.95255 25.5225 11.475 24.585 12.4125C22.965 14.0325 24.1125 16.8 26.4 16.8C27.7275 16.8 28.8 17.8725 28.8 19.2C28.8 20.5275 27.7275 21.6 26.4 21.6C24.1125 21.6 22.965 24.3675 24.585 25.9875C25.5225 26.925 25.5225 28.4475 24.585 29.385C23.6475 30.3225 22.125 30.3225 21.1875 29.385C19.5675 27.765 16.8 28.9125 16.8 31.2001C16.8 32.5275 15.7275 33.6 14.4 33.6C13.0725 33.6 12 32.5275 12 31.2001C12 28.9125 9.2325 27.765 7.6125 29.385C6.675 30.3225 5.1525 30.3225 4.215 29.385C3.2775 28.4475 3.2775 26.925 4.215 25.9875C5.835 24.3675 4.6875 21.6 2.4 21.6C1.0725 21.6 0 20.5275 0 19.2C0 17.8725 1.0725 16.8 2.4 16.8C4.6875 16.8 5.835 14.0325 4.215 12.4125C3.2775 11.475 3.2775 9.95255 4.215 9.01505C5.1525 8.07755 6.675 8.07755 7.6125 9.01505C9.2325 10.635 12 9.48755 12 7.20005C12 5.87255 13.0725 4.80005 14.4 4.80005ZM10.8 18C12.1275 18 13.2 16.9275 13.2 15.6C13.2 14.2725 12.1275 13.2 10.8 13.2C9.4725 13.2 8.4 14.2725 8.4 15.6C8.4 16.9275 9.4725 18 10.8 18ZM20.4 22.8C20.4 21.4725 19.3275 20.4 18 20.4C16.6725 20.4 15.6 21.4725 15.6 22.8C15.6 24.1276 16.6725 25.2001 18 25.2001C19.3275 25.2001 20.4 24.1276 20.4 22.8ZM39 25.8C39 27.5175 41.0775 28.3801 42.2925 27.1651C42.9975 26.4601 44.1375 26.4601 44.835 27.1651C45.5325 27.8701 45.54 29.01 44.835 29.7076C43.62 30.9226 44.4825 33 46.2 33C47.1975 33 48 33.8025 48 34.8001C48 35.7976 47.1975 36.6 46.2 36.6C44.4825 36.6 43.62 38.6776 44.835 39.8926C45.54 40.5976 45.54 41.7375 44.835 42.4351C44.13 43.1325 42.99 43.14 42.2925 42.4351C41.0775 41.2201 39 42.0826 39 43.8C39 44.7976 38.1975 45.6001 37.2 45.6001C36.2025 45.6001 35.4 44.7976 35.4 43.8C35.4 42.0826 33.3225 41.2201 32.1075 42.4351C31.4025 43.14 30.2625 43.14 29.565 42.4351C28.8675 41.73 28.86 40.5901 29.565 39.8926C30.78 38.6776 29.9175 36.6 28.2 36.6C27.2025 36.6 26.4 35.7976 26.4 34.8001C26.4 33.8025 27.2025 33 28.2 33C29.9175 33 30.78 30.9226 29.565 29.7076C28.86 29.0026 28.86 27.8626 29.565 27.1651C30.27 26.4676 31.41 26.4601 32.1075 27.1651C33.3225 28.3801 35.4 27.5175 35.4 25.8C35.4 24.8025 36.2025 24 37.2 24C38.1975 24 39 24.8025 39 25.8ZM37.8 33.6C37.8 32.6026 36.9975 31.8001 36 31.8001C35.0025 31.8001 34.2 32.6026 34.2 33.6C34.2 34.5975 35.0025 35.4 36 35.4C36.9975 35.4 37.8 34.5975 37.8 33.6Z" fill="#271332"/>
</svg>
