<svg width="48" height="48" viewBox="0 0 48 48" fill="none" xmlns="http://www.w3.org/2000/svg">
<path d="M13.2 8.40005C13.2 6.41255 14.8125 4.80005 16.8 4.80005C18.7875 4.80005 20.4 6.41255 20.4 8.40005C20.4 10.3875 18.7875 12 16.8 12C14.8125 12 13.2 10.3875 13.2 8.40005ZM9.60003 20.5125L5.76753 27.285C5.28003 28.1475 4.17753 28.455 3.31503 27.9675C2.45253 27.48 2.14503 26.3776 2.63253 25.5151L7.02753 17.7525C8.19753 15.6825 10.395 14.4 12.7725 14.4H15.3975C17.3475 14.4 19.1925 15.2625 20.445 16.755L26.5725 24.045C27.21 24.8025 27.1125 25.9425 26.355 26.58C25.5975 27.2175 24.4575 27.1201 23.82 26.3625L19.2 20.8651V41.4001C19.2 42.3975 18.3975 43.2001 17.4 43.2001C16.4025 43.2001 15.6 42.3975 15.6 41.4001V31.2001H13.2V41.4001C13.2 42.3975 12.3975 43.2001 11.4 43.2001C10.4025 43.2001 9.60003 42.3975 9.60003 41.4001V20.5125ZM15.6 18.0076C15.5325 18 15.465 18 15.3975 18H13.2V27.6H15.6V18.0076ZM25.2 7.20005H29.4C30.06 7.20005 30.6 7.74005 30.6 8.40005C30.6 9.06005 30.06 9.60005 29.4 9.60005H25.2C24.54 9.60005 24 9.06005 24 8.40005C24 7.74005 24.54 7.20005 25.2 7.20005ZM32.4 22.8C32.4 20.8125 34.0125 19.2 36 19.2C37.9875 19.2 39.6 20.8125 39.6 22.8C39.6 24.7875 37.9875 26.4 36 26.4C34.0125 26.4 32.4 24.7875 32.4 22.8ZM41.1 27C43.5825 27 45.6 29.0175 45.6 31.5V38.7001C45.6 40.9126 44.0025 42.75 41.9025 43.125C41.745 43.1701 41.5725 43.2001 41.4 43.2001C41.3475 43.2001 41.2875 43.2001 41.235 43.2001C41.19 43.2001 41.145 43.2001 41.1 43.2001C40.6725 43.2001 40.2675 43.14 39.8775 43.035C38.4075 42.705 37.065 41.9025 36.075 40.7325L32.73 36.7801L29.7825 42.2551C29.31 43.1326 28.2225 43.4551 27.345 42.9901C26.4675 42.5251 26.145 41.43 26.61 40.5526L30.81 32.7526C31.095 32.2276 31.6125 31.8751 32.205 31.8151C32.7975 31.7551 33.3825 31.9876 33.765 32.4451L36.5925 35.7826V31.5076C36.5925 29.0251 38.61 27.0075 41.0925 27.0075L41.1 27ZM41.205 39.5926C41.655 39.5401 42 39.1576 42 38.7001V31.5C42 31.0051 41.595 30.6 41.1 30.6C40.605 30.6 40.2 31.0051 40.2 31.5V38.7001C40.2 39.09 40.4475 39.4126 40.785 39.5401C40.92 39.5625 41.0625 39.5851 41.205 39.5926ZM22.3275 12.66C22.6275 12.0675 23.3475 11.8275 23.94 12.12L27.54 13.92C28.1325 14.22 28.3725 14.9401 28.08 15.5325C27.7875 16.125 27.06 16.365 26.4675 16.0725L22.8675 14.2725C22.275 13.9725 22.035 13.2525 22.3275 12.66Z" fill="#271332"/>
</svg>
