<svg width="48" height="48" viewBox="0 0 48 48" fill="none" xmlns="http://www.w3.org/2000/svg">
<path d="M45.5999 15.0826C45.5999 14.5501 45.3599 14.0401 44.9474 13.6951C44.5349 13.3501 43.9949 13.2151 43.4624 13.3126C37.8074 14.3851 31.1474 15.0001 23.9999 15.0001C16.8524 15.0001 10.1924 14.3851 4.5299 13.3126C4.0049 13.2151 3.4574 13.3576 3.0449 13.6951C2.6324 14.0326 2.3999 14.5501 2.3999 15.0826V19.2001C2.3999 19.8676 2.7749 20.4826 3.3674 20.7976L8.0249 23.2276C13.4249 26.0476 17.4299 30.9526 19.1024 36.8101L19.8674 39.4951C20.0849 40.2676 20.7974 40.8001 21.5999 40.8001H26.3999C27.2024 40.8001 27.9074 40.2676 28.1324 39.4951L28.8974 36.8101C30.5699 30.9526 34.5749 26.0401 39.9749 23.2276L44.6324 20.7976C45.2249 20.4826 45.5999 19.8676 45.5999 19.2001V15.0826Z" fill="#271332"/>
</svg>
