<svg width="48" height="48" viewBox="0 0 48 48" fill="none" xmlns="http://www.w3.org/2000/svg">
<path d="M35.9999 21.6C35.9999 24.105 35.4524 26.4825 34.4699 28.62L43.7474 34.6125C44.9099 35.49 45.5999 36.84 45.5999 38.4C45.5999 41.0475 43.4474 43.2 40.7999 43.2C39.6599 43.2 38.6774 42.855 37.8524 42.1875L29.7599 34.6725C26.8724 37.005 23.1974 38.4 19.1999 38.4C9.9224 38.4 2.3999 30.8775 2.3999 21.6C2.3999 12.3225 9.9224 4.8 19.1999 4.8C28.4774 4.8 35.9999 12.3225 35.9999 21.6ZM26.3924 16.35C24.8024 15.945 22.5974 14.655 21.4574 13.47C19.6199 11.5575 16.5824 11.4975 14.6699 13.335C13.7999 14.175 13.3124 15.255 13.2149 16.3725C13.0499 18.225 12.5249 20.5875 11.6024 22.1925C9.9449 25.065 10.9274 28.7325 13.7999 30.39C16.6724 32.0475 20.3399 31.065 21.9974 28.1925C22.7024 26.97 24.4724 25.9425 25.8674 25.7475C26.6324 25.6425 27.3899 25.3425 28.0574 24.8475C30.1874 23.265 30.6299 20.265 29.0549 18.135C28.3724 17.2125 27.4199 16.605 26.3924 16.3425V16.35ZM41.9999 38.4C41.9999 37.74 41.4599 37.2 40.7999 37.2C40.1399 37.2 39.5999 37.74 39.5999 38.4C39.5999 39.06 40.1399 39.6 40.7999 39.6C41.4599 39.6 41.9999 39.06 41.9999 38.4ZM19.1999 18C21.1874 18 22.7999 19.6125 22.7999 21.6C22.7999 23.5875 21.1874 25.2 19.1999 25.2C17.2124 25.2 15.5999 23.5875 15.5999 21.6C15.5999 19.6125 17.2124 18 19.1999 18Z" fill="#271332"/>
</svg>
