<svg width="48" height="48" viewBox="0 0 48 48" fill="none" xmlns="http://www.w3.org/2000/svg">
<path d="M7.04274 10.9425C7.83024 8.7 9.94524 7.2 12.3227 7.2H35.7377C38.1152 7.2 40.2302 8.7 41.0177 10.9425L42.3977 14.8875C43.2227 17.25 42.4727 19.68 40.8302 21.2175V35.4075C40.8302 38.3925 38.4152 40.8075 35.4302 40.8075H12.6302C9.64524 40.8075 7.23024 38.3925 7.23024 35.4075V21.2175C5.58774 19.68 4.83774 17.25 5.66274 14.8875L7.04274 10.9425ZM10.8302 22.785V28.8H37.2302V22.785C37.0802 22.7925 36.9377 22.8 36.7877 22.8C35.1527 22.8 33.6527 22.1325 32.5727 21.0525C31.4777 22.1325 29.9777 22.8 28.3052 22.8C26.6402 22.8 25.1252 22.125 24.0302 21.0375C22.9352 22.125 21.4202 22.8 19.7552 22.8C18.0827 22.8 16.5827 22.1325 15.4877 21.0525C14.4077 22.14 12.9152 22.8 11.2727 22.8C11.1227 22.8 10.9727 22.7925 10.8227 22.785H10.8302ZM17.8577 10.8L17.2877 16.4775C17.1452 17.9325 18.2852 19.2 19.7477 19.2C21.1127 19.2 22.2227 18.09 22.2227 16.725V10.8H17.8502H17.8577ZM25.8302 16.725C25.8302 18.09 26.9402 19.2 28.3052 19.2C29.7677 19.2 30.9152 17.9325 30.7652 16.4775L30.1952 10.8H25.8227V16.725H25.8302ZM34.4477 17.085C34.5677 18.285 35.5802 19.2 36.7802 19.2C38.4002 19.2 39.5327 17.6025 38.9927 16.08L37.6202 12.135C37.3427 11.3325 36.5852 10.8 35.7377 10.8H33.8177L34.4477 17.085ZM11.2802 19.2C12.4877 19.2 13.4927 18.285 13.6127 17.085L14.2427 10.8H12.3227C11.4752 10.8 10.7252 11.3325 10.4402 12.135L9.06024 16.08C8.52774 17.61 9.66024 19.2 11.2727 19.2H11.2802ZM10.8302 35.4C10.8302 36.3975 11.6327 37.2 12.6302 37.2H35.4302C36.4277 37.2 37.2302 36.3975 37.2302 35.4V32.4H10.8302V35.4Z" fill="#271332"/>
</svg>
