<svg width="48" height="48" viewBox="0 0 48 48" fill="none" xmlns="http://www.w3.org/2000/svg">
<path d="M7.10249 10.2225C7.61999 8.43 9.26249 7.2 11.13 7.2H36.93C38.7975 7.2 40.44 8.43 40.965 10.2225L42.72 16.2375C43.68 19.515 41.2125 22.8 37.8 22.8C35.8275 22.8 34.095 21.6825 33.24 20.0175C32.37 21.66 30.645 22.8 28.635 22.8C26.64 22.8 24.9075 21.675 24.0375 20.025C23.1675 21.675 21.435 22.8 19.44 22.8C17.43 22.8 15.705 21.6675 14.835 20.0175C13.98 21.675 12.2475 22.8 10.275 22.8C6.85499 22.8 4.39499 19.5225 5.35499 16.2375L7.10249 10.2225ZM12.03 31.2H36.03V26.22C36.6 26.34 37.1925 26.4 37.7925 26.4C38.865 26.4 39.8925 26.205 40.83 25.86V37.2C40.83 39.1875 39.2175 40.8 37.23 40.8H10.83C8.84249 40.8 7.22999 39.1875 7.22999 37.2V25.86C8.16749 26.205 9.18749 26.4 10.2675 26.4C10.875 26.4 11.46 26.34 12.03 26.22V31.2Z" fill="#271332"/>
</svg>
