<svg width="48" height="48" viewBox="0 0 48 48" fill="none" xmlns="http://www.w3.org/2000/svg">
<path d="M19.1999 14.4C19.1999 11.7525 21.3524 9.60001 23.9999 9.60001C26.6474 9.60001 28.7999 11.7525 28.7999 14.4C28.7999 17.0475 26.6474 19.2 23.9999 19.2C21.3524 19.2 19.1999 17.0475 19.1999 14.4ZM15.5999 30C15.5999 25.3575 19.3574 21.6 23.9999 21.6C28.6424 21.6 32.3999 25.3575 32.3999 30V30.6C32.3999 31.5975 31.5974 32.4 30.5999 32.4H17.3999C16.4024 32.4 15.5999 31.5975 15.5999 30.6V30ZM31.7999 15.6C31.7999 13.2825 33.6824 11.4 35.9999 11.4C38.3174 11.4 40.1999 13.2825 40.1999 15.6C40.1999 17.9175 38.3174 19.8 35.9999 19.8C33.6824 19.8 31.7999 17.9175 31.7999 15.6ZM33.8399 23.13C34.5224 22.9125 35.2499 22.8 35.9999 22.8C39.9749 22.8 43.1999 26.025 43.1999 30V30.8025C43.1999 31.6875 42.4799 32.4 41.6024 32.4H35.6924C35.8949 31.8375 35.9999 31.23 35.9999 30.6V30C35.9999 27.4425 35.2049 25.0725 33.8399 23.13ZM14.1599 23.13C12.7949 25.08 11.9999 27.4425 11.9999 30V30.6C11.9999 31.23 12.1049 31.8375 12.3074 32.4H6.3974C5.5199 32.4 4.7999 31.68 4.7999 30.8025V30C4.7999 26.025 8.0249 22.8 11.9999 22.8C12.7499 22.8 13.4774 22.9125 14.1599 23.13ZM7.7999 15.6C7.7999 13.2825 9.6824 11.4 11.9999 11.4C14.3174 11.4 16.1999 13.2825 16.1999 15.6C16.1999 17.9175 14.3174 19.8 11.9999 19.8C9.6824 19.8 7.7999 17.9175 7.7999 15.6ZM2.3999 37.8C2.3999 36.8025 3.2024 36 4.1999 36H43.7999C44.7974 36 45.5999 36.8025 45.5999 37.8C45.5999 38.7975 44.7974 39.6 43.7999 39.6H4.1999C3.2024 39.6 2.3999 38.7975 2.3999 37.8Z" fill="#271332"/>
</svg>
