<svg width="48" height="48" viewBox="0 0 48 48" fill="none" xmlns="http://www.w3.org/2000/svg">
<path d="M31.2001 8.4C33.1876 8.4 34.8001 10.0125 34.8001 12V16.8H31.2001V13.8C31.2001 12.8025 30.3976 12 29.4001 12C28.4026 12 27.6001 12.8025 27.6001 13.8V16.8H13.2001V12C13.2001 10.0125 14.8126 8.4 16.8001 8.4H31.2001ZM27.6001 20.4V29.4C27.6001 30.3975 28.4026 31.2 29.4001 31.2C30.3976 31.2 31.2001 30.3975 31.2001 29.4V20.4H34.8001V38.4C34.8001 39.06 34.2601 39.6 33.6001 39.6H14.4001C13.7401 39.6 13.2001 39.06 13.2001 38.4V20.4H27.6001ZM16.8001 4.8C12.8251 4.8 9.6001 8.025 9.6001 12V38.4C9.6001 41.0475 11.7526 43.2 14.4001 43.2H33.6001C36.2476 43.2 38.4001 41.0475 38.4001 38.4V12C38.4001 8.025 35.1751 4.8 31.2001 4.8H16.8001Z" fill="#271332"/>
</svg>
