<svg width="48" height="48" viewBox="0 0 48 48" fill="none" xmlns="http://www.w3.org/2000/svg">
<path d="M36.0973 31.8075L30.7273 31.4475C30.3373 31.425 29.9548 31.53 29.6398 31.7625C29.3248 31.995 29.0998 32.3175 29.0098 32.7L27.6898 37.92C26.5123 38.235 25.2748 38.4 23.9998 38.4C22.7248 38.4 21.4873 38.235 20.3098 37.92L18.9898 32.7C18.8923 32.325 18.6673 31.995 18.3598 31.7625C18.0523 31.53 17.6623 31.425 17.2723 31.4475L11.9023 31.8075C10.5823 29.7675 9.76481 27.3675 9.6223 24.7875L14.1748 21.9225C14.5048 21.7125 14.7448 21.3975 14.8648 21.03C14.9848 20.6625 14.9698 20.265 14.8273 19.905L12.8248 14.91C14.3998 12.99 16.4473 11.475 18.8023 10.5675L22.9423 14.0175C23.2423 14.265 23.6173 14.4 23.9998 14.4C24.3823 14.4 24.7648 14.265 25.0573 14.0175L29.1973 10.5675C31.5448 11.475 33.5998 12.99 35.1673 14.91L33.1648 19.905C33.0223 20.265 33.0073 20.6625 33.1273 21.03C33.2473 21.3975 33.4948 21.7125 33.8173 21.9225L38.3698 24.7875C38.2273 27.3675 37.4098 29.7675 36.0898 31.8075H36.0973ZM23.9998 43.2C34.6048 43.2 43.1998 34.605 43.1998 24C43.1998 13.395 34.6048 4.8 23.9998 4.8C13.3948 4.8 4.7998 13.395 4.7998 24C4.7998 34.605 13.3948 43.2 23.9998 43.2ZM25.0573 18.7725C24.4273 18.315 23.5723 18.315 22.9423 18.7725L19.3498 21.375C18.7198 21.8325 18.4573 22.6425 18.6973 23.385L20.0698 27.6075C20.3098 28.35 20.9998 28.8525 21.7798 28.8525H26.2198C26.9998 28.8525 27.6898 28.35 27.9298 27.6075L29.3023 23.385C29.5423 22.6425 29.2798 21.8325 28.6498 21.375L25.0573 18.765V18.7725Z" fill="#271332"/>
</svg>
