<svg width="48" height="48" viewBox="0 0 48 48" fill="none" xmlns="http://www.w3.org/2000/svg">
<path d="M5.47515 2.93256C4.77015 2.22756 3.63015 2.22756 2.93265 2.93256C2.23515 3.63756 2.22765 4.77756 2.92515 5.48256L42.5252 45.0826C43.2302 45.7876 44.3702 45.7876 45.0677 45.0826C45.7652 44.3776 45.7727 43.2376 45.0677 42.5401L38.4227 35.8951C38.5502 34.9876 38.2727 34.0351 37.5752 33.3451C35.2352 31.0051 36.8927 27.0076 40.2002 27.0076C41.8577 27.0076 43.2002 25.6651 43.2002 24.0076C43.2002 22.3501 41.8577 21.0076 40.2002 21.0076C36.8927 21.0076 35.2427 17.0101 37.5752 14.6701C38.7452 13.5001 38.7452 11.6026 37.5752 10.4251C36.4052 9.24756 34.5077 9.25506 33.3302 10.4251C30.9902 12.7651 26.9927 11.1076 26.9927 7.80006C26.9927 6.14256 25.6502 4.80006 23.9927 4.80006C22.3352 4.80006 20.9927 6.14256 20.9927 7.80006C20.9927 11.1076 16.9952 12.7576 14.6552 10.4251C13.9577 9.72756 13.0052 9.45006 12.1052 9.57756L5.47515 2.93256ZM7.80015 21.0001C6.14265 21.0001 4.80015 22.3426 4.80015 24.0001C4.80015 25.6576 6.14265 27.0001 7.80015 27.0001C11.1077 27.0001 12.7577 30.9976 10.4252 33.3376C9.25515 34.5076 9.25515 36.4051 10.4252 37.5826C11.5952 38.7601 13.4927 38.7526 14.6702 37.5826C17.0102 35.2426 21.0077 36.9001 21.0077 40.2076C21.0077 41.8651 22.3502 43.2076 24.0077 43.2076C25.6652 43.2076 27.0077 41.8651 27.0077 40.2076C27.0077 38.6026 27.9527 37.3876 29.1902 36.8251L11.1902 18.8251C10.6202 20.0551 9.40515 21.0001 7.80015 21.0001Z" fill="#271332"/>
</svg>
