<svg width="48" height="48" viewBox="0 0 48 48" fill="none" xmlns="http://www.w3.org/2000/svg">
<path d="M38.3998 10.8H9.5998C8.93981 10.8 8.3998 11.34 8.3998 12V16.1025C9.1348 15.78 9.94481 15.6 10.7998 15.6C11.9998 15.6 13.1173 15.9525 14.0548 16.56C15.3598 15.225 17.1823 14.4 19.1998 14.4C21.0448 14.4 22.7248 15.09 23.9998 16.2299C25.2748 15.09 26.9548 14.4 28.7998 14.4C30.8173 14.4 32.6323 15.225 33.9448 16.56C34.8823 15.9525 35.9998 15.6 37.1998 15.6C38.0548 15.6 38.8648 15.78 39.5998 16.1025V12C39.5998 11.34 39.0598 10.8 38.3998 10.8ZM8.3998 22.4025C8.3998 23.2875 9.11981 24 9.9973 24H11.5948C11.8273 24 12.0523 23.9475 12.2548 23.8575C12.8098 23.61 13.1923 23.0475 13.1923 22.4025V21.6C13.1923 20.82 12.8248 20.13 12.2473 19.695C11.8423 19.3875 11.3398 19.2 10.7923 19.2C9.4648 19.2 8.3923 20.2725 8.3923 21.6V22.4025H8.3998ZM4.7998 28.5V12C4.7998 9.35245 6.9523 7.19995 9.5998 7.19995H38.3998C41.0473 7.19995 43.1998 9.35245 43.1998 12V36C43.1998 38.6474 41.0473 40.7999 38.3998 40.7999H9.5998C6.9523 40.7999 4.7998 38.6474 4.7998 36V28.5ZM8.3998 34.2974V36C8.3998 36.66 8.93981 37.1999 9.5998 37.1999H38.3998C39.0598 37.1999 39.5998 36.66 39.5998 36V34.2974C38.8648 34.6199 38.0548 34.7999 37.1998 34.7999C35.9998 34.7999 34.8823 34.4475 33.9448 33.84C32.6398 35.1749 30.8173 36 28.7998 36C26.9548 36 25.2748 35.3099 23.9998 34.17C22.7248 35.3099 21.0448 36 19.1998 36C17.1823 36 15.3673 35.1749 14.0548 33.84C13.1173 34.4475 11.9998 34.7999 10.7998 34.7999C9.94481 34.7999 9.1348 34.6199 8.3998 34.2974ZM39.5998 28.7999V28.5C39.5998 28.0049 39.1948 27.6 38.6998 27.6H35.6998C35.2048 27.6 34.7998 28.0049 34.7998 28.5V28.7999C34.7998 29.5574 35.1523 30.2325 35.6998 30.6749L35.7448 30.7125C35.9623 30.8774 36.2098 31.0049 36.4723 31.0949C36.7048 31.17 36.9448 31.2075 37.1998 31.2075C37.4548 31.2075 37.6948 31.17 37.9273 31.0949C38.2123 31.0049 38.4748 30.8624 38.6998 30.6824C39.2473 30.24 39.5998 29.565 39.5998 28.8075V28.7999ZM30.5998 27.6H26.3998C26.3473 27.6 26.3023 27.6 26.2498 27.6075C25.6573 27.6825 25.1998 28.1849 25.1998 28.7999C25.1998 29.67 25.5073 30.4725 26.0248 31.0949C26.6848 31.8899 27.6823 32.4 28.7998 32.4C29.9473 32.4 30.9673 31.8675 31.6273 31.0275C32.1148 30.4125 32.3998 29.6399 32.3998 28.7999C32.3998 28.695 32.3848 28.5975 32.3623 28.5C32.2348 28.0124 31.8073 27.645 31.2898 27.6C31.2598 27.6 31.2298 27.6 31.1998 27.6H30.5998ZM20.9998 27.6H16.7998C16.7698 27.6 16.7398 27.6 16.7098 27.6C16.1923 27.6374 15.7648 28.0049 15.6373 28.5C15.6148 28.5975 15.5998 28.695 15.5998 28.7999C15.5998 29.6399 15.8848 30.4125 16.3723 31.0275C17.0323 31.86 18.0523 32.4 19.1998 32.4C20.3173 32.4 21.3148 31.8899 21.9748 31.0949C22.4923 30.4725 22.7998 29.67 22.7998 28.7999C22.7998 28.1849 22.3423 27.6825 21.7498 27.6075C21.6973 27.6 21.6523 27.6 21.5998 27.6H20.9998ZM11.6023 27.6H9.2998C8.8048 27.6 8.3998 28.0049 8.3998 28.5V28.7999C8.3998 29.5574 8.7523 30.2325 9.2998 30.6749C9.52481 30.8549 9.78731 30.9974 10.0723 31.0875C10.3048 31.1624 10.5448 31.1999 10.7998 31.1999C11.0548 31.1999 11.2948 31.1624 11.5273 31.0875C11.7898 31.0049 12.0373 30.8699 12.2548 30.7049L12.2998 30.6674C12.8473 30.2249 13.1998 29.5499 13.1998 28.7924V28.4924C13.1998 27.9974 12.7948 27.5924 12.2998 27.5924H11.6023V27.6ZM38.0023 24C38.8873 24 39.5998 23.28 39.5998 22.4025V21.6C39.5998 20.2725 38.5273 19.2 37.1998 19.2C36.6523 19.2 36.1498 19.38 35.7448 19.695C35.1673 20.13 34.7998 20.8275 34.7998 21.6V22.4025C34.7998 23.0475 35.1823 23.61 35.7373 23.8575C35.9398 23.9475 36.1648 24 36.3973 24H37.9948H38.0023ZM30.5998 24C30.8848 24 31.1548 23.9324 31.3948 23.8125C31.9348 23.5499 32.3173 23.0175 32.3923 22.395C32.3998 22.3275 32.3998 22.2599 32.3998 22.1924V21.5925C32.3998 20.7524 32.1148 19.98 31.6273 19.365C30.9673 18.5325 29.9473 17.9924 28.7998 17.9924C27.6823 17.9924 26.6848 18.5024 26.0248 19.2974C25.5073 19.9199 25.1998 20.7225 25.1998 21.5925V22.1924C25.1998 22.8825 25.5898 23.4825 26.1598 23.7824C26.4073 23.9174 26.6923 23.9924 26.9998 23.9924H30.5998V24ZM20.9998 24C21.2998 24 21.5848 23.925 21.8398 23.79C22.4098 23.49 22.7998 22.8899 22.7998 22.2V21.6C22.7998 20.7299 22.4923 19.9275 21.9748 19.3049C21.3148 18.5099 20.3173 18 19.1998 18C18.0523 18 17.0323 18.5324 16.3723 19.3724C15.8848 19.9874 15.5998 20.76 15.5998 21.6V22.2C15.5998 22.2675 15.5998 22.335 15.6073 22.4025C15.6748 23.025 16.0648 23.55 16.6048 23.82C16.8448 23.94 17.1148 24.0075 17.3998 24.0075H20.9998V24Z" fill="#271332"/>
</svg>
