<svg width="48" height="48" viewBox="0 0 48 48" fill="none" xmlns="http://www.w3.org/2000/svg">
<path d="M23.9998 4.80005C26.6473 4.80005 28.7998 6.95255 28.7998 9.60005C28.7998 12.2475 26.6473 14.4 23.9998 14.4C21.3523 14.4 19.1998 12.2475 19.1998 9.60005C19.1998 6.95255 21.3523 4.80005 23.9998 4.80005ZM7.7998 11.4C7.7998 9.08255 9.6823 7.20005 11.9998 7.20005C14.3173 7.20005 16.1998 9.08255 16.1998 11.4C16.1998 13.7175 14.3173 15.6 11.9998 15.6C9.6823 15.6 7.7998 13.7175 7.7998 11.4ZM12.5323 22.8451C10.1923 23.1675 8.3998 25.1775 8.3998 27.6C8.3998 29.0926 9.07481 30.42 10.1473 31.305C10.5598 31.65 10.7998 32.1525 10.7998 32.6925V39C10.7998 39.9976 9.9973 40.8 8.9998 40.8C8.0023 40.8 7.1998 39.9976 7.1998 39V33.48C5.7148 31.965 4.7998 29.8876 4.7998 27.6C4.7998 22.9576 8.5573 19.2 13.1998 19.2C13.5898 19.2 13.9648 19.2225 14.3398 19.275C13.5523 20.34 12.9373 21.5476 12.5323 22.8451ZM35.4598 22.8451C35.0548 21.5476 34.4398 20.3475 33.6523 19.275C34.0273 19.2225 34.4098 19.2 34.7923 19.2C39.4348 19.2 43.1923 22.9576 43.1923 27.6C43.1923 29.8876 42.2773 31.965 40.7923 33.48V39C40.7923 39.9976 39.9898 40.8 38.9923 40.8C37.9948 40.8 37.1923 39.9976 37.1923 39V32.6925C37.1923 32.1525 37.4323 31.65 37.8448 31.305C38.9173 30.42 39.5923 29.0926 39.5923 27.6C39.5923 25.1775 37.7923 23.1675 35.4598 22.8451ZM40.1998 11.4C40.1998 13.7175 38.3173 15.6 35.9998 15.6C33.6823 15.6 31.7998 13.7175 31.7998 11.4C31.7998 9.08255 33.6823 7.20005 35.9998 7.20005C38.3173 7.20005 40.1998 9.08255 40.1998 11.4ZM23.9998 21.6C21.3523 21.6 19.1998 23.7526 19.1998 26.4V27.6C19.1998 29.0926 19.8748 30.42 20.9473 31.305C21.3598 31.65 21.5998 32.1525 21.5998 32.6925V39C21.5998 39.3301 21.8698 39.6001 22.1998 39.6001H25.7998C26.1298 39.6001 26.3998 39.3301 26.3998 39V32.6925C26.3998 32.1525 26.6398 31.65 27.0523 31.305C28.1248 30.42 28.7998 29.0926 28.7998 27.6V26.4C28.7998 23.7526 26.6473 21.6 23.9998 21.6ZM15.5998 26.4C15.5998 21.7575 19.3573 18 23.9998 18C28.6423 18 32.3998 21.7575 32.3998 26.4V27.6C32.3998 29.8876 31.4848 31.965 29.9998 33.48V39C29.9998 41.3176 28.1173 43.2001 25.7998 43.2001H22.1998C19.8823 43.2001 17.9998 41.3176 17.9998 39V33.48C16.5148 31.965 15.5998 29.8876 15.5998 27.6V26.4Z" fill="#271332"/>
</svg>
