<svg width="48" height="48" viewBox="0 0 48 48" fill="none" xmlns="http://www.w3.org/2000/svg">
<path d="M23.9998 4.80005C26.6473 4.80005 28.7998 6.95255 28.7998 9.60005C28.7998 12.2475 26.6473 14.4 23.9998 14.4C21.3523 14.4 19.1998 12.2475 19.1998 9.60005C19.1998 6.95255 21.3523 4.80005 23.9998 4.80005ZM31.1998 28.2001C31.1998 30.0751 30.2473 31.725 28.7998 32.6925V39.6001C28.7998 41.5876 27.1873 43.2001 25.1998 43.2001H22.7998C20.8123 43.2001 19.1998 41.5876 19.1998 39.6001V32.6925C17.7523 31.725 16.7998 30.0751 16.7998 28.2001V25.2001C16.7998 21.225 20.0248 18 23.9998 18C27.9748 18 31.1998 21.225 31.1998 25.2001V28.2001ZM11.9998 7.20005C14.3173 7.20005 16.1998 9.08255 16.1998 11.4C16.1998 13.7175 14.3173 15.6 11.9998 15.6C9.6823 15.6 7.7998 13.7175 7.7998 11.4C7.7998 9.08255 9.6823 7.20005 11.9998 7.20005ZM13.1998 25.2001V27.6C13.1998 30.0375 14.1073 32.2576 15.5998 33.9526V39.6001C15.5998 39.6901 15.5998 39.7876 15.6073 39.8776C14.9698 40.4476 14.1298 40.8 13.1998 40.8H10.7998C8.8123 40.8 7.1998 39.1875 7.1998 37.2001V32.955C5.7673 32.13 4.7998 30.5775 4.7998 28.8V26.4C4.7998 22.425 8.0248 19.2 11.9998 19.2C12.9523 19.2 13.8598 19.3875 14.6923 19.7175C13.7473 21.3225 13.1998 23.1975 13.1998 25.2001ZM32.3998 39.6001V33.9526C33.8923 32.2651 34.7998 30.0375 34.7998 27.6V25.2001C34.7998 23.1975 34.2523 21.33 33.3073 19.7175C34.1398 19.38 35.0473 19.2 35.9998 19.2C39.9748 19.2 43.1998 22.425 43.1998 26.4V28.8C43.1998 30.5775 42.2323 32.13 40.7998 32.955V37.2001C40.7998 39.1875 39.1873 40.8 37.1998 40.8H34.7998C33.8773 40.8 33.0298 40.4551 32.3923 39.8776C32.3923 39.7876 32.3998 39.6901 32.3998 39.6001ZM35.9998 7.20005C38.3173 7.20005 40.1998 9.08255 40.1998 11.4C40.1998 13.7175 38.3173 15.6 35.9998 15.6C33.6823 15.6 31.7998 13.7175 31.7998 11.4C31.7998 9.08255 33.6823 7.20005 35.9998 7.20005Z" fill="#271332"/>
</svg>
