<svg width="48" height="48" viewBox="0 0 48 48" fill="none" xmlns="http://www.w3.org/2000/svg">
<path d="M16.8149 6.67498C16.2224 5.25748 14.6774 4.50748 13.2074 4.90498L12.7949 5.01748C7.94989 6.33748 3.80989 11.0325 5.01739 16.7475C7.79989 29.8725 18.1274 40.2 31.2524 42.9825C36.9749 44.1975 41.6624 40.05 42.9824 35.205L43.0949 34.7925C43.4999 33.315 42.7424 31.77 41.3324 31.185L34.0349 28.1475C32.7974 27.63 31.3649 27.99 30.5099 29.0325L27.6149 32.5725C22.3424 29.955 18.0974 25.575 15.6599 20.1975L18.9749 17.4975C20.0174 16.65 20.3699 15.2175 19.8599 13.9725L16.8149 6.67498Z" fill="#271332"/>
</svg>
