<svg width="48" height="48" viewBox="0 0 48 48" fill="none" xmlns="http://www.w3.org/2000/svg">
<path d="M34.5227 34.3725C36.5327 33.975 38.4002 35.505 38.4002 37.5525C38.4002 39.345 36.9452 40.8 35.1527 40.8H12.8402C11.0477 40.8 9.6002 39.345 9.6002 37.5525C9.6002 35.505 11.4752 33.9675 13.4777 34.3725L24.0002 36.4725L34.5227 34.3725ZM24.0002 18C26.9927 18 29.8352 19.3275 31.7477 21.63L34.7252 25.2H38.4002C39.7277 25.2 40.8002 26.2725 40.8002 27.6C40.8002 28.9275 39.7277 30 38.4002 30H33.6002C32.8877 30 32.2127 29.685 31.7552 29.1375L30.0002 27.03V32.22L24.0002 33.42L18.0002 32.22V27.03L16.2452 29.1375C15.7877 29.685 15.1127 30 14.4002 30H9.6002C8.2727 30 7.2002 28.9275 7.2002 27.6C7.2002 26.2725 8.2727 25.2 9.6002 25.2H13.2752L16.2527 21.63L16.6202 21.21C18.5252 19.17 21.1952 18 24.0002 18ZM24.0002 14.4C21.6827 14.4 19.8002 12.5175 19.8002 10.2C19.8002 7.8825 21.6827 6 24.0002 6C26.3177 6 28.2002 7.8825 28.2002 10.2C28.2002 12.5175 26.3177 14.4 24.0002 14.4Z" fill="#271332"/>
</svg>
