<svg width="64" height="64" viewBox="0 0 64 64" fill="none" xmlns="http://www.w3.org/2000/svg">
<path d="M25.5999 12V16H38.3999V12C38.3999 11.56 38.0399 11.2 37.5999 11.2H26.3999C25.9599 11.2 25.5999 11.56 25.5999 12ZM20.7999 16V12C20.7999 8.91002 23.3099 6.40002 26.3999 6.40002H37.5999C40.6899 6.40002 43.1999 8.91002 43.1999 12V16H51.1999C54.7299 16 57.5999 18.87 57.5999 22.4V48C57.5999 51.53 54.7299 54.4 51.1999 54.4H12.7999C9.2699 54.4 6.3999 51.53 6.3999 48V22.4C6.3999 18.87 9.2699 16 12.7999 16H20.7999Z" fill="#271332"/>
</svg>
