<svg width="48" height="48" viewBox="0 0 48 48" fill="none" xmlns="http://www.w3.org/2000/svg">
<path d="M33.6002 8.3998C35.5877 8.3998 37.2002 10.0123 37.2002 11.9998H10.8002C10.8002 10.0123 12.4127 8.3998 14.4002 8.3998H33.6002ZM10.8002 20.3998V15.5998H22.2002V20.3998H10.8002ZM25.8002 20.3998V15.5998H37.2002V20.3998H25.8002ZM10.8002 23.9998H37.2002V33.5998C37.2002 34.2598 36.6602 34.7998 36.0002 34.7998H12.0002C11.3402 34.7998 10.8002 34.2598 10.8002 33.5998V23.9998ZM7.2002 20.3998V33.5998C7.2002 35.8348 8.7302 37.7173 10.8002 38.2498V41.3998C10.8002 42.3973 11.6027 43.1998 12.6002 43.1998C13.5977 43.1998 14.4002 42.3973 14.4002 41.3998V38.3998H33.6002V41.3998C33.6002 42.3973 34.4027 43.1998 35.4002 43.1998C36.3977 43.1998 37.2002 42.3973 37.2002 41.3998V38.2498C39.2702 37.7173 40.8002 35.8348 40.8002 33.5998V11.9998C40.8002 8.0248 37.5752 4.7998 33.6002 4.7998H14.4002C10.4252 4.7998 7.2002 8.0248 7.2002 11.9998V20.3998ZM19.2002 28.7998C19.2002 27.4723 18.1277 26.3998 16.8002 26.3998C15.4727 26.3998 14.4002 27.4723 14.4002 28.7998C14.4002 30.1273 15.4727 31.1998 16.8002 31.1998C18.1277 31.1998 19.2002 30.1273 19.2002 28.7998ZM31.2002 31.1998C32.5277 31.1998 33.6002 30.1273 33.6002 28.7998C33.6002 27.4723 32.5277 26.3998 31.2002 26.3998C29.8727 26.3998 28.8002 27.4723 28.8002 28.7998C28.8002 30.1273 29.8727 31.1998 31.2002 31.1998Z" fill="#271332"/>
</svg>
