<svg width="48" height="48" viewBox="0 0 48 48" fill="none" xmlns="http://www.w3.org/2000/svg">
<path d="M22.8824 5.78998C23.5349 5.27248 24.4574 5.27248 25.1099 5.78998L36.0224 14.4H40.7999C43.4474 14.4 45.5999 16.5525 45.5999 19.2V38.4C45.5999 41.0475 43.4474 43.2 40.7999 43.2H7.1999C4.5524 43.2 2.3999 41.0475 2.3999 38.4V19.2C2.3999 16.5525 4.5524 14.4 7.1999 14.4H11.9774L22.8899 5.78998H22.8824ZM23.9999 9.49498L13.7174 17.61C13.4024 17.8575 13.0049 18 12.5999 18H7.1999C6.5399 18 5.9999 18.54 5.9999 19.2V38.4C5.9999 39.06 6.5399 39.6 7.1999 39.6H19.1999V33.6C19.1999 31.6125 20.8124 30 22.7999 30H25.1999C27.1874 30 28.7999 31.6125 28.7999 33.6V39.6H40.7999C41.4599 39.6 41.9999 39.06 41.9999 38.4V19.2C41.9999 18.54 41.4599 18 40.7999 18H35.3999C34.9949 18 34.6049 17.865 34.2824 17.61L23.9999 9.49498ZM13.1999 36H10.7999C10.1399 36 9.5999 35.46 9.5999 34.8V32.4C9.5999 31.74 10.1399 31.2 10.7999 31.2H13.1999C13.8599 31.2 14.3999 31.74 14.3999 32.4V34.8C14.3999 35.46 13.8599 36 13.1999 36ZM14.3999 25.2C14.3999 25.86 13.8599 26.4 13.1999 26.4H10.7999C10.1399 26.4 9.5999 25.86 9.5999 25.2V22.8C9.5999 22.14 10.1399 21.6 10.7999 21.6H13.1999C13.8599 21.6 14.3999 22.14 14.3999 22.8V25.2ZM37.1999 36H34.7999C34.1399 36 33.5999 35.46 33.5999 34.8V32.4C33.5999 31.74 34.1399 31.2 34.7999 31.2H37.1999C37.8599 31.2 38.3999 31.74 38.3999 32.4V34.8C38.3999 35.46 37.8599 36 37.1999 36ZM38.3999 25.2C38.3999 25.86 37.8599 26.4 37.1999 26.4H34.7999C34.1399 26.4 33.5999 25.86 33.5999 25.2V22.8C33.5999 22.14 34.1399 21.6 34.7999 21.6H37.1999C37.8599 21.6 38.3999 22.14 38.3999 22.8V25.2ZM23.9999 14.4C26.6474 14.4 28.7999 16.5525 28.7999 19.2C28.7999 21.8475 26.6474 24 23.9999 24C21.3524 24 19.1999 21.8475 19.1999 19.2C19.1999 16.5525 21.3524 14.4 23.9999 14.4Z" fill="#271332"/>
</svg>
