<svg width="48" height="48" viewBox="0 0 48 48" fill="none" xmlns="http://www.w3.org/2000/svg">
<path d="M2.3999 19.2C2.3999 16.5525 4.5524 14.4 7.1999 14.4H11.9999L21.5924 5.76747C22.9649 4.53747 25.0424 4.53747 26.4074 5.76747L35.9999 14.4H40.7999C43.4474 14.4 45.5999 16.5525 45.5999 19.2V38.4C45.5999 41.0475 43.4474 43.2 40.7999 43.2H7.1999C4.5524 43.2 2.3999 41.0475 2.3999 38.4V19.2ZM19.1999 33V39.6H28.7999V33C28.7999 31.3425 27.4574 30 25.7999 30H22.1999C20.5424 30 19.1999 31.3425 19.1999 33ZM10.7999 33.6C11.4599 33.6 11.9999 33.06 11.9999 32.4V30C11.9999 29.34 11.4599 28.8 10.7999 28.8H8.3999C7.7399 28.8 7.1999 29.34 7.1999 30V32.4C7.1999 33.06 7.7399 33.6 8.3999 33.6H10.7999ZM11.9999 22.8V20.4C11.9999 19.74 11.4599 19.2 10.7999 19.2H8.3999C7.7399 19.2 7.1999 19.74 7.1999 20.4V22.8C7.1999 23.46 7.7399 24 8.3999 24H10.7999C11.4599 24 11.9999 23.46 11.9999 22.8ZM39.5999 33.6C40.2599 33.6 40.7999 33.06 40.7999 32.4V30C40.7999 29.34 40.2599 28.8 39.5999 28.8H37.1999C36.5399 28.8 35.9999 29.34 35.9999 30V32.4C35.9999 33.06 36.5399 33.6 37.1999 33.6H39.5999ZM40.7999 22.8V20.4C40.7999 19.74 40.2599 19.2 39.5999 19.2H37.1999C36.5399 19.2 35.9999 19.74 35.9999 20.4V22.8C35.9999 23.46 36.5399 24 37.1999 24H39.5999C40.2599 24 40.7999 23.46 40.7999 22.8ZM23.9999 24C26.6474 24 28.7999 21.8475 28.7999 19.2C28.7999 16.5525 26.6474 14.4 23.9999 14.4C21.3524 14.4 19.1999 16.5525 19.1999 19.2C19.1999 21.8475 21.3524 24 23.9999 24Z" fill="#271332"/>
</svg>
