<svg width="48" height="48" viewBox="0 0 48 48" fill="none" xmlns="http://www.w3.org/2000/svg">
<path d="M34.8001 8.40005V12H13.2001V8.40005H34.8001ZM9.6001 12C9.6001 13.5675 10.6051 14.9025 12.0001 15.3975V38.4001C12.0001 41.0476 14.1526 43.2001 16.8001 43.2001H31.2001C33.8476 43.2001 36.0001 41.0476 36.0001 38.4001V15.3975C37.3951 14.9025 38.4001 13.5675 38.4001 12V8.40005C38.4001 6.41255 36.7876 4.80005 34.8001 4.80005H13.2001C11.2126 4.80005 9.6001 6.41255 9.6001 8.40005V12ZM15.6001 19.2V15.6H32.4001V38.4001C32.4001 39.0601 31.8601 39.6001 31.2001 39.6001H16.8001C16.1401 39.6001 15.6001 39.0601 15.6001 38.4001V37.2001H19.8001C20.7976 37.2001 21.6001 36.3976 21.6001 35.4C21.6001 34.4025 20.7976 33.6 19.8001 33.6H15.6001V30H19.8001C20.7976 30 21.6001 29.1975 21.6001 28.2001C21.6001 27.2025 20.7976 26.4 19.8001 26.4H15.6001V22.8H19.8001C20.7976 22.8 21.6001 21.9975 21.6001 21C21.6001 20.0025 20.7976 19.2 19.8001 19.2H15.6001Z" fill="#271332"/>
</svg>
