<svg width="48" height="48" viewBox="0 0 48 48" fill="none" xmlns="http://www.w3.org/2000/svg">
<path d="M39.7127 3.52509C39.0077 2.82009 37.8677 2.82009 37.1702 3.52509C36.4727 4.23009 36.4652 5.37009 37.1702 6.06759L38.2952 7.19259L34.8377 10.6501L30.1127 5.92509C29.4077 5.22009 28.2677 5.22009 27.5702 5.92509C26.8727 6.63009 26.8652 7.77009 27.5702 8.46759L28.0952 8.99259C19.1102 17.9776 11.4602 25.6276 10.8677 26.2201C10.0802 27.0076 9.63773 28.0726 9.63773 29.1901V35.8501L5.36273 40.1251C4.65773 40.8301 4.65773 41.9701 5.36273 42.6676C6.06773 43.3651 7.20773 43.3726 7.90523 42.6676L12.1802 38.3926H18.8402C19.9577 38.3926 21.0227 37.9501 21.8102 37.1626L39.0377 19.9351L39.5627 20.4601C40.2677 21.1651 41.4077 21.1651 42.1052 20.4601C42.8027 19.7551 42.8102 18.6151 42.1052 17.9176L37.3802 13.1926L40.8377 9.73509L41.9627 10.8601C42.6677 11.5651 43.8077 11.5651 44.5052 10.8601C45.2027 10.1551 45.2102 9.01509 44.5052 8.31759L39.7052 3.51759L39.7127 3.52509ZM36.4952 17.4001L19.2677 34.6276C19.1552 34.7401 19.0052 34.8001 18.8402 34.8001H13.2377V29.1976C13.2377 29.0401 13.2977 28.8826 13.4102 28.7701L16.2377 25.9426L17.9627 27.6676C18.6677 28.3726 19.8077 28.3726 20.5052 27.6676C21.2027 26.9626 21.2102 25.8226 20.5052 25.1251L18.7802 23.4001L23.4377 18.7426L25.1627 20.4676C25.8677 21.1726 27.0077 21.1726 27.7052 20.4676C28.4027 19.7626 28.4102 18.6226 27.7052 17.9251L25.9802 16.2001L30.6377 11.5426C32.5877 13.4926 34.5377 15.4426 36.4952 17.4001Z" fill="#271332"/>
</svg>
