<svg width="48" height="48" viewBox="0 0 48 48" fill="none" xmlns="http://www.w3.org/2000/svg">
<path d="M39.7127 3.52509C39.0077 2.82009 37.8677 2.82009 37.1702 3.52509C36.4727 4.23009 36.4652 5.37009 37.1702 6.06759L38.2952 7.19259L34.8377 10.6501L30.1127 5.92509C29.4077 5.22009 28.2677 5.22009 27.5702 5.92509C26.8727 6.63009 26.8652 7.77009 27.5702 8.46759L28.0952 8.99259L22.2377 14.8501L25.3127 17.9251C26.0177 18.6301 26.0177 19.7701 25.3127 20.4676C24.6077 21.1651 23.4677 21.1726 22.7702 20.4676L19.6952 17.3926L16.2377 20.8501L19.3127 23.9251C20.0177 24.6301 20.0177 25.7701 19.3127 26.4676C18.6077 27.1651 17.4677 27.1726 16.7702 26.4676L13.6952 23.3926L10.8677 26.2201C10.0802 27.0076 9.63773 28.0726 9.63773 29.1901V35.8501L5.36273 40.1251C4.65773 40.8301 4.65773 41.9701 5.36273 42.6676C6.06773 43.3651 7.20773 43.3726 7.90523 42.6676L12.1802 38.3926H18.8402C19.9577 38.3926 21.0227 37.9501 21.8102 37.1626L39.0377 19.9351L39.5627 20.4601C40.2677 21.1651 41.4077 21.1651 42.1052 20.4601C42.8027 19.7551 42.8102 18.6151 42.1052 17.9176L37.3802 13.1926L40.8377 9.73509L41.9627 10.8601C42.6677 11.5651 43.8077 11.5651 44.5052 10.8601C45.2027 10.1551 45.2102 9.01509 44.5052 8.31759L39.7052 3.51759L39.7127 3.52509Z" fill="#271332"/>
</svg>
