<svg width="48" height="48" viewBox="0 0 48 48" fill="none" xmlns="http://www.w3.org/2000/svg">
<path d="M7.1998 24C7.1998 14.7225 14.7223 7.20005 23.9998 7.20005C33.2773 7.20005 40.7998 14.7225 40.7998 24V31.2H38.3998C37.7398 31.2 37.1998 31.74 37.1998 32.4C37.1998 33.06 37.7398 33.6 38.3998 33.6H38.5423L39.4423 40.8075C38.8573 40.8825 38.3998 41.3851 38.3998 42.0001C38.3998 42.6601 38.9398 43.2001 39.5998 43.2001H44.3998C45.0598 43.2001 45.5998 42.6601 45.5998 42.0001C45.5998 41.3926 45.1423 40.89 44.5573 40.8075L45.4573 33.6H45.5998C46.2598 33.6 46.7998 33.06 46.7998 32.4C46.7998 31.74 46.2598 31.2 45.5998 31.2H43.1998V24C43.1998 13.395 34.6048 4.80005 23.9998 4.80005C13.3948 4.80005 4.7998 13.395 4.7998 24C4.7998 34.605 13.3948 43.2001 23.9998 43.2001C28.3198 43.2001 32.3098 41.775 35.5198 39.36C36.0523 38.9625 36.1573 38.2125 35.7598 37.68C35.3623 37.1475 34.6123 37.0426 34.0798 37.4401C31.2748 39.5476 27.7798 40.8001 23.9998 40.8001C14.7223 40.8001 7.1998 33.2775 7.1998 24ZM43.0423 33.6L42.1423 40.8001H41.8573L40.9573 33.6H43.0423ZM34.7998 24C34.7998 29.9625 29.9623 34.8001 23.9998 34.8001C18.0373 34.8001 13.1998 29.9625 13.1998 24C13.1998 18.0375 18.0373 13.2 23.9998 13.2C29.9623 13.2 34.7998 18.0375 34.7998 24ZM23.9998 10.8C16.7098 10.8 10.7998 16.71 10.7998 24C10.7998 31.29 16.7098 37.2001 23.9998 37.2001C31.2898 37.2001 37.1998 31.29 37.1998 24C37.1998 16.71 31.2898 10.8 23.9998 10.8ZM23.9998 28.8C21.3523 28.8 19.1998 26.6475 19.1998 24C19.1998 21.3525 21.3523 19.2 23.9998 19.2C26.6473 19.2 28.7998 21.3525 28.7998 24C28.7998 26.6475 26.6473 28.8 23.9998 28.8ZM16.7998 24C16.7998 27.975 20.0248 31.2 23.9998 31.2C27.9748 31.2 31.1998 27.975 31.1998 24C31.1998 20.025 27.9748 16.8 23.9998 16.8C20.0248 16.8 16.7998 20.025 16.7998 24Z" fill="#271332"/>
</svg>
