<svg width="48" height="48" viewBox="0 0 48 48" fill="none" xmlns="http://www.w3.org/2000/svg">
<path d="M10.8226 14.3999C13.2826 14.3999 15.3976 12.9224 16.3201 10.7999H31.7251C32.6476 12.9224 34.7626 14.3999 37.2226 14.3999C39.9076 14.3999 42.1801 12.6374 42.9451 10.1999H37.8226C36.8326 10.1999 36.0301 9.3974 36.0226 8.4074V8.3924C36.0301 7.4024 36.8326 6.5999 37.8226 6.5999H42.9451C42.1801 4.1624 39.9076 2.3999 37.2226 2.3999C34.7626 2.3999 32.6476 3.8774 31.7251 5.9999H16.3276C15.3976 3.8774 13.2826 2.3999 10.8226 2.3999C8.1376 2.3999 5.8651 4.1624 5.1001 6.5999H10.2226C11.2126 6.5999 12.0151 7.3949 12.0226 8.3849V8.4149C12.0151 9.4049 11.2126 10.1999 10.2226 10.1999H5.1001C5.8651 12.6374 8.1376 14.3999 10.8226 14.3999ZM18.1201 20.3999H29.9326C30.4351 20.3999 30.8776 20.7074 31.0576 21.1799L33.0151 26.3999H15.0451L17.0026 21.1799C17.1751 20.7149 17.6251 20.3999 18.1276 20.3999H18.1201ZM9.7801 26.7599L9.6826 27.0149C8.2201 27.8324 7.2226 29.3999 7.2226 31.1999V40.7999C7.2226 42.1274 8.2951 43.1999 9.6226 43.1999H10.8226C12.1501 43.1999 13.2226 42.1274 13.2226 40.7999V38.3999H34.8226V40.7999C34.8226 42.1274 35.8951 43.1999 37.2226 43.1999H38.4226C39.7501 43.1999 40.8226 42.1274 40.8226 40.7999V31.1999C40.8226 29.3999 39.8326 27.8324 38.3626 27.0074L38.2651 26.7524L35.5426 19.4849C34.6651 17.1449 32.4226 15.5924 29.9251 15.5924H18.1126C15.6151 15.5924 13.3726 17.1449 12.4951 19.4849L9.7801 26.7599ZM14.4301 29.9999C15.7576 29.9999 16.8301 31.0724 16.8301 32.3999C16.8301 33.7274 15.7576 34.7999 14.4301 34.7999C13.1026 34.7999 12.0301 33.7274 12.0301 32.3999C12.0301 31.0724 13.1026 29.9999 14.4301 29.9999ZM31.2301 32.3999C31.2301 31.0724 32.3026 29.9999 33.6301 29.9999C34.9576 29.9999 36.0301 31.0724 36.0301 32.3999C36.0301 33.7274 34.9576 34.7999 33.6301 34.7999C32.3026 34.7999 31.2301 33.7274 31.2301 32.3999Z" fill="#271332"/>
</svg>
