<svg width="48" height="48" viewBox="0 0 48 48" fill="none" xmlns="http://www.w3.org/2000/svg">
<path d="M24.0002 21.5999C27.0902 21.5999 34.0727 23.7299 38.0027 34.2749C38.2802 35.0174 38.4002 35.8049 38.4002 36.5999L38.3777 37.0274C38.1752 39.0074 36.6002 40.5824 34.6202 40.7849L34.1927 40.8074H33.9377L33.4727 40.7849C33.0077 40.7399 32.5577 40.6274 32.1227 40.4549L26.6702 38.2724C24.9527 37.5899 23.0402 37.5899 21.3227 38.2724L15.8702 40.4549C15.4352 40.6274 14.9852 40.7399 14.5202 40.7849L14.0552 40.8074H13.8002L13.3727 40.7849C11.4002 40.5749 9.82519 39.0074 9.62269 37.0274L9.60019 36.5999C9.60019 35.8124 9.72019 35.0174 9.99769 34.2749C13.9277 23.7299 20.9027 21.5999 24.0002 21.5999ZM24.0002 25.1999C22.5002 25.1999 17.1377 26.2874 13.6952 34.6949L13.3727 35.5349C13.2677 35.8124 13.2002 36.1724 13.2002 36.5999C13.2002 36.9299 13.4702 37.2074 13.8077 37.2074H14.0627C14.2277 37.2074 14.3852 37.1774 14.5352 37.1174L19.9877 34.9349C22.5602 33.9074 25.4327 33.9074 28.0052 34.9349L33.4577 37.1174C33.6077 37.1774 33.7727 37.2074 33.9302 37.2074H34.1852C34.5152 37.2074 34.7852 36.9374 34.7927 36.5999C34.7927 36.2774 34.7552 35.9999 34.6952 35.7599L34.6277 35.5349C31.2077 26.3549 25.5452 25.1999 24.0002 25.1999ZM6.30019 16.8674C7.53769 16.1849 8.92519 16.2749 10.0652 16.7324C11.2052 17.1974 12.2252 18.0824 12.9152 19.2224C13.6052 20.3624 13.9127 21.6749 13.7552 22.9049C13.5977 24.1424 12.9527 25.3799 11.6927 26.0699C10.4552 26.7524 9.06769 26.6624 7.92769 26.2049C6.78769 25.7399 5.76769 24.8549 5.07769 23.7149C4.38769 22.5749 4.08019 21.2624 4.23769 20.0324C4.39519 18.7949 5.04019 17.5574 6.30019 16.8674ZM37.9352 16.7324C39.0752 16.2674 40.4627 16.1774 41.7002 16.8674C42.9527 17.5574 43.6052 18.7949 43.7627 20.0324C43.9202 21.2624 43.6127 22.5674 42.9227 23.7149C42.2327 24.8624 41.2127 25.7399 40.0727 26.2049C38.9327 26.6699 37.5452 26.7599 36.3077 26.0699C35.0552 25.3799 34.4027 24.1424 34.2452 22.9049C34.0877 21.6749 34.3952 20.3699 35.0927 19.2224C35.7902 18.0749 36.8027 17.1974 37.9427 16.7324H37.9352ZM8.70769 20.0699C8.32519 19.9124 8.11519 19.9799 8.04019 20.0174C7.98019 20.0474 7.85269 20.1524 7.81519 20.4824C7.77019 20.8199 7.84519 21.3224 8.16769 21.8549C8.49019 22.3874 8.91769 22.7249 9.30019 22.8749C9.68269 23.0324 9.89269 22.9649 9.96769 22.9274C10.0277 22.8974 10.1552 22.7924 10.1927 22.4624C10.2377 22.1249 10.1627 21.6224 9.84019 21.0974C9.51769 20.5724 9.09019 20.2274 8.70769 20.0774V20.0699ZM39.9602 20.0174C39.8852 19.9799 39.6752 19.9124 39.2927 20.0699C38.9102 20.2274 38.4827 20.5649 38.1602 21.0899C37.8452 21.6149 37.7627 22.1174 37.8077 22.4549C37.8527 22.7849 37.9802 22.8824 38.0327 22.9199C38.1077 22.9574 38.3177 23.0249 38.7002 22.8674C39.0827 22.7099 39.5102 22.3724 39.8327 21.8474C40.1477 21.3224 40.2302 20.8199 40.1852 20.4749C40.1402 20.1449 40.0127 20.0474 39.9602 20.0099V20.0174ZM15.3827 7.11743C16.9502 6.60743 18.5177 7.02743 19.7252 7.86743C20.9327 8.70743 21.8852 10.0124 22.4027 11.5499C22.9202 13.0874 22.9352 14.7074 22.4627 16.1024C21.9902 17.4974 20.9852 18.7649 19.4177 19.2824C17.8502 19.7924 16.2827 19.3724 15.0752 18.5324C13.8677 17.6924 12.9152 16.3874 12.3977 14.8499C11.8802 13.3124 11.8652 11.6924 12.3377 10.2974C12.8102 8.90243 13.8152 7.63493 15.3827 7.11743ZM28.2752 7.86743C29.4827 7.02743 31.0502 6.60743 32.6177 7.11743C34.1852 7.62743 35.1902 8.90243 35.6627 10.2974C36.1277 11.6924 36.1127 13.3049 35.6027 14.8499C35.0927 16.3949 34.1327 17.6924 32.9252 18.5324C31.7177 19.3724 30.1502 19.7924 28.5827 19.2824C27.0152 18.7724 26.0102 17.4974 25.5377 16.1024C25.0727 14.7149 25.0877 13.0949 25.5977 11.5499C26.1077 10.0049 27.0677 8.70743 28.2752 7.86743ZM16.5002 10.5449C16.2527 10.6274 15.9377 10.8749 15.7427 11.4524C15.5477 12.0299 15.5177 12.8399 15.8102 13.7174C16.1027 14.5949 16.6127 15.2249 17.1227 15.5774C17.6327 15.9299 18.0377 15.9449 18.2927 15.8624C18.5402 15.7799 18.8552 15.5324 19.0502 14.9549C19.2452 14.3774 19.2752 13.5674 18.9827 12.6899C18.6902 11.8124 18.1802 11.1824 17.6702 10.8299C17.1602 10.4774 16.7552 10.4624 16.5002 10.5449ZM31.4927 10.5449C31.2377 10.4624 30.8327 10.4774 30.3227 10.8299C29.8127 11.1824 29.3027 11.8199 29.0102 12.6899C28.7177 13.5599 28.7477 14.3699 28.9427 14.9549C29.1377 15.5324 29.4452 15.7799 29.7002 15.8624C29.9552 15.9449 30.3602 15.9299 30.8702 15.5774C31.3802 15.2249 31.8902 14.5874 32.1827 13.7174C32.4752 12.8474 32.4452 12.0374 32.2502 11.4524C32.0552 10.8749 31.7477 10.6274 31.4927 10.5449Z" fill="#271332"/>
</svg>
