<svg width="64" height="64" viewBox="0 0 64 64" fill="none" xmlns="http://www.w3.org/2000/svg">
<path d="M9.5999 12.8C9.5999 11.03 11.0299 9.60001 12.7999 9.60001H47.9999C55.0699 9.60001 60.7999 15.33 60.7999 22.4C60.7999 29.47 55.0699 35.2 47.9999 35.2C47.9999 40.5 43.6999 44.8 38.3999 44.8H19.1999C13.8999 44.8 9.5999 40.5 9.5999 35.2V12.8ZM54.3999 22.4C54.3999 18.87 51.5299 16 47.9999 16V28.8C51.5299 28.8 54.3999 25.93 54.3999 22.4ZM9.5999 51.2H47.9999C49.7699 51.2 51.1999 52.63 51.1999 54.4C51.1999 56.17 49.7699 57.6 47.9999 57.6H9.5999C7.8299 57.6 6.3999 56.17 6.3999 54.4C6.3999 52.63 7.8299 51.2 9.5999 51.2Z" fill="#271332"/>
</svg>
