<svg width="48" height="48" viewBox="0 0 48 48" fill="none" xmlns="http://www.w3.org/2000/svg">
<path d="M14.4002 7.20005C14.4002 5.87255 15.4727 4.80005 16.8002 4.80005H21.6002C22.9277 4.80005 24.0002 5.87255 24.0002 7.20005V13.2H14.4002V7.20005ZM14.4002 20.4C12.4127 20.4 10.8002 22.0126 10.8002 24V37.8C10.8002 38.7976 11.6027 39.6001 12.6002 39.6001H25.8002C26.7977 39.6001 27.6002 38.7976 27.6002 37.8V24C27.6002 22.0126 25.9877 20.4 24.0002 20.4H14.4002ZM7.2002 24C7.2002 20.025 10.4252 16.8 14.4002 16.8H24.0002C27.9752 16.8 31.2002 20.025 31.2002 24V37.8C31.2002 40.785 28.7852 43.2001 25.8002 43.2001H12.6002C9.6152 43.2001 7.2002 40.785 7.2002 37.8V24ZM19.2002 25.2001C21.8477 25.2001 24.0002 27.3526 24.0002 30C24.0002 32.6476 21.8477 34.8001 19.2002 34.8001C16.5527 34.8001 14.4002 32.6476 14.4002 30C14.4002 27.3526 16.5527 25.2001 19.2002 25.2001ZM36.0002 8.40005C36.0002 8.50505 35.9252 8.62505 35.8352 8.67005L33.6002 9.60005L32.6702 11.835C32.6252 11.925 32.5052 12 32.4002 12C32.2952 12 32.1752 11.925 32.1302 11.835L31.2002 9.60005L28.9652 8.67005C28.8752 8.62505 28.8002 8.50505 28.8002 8.40005C28.8002 8.29505 28.8752 8.17505 28.9652 8.13005L31.2002 7.20005L32.1302 4.96505C32.1752 4.87505 32.2952 4.80005 32.4002 4.80005C32.5052 4.80005 32.6252 4.87505 32.6702 4.96505L33.6002 7.20005L35.8352 8.13005C35.9252 8.17505 36.0002 8.29505 36.0002 8.40005ZM41.7302 11.835L40.8002 9.60005L38.5652 8.67005C38.4752 8.62505 38.4002 8.50505 38.4002 8.40005C38.4002 8.29505 38.4752 8.17505 38.5652 8.13005L40.8002 7.20005L41.7302 4.96505C41.7752 4.87505 41.8952 4.80005 42.0002 4.80005C42.1052 4.80005 42.2252 4.87505 42.2702 4.96505L43.2002 7.20005L45.4352 8.13005C45.5252 8.17505 45.6002 8.29505 45.6002 8.40005C45.6002 8.50505 45.5252 8.62505 45.4352 8.67005L43.2002 9.60005L42.2702 11.835C42.2252 11.925 42.1052 12 42.0002 12C41.8952 12 41.7752 11.925 41.7302 11.835ZM42.2702 19.3651L43.2002 21.6L45.4352 22.53C45.5252 22.575 45.6002 22.695 45.6002 22.8C45.6002 22.9051 45.5252 23.025 45.4352 23.07L43.2002 24L42.2702 26.235C42.2252 26.325 42.1052 26.4 42.0002 26.4C41.8952 26.4 41.7752 26.325 41.7302 26.235L40.8002 24L38.5652 23.07C38.4752 23.025 38.4002 22.9051 38.4002 22.8C38.4002 22.695 38.4752 22.575 38.5652 22.53L40.8002 21.6L41.7302 19.3651C41.7752 19.2751 41.8952 19.2 42.0002 19.2C42.1052 19.2 42.2252 19.2751 42.2702 19.3651ZM40.8002 15.6C40.8002 15.705 40.7252 15.825 40.6352 15.87L38.4002 16.8L37.4702 19.035C37.4252 19.125 37.3052 19.2 37.2002 19.2C37.0952 19.2 36.9752 19.125 36.9302 19.035L36.0002 16.8L33.7652 15.87C33.6752 15.825 33.6002 15.705 33.6002 15.6C33.6002 15.495 33.6752 15.375 33.7652 15.33L36.0002 14.4L36.9302 12.165C36.9752 12.075 37.0952 12 37.2002 12C37.3052 12 37.4252 12.075 37.4702 12.165L38.4002 14.4L40.6352 15.33C40.7252 15.375 40.8002 15.495 40.8002 15.6Z" fill="#271332"/>
</svg>
