<svg width="48" height="48" viewBox="0 0 48 48" fill="none" xmlns="http://www.w3.org/2000/svg">
<path d="M14.4002 7.20005V13.2H24.0002V7.20005C24.0002 5.87255 22.9277 4.80005 21.6002 4.80005H16.8002C15.4727 4.80005 14.4002 5.87255 14.4002 7.20005ZM14.4002 16.8C10.4252 16.8 7.2002 20.025 7.2002 24V39.6001C7.2002 41.5876 8.8127 43.2001 10.8002 43.2001H27.6002C29.5877 43.2001 31.2002 41.5876 31.2002 39.6001V24C31.2002 20.025 27.9752 16.8 24.0002 16.8H14.4002ZM19.2002 24C22.5152 24 25.2002 26.685 25.2002 30C25.2002 33.3151 22.5152 36 19.2002 36C15.8852 36 13.2002 33.3151 13.2002 30C13.2002 26.685 15.8852 24 19.2002 24ZM36.0002 8.40005C36.0002 8.29505 35.9252 8.17505 35.8352 8.13005L33.6002 7.20005L32.6702 4.96505C32.6252 4.87505 32.5052 4.80005 32.4002 4.80005C32.2952 4.80005 32.1752 4.87505 32.1302 4.96505L31.2002 7.20005L28.9652 8.13005C28.8752 8.17505 28.8002 8.29505 28.8002 8.40005C28.8002 8.50505 28.8752 8.62505 28.9652 8.67005L31.2002 9.60005L32.1302 11.835C32.1752 11.925 32.2952 12 32.4002 12C32.5052 12 32.6252 11.925 32.6702 11.835L33.6002 9.60005L35.8352 8.67005C35.9252 8.62505 36.0002 8.50505 36.0002 8.40005ZM41.7302 11.835C41.7752 11.925 41.8952 12 42.0002 12C42.1052 12 42.2252 11.925 42.2702 11.835L43.2002 9.60005L45.4352 8.67005C45.5252 8.62505 45.6002 8.50505 45.6002 8.40005C45.6002 8.29505 45.5252 8.17505 45.4352 8.13005L43.2002 7.20005L42.2702 4.96505C42.2252 4.87505 42.1052 4.80005 42.0002 4.80005C41.8952 4.80005 41.7752 4.87505 41.7302 4.96505L40.8002 7.20005L38.5652 8.13005C38.4752 8.17505 38.4002 8.29505 38.4002 8.40005C38.4002 8.50505 38.4752 8.62505 38.5652 8.67005L40.8002 9.60005L41.7302 11.835ZM42.2702 19.3651C42.2252 19.2751 42.1052 19.2 42.0002 19.2C41.8952 19.2 41.7752 19.2751 41.7302 19.3651L40.8002 21.6L38.5652 22.53C38.4752 22.575 38.4002 22.695 38.4002 22.8C38.4002 22.9051 38.4752 23.025 38.5652 23.07L40.8002 24L41.7302 26.235C41.7752 26.325 41.8952 26.4 42.0002 26.4C42.1052 26.4 42.2252 26.325 42.2702 26.235L43.2002 24L45.4352 23.07C45.5252 23.025 45.6002 22.9051 45.6002 22.8C45.6002 22.695 45.5252 22.575 45.4352 22.53L43.2002 21.6L42.2702 19.3651ZM40.8002 15.6C40.8002 15.495 40.7252 15.375 40.6352 15.33L38.4002 14.4L37.4702 12.165C37.4252 12.075 37.3052 12 37.2002 12C37.0952 12 36.9752 12.075 36.9302 12.165L36.0002 14.4L33.7652 15.33C33.6752 15.375 33.6002 15.495 33.6002 15.6C33.6002 15.705 33.6752 15.825 33.7652 15.87L36.0002 16.8L36.9302 19.035C36.9752 19.125 37.0952 19.2 37.2002 19.2C37.3052 19.2 37.4252 19.125 37.4702 19.035L38.4002 16.8L40.6352 15.87C40.7252 15.825 40.8002 15.705 40.8002 15.6Z" fill="#271332"/>
</svg>
