<?xml version="1.0" encoding="UTF-8"?>
<!--
Soliguide: Useful information for those who need it

SPDX-FileCopyrightText: © 2025 Solinum

SPDX-License-Identifier: AGPL-3.0-only

This program is free software: you can redistribute it and/or modify
it under the terms of the GNU Affero General Public License as published
by the Free Software Foundation, either version 3 of the License, or
(at your option) any later version.

This program is distributed in the hope that it will be useful,
but WITHOUT ANY WARRANTY; without even the implied warranty of
MERCHANTABILITY or FITNESS FOR A PARTICULAR PURPOSE.  See the
GNU Affero General Public License for more details.

You should have received a copy of the GNU Affero General Public License
along with this program.  If not, see <https://www.gnu.org/licenses/>.
-->
<svg version="1.1" width="667" height="667" xmlns="http://www.w3.org/2000/svg">
  <path
    d="M376.500 165.398 C 367.626 167.436,358.376 171.476,352.606 175.832 C 339.261 185.908,279.477 233.186,279.302 233.802 C 279.193 234.186,281.636 236.075,284.731 238.000 C 292.264 242.685,307.681 257.951,313.008 266.000 C 315.374 269.575,317.418 272.641,317.552 272.813 C 317.685 272.986,334.056 260.232,353.933 244.471 C 379.291 224.363,390.434 216.094,391.286 216.752 C 391.954 217.268,442.128 257.427,502.784 305.995 C 609.463 391.413,613.223 394.314,617.784 394.712 C 624.409 395.290,627.235 393.341,637.670 381.000 C 651.228 364.965,651.000 365.327,651.000 359.912 C 651.000 357.262,650.497 353.990,649.882 352.640 C 649.267 351.291,630.155 335.182,607.411 316.843 L 566.058 283.500 566.029 240.651 C 565.996 192.212,566.095 192.898,558.532 188.466 C 554.368 186.026,554.072 186.000,529.912 186.016 C 506.494 186.032,505.341 186.124,501.604 188.266 C 495.151 191.966,494.000 195.366,494.000 210.734 C 494.000 218.030,493.717 224.000,493.371 224.000 C 493.025 224.000,482.869 216.012,470.802 206.250 C 430.562 173.694,426.874 171.238,411.821 166.972 C 402.314 164.277,384.782 163.496,376.500 165.398 M204.000 230.496 C 167.429 238.658,138.734 265.822,128.962 301.530 C 125.705 313.429,125.159 334.357,127.775 347.005 C 130.062 358.065,133.821 368.106,138.760 376.349 L 142.265 382.197 139.382 384.978 C 137.797 386.507,110.625 411.453,79.000 440.412 C 47.375 469.372,20.487 494.468,19.250 496.181 C 15.941 500.761,16.215 506.616,19.980 511.814 C 24.853 518.541,31.982 520.823,38.119 517.621 C 40.316 516.475,144.567 421.361,157.786 408.442 L 162.072 404.253 169.837 409.450 C 178.544 415.279,189.395 420.097,200.825 423.211 C 207.066 424.912,211.397 425.303,224.000 425.306 C 237.510 425.309,240.746 424.978,249.208 422.723 C 284.360 413.357,310.479 387.034,320.201 351.175 C 321.863 345.045,322.299 340.381,322.367 328.000 C 322.468 309.519,320.510 300.029,313.571 285.382 C 308.013 273.649,304.431 268.476,295.103 258.712 C 282.727 245.758,266.759 236.400,248.500 231.400 C 240.054 229.088,212.794 228.534,204.000 230.496 M357.500 255.565 C 339.900 269.632,324.959 281.672,324.298 282.320 C 323.364 283.237,323.758 285.367,326.066 291.874 C 337.271 323.464,332.218 360.606,312.916 388.527 C 306.029 398.490,290.343 413.256,280.128 419.392 C 252.949 435.718,219.519 439.266,189.396 429.021 C 184.512 427.359,180.415 426.000,180.291 426.000 C 180.168 426.000,180.309 456.938,180.604 494.750 C 181.211 572.315,181.039 570.490,188.537 578.830 C 190.859 581.412,194.950 584.644,197.629 586.012 L 202.500 588.500 255.000 588.500 C 283.875 588.500,367.998 588.157,441.939 587.737 L 576.378 586.973 581.526 584.617 C 587.883 581.706,592.971 576.731,596.108 570.358 C 598.818 564.855,598.715 570.573,598.227 452.495 L 598.000 397.490 581.750 384.392 C 572.813 377.189,559.425 366.377,552.000 360.367 C 536.080 347.479,473.447 296.850,425.624 258.211 C 406.992 243.157,391.242 230.649,390.624 230.415 C 390.006 230.181,375.100 241.498,357.500 255.565 M243.112 255.467 C 263.416 260.979,281.509 275.833,290.502 294.373 C 296.177 306.074,297.967 313.897,297.985 327.090 C 298.034 361.761,275.467 390.656,241.665 399.204 C 229.584 402.259,212.699 401.470,200.739 397.291 C 188.452 392.999,181.837 388.799,171.929 378.997 C 164.731 371.878,162.575 368.950,158.672 360.997 C 156.109 355.774,153.350 348.878,152.541 345.673 C 146.071 320.050,153.674 292.973,172.526 274.500 C 183.214 264.026,195.420 257.468,209.856 254.442 C 217.942 252.747,235.033 253.274,243.112 255.467 M219.500 270.468 C 202.385 274.201,186.511 284.564,175.527 299.175 C 170.417 305.974,170.510 306.574,177.143 309.564 L 181.297 311.438 182.820 308.969 C 183.657 307.611,187.754 303.125,191.924 299.000 C 203.862 287.190,217.780 281.000,232.394 281.000 L 239.000 281.000 239.000 275.000 L 239.000 269.000 232.250 269.079 C 228.537 269.123,222.800 269.748,219.500 270.468 "
    stroke="none" fill="black" fill-rule="evenodd" />
</svg>