<svg width="48" height="48" viewBox="0 0 48 48" fill="none" xmlns="http://www.w3.org/2000/svg">
<path d="M4.7998 9.60005C4.7998 6.95255 6.9523 4.80005 9.5998 4.80005H28.7998C31.4473 4.80005 33.5998 6.95255 33.5998 9.60005V18.36C32.6398 18.1275 31.6348 18 30.5998 18C23.6398 18 17.9998 23.64 17.9998 30.6C17.9998 30.8025 18.0073 31.0051 18.0148 31.2001H17.9998C16.6723 31.2001 15.5998 32.2726 15.5998 33.6V39.6001H21.7798C23.8048 41.5801 26.4973 42.8926 29.4823 43.1551C29.2573 43.1851 29.0323 43.2001 28.7998 43.2001H9.5998C6.9523 43.2001 4.7998 41.0476 4.7998 38.4001V9.60005ZM13.1998 12C12.5398 12 11.9998 12.54 11.9998 13.2V15.6C11.9998 16.26 12.5398 16.8 13.1998 16.8H15.5998C16.2598 16.8 16.7998 16.26 16.7998 15.6V13.2C16.7998 12.54 16.2598 12 15.5998 12H13.1998ZM21.5998 13.2V15.6C21.5998 16.26 22.1398 16.8 22.7998 16.8H25.1998C25.8598 16.8 26.3998 16.26 26.3998 15.6V13.2C26.3998 12.54 25.8598 12 25.1998 12H22.7998C22.1398 12 21.5998 12.54 21.5998 13.2ZM13.1998 21.6C12.5398 21.6 11.9998 22.14 11.9998 22.8V25.2001C11.9998 25.8601 12.5398 26.4 13.1998 26.4H15.5998C16.2598 26.4 16.7998 25.8601 16.7998 25.2001V22.8C16.7998 22.14 16.2598 21.6 15.5998 21.6H13.1998ZM30.5998 36.0076C33.5848 36.0076 35.9998 33.5926 35.9998 30.6075C35.9998 27.6226 33.5848 25.2076 30.5998 25.2076C27.6148 25.2076 25.1998 27.6226 25.1998 30.6075C25.1998 33.5926 27.6148 36.0076 30.5998 36.0076ZM30.5998 39.6075C25.6273 39.6075 21.5998 35.5801 21.5998 30.6075C21.5998 25.635 25.6273 21.6075 30.5998 21.6075C35.5723 21.6075 39.5998 25.635 39.5998 30.6075C39.5998 32.4451 39.0523 34.1475 38.1073 35.5725L42.6748 40.1325C43.3798 40.8375 43.3798 41.9776 42.6748 42.675C41.9698 43.3726 40.8298 43.3801 40.1323 42.675L35.5723 38.1076C34.1473 39.0526 32.4448 39.6001 30.6073 39.6001L30.5998 39.6075Z" fill="#271332"/>
</svg>
