<?xml version="1.0" encoding="UTF-8"?>
<!--
Soliguide: Useful information for those who need it

SPDX-FileCopyrightText: © 2025 Solinum

SPDX-License-Identifier: AGPL-3.0-only

This program is free software: you can redistribute it and/or modify
it under the terms of the GNU Affero General Public License as published
by the Free Software Foundation, either version 3 of the License, or
(at your option) any later version.

This program is distributed in the hope that it will be useful,
but WITHOUT ANY WARRANTY; without even the implied warranty of
MERCHANTABILITY or FITNESS FOR A PARTICULAR PURPOSE.  See the
GNU Affero General Public License for more details.

You should have received a copy of the GNU Affero General Public License
along with this program.  If not, see <https://www.gnu.org/licenses/>.
-->
<svg width="48" height="48" viewBox="0 0 48 48" fill="none" xmlns="http://www.w3.org/2000/svg">
<path d="M6.99023 44.045C9.19024 44.045 10.9902 42.245 10.9902 40.045V26.045C10.9902 23.845 9.19024 22.045 6.99023 22.045C4.79023 22.045 2.99023 23.845 2.99023 26.045V40.045C2.99023 42.245 4.79023 44.045 6.99023 44.045ZM23.7302 32.905L26.6702 33.925C26.8902 34.005 27.1102 34.045 27.3302 34.045H40.9902C43.2102 34.045 44.9902 35.825 45.0102 38.045L30.2302 43.585C29.4302 43.885 28.5502 43.925 27.7302 43.685L14.9902 40.085V22.045H18.1902C18.6702 22.045 19.1502 22.125 19.5902 22.305L33.4502 27.485C34.3702 27.825 34.9902 28.705 34.9902 29.705C34.9902 31.005 33.9302 32.065 32.6302 32.065H27.3702C27.1302 32.065 26.8902 32.025 26.6502 31.925L24.4102 31.065C23.8902 30.865 23.3102 31.145 23.1302 31.665C22.9502 32.165 23.2102 32.725 23.7302 32.905ZM41.3102 11.845L31.3102 4.70496C29.9102 3.70496 28.0502 3.70496 26.6702 4.70496L16.6702 11.845C15.6102 12.605 14.9902 13.805 14.9902 15.105V18.045H18.2102C18.7102 18.045 19.2302 18.145 19.6902 18.325L35.2702 24.545C37.5102 25.465 38.9902 27.625 38.9902 30.045H42.9902V15.105C42.9902 13.805 42.3702 12.605 41.3102 11.845ZM26.9902 20.045C26.4302 20.045 25.9902 19.605 25.9902 19.045C25.9902 18.485 26.4302 18.045 26.9902 18.045C27.5502 18.045 27.9902 18.485 27.9902 19.045C27.9902 19.605 27.5502 20.045 26.9902 20.045ZM26.9902 16.045C26.4302 16.045 25.9902 15.605 25.9902 15.045C25.9902 14.485 26.4302 14.045 26.9902 14.045C27.5502 14.045 27.9902 14.485 27.9902 15.045C27.9902 15.605 27.5502 16.045 26.9902 16.045ZM30.9902 20.045C30.4302 20.045 29.9902 19.605 29.9902 19.045C29.9902 18.485 30.4302 18.045 30.9902 18.045C31.5502 18.045 31.9902 18.485 31.9902 19.045C31.9902 19.605 31.5502 20.045 30.9902 20.045ZM30.9902 16.045C30.4302 16.045 29.9902 15.605 29.9902 15.045C29.9902 14.485 30.4302 14.045 30.9902 14.045C31.5502 14.045 31.9902 14.485 31.9902 15.045C31.9902 15.605 31.5502 16.045 30.9902 16.045Z" fill="#404040"/>
</svg>
