<svg width="48" height="48" viewBox="0 0 48 48" fill="none" xmlns="http://www.w3.org/2000/svg">
<path d="M28.8374 8.40005H9.6374C8.9774 8.40005 8.4374 8.94005 8.4374 9.60005V38.4C8.4374 39.06 8.9774 39.6 9.6374 39.6H15.6374V33.6C15.6374 32.2725 16.7099 31.2 18.0374 31.2H19.2524C19.2449 31.395 19.2374 31.5975 19.2374 31.8C19.2374 36.84 22.1924 41.1825 26.4674 43.2H9.6374C6.9899 43.2 4.8374 41.0475 4.8374 38.4V9.60005C4.8374 6.95255 6.9899 4.80005 9.6374 4.80005H28.8374C31.4849 4.80005 33.6374 6.95255 33.6374 9.60005V19.3275C33.0524 19.245 32.4449 19.2 31.8374 19.2C31.2299 19.2 30.6224 19.245 30.0374 19.3275V9.60005C30.0374 8.94005 29.4974 8.40005 28.8374 8.40005ZM13.2374 12H15.6374C16.2974 12 16.8374 12.54 16.8374 13.2V15.6C16.8374 16.26 16.2974 16.8 15.6374 16.8H13.2374C12.5774 16.8 12.0374 16.26 12.0374 15.6V13.2C12.0374 12.54 12.5774 12 13.2374 12ZM21.6374 13.2C21.6374 12.54 22.1774 12 22.8374 12H25.2374C25.8974 12 26.4374 12.54 26.4374 13.2V15.6C26.4374 16.26 25.8974 16.8 25.2374 16.8H22.8374C22.1774 16.8 21.6374 16.26 21.6374 15.6V13.2ZM13.2374 21.6H15.6374C16.2974 21.6 16.8374 22.14 16.8374 22.8V25.2C16.8374 25.86 16.2974 26.4 15.6374 26.4H13.2374C12.5774 26.4 12.0374 25.86 12.0374 25.2V22.8C12.0374 22.14 12.5774 21.6 13.2374 21.6ZM31.8374 37.2C34.8224 37.2 37.2374 34.785 37.2374 31.8C37.2374 28.815 34.8224 26.4 31.8374 26.4C28.8524 26.4 26.4374 28.815 26.4374 31.8C26.4374 34.785 28.8524 37.2 31.8374 37.2ZM31.8374 40.8C26.8649 40.8 22.8374 36.7725 22.8374 31.8C22.8374 26.8275 26.8649 22.8 31.8374 22.8C36.8099 22.8 40.8374 26.8275 40.8374 31.8C40.8374 33.6375 40.2899 35.3475 39.3449 36.7725L43.9124 41.34C44.6174 42.045 44.6174 43.185 43.9124 43.8825C43.2074 44.58 42.0674 44.5875 41.3699 43.8825L36.8024 39.315C35.3774 40.2525 33.6749 40.8 31.8449 40.8H31.8374Z" fill="#271332"/>
</svg>
