<svg width="64" height="64" viewBox="0 0 64 64" fill="none" xmlns="http://www.w3.org/2000/svg">
<path d="M34.1802 7.26003C32.9502 6.12003 31.0502 6.12003 29.8302 7.26003L7.43019 28.06C6.47019 28.96 6.15019 30.35 6.63019 31.57C7.11019 32.79 8.28019 33.6 9.60019 33.6H11.2002V51.2C11.2002 54.73 14.0702 57.6 17.6002 57.6H46.4002C49.9302 57.6 52.8002 54.73 52.8002 51.2V33.6H54.4002C55.7202 33.6 56.9002 32.79 57.3802 31.57C57.8602 30.35 57.5402 28.95 56.5802 28.06L34.1802 7.26003ZM30.4002 38.4H33.6002C36.2502 38.4 38.4002 40.55 38.4002 43.2V52.8H25.6002V43.2C25.6002 40.55 27.7502 38.4 30.4002 38.4Z" fill="#271332"/>
</svg>
