<?xml version="1.0" encoding="UTF-8"?>
<!--
Soliguide: Useful information for those who need it

SPDX-FileCopyrightText: © 2025 Solinum

SPDX-License-Identifier: AGPL-3.0-only

This program is free software: you can redistribute it and/or modify
it under the terms of the GNU Affero General Public License as published
by the Free Software Foundation, either version 3 of the License, or
(at your option) any later version.

This program is distributed in the hope that it will be useful,
but WITHOUT ANY WARRANTY; without even the implied warranty of
MERCHANTABILITY or FITNESS FOR A PARTICULAR PURPOSE.  See the
GNU Affero General Public License for more details.

You should have received a copy of the GNU Affero General Public License
along with this program.  If not, see <https://www.gnu.org/licenses/>.
-->
<svg version="1.1" width="667" height="667" xmlns="http://www.w3.org/2000/svg"><path d="M320.000 78.431 C 311.547 80.233,304.809 82.567,298.000 86.053 C 294.975 87.602,268.650 107.642,239.500 130.587 C 169.826 185.429,96.220 243.332,56.408 274.617 C 38.758 288.487,23.120 301.257,21.658 302.994 C 18.248 307.048,17.650 315.164,20.443 319.500 C 24.960 326.513,46.737 350.807,50.248 352.750 C 58.297 357.204,60.525 356.212,83.632 337.883 C 93.605 329.972,124.148 305.725,151.506 284.000 C 178.864 262.275,208.339 238.875,217.005 232.000 C 225.672 225.125,247.778 207.588,266.131 193.029 C 284.484 178.470,307.343 160.299,316.928 152.649 C 332.785 139.995,334.540 138.856,336.395 140.014 C 337.516 140.715,398.082 189.068,470.987 247.467 C 543.892 305.866,604.657 353.945,606.020 354.310 C 610.250 355.441,615.359 354.991,618.733 353.191 C 623.037 350.895,647.747 321.575,648.902 317.395 C 649.966 313.539,649.312 307.534,647.429 303.875 C 646.686 302.431,639.648 296.038,631.789 289.667 C 623.930 283.297,601.750 265.339,582.500 249.760 L 547.500 221.436 547.000 167.968 C 546.521 116.751,546.416 114.360,544.500 111.181 C 543.400 109.355,540.925 106.880,539.000 105.681 C 535.593 103.558,534.650 103.500,503.427 103.500 L 471.354 103.500 467.772 105.954 C 461.148 110.493,460.580 112.426,460.010 132.378 L 459.500 150.256 426.500 123.569 C 383.711 88.967,379.051 85.929,360.386 80.472 C 349.303 77.232,330.166 76.265,320.000 78.431 M311.982 174.401 C 299.597 184.355,242.720 229.844,185.590 275.486 L 81.716 358.472 82.424 457.986 C 82.842 516.783,83.535 559.324,84.117 561.958 C 86.413 572.351,93.600 581.044,103.880 585.865 L 109.500 588.500 161.000 588.515 C 189.325 588.523,225.438 588.397,241.250 588.235 L 270.000 587.940 270.022 491.720 C 270.043 400.197,270.134 395.305,271.896 391.500 C 272.914 389.300,275.042 386.286,276.624 384.803 C 282.827 378.986,282.691 379.000,334.000 379.000 C 385.309 379.000,385.173 378.986,391.376 384.803 C 392.958 386.286,395.086 389.300,396.104 391.500 C 397.865 395.304,397.957 400.185,397.978 491.278 L 398.000 587.056 479.250 586.778 L 560.500 586.500 566.125 583.738 C 572.758 580.480,580.265 572.831,583.321 566.217 C 585.446 561.617,585.505 560.388,585.718 516.500 C 585.838 491.750,585.653 445.987,585.307 414.804 L 584.678 358.108 550.089 330.188 C 531.065 314.833,498.850 288.807,478.500 272.354 C 419.279 224.474,336.588 157.773,335.500 157.007 C 334.950 156.619,324.367 164.446,311.982 174.401 " stroke="none" fill="black" fill-rule="evenodd"/></svg>