<svg width="64" height="64" viewBox="0 0 64 64" fill="none" xmlns="http://www.w3.org/2000/svg">
<path d="M52.7999 32.22C52.7999 32.49 52.6999 32.74 52.3799 33.02C51.9999 33.33 51.3699 33.6 50.5999 33.6H40.7999C35.4999 33.6 31.1999 37.9 31.1999 43.2C31.1999 43.88 31.2699 44.54 31.4099 45.18C31.7399 46.75 32.4299 48.29 32.8499 49.24C32.9199 49.4 32.9899 49.54 33.0399 49.67C33.5399 50.82 33.5999 51.21 33.5999 51.38C33.5999 51.91 33.4099 52.33 33.2199 52.56C33.1299 52.67 33.0599 52.72 33.0199 52.74C32.9899 52.76 32.9399 52.77 32.8599 52.78C32.5699 52.79 32.2899 52.8 31.9999 52.8C20.5099 52.8 11.1999 43.49 11.1999 32C11.1999 20.51 20.5099 11.2 31.9999 11.2C43.4899 11.2 52.7999 20.51 52.7999 32C52.7999 32.07 52.7999 32.14 52.7999 32.22ZM57.5999 32.27C57.5999 32.18 57.5999 32.09 57.5999 32C57.5999 17.86 46.1399 6.39999 31.9999 6.39999C17.8599 6.39999 6.3999 17.86 6.3999 32C6.3999 46.14 17.8599 57.6 31.9999 57.6C32.3499 57.6 32.7099 57.59 33.0599 57.58C36.2399 57.45 38.3999 54.57 38.3999 51.38C38.3999 49.93 37.7899 48.55 37.1899 47.18C36.7599 46.2 36.3199 45.21 36.1099 44.19C36.0399 43.87 36.0099 43.54 36.0099 43.2C36.0099 40.55 38.1599 38.4 40.8099 38.4H50.5999C54.2499 38.4 57.5699 35.92 57.6099 32.27H57.5999ZM22.3999 32C22.3999 30.23 20.9699 28.8 19.1999 28.8C17.4299 28.8 15.9999 30.23 15.9999 32C15.9999 33.77 17.4299 35.2 19.1999 35.2C20.9699 35.2 22.3999 33.77 22.3999 32ZM22.3999 25.6C24.1699 25.6 25.5999 24.17 25.5999 22.4C25.5999 20.63 24.1699 19.2 22.3999 19.2C20.6299 19.2 19.1999 20.63 19.1999 22.4C19.1999 24.17 20.6299 25.6 22.3999 25.6ZM35.1999 19.2C35.1999 17.43 33.7699 16 31.9999 16C30.2299 16 28.7999 17.43 28.7999 19.2C28.7999 20.97 30.2299 22.4 31.9999 22.4C33.7699 22.4 35.1999 20.97 35.1999 19.2ZM41.5999 25.6C43.3699 25.6 44.7999 24.17 44.7999 22.4C44.7999 20.63 43.3699 19.2 41.5999 19.2C39.8299 19.2 38.3999 20.63 38.3999 22.4C38.3999 24.17 39.8299 25.6 41.5999 25.6Z" fill="#271332"/>
</svg>
