<?xml version="1.0" encoding="UTF-8"?>
<!--
Soliguide: Useful information for those who need it

SPDX-FileCopyrightText: © 2025 Solinum

SPDX-License-Identifier: AGPL-3.0-only

This program is free software: you can redistribute it and/or modify
it under the terms of the GNU Affero General Public License as published
by the Free Software Foundation, either version 3 of the License, or
(at your option) any later version.

This program is distributed in the hope that it will be useful,
but WITHOUT ANY WARRANTY; without even the implied warranty of
MERCHANTABILITY or FITNESS FOR A PARTICULAR PURPOSE.  See the
GNU Affero General Public License for more details.

You should have received a copy of the GNU Affero General Public License
along with this program.  If not, see <https://www.gnu.org/licenses/>.
-->
<svg width="64" height="64" viewBox="0 0 64 64" fill="none" xmlns="http://www.w3.org/2000/svg">
<path d="M32.0002 58.6667C17.3068 58.6667 5.3335 46.6933 5.3335 32C5.3335 17.3067 17.3068 5.33333 32.0002 5.33333C46.6935 5.33333 58.6668 16.1067 58.6668 29.3333C58.6668 38.16 51.4935 45.3333 42.6668 45.3333H37.9468C37.2002 45.3333 36.6135 45.92 36.6135 46.6667C36.6135 46.9867 36.7468 47.28 36.9602 47.5467C38.0535 48.8 38.6668 50.3733 38.6668 52C38.6668 55.68 35.6802 58.6667 32.0002 58.6667ZM32.0002 10.6667C20.2402 10.6667 10.6668 20.24 10.6668 32C10.6668 43.76 20.2402 53.3333 32.0002 53.3333C32.7468 53.3333 33.3335 52.7467 33.3335 52C33.3335 51.5733 33.1202 51.2533 32.9602 51.0667C31.8668 49.84 31.2802 48.2667 31.2802 46.6667C31.2802 42.9867 34.2668 40 37.9468 40H42.6668C48.5602 40 53.3335 35.2267 53.3335 29.3333C53.3335 19.04 43.7602 10.6667 32.0002 10.6667Z" fill="#404040"/>
<path d="M17.3335 34.6667C19.5426 34.6667 21.3335 32.8758 21.3335 30.6667C21.3335 28.4575 19.5426 26.6667 17.3335 26.6667C15.1244 26.6667 13.3335 28.4575 13.3335 30.6667C13.3335 32.8758 15.1244 34.6667 17.3335 34.6667Z" fill="#404040"/>
<path d="M25.3335 24C27.5426 24 29.3335 22.2091 29.3335 20C29.3335 17.7909 27.5426 16 25.3335 16C23.1244 16 21.3335 17.7909 21.3335 20C21.3335 22.2091 23.1244 24 25.3335 24Z" fill="#404040"/>
<path d="M38.6668 24C40.876 24 42.6668 22.2091 42.6668 20C42.6668 17.7909 40.876 16 38.6668 16C36.4577 16 34.6668 17.7909 34.6668 20C34.6668 22.2091 36.4577 24 38.6668 24Z" fill="#404040"/>
<path d="M46.6668 34.6667C48.876 34.6667 50.6668 32.8758 50.6668 30.6667C50.6668 28.4575 48.876 26.6667 46.6668 26.6667C44.4577 26.6667 42.6668 28.4575 42.6668 30.6667C42.6668 32.8758 44.4577 34.6667 46.6668 34.6667Z" fill="#404040"/>
</svg>
