<svg width="64" height="64" viewBox="0 0 64 64" fill="none" xmlns="http://www.w3.org/2000/svg">
<path d="M57.6001 32C57.6001 32.09 57.6001 32.18 57.6001 32.27C57.5601 35.92 54.2401 38.4 50.5901 38.4H40.8001C38.1501 38.4 36.0001 40.55 36.0001 43.2C36.0001 43.54 36.0401 43.87 36.1001 44.19C36.3101 45.21 36.7501 46.19 37.1801 47.18C37.7901 48.56 38.3901 49.93 38.3901 51.38C38.3901 54.56 36.2301 57.45 33.0501 57.58C32.7001 57.59 32.3501 57.6 31.9901 57.6C17.8501 57.6 6.39014 46.14 6.39014 32C6.39014 17.86 17.8601 6.39999 32.0001 6.39999C46.1401 6.39999 57.6001 17.86 57.6001 32ZM19.2001 35.2C19.2001 33.43 17.7701 32 16.0001 32C14.2301 32 12.8001 33.43 12.8001 35.2C12.8001 36.97 14.2301 38.4 16.0001 38.4C17.7701 38.4 19.2001 36.97 19.2001 35.2ZM19.2001 25.6C20.9701 25.6 22.4001 24.17 22.4001 22.4C22.4001 20.63 20.9701 19.2 19.2001 19.2C17.4301 19.2 16.0001 20.63 16.0001 22.4C16.0001 24.17 17.4301 25.6 19.2001 25.6ZM35.2001 16C35.2001 14.23 33.7701 12.8 32.0001 12.8C30.2301 12.8 28.8001 14.23 28.8001 16C28.8001 17.77 30.2301 19.2 32.0001 19.2C33.7701 19.2 35.2001 17.77 35.2001 16ZM44.8001 25.6C46.5701 25.6 48.0001 24.17 48.0001 22.4C48.0001 20.63 46.5701 19.2 44.8001 19.2C43.0301 19.2 41.6001 20.63 41.6001 22.4C41.6001 24.17 43.0301 25.6 44.8001 25.6Z" fill="#271332"/>
</svg>
