<svg width="48" height="48" viewBox="0 0 48 48" fill="none" xmlns="http://www.w3.org/2000/svg">
<path d="M25.0424 7.58995C24.7574 7.32745 24.3824 7.19995 23.9999 7.19995C23.6174 7.19995 23.2424 7.32745 22.9574 7.58995C21.7199 8.73745 18.1874 12.39 16.0649 18.5625C17.1599 19.1475 18.2099 19.815 19.2074 20.55C20.4974 16.35 22.5524 13.4025 23.9999 11.7C25.4549 13.4025 27.5099 16.35 28.7924 20.55C29.7824 19.815 30.8324 19.1475 31.9349 18.5625C29.8199 12.3975 26.2874 8.73745 25.0424 7.58995ZM16.7999 39.9824C18.5174 40.4849 20.3249 40.7699 22.1999 40.7999H25.7999C27.6749 40.7699 29.4824 40.4924 31.1999 39.9824C39.5249 37.5299 45.5999 29.8275 45.5999 20.7075C45.5999 19.875 44.9249 19.2 44.0924 19.2C39.4649 19.2 34.9649 20.5425 31.1999 23.2575C28.0649 25.5075 25.5674 28.5824 23.9999 32.1599C22.4324 28.5824 19.9349 25.515 16.7999 23.2575C13.0349 20.55 8.5349 19.2 3.9074 19.2C3.0749 19.2 2.3999 19.875 2.3999 20.7075C2.3999 29.8275 8.4749 37.5299 16.7999 39.9824ZM16.7999 36.1949C11.1599 34.1174 6.9599 29.0474 6.1424 22.9049C10.2749 23.3474 13.9874 25.1925 16.7999 27.945C19.3124 30.4125 21.1049 33.6074 21.8399 37.1849C20.0774 37.1174 18.3824 36.7724 16.7999 36.1874V36.1949ZM31.1999 36.1949C29.6174 36.7724 27.9299 37.1249 26.1599 37.1924C26.8874 33.6074 28.6874 30.4125 31.1999 27.9525C34.0124 25.1925 37.7249 23.355 41.8574 22.9125C41.0399 29.0549 36.8474 34.125 31.1999 36.2025V36.1949Z" fill="#271332"/>
</svg>
