<svg width="48" height="48" viewBox="0 0 48 48" fill="none" xmlns="http://www.w3.org/2000/svg">
<path d="M29.3999 4.80005C30.3974 4.80005 31.1999 5.60255 31.1999 6.60005V8.02505C31.1999 11.0475 32.3999 13.95 34.5374 16.0875L36.1124 17.6625C37.5749 19.125 38.3999 21.105 38.3999 23.175V24.6C38.3999 25.5975 37.5974 26.4 36.5999 26.4C35.6024 26.4 34.7999 25.5975 34.7999 24.6V23.175C34.7999 22.0576 34.3574 20.9925 33.5699 20.205L31.9949 18.63C29.1824 15.8175 27.5999 12 27.5999 8.02505V6.60005C27.5999 5.60255 28.4024 4.80005 29.3999 4.80005ZM43.7999 26.4C42.8024 26.4 41.9999 25.5975 41.9999 24.6V23.175C41.9999 20.1525 40.7999 17.25 38.6624 15.1125L37.0874 13.5375C35.6249 12.075 34.7999 10.095 34.7999 8.02505V6.60005C34.7999 5.60255 35.6024 4.80005 36.5999 4.80005C37.5974 4.80005 38.3999 5.60255 38.3999 6.60005V8.02505C38.3999 9.14255 38.8424 10.2075 39.6299 10.995L41.2049 12.57C44.0174 15.3825 45.5999 19.2 45.5999 23.175V24.6C45.5999 25.5975 44.7974 26.4 43.7999 26.4ZM7.1999 34.8001C6.5399 34.8001 5.9999 35.34 5.9999 36V38.4001C5.9999 39.0601 6.5399 39.6001 7.1999 39.6001H22.7999V34.8001H7.1999ZM26.3999 39.6001H34.7999V34.8001H26.3999V39.6001ZM2.3999 36C2.3999 33.3526 4.5524 31.2001 7.1999 31.2001H35.9999C37.3274 31.2001 38.3999 32.2726 38.3999 33.6V40.8C38.3999 42.1276 37.3274 43.2001 35.9999 43.2001H7.1999C4.5524 43.2001 2.3999 41.0476 2.3999 38.4001V36ZM45.5999 33V41.4001C45.5999 42.3975 44.7974 43.2001 43.7999 43.2001C42.8024 43.2001 41.9999 42.3975 41.9999 41.4001V33C41.9999 32.0026 42.8024 31.2001 43.7999 31.2001C44.7974 31.2001 45.5999 32.0026 45.5999 33Z" fill="#271332"/>
</svg>
