<?xml version="1.0" encoding="UTF-8"?>
<!--
Soliguide: Useful information for those who need it

SPDX-FileCopyrightText: © 2025 Solinum

SPDX-License-Identifier: AGPL-3.0-only

This program is free software: you can redistribute it and/or modify
it under the terms of the GNU Affero General Public License as published
by the Free Software Foundation, either version 3 of the License, or
(at your option) any later version.

This program is distributed in the hope that it will be useful,
but WITHOUT ANY WARRANTY; without even the implied warranty of
MERCHANTABILITY or FITNESS FOR A PARTICULAR PURPOSE.  See the
GNU Affero General Public License for more details.

You should have received a copy of the GNU Affero General Public License
along with this program.  If not, see <https://www.gnu.org/licenses/>.
-->
<svg width="48" height="48" viewBox="0 0 48 48" fill="none" xmlns="http://www.w3.org/2000/svg">
<path d="M41 25.3674H44V31.3674H41V25.3674ZM36 25.3674H39V31.3674H36V25.3674ZM34 28.3674C34 26.7074 32.66 25.3674 31 25.3674H29.32L33.68 29.7274C33.88 29.3074 34 28.8474 34 28.3674ZM37.7 8.82737C38.46 8.06737 39.04 7.14737 39.38 6.12737C39.7 5.12737 39 4.10737 37.96 4.08737C37.28 4.10737 36.74 4.58737 36.52 5.24737C36.16 6.34737 35.28 7.22737 34.18 7.58737C33.5 7.80737 33 8.36737 33 9.06737V9.36737C33 10.1074 33.54 10.7474 34.28 10.8674C38.14 11.4874 41 14.8674 41 18.9074V21.8674C41 22.6874 41.68 23.3674 42.5 23.3674C43.32 23.3674 44 22.6874 44 21.8674V18.8874C44 14.4474 41.44 10.6074 37.7 8.82737ZM29.22 16.6674H32.06C34.16 16.6674 36 18.1474 36 20.7674V21.8674C36 22.6874 36.66 23.3674 37.5 23.3674H37.52C38.34 23.3674 39.02 22.7074 39.02 21.8674V20.0874C39.02 16.4674 35.82 13.7674 32.08 13.7674H29.48C27.44 13.7674 25.6 12.3074 25.34 10.2674C25.1 8.36737 26.26 6.86737 27.94 6.40737C28.58 6.22737 29.02 5.64737 29.02 4.96737C29.02 3.98737 28.1 3.24737 27.16 3.52737C24.32 4.34737 22.26 6.98737 22.32 10.0874C22.36 13.7874 25.54 16.6674 29.22 16.6674ZM8.24 9.94737C7.46 9.16737 6.2 9.16737 5.42 9.94737C4.64 10.7274 4.64 11.9874 5.42 12.7674L18 25.3674H7C5.34 25.3674 4 26.7074 4 28.3674C4 30.0274 5.34 31.3674 7 31.3674H24L36.58 43.9474C37.36 44.7274 38.62 44.7274 39.4 43.9474C40.18 43.1674 40.18 41.9074 39.4 41.1274L8.24 9.94737Z" fill="#404040"/>
</svg>
