<svg width="48" height="48" viewBox="0 0 48 48" fill="none" xmlns="http://www.w3.org/2000/svg">
<path d="M19.2 4.7999V10.7999H28.8V8.9999H34.2C35.1975 8.9999 36 8.1974 36 7.1999C36 6.2024 35.1975 5.3999 34.2 5.3999H28.8V4.7999C28.8 3.4724 27.7275 2.3999 26.4 2.3999H21.6C20.2725 2.3999 19.2 3.4724 19.2 4.7999ZM16.8 14.3999C14.1525 14.3999 12 16.5524 12 19.1999V38.3999C12 41.0474 14.1525 43.1999 16.8 43.1999H31.2C33.8475 43.1999 36 41.0474 36 38.3999V19.1999C36 16.5524 33.8475 14.3999 31.2 14.3999H16.8ZM21.6 23.3999C21.6 22.7399 22.14 22.1999 22.8 22.1999H25.2C25.86 22.1999 26.4 22.7399 26.4 23.3999V26.3999H29.4C30.06 26.3999 30.6 26.9399 30.6 27.5999V29.9999C30.6 30.6599 30.06 31.1999 29.4 31.1999H26.4V34.1999C26.4 34.8599 25.86 35.3999 25.2 35.3999H22.8C22.14 35.3999 21.6 34.8599 21.6 34.1999V31.1999H18.6C17.94 31.1999 17.4 30.6599 17.4 29.9999V27.5999C17.4 26.9399 17.94 26.3999 18.6 26.3999H21.6V23.3999Z" fill="#271332"/>
</svg>
