<svg width="48" height="48" viewBox="0 0 48 48" fill="none" xmlns="http://www.w3.org/2000/svg">
<path d="M9.5998 4.79999C6.9523 4.79999 4.7998 6.95249 4.7998 9.59999V38.4C4.7998 41.0475 6.9523 43.2 9.5998 43.2H23.0998C21.3973 40.8375 20.3998 37.935 20.3998 34.8C20.3998 27.255 26.2048 21.06 33.5998 20.4525V9.59999C33.5998 6.95249 31.4473 4.79999 28.7998 4.79999H9.5998ZM11.9998 16.2C11.9998 15.2025 12.8023 14.4 13.7998 14.4H24.5998C25.5973 14.4 26.3998 15.2025 26.3998 16.2C26.3998 17.1975 25.5973 18 24.5998 18H13.7998C12.8023 18 11.9998 17.1975 11.9998 16.2ZM11.9998 23.4C11.9998 22.4025 12.8023 21.6 13.7998 21.6H18.5998C19.5973 21.6 20.3998 22.4025 20.3998 23.4C20.3998 24.3975 19.5973 25.2 18.5998 25.2H13.7998C12.8023 25.2 11.9998 24.3975 11.9998 23.4ZM11.9998 30.6C11.9998 29.6025 12.8023 28.8 13.7998 28.8H16.1998C17.1973 28.8 17.9998 29.6025 17.9998 30.6C17.9998 31.5975 17.1973 32.4 16.1998 32.4H13.7998C12.8023 32.4 11.9998 31.5975 11.9998 30.6ZM34.7998 45.6C40.7623 45.6 45.5998 40.7625 45.5998 34.8C45.5998 28.8375 40.7623 24 34.7998 24C28.8373 24 23.9998 28.8375 23.9998 34.8C23.9998 40.7625 28.8373 45.6 34.7998 45.6ZM34.7998 28.5C35.6248 28.5 36.2998 29.175 36.2998 30C36.2998 30.825 35.6248 31.5 34.7998 31.5C33.9748 31.5 33.2998 30.825 33.2998 30C33.2998 29.175 33.9748 28.5 34.7998 28.5ZM32.3998 34.8C32.3998 34.14 32.9398 33.6 33.5998 33.6H34.7998C35.4598 33.6 35.9998 34.14 35.9998 34.8V38.4C36.6598 38.4 37.1998 38.94 37.1998 39.6C37.1998 40.26 36.6598 40.8 35.9998 40.8H33.5998C32.9398 40.8 32.3998 40.26 32.3998 39.6C32.3998 38.94 32.9398 38.4 33.5998 38.4V36C32.9398 36 32.3998 35.46 32.3998 34.8Z" fill="#271332"/>
</svg>
