<svg width="48" height="48" viewBox="0 0 48 48" fill="none" xmlns="http://www.w3.org/2000/svg">
<path d="M20.1973 16.8824C19.1023 10.6949 13.7023 5.9999 7.1998 5.9999H6.5998C5.6023 5.9999 4.7998 5.1974 4.7998 4.1999C4.7998 3.2024 5.6023 2.3999 6.5998 2.3999H7.1998C15.2773 2.3999 22.0123 8.0924 23.6323 15.6824L27.1573 19.2074C28.2148 20.2574 28.7998 21.6899 28.7998 23.1824C28.7998 26.0099 26.7148 28.3424 23.9998 28.7399V36.5999C23.9998 40.2449 21.0448 43.1999 17.3998 43.1999H6.5998C5.6023 43.1999 4.7998 42.3974 4.7998 41.3999C4.7998 40.4024 5.6023 39.5999 6.5998 39.5999H17.3998C19.0573 39.5999 20.3998 38.2574 20.3998 36.5999V35.9999L14.8198 35.5349C13.9048 35.4599 13.1998 34.6949 13.1998 33.7799C13.1998 32.9699 13.7473 32.2649 14.5348 32.0699L20.3998 30.6074V27.0074C20.3998 26.0099 21.2023 25.2074 22.1998 25.2074H23.1823C24.2998 25.2074 25.1998 24.2999 25.1998 23.1899C25.1998 22.6574 24.9898 22.1399 24.6073 21.7649L20.6998 17.8424C20.4373 17.5799 20.2648 17.2499 20.1973 16.8824ZM11.9998 17.9999C11.9998 16.6724 13.0723 15.5999 14.3998 15.5999C15.7273 15.5999 16.7998 16.6724 16.7998 17.9999C16.7998 19.3274 15.7273 20.3999 14.3998 20.3999C13.0723 20.3999 11.9998 19.3274 11.9998 17.9999ZM38.9998 26.3999C38.9998 25.4024 39.8023 24.5999 40.7998 24.5999C41.7973 24.5999 42.5998 25.4024 42.5998 26.3999C42.5998 27.3974 41.7973 28.1999 40.7998 28.1999C39.8023 28.1999 38.9998 27.3974 38.9998 26.3999ZM35.9998 28.1999C36.9973 28.1999 37.7998 29.0024 37.7998 29.9999C37.7998 30.9974 36.9973 31.7999 35.9998 31.7999C35.0023 31.7999 34.1998 30.9974 34.1998 29.9999C34.1998 29.0024 35.0023 28.1999 35.9998 28.1999ZM31.1998 31.7999C32.1973 31.7999 32.9998 32.6024 32.9998 33.5999C32.9998 34.5974 32.1973 35.3999 31.1998 35.3999C30.2023 35.3999 29.3998 34.5974 29.3998 33.5999C29.3998 32.6024 30.2023 31.7999 31.1998 31.7999ZM40.7998 31.7999C41.7973 31.7999 42.5998 32.6024 42.5998 33.5999C42.5998 34.5974 41.7973 35.3999 40.7998 35.3999C39.8023 35.3999 38.9998 34.5974 38.9998 33.5999C38.9998 32.6024 39.8023 31.7999 40.7998 31.7999ZM38.9998 40.7999C38.9998 39.8024 39.8023 38.9999 40.7998 38.9999C41.7973 38.9999 42.5998 39.8024 42.5998 40.7999C42.5998 41.7974 41.7973 42.5999 40.7998 42.5999C39.8023 42.5999 38.9998 41.7974 38.9998 40.7999ZM35.9998 35.3999C36.9973 35.3999 37.7998 36.2024 37.7998 37.1999C37.7998 38.1974 36.9973 38.9999 35.9998 38.9999C35.0023 38.9999 34.1998 38.1974 34.1998 37.1999C34.1998 36.2024 35.0023 35.3999 35.9998 35.3999Z" fill="#271332"/>
</svg>
