<?xml version="1.0" encoding="UTF-8"?>
<!--
Soliguide: Useful information for those who need it

SPDX-FileCopyrightText: © 2025 Solinum

SPDX-License-Identifier: AGPL-3.0-only

This program is free software: you can redistribute it and/or modify
it under the terms of the GNU Affero General Public License as published
by the Free Software Foundation, either version 3 of the License, or
(at your option) any later version.

This program is distributed in the hope that it will be useful,
but WITHOUT ANY WARRANTY; without even the implied warranty of
MERCHANTABILITY or FITNESS FOR A PARTICULAR PURPOSE.  See the
GNU Affero General Public License for more details.

You should have received a copy of the GNU Affero General Public License
along with this program.  If not, see <https://www.gnu.org/licenses/>.
-->
<svg version="1.1" width="667" height="667" xmlns="http://www.w3.org/2000/svg"><path d="M221.000 45.163 C 211.710 46.663,203.586 51.176,195.637 59.251 C 187.284 67.736,182.971 74.683,178.211 87.324 C 171.932 103.995,170.573 112.770,170.591 136.500 C 170.606 155.395,170.875 158.759,173.271 170.058 C 179.679 200.278,191.735 225.235,208.402 242.785 C 234.712 270.488,267.389 271.873,288.581 246.181 C 311.705 218.146,317.036 165.644,301.546 118.500 C 294.338 96.562,285.152 80.415,272.080 66.705 C 255.907 49.742,238.390 42.354,221.000 45.163 M436.951 45.104 C 400.454 50.195,368.135 98.088,362.020 156.143 C 358.509 189.478,365.588 222.686,380.551 243.069 C 392.266 259.029,410.090 267.091,426.984 264.072 C 461.487 257.906,491.414 215.519,500.111 160.500 C 501.995 148.579,501.721 120.451,499.615 109.626 C 491.020 65.443,467.172 40.888,436.951 45.104 M75.000 218.937 C 69.267 220.692,62.156 225.107,58.267 229.327 C 49.481 238.858,44.924 252.117,44.459 269.500 C 43.275 313.788,72.137 365.041,108.500 383.223 C 117.901 387.924,123.987 389.441,133.500 389.455 C 141.130 389.467,143.356 389.070,148.120 386.849 C 158.784 381.879,166.089 373.115,170.695 359.766 C 174.145 349.768,175.010 329.587,172.547 316.536 C 162.544 263.530,121.861 217.677,85.198 218.086 C 80.964 218.133,76.375 218.516,75.000 218.937 M565.000 225.549 C 526.130 236.372,490.086 289.388,488.547 338.000 C 487.293 377.631,508.415 401.352,539.201 394.887 C 557.922 390.956,579.526 374.063,594.715 351.478 C 608.669 330.730,617.890 303.194,618.181 281.407 C 618.550 253.746,610.192 235.623,593.241 227.329 C 586.293 223.930,573.672 223.135,565.000 225.549 M304.000 297.490 C 253.519 308.804,201.884 361.351,164.454 439.500 C 149.827 470.041,135.986 507.923,136.017 517.330 C 136.099 541.588,153.039 566.012,178.703 578.873 C 190.245 584.657,201.030 587.178,214.500 587.242 C 232.807 587.329,240.468 584.930,261.316 572.584 C 281.425 560.677,291.466 557.330,309.045 556.677 C 330.180 555.893,343.702 558.934,375.126 571.540 C 406.524 584.136,410.510 585.145,430.500 585.548 C 464.399 586.232,483.052 580.916,497.521 566.447 C 515.427 548.541,522.539 518.354,514.496 494.395 C 508.589 476.798,484.738 433.422,466.292 406.730 C 429.175 353.021,383.276 312.959,343.274 299.359 C 333.535 296.047,314.481 295.141,304.000 297.490 " stroke="none" fill="black" fill-rule="evenodd"/></svg>