<?xml version="1.0" encoding="UTF-8"?>
<!--
Soliguide: Useful information for those who need it

SPDX-FileCopyrightText: © 2025 Solinum

SPDX-License-Identifier: AGPL-3.0-only

This program is free software: you can redistribute it and/or modify
it under the terms of the GNU Affero General Public License as published
by the Free Software Foundation, either version 3 of the License, or
(at your option) any later version.

This program is distributed in the hope that it will be useful,
but WITHOUT ANY WARRANTY; without even the implied warranty of
MERCHANTABILITY or FITNESS FOR A PARTICULAR PURPOSE.  See the
GNU Affero General Public License for more details.

You should have received a copy of the GNU Affero General Public License
along with this program.  If not, see <https://www.gnu.org/licenses/>.
-->
<svg version="1.1" width="512" height="512" xmlns="http://www.w3.org/2000/svg"><path d="M242.251 9.516 C 230.275 12.118,222.708 17.813,217.309 28.287 C 213.491 35.696,212.904 49.229,215.890 61.036 C 218.474 71.253,218.481 70.714,215.750 71.572 C 211.637 72.863,202.783 79.089,197.833 84.171 C 188.647 93.602,181.563 105.761,176.041 121.572 C 173.074 130.069,172.665 130.681,168.451 132.917 C 162.836 135.896,156.923 142.268,153.379 149.160 C 151.141 153.513,150.558 156.163,150.222 163.500 C 149.745 173.925,151.742 180.787,157.394 188.150 L 160.707 192.465 157.403 198.482 C 148.580 214.552,148.291 227.227,155.159 296.886 L 158.352 329.271 155.652 348.386 C 154.167 358.899,151.084 377.850,148.801 390.500 C 142.494 425.453,143.154 437.015,152.578 456.681 C 163.404 479.272,182.795 491.540,211.500 493.957 C 243.542 496.656,289.548 496.172,309.969 492.921 C 336.987 488.621,361.258 466.373,366.610 441.000 C 368.794 430.646,368.066 423.615,362.001 396.500 C 355.999 369.662,352.384 349.132,351.425 336.437 C 350.659 326.290,351.318 319.457,357.013 278.500 C 361.700 244.792,363.357 226.552,362.463 218.500 C 361.588 210.620,358.519 201.559,354.917 196.222 L 352.018 191.926 355.426 186.972 C 360.707 179.294,362.312 173.278,361.784 163.140 C 361.044 148.922,354.166 138.310,341.718 132.182 C 335.471 129.107,335.299 128.916,334.142 123.768 C 332.448 116.229,327.065 104.371,321.618 96.178 C 316.205 88.035,305.212 77.442,298.524 73.924 C 294.823 71.977,294.030 71.106,294.498 69.500 C 299.092 53.704,299.012 39.855,294.267 29.826 C 292.621 26.347,289.525 21.751,287.387 19.613 C 277.656 9.882,259.383 5.795,242.251 9.516 M240.712 225.966 C 244.386 228.206,246.107 232.939,244.866 237.388 C 242.990 244.115,238.443 245.989,224.000 245.989 C 209.557 245.989,205.010 244.115,203.134 237.388 C 201.893 232.939,203.614 228.206,207.288 225.966 C 210.058 224.277,212.356 224.007,224.000 224.007 C 235.644 224.007,237.942 224.277,240.712 225.966 M238.904 278.265 C 245.770 281.794,247.283 290.176,242.006 295.458 L 238.967 298.500 225.234 298.775 C 210.348 299.073,208.219 298.556,204.683 293.792 C 200.825 288.595,203.278 280.528,209.500 277.954 C 212.751 276.609,236.164 276.857,238.904 278.265 M263.232 333.769 C 265.967 336.506,266.500 337.782,266.500 341.601 C 266.500 345.491,266.018 346.594,263.234 349.082 L 259.968 352.000 235.234 351.996 C 212.440 351.993,210.248 351.839,207.288 350.034 C 199.893 345.525,201.852 333.634,210.419 331.035 C 212.113 330.521,223.955 330.190,236.732 330.300 L 259.965 330.500 263.232 333.769 M238.904 374.265 C 245.770 377.794,247.283 386.176,242.006 391.458 L 238.967 394.500 225.234 394.775 C 210.348 395.073,208.219 394.556,204.683 389.792 C 200.825 384.595,203.278 376.528,209.500 373.954 C 212.751 372.609,236.164 372.857,238.904 374.265 M237.100 427.011 C 243.324 428.740,246.493 434.412,244.797 440.788 C 243.219 446.722,239.553 447.993,224.000 447.993 C 212.356 447.993,210.058 447.723,207.288 446.034 C 199.890 441.524,201.866 429.558,210.419 427.075 C 214.679 425.838,232.721 425.795,237.100 427.011 " stroke="none" fill="black" fill-rule="evenodd"/></svg>