<?xml version="1.0" encoding="UTF-8"?>
<!--
Soliguide: Useful information for those who need it

SPDX-FileCopyrightText: © 2025 Solinum

SPDX-License-Identifier: AGPL-3.0-only

This program is free software: you can redistribute it and/or modify
it under the terms of the GNU Affero General Public License as published
by the Free Software Foundation, either version 3 of the License, or
(at your option) any later version.

This program is distributed in the hope that it will be useful,
but WITHOUT ANY WARRANTY; without even the implied warranty of
MERCHANTABILITY or FITNESS FOR A PARTICULAR PURPOSE.  See the
GNU Affero General Public License for more details.

You should have received a copy of the GNU Affero General Public License
along with this program.  If not, see <https://www.gnu.org/licenses/>.
-->
<svg width="48" height="48" viewBox="0 0 48 48" fill="none" xmlns="http://www.w3.org/2000/svg">
<path d="M22.0002 40C22.5525 40 23.0002 40.4477 23.0002 41C23.0002 41.5523 22.5525 42 22.0002 42H20.0002C19.448 42 19.0002 41.5523 19.0002 41C19.0002 40.4477 19.448 40 20.0002 40H22.0002Z" fill="#271332"/>
<path d="M22.0002 35C22.5525 35 23.0002 35.4477 23.0002 36C23.0002 36.5523 22.5525 37 22.0002 37H20.0002C19.448 37 19.0002 36.5523 19.0002 36C19.0002 35.4477 19.448 35 20.0002 35H22.0002Z" fill="#271332"/>
<path d="M24.0002 31C24.5525 31 25.0002 31.4477 25.0002 32C25.0002 32.5523 24.5525 33 24.0002 33H20.0002C19.448 33 19.0002 32.5523 19.0002 32C19.0002 31.4477 19.448 31 20.0002 31H24.0002Z" fill="#271332"/>
<path d="M22.0002 26C22.5525 26 23.0002 26.4477 23.0002 27C23.0002 27.5523 22.5525 28 22.0002 28H20.0002C19.448 28 19.0002 27.5523 19.0002 27C19.0002 26.4477 19.448 26 20.0002 26H22.0002Z" fill="#271332"/>
<path d="M22.0002 21C22.5525 21 23.0002 21.4477 23.0002 22C23.0002 22.5523 22.5525 23 22.0002 23H20.0002C19.448 23 19.0002 22.5523 19.0002 22C19.0002 21.4477 19.448 21 20.0002 21H22.0002Z" fill="#271332"/>
<path fill-rule="evenodd" clip-rule="evenodd" d="M23.9182 0.75C25.0196 0.75 25.9483 1.00237 26.6575 1.54688C27.377 2.09933 27.7265 2.84129 27.8704 3.53711C28.1398 4.84045 27.7344 6.18379 27.5676 6.67285C27.5659 6.67793 27.5625 6.68244 27.5608 6.6875C28.6766 7.19988 29.542 8.08314 30.1516 8.97852C30.8259 9.96897 31.2898 11.121 31.468 12.1357C32.9303 12.5555 34.0002 13.9027 34.0002 15.5C34.0002 16.4638 33.61 17.3358 32.9797 17.9688C33.5057 18.5807 33.8739 19.3805 33.9846 20.3633C34.058 21.015 33.9987 21.9118 33.9094 22.7949C33.8161 23.7179 33.6723 24.7762 33.5256 25.8145C33.2201 27.9783 33.04 30.0864 33.04 31C33.0401 32.0955 33.1852 33.534 33.5159 35.1641C33.6777 35.9618 33.8506 36.7369 34.0061 37.4248C34.1589 38.101 34.3003 38.7173 34.3899 39.1592C34.997 42.1526 33.1047 45.1402 29.4885 46.1592L29.4075 46.1816L29.3245 46.1953C26.5752 46.6471 21.6452 46.5501 18.6711 46.2051L18.5774 46.1943L18.4856 46.1719L18.0872 46.0615C16.1468 45.469 14.9706 44.2291 14.3079 42.9268C13.6296 41.594 13.5029 40.2532 13.5 39.5C13.5021 39.3068 13.5487 38.9832 13.5754 38.8145C13.6126 38.5798 13.6645 38.2737 13.7248 37.9238C13.847 37.2157 14.0054 36.3173 14.1653 35.3721C14.4966 33.4129 14.7843 31.519 14.7844 30.8359C14.7844 30.0912 14.5568 28.2144 14.344 26.0166C14.242 24.9633 14.1485 23.8721 14.1028 22.8975C14.0584 21.9527 14.0527 21.0087 14.1633 20.2998C14.3077 19.3744 14.6403 18.6242 15.0959 18.042C14.4217 17.404 14.0002 16.5015 14.0002 15.5C14.0002 14.0223 14.9162 12.7594 16.2112 12.2461C16.4254 11.4885 16.8304 10.2591 17.5491 9.12305C18.1842 8.11905 19.1351 7.08821 20.4817 6.57812C20.2712 6.01796 19.9467 4.96547 20.0256 3.90527C20.0794 3.18348 20.3298 2.33911 21.0442 1.6875C21.7549 1.03932 22.741 0.750003 23.9182 0.75ZM18.2834 19.501C18.1867 19.4924 17.9279 19.5183 17.6946 19.6729C17.516 19.7912 17.2372 20.0571 17.1272 20.7617C17.0672 21.1464 17.0553 21.8273 17.0989 22.7568C17.1411 23.6562 17.2297 24.6886 17.3303 25.7275C17.5227 27.7147 17.7844 29.8983 17.7844 30.8359C17.7843 31.8358 17.4329 34.0415 17.1233 35.8721C16.9626 36.8221 16.8001 37.7427 16.6809 38.4336C16.6207 38.7828 16.5113 39.1746 16.5 39.5C16.4887 39.8254 16.607 40.8319 16.9807 41.5664C17.3334 42.2594 17.9427 42.923 19.1223 43.2363C21.9238 43.5502 26.3894 43.6165 28.7532 43.2471C30 43 31.035 42 31.5 40.5C31.6262 40.093 31.5366 39.1592 31.468 37.9238C31.4287 37.2156 31.0938 36.2038 30.925 35.3721C30.5946 33.7428 30.5001 32.428 30.5 31C30.5 29.8107 30.8893 27.7313 31.035 25.7275C31.1131 24.6532 31.1131 23.8885 31.1131 22.7949C31.1131 21.7444 31.0363 20.994 31.0032 20.6992C30.9427 20.1622 30.581 19.8164 30.387 19.6729C30.152 19.4991 29.9868 19.5068 29.7209 19.5068L18.2834 19.501ZM17.5002 15C17.2241 15 17.0002 15.2239 17.0002 15.5C17.0002 15.7761 17.2241 16 17.5002 16H30.5002C30.7764 16 31.0002 15.7761 31.0002 15.5C31.0002 15.2239 30.7764 15 30.5002 15H17.5002ZM24 3C23.2097 3 22.8298 3.44213 22.7288 3.53418C22.6316 3.62278 22.5421 3.77763 22.5188 4.09082C22.4511 5 22.8811 5.72749 23 6L23.4182 6.94141C23.6117 7.3288 23.5912 7.78883 23.3635 8.15723C23.1359 8.52562 22.7188 8.5 22.5 8.5C21.353 8.5 20.3185 9.42271 19.6623 10.46C19.3966 10.8801 19.184 11.3272 19.0139 11.75H28.7805C28.6221 11.3137 28.3932 10.8372 28.0852 10.3848C27.4317 9.42503 26.3963 8.57242 25.5 8.5C25.1554 8.47216 24.9274 8.47749 24.7229 8.11816C24.5185 7.75855 24.5045 7.32057 24.6868 6.94922L25 6C25.1465 5.57035 25.5673 5 25.5 4.09082C25.5 3.86814 25.3385 3.55452 25.2024 3.45004C25 3.29465 24.7338 3 24 3Z" fill="#271332"/>
</svg>
