<svg width="48" height="48" viewBox="0 0 48 48" fill="none" xmlns="http://www.w3.org/2000/svg">
<path d="M9.6001 20.4V26.4C9.6001 30.375 12.8251 33.6 16.8001 33.6H31.2001C35.1751 33.6 38.4001 30.375 38.4001 26.4V18H41.4001C42.3976 18 43.2001 17.1975 43.2001 16.2C43.2001 15.2025 42.3976 14.4 41.4001 14.4H36.6001C35.6026 14.4 34.8001 15.2025 34.8001 16.2V20.4H9.6001ZM9.6151 16.8H26.4001V7.19999C26.4001 5.87249 25.3276 4.79999 24.0001 4.79999H22.2001C15.4426 4.79999 9.9301 10.1175 9.6151 16.8ZM16.8001 39.6C16.8001 37.6125 15.1876 36 13.2001 36C11.2126 36 9.6001 37.6125 9.6001 39.6C9.6001 41.5875 11.2126 43.2 13.2001 43.2C15.1876 43.2 16.8001 41.5875 16.8001 39.6ZM38.4001 39.6C38.4001 37.6125 36.7876 36 34.8001 36C32.8126 36 31.2001 37.6125 31.2001 39.6C31.2001 41.5875 32.8126 43.2 34.8001 43.2C36.7876 43.2 38.4001 41.5875 38.4001 39.6Z" fill="#271332"/>
</svg>
