<?xml version="1.0" encoding="UTF-8"?>
<!--
Soliguide: Useful information for those who need it

SPDX-FileCopyrightText: © 2025 Solinum

SPDX-License-Identifier: AGPL-3.0-only

This program is free software: you can redistribute it and/or modify
it under the terms of the GNU Affero General Public License as published
by the Free Software Foundation, either version 3 of the License, or
(at your option) any later version.

This program is distributed in the hope that it will be useful,
but WITHOUT ANY WARRANTY; without even the implied warranty of
MERCHANTABILITY or FITNESS FOR A PARTICULAR PURPOSE.  See the
GNU Affero General Public License for more details.

You should have received a copy of the GNU Affero General Public License
along with this program.  If not, see <https://www.gnu.org/licenses/>.
-->
<svg width="48" height="48" viewBox="0 0 48 48" fill="none" xmlns="http://www.w3.org/2000/svg">
<path d="M29 23.5C30.3807 23.5 31.5 22.3807 31.5 21C31.5 19.6193 30.3807 18.5 29 18.5C27.6193 18.5 26.5 19.6193 26.5 21C26.5 22.3807 27.6193 23.5 29 23.5Z" fill="#404040"/>
<path d="M19 23.5C20.3807 23.5 21.5 22.3807 21.5 21C21.5 19.6193 20.3807 18.5 19 18.5C17.6193 18.5 16.5 19.6193 16.5 21C16.5 22.3807 17.6193 23.5 19 23.5Z" fill="#404040"/>
<path d="M45.88 22.68C45.38 19.66 43.16 17.2 40.26 16.34C39.2 14.1 37.7 12.14 35.88 10.52C32.72 7.7 28.56 6 24 6C19.44 6 15.28 7.7 12.12 10.52C10.28 12.14 8.78 14.12 7.74 16.34C4.84 17.2 2.62 19.64 2.12 22.68C2.04 23.1 2 23.54 2 24C2 24.46 2.04 24.9 2.12 25.32C2.62 28.34 4.84 30.8 7.74 31.66C8.78 33.88 10.28 35.84 12.08 37.44C15.24 40.28 19.42 42 24 42C28.58 42 32.76 40.28 35.94 37.44C37.74 35.84 39.24 33.86 40.28 31.66C43.16 30.8 45.38 28.36 45.88 25.32C45.96 24.9 46 24.46 46 24C46 23.54 45.96 23.1 45.88 22.68ZM38 28C37.8 28 37.62 27.96 37.42 27.94C37.02 29.28 36.44 30.52 35.7 31.66C33.2 35.48 28.9 38 24 38C19.1 38 14.8 35.48 12.3 31.66C11.56 30.52 10.98 29.28 10.58 27.94C10.38 27.96 10.2 28 10 28C7.8 28 6 26.2 6 24C6 21.8 7.8 20 10 20C10.2 20 10.38 20.04 10.58 20.06C10.98 18.72 11.56 17.48 12.3 16.34C14.8 12.52 19.1 10 24 10C28.9 10 33.2 12.52 35.7 16.34C36.44 17.48 37.02 18.72 37.42 20.06C37.62 20.04 37.8 20 38 20C40.2 20 42 21.8 42 24C42 26.2 40.2 28 38 28ZM24 34C28.02 34 31.48 31.54 33 28H15C16.52 31.54 19.98 34 24 34Z" fill="#404040"/>
</svg>
