<svg width="48" height="48" viewBox="0 0 48 48" fill="none" xmlns="http://www.w3.org/2000/svg">
<path d="M21.3452 6.1275L21.6002 6V4.8C21.6002 3.4725 22.6727 2.4 24.0002 2.4C25.3277 2.4 26.4002 3.4725 26.4002 4.8V6L26.6552 6.1275C27.9677 6.7875 28.8002 8.13 28.8002 9.6C30.1277 9.6 31.2002 10.6725 31.2002 12V15.6L33.2627 19.035C34.2677 20.715 34.8002 22.635 34.8002 24.5925V40.8C34.8002 43.4475 32.6477 45.6 30.0002 45.6H18.0002C15.3527 45.6 13.2002 43.4475 13.2002 40.8V24.5925C13.2002 22.635 13.7327 20.715 14.7377 19.035L16.8002 15.6V12C16.8002 10.6725 17.8727 9.6 19.2002 9.6C19.2002 8.13 20.0327 6.7875 21.3452 6.1275ZM31.2002 40.8V24.5925C31.2002 23.2875 30.8477 22.005 30.1727 20.8875L29.1602 19.2H18.8402L17.8277 20.8875C17.1527 22.005 16.8002 23.2875 16.8002 24.5925V25.2H19.8002C20.7977 25.2 21.6002 26.0025 21.6002 27C21.6002 27.9975 20.7977 28.8 19.8002 28.8H16.8002V33.6H19.8002C20.7977 33.6 21.6002 34.4025 21.6002 35.4C21.6002 36.3975 20.7977 37.2 19.8002 37.2H16.8002V40.8C16.8002 41.46 17.3402 42 18.0002 42H30.0002C30.6602 42 31.2002 41.46 31.2002 40.8Z" fill="#271332"/>
</svg>
