<svg width="48" height="48" viewBox="0 0 48 48" fill="none" xmlns="http://www.w3.org/2000/svg">
<path d="M28.8001 19.2H26.4001V7.19999C26.4001 5.87249 25.3276 4.79999 24.0001 4.79999H22.2001C15.2401 4.79999 9.6001 10.44 9.6001 17.4V26.4C9.6001 30.375 12.8251 33.6 16.8001 33.6H31.2001C35.1751 33.6 38.4001 30.375 38.4001 26.4V18H41.4001C42.3976 18 43.2001 17.1975 43.2001 16.2C43.2001 15.2025 42.3976 14.4 41.4001 14.4H36.6001C35.6026 14.4 34.8001 15.2025 34.8001 16.2V19.2H28.8001ZM34.8001 22.8V26.4C34.8001 28.3875 33.1876 30 31.2001 30H16.8001C14.8126 30 13.2001 28.3875 13.2001 26.4V22.8H34.8001ZM22.8001 8.39999V19.2H13.2001V17.4C13.2001 12.4275 17.2276 8.39999 22.2001 8.39999H22.8001ZM13.2001 43.2C15.1876 43.2 16.8001 41.5875 16.8001 39.6C16.8001 37.6125 15.1876 36 13.2001 36C11.2126 36 9.6001 37.6125 9.6001 39.6C9.6001 41.5875 11.2126 43.2 13.2001 43.2ZM34.8001 43.2C36.7876 43.2 38.4001 41.5875 38.4001 39.6C38.4001 37.6125 36.7876 36 34.8001 36C32.8126 36 31.2001 37.6125 31.2001 39.6C31.2001 41.5875 32.8126 43.2 34.8001 43.2Z" fill="#271332"/>
</svg>
