<?xml version="1.0" encoding="UTF-8"?>
<!--
Soliguide: Useful information for those who need it

SPDX-FileCopyrightText: © 2025 Solinum

SPDX-License-Identifier: AGPL-3.0-only

This program is free software: you can redistribute it and/or modify
it under the terms of the GNU Affero General Public License as published
by the Free Software Foundation, either version 3 of the License, or
(at your option) any later version.

This program is distributed in the hope that it will be useful,
but WITHOUT ANY WARRANTY; without even the implied warranty of
MERCHANTABILITY or FITNESS FOR A PARTICULAR PURPOSE.  See the
GNU Affero General Public License for more details.

You should have received a copy of the GNU Affero General Public License
along with this program.  If not, see <https://www.gnu.org/licenses/>.
-->
<svg width="48" height="48" viewBox="0 0 48 48" fill="none" xmlns="http://www.w3.org/2000/svg">
<path fill-rule="evenodd" clip-rule="evenodd" d="M23.918 0.75C25.0194 0.75 25.948 1.00237 26.6572 1.54688C27.3768 2.09933 27.7262 2.84129 27.8701 3.53711C28.1396 4.84045 27.7342 6.18379 27.5674 6.67285C27.5657 6.67793 27.5623 6.68244 27.5605 6.6875C28.6764 7.19988 29.5417 8.08314 30.1514 8.97852C30.8257 9.96897 31.2896 11.121 31.4678 12.1357C32.93 12.5556 34 13.9028 34 15.5C34 16.4638 33.6097 17.3358 32.9795 17.9688C33.5054 18.5807 33.8737 19.3805 33.9844 20.3633C34.0577 21.015 33.9984 21.9118 33.9092 22.7949C33.8159 23.7179 33.672 24.7762 33.5254 25.8145C33.2198 27.9783 32.9268 29.9223 32.9268 30.8359C32.9268 31.9314 33.185 33.534 33.5156 35.1641C33.6774 35.9618 33.8504 36.7369 34.0059 37.4248C34.1587 38.101 34.5 39.3408 34.5 40C34.5 43.5 33.1045 45.1402 29.4883 46.1592L29.4072 46.1816L29.3242 46.1953C26.575 46.6471 21.645 46.5501 18.6709 46.2051L18.5771 46.1943L18.4854 46.1719L18.0869 46.0615C16.1465 45.469 14.9704 44.2291 14.3076 42.9268C13.6294 41.594 13.5029 40.2532 13.5 39.5C13.4997 39.418 13.5485 38.9832 13.5752 38.8145C13.6124 38.5798 13.6643 38.2737 13.7246 37.9238C13.8467 37.2157 14.0052 36.3173 14.165 35.3721C14.4964 33.4129 14.7841 31.519 14.7842 30.8359C14.7842 30.0912 14.5565 28.2144 14.3438 26.0166C14.2418 24.9633 14.1483 23.8721 14.1025 22.8975C14.0582 21.9527 14.0525 21.0087 14.1631 20.2998C14.3075 19.3744 14.6401 18.6242 15.0957 18.042C14.4214 17.404 14 16.5015 14 15.5C14 14.0222 14.9159 12.7584 16.2109 12.2451C16.4253 11.4874 16.8305 10.2587 17.5488 9.12305C18.1839 8.11905 19.1349 7.08821 20.4814 6.57812C20.2709 6.01796 19.9465 4.96547 20.0254 3.90527C20.0791 3.18348 20.3295 2.33911 21.0439 1.6875C21.7546 1.03932 22.7407 0.750003 23.918 0.75ZM20 40C19.4477 40 19 40.4477 19 41C19 41.5523 19.4477 42 20 42H22C22.5523 42 23 41.5523 23 41C23 40.4477 22.5523 40 22 40H20ZM20 35C19.4477 35 19 35.4477 19 36C19 36.5523 19.4477 37 20 37H22C22.5523 37 23 36.5523 23 36C23 35.4477 22.5523 35 22 35H20ZM20 31C19.4477 31 19 31.4477 19 32C19 32.5523 19.4477 33 20 33H24C24.5523 33 25 32.5523 25 32C25 31.4477 24.5523 31 24 31H20ZM20 26C19.4477 26 19 26.4477 19 27C19 27.5523 19.4477 28 20 28H22C22.5523 28 23 27.5523 23 27C23 26.4477 22.5523 26 22 26H20ZM20 21C19.4477 21 19 21.4477 19 22C19 22.5523 19.4477 23 20 23H22C22.5523 23 23 22.5523 23 22C23 21.4477 22.5523 21 22 21H20Z" fill="#271332"/>
</svg>
