<?xml version="1.0" encoding="UTF-8"?>
<!--
Soliguide: Useful information for those who need it

SPDX-FileCopyrightText: © 2025 Solinum

SPDX-License-Identifier: AGPL-3.0-only

This program is free software: you can redistribute it and/or modify
it under the terms of the GNU Affero General Public License as published
by the Free Software Foundation, either version 3 of the License, or
(at your option) any later version.

This program is distributed in the hope that it will be useful,
but WITHOUT ANY WARRANTY; without even the implied warranty of
MERCHANTABILITY or FITNESS FOR A PARTICULAR PURPOSE.  See the
GNU Affero General Public License for more details.

You should have received a copy of the GNU Affero General Public License
along with this program.  If not, see <https://www.gnu.org/licenses/>.
-->
<svg version="1.1" width="667" height="667" xmlns="http://www.w3.org/2000/svg"><path d="M322.460 79.528 C 312.578 80.965,303.327 83.992,295.764 88.262 C 292.610 90.043,268.535 108.409,242.264 129.076 C 154.069 198.459,52.635 278.243,36.764 290.715 C 28.109 297.516,20.501 304.064,19.857 305.267 C 17.655 309.381,17.087 314.223,18.369 317.945 C 20.039 322.793,45.405 352.490,49.559 354.461 C 53.318 356.245,57.731 356.433,61.568 354.974 C 63.052 354.410,74.894 345.488,87.883 335.147 C 100.872 324.806,134.675 297.954,163.000 275.474 C 277.875 184.308,321.805 149.453,327.733 144.775 L 333.965 139.856 426.733 214.133 C 477.755 254.986,537.500 302.861,559.500 320.522 C 581.500 338.184,600.669 353.398,602.097 354.332 C 605.491 356.551,613.724 356.711,617.735 354.637 C 622.469 352.189,647.057 322.680,648.057 318.247 C 649.087 313.679,647.772 306.464,645.357 303.435 C 644.336 302.154,613.575 276.936,577.000 247.395 C 495.340 181.440,474.708 164.758,433.126 131.063 C 415.182 116.523,397.397 102.221,393.605 99.281 C 372.283 82.751,347.533 75.880,322.460 79.528 M267.000 213.555 C 230.975 242.413,174.801 287.282,142.169 313.262 L 82.838 360.500 83.477 460.000 C 84.176 568.770,83.961 565.069,90.139 574.396 C 93.722 579.805,101.337 585.206,107.856 586.961 C 111.960 588.066,371.185 587.760,506.194 586.491 C 555.079 586.031,557.094 585.937,562.663 583.853 C 570.508 580.918,577.915 573.478,580.966 565.469 L 583.239 559.500 582.597 460.045 C 582.243 405.344,581.593 360.344,581.152 360.045 C 580.712 359.745,565.309 347.316,546.925 332.425 C 412.083 223.201,334.699 161.006,333.687 161.042 C 333.034 161.065,303.025 184.696,267.000 213.555 M407.170 251.982 C 446.952 284.147,496.938 324.560,518.250 341.787 L 557.000 373.111 556.994 421.805 C 556.991 448.587,557.274 489.699,557.624 513.165 L 558.260 555.831 555.676 558.415 L 553.091 561.000 510.295 561.007 C 486.758 561.011,434.200 561.231,393.500 561.496 C 129.118 563.218,114.472 563.203,111.996 561.198 C 109.114 558.864,109.356 566.943,108.954 459.632 L 108.629 372.763 117.565 365.518 C 158.331 332.465,333.616 193.044,334.154 193.245 C 334.532 193.385,367.389 219.817,407.170 251.982 M327.357 279.042 C 312.780 281.064,299.802 292.298,295.334 306.760 C 293.392 313.045,293.453 324.388,295.459 329.967 C 302.982 350.895,323.118 361.562,344.415 355.903 C 355.574 352.937,366.812 342.086,370.340 330.869 C 374.935 316.261,372.024 302.658,361.941 291.625 C 353.128 281.983,340.162 277.266,327.357 279.042 M239.169 337.016 C 230.592 338.984,226.168 349.623,230.468 357.939 C 232.777 362.403,247.430 375.513,257.837 382.426 C 268.185 389.299,280.269 395.631,288.716 398.607 L 293.932 400.445 294.216 423.792 L 294.500 447.140 280.096 460.800 C 272.173 468.312,264.862 475.819,263.849 477.480 C 261.481 481.363,261.509 485.683,263.928 489.650 C 266.591 494.017,296.300 523.075,300.264 525.190 C 309.022 529.863,319.809 524.864,321.603 515.302 C 322.860 508.604,320.831 505.154,309.363 494.490 L 298.678 484.554 307.006 476.820 L 315.333 469.085 333.190 468.792 L 351.046 468.500 359.073 476.571 L 367.099 484.641 356.629 494.690 C 344.058 506.755,342.435 510.131,345.580 517.685 C 346.636 520.220,348.704 523.191,350.176 524.287 C 353.953 527.100,361.637 527.606,365.738 525.312 C 370.216 522.806,400.523 492.823,402.560 488.883 C 403.673 486.732,404.046 484.328,403.692 481.587 C 403.211 477.869,401.756 476.129,387.564 462.304 L 371.964 447.108 372.232 423.479 L 372.500 399.851 379.657 397.067 C 396.599 390.477,423.380 372.984,433.905 361.634 C 436.274 359.080,437.858 352.708,437.208 348.352 C 436.633 344.500,430.859 338.953,426.396 337.964 C 420.417 336.640,416.945 338.042,408.220 345.299 C 391.509 359.199,372.135 369.879,356.000 374.086 C 344.235 377.153,326.086 377.807,315.005 375.561 C 293.566 371.217,275.669 361.482,256.089 343.513 C 252.186 339.931,248.431 336.967,247.746 336.926 C 247.061 336.885,245.600 336.717,244.500 336.552 C 243.400 336.387,241.001 336.596,239.169 337.016 M366.000 426.966 C 367.191 426.993,367.564 428.788,367.811 435.671 L 368.122 444.342 358.330 454.171 L 348.538 464.000 332.943 464.000 L 317.349 464.000 308.242 454.155 L 299.135 444.310 298.923 436.293 C 298.807 431.884,298.959 427.876,299.261 427.388 C 299.668 426.730,343.897 426.450,366.000 426.966 " stroke="none" fill="black" fill-rule="evenodd"/></svg>