<svg width="48" height="48" viewBox="0 0 48 48" fill="none" xmlns="http://www.w3.org/2000/svg">
<path d="M21.3452 6.1275L21.6002 6V4.8C21.6002 3.4725 22.6727 2.4 24.0002 2.4C25.3277 2.4 26.4002 3.4725 26.4002 4.8V6L26.6552 6.1275C27.9677 6.7875 28.8002 8.13 28.8002 9.6C30.1277 9.6 31.2002 10.6725 31.2002 12V13.2H16.8002V12C16.8002 10.6725 17.8727 9.6 19.2002 9.6C19.2002 8.13 20.0327 6.7875 21.3452 6.1275ZM13.2002 25.2C13.2002 22.86 13.9577 20.5875 15.3602 18.72L16.8002 16.8H31.2002L32.6402 18.72C34.0427 20.5875 34.8002 22.86 34.8002 25.2V40.8C34.8002 43.4475 32.6477 45.6 30.0002 45.6H18.0002C15.3527 45.6 13.2002 43.4475 13.2002 40.8V38.4H19.8002C20.7977 38.4 21.6002 37.5975 21.6002 36.6C21.6002 35.6025 20.7977 34.8 19.8002 34.8H13.2002V30H19.8002C20.7977 30 21.6002 29.1975 21.6002 28.2C21.6002 27.2025 20.7977 26.4 19.8002 26.4H13.2002V25.2Z" fill="#271332"/>
</svg>
