<svg width="48" height="48" viewBox="0 0 48 48" fill="none" xmlns="http://www.w3.org/2000/svg">
<path d="M16.7999 9.60002C16.7999 5.62502 20.0249 2.40002 23.9999 2.40002C27.9749 2.40002 31.1999 5.62502 31.1999 9.60002C31.1999 13.575 27.9749 16.8 23.9999 16.8C20.0249 16.8 16.7999 13.575 16.7999 9.60002ZM5.3999 26.2875C5.3999 20.82 8.9249 16.2975 14.0174 13.725C14.4824 14.85 15.1349 15.8775 15.9299 16.77C11.6624 18.8475 8.9999 22.485 8.9999 26.2875C8.9999 29.7225 11.0849 32.835 14.6924 34.8825C15.2549 35.205 15.5999 35.7975 15.5999 36.45V39C15.5999 39.33 15.8699 39.6 16.1999 39.6H18.4574C18.6749 39.6 18.8774 39.48 18.9824 39.285L19.6874 37.98C20.0399 37.3275 20.7524 36.96 21.4874 37.05C22.3049 37.1475 23.1449 37.2 24.0074 37.2C24.8699 37.2 25.7099 37.1475 26.5274 37.05C27.2624 36.96 27.9749 37.335 28.3274 37.98L29.0324 39.285C29.1374 39.48 29.3399 39.6 29.5574 39.6H31.8149C32.1449 39.6 32.4149 39.33 32.4149 39V36.45C32.4149 35.805 32.7599 35.205 33.3224 34.8825C34.3424 34.305 35.2424 33.6375 36.0074 32.895C36.3449 32.5725 36.7874 32.3925 37.2524 32.3925H42.0074V25.1925H40.3949C39.5924 25.1925 38.8874 24.66 38.6624 23.895C38.4374 23.13 38.1149 22.3875 37.6874 21.675C37.4249 21.2325 37.3574 20.7 37.5149 20.2125L38.9549 15.6H38.3999C37.0349 15.6 35.7974 16.1025 34.8449 16.935C34.2749 17.43 33.4574 17.52 32.7974 17.16C32.5574 17.0325 32.3174 16.905 32.0699 16.785C33.0374 15.705 33.7874 14.4225 34.2524 13.0125C35.4974 12.3675 36.9074 12 38.3999 12H39.7649C41.7899 12 43.2299 13.965 42.6299 15.8925L41.1749 20.55C41.3549 20.895 41.5124 21.24 41.6624 21.6H41.9999C43.9874 21.6 45.5999 23.2125 45.5999 25.2V32.4C45.5999 34.3875 43.9874 36 41.9999 36H37.9424C37.3424 36.525 36.6899 37.02 35.9999 37.4625V39C35.9999 41.3175 34.1174 43.2 31.7999 43.2H29.5424C27.9974 43.2 26.5799 42.3525 25.8449 40.995L25.7099 40.74C24.5849 40.815 23.4074 40.815 22.2824 40.74L22.1474 40.995C21.4124 42.3525 19.9949 43.2 18.4499 43.2H16.1999C13.8824 43.2 11.9999 41.3175 11.9999 39V37.4625C8.0699 34.9125 5.3999 30.9825 5.3999 26.2875ZM34.1999 25.2C35.1974 25.2 35.9999 26.0025 35.9999 27C35.9999 27.9975 35.1974 28.8 34.1999 28.8C33.2024 28.8 32.3999 27.9975 32.3999 27C32.3999 26.0025 33.2024 25.2 34.1999 25.2ZM18.5999 19.2H29.3999C30.3974 19.2 31.1999 20.0025 31.1999 21C31.1999 21.9975 30.3974 22.8 29.3999 22.8H18.5999C17.6024 22.8 16.7999 21.9975 16.7999 21C16.7999 20.0025 17.6024 19.2 18.5999 19.2Z" fill="#271332"/>
</svg>
