<?xml version="1.0" encoding="UTF-8"?>
<!--
Soliguide: Useful information for those who need it

SPDX-FileCopyrightText: © 2025 Solinum

SPDX-License-Identifier: AGPL-3.0-only

This program is free software: you can redistribute it and/or modify
it under the terms of the GNU Affero General Public License as published
by the Free Software Foundation, either version 3 of the License, or
(at your option) any later version.

This program is distributed in the hope that it will be useful,
but WITHOUT ANY WARRANTY; without even the implied warranty of
MERCHANTABILITY or FITNESS FOR A PARTICULAR PURPOSE.  See the
GNU Affero General Public License for more details.

You should have received a copy of the GNU Affero General Public License
along with this program.  If not, see <https://www.gnu.org/licenses/>.
-->
<svg width="48" height="48" viewBox="0 0 48 48" fill="none" xmlns="http://www.w3.org/2000/svg">
<path d="M39.66 16.0001L35.12 11.4601C35.26 10.6201 35.48 9.84014 35.76 9.16014C35.98 8.64014 36.06 8.04014 35.94 7.42014C35.68 5.98014 34.28 4.98014 32.8 5.00014C29.62 5.06014 26.8 6.62014 25 9.00014H15C8.92 9.00014 4 13.9201 4 20.0001C4 24.5001 6.74 34.9601 8.16 40.0801C8.64 41.8001 10.22 43.0001 12.02 43.0001H16C18.2 43.0001 20 41.2001 20 39.0001H24C24 41.2001 25.8 43.0001 28 43.0001H32.02C33.78 43.0001 35.34 41.8401 35.86 40.1401L38.36 31.8201L42.64 30.3801C43.46 30.1001 44 29.3401 44 28.4801V18.0001C44 16.9001 43.1 16.0001 42 16.0001H39.66ZM24 19.0001H18C16.9 19.0001 16 18.1001 16 17.0001C16 15.9001 16.9 15.0001 18 15.0001H24C25.1 15.0001 26 15.9001 26 17.0001C26 18.1001 25.1 19.0001 24 19.0001ZM32 23.0001C30.9 23.0001 30 22.1001 30 21.0001C30 19.9001 30.9 19.0001 32 19.0001C33.1 19.0001 34 19.9001 34 21.0001C34 22.1001 33.1 23.0001 32 23.0001Z" fill="#404040"/>
</svg>
