<?xml version="1.0" encoding="UTF-8"?>
<!--
Soliguide: Useful information for those who need it

SPDX-FileCopyrightText: © 2025 Solinum

SPDX-License-Identifier: AGPL-3.0-only

This program is free software: you can redistribute it and/or modify
it under the terms of the GNU Affero General Public License as published
by the Free Software Foundation, either version 3 of the License, or
(at your option) any later version.

This program is distributed in the hope that it will be useful,
but WITHOUT ANY WARRANTY; without even the implied warranty of
MERCHANTABILITY or FITNESS FOR A PARTICULAR PURPOSE.  See the
GNU Affero General Public License for more details.

You should have received a copy of the GNU Affero General Public License
along with this program.  If not, see <https://www.gnu.org/licenses/>.
-->
<svg version="1.1" width="830" height="783" xmlns="http://www.w3.org/2000/svg"><path d="M198.332 1.851 C 195.490 2.833,191.665 4.796,189.832 6.214 C 181.952 12.307,9.377 172.162,8.194 174.463 C 5.476 179.754,3.887 259.247,1.987 485.000 C 0.562 654.346,0.689 734.244,2.395 740.650 C 6.607 756.470,19.840 770.091,35.783 775.015 C 42.126 776.974,45.695 777.000,308.137 777.000 C 573.858 777.000,574.068 776.998,580.168 774.943 C 591.630 771.082,600.300 764.227,607.193 753.574 C 614.533 742.229,614.367 743.732,614.964 683.395 L 615.500 629.290 618.770 626.539 C 622.486 623.413,622.298 623.343,630.128 630.786 C 634.568 635.005,634.714 635.323,633.715 638.577 C 632.434 642.751,633.961 648.601,637.245 652.098 C 643.974 659.264,774.884 775.920,778.711 778.161 C 795.299 787.874,817.592 781.018,826.469 763.474 C 831.701 753.134,830.983 739.288,824.700 729.335 C 822.475 725.810,687.046 603.319,681.500 599.815 C 679.326 598.441,677.064 598.000,673.283 598.210 C 668.249 598.490,667.855 598.314,662.035 593.193 L 656.003 587.885 659.865 582.193 C 673.915 561.481,684.761 532.055,688.031 505.771 C 689.837 491.255,688.827 461.323,686.068 447.621 C 678.682 410.934,660.302 377.644,633.185 351.839 C 628.195 347.090,622.062 341.733,619.556 339.933 L 615.000 336.661 614.985 191.080 C 614.972 64.768,614.771 44.652,613.460 39.093 C 609.061 20.429,593.802 5.396,575.270 1.469 C 569.529 0.253,540.751 0.037,386.000 0.050 C 213.416 0.064,203.219 0.162,198.332 1.851 M578.500 19.968 C 584.889 23.122,591.878 30.111,595.032 36.500 L 597.500 41.500 597.763 183.250 C 597.908 261.212,597.854 325.000,597.642 325.000 C 597.430 325.000,592.587 322.772,586.879 320.049 C 536.591 296.062,478.478 296.261,428.907 320.589 C 405.407 332.123,387.913 345.870,368.226 368.274 L 364.951 372.000 236.523 372.000 C 139.081 372.000,107.461 372.288,105.472 373.195 C 102.039 374.759,99.999 378.865,100.004 384.200 C 100.009 390.170,102.918 394.606,107.698 395.933 C 110.268 396.647,149.964 396.991,230.182 396.994 L 348.863 397.000 344.528 406.277 C 336.695 423.039,331.234 442.452,328.502 463.250 L 327.877 468.000 218.189 468.004 C 111.341 468.007,108.417 468.058,105.314 469.950 C 101.748 472.124,100.305 474.307,99.991 478.000 C 99.467 484.169,100.090 486.290,103.400 489.600 L 106.800 493.000 217.262 493.000 L 327.724 493.000 328.411 500.750 C 329.871 517.245,335.349 538.292,342.574 555.172 C 344.458 559.575,346.000 563.587,346.000 564.089 C 346.000 564.632,297.714 565.000,226.400 565.000 L 106.800 565.000 103.400 568.400 C 100.461 571.339,100.002 572.458,100.015 576.650 C 100.034 582.895,101.678 586.074,106.014 588.248 C 109.277 589.885,117.575 589.998,236.000 590.008 L 362.500 590.019 369.000 598.137 C 384.234 617.163,407.050 634.986,430.241 645.976 C 480.446 669.769,537.968 669.618,587.286 645.564 L 598.072 640.303 597.786 688.401 L 597.500 736.500 595.106 741.000 C 589.590 751.367,582.373 757.233,572.184 759.631 C 567.516 760.730,520.212 760.972,307.460 760.984 C 25.841 761.001,42.141 761.320,33.250 755.622 C 29.155 752.997,24.318 748.047,21.674 743.776 C 16.939 736.126,17.015 739.326,18.017 590.191 C 19.208 412.929,20.739 273.690,22.061 222.515 C 23.060 183.832,23.163 182.456,25.221 180.265 L 27.349 178.000 97.424 177.988 C 171.637 177.976,171.463 177.985,182.284 173.199 C 187.904 170.713,197.966 161.444,201.378 155.610 C 206.992 146.012,207.000 145.897,207.000 78.805 L 207.000 16.974 390.250 17.237 L 573.500 17.500 578.500 19.968 M276.325 179.459 C 268.267 182.964,266.742 195.505,273.707 200.984 C 276.248 202.983,277.428 203.000,413.912 203.000 C 566.764 203.000,554.615 203.558,557.606 196.401 C 559.536 191.782,559.344 188.077,556.974 184.190 C 552.972 177.625,561.617 177.996,413.782 178.039 C 301.833 178.072,278.972 178.308,276.325 179.459 M106.096 276.265 C 97.605 280.629,97.605 294.371,106.096 298.735 C 107.969 299.698,138.512 299.974,244.300 299.985 C 363.748 299.998,380.453 299.817,383.033 298.483 C 390.944 294.392,390.944 280.608,383.033 276.517 C 380.453 275.183,363.748 275.002,244.300 275.015 C 138.512 275.026,107.969 275.302,106.096 276.265 M535.581 325.014 C 625.156 340.327,684.391 428.216,665.031 517.083 C 656.901 554.406,635.377 587.810,604.500 611.025 C 582.023 627.924,557.390 637.941,528.127 642.081 C 516.080 643.786,488.175 642.711,475.841 640.067 C 401.315 624.091,347.875 558.298,348.020 482.699 C 348.163 407.986,400.434 342.758,473.077 326.644 C 487.597 323.423,488.307 323.352,507.651 323.160 C 519.865 323.039,526.672 323.491,535.581 325.014 M511.585 381.107 C 472.062 386.871,444.384 412.380,434.071 452.547 L 433.032 456.594 423.516 456.178 C 415.945 455.847,413.987 456.041,413.937 457.131 C 413.902 457.884,413.513 462.283,413.072 466.907 C 411.911 479.060,411.510 478.557,422.049 478.179 L 431.000 477.858 431.000 485.429 L 431.000 493.000 423.519 493.000 C 414.529 493.000,414.487 493.072,415.697 506.426 L 416.500 515.291 425.570 515.089 L 434.641 514.888 436.391 521.183 C 442.145 541.880,454.729 560.838,469.425 570.948 C 476.283 575.667,487.505 580.703,496.500 583.100 C 502.759 584.767,507.656 585.257,519.000 585.350 C 538.720 585.513,550.556 582.810,567.045 574.378 C 575.704 569.951,586.410 561.436,587.454 558.145 C 588.497 554.859,572.195 522.708,565.782 515.405 L 562.811 512.021 558.656 515.368 C 547.689 524.202,538.047 527.435,524.606 526.786 C 517.852 526.460,514.276 525.758,510.760 524.068 C 505.125 521.359,497.167 514.539,498.297 513.386 C 498.735 512.939,506.385 512.425,515.297 512.244 C 524.209 512.063,532.513 511.700,533.750 511.438 C 535.893 510.985,536.000 510.508,536.000 501.402 L 536.000 491.842 513.151 492.560 L 490.303 493.277 489.746 487.135 C 488.757 476.232,487.143 477.000,511.058 477.000 C 522.511 477.000,532.087 476.663,532.337 476.250 C 532.587 475.837,533.117 471.563,533.514 466.750 L 534.237 458.000 515.118 458.000 C 504.603 458.000,496.000 457.612,496.000 457.138 C 496.000 455.399,502.255 448.473,507.140 444.802 C 519.848 435.254,537.607 435.626,558.426 445.876 L 567.818 450.500 569.858 447.500 C 574.657 440.446,585.586 412.195,587.496 401.908 C 588.092 398.702,587.816 398.023,584.933 395.597 C 571.107 383.964,537.507 377.326,511.585 381.107 M106.315 662.464 C 99.056 665.621,97.458 676.658,103.400 682.600 L 106.800 686.000 244.384 686.000 L 381.968 686.000 385.113 683.191 C 389.004 679.714,390.202 672.225,387.655 667.300 C 384.184 660.587,393.538 660.996,244.349 661.039 C 131.705 661.072,108.975 661.306,106.315 662.464 " stroke="none" fill="black" fill-rule="evenodd"/></svg>