<?xml version="1.0" encoding="UTF-8"?>
<!--
Soliguide: Useful information for those who need it

SPDX-FileCopyrightText: © 2025 Solinum

SPDX-License-Identifier: AGPL-3.0-only

This program is free software: you can redistribute it and/or modify
it under the terms of the GNU Affero General Public License as published
by the Free Software Foundation, either version 3 of the License, or
(at your option) any later version.

This program is distributed in the hope that it will be useful,
but WITHOUT ANY WARRANTY; without even the implied warranty of
MERCHANTABILITY or FITNESS FOR A PARTICULAR PURPOSE.  See the
GNU Affero General Public License for more details.

You should have received a copy of the GNU Affero General Public License
along with this program.  If not, see <https://www.gnu.org/licenses/>.
-->
<svg width="48" height="48" viewBox="0 0 48 48" fill="none" xmlns="http://www.w3.org/2000/svg">
<path d="M30 21C30 19.9 30.9 19 32 19C33.1 19 34 19.9 34 21C34 22.1 33.1 23 32 23C30.9 23 30 22.1 30 21ZM16 19H26V15H16V19ZM44 16V29.94L38.36 31.82L35 43H24V39H20V43H9C9 43 4 26.08 4 20C4 13.92 8.92 9 15 9H25C26.82 6.58 29.72 5 33 5C34.66 5 36 6.34 36 8C36 8.42 35.92 8.8 35.76 9.16C35.48 9.84 35.24 10.62 35.12 11.46L39.66 16H44ZM40 20H38L31 13C31 11.7 31.18 10.42 31.52 9.18C29.58 9.68 28 11.12 27.34 13H15C11.14 13 8 16.14 8 20C8 23.76 10.44 33.3 12.02 39H16V35H28V39H32.02L35.12 28.7L40 27.06V20Z" fill="#404040"/>
</svg>
