<?xml version="1.0" encoding="UTF-8"?>
<!--
Soliguide: Useful information for those who need it

SPDX-FileCopyrightText: © 2025 Solinum

SPDX-License-Identifier: AGPL-3.0-only

This program is free software: you can redistribute it and/or modify
it under the terms of the GNU Affero General Public License as published
by the Free Software Foundation, either version 3 of the License, or
(at your option) any later version.

This program is distributed in the hope that it will be useful,
but WITHOUT ANY WARRANTY; without even the implied warranty of
MERCHANTABILITY or FITNESS FOR A PARTICULAR PURPOSE.  See the
GNU Affero General Public License for more details.

You should have received a copy of the GNU Affero General Public License
along with this program.  If not, see <https://www.gnu.org/licenses/>.
-->
<svg version="1.1" width="667" height="667" xmlns="http://www.w3.org/2000/svg"><path d="M166.430 65.046 C 149.030 67.319,128.920 74.290,114.320 83.109 C 81.107 103.170,60.902 133.912,52.797 176.718 C 49.599 193.608,49.605 231.850,52.808 252.530 C 54.862 265.788,62.153 296.778,65.271 305.500 L 66.701 309.500 121.272 309.759 L 175.843 310.017 225.040 271.009 C 252.099 249.554,274.594 232.000,275.029 232.000 C 275.813 232.000,291.345 253.657,333.482 313.500 C 345.487 330.550,355.435 344.658,355.589 344.851 C 355.743 345.044,369.024 334.132,385.103 320.601 L 414.337 296.000 507.554 296.000 L 600.771 296.000 602.908 288.250 C 614.686 245.557,616.314 203.347,607.489 169.500 C 601.052 144.810,588.838 123.556,570.639 105.370 C 546.873 81.622,520.327 69.502,484.250 65.930 C 458.075 63.338,425.231 69.690,398.500 82.513 C 373.294 94.605,347.890 117.077,333.276 140.207 L 330.303 144.914 325.685 135.613 C 311.055 106.143,285.137 85.584,247.500 73.596 C 222.323 65.576,189.153 62.078,166.430 65.046 M225.615 327.526 L 189.729 355.981 140.291 356.241 L 90.853 356.500 104.058 373.000 C 157.424 439.682,238.330 518.342,314.771 577.865 C 322.069 583.548,328.623 587.975,329.334 587.702 C 331.107 587.022,355.824 567.707,377.000 550.455 C 422.063 513.742,456.123 483.125,492.523 446.609 C 520.790 418.251,538.989 397.853,554.299 377.365 C 563.252 365.386,576.985 344.355,576.995 342.610 C 576.998 342.094,557.156 341.982,529.750 342.344 C 503.762 342.687,470.277 342.975,455.337 342.984 L 428.174 343.000 390.837 376.619 C 370.302 395.110,352.148 411.516,350.495 413.078 L 347.490 415.917 337.907 402.709 C 332.637 395.444,316.263 372.850,301.521 352.500 C 266.407 304.027,262.690 298.993,262.044 299.035 C 261.745 299.054,245.352 311.875,225.615 327.526 " stroke="none" fill="black" fill-rule="evenodd"/></svg>