<svg width="48" height="48" viewBox="0 0 48 48" fill="none" xmlns="http://www.w3.org/2000/svg">
<path d="M23.9998 12.8925L22.8748 11.3325C20.9998 8.73745 17.9923 7.19995 14.7823 7.19995C9.26981 7.19995 4.7998 11.67 4.7998 17.1825V17.3775C4.7998 19.1475 5.2648 20.9775 6.0448 22.8H13.9948C14.2348 22.8 14.4523 22.6575 14.5498 22.4325L16.9348 16.71C17.2123 16.05 17.8573 15.615 18.5698 15.6C19.2823 15.585 19.9423 16.005 20.2348 16.6575L24.0823 25.2L27.1873 18.99C27.4948 18.3825 28.1173 17.9925 28.7998 17.9925C29.4823 17.9925 30.1048 18.375 30.4123 18.99L32.1523 22.4625C32.2573 22.665 32.4598 22.7925 32.6923 22.7925H41.9623C42.7498 20.97 43.2073 19.14 43.2073 17.37V17.175C43.1998 11.67 38.7298 7.19995 33.2173 7.19995C30.0148 7.19995 26.9998 8.73745 25.1248 11.3325L23.9998 12.885V12.8925ZM40.0198 26.4H32.6848C31.0948 26.4 29.6398 25.5 28.9273 24.075L28.7998 23.82L25.6123 30.2025C25.3048 30.825 24.6598 31.215 23.9623 31.2C23.2648 31.185 22.6423 30.7725 22.3573 30.1425L18.6598 21.93L17.8723 23.82C17.2198 25.3875 15.6898 26.4075 13.9948 26.4075H7.9798C11.5198 31.9425 17.2048 37.035 20.7598 39.75C21.6898 40.455 22.8298 40.8074 23.9923 40.8074C25.1548 40.8074 26.3023 40.4625 27.2248 39.75C30.7948 37.0275 36.4798 31.935 40.0198 26.4Z" fill="#271332"/>
</svg>
