<svg width="48" height="48" viewBox="0 0 48 48" fill="none" xmlns="http://www.w3.org/2000/svg">
<path d="M33.2173 10.8C31.1698 10.8 29.2423 11.7825 28.0423 13.44L25.4623 17.01C25.1248 17.475 24.5848 17.7524 24.0073 17.7524C23.4298 17.7524 22.8898 17.475 22.5523 17.01L19.9723 13.44C18.7723 11.7825 16.8448 10.8 14.7973 10.8C11.2723 10.8 8.4148 13.6575 8.4148 17.1825C8.4148 19.515 9.3448 21.8025 10.7023 24H14.0698C14.3023 24 14.5198 23.865 14.6173 23.6474L16.9798 18.4575C17.2648 17.835 17.8798 17.4225 18.5623 17.4C19.2448 17.3775 19.8898 17.7525 20.2048 18.36L24.1348 25.7775L27.2848 20.6625C27.6148 20.1225 28.2148 19.7925 28.8448 19.8075C29.4748 19.8225 30.0598 20.16 30.3748 20.715L32.0698 23.6999C32.1748 23.8874 32.3773 24 32.5873 24H37.3048C38.6623 21.8099 39.5923 19.515 39.5923 17.1825C39.5923 13.6575 36.7348 10.8 33.2098 10.8H33.2173ZM37.7998 27.6H32.5948C31.0873 27.6 29.6998 26.7899 28.9498 25.4849L28.7473 25.1325L25.5373 30.3449C25.1998 30.8925 24.5923 31.2225 23.9473 31.1999C23.3023 31.1775 22.7173 30.8175 22.4173 30.24L18.7348 23.2799L17.8873 25.14C17.2048 26.64 15.7123 27.6 14.0623 27.6H8.7673C6.6748 24.6674 4.7998 21.105 4.7998 17.1825C4.7998 11.67 9.26981 7.19995 14.7823 7.19995C17.9848 7.19995 20.9998 8.73745 22.8748 11.3325L23.9998 12.885L25.1248 11.3325C26.9998 8.73745 30.0148 7.19995 33.2173 7.19995C38.7298 7.19995 43.1998 11.67 43.1998 17.1825C43.1998 21.105 41.3248 24.6674 39.2398 27.6H37.7998ZM11.6248 31.1999H16.5373C18.8323 33.5324 21.1798 35.5199 22.9573 36.8849C23.1973 37.0649 23.5498 37.1999 24.0073 37.1999C24.4648 37.1999 24.8173 37.0649 25.0573 36.8849C26.8348 35.5274 29.1823 33.5324 31.4773 31.1999H36.3898C33.2773 34.7699 29.7373 37.8375 27.2473 39.7425C26.3248 40.4475 25.1848 40.7999 24.0148 40.7999C22.8448 40.7999 21.7048 40.4475 20.7823 39.7425C18.2698 37.8375 14.7373 34.7699 11.6248 31.1999Z" fill="#271332"/>
</svg>
