<svg width="48" height="48" viewBox="0 0 48 48" fill="none" xmlns="http://www.w3.org/2000/svg">
<path d="M12.7648 12.3675L10.8523 20.4H13.6798C14.3023 19.3275 15.4648 18.6 16.7998 18.6H19.1998C20.5348 18.6 21.6973 19.3275 22.3198 20.4H25.6798C26.3023 19.3275 27.4648 18.6 28.7998 18.6H31.1998C32.5348 18.6 33.6973 19.3275 34.3198 20.4H37.1548L35.2423 12.3675C34.8523 10.7475 33.4048 9.6 31.7323 9.6H16.2673C14.6023 9.6 13.1548 10.7475 12.7648 12.3675ZM6.95981 21.1875L7.2448 19.98L9.2548 11.5275C10.0348 8.2875 12.9298 6 16.2673 6H31.7398C35.0773 6 37.9723 8.2875 38.7448 11.535L40.7548 19.9875L41.0398 21.195C42.3373 22.05 43.1998 23.52 43.1998 25.2V39C43.1998 39.9975 42.3973 40.8 41.3998 40.8C40.4023 40.8 39.5998 39.9975 39.5998 39V37.2H8.3998V39C8.3998 39.9975 7.5973 40.8 6.5998 40.8C5.6023 40.8 4.7998 39.9975 4.7998 39V25.2C4.7998 23.52 5.66231 22.05 6.95981 21.1875ZM9.5998 24C8.9398 24 8.3998 24.54 8.3998 25.2V33.6H39.5998V25.2C39.5998 24.54 39.0598 24 38.3998 24H9.5998ZM13.1998 26.4C14.5273 26.4 15.5998 27.4725 15.5998 28.8C15.5998 30.1275 14.5273 31.2 13.1998 31.2C11.8723 31.2 10.7998 30.1275 10.7998 28.8C10.7998 27.4725 11.8723 26.4 13.1998 26.4ZM32.3998 28.8C32.3998 27.4725 33.4723 26.4 34.7998 26.4C36.1273 26.4 37.1998 27.4725 37.1998 28.8C37.1998 30.1275 36.1273 31.2 34.7998 31.2C33.4723 31.2 32.3998 30.1275 32.3998 28.8ZM14.9998 14.4C14.9998 12.7425 16.3423 11.4 17.9998 11.4C19.6573 11.4 20.9998 12.7425 20.9998 14.4C20.9998 16.0575 19.6573 17.4 17.9998 17.4C16.3423 17.4 14.9998 16.0575 14.9998 14.4ZM29.9998 11.4C31.6573 11.4 32.9998 12.7425 32.9998 14.4C32.9998 16.0575 31.6573 17.4 29.9998 17.4C28.3423 17.4 26.9998 16.0575 26.9998 14.4C26.9998 12.7425 28.3423 11.4 29.9998 11.4Z" fill="#271332"/>
</svg>
