<?xml version="1.0" encoding="UTF-8"?>
<!--
Soliguide: Useful information for those who need it

SPDX-FileCopyrightText: © 2025 Solinum

SPDX-License-Identifier: AGPL-3.0-only

This program is free software: you can redistribute it and/or modify
it under the terms of the GNU Affero General Public License as published
by the Free Software Foundation, either version 3 of the License, or
(at your option) any later version.

This program is distributed in the hope that it will be useful,
but WITHOUT ANY WARRANTY; without even the implied warranty of
MERCHANTABILITY or FITNESS FOR A PARTICULAR PURPOSE.  See the
GNU Affero General Public License for more details.

You should have received a copy of the GNU Affero General Public License
along with this program.  If not, see <https://www.gnu.org/licenses/>.
-->
<svg version="1.1" width="512" height="512" xmlns="http://www.w3.org/2000/svg"><path d="M65.105 1.583 C 42.849 7.567,27.943 30.546,31.784 52.947 C 33.492 62.909,37.394 70.482,44.456 77.544 C 50.826 83.914,59.020 88.500,66.037 89.622 C 68.254 89.976,69.926 90.407,69.755 90.579 C 69.583 90.751,65.858 91.632,61.478 92.536 C 27.710 99.511,2.931 127.027,0.366 160.398 C -0.183 167.537,0.009 169.096,1.883 172.770 C 3.308 175.564,5.350 177.648,7.974 178.987 C 11.651 180.863,13.831 181.000,39.958 181.000 L 67.996 181.000 85.641 207.473 L 103.287 233.946 107.893 230.102 C 113.815 225.161,124.916 218.000,126.655 218.000 C 127.395 218.000,128.000 217.766,128.000 217.480 C 128.000 217.194,122.594 208.869,115.987 198.980 L 103.973 181.000 121.526 181.000 C 142.171 181.000,145.412 180.033,149.118 172.769 C 150.970 169.139,151.181 167.503,150.664 160.804 C 149.219 142.057,142.253 126.852,128.921 113.341 C 118.127 102.402,105.674 95.666,90.417 92.515 C 86.094 91.622,82.417 90.751,82.245 90.579 C 82.074 90.407,83.806 89.967,86.096 89.601 C 102.140 87.035,117.117 71.017,120.182 53.145 C 125.602 21.540,95.541 -6.602,65.105 1.583 M245.105 1.583 C 227.914 6.205,214.925 20.737,211.825 38.815 C 208.624 57.479,218.023 76.509,234.794 85.322 C 238.558 87.300,243.534 89.222,245.852 89.592 C 248.170 89.963,249.926 90.407,249.755 90.579 C 249.583 90.751,245.856 91.632,241.473 92.537 C 211.840 98.658,188.679 121.737,182.592 151.210 C 179.412 166.605,181.183 174.487,188.783 178.758 C 192.609 180.908,193.757 181.000,216.886 181.000 L 241.000 181.000 241.000 196.000 L 241.000 211.000 256.000 211.000 L 271.000 211.000 271.000 196.000 L 271.000 181.000 295.040 181.000 C 317.160 181.000,319.395 180.839,323.026 178.987 C 329.195 175.840,331.416 170.552,330.664 160.804 C 329.219 142.057,322.253 126.852,308.921 113.341 C 298.127 102.402,285.674 95.666,270.417 92.515 C 266.094 91.622,262.417 90.751,262.245 90.579 C 262.074 90.407,263.746 89.976,265.963 89.622 C 277.220 87.822,291.052 76.915,296.307 65.697 C 300.340 57.084,301.694 47.675,300.175 38.815 C 295.605 12.166,270.035 -5.122,245.105 1.583 M425.105 1.583 C 402.849 7.567,387.943 30.546,391.784 52.947 C 393.492 62.909,397.394 70.482,404.456 77.544 C 410.826 83.914,419.020 88.500,426.037 89.622 C 428.254 89.976,429.926 90.407,429.755 90.579 C 429.583 90.751,425.856 91.632,421.473 92.537 C 391.739 98.679,368.675 121.659,362.588 151.208 C 359.414 166.614,361.185 174.487,368.783 178.758 C 372.497 180.845,373.991 181.000,390.400 181.000 L 408.027 181.000 395.939 199.092 C 389.290 209.042,383.997 217.255,384.175 217.342 C 391.705 221.008,395.771 223.532,401.624 228.174 L 408.779 233.848 426.391 207.424 L 444.004 181.000 472.042 181.000 C 498.169 181.000,500.349 180.863,504.026 178.987 C 506.650 177.648,508.692 175.564,510.117 172.770 C 511.991 169.096,512.183 167.537,511.634 160.398 C 509.069 127.027,484.290 99.511,450.522 92.536 C 446.142 91.632,442.417 90.751,442.245 90.579 C 442.074 90.407,443.806 89.967,446.096 89.601 C 462.140 87.035,477.117 71.017,480.182 53.145 C 485.602 21.540,455.541 -6.602,425.105 1.583 M146.105 242.583 C 134.573 245.684,124.108 253.878,118.477 264.215 C 116.894 267.122,111.015 283.563,105.413 300.750 L 95.226 332.000 168.113 332.000 L 241.000 332.000 241.000 286.500 L 241.000 241.000 196.250 241.066 C 160.452 241.118,150.421 241.422,146.105 242.583 M271.000 286.500 L 271.000 332.000 343.887 332.000 L 416.774 332.000 406.587 300.750 C 400.985 283.563,395.106 267.122,393.523 264.215 C 389.925 257.610,382.567 250.171,376.210 246.711 C 366.194 241.259,363.427 241.000,315.290 241.000 L 271.000 241.000 271.000 286.500 M60.500 363.651 C 35.482 369.032,14.903 386.334,5.330 410.035 C 0.999 420.756,0.036 427.966,0.017 449.790 C 0.002 468.172,0.189 470.451,2.013 474.026 C 5.550 480.959,9.069 482.000,28.960 482.000 L 46.000 482.000 46.000 478.660 C 46.000 473.218,49.712 460.328,53.192 453.686 C 57.442 445.574,69.574 433.442,77.686 429.192 C 85.653 425.018,97.534 422.000,106.000 422.000 C 114.453 422.000,126.334 425.014,134.314 429.182 C 142.331 433.370,154.444 445.505,158.775 453.686 C 162.275 460.299,166.000 473.174,166.000 478.660 L 166.000 482.000 256.000 482.000 L 346.000 482.000 346.000 478.660 C 346.000 473.218,349.712 460.328,353.192 453.686 C 357.442 445.574,369.574 433.442,377.686 429.192 C 385.653 425.018,397.534 422.000,406.000 422.000 C 414.466 422.000,426.347 425.018,434.314 429.192 C 442.426 433.442,454.558 445.574,458.808 453.686 C 462.288 460.328,466.000 473.218,466.000 478.660 L 466.000 482.000 483.040 482.000 C 498.144 482.000,500.528 481.771,504.026 479.987 C 510.917 476.471,512.000 472.879,512.000 453.540 L 512.000 437.000 494.960 437.000 C 479.856 437.000,477.472 436.771,473.974 434.987 C 469.537 432.723,466.000 426.962,466.000 422.000 C 466.000 417.038,469.537 411.277,473.974 409.013 C 477.354 407.289,479.864 407.000,491.460 407.000 C 498.907 407.000,505.000 406.725,505.000 406.390 C 505.000 404.136,497.710 392.882,492.729 387.446 C 482.722 376.525,470.429 368.910,455.464 364.361 C 449.805 362.642,439.730 362.539,258.500 362.347 C 91.648 362.171,66.615 362.336,60.500 363.651 M96.479 453.740 C 89.974 456.069,85.529 459.287,81.901 464.295 C 71.008 479.333,76.206 500.552,92.776 508.689 C 100.913 512.685,111.070 512.693,119.182 508.710 C 129.909 503.442,135.459 494.335,135.459 482.000 C 135.459 473.481,133.382 467.783,128.076 461.739 C 120.953 453.627,106.803 450.044,96.479 453.740 M396.332 453.790 C 371.245 462.757,369.051 497.039,392.818 508.710 C 400.911 512.684,411.089 512.684,419.182 508.710 C 429.909 503.442,435.459 494.335,435.459 482.000 C 435.459 473.481,433.382 467.783,428.076 461.739 C 420.906 453.574,406.812 450.044,396.332 453.790 " stroke="none" fill="black" fill-rule="evenodd"/></svg>