<?xml version="1.0" encoding="UTF-8"?>
<!--
Soliguide: Useful information for those who need it

SPDX-FileCopyrightText: © 2025 Solinum

SPDX-License-Identifier: AGPL-3.0-only

This program is free software: you can redistribute it and/or modify
it under the terms of the GNU Affero General Public License as published
by the Free Software Foundation, either version 3 of the License, or
(at your option) any later version.

This program is distributed in the hope that it will be useful,
but WITHOUT ANY WARRANTY; without even the implied warranty of
MERCHANTABILITY or FITNESS FOR A PARTICULAR PURPOSE.  See the
GNU Affero General Public License for more details.

You should have received a copy of the GNU Affero General Public License
along with this program.  If not, see <https://www.gnu.org/licenses/>.
-->
<svg width="48" height="48" viewBox="0 0 48 48" fill="none" xmlns="http://www.w3.org/2000/svg">
<path d="M8.90729 26.3525V31.9725C8.90729 33.4325 9.70729 34.7925 10.9873 35.4925L20.9873 40.9525C22.1873 41.6125 23.6273 41.6125 24.8273 40.9525L34.8273 35.4925C36.1073 34.7925 36.9073 33.4325 36.9073 31.9725V26.3525L24.8273 32.9525C23.6273 33.6125 22.1873 33.6125 20.9873 32.9525L8.90729 26.3525ZM20.9873 7.03249L4.12729 16.2325C2.74729 16.9925 2.74729 18.9925 4.12729 19.7525L20.9873 28.9525C22.1873 29.6125 23.6273 29.6125 24.8273 28.9525L40.9073 20.1725V31.9925C40.9073 33.0925 41.8073 33.9925 42.9073 33.9925C44.0073 33.9925 44.9073 33.0925 44.9073 31.9925V19.1725C44.9073 18.4325 44.5073 17.7725 43.8673 17.4125L24.8273 7.03249C23.6273 6.39249 22.1873 6.39249 20.9873 7.03249Z" fill="#404040"/>
</svg>
