<svg width="48" height="48" viewBox="0 0 48 48" fill="none" xmlns="http://www.w3.org/2000/svg">
<path d="M19.1998 4.7998C17.8723 4.7998 16.7998 5.8723 16.7998 7.1998V9.5998H16.1323C12.9823 9.5998 10.1998 11.6473 9.2623 14.6548L7.5373 20.1673C5.8873 21.2323 4.7998 23.0923 4.7998 25.1998V38.3998C4.7998 39.7273 5.8723 40.7998 7.1998 40.7998H9.5998C10.9273 40.7998 11.9998 39.7273 11.9998 38.3998V35.9998H35.9998V38.3998C35.9998 39.7273 37.0723 40.7998 38.3998 40.7998H40.7998C42.1273 40.7998 43.1998 39.7273 43.1998 38.3998V25.1998C43.1998 23.0923 42.1123 21.2323 40.4698 20.1673L38.7448 14.6548C37.8073 11.6473 35.0173 9.5998 31.8673 9.5998H31.1998V7.1998C31.1998 5.8723 30.1273 4.7998 28.7998 4.7998H19.1998ZM16.1323 14.3998H31.8748C32.9248 14.3998 33.8548 15.0823 34.1623 16.0873L35.1373 19.1998H12.8698L13.8448 16.0873C14.1598 15.0823 15.0823 14.3998 16.1323 14.3998ZM11.9998 25.1998C13.3273 25.1998 14.3998 26.2723 14.3998 27.5998C14.3998 28.9273 13.3273 29.9998 11.9998 29.9998C10.6723 29.9998 9.5998 28.9273 9.5998 27.5998C9.5998 26.2723 10.6723 25.1998 11.9998 25.1998ZM33.5998 27.5998C33.5998 26.2723 34.6723 25.1998 35.9998 25.1998C37.3273 25.1998 38.3998 26.2723 38.3998 27.5998C38.3998 28.9273 37.3273 29.9998 35.9998 29.9998C34.6723 29.9998 33.5998 28.9273 33.5998 27.5998Z" fill="black"/>
</svg>
