<svg width="48" height="48" viewBox="0 0 48 48" fill="none" xmlns="http://www.w3.org/2000/svg">
<path d="M19.1998 4.7998C17.8723 4.7998 16.7998 5.8723 16.7998 7.1998V9.5998H16.2673C12.9298 9.5998 10.0348 11.8873 9.2623 15.1348L8.2498 19.3948C6.2548 19.9798 4.7998 21.8173 4.7998 23.9998V38.9998C4.7998 39.9973 5.6023 40.7998 6.5998 40.7998C7.5973 40.7998 8.3998 39.9973 8.3998 38.9998V35.9998H39.5998V38.9998C39.5998 39.9973 40.4023 40.7998 41.3998 40.7998C42.3973 40.7998 43.1998 39.9973 43.1998 38.9998V23.9998C43.1998 21.8173 41.7448 19.9798 39.7498 19.3948L38.7373 15.1348C37.9648 11.8873 35.0698 9.5998 31.7323 9.5998H31.1998V7.1998C31.1998 5.8723 30.1273 4.7998 28.7998 4.7998H19.1998ZM12.7648 15.9673C13.1473 14.3473 14.6023 13.1998 16.2673 13.1998H31.7398C33.4048 13.1998 34.8523 14.3473 35.2423 15.9673L36.0148 19.1998H11.9998L12.7723 15.9673H12.7648ZM38.3998 22.7998C39.0598 22.7998 39.5998 23.3398 39.5998 23.9998V32.3998H8.3998V23.9998C8.3998 23.3398 8.9398 22.7998 9.5998 22.7998H38.3998ZM15.5998 27.5998C15.5998 26.2723 14.5273 25.1998 13.1998 25.1998C11.8723 25.1998 10.7998 26.2723 10.7998 27.5998C10.7998 28.9273 11.8723 29.9998 13.1998 29.9998C14.5273 29.9998 15.5998 28.9273 15.5998 27.5998ZM34.7998 29.9998C36.1273 29.9998 37.1998 28.9273 37.1998 27.5998C37.1998 26.2723 36.1273 25.1998 34.7998 25.1998C33.4723 25.1998 32.3998 26.2723 32.3998 27.5998C32.3998 28.9273 33.4723 29.9998 34.7998 29.9998Z" fill="black"/>
</svg>
