<?xml version="1.0" encoding="UTF-8"?>
<!--
Soliguide: Useful information for those who need it

SPDX-FileCopyrightText: © 2025 Solinum

SPDX-License-Identifier: AGPL-3.0-only

This program is free software: you can redistribute it and/or modify
it under the terms of the GNU Affero General Public License as published
by the Free Software Foundation, either version 3 of the License, or
(at your option) any later version.

This program is distributed in the hope that it will be useful,
but WITHOUT ANY WARRANTY; without even the implied warranty of
MERCHANTABILITY or FITNESS FOR A PARTICULAR PURPOSE.  See the
GNU Affero General Public License for more details.

You should have received a copy of the GNU Affero General Public License
along with this program.  If not, see <https://www.gnu.org/licenses/>.
-->
<svg version="1.1" width="512" height="512" xmlns="http://www.w3.org/2000/svg"><path d="M244.000 0.456 C 243.175 0.656,239.125 1.366,235.000 2.034 C 205.377 6.828,175.963 25.519,157.760 51.115 C 132.283 86.940,128.823 135.052,148.873 174.703 C 165.104 206.800,196.383 230.641,232.000 238.062 C 246.508 241.085,265.482 241.086,280.000 238.064 C 343.429 224.865,384.911 164.487,374.529 100.477 C 366.797 52.810,329.827 13.811,282.000 2.872 C 274.250 1.099,248.182 -0.558,244.000 0.456 M238.396 121.361 C 244.577 126.426,248.827 128.004,256.218 127.978 C 262.820 127.955,269.341 125.717,271.933 122.585 C 274.251 119.785,280.627 117.000,284.710 117.004 C 292.419 117.011,298.989 123.817,298.996 131.800 C 299.001 137.614,296.927 141.221,290.786 146.075 C 280.182 154.457,269.846 158.000,256.000 158.000 C 242.154 158.000,231.818 154.457,221.214 146.075 C 215.073 141.221,212.999 137.614,213.004 131.800 C 213.015 118.494,227.587 112.504,238.396 121.361 M160.216 249.967 C 121.013 270.778,90.593 301.498,71.085 339.979 C 64.808 352.359,58.294 368.628,59.237 369.570 C 59.554 369.888,61.188 369.437,62.867 368.569 C 71.387 364.163,92.675 362.414,102.209 365.336 L 106.919 366.780 110.535 359.640 C 121.283 338.420,144.161 312.391,163.635 299.224 C 185.911 284.163,210.261 275.062,237.500 271.616 C 243.550 270.850,246.646 270.174,244.381 270.112 C 226.276 269.619,198.431 260.819,179.667 249.659 C 175.359 247.096,171.309 245.009,170.667 245.019 C 170.025 245.030,165.322 247.256,160.216 249.967 M330.544 250.539 C 313.819 260.529,290.848 267.978,271.500 269.685 L 263.500 270.391 274.000 271.653 C 301.761 274.990,323.849 283.110,347.313 298.605 C 367.522 311.950,390.331 337.659,401.465 359.640 L 405.081 366.780 409.791 365.340 C 419.143 362.479,437.254 363.781,448.250 368.104 C 450.938 369.160,453.000 369.527,453.000 368.948 C 453.000 366.692,445.742 349.334,440.574 339.231 C 424.205 307.232,399.943 280.400,368.921 259.989 C 358.945 253.426,342.900 244.936,340.770 245.095 C 340.071 245.146,335.470 247.597,330.544 250.539 M233.500 302.400 C 213.968 306.155,194.013 314.407,179.500 324.731 C 162.265 336.991,146.645 355.158,136.957 374.214 L 131.587 384.776 134.776 391.138 C 138.597 398.762,141.000 407.670,141.000 414.210 L 141.000 419.000 173.348 419.000 L 205.696 419.000 209.509 411.250 C 216.248 397.556,229.426 386.997,244.093 383.540 C 267.580 378.004,291.740 389.469,302.482 411.250 L 306.304 419.000 338.652 419.000 L 371.000 419.000 371.000 414.210 C 371.000 407.689,373.400 398.768,377.190 391.206 L 380.344 384.912 376.922 377.713 C 371.078 365.418,360.220 350.168,350.028 339.938 C 331.941 321.786,312.313 310.561,287.963 304.444 C 279.008 302.194,274.834 301.761,259.000 301.435 C 246.174 301.171,238.353 301.467,233.500 302.400 M82.769 394.137 C 74.757 395.236,66.397 399.481,60.359 405.514 C 49.834 416.031,48.000 422.955,48.000 452.161 C 48.000 475.856,48.756 481.525,53.058 490.088 C 56.265 496.473,64.728 504.722,71.368 507.936 C 77.294 510.805,86.579 512.440,92.175 511.601 C 100.390 510.369,107.730 503.915,110.027 495.905 C 111.452 490.938,111.302 413.740,109.859 408.922 C 107.563 401.260,100.032 394.891,92.000 393.818 C 90.075 393.560,85.921 393.704,82.769 394.137 M419.000 394.002 C 411.209 395.428,404.371 401.479,402.141 408.922 C 400.698 413.740,400.548 490.938,401.973 495.905 C 405.346 507.666,416.619 513.726,430.370 511.168 C 446.705 508.130,459.725 495.053,463.003 478.391 C 463.796 474.359,464.058 464.556,463.789 448.924 C 463.335 422.541,462.618 419.243,455.228 409.517 C 446.892 398.547,431.106 391.786,419.000 394.002 M248.885 413.320 C 242.903 415.557,239.311 418.735,236.586 424.203 C 229.114 439.198,239.372 456.000,256.000 456.000 C 273.293 456.000,283.471 437.718,274.603 422.585 C 269.761 414.322,257.764 410.000,248.885 413.320 M140.799 474.750 C 140.486 497.723,140.225 501.120,138.379 506.250 L 136.310 512.000 188.655 512.000 L 241.000 512.000 241.000 498.235 L 241.000 484.471 233.750 481.095 C 222.146 475.692,210.618 462.787,206.641 450.750 C 206.106 449.131,203.630 449.000,173.606 449.000 L 141.149 449.000 140.799 474.750 M305.359 450.750 C 301.382 462.787,289.854 475.692,278.250 481.095 L 271.000 484.471 271.000 498.235 L 271.000 512.000 323.345 512.000 L 375.690 512.000 373.621 506.250 C 371.775 501.120,371.514 497.723,371.201 474.750 L 370.851 449.000 338.394 449.000 C 308.370 449.000,305.894 449.131,305.359 450.750 " stroke="none" fill="black" fill-rule="evenodd"/></svg>