<svg width="48" height="48" viewBox="0 0 48 48" fill="none" xmlns="http://www.w3.org/2000/svg">
<path d="M18.6001 11.4C18.6001 8.415 21.0151 6 24.0001 6C26.9851 6 29.4001 8.415 29.4001 11.4C29.4001 14.385 26.9851 16.8 24.0001 16.8C21.0151 16.8 18.6001 14.385 18.6001 11.4ZM10.1776 15.6375C11.1526 14.295 13.0276 14.0025 14.3701 14.9775L17.0851 16.95C19.0951 18.4125 21.5176 19.2 24.0001 19.2C26.4826 19.2 28.9051 18.4125 30.9151 16.95L33.6301 14.97C34.9726 13.995 36.8476 14.295 37.8226 15.63C38.7976 16.965 38.4976 18.8475 37.1626 19.8225L34.4476 21.8025C33.4276 22.545 32.3401 23.1675 31.2001 23.6775V26.4H16.8001V23.6775C15.6601 23.175 14.5726 22.545 13.5526 21.8025L10.8376 19.8225C9.49508 18.8475 9.20258 16.9725 10.1776 15.63V15.6375ZM16.9126 29.4975L21.4576 33.4725L19.5076 36.2625L21.3301 38.085C22.5001 39.255 22.5001 41.1525 21.3301 42.33C20.1601 43.5075 18.2626 43.5 17.0851 42.33L13.4851 38.73C12.4501 37.695 12.3076 36.075 13.1401 34.8825L16.9051 29.4975H16.9126ZM26.5501 33.4725L31.0951 29.4975L34.8601 34.8825C35.6926 36.075 35.5501 37.695 34.5226 38.7225L30.9226 42.3225C29.7526 43.4925 27.8551 43.4925 26.6776 42.3225C25.5001 41.1525 25.5076 39.255 26.6776 38.0775L28.5001 36.255L26.5501 33.465V33.4725Z" fill="#271332"/>
</svg>
