<?xml version="1.0" encoding="UTF-8"?>
<!--
Soliguide: Useful information for those who need it

SPDX-FileCopyrightText: © 2025 Solinum

SPDX-License-Identifier: AGPL-3.0-only

This program is free software: you can redistribute it and/or modify
it under the terms of the GNU Affero General Public License as published
by the Free Software Foundation, either version 3 of the License, or
(at your option) any later version.

This program is distributed in the hope that it will be useful,
but WITHOUT ANY WARRANTY; without even the implied warranty of
MERCHANTABILITY or FITNESS FOR A PARTICULAR PURPOSE.  See the
GNU Affero General Public License for more details.

You should have received a copy of the GNU Affero General Public License
along with this program.  If not, see <https://www.gnu.org/licenses/>.
-->
<svg version="1.1" width="667" height="667" xmlns="http://www.w3.org/2000/svg"><path d="M176.000 23.055 C 134.445 27.320,99.687 52.268,91.586 83.644 C 85.286 108.049,95.942 134.504,119.103 151.957 C 137.759 166.014,158.321 172.649,186.481 173.697 L 202.462 174.292 232.908 182.636 C 249.653 187.225,263.493 190.840,263.663 190.670 C 263.833 190.500,258.821 184.317,252.524 176.930 C 246.227 169.544,241.058 163.246,241.038 162.935 C 241.017 162.625,242.665 161.577,244.699 160.606 C 256.286 155.081,269.519 143.493,276.979 132.339 C 284.033 121.793,287.219 111.350,287.304 98.500 C 287.379 87.044,285.697 80.082,280.416 70.000 C 263.855 38.381,219.772 18.562,176.000 23.055 M203.000 69.000 L 203.000 85.000 219.500 85.000 L 236.000 85.000 236.000 100.000 L 236.000 115.000 219.500 115.000 L 203.000 115.000 203.000 131.000 L 203.000 147.000 188.500 147.000 L 174.000 147.000 174.000 131.000 L 174.000 115.000 158.000 115.000 L 142.000 115.000 142.000 100.000 L 142.000 85.000 158.000 85.000 L 174.000 85.000 174.000 69.000 L 174.000 53.000 188.500 53.000 L 203.000 53.000 203.000 69.000 M320.335 190.423 C 307.982 193.419,294.555 203.691,288.765 214.575 C 281.188 228.819,281.134 246.463,288.621 261.239 C 292.006 267.918,302.082 277.994,308.761 281.379 C 336.950 295.663,368.854 282.116,379.127 251.500 C 379.919 249.139,380.441 243.403,380.399 237.500 C 380.296 222.695,375.982 212.601,365.442 202.500 C 353.749 191.293,336.162 186.584,320.335 190.423 M241.685 228.101 C 237.558 229.217,231.983 233.810,230.513 237.307 C 229.173 240.495,229.473 245.144,231.231 248.430 C 232.089 250.034,283.877 321.483,287.386 325.903 C 288.185 326.910,288.641 363.067,289.000 453.903 C 289.492 578.516,289.531 580.543,291.500 583.235 C 295.816 589.139,306.094 591.659,313.400 588.606 C 315.235 587.839,318.033 585.512,319.618 583.435 L 322.500 579.657 322.780 522.579 L 323.060 465.500 330.280 465.711 C 334.251 465.828,338.063 465.940,338.750 465.961 C 339.735 465.992,340.000 477.958,340.000 522.352 L 340.000 578.704 342.250 582.010 C 345.882 587.346,349.336 589.328,355.737 589.750 C 363.692 590.274,369.624 587.237,372.750 581.038 L 375.000 576.576 375.000 451.652 L 375.000 326.728 380.830 318.614 C 384.036 314.151,397.055 296.270,409.760 278.878 C 425.337 257.557,433.073 246.128,433.512 243.790 C 434.510 238.465,431.967 233.576,426.307 229.940 C 422.256 227.338,420.792 226.928,417.000 227.331 C 411.627 227.902,409.001 230.546,398.836 245.619 C 395.170 251.053,385.573 265.175,377.509 277.000 C 369.444 288.825,362.491 299.125,362.056 299.888 C 361.414 301.016,360.159 300.734,355.383 298.388 C 349.558 295.529,349.321 295.500,331.500 295.500 C 313.601 295.500,313.468 295.516,307.747 298.414 C 304.583 300.016,301.841 301.141,301.653 300.914 C 301.466 300.686,290.884 285.150,278.138 266.389 C 265.392 247.627,254.105 231.500,253.055 230.550 C 250.562 228.293,245.224 227.144,241.685 228.101 M369.980 427.250 L 369.960 433.500 363.082 436.730 C 354.977 440.537,346.398 448.051,340.881 456.175 L 336.925 462.000 331.058 462.000 L 325.191 462.000 322.126 456.569 C 315.837 445.425,301.433 433.000,294.804 433.000 C 293.266 433.000,293.000 432.116,293.000 427.000 L 293.000 421.000 331.500 421.000 L 370.000 421.000 369.980 427.250 " stroke="none" fill="black" fill-rule="evenodd"/></svg>