<?xml version="1.0" encoding="UTF-8"?>
<!--
Soliguide: Useful information for those who need it

SPDX-FileCopyrightText: © 2025 Solinum

SPDX-License-Identifier: AGPL-3.0-only

This program is free software: you can redistribute it and/or modify
it under the terms of the GNU Affero General Public License as published
by the Free Software Foundation, either version 3 of the License, or
(at your option) any later version.

This program is distributed in the hope that it will be useful,
but WITHOUT ANY WARRANTY; without even the implied warranty of
MERCHANTABILITY or FITNESS FOR A PARTICULAR PURPOSE.  See the
GNU Affero General Public License for more details.

You should have received a copy of the GNU Affero General Public License
along with this program.  If not, see <https://www.gnu.org/licenses/>.
-->
<svg width="48" height="48" viewBox="0 0 48 48" fill="none" xmlns="http://www.w3.org/2000/svg">
<path d="M28 19C28 20.1 27.1 21 26 21H22.84C22.28 21 21.74 20.88 21.24 20.66L16.64 18.64L14 26.5V43C14 44.1 13.1 45 12 45H8C6.9 45 6 44.1 6 43V25.66C6 25.22 6.08 24.78 6.22 24.36L9.18 15.72C9.92 13.5 12.44 12.38 14.6 13.36L22.9 17.02L26 17C27.1 17 28 17.9 28 19ZM16 3C13.8 3 12 4.8 12 7C12 9.2 13.8 11 16 11C18.2 11 20 9.2 20 7C20 4.8 18.2 3 16 3ZM20 39H40C41.1 39 42 38.1 42 37C42 35.9 41.1 35 40 35H20C18.9 35 18 35.9 18 37C18 38.1 18.9 39 20 39ZM39 33C40.66 33 42 31.66 42 30C42 28.34 40.66 27 39 27C37.34 27 36 28.34 36 30C36 31.66 37.34 33 39 33ZM26 25C26 23.9 25.1 23 24 23H20C18.9 23 18 23.9 18 25C18 26.1 18.9 27 20 27H22V29C22 31.2 23.8 33 26 33H30C32.2 33 34 31.2 34 29V25C34 23.9 33.1 23 32 23C30.9 23 30 23.9 30 25V27H26V25Z" fill="#404040"/>
</svg>
