<svg width="48" height="48" viewBox="0 0 48 48" fill="none" xmlns="http://www.w3.org/2000/svg">
<path d="M23.9999 13.2C25.3274 13.2 26.3999 12.1275 26.3999 10.8C26.3999 9.47255 25.3274 8.40005 23.9999 8.40005C22.6724 8.40005 21.5999 9.47255 21.5999 10.8C21.5999 12.1275 22.6724 13.2 23.9999 13.2ZM23.9999 4.80005C27.3149 4.80005 29.9999 7.48505 29.9999 10.8C29.9999 14.115 27.3149 16.8 23.9999 16.8C20.6849 16.8 17.9999 14.115 17.9999 10.8C17.9999 7.48505 20.6849 4.80005 23.9999 4.80005ZM15.2474 18.3525C14.7824 17.8875 14.0174 17.8875 13.5524 18.3525C13.0874 18.8175 13.0874 19.5825 13.5524 20.0475L14.9549 21.4501C15.9149 22.41 17.0174 23.205 18.2099 23.8125C18.8174 24.1201 19.1924 24.7425 19.1924 25.4175V26.3925H28.7924V25.4175C28.7924 24.7425 29.1749 24.1201 29.7749 23.8125C30.9674 23.205 32.0699 22.4175 33.0299 21.4501L34.4324 20.0475C34.8974 19.5825 34.8974 18.8175 34.4324 18.3525C33.9674 17.8875 33.2024 17.8875 32.7374 18.3525L31.3349 19.755C29.3849 21.705 26.7449 22.8 23.9924 22.8C21.2399 22.8 18.5924 21.705 16.6499 19.755L15.2474 18.3525ZM30.0449 30.4125L28.2374 31.9951L30.0074 34.2675C30.5174 34.9275 30.5099 35.85 29.9924 36.4951L29.0624 37.6501C28.6499 38.1675 28.7324 38.925 29.2499 39.3376C29.7674 39.75 30.5249 39.6675 30.9374 39.1501L33.3374 36.15C33.6824 35.715 33.6899 35.1001 33.3449 34.6651L30.0374 30.4125H30.0449ZM19.7699 31.9951L17.9624 30.4125L14.6549 34.6651C14.3174 35.1001 14.3174 35.715 14.6624 36.15L17.0624 39.1501C17.4749 39.6675 18.2324 39.75 18.7499 39.3376C19.2674 38.925 19.3499 38.1675 18.9374 37.6501L18.0149 36.4951C17.4974 35.8426 17.4899 34.92 17.9999 34.2675L19.7699 31.9951ZM11.0024 15.8025C12.8774 13.9275 15.9149 13.9275 17.7899 15.8025L19.1999 17.2125C20.4749 18.4875 22.1999 19.2 23.9999 19.2C25.7999 19.2 27.5249 18.4875 28.7999 17.2125L30.2024 15.81C32.0774 13.935 35.1149 13.935 36.9899 15.81C38.8649 17.6851 38.8649 20.7225 36.9899 22.5975L35.5874 24C34.6199 24.9676 33.5474 25.7926 32.3999 26.4825V27.5776L36.1874 32.4526C37.5524 34.2076 37.5374 36.6675 36.1499 38.4001L33.7499 41.4001C32.0924 43.4701 29.0699 43.8075 26.9999 42.1501C24.9299 40.4925 24.5924 37.4701 26.2499 35.4L26.2874 35.355L25.8524 34.8001H22.1474L21.7124 35.355L21.7499 35.4C23.4074 37.4701 23.0699 40.4925 20.9999 42.1501C18.9299 43.8075 15.9074 43.4701 14.2499 41.4001L11.8499 38.4001C10.4624 36.6675 10.4474 34.2076 11.8124 32.4526L15.5999 27.5776V26.4825C14.4449 25.7926 13.3724 24.9601 12.4124 24L11.0024 22.5975C9.12744 20.7225 9.12744 17.6851 11.0024 15.81V15.8025Z" fill="#271332"/>
</svg>
