<?xml version="1.0" encoding="UTF-8"?>
<!--
Soliguide: Useful information for those who need it

SPDX-FileCopyrightText: © 2025 Solinum

SPDX-License-Identifier: AGPL-3.0-only

This program is free software: you can redistribute it and/or modify
it under the terms of the GNU Affero General Public License as published
by the Free Software Foundation, either version 3 of the License, or
(at your option) any later version.

This program is distributed in the hope that it will be useful,
but WITHOUT ANY WARRANTY; without even the implied warranty of
MERCHANTABILITY or FITNESS FOR A PARTICULAR PURPOSE.  See the
GNU Affero General Public License for more details.

You should have received a copy of the GNU Affero General Public License
along with this program.  If not, see <https://www.gnu.org/licenses/>.
-->
<svg width="48" height="48" viewBox="0 0 48 48" fill="none" xmlns="http://www.w3.org/2000/svg">
<path d="M24 8L12 17.16V14H8V20.22L2 24.8L4.42 27.98L8 25.24V44H40V25.24L43.58 27.96L46 24.8L24 8ZM36 40H26V32H22V40H12V22.2L24 13.04L36 22.2V40ZM20 4C20 7.32 17.32 10 14 10C12.9 10 12 10.9 12 12H8C8 8.68 10.68 6 14 6C15.1 6 16 5.1 16 4H20Z" fill="#404040"/>
</svg>
