<?xml version="1.0" encoding="UTF-8"?>
<!--
Soliguide: Useful information for those who need it

SPDX-FileCopyrightText: © 2025 Solinum

SPDX-License-Identifier: AGPL-3.0-only

This program is free software: you can redistribute it and/or modify
it under the terms of the GNU Affero General Public License as published
by the Free Software Foundation, either version 3 of the License, or
(at your option) any later version.

This program is distributed in the hope that it will be useful,
but WITHOUT ANY WARRANTY; without even the implied warranty of
MERCHANTABILITY or FITNESS FOR A PARTICULAR PURPOSE.  See the
GNU Affero General Public License for more details.

You should have received a copy of the GNU Affero General Public License
along with this program.  If not, see <https://www.gnu.org/licenses/>.
-->
<svg width="48" height="48" viewBox="0 0 48 48" fill="none" xmlns="http://www.w3.org/2000/svg">
<path d="M44.786 26.38C45.466 25.5 45.286 24.24 44.406 23.58L25.206 8.92C24.486 8.38 23.486 8.38 22.786 8.92L12.006 17.16V16C12.006 14.9 11.106 14 10.006 14C8.90597 14 8.00597 14.9 8.00597 16V20.22L3.58597 23.58C2.70597 24.24 2.54597 25.5 3.20597 26.38C3.88597 27.26 5.12597 27.42 6.00597 26.76L8.00597 25.24V42C8.00597 43.1 8.90597 44 10.006 44H22.006V34C22.006 32.9 22.906 32 24.006 32C25.106 32 26.006 32.9 26.006 34V44H38.006C39.106 44 40.006 43.1 40.006 42V25.24L41.986 26.76C42.866 27.44 44.126 27.26 44.786 26.38ZM10.546 12C9.06597 12 8.02597 10.4 8.74597 9.1C9.78597 7.24 11.746 6 14.006 6C14.766 6 15.446 5.56 15.786 4.94C16.086 4.32 16.786 4 17.466 4C18.946 4 19.986 5.6 19.266 6.9C18.226 8.76 16.266 10 14.006 10C13.246 10 12.566 10.44 12.226 11.06C11.926 11.68 11.226 12 10.546 12Z" fill="#404040"/>
</svg>
