<svg width="48" height="48" viewBox="0 0 48 48" fill="none" xmlns="http://www.w3.org/2000/svg">
<path d="M22.8002 5.25751C23.4827 4.64251 24.5177 4.64251 25.2002 5.25751L42.6002 20.8575C43.3427 21.5175 43.4027 22.6575 42.7352 23.4C42.0677 24.1425 40.9352 24.2025 40.1927 23.535L39.5927 22.995V38.3925C39.5927 41.04 37.4402 43.1925 34.7927 43.1925H13.1927C10.5452 43.1925 8.39274 41.04 8.39274 38.3925V22.995L7.79274 23.535C7.05024 24.195 5.91774 24.135 5.25024 23.4C4.58274 22.665 4.65024 21.525 5.38524 20.8575L22.8002 5.25751ZM24.0002 9.01501L12.0002 19.7775V38.4C12.0002 39.06 12.5402 39.6 13.2002 39.6H34.8002C35.4602 39.6 36.0002 39.06 36.0002 38.4V19.7775L24.0002 9.02252V9.01501ZM23.3177 23.9175L24.0002 24.6L24.6827 23.9175C25.3952 23.205 26.3702 22.8 27.3827 22.8H27.6002C29.5877 22.8 31.2002 24.4125 31.2002 26.4C31.2002 30.405 26.1827 33.5775 24.5252 34.515C24.1952 34.7025 23.8052 34.7025 23.4752 34.515C21.8177 33.5775 16.8002 30.405 16.8002 26.4C16.8002 24.4125 18.4127 22.8 20.4002 22.8H20.6177C21.6302 22.8 22.6052 23.205 23.3177 23.9175Z" fill="#271332"/>
</svg>
