<svg width="48" height="48" viewBox="0 0 48 48" fill="none" xmlns="http://www.w3.org/2000/svg">
<path d="M24.0148 13.2C27.3298 13.2 30.0148 10.515 30.0148 7.19995H34.0273C35.3023 7.19995 36.5248 7.70245 37.4248 8.60245L46.3198 17.505C47.2573 18.4425 47.2573 19.965 46.3198 20.9025L42.5173 24.705C41.5798 25.6425 40.0573 25.6425 39.1198 24.705L36.0148 21.6V38.4C36.0148 41.0475 33.8623 43.2 31.2148 43.2H16.8148C14.1673 43.2 12.0148 41.0475 12.0148 38.4V21.6L8.90978 24.705C7.97228 25.6425 6.44978 25.6425 5.51228 24.705L1.71729 20.895C0.779785 19.9575 0.779785 18.435 1.71729 17.4975L10.6123 8.60245C11.5123 7.70245 12.7348 7.19995 14.0098 7.19995H18.0223C18.0223 10.515 20.7073 13.2 24.0223 13.2H24.0148Z" fill="#271332"/>
</svg>
