<?xml version="1.0" encoding="UTF-8"?>
<!--
Soliguide: Useful information for those who need it

SPDX-FileCopyrightText: © 2025 Solinum

SPDX-License-Identifier: AGPL-3.0-only

This program is free software: you can redistribute it and/or modify
it under the terms of the GNU Affero General Public License as published
by the Free Software Foundation, either version 3 of the License, or
(at your option) any later version.

This program is distributed in the hope that it will be useful,
but WITHOUT ANY WARRANTY; without even the implied warranty of
MERCHANTABILITY or FITNESS FOR A PARTICULAR PURPOSE.  See the
GNU Affero General Public License for more details.

You should have received a copy of the GNU Affero General Public License
along with this program.  If not, see <https://www.gnu.org/licenses/>.
-->
<svg width="48" height="48" viewBox="0 0 48 48" fill="none" xmlns="http://www.w3.org/2000/svg">
<path d="M43.2 36.4032L26 23.5032V21.6832C29.3 20.7032 31.6 17.3432 30.86 13.5832C30.34 10.9632 28.26 8.7832 25.64 8.1832C22.12 7.3832 18.9 9.2432 17.6 12.1432C17 13.4832 17.96 15.0032 19.42 15.0032C20.2 15.0032 20.92 14.5632 21.22 13.8632C21.68 12.7632 22.74 12.0032 24 12.0032C25.66 12.0032 27 13.3432 27 15.0032C27 16.6832 25.62 18.0432 23.94 18.0032C22.86 17.9832 22 18.9032 22 19.9832V23.5032L4.80003 36.4032C3.26003 37.5632 4.08003 40.0032 6.00003 40.0032H42C43.92 40.0032 44.74 37.5632 43.2 36.4032ZM12 36.0032L24 27.0032L36 36.0032H12Z" fill="#404040"/>
</svg>
