<?xml version="1.0" encoding="UTF-8"?>
<!--
Soliguide: Useful information for those who need it

SPDX-FileCopyrightText: © 2025 Solinum

SPDX-License-Identifier: AGPL-3.0-only

This program is free software: you can redistribute it and/or modify
it under the terms of the GNU Affero General Public License as published
by the Free Software Foundation, either version 3 of the License, or
(at your option) any later version.

This program is distributed in the hope that it will be useful,
but WITHOUT ANY WARRANTY; without even the implied warranty of
MERCHANTABILITY or FITNESS FOR A PARTICULAR PURPOSE.  See the
GNU Affero General Public License for more details.

You should have received a copy of the GNU Affero General Public License
along with this program.  If not, see <https://www.gnu.org/licenses/>.
-->
<svg version="1.1" width="566" height="601" xmlns="http://www.w3.org/2000/svg"><path d="M288.500 36.742 C 282.685 38.077,259.678 59.412,246.704 75.500 C 212.716 117.646,201.024 160.047,213.403 196.262 C 218.476 211.100,224.618 220.534,238.000 234.036 C 249.389 245.528,259.939 253.501,274.250 261.432 C 277.962 263.489,281.000 265.750,281.000 266.457 C 281.000 268.709,277.045 290.721,272.008 316.500 C 269.322 330.250,266.321 346.753,265.341 353.172 C 264.360 359.592,263.273 364.669,262.924 364.453 C 262.576 364.238,262.017 361.461,261.682 358.281 C 259.803 340.455,250.487 317.405,239.002 302.163 C 218.311 274.704,184.193 256.601,139.500 249.367 C 125.967 247.177,93.144 246.909,79.000 248.874 C 67.832 250.425,45.500 255.972,38.807 258.857 C 33.653 261.079,31.000 264.850,31.000 269.955 C 31.000 275.277,47.794 305.270,61.260 324.000 C 84.022 355.656,112.290 383.158,137.720 398.384 C 151.865 406.853,169.212 413.663,185.500 417.140 C 188.909 417.867,197.979 418.408,206.500 418.392 C 220.734 418.364,228.507 417.269,241.687 413.436 C 243.603 412.878,244.323 413.691,247.500 420.000 C 249.494 423.960,252.599 430.867,254.400 435.350 L 257.675 443.500 257.817 469.000 C 257.949 492.824,259.445 531.025,260.489 537.250 L 260.950 540.000 229.225 540.006 C 210.567 540.009,195.974 540.435,193.795 541.040 C 188.538 542.500,186.000 546.137,186.000 552.212 C 186.000 556.341,186.481 557.635,188.923 560.077 L 191.846 563.000 290.788 563.000 C 389.078 563.000,389.748 562.986,392.341 560.946 C 396.177 557.929,397.592 552.352,395.681 547.780 C 392.553 540.292,394.313 540.534,340.795 540.213 L 293.000 539.926 293.018 537.213 C 293.028 535.721,293.470 525.570,294.000 514.656 C 295.680 480.053,299.753 454.584,307.186 432.195 C 310.525 422.140,311.567 420.006,312.886 420.521 C 318.508 422.717,333.792 426.097,342.389 427.045 C 357.826 428.747,375.233 426.730,391.490 421.357 C 431.553 408.114,470.784 374.501,503.955 325.000 C 517.146 305.314,529.000 283.329,529.000 278.549 C 529.000 275.035,526.490 270.333,523.865 268.928 C 519.523 266.604,507.286 262.924,496.075 260.570 C 448.785 250.640,394.055 257.895,358.263 278.838 C 319.475 301.535,298.979 335.882,297.299 381.000 C 296.822 393.838,296.625 394.868,293.287 402.000 C 291.357 406.125,287.775 415.350,285.327 422.500 L 280.876 435.500 281.488 422.000 C 282.985 388.953,286.126 364.831,294.510 322.000 C 297.470 306.875,300.817 288.875,301.947 282.000 C 303.078 275.125,304.241 268.072,304.532 266.327 C 304.986 263.608,306.215 262.478,313.125 258.427 C 337.552 244.106,354.296 227.322,363.931 207.500 C 369.528 195.983,371.538 189.090,372.946 176.578 C 373.962 167.542,373.152 154.243,370.979 144.277 C 364.190 113.149,340.263 75.079,311.857 50.209 C 297.629 37.752,293.776 35.530,288.500 36.742 M300.397 71.075 C 315.368 85.246,329.626 104.280,338.439 121.861 C 357.224 159.334,354.321 190.759,329.678 216.702 C 323.565 223.137,310.346 234.000,308.628 234.000 C 308.282 234.000,307.998 227.363,307.996 219.250 C 307.988 190.775,303.768 150.864,300.264 146.128 C 295.809 140.106,288.172 139.674,282.711 145.135 C 279.777 148.069,279.734 148.263,280.325 155.812 C 280.656 160.040,281.613 169.350,282.452 176.500 C 285.296 200.734,285.688 240.000,283.086 240.000 C 282.682 240.000,278.335 237.354,273.426 234.119 C 252.161 220.109,238.510 202.799,233.539 183.540 C 231.589 175.989,231.538 159.325,233.437 150.300 C 237.982 128.691,251.522 104.071,270.724 82.500 C 279.041 73.157,289.627 63.080,291.184 63.024 C 291.560 63.011,295.706 66.634,300.397 71.075 M124.500 271.010 C 177.929 275.908,214.775 297.557,231.151 333.672 C 234.508 341.076,239.000 357.446,239.000 362.275 C 239.000 365.208,238.738 365.041,229.750 356.376 C 208.400 335.794,186.817 322.990,149.675 308.874 C 134.078 302.947,131.045 302.755,126.400 307.400 C 123.531 310.269,123.000 311.510,123.000 315.344 C 123.000 322.362,125.270 324.176,142.000 330.529 C 178.878 344.532,204.508 360.943,222.661 382.178 C 226.422 386.578,229.832 390.763,230.238 391.478 C 232.316 395.142,200.131 396.776,186.466 393.701 C 170.002 389.996,154.675 382.858,137.760 371.018 C 126.416 363.076,100.199 337.252,90.027 324.000 C 78.361 308.800,58.078 277.589,59.162 276.505 C 60.032 275.635,81.056 271.896,89.500 271.109 C 102.536 269.894,112.035 269.867,124.500 271.010 M471.789 280.057 C 481.353 281.098,499.798 284.465,500.660 285.326 C 501.287 285.953,491.958 301.626,483.596 313.996 C 441.667 376.016,391.028 408.869,344.829 404.023 C 336.336 403.132,324.259 400.592,323.125 399.459 C 322.084 398.417,330.718 387.593,338.822 379.781 C 355.888 363.329,371.732 354.937,410.991 341.555 C 437.272 332.596,438.004 332.129,437.996 324.316 C 437.991 318.876,434.918 314.353,430.298 312.984 C 426.778 311.941,425.073 312.347,407.000 318.540 C 364.254 333.187,344.612 342.614,328.116 356.402 C 325.705 358.417,323.540 359.874,323.306 359.639 C 322.615 358.948,327.771 344.397,330.900 338.207 C 344.807 310.694,375.268 290.460,414.773 282.493 C 431.354 279.150,454.405 278.165,471.789 280.057 " stroke="none" fill="black" fill-rule="evenodd"/></svg>