<?xml version="1.0" encoding="UTF-8"?>
<!--
Soliguide: Useful information for those who need it

SPDX-FileCopyrightText: © 2025 Solinum

SPDX-License-Identifier: AGPL-3.0-only

This program is free software: you can redistribute it and/or modify
it under the terms of the GNU Affero General Public License as published
by the Free Software Foundation, either version 3 of the License, or
(at your option) any later version.

This program is distributed in the hope that it will be useful,
but WITHOUT ANY WARRANTY; without even the implied warranty of
MERCHANTABILITY or FITNESS FOR A PARTICULAR PURPOSE.  See the
GNU Affero General Public License for more details.

You should have received a copy of the GNU Affero General Public License
along with this program.  If not, see <https://www.gnu.org/licenses/>.
-->
<svg width="48" height="48" viewBox="0 0 48 48" fill="none" xmlns="http://www.w3.org/2000/svg">
<path d="M17.32 27.14C17.62 27.14 17.9 27.12 18.18 27.08C19.12 29.38 21.38 31 24 31C26.62 31 28.88 29.38 29.82 27.08C30.1 27.12 30.4 27.14 30.68 27.14C34.14 27.14 36.96 24.32 36.96 20.86C36.96 19.44 36.46 18.08 35.62 17C36.48 15.92 36.96 14.56 36.96 13.14C36.96 9.68 34.14 6.86 30.68 6.86C30.38 6.86 30.1 6.88 29.82 6.92C28.88 4.62 26.62 3 24 3C21.38 3 19.12 4.62 18.18 6.92C17.9 6.88 17.6 6.86 17.32 6.86C13.86 6.86 11.04 9.68 11.04 13.14C11.04 14.56 11.54 15.92 12.38 17C11.52 18.08 11.02 19.44 11.02 20.86C11.02 24.32 13.84 27.14 17.32 27.14ZM24 27C22.76 27 21.76 26.02 21.72 24.8L21.96 22.62C22.6 22.86 23.28 23 24 23C24.72 23 25.42 22.86 26.06 22.62L26.28 24.8C26.24 26.02 25.24 27 24 27ZM30.68 23.14C30.2 23.14 29.76 23 29.4 22.74L27.78 21.6C28.88 20.7 29.66 19.42 29.9 17.94L31.66 18.78C32.46 19.16 32.98 19.96 32.98 20.84C32.98 22.12 31.94 23.14 30.68 23.14ZM29.38 11.26C29.78 11 30.22 10.86 30.68 10.86C31.94 10.86 32.96 11.88 32.96 13.14C32.96 14.02 32.46 14.8 31.64 15.2L29.88 16.04C29.64 14.56 28.86 13.28 27.74 12.38L29.38 11.26ZM24 7C25.24 7 26.24 7.98 26.28 9.2L26.06 11.38C25.42 11.14 24.72 11 24 11C23.28 11 22.6 11.14 21.96 11.38L21.72 9.2C21.76 7.98 22.76 7 24 7ZM17.32 10.86C17.8 10.86 18.24 11 18.6 11.26L20.22 12.38C19.12 13.28 18.34 14.56 18.1 16.04L16.34 15.2C15.54 14.8 15.02 14.02 15.02 13.14C15.02 11.88 16.06 10.86 17.32 10.86ZM16.34 18.8L18.1 17.96C18.34 19.44 19.12 20.72 20.24 21.62L18.62 22.72C18.22 22.98 17.78 23.12 17.32 23.12C16.06 23.12 15.04 22.1 15.04 20.84C15.02 19.98 15.54 19.2 16.34 18.8ZM24 45C33.94 45 42 36.94 42 27C32.06 27 24 35.06 24 45ZM28.88 40.12C30.3 36.32 33.32 33.28 37.12 31.88C35.7 35.68 32.68 38.7 28.88 40.12ZM6 27C6 36.94 14.06 45 24 45C24 35.06 15.94 27 6 27ZM10.88 31.88C14.68 33.3 17.72 36.32 19.12 40.12C15.32 38.7 12.3 35.68 10.88 31.88Z" fill="#271332"/>
</svg>
