<?xml version="1.0" encoding="UTF-8"?>
<!--
Soliguide: Useful information for those who need it

SPDX-FileCopyrightText: © 2025 Solinum

SPDX-License-Identifier: AGPL-3.0-only

This program is free software: you can redistribute it and/or modify
it under the terms of the GNU Affero General Public License as published
by the Free Software Foundation, either version 3 of the License, or
(at your option) any later version.

This program is distributed in the hope that it will be useful,
but WITHOUT ANY WARRANTY; without even the implied warranty of
MERCHANTABILITY or FITNESS FOR A PARTICULAR PURPOSE.  See the
GNU Affero General Public License for more details.

You should have received a copy of the GNU Affero General Public License
along with this program.  If not, see <https://www.gnu.org/licenses/>.
-->
<svg width="48" height="48" viewBox="0 0 48 48" fill="none" xmlns="http://www.w3.org/2000/svg">
<path d="M40 36C42.2 36 43.98 34.2 43.98 32L44 12C44 9.78 42.2 8 40 8H8C5.78 8 4 9.78 4 12V32C4 34.2 5.78 36 8 36H0V40H48V36H40ZM8 32V12H40V32.02L8 32ZM26 18.26C18.22 19.34 15.12 24.66 14 30C16.78 26.26 20.44 24.56 26 24.56V28.94L34 21.46L26 14V18.26Z" fill="#404040"/>
</svg>
