<?xml version="1.0" encoding="UTF-8"?>
<!--
Soliguide: Useful information for those who need it

SPDX-FileCopyrightText: © 2025 Solinum

SPDX-License-Identifier: AGPL-3.0-only

This program is free software: you can redistribute it and/or modify
it under the terms of the GNU Affero General Public License as published
by the Free Software Foundation, either version 3 of the License, or
(at your option) any later version.

This program is distributed in the hope that it will be useful,
but WITHOUT ANY WARRANTY; without even the implied warranty of
MERCHANTABILITY or FITNESS FOR A PARTICULAR PURPOSE.  See the
GNU Affero General Public License for more details.

You should have received a copy of the GNU Affero General Public License
along with this program.  If not, see <https://www.gnu.org/licenses/>.
-->
<svg version="1.1" width="667" height="667" xmlns="http://www.w3.org/2000/svg"><path d="M78.500 148.404 C 63.412 153.196,52.545 164.033,47.964 178.855 C 46.045 185.065,46.000 189.057,46.000 353.107 L 46.000 521.003 333.250 520.752 L 620.500 520.500 620.741 355.144 C 621.002 176.153,621.168 182.172,615.684 171.374 C 610.320 160.814,600.373 152.463,588.909 148.895 C 583.001 147.056,575.474 147.002,332.661 147.067 C 133.305 147.120,81.688 147.392,78.500 148.404 M582.500 178.000 C 585.133 179.275,587.424 181.410,588.816 183.886 L 591.000 187.772 591.000 339.320 L 591.000 490.867 588.250 491.184 C 586.737 491.358,470.637 491.386,330.250 491.246 L 75.000 490.992 75.000 340.118 C 75.000 177.224,74.736 185.394,80.163 180.310 C 81.449 179.106,83.626 177.672,85.001 177.123 C 86.636 176.471,172.345 176.105,332.934 176.063 C 576.394 176.001,578.402 176.016,582.500 178.000 M288.000 323.998 L 288.000 400.412 298.233 389.456 C 316.096 370.331,319.850 366.516,320.320 367.014 C 320.572 367.281,327.178 380.325,335.000 396.000 C 342.822 411.675,349.416 424.706,349.653 424.959 C 350.257 425.602,373.000 414.184,373.000 413.238 C 373.000 412.813,367.867 399.648,361.593 383.983 C 355.319 368.317,350.256 355.442,350.343 355.371 C 350.429 355.300,355.000 354.962,360.500 354.621 C 385.441 353.074,388.704 352.845,391.942 352.411 C 393.835 352.157,395.541 351.792,395.734 351.600 C 395.999 351.334,325.046 282.785,292.250 251.622 L 288.000 247.584 288.000 323.998 M18.166 554.750 C 18.470 569.987,18.711 571.906,20.837 576.000 C 24.093 582.268,28.435 586.511,34.080 588.939 L 38.896 591.011 332.537 591.020 C 523.792 591.026,627.463 590.683,629.865 590.036 C 636.668 588.205,642.357 582.838,645.996 574.820 C 647.682 571.105,647.959 568.225,647.978 554.250 L 648.000 538.000 521.026 538.000 L 394.051 538.000 392.611 540.750 C 390.462 544.853,385.071 549.628,380.000 551.921 C 375.709 553.862,373.569 553.957,333.876 553.978 C 288.798 554.002,287.440 553.861,280.320 548.430 C 278.495 547.038,275.989 544.126,274.751 541.958 L 272.500 538.015 145.166 538.008 L 17.831 538.000 18.166 554.750 " stroke="none" fill="black" fill-rule="evenodd"/></svg>