<svg width="48" height="48" viewBox="0 0 48 48" fill="none" xmlns="http://www.w3.org/2000/svg">
<path d="M9.5998 7.19995C6.9523 7.19995 4.7998 9.35245 4.7998 12V31.2C4.7998 33.8475 6.9523 36 9.5998 36H20.3998L19.1998 39.6H13.7998C12.8023 39.6 11.9998 40.4025 11.9998 41.4C11.9998 42.3975 12.8023 43.2 13.7998 43.2H34.1998C35.1973 43.2 35.9998 42.3975 35.9998 41.4C35.9998 40.4025 35.1973 39.6 34.1998 39.6H28.7998L27.5998 36H38.3998C41.0473 36 43.1998 33.8475 43.1998 31.2V12C43.1998 9.35245 41.0473 7.19995 38.3998 7.19995H9.5998ZM11.9998 12H35.9998C37.3273 12 38.3998 13.0725 38.3998 14.4V26.4C38.3998 27.7275 37.3273 28.8 35.9998 28.8H11.9998C10.6723 28.8 9.5998 27.7275 9.5998 26.4V14.4C9.5998 13.0725 10.6723 12 11.9998 12Z" fill="#271332"/>
</svg>
