<svg width="48" height="48" viewBox="0 0 48 48" fill="none" xmlns="http://www.w3.org/2000/svg">
<path d="M25.005 5.01755C24.69 4.87505 24.3525 4.80005 24 4.80005C23.6475 4.80005 23.31 4.87505 22.995 5.01755L8.87253 11.01C7.22253 11.7075 5.99253 13.335 6.00003 15.3C6.03753 22.74 9.09753 36.3526 22.02 42.5401C23.2725 43.1401 24.7275 43.1401 25.98 42.5401C38.91 36.3526 41.97 22.74 42 15.3C42.0075 13.335 40.7775 11.7075 39.1275 11.01L25.005 5.01755ZM23.52 18.5625L24 19.2L24.48 18.5625C25.3125 17.4525 26.6175 16.8 27.9975 16.8C30.4275 16.8 32.4 18.7726 32.4 21.2026V21.6C32.4 25.2825 27.465 28.9575 25.1625 30.4725C24.45 30.9375 23.55 30.9375 22.845 30.4725C20.5425 28.9575 15.6075 25.275 15.6075 21.6V21.2026C15.6075 18.7726 17.58 16.8 20.01 16.8C21.3975 16.8 22.7025 17.4525 23.5275 18.5625H23.52Z" fill="#271332"/>
</svg>
