<?xml version="1.0" encoding="UTF-8"?>
<!--
Soliguide: Useful information for those who need it

SPDX-FileCopyrightText: © 2025 Solinum

SPDX-License-Identifier: AGPL-3.0-only

This program is free software: you can redistribute it and/or modify
it under the terms of the GNU Affero General Public License as published
by the Free Software Foundation, either version 3 of the License, or
(at your option) any later version.

This program is distributed in the hope that it will be useful,
but WITHOUT ANY WARRANTY; without even the implied warranty of
MERCHANTABILITY or FITNESS FOR A PARTICULAR PURPOSE.  See the
GNU Affero General Public License for more details.

You should have received a copy of the GNU Affero General Public License
along with this program.  If not, see <https://www.gnu.org/licenses/>.
-->
<svg version="1.1" width="604" height="575" xmlns="http://www.w3.org/2000/svg"><path d="M297.500 46.455 C 267.921 51.105,241.332 65.422,221.396 87.433 L 214.746 94.776 208.623 91.935 C 189.819 83.209,166.764 80.163,144.697 83.489 C 120.562 87.127,98.825 98.204,80.980 115.958 C 62.285 134.557,51.772 156.471,48.824 182.985 C 45.966 208.686,53.423 236.872,69.066 259.502 C 74.919 267.968,89.981 282.875,98.000 288.139 C 111.872 297.244,127.703 303.367,144.250 306.028 L 152.000 307.274 152.000 387.771 C 152.000 447.529,152.310 469.328,153.203 472.384 C 155.121 478.948,165.587 488.781,176.000 493.801 C 202.570 506.610,239.961 513.391,291.000 514.658 C 369.685 516.612,435.715 501.055,449.697 477.269 L 452.500 472.500 453.000 411.000 L 453.500 349.500 461.788 348.813 C 500.530 345.602,533.516 323.478,550.966 289.000 C 571.465 248.501,562.212 198.497,528.171 165.806 C 507.051 145.524,483.005 136.011,452.808 135.994 L 442.500 135.988 438.614 125.955 C 422.221 83.636,383.548 53.509,336.683 46.550 C 324.419 44.729,308.723 44.691,297.500 46.455 M343.031 71.804 C 372.975 79.764,395.582 96.514,410.176 121.550 C 413.123 126.606,419.000 139.749,419.000 141.285 C 419.000 141.529,416.863 142.531,414.250 143.512 C 399.541 149.035,386.843 157.536,383.423 164.148 C 380.056 170.660,382.818 177.795,389.569 180.023 C 394.201 181.551,397.323 180.695,404.000 176.066 C 418.638 165.916,432.663 161.112,450.058 160.288 C 480.621 158.841,508.318 172.921,524.820 198.293 C 534.091 212.547,537.463 224.424,537.372 242.500 C 537.315 253.586,536.914 256.795,534.644 264.297 C 527.960 286.385,514.220 303.988,495.400 314.573 C 484.727 320.577,468.823 325.000,457.912 325.000 L 453.000 325.000 453.000 304.135 C 453.000 284.629,452.867 283.100,450.955 280.669 C 446.706 275.268,436.299 275.262,432.054 280.659 C 430.023 283.241,430.000 284.114,430.000 360.242 C 430.000 421.444,429.744 437.102,428.750 436.667 C 398.219 423.319,364.355 417.364,313.000 416.313 C 258.297 415.192,209.931 421.884,181.340 434.529 L 176.028 436.877 175.764 336.519 L 175.500 236.161 173.103 233.609 C 167.933 228.107,160.070 228.106,154.897 233.608 C 152.528 236.127,152.496 236.431,152.198 259.632 L 151.897 283.107 147.198 282.451 C 140.089 281.459,125.269 276.310,118.263 272.399 C 98.332 261.271,83.269 242.877,76.174 221.000 C 60.865 173.797,89.209 122.790,138.500 108.839 C 149.369 105.762,171.737 105.544,183.000 108.405 C 218.080 117.314,242.685 142.306,250.435 176.903 C 252.479 186.026,253.287 187.580,256.980 189.490 C 262.821 192.510,270.822 190.179,273.698 184.618 C 275.106 181.894,275.151 180.575,274.055 174.052 C 270.554 153.219,259.970 133.198,243.335 115.942 L 235.029 107.326 243.265 99.335 C 259.213 83.859,277.122 74.455,298.334 70.417 C 308.756 68.433,333.204 69.192,343.031 71.804 M357.734 442.902 C 384.529 446.567,411.245 453.336,422.500 459.314 C 427.789 462.123,428.500 462.855,428.500 465.496 C 428.500 468.064,427.785 468.879,423.500 471.200 C 408.289 479.438,372.100 487.212,335.569 490.091 C 316.446 491.597,270.248 490.737,252.000 488.535 C 233.100 486.255,211.702 481.798,196.927 477.066 C 184.409 473.057,178.676 470.132,176.594 466.693 C 172.621 460.130,204.569 449.075,243.500 443.540 C 263.838 440.648,274.345 440.155,308.500 440.488 C 336.037 440.756,345.396 441.215,357.734 442.902 " stroke="none" fill="black" fill-rule="evenodd"/></svg>