<svg width="48" height="48" viewBox="0 0 48 48" fill="none" xmlns="http://www.w3.org/2000/svg">
<path d="M23.9998 8.4C21.8098 8.4 19.8898 9.5775 18.8398 11.34C18.5773 11.7825 18.1273 12.0975 17.6173 12.1875C17.1073 12.2775 16.5823 12.15 16.1773 11.8275C15.3598 11.1825 14.3323 10.7925 13.1998 10.7925C10.5523 10.7925 8.3998 12.945 8.3998 15.5925C8.3998 17.79 9.87731 19.6425 11.8873 20.2125C12.6598 20.43 13.1998 21.1425 13.1998 21.945V29.9925H16.1998V20.9925C16.1998 19.995 17.0023 19.1925 17.9998 19.1925C18.9973 19.1925 19.7998 19.995 19.7998 20.9925V29.9925H22.1998V20.9925C22.1998 19.995 23.0023 19.1925 23.9998 19.1925C24.9973 19.1925 25.7998 19.995 25.7998 20.9925V29.9925H28.1998V20.9925C28.1998 19.995 29.0023 19.1925 29.9998 19.1925C30.9973 19.1925 31.7998 19.995 31.7998 20.9925V29.9925H34.7998V21.945C34.7998 21.1425 35.3323 20.43 36.1123 20.2125C38.1298 19.6425 39.5998 17.79 39.5998 15.5925C39.5998 12.945 37.4473 10.7925 34.7998 10.7925C33.6748 10.7925 32.6473 11.175 31.8223 11.8275C31.4173 12.15 30.8923 12.2775 30.3823 12.1875C29.8723 12.0975 29.4298 11.7825 29.1598 11.34C28.1098 9.5775 26.1898 8.4 23.9998 8.4ZM34.7998 33.6H13.1998V37.8C13.1998 38.7975 14.0023 39.6 14.9998 39.6H32.9998C33.9973 39.6 34.7998 38.7975 34.7998 37.8V33.6ZM16.8223 8.0175C18.5848 6.045 21.1423 4.8 23.9998 4.8C26.8573 4.8 29.4148 6.045 31.1773 8.0175C32.2723 7.4925 33.5023 7.2 34.7998 7.2C39.4423 7.2 43.1998 10.9575 43.1998 15.6C43.1998 18.9525 41.2348 21.84 38.3998 23.19V37.8C38.3998 40.785 35.9848 43.2 32.9998 43.2H14.9998C12.0148 43.2 9.5998 40.785 9.5998 37.8V23.19C6.7648 21.84 4.7998 18.9525 4.7998 15.6C4.7998 10.9575 8.5573 7.2 13.1998 7.2C14.4973 7.2 15.7273 7.4925 16.8223 8.0175Z" fill="#271332"/>
</svg>
