<svg width="64" height="64" viewBox="0 0 64 64" fill="none" xmlns="http://www.w3.org/2000/svg">
<path d="M8.0002 10.4V29.6C8.0002 30.93 9.07019 32 10.4002 32H13.6002C14.9302 32 16.0002 33.07 16.0002 34.4V37.53L21.4602 33.33C22.5802 32.47 23.9502 32 25.3602 32H34.4002C35.7302 32 36.8002 30.93 36.8002 29.6V10.4C36.8002 9.07001 35.7302 8.00001 34.4002 8.00001H10.4002C9.07019 8.00001 8.0002 9.07001 8.0002 10.4ZM10.4002 3.20001H34.4002C38.3802 3.20001 41.6002 6.42001 41.6002 10.4V29.6C41.6002 33.58 38.3802 36.8 34.4002 36.8H25.3602C25.0102 36.8 24.6602 36.92 24.3802 37.13L15.0602 44.3C14.3402 44.86 13.3602 44.95 12.5402 44.55C11.7202 44.15 11.2002 43.31 11.2002 42.4V36.8H10.4002C6.4202 36.8 3.2002 33.58 3.2002 29.6V10.4C3.2002 6.42001 6.4202 3.20001 10.4002 3.20001ZM27.2002 41.6V45.6C27.2002 46.93 28.2702 48 29.6002 48H38.6402C40.0502 48 41.4202 48.47 42.5402 49.33L48.0002 53.53V50.4C48.0002 49.07 49.0702 48 50.4002 48H53.6002C54.9302 48 56.0002 46.93 56.0002 45.6V26.4C56.0002 25.07 54.9302 24 53.6002 24H46.4002V19.2H53.6002C57.5802 19.2 60.8002 22.42 60.8002 26.4V45.6C60.8002 49.58 57.5802 52.8 53.6002 52.8H52.8002V58.4C52.8002 59.31 52.2802 60.15 51.4602 60.55C50.6402 60.95 49.6602 60.86 48.9402 60.3L39.6202 53.13C39.3402 52.91 39.0002 52.8 38.6402 52.8H29.6002C25.6202 52.8 22.4002 49.58 22.4002 45.6V44.71L26.4502 41.6H27.2002Z" fill="#271332"/>
</svg>
