<svg width="64" height="64" viewBox="0 0 64 64" fill="none" xmlns="http://www.w3.org/2000/svg">
<path d="M34.4002 3.20001C38.3802 3.20001 41.6002 6.42001 41.6002 10.4V29.6C41.6002 33.58 38.3802 36.8 34.4002 36.8H24.0002L15.6602 44.38C15.3702 44.65 14.9802 44.8 14.5802 44.8H14.4002C13.5202 44.8 12.8002 44.08 12.8002 43.2V36.8H10.4002C6.4202 36.8 3.2002 33.58 3.2002 29.6V10.4C3.2002 6.42001 6.4202 3.20001 10.4002 3.20001H34.4002ZM22.4002 45.6V44.74L25.8602 41.6H34.4002C41.0302 41.6 46.4002 36.23 46.4002 29.6V19.2H53.6002C57.5802 19.2 60.8002 22.42 60.8002 26.4V45.6C60.8002 49.58 57.5802 52.8 53.6002 52.8H51.2002V59.2C51.2002 60.08 50.4802 60.8 49.6002 60.8H49.4202C49.0202 60.8 48.6402 60.65 48.3402 60.38L40.0002 52.8H29.6002C25.6202 52.8 22.4002 49.58 22.4002 45.6Z" fill="#271332"/>
</svg>
