<?xml version="1.0" encoding="UTF-8"?>
<!--
Soliguide: Useful information for those who need it

SPDX-FileCopyrightText: © 2025 Solinum

SPDX-License-Identifier: AGPL-3.0-only

This program is free software: you can redistribute it and/or modify
it under the terms of the GNU Affero General Public License as published
by the Free Software Foundation, either version 3 of the License, or
(at your option) any later version.

This program is distributed in the hope that it will be useful,
but WITHOUT ANY WARRANTY; without even the implied warranty of
MERCHANTABILITY or FITNESS FOR A PARTICULAR PURPOSE.  See the
GNU Affero General Public License for more details.

You should have received a copy of the GNU Affero General Public License
along with this program.  If not, see <https://www.gnu.org/licenses/>.
-->
<svg width="48" height="48" viewBox="0 0 48 48" fill="none" xmlns="http://www.w3.org/2000/svg">
<path d="M35 6H10C7.8 6 6 7.8 6 10V21.42C6 29.08 11.9 35.78 19.56 36C27.48 36.24 34 29.88 34 22V20H35C38.86 20 42 16.86 42 13C42 9.14 38.86 6 35 6ZM30 10V16H10V10H30ZM35 16H34V10H35C36.66 10 38 11.34 38 13C38 14.66 36.66 16 35 16ZM8 38H36C37.1 38 38 38.9 38 40C38 41.1 37.1 42 36 42H8C6.9 42 6 41.1 6 40C6 38.9 6.9 38 8 38Z" fill="#404040"/>
</svg>
