<svg width="48" height="48" viewBox="0 0 48 48" fill="none" xmlns="http://www.w3.org/2000/svg">
<path d="M7.2002 13.8825C7.2002 8.86505 11.2652 4.80005 16.2827 4.80005C17.6927 4.80005 19.0802 5.13005 20.3402 5.76005L24.0002 7.59005L27.6602 5.76005C28.9202 5.13005 30.3077 4.80005 31.7177 4.80005C36.7352 4.80005 40.8002 8.86505 40.8002 13.8825V19.335C40.8002 21.105 40.3877 22.8525 39.6002 24.435L37.8152 28.005C37.3877 28.8675 37.1177 29.7976 37.0277 30.75L36.2627 38.7301C36.0227 41.2651 33.8927 43.2001 31.3502 43.2001C29.0102 43.2001 26.9927 41.5575 26.5202 39.2701L24.4052 29.13C24.3677 28.935 24.1952 28.8 24.0002 28.8C23.8052 28.8 23.6327 28.935 23.5952 29.13L21.4802 39.2701C21.0002 41.5575 18.9902 43.2001 16.6502 43.2001C14.1077 43.2001 11.9777 41.2651 11.7377 38.7301L10.9802 30.75C10.8902 29.7901 10.6202 28.8601 10.1927 28.005L8.4002 24.435C7.6052 22.8525 7.2002 21.105 7.2002 19.335V13.8825ZM16.2827 8.40005C13.2527 8.40005 10.8002 10.8525 10.8002 13.8825V19.335C10.8002 20.5425 11.0852 21.7425 11.6252 22.8225L13.4102 26.3925C14.0402 27.6525 14.4302 29.01 14.5652 30.4125L15.3227 38.3926C15.3902 39.0751 15.9602 39.6001 16.6502 39.6001C17.2802 39.6001 17.8277 39.1576 17.9552 38.535L20.0702 28.3951C20.4602 26.535 22.0952 25.2001 24.0002 25.2001C25.9052 25.2001 27.5402 26.535 27.9302 28.3951L30.0452 38.535C30.1727 39.1576 30.7202 39.6001 31.3502 39.6001C32.0402 39.6001 32.6177 39.0751 32.6777 38.3926L33.4352 30.4125C33.5702 29.0175 33.9602 27.6525 34.5902 26.3925L36.3752 22.8225C36.9152 21.7425 37.2002 20.5425 37.2002 19.335V13.8825C37.2002 10.8525 34.7477 8.40005 31.7177 8.40005C30.8702 8.40005 30.0302 8.59505 29.2652 8.97755L24.8027 11.2125C24.2927 11.4675 23.7002 11.4675 23.1902 11.2125L18.7352 8.97755C17.9777 8.59505 17.1377 8.40005 16.2827 8.40005Z" fill="#271332"/>
</svg>
