<?xml version="1.0" encoding="UTF-8"?>
<!--
Soliguide: Useful information for those who need it

SPDX-FileCopyrightText: © 2025 Solinum

SPDX-License-Identifier: AGPL-3.0-only

This program is free software: you can redistribute it and/or modify
it under the terms of the GNU Affero General Public License as published
by the Free Software Foundation, either version 3 of the License, or
(at your option) any later version.

This program is distributed in the hope that it will be useful,
but WITHOUT ANY WARRANTY; without even the implied warranty of
MERCHANTABILITY or FITNESS FOR A PARTICULAR PURPOSE.  See the
GNU Affero General Public License for more details.

You should have received a copy of the GNU Affero General Public License
along with this program.  If not, see <https://www.gnu.org/licenses/>.
-->
<svg version="1.1" width="667" height="667" xmlns="http://www.w3.org/2000/svg"><path d="M209.500 52.510 C 171.758 57.825,145.136 69.880,126.818 89.951 C 115.641 102.197,108.485 117.178,104.344 137.000 C 101.979 148.323,101.983 174.208,104.352 189.500 C 109.251 221.115,122.460 259.928,139.437 292.589 C 148.868 310.736,154.739 326.752,159.015 346.000 C 163.198 364.836,163.864 373.777,163.480 406.000 C 163.281 422.775,163.530 440.100,164.035 444.500 C 168.428 482.791,182.072 528.941,198.331 560.500 C 208.037 579.340,227.287 591.772,242.353 588.928 C 252.594 586.996,264.053 577.749,269.480 567.039 C 274.329 557.471,274.805 553.026,275.318 512.500 C 275.916 465.216,277.726 448.094,285.069 420.226 C 293.752 387.271,309.149 363.128,327.833 353.169 C 336.508 348.546,341.483 347.695,346.094 350.048 C 355.706 354.952,368.176 369.990,375.491 385.499 C 385.626 406.990,394.276 444.630,396.518 477.000 C 396.880 482.225,397.391 487.625,397.655 489.000 C 397.918 490.375,398.259 506.158,398.413 524.074 L 398.692 556.648 401.276 562.292 C 406.156 572.952,416.452 581.437,428.350 584.605 C 440.318 587.792,453.536 585.014,463.879 577.139 C 474.333 569.179,486.599 543.763,494.498 513.693 C 499.928 493.022,502.364 480.190,506.493 450.500 C 506.722 448.850,507.191 443.225,507.535 438.000 C 507.879 432.775,508.317 426.925,508.509 425.000 C 508.701 423.075,508.932 411.150,509.023 398.500 C 509.299 359.832,513.523 339.969,527.951 309.500 C 543.445 276.779,556.548 237.104,562.131 206.000 C 565.177 189.034,565.464 155.880,562.675 143.204 C 555.031 108.463,537.223 85.664,505.160 69.569 C 490.297 62.108,464.437 55.230,444.000 53.302 C 423.051 51.326,371.576 53.002,363.696 55.917 C 362.112 56.503,363.669 58.281,373.150 66.712 C 389.683 81.415,401.702 94.070,403.929 99.120 C 409.247 111.180,405.466 124.240,395.576 127.978 C 389.148 130.407,382.824 127.205,375.363 117.744 C 346.875 81.616,311.355 60.724,266.000 53.416 C 252.505 51.242,221.979 50.752,209.500 52.510 " stroke="none" fill="black" fill-rule="evenodd"/></svg>