<?xml version="1.0" encoding="UTF-8"?>
<!--
Soliguide: Useful information for those who need it

SPDX-FileCopyrightText: © 2025 Solinum

SPDX-License-Identifier: AGPL-3.0-only

This program is free software: you can redistribute it and/or modify
it under the terms of the GNU Affero General Public License as published
by the Free Software Foundation, either version 3 of the License, or
(at your option) any later version.

This program is distributed in the hope that it will be useful,
but WITHOUT ANY WARRANTY; without even the implied warranty of
MERCHANTABILITY or FITNESS FOR A PARTICULAR PURPOSE.  See the
GNU Affero General Public License for more details.

You should have received a copy of the GNU Affero General Public License
along with this program.  If not, see <https://www.gnu.org/licenses/>.
-->
<svg width="48" height="48" viewBox="0 0 48 48" fill="none" xmlns="http://www.w3.org/2000/svg">
<path d="M23.98 4C12.94 4 4 12.96 4 24C4 35.04 12.94 44 23.98 44C35.04 44 44 35.04 44 24C44 12.96 35.04 4 23.98 4ZM17 16C18.66 16 20 17.34 20 19C20 20.66 18.66 22 17 22C15.34 22 14 20.66 14 19C14 17.34 15.34 16 17 16ZM33.5 29.5C31.6 32.78 28.06 35 24 35C19.94 35 16.4 32.78 14.5 29.5C14.12 28.84 14.62 28 15.38 28H32.62C33.4 28 33.88 28.84 33.5 29.5ZM31 22C29.34 22 28 20.66 28 19C28 17.34 29.34 16 31 16C32.66 16 34 17.34 34 19C34 20.66 32.66 22 31 22Z" fill="#404040"/>
</svg>
