<?xml version="1.0" encoding="UTF-8"?>
<!--
Soliguide: Useful information for those who need it

SPDX-FileCopyrightText: © 2025 Solinum

SPDX-License-Identifier: AGPL-3.0-only

This program is free software: you can redistribute it and/or modify
it under the terms of the GNU Affero General Public License as published
by the Free Software Foundation, either version 3 of the License, or
(at your option) any later version.

This program is distributed in the hope that it will be useful,
but WITHOUT ANY WARRANTY; without even the implied warranty of
MERCHANTABILITY or FITNESS FOR A PARTICULAR PURPOSE.  See the
GNU Affero General Public License for more details.

You should have received a copy of the GNU Affero General Public License
along with this program.  If not, see <https://www.gnu.org/licenses/>.
-->
<svg version="1.1" width="667" height="667" xmlns="http://www.w3.org/2000/svg"><path d="M274.411 114.484 C 257.058 118.260,242.579 131.388,236.281 149.056 C 233.701 156.294,233.619 157.246,233.292 183.500 C 233.108 198.350,232.966 211.063,232.978 211.750 C 232.995 212.736,220.830 213.000,175.426 213.000 L 117.853 213.000 110.348 215.519 C 106.221 216.905,100.517 219.530,97.672 221.354 C 90.635 225.866,81.855 235.601,78.167 242.983 C 71.628 256.068,71.914 247.802,72.222 414.500 L 72.500 565.500 74.892 570.358 C 77.776 576.218,82.576 581.197,88.277 584.243 L 92.500 586.500 336.000 586.500 L 579.500 586.500 583.791 584.209 C 590.030 580.878,595.619 574.635,597.956 568.387 C 599.982 562.974,600.000 561.564,599.985 412.212 C 599.969 245.429,600.342 255.152,593.457 242.051 C 586.948 229.664,576.273 220.607,562.554 215.831 L 554.500 213.027 496.750 213.013 L 439.000 213.000 438.962 188.750 C 438.920 161.809,438.730 159.328,435.985 149.958 C 430.956 132.791,415.088 118.245,397.270 114.469 C 387.824 112.468,283.621 112.480,274.411 114.484 M393.234 157.916 L 396.500 160.833 396.797 186.916 L 397.095 213.000 336.047 213.000 L 275.000 213.000 275.000 189.149 C 275.000 162.875,275.499 159.886,280.381 156.910 C 283.343 155.103,286.177 155.007,336.734 155.004 L 389.968 155.000 393.234 157.916 M376.000 315.000 L 376.000 360.000 421.000 360.000 L 466.000 360.000 466.000 399.500 L 466.000 439.000 421.010 439.000 L 376.020 439.000 375.760 484.250 L 375.500 529.500 336.000 529.500 L 296.500 529.500 296.240 484.250 L 295.980 439.000 250.990 439.000 L 206.000 439.000 206.000 399.500 L 206.000 360.000 251.000 360.000 L 296.000 360.000 296.000 315.000 L 296.000 270.000 336.000 270.000 L 376.000 270.000 376.000 315.000 " stroke="none" fill="black" fill-rule="evenodd"/></svg>