<svg width="48" height="48" viewBox="0 0 48 48" fill="none" xmlns="http://www.w3.org/2000/svg">
<path d="M24.0376 4.80005C22.1401 4.80005 20.4976 5.90255 19.7176 7.50005C19.1926 7.30505 18.6301 7.20005 18.0376 7.20005C15.3901 7.20005 13.2376 9.35255 13.2376 12V24.4125L13.0351 24.21C11.1601 22.335 8.12256 22.335 6.24756 24.21C4.37256 26.085 4.37256 29.1225 6.24756 30.9975L12.8251 37.5751C16.4251 41.175 21.3076 43.2001 26.4001 43.2001H27.6376C27.7501 43.2001 27.8626 43.1925 27.9751 43.17C34.8526 42.705 40.3501 37.215 40.8076 30.3375C40.8301 30.225 40.8376 30.1126 40.8376 30V16.8C40.8376 14.1525 38.6851 12 36.0376 12C35.6251 12 35.2201 12.0525 34.8376 12.15V12C34.8376 9.35255 32.6851 7.20005 30.0376 7.20005C29.4451 7.20005 28.8826 7.30505 28.3576 7.50005C27.5776 5.90255 25.9351 4.80005 24.0376 4.80005ZM22.8376 12.0075V12V9.60005C22.8376 8.94005 23.3776 8.40005 24.0376 8.40005C24.6976 8.40005 25.2376 8.94005 25.2376 9.60005V22.2001C25.2376 23.1975 26.0401 24 27.0376 24C28.0351 24 28.8376 23.1975 28.8376 22.2001V12C28.8376 11.34 29.3776 10.8 30.0376 10.8C30.6976 10.8 31.2376 11.34 31.2376 12V22.2001C31.2376 23.1975 32.0401 24 33.0376 24C34.0351 24 34.8376 23.1975 34.8376 22.2001V16.8C34.8376 16.14 35.3776 15.6 36.0376 15.6C36.6976 15.6 37.2376 16.14 37.2376 16.8V29.7675C37.2301 29.8125 37.2301 29.865 37.2226 29.91C36.9676 35.1375 32.7751 39.33 27.5476 39.585C27.5026 39.585 27.4501 39.5925 27.4051 39.6001H26.4001C22.2676 39.6001 18.3001 37.9576 15.3751 35.0326L8.79006 28.4475C8.32506 27.9825 8.32506 27.2176 8.79006 26.7526C9.25506 26.2875 10.0201 26.2875 10.4851 26.7526L13.7626 30.0301C14.2801 30.5476 15.0526 30.6975 15.7276 30.42C16.4026 30.1425 16.8376 29.4825 16.8376 28.755V12C16.8376 11.34 17.3776 10.8 18.0376 10.8C18.6976 10.8 19.2376 11.3325 19.2376 11.9925V22.2001C19.2376 23.1975 20.0401 24 21.0376 24C22.0351 24 22.8376 23.1975 22.8376 22.2001V12.0075ZM23.4376 31.2001C23.4376 30.2025 22.6351 29.4 21.6376 29.4C20.6401 29.4 19.8376 30.2025 19.8376 31.2001C19.8376 32.1975 20.6401 33 21.6376 33C22.6351 33 23.4376 32.1975 23.4376 31.2001ZM27.6376 29.4C28.6351 29.4 29.4376 28.5975 29.4376 27.6C29.4376 26.6026 28.6351 25.8 27.6376 25.8C26.6401 25.8 25.8376 26.6026 25.8376 27.6C25.8376 28.5975 26.6401 29.4 27.6376 29.4ZM34.2376 32.4C34.2376 31.4025 33.4351 30.6 32.4376 30.6C31.4401 30.6 30.6376 31.4025 30.6376 32.4C30.6376 33.3976 31.4401 34.2001 32.4376 34.2001C33.4351 34.2001 34.2376 33.3976 34.2376 32.4ZM26.4376 37.8C27.4351 37.8 28.2376 36.9976 28.2376 36C28.2376 35.0026 27.4351 34.2001 26.4376 34.2001C25.4401 34.2001 24.6376 35.0026 24.6376 36C24.6376 36.9976 25.4401 37.8 26.4376 37.8Z" fill="#271332"/>
</svg>
