<svg width="48" height="48" viewBox="0 0 48 48" fill="none" xmlns="http://www.w3.org/2000/svg">
<path d="M26.4002 7.20005C26.4002 5.87255 25.3277 4.80005 24.0002 4.80005C22.6727 4.80005 21.6002 5.87255 21.6002 7.20005V22.8C21.6002 23.46 21.0602 24 20.4002 24C19.7402 24 19.2002 23.46 19.2002 22.8V9.60005C19.2002 8.27255 18.1277 7.20005 16.8002 7.20005C15.4727 7.20005 14.4002 8.27255 14.4002 9.60005V30C14.4002 30.1126 14.4002 30.2325 14.4077 30.3451L9.87019 26.025C8.67019 24.885 6.77269 24.93 5.62519 26.13C4.47769 27.33 4.53019 29.2276 5.73019 30.375L14.1602 38.4001C17.3927 41.4826 21.6902 43.2001 26.1602 43.2001H27.6002C34.8902 43.2001 40.8002 37.2901 40.8002 30V14.4C40.8002 13.0725 39.7277 12 38.4002 12C37.0727 12 36.0002 13.0725 36.0002 14.4V22.8C36.0002 23.46 35.4602 24 34.8002 24C34.1402 24 33.6002 23.46 33.6002 22.8V9.60005C33.6002 8.27255 32.5277 7.20005 31.2002 7.20005C29.8727 7.20005 28.8002 8.27255 28.8002 9.60005V22.8C28.8002 23.46 28.2602 24 27.6002 24C26.9402 24 26.4002 23.46 26.4002 22.8V7.20005ZM19.8002 31.2001C19.8002 30.2025 20.6027 29.4 21.6002 29.4C22.5977 29.4 23.4002 30.2025 23.4002 31.2001C23.4002 32.1975 22.5977 33 21.6002 33C20.6027 33 19.8002 32.1975 19.8002 31.2001ZM28.8002 27C29.7977 27 30.6002 27.8025 30.6002 28.8C30.6002 29.7976 29.7977 30.6 28.8002 30.6C27.8027 30.6 27.0002 29.7976 27.0002 28.8C27.0002 27.8025 27.8027 27 28.8002 27ZM31.8002 33.6C31.8002 32.6026 32.6027 31.8001 33.6002 31.8001C34.5977 31.8001 35.4002 32.6026 35.4002 33.6C35.4002 34.5975 34.5977 35.4 33.6002 35.4C32.6027 35.4 31.8002 34.5975 31.8002 33.6ZM25.2002 35.4C26.1977 35.4 27.0002 36.2026 27.0002 37.2001C27.0002 38.1976 26.1977 39 25.2002 39C24.2027 39 23.4002 38.1976 23.4002 37.2001C23.4002 36.2026 24.2027 35.4 25.2002 35.4Z" fill="#271332"/>
</svg>
