<svg width="48" height="48" viewBox="0 0 48 48" fill="none" xmlns="http://www.w3.org/2000/svg">
<path d="M20.3999 7.19995C23.9324 7.19995 27.1049 8.72995 29.3024 11.1525C30.0974 10.92 30.9374 10.8 31.7999 10.8C36.7724 10.8 40.7999 14.8275 40.7999 19.8C40.7999 20.79 40.6424 21.7424 40.3424 22.6349C43.4624 24.2174 45.5999 27.4574 45.5999 31.1999C45.5999 36.5024 41.3024 40.7999 35.9999 40.7999H13.1999C7.2374 40.7999 2.3999 35.9625 2.3999 30C2.3999 25.74 4.8674 22.0575 8.4524 20.3025C8.4224 19.9425 8.3999 19.575 8.3999 19.2C8.3999 12.57 13.7699 7.19995 20.3999 7.19995ZM20.3999 10.8C15.7574 10.8 11.9999 14.5575 11.9999 19.2C11.9999 19.83 12.0674 20.445 12.2024 21.0375C12.4049 21.945 11.8799 22.86 10.9949 23.145C8.0924 24.075 5.9999 26.7974 5.9999 30C5.9999 33.9749 9.2249 37.1999 13.1999 37.1999H35.9999C39.3149 37.1999 41.9999 34.5149 41.9999 31.1999C41.9999 28.3949 40.0724 26.0324 37.4624 25.3799C36.8999 25.2374 36.4424 24.84 36.2324 24.3075C36.0224 23.775 36.0674 23.1674 36.3749 22.6799C36.8999 21.8475 37.1999 20.865 37.1999 19.8075C37.1999 16.8225 34.7849 14.4075 31.7999 14.4075C30.9674 14.4075 30.1874 14.595 29.4899 14.925C28.7024 15.3 27.7574 15.0525 27.2549 14.34C25.7324 12.195 23.2274 10.8 20.4074 10.8H20.3999ZM28.3049 19.9424C28.8899 19.1399 30.0149 18.96 30.8174 19.545C31.6199 20.13 31.7999 21.255 31.2149 22.0575L23.5349 32.6174C23.2199 33.0449 22.7324 33.3225 22.1999 33.3525C21.6674 33.3825 21.1499 33.1874 20.7824 32.8049L17.3024 29.205C16.6124 28.4924 16.6274 27.3524 17.3474 26.6625C18.0674 25.9725 19.1999 25.995 19.8899 26.7075L21.8774 28.7624L28.2974 19.9349L28.3049 19.9424Z" fill="#271332"/>
</svg>
