<?xml version="1.0" encoding="UTF-8"?>
<!--
Soliguide: Useful information for those who need it

SPDX-FileCopyrightText: © 2025 Solinum

SPDX-License-Identifier: AGPL-3.0-only

This program is free software: you can redistribute it and/or modify
it under the terms of the GNU Affero General Public License as published
by the Free Software Foundation, either version 3 of the License, or
(at your option) any later version.

This program is distributed in the hope that it will be useful,
but WITHOUT ANY WARRANTY; without even the implied warranty of
MERCHANTABILITY or FITNESS FOR A PARTICULAR PURPOSE.  See the
GNU Affero General Public License for more details.

You should have received a copy of the GNU Affero General Public License
along with this program.  If not, see <https://www.gnu.org/licenses/>.
-->
<svg version="1.1" width="667" height="667" xmlns="http://www.w3.org/2000/svg"><path d="M269.966 204.925 C 233.563 209.916,208.663 222.070,185.471 246.169 C 164.964 267.476,149.820 297.696,142.915 331.088 L 140.725 341.677 131.336 344.316 C 78.443 359.182,45.092 394.716,36.365 445.502 C 34.322 457.393,34.003 484.896,35.784 495.577 C 42.377 535.112,64.734 564.432,99.868 579.622 C 109.221 583.666,124.362 587.689,135.000 588.958 C 139.236 589.463,229.093 589.753,341.500 589.623 C 522.652 589.415,541.083 589.246,547.000 587.744 C 577.076 580.111,598.057 565.658,615.022 540.889 C 635.691 510.711,640.034 478.042,627.064 450.322 C 618.450 431.915,601.080 414.245,578.531 400.952 L 571.183 396.620 570.493 391.060 C 569.388 382.154,564.084 362.259,560.213 352.500 C 553.307 335.088,545.844 323.054,534.626 311.241 C 514.778 290.338,493.052 280.657,463.000 279.325 C 451.096 278.798,431.627 280.055,427.565 281.613 C 426.820 281.899,424.395 278.769,421.509 273.795 C 411.006 255.697,398.310 241.123,383.044 229.642 C 367.742 218.134,353.252 211.309,333.571 206.340 C 319.611 202.815,290.134 202.159,269.966 204.925 M330.206 231.266 C 342.084 234.443,354.514 240.162,364.399 246.995 C 373.195 253.076,387.818 267.883,393.946 276.916 C 399.064 284.458,406.039 298.321,408.454 305.750 C 409.393 308.637,410.462 310.997,410.830 310.993 C 411.199 310.989,415.276 310.081,419.891 308.974 C 475.085 295.743,511.221 309.521,532.734 352.000 C 539.621 365.599,546.991 394.443,547.005 407.849 L 547.009 412.500 555.323 416.746 C 580.987 429.853,599.207 447.082,606.104 464.764 C 609.187 472.667,609.896 489.793,607.519 498.942 C 600.789 524.851,579.125 549.636,555.117 558.895 C 538.306 565.378,549.494 565.084,332.408 564.734 C 147.124 564.435,135.057 564.311,128.000 562.622 C 109.554 558.210,95.370 550.535,83.500 538.544 C 67.584 522.466,60.303 503.632,59.516 476.500 C 58.525 442.349,68.120 415.655,88.594 395.599 C 104.780 379.744,131.373 367.604,155.099 365.238 L 162.500 364.500 163.196 361.000 C 163.579 359.075,164.646 352.775,165.565 347.000 C 171.222 311.492,184.542 282.542,204.434 262.519 C 229.060 237.732,257.139 227.928,302.000 228.452 C 318.339 228.644,321.634 228.972,330.206 231.266 M325.347 324.159 C 322.512 324.597,317.740 325.874,314.741 326.996 C 298.103 333.221,283.560 350.636,279.872 368.750 L 278.600 375.000 272.250 375.000 C 268.531 375.000,264.686 375.628,262.967 376.517 C 256.778 379.718,256.875 378.726,256.940 438.131 C 256.974 468.463,257.398 492.869,257.908 493.816 C 258.408 494.742,260.019 496.625,261.488 498.000 L 264.160 500.500 332.830 500.758 C 400.313 501.011,401.557 500.980,404.810 498.986 C 411.038 495.167,411.000 495.546,411.000 437.180 L 411.000 384.296 408.720 380.912 C 405.641 376.344,402.650 375.032,395.269 375.015 C 389.285 375.001,389.015 374.891,388.454 372.250 C 385.463 358.168,378.070 344.647,369.203 337.040 C 363.808 332.412,353.365 326.681,347.469 325.113 C 341.953 323.646,331.563 323.198,325.347 324.159 M346.494 346.894 C 355.566 350.907,367.000 365.274,367.000 372.660 L 367.000 375.000 333.500 375.000 C 295.195 375.000,297.939 375.850,302.846 365.500 C 307.760 355.135,314.748 348.727,324.552 345.595 C 330.750 343.615,340.367 344.184,346.494 346.894 M341.000 412.917 C 344.179 415.160,346.550 421.671,345.587 425.510 C 345.189 427.096,343.207 429.955,341.182 431.865 L 337.500 435.338 337.475 444.919 L 337.451 454.500 333.725 454.810 L 330.000 455.121 330.000 444.729 C 330.000 434.502,329.958 434.316,327.341 432.919 C 321.012 429.541,320.083 419.655,325.558 413.940 C 329.649 409.669,335.817 409.261,341.000 412.917 " stroke="none" fill="black" fill-rule="evenodd"/></svg>