<?xml version="1.0" encoding="UTF-8"?>
<!--
Soliguide: Useful information for those who need it

SPDX-FileCopyrightText: © 2025 Solinum

SPDX-License-Identifier: AGPL-3.0-only

This program is free software: you can redistribute it and/or modify
it under the terms of the GNU Affero General Public License as published
by the Free Software Foundation, either version 3 of the License, or
(at your option) any later version.

This program is distributed in the hope that it will be useful,
but WITHOUT ANY WARRANTY; without even the implied warranty of
MERCHANTABILITY or FITNESS FOR A PARTICULAR PURPOSE.  See the
GNU Affero General Public License for more details.

You should have received a copy of the GNU Affero General Public License
along with this program.  If not, see <https://www.gnu.org/licenses/>.
-->
<svg version="1.1" width="667" height="667" xmlns="http://www.w3.org/2000/svg"><path d="M150.202 133.022 C 139.326 135.871,131.510 140.433,122.885 148.966 C 110.843 160.879,105.047 174.541,105.015 191.090 C 104.953 222.819,129.873 249.475,161.337 251.337 C 185.799 252.784,208.432 239.499,218.983 217.500 C 223.594 207.886,225.000 201.614,225.000 190.661 C 225.000 181.055,223.311 173.802,218.866 164.316 C 214.652 155.324,202.220 142.636,193.144 138.065 C 179.469 131.178,164.121 129.376,150.202 133.022 M387.500 138.683 C 369.825 141.011,352.619 146.166,337.856 153.558 C 328.487 158.248,316.015 166.073,313.961 168.547 C 313.120 169.561,315.221 172.700,323.086 182.182 C 328.706 188.957,333.746 194.367,334.287 194.205 C 334.828 194.043,337.122 192.663,339.385 191.138 C 356.132 179.858,376.799 172.559,394.500 171.673 C 415.482 170.624,435.957 176.958,453.166 189.823 L 459.833 194.807 470.522 182.173 L 481.210 169.539 477.855 166.707 C 463.552 154.633,442.767 144.676,423.000 140.430 C 415.903 138.906,393.996 137.828,387.500 138.683 M517.579 176.250 C 516.854 178.037,504.656 210.438,490.472 248.250 L 464.683 317.000 387.841 317.000 L 311.000 317.000 311.000 330.500 L 311.000 344.000 397.250 343.968 L 483.500 343.936 492.699 319.218 C 497.759 305.623,511.365 269.332,522.936 238.570 C 534.507 207.809,543.849 182.516,543.696 182.363 C 543.308 181.974,520.025 173.000,519.405 173.000 C 519.126 173.000,518.305 174.463,517.579 176.250 M383.516 191.590 C 373.735 193.783,362.270 198.380,355.226 202.932 C 351.935 205.060,349.004 207.185,348.714 207.654 C 348.292 208.337,358.875 222.275,362.781 226.181 C 363.351 226.751,365.986 225.773,369.619 223.644 C 379.575 217.809,387.207 215.636,398.000 215.564 C 409.228 215.488,415.083 217.204,424.063 223.201 C 427.384 225.418,430.218 227.068,430.361 226.866 C 430.505 226.665,434.081 222.375,438.309 217.332 L 445.996 208.165 442.248 205.199 C 436.511 200.659,426.263 195.404,418.500 193.020 C 409.070 190.125,392.983 189.467,383.516 191.590 M391.333 237.097 C 384.614 239.042,379.708 248.743,381.841 255.863 C 386.914 272.796,411.982 269.572,411.996 251.984 C 412.001 245.814,409.211 241.037,403.987 238.275 C 399.443 235.872,396.509 235.599,391.333 237.097 M159.801 276.129 C 149.425 277.654,139.800 285.574,136.008 295.708 C 134.067 300.897,134.000 303.429,134.000 372.070 C 134.000 448.627,133.883 446.866,139.276 451.835 C 144.545 456.691,146.570 456.886,191.894 456.922 C 215.211 456.941,234.458 457.125,234.666 457.332 C 234.873 457.539,235.678 461.262,236.454 465.604 C 243.323 504.011,249.754 540.317,253.086 559.500 C 255.283 572.150,257.477 583.455,257.961 584.622 C 258.730 586.477,259.575 586.720,264.670 586.553 C 267.877 586.447,276.033 586.280,282.795 586.181 L 295.091 586.000 294.441 582.250 C 294.084 580.188,292.742 572.875,291.460 566.000 C 288.876 552.148,282.978 520.229,280.003 504.000 C 278.945 498.225,276.718 486.300,275.056 477.500 C 273.393 468.700,271.570 458.125,271.005 454.000 C 269.048 439.714,262.174 429.937,250.000 424.125 C 244.606 421.550,244.035 421.494,220.279 421.172 L 196.058 420.844 195.779 359.172 L 195.500 297.500 193.244 293.278 C 186.476 280.612,173.740 274.081,159.801 276.129 M409.500 357.000 C 306.371 357.382,274.001 357.786,272.387 358.712 C 268.667 360.845,264.119 366.846,263.428 370.534 C 261.850 378.943,265.894 387.318,273.250 390.879 C 277.555 392.963,278.606 393.000,333.816 393.000 L 390.000 393.000 390.000 489.951 L 390.000 586.902 408.000 586.902 L 426.000 586.902 426.000 489.951 L 426.000 393.000 486.032 393.000 C 537.793 393.000,546.571 392.788,549.746 391.462 C 554.496 389.477,556.767 387.373,559.106 382.790 C 564.262 372.688,558.376 359.939,547.285 357.190 C 545.753 356.811,483.750 356.725,409.500 357.000 " stroke="none" fill="black" fill-rule="evenodd"/></svg>