<?xml version="1.0" encoding="UTF-8"?>
<!--
Soliguide: Useful information for those who need it

SPDX-FileCopyrightText: © 2025 Solinum

SPDX-License-Identifier: AGPL-3.0-only

This program is free software: you can redistribute it and/or modify
it under the terms of the GNU Affero General Public License as published
by the Free Software Foundation, either version 3 of the License, or
(at your option) any later version.

This program is distributed in the hope that it will be useful,
but WITHOUT ANY WARRANTY; without even the implied warranty of
MERCHANTABILITY or FITNESS FOR A PARTICULAR PURPOSE.  See the
GNU Affero General Public License for more details.

You should have received a copy of the GNU Affero General Public License
along with this program.  If not, see <https://www.gnu.org/licenses/>.
-->
<svg version="1.1" width="667" height="667" xmlns="http://www.w3.org/2000/svg"><path d="M538.500 18.699 C 525.094 19.919,506.943 24.999,495.500 30.732 C 472.457 42.276,455.733 61.942,451.050 83.000 C 449.725 88.955,449.741 102.528,451.078 107.344 C 451.665 109.458,452.000 111.324,451.823 111.491 C 451.645 111.657,448.125 110.872,444.000 109.744 C 438.141 108.144,433.545 107.699,423.000 107.714 C 407.304 107.735,398.903 109.563,386.333 115.690 C 376.578 120.445,364.649 131.745,360.669 140.000 C 353.910 154.021,355.136 169.616,364.012 182.518 C 367.747 187.946,376.894 196.136,382.608 199.167 C 385.024 200.448,387.000 201.851,387.000 202.285 C 387.000 202.718,383.658 206.989,379.573 211.776 C 375.489 216.563,372.255 220.588,372.388 220.721 C 372.521 220.854,382.340 218.295,394.209 215.034 C 409.904 210.723,417.147 209.181,420.768 209.380 C 433.933 210.105,450.629 206.156,462.667 199.470 C 477.967 190.973,489.929 173.577,489.988 159.737 L 490.000 156.975 496.750 160.347 C 512.262 168.095,530.631 172.193,549.965 172.218 L 562.500 172.234 594.500 181.002 C 612.100 185.825,626.667 189.618,626.871 189.431 C 627.075 189.245,622.317 183.334,616.299 176.296 C 610.280 169.258,605.045 162.971,604.666 162.325 C 604.224 161.575,606.956 159.410,612.238 156.325 C 617.817 153.067,623.593 148.415,630.024 142.000 C 639.873 132.177,644.133 125.646,648.110 114.275 C 650.727 106.796,651.668 92.107,650.064 83.816 C 644.159 53.309,613.197 27.459,574.121 20.410 C 565.707 18.893,546.504 17.970,538.500 18.699 M256.112 167.581 C 234.983 173.263,219.813 192.083,218.295 214.500 C 217.274 229.566,222.240 242.394,233.423 253.577 C 243.918 264.071,255.385 268.964,269.540 268.988 C 307.892 269.053,332.899 228.675,315.897 194.139 C 309.841 181.837,296.473 171.075,282.690 167.406 C 276.039 165.635,263.029 165.721,256.112 167.581 M249.420 291.886 C 242.830 295.904,242.999 293.979,243.006 364.651 C 243.009 405.486,243.383 429.840,244.044 432.219 C 245.368 436.986,249.509 441.897,253.671 443.636 C 256.279 444.726,266.885 445.000,306.397 445.000 L 355.858 445.000 356.914 450.250 C 357.495 453.137,358.632 459.325,359.441 464.000 C 361.694 477.012,363.599 487.790,369.603 521.500 C 372.640 538.550,376.008 557.675,377.087 564.000 C 378.167 570.325,379.532 577.920,380.122 580.878 L 381.195 586.256 390.847 585.646 C 396.156 585.311,403.361 585.028,406.858 585.018 C 412.946 585.001,413.193 584.904,412.664 582.750 C 412.360 581.513,408.728 562.050,404.593 539.500 C 400.457 516.950,395.502 489.950,393.581 479.500 C 383.785 426.211,384.706 429.531,377.699 422.267 C 370.480 414.782,368.687 414.500,328.251 414.500 L 293.001 414.500 293.001 372.750 C 293.000 349.788,293.266 331.000,293.591 331.000 C 294.129 331.000,310.441 341.251,345.682 363.736 C 361.330 373.720,363.230 374.018,366.750 367.038 C 369.938 360.717,369.836 352.070,366.495 345.366 C 362.840 338.032,367.977 341.678,306.000 302.427 C 297.475 297.028,288.925 292.043,287.000 291.349 C 284.773 290.547,277.861 290.073,268.000 290.048 C 254.550 290.013,252.093 290.256,249.420 291.886 M196.597 343.607 C 178.649 346.848,160.019 355.107,144.667 366.628 C 105.765 395.825,87.985 446.581,100.049 494.000 C 112.506 542.963,153.940 579.229,204.085 585.058 C 255.264 591.008,304.022 564.900,327.452 519.000 C 334.589 505.019,339.030 488.421,340.364 470.750 L 340.873 464.000 325.936 464.000 L 311.000 464.000 311.000 469.435 C 311.000 472.424,310.347 477.936,309.550 481.685 C 300.367 524.841,264.818 555.031,221.500 556.459 C 194.182 557.360,169.906 547.338,150.840 527.289 C 121.305 496.231,117.391 448.265,141.439 412.091 C 152.128 396.014,169.878 382.407,188.536 375.987 C 195.719 373.516,208.895 371.000,214.652 371.000 L 219.083 371.000 218.945 356.500 L 218.807 342.000 211.654 342.090 C 207.719 342.139,200.944 342.822,196.597 343.607 " stroke="none" fill="black" fill-rule="evenodd"/></svg>