<?xml version="1.0" encoding="UTF-8"?>
<!--
Soliguide: Useful information for those who need it

SPDX-FileCopyrightText: © 2025 Solinum

SPDX-License-Identifier: AGPL-3.0-only

This program is free software: you can redistribute it and/or modify
it under the terms of the GNU Affero General Public License as published
by the Free Software Foundation, either version 3 of the License, or
(at your option) any later version.

This program is distributed in the hope that it will be useful,
but WITHOUT ANY WARRANTY; without even the implied warranty of
MERCHANTABILITY or FITNESS FOR A PARTICULAR PURPOSE.  See the
GNU Affero General Public License for more details.

You should have received a copy of the GNU Affero General Public License
along with this program.  If not, see <https://www.gnu.org/licenses/>.
-->
<svg width="48" height="48" viewBox="0 0 48 48" fill="none" xmlns="http://www.w3.org/2000/svg">
<path d="M35 12.54C37.2091 12.54 39 10.7491 39 8.54001C39 6.33087 37.2091 4.54001 35 4.54001C32.7909 4.54001 31 6.33087 31 8.54001C31 10.7491 32.7909 12.54 35 12.54Z" fill="#404040"/>
<path d="M29 33.46H25C25 36.76 22.3 39.46 19 39.46C15.7 39.46 13 36.76 13 33.46C13 30.16 15.7 27.46 19 27.46V23.46C13.48 23.46 9 27.94 9 33.46C9 38.98 13.48 43.46 19 43.46C24.52 43.46 29 38.98 29 33.46ZM35 26.46H31.28L34.62 19.12C35.84 16.46 33.88 13.46 30.92 13.46H20.52C18.9 13.46 17.44 14.4 16.78 15.86L15.44 19.46L19.28 20.52L20.58 17.46H25L21.34 25.66C20.14 28.32 22.12 31.46 25.04 31.46H35V41.46H39V30.46C39 28.26 37.2 26.46 35 26.46Z" fill="#404040"/>
</svg>
