<?xml version="1.0" encoding="UTF-8"?>
<!--
Soliguide: Useful information for those who need it

SPDX-FileCopyrightText: © 2025 Solinum

SPDX-License-Identifier: AGPL-3.0-only

This program is free software: you can redistribute it and/or modify
it under the terms of the GNU Affero General Public License as published
by the Free Software Foundation, either version 3 of the License, or
(at your option) any later version.

This program is distributed in the hope that it will be useful,
but WITHOUT ANY WARRANTY; without even the implied warranty of
MERCHANTABILITY or FITNESS FOR A PARTICULAR PURPOSE.  See the
GNU Affero General Public License for more details.

You should have received a copy of the GNU Affero General Public License
along with this program.  If not, see <https://www.gnu.org/licenses/>.
-->
<svg version="1.1" width="667" height="667" xmlns="http://www.w3.org/2000/svg"><path d="M188.001 342.568 C 284.502 439.120,318.774 472.816,322.500 474.804 C 326.781 477.088,328.723 477.474,336.000 477.486 C 343.457 477.498,345.120 477.156,349.553 474.698 C 353.208 472.672,390.440 436.062,484.052 342.448 L 613.497 213.000 336.000 213.000 L 58.503 213.000 188.001 342.568 M37.250 224.250 C 35.522 226.037,32.846 230.200,31.304 233.500 L 28.500 239.500 28.500 399.000 C 28.500 566.253,28.397 561.993,32.621 568.729 C 33.988 570.909,35.165 570.042,86.259 529.225 C 159.370 470.820,223.487 420.553,231.330 415.491 L 234.161 413.665 137.832 317.332 C 84.852 264.350,41.254 221.000,40.948 221.000 C 40.642 221.000,38.978 222.463,37.250 224.250 M533.759 317.750 L 438.021 413.500 453.213 425.000 C 475.334 441.745,518.066 475.398,579.860 524.741 C 609.758 548.614,634.769 568.358,635.440 568.615 C 636.140 568.884,637.475 567.272,638.579 564.824 C 640.448 560.680,640.500 556.194,640.500 399.032 L 640.500 237.500 638.136 233.000 C 635.405 227.801,631.218 222.000,630.197 222.000 C 629.812 222.000,586.414 265.087,533.759 317.750 M230.950 437.662 C 211.121 452.669,166.570 487.671,119.000 525.617 C 54.226 577.287,48.069 582.302,48.514 583.023 C 50.338 585.973,59.676 586.063,337.000 585.782 C 603.213 585.513,616.656 585.415,619.772 583.713 L 623.044 581.926 609.772 571.157 C 570.020 538.902,465.124 456.043,439.501 436.658 L 425.503 426.067 394.501 456.961 C 367.438 483.931,362.694 488.236,357.151 490.855 C 343.858 497.134,329.379 497.349,315.955 491.468 C 310.095 488.901,306.590 485.750,277.950 457.305 L 246.401 425.970 230.950 437.662 " stroke="none" fill="black" fill-rule="evenodd"/></svg>