<svg width="48" height="48" viewBox="0 0 48 48" fill="none" xmlns="http://www.w3.org/2000/svg">
<path d="M2.3999 12C2.3999 9.35251 4.5524 7.20001 7.1999 7.20001H40.7999C43.4474 7.20001 45.5999 9.35251 45.5999 12H2.3999ZM2.3999 15.6H45.5999V36C45.5999 38.6475 43.4474 40.8 40.7999 40.8H7.1999C4.5524 40.8 2.3999 38.6475 2.3999 36V15.6ZM20.9474 36C22.4624 36 23.5949 34.545 22.6274 33.375C21.5249 32.0475 19.8599 31.2 17.9999 31.2H13.1999C11.3399 31.2 9.6749 32.0475 8.5724 33.375C7.6049 34.545 8.7374 36 10.2524 36H20.9399H20.9474ZM15.5999 28.2C17.9174 28.2 19.7999 26.3175 19.7999 24C19.7999 21.6825 17.9174 19.8 15.5999 19.8C13.2824 19.8 11.3999 21.6825 11.3999 24C11.3999 26.3175 13.2824 28.2 15.5999 28.2ZM29.3999 20.4C28.4024 20.4 27.5999 21.2025 27.5999 22.2C27.5999 23.1975 28.4024 24 29.3999 24H37.7999C38.7974 24 39.5999 23.1975 39.5999 22.2C39.5999 21.2025 38.7974 20.4 37.7999 20.4H29.3999ZM29.3999 27.6C28.4024 27.6 27.5999 28.4025 27.5999 29.4C27.5999 30.3975 28.4024 31.2 29.3999 31.2H37.7999C38.7974 31.2 39.5999 30.3975 39.5999 29.4C39.5999 28.4025 38.7974 27.6 37.7999 27.6H29.3999Z" fill="#271332"/>
</svg>
