<svg width="48" height="48" viewBox="0 0 48 48" fill="none" xmlns="http://www.w3.org/2000/svg">
<path d="M5.9999 36V16.8H41.9999V36C41.9999 36.66 41.4599 37.2 40.7999 37.2H26.3999C26.3999 33.885 23.7149 31.2 20.3999 31.2H15.5999C12.2849 31.2 9.5999 33.885 9.5999 37.2H7.1999C6.5399 37.2 5.9999 36.66 5.9999 36ZM7.1999 7.20001C4.5524 7.20001 2.3999 9.35251 2.3999 12V36C2.3999 38.6475 4.5524 40.8 7.1999 40.8H40.7999C43.4474 40.8 45.5999 38.6475 45.5999 36V12C45.5999 9.35251 43.4474 7.20001 40.7999 7.20001H7.1999ZM17.9999 28.2C20.3174 28.2 22.1999 26.3175 22.1999 24C22.1999 21.6825 20.3174 19.8 17.9999 19.8C15.6824 19.8 13.7999 21.6825 13.7999 24C13.7999 26.3175 15.6824 28.2 17.9999 28.2ZM30.5999 20.4C29.6024 20.4 28.7999 21.2025 28.7999 22.2C28.7999 23.1975 29.6024 24 30.5999 24H36.5999C37.5974 24 38.3999 23.1975 38.3999 22.2C38.3999 21.2025 37.5974 20.4 36.5999 20.4H30.5999ZM30.5999 27.6C29.6024 27.6 28.7999 28.4025 28.7999 29.4C28.7999 30.3975 29.6024 31.2 30.5999 31.2H36.5999C37.5974 31.2 38.3999 30.3975 38.3999 29.4C38.3999 28.4025 37.5974 27.6 36.5999 27.6H30.5999Z" fill="#271332"/>
</svg>
