<svg width="48" height="48" viewBox="0 0 48 48" fill="none" xmlns="http://www.w3.org/2000/svg">
<path d="M12.8323 12.435L10.8448 21.6H13.4023C13.8973 20.205 15.2323 19.2 16.7998 19.2H19.1998C20.7673 19.2 22.1023 20.205 22.5973 21.6H25.4098C25.9048 20.205 27.2398 19.2 28.8073 19.2H31.2073C32.7748 19.2 34.1098 20.205 34.6048 21.6H37.1698L35.1748 12.435C34.8073 10.7775 33.3448 9.6 31.6498 9.6H16.3498C14.6548 9.6 13.1923 10.7775 12.8323 12.435ZM6.9898 22.3725L7.2373 21.2175L9.3148 11.67C10.0348 8.3625 12.9673 6 16.3498 6H31.6498C35.0398 6 37.9648 8.3625 38.6848 11.67L40.7623 21.2175L41.0098 22.3725C42.3298 23.2275 43.1998 24.7125 43.1998 26.4V38.4C43.1998 39.7275 42.1273 40.8 40.7998 40.8H38.3998C37.0723 40.8 35.9998 39.7275 35.9998 38.4V36H11.9998V38.4C11.9998 39.7275 10.9273 40.8 9.5998 40.8H7.1998C5.8723 40.8 4.7998 39.7275 4.7998 38.4V26.4C4.7998 24.7125 5.6698 23.2275 6.9898 22.3725ZM14.9998 14.4C14.9998 12.7425 16.3423 11.4 17.9998 11.4C19.6573 11.4 20.9998 12.7425 20.9998 14.4C20.9998 16.0575 19.6573 17.4 17.9998 17.4C16.3423 17.4 14.9998 16.0575 14.9998 14.4ZM29.9998 11.4C31.6573 11.4 32.9998 12.7425 32.9998 14.4C32.9998 16.0575 31.6573 17.4 29.9998 17.4C28.3423 17.4 26.9998 16.0575 26.9998 14.4C26.9998 12.7425 28.3423 11.4 29.9998 11.4ZM14.3998 28.8C14.3998 27.4725 13.3273 26.4 11.9998 26.4C10.6723 26.4 9.5998 27.4725 9.5998 28.8C9.5998 30.1275 10.6723 31.2 11.9998 31.2C13.3273 31.2 14.3998 30.1275 14.3998 28.8ZM35.9998 31.2C37.3273 31.2 38.3998 30.1275 38.3998 28.8C38.3998 27.4725 37.3273 26.4 35.9998 26.4C34.6723 26.4 33.5998 27.4725 33.5998 28.8C33.5998 30.1275 34.6723 31.2 35.9998 31.2Z" fill="#271332"/>
</svg>
