<?xml version="1.0" encoding="UTF-8"?>
<!--
Soliguide: Useful information for those who need it

SPDX-FileCopyrightText: © 2025 Solinum

SPDX-License-Identifier: AGPL-3.0-only

This program is free software: you can redistribute it and/or modify
it under the terms of the GNU Affero General Public License as published
by the Free Software Foundation, either version 3 of the License, or
(at your option) any later version.

This program is distributed in the hope that it will be useful,
but WITHOUT ANY WARRANTY; without even the implied warranty of
MERCHANTABILITY or FITNESS FOR A PARTICULAR PURPOSE.  See the
GNU Affero General Public License for more details.

You should have received a copy of the GNU Affero General Public License
along with this program.  If not, see <https://www.gnu.org/licenses/>.
-->
<svg version="1.1" width="667" height="667" xmlns="http://www.w3.org/2000/svg"><path d="M53.906 183.300 C 41.809 187.423,31.443 197.853,27.344 210.025 C 25.581 215.261,25.500 222.973,25.500 386.500 L 25.500 557.500 27.817 562.958 C 33.014 575.197,42.841 584.326,54.793 588.018 C 61.125 589.973,64.846 590.000,332.560 590.000 L 603.909 590.000 610.350 587.662 C 622.295 583.326,631.116 574.890,636.183 562.958 L 638.500 557.500 638.809 389.000 C 639.041 262.405,638.825 219.132,637.940 215.000 C 634.726 200.006,623.419 187.372,609.315 183.016 C 602.840 181.016,600.699 181.000,331.645 181.026 L 60.500 181.052 53.906 183.300 M479.107 333.805 C 527.839 390.225,536.567 400.788,535.759 402.367 C 533.722 406.349,504.853 434.133,492.500 443.999 C 456.132 473.048,413.225 494.233,377.000 501.027 C 353.049 505.519,325.718 506.415,304.704 503.398 C 256.444 496.468,208.411 473.019,162.618 434.035 C 150.138 423.410,133.000 407.129,133.000 405.898 C 133.000 405.200,223.008 300.232,240.689 280.312 L 247.069 273.123 255.785 280.151 C 260.578 284.016,269.675 290.248,276.000 294.001 C 329.378 325.666,378.635 318.919,414.000 275.097 C 417.575 270.667,420.725 267.058,421.000 267.076 C 421.275 267.095,447.423 297.123,479.107 333.805 M253.176 335.098 C 233.281 338.886,217.973 358.832,219.711 378.701 C 221.751 402.027,240.652 419.093,263.043 417.828 C 267.528 417.574,270.000 417.812,270.000 418.496 C 270.000 421.410,277.496 434.617,281.712 439.130 C 291.002 449.075,305.768 457.159,323.000 461.734 C 330.659 463.768,335.019 464.277,345.500 464.362 C 361.088 464.489,370.186 462.661,381.008 457.228 C 394.551 450.429,398.082 442.973,398.756 419.750 C 399.318 400.367,398.651 401.000,418.529 401.000 L 432.788 401.000 435.894 398.099 C 439.898 394.359,439.956 390.802,436.077 386.923 L 433.154 384.000 414.027 384.000 C 392.285 384.000,392.565 383.925,382.476 392.483 C 369.584 403.420,355.980 409.578,346.455 408.788 C 340.834 408.322,333.000 404.166,333.000 401.650 C 333.000 400.922,339.321 395.502,347.047 389.605 C 355.198 383.383,361.494 377.831,362.047 376.376 C 363.823 371.706,363.199 366.536,360.562 364.058 C 357.438 361.123,350.645 360.282,345.970 362.251 C 344.061 363.055,334.281 370.335,324.236 378.430 C 309.023 390.689,300.769 396.102,299.390 394.724 C 299.257 394.590,300.061 391.785,301.178 388.491 C 305.440 375.912,302.324 360.204,293.410 349.324 C 284.247 338.143,267.774 332.318,253.176 335.098 " stroke="none" fill="black" fill-rule="evenodd"/></svg>