<svg width="48" height="48" viewBox="0 0 48 48" fill="none" xmlns="http://www.w3.org/2000/svg">
<path d="M9.5998 4.80005C6.9523 4.80005 4.7998 6.95255 4.7998 9.60005V15C4.7998 15.9975 5.6023 16.8 6.5998 16.8C7.5973 16.8 8.3998 15.9975 8.3998 15V9.60005C8.3998 8.94005 8.9398 8.40005 9.5998 8.40005H14.9998C15.9973 8.40005 16.7998 7.59755 16.7998 6.60005C16.7998 5.60255 15.9973 4.80005 14.9998 4.80005H9.5998ZM32.9998 4.80005C32.0023 4.80005 31.1998 5.60255 31.1998 6.60005C31.1998 7.59755 32.0023 8.40005 32.9998 8.40005H38.3998C39.0598 8.40005 39.5998 8.94005 39.5998 9.60005V15C39.5998 15.9975 40.4023 16.8 41.3998 16.8C42.3973 16.8 43.1998 15.9975 43.1998 15V9.60005C43.1998 6.95255 41.0473 4.80005 38.3998 4.80005H32.9998ZM8.3998 33C8.3998 32.0025 7.5973 31.2 6.5998 31.2C5.6023 31.2 4.7998 32.0025 4.7998 33V38.4001C4.7998 41.0476 6.9523 43.2001 9.5998 43.2001H14.9998C15.9973 43.2001 16.7998 42.3976 16.7998 41.4001C16.7998 40.4026 15.9973 39.6001 14.9998 39.6001H9.5998C8.9398 39.6001 8.3998 39.0601 8.3998 38.4001V33ZM43.1998 33C43.1998 32.0025 42.3973 31.2 41.3998 31.2C40.4023 31.2 39.5998 32.0025 39.5998 33V38.4001C39.5998 39.0601 39.0598 39.6001 38.3998 39.6001H32.9998C32.0023 39.6001 31.1998 40.4026 31.1998 41.4001C31.1998 42.3976 32.0023 43.2001 32.9998 43.2001H38.3998C41.0473 43.2001 43.1998 41.0476 43.1998 38.4001V33ZM29.3998 17.4C29.3998 14.415 26.9848 12 23.9998 12C21.0148 12 18.5998 14.415 18.5998 17.4C18.5998 20.385 21.0148 22.8 23.9998 22.8C26.9848 22.8 29.3998 20.385 29.3998 17.4ZM20.3998 26.4C17.0848 26.4 14.3998 29.085 14.3998 32.4C14.3998 33.7276 15.4723 34.8001 16.7998 34.8001H31.1998C32.5273 34.8001 33.5998 33.7276 33.5998 32.4C33.5998 29.085 30.9148 26.4 27.5998 26.4H20.3998Z" fill="black"/>
</svg>
