<svg width="48" height="48" viewBox="0 0 48 48" fill="none" xmlns="http://www.w3.org/2000/svg">
<path d="M16.2002 2.3999C17.1977 2.3999 18.0002 3.2024 18.0002 4.1999V11.9999H30.0002V4.1999C30.0002 3.2024 30.8027 2.3999 31.8002 2.3999C32.7977 2.3999 33.6002 3.2024 33.6002 4.1999V11.9999H39.0002C39.9977 11.9999 40.8002 12.8024 40.8002 13.7999C40.8002 14.7974 39.9977 15.5999 39.0002 15.5999H38.4002V21.5999C38.4002 28.9424 32.9027 35.0024 25.8002 35.8874V41.3999C25.8002 42.3974 24.9977 43.1999 24.0002 43.1999C23.0027 43.1999 22.2002 42.3974 22.2002 41.3999V35.8874C15.0977 35.0024 9.6002 28.9424 9.6002 21.5999V15.5999H9.0002C8.0027 15.5999 7.2002 14.7974 7.2002 13.7999C7.2002 12.8024 8.0027 11.9999 9.0002 11.9999H14.4002V4.1999C14.4002 3.2024 15.2027 2.3999 16.2002 2.3999ZM13.2002 15.5999V21.5999C13.2002 27.5624 18.0377 32.3999 24.0002 32.3999C29.9627 32.3999 34.8002 27.5624 34.8002 21.5999V15.5999H13.2002Z" fill="#271332"/>
</svg>
