<?xml version="1.0" encoding="UTF-8"?>
<!--
Soliguide: Useful information for those who need it

SPDX-FileCopyrightText: © 2025 Solinum

SPDX-License-Identifier: AGPL-3.0-only

This program is free software: you can redistribute it and/or modify
it under the terms of the GNU Affero General Public License as published
by the Free Software Foundation, either version 3 of the License, or
(at your option) any later version.

This program is distributed in the hope that it will be useful,
but WITHOUT ANY WARRANTY; without even the implied warranty of
MERCHANTABILITY or FITNESS FOR A PARTICULAR PURPOSE.  See the
GNU Affero General Public License for more details.

You should have received a copy of the GNU Affero General Public License
along with this program.  If not, see <https://www.gnu.org/licenses/>.
-->
<svg version="1.1" width="667" height="667" xmlns="http://www.w3.org/2000/svg"><path d="M211.939 25.306 C 206.181 26.933,203.262 29.062,194.293 38.176 C 185.487 47.124,182.737 52.763,182.694 61.956 C 182.637 74.505,179.910 71.324,256.038 147.507 L 324.995 216.514 285.007 256.493 L 245.019 296.472 175.259 226.865 C 97.912 149.687,102.294 153.410,89.000 153.586 C 79.938 153.706,74.519 156.741,63.861 167.663 C 56.675 175.027,54.950 177.429,53.611 181.940 C 51.585 188.762,51.578 193.190,53.584 200.068 C 55.119 205.332,57.342 207.677,125.322 275.755 L 195.476 346.009 170.113 371.387 L 144.750 396.765 155.625 407.193 C 200.630 450.350,207.242 456.229,223.122 467.207 C 257.246 490.796,294.944 503.528,333.500 504.486 C 355.777 505.039,370.480 502.879,391.112 496.021 C 408.441 490.261,422.952 482.574,436.695 471.876 L 442.889 467.053 492.598 518.277 C 519.938 546.450,545.770 573.028,550.002 577.341 L 557.696 585.181 585.348 558.421 C 600.557 543.703,613.000 531.355,613.000 530.981 C 613.000 530.415,572.110 488.568,513.168 428.812 L 500.653 416.125 506.782 406.812 C 517.854 389.988,525.743 370.743,530.070 350.000 C 532.818 336.827,533.575 308.462,531.565 294.000 C 525.094 247.452,508.134 208.039,478.636 171.000 C 471.875 162.510,427.110 117.000,425.521 117.000 C 424.951 117.000,413.242 128.250,399.501 141.999 L 374.517 166.998 305.009 97.579 C 253.523 46.160,234.473 27.741,231.538 26.543 C 226.075 24.312,217.393 23.764,211.939 25.306 " stroke="none" fill="black" fill-rule="evenodd"/></svg>