<?xml version="1.0" encoding="UTF-8"?>
<!--
Soliguide: Useful information for those who need it

SPDX-FileCopyrightText: © 2025 Solinum

SPDX-License-Identifier: AGPL-3.0-only

This program is free software: you can redistribute it and/or modify
it under the terms of the GNU Affero General Public License as published
by the Free Software Foundation, either version 3 of the License, or
(at your option) any later version.

This program is distributed in the hope that it will be useful,
but WITHOUT ANY WARRANTY; without even the implied warranty of
MERCHANTABILITY or FITNESS FOR A PARTICULAR PURPOSE.  See the
GNU Affero General Public License for more details.

You should have received a copy of the GNU Affero General Public License
along with this program.  If not, see <https://www.gnu.org/licenses/>.
-->
<svg width="48" height="48" viewBox="0 0 48 48" fill="none" xmlns="http://www.w3.org/2000/svg">
<path d="M32.02 14L32 8C32 6.9 31.1 6 30 6C28.9 6 28 6.9 28 8V14H20V8C20 6.9 19.1 6 18 6C16.9 6 16 6.9 16 8V14H15.98C13.8 14 12 15.8 12 17.98V27.3C12 28.36 12.42 29.38 13.16 30.12L19 36V40C19 41.1 19.9 42 21 42H27C28.1 42 29 41.1 29 40V36L34.84 30.16C35.58 29.4 36 28.38 36 27.32V17.98C36 15.78 34.22 14 32.02 14Z" fill="#404040"/>
</svg>
