<svg width="48" height="48" viewBox="0 0 48 48" fill="none" xmlns="http://www.w3.org/2000/svg">
<path d="M4.7999 7.19995C6.1274 7.19995 7.1999 8.27245 7.1999 9.59995V26.4H23.9999V16.8C23.9999 15.4725 25.0724 14.4 26.3999 14.4H38.3999C42.3749 14.4 45.5999 17.625 45.5999 21.6V38.4C45.5999 39.7274 44.5274 40.7999 43.1999 40.7999C41.8724 40.7999 40.7999 39.7274 40.7999 38.4V33.5999H7.1999V38.4C7.1999 39.7274 6.1274 40.7999 4.7999 40.7999C3.4724 40.7999 2.3999 39.7274 2.3999 38.4V9.59995C2.3999 8.27245 3.4724 7.19995 4.7999 7.19995ZM10.7999 19.2C10.7999 16.5525 12.9524 14.4 15.5999 14.4C18.2474 14.4 20.3999 16.5525 20.3999 19.2C20.3999 21.8475 18.2474 24 15.5999 24C12.9524 24 10.7999 21.8475 10.7999 19.2Z" fill="#271332"/>
</svg>
