<?xml version="1.0" encoding="UTF-8"?>
<!--
Soliguide: Useful information for those who need it

SPDX-FileCopyrightText: © 2025 Solinum

SPDX-License-Identifier: AGPL-3.0-only

This program is free software: you can redistribute it and/or modify
it under the terms of the GNU Affero General Public License as published
by the Free Software Foundation, either version 3 of the License, or
(at your option) any later version.

This program is distributed in the hope that it will be useful,
but WITHOUT ANY WARRANTY; without even the implied warranty of
MERCHANTABILITY or FITNESS FOR A PARTICULAR PURPOSE.  See the
GNU Affero General Public License for more details.

You should have received a copy of the GNU Affero General Public License
along with this program.  If not, see <https://www.gnu.org/licenses/>.
-->
<svg width="48" height="48" viewBox="0 0 48 48" fill="none" xmlns="http://www.w3.org/2000/svg">
<path d="M14 25C17.32 25 20 22.32 20 19C20 15.68 17.32 13 14 13C10.68 13 8 15.68 8 19C8 22.32 10.68 25 14 25ZM38 13H26C23.8 13 22 14.8 22 17V27H6V11C6 9.9 5.1 9 4 9C2.9 9 2 9.9 2 11V37C2 38.1 2.9 39 4 39C5.1 39 6 38.1 6 37V33H42V37C42 38.1 42.9 39 44 39C45.1 39 46 38.1 46 37V21C46 16.58 42.42 13 38 13Z" fill="#404040"/>
</svg>
