<svg width="48" height="48" viewBox="0 0 48 48" fill="none" xmlns="http://www.w3.org/2000/svg">
<path d="M7.2002 30.615C7.2002 27.915 8.2727 25.3275 10.1852 23.415L23.4152 10.185C25.3277 8.27245 27.9152 7.19995 30.6152 7.19995C36.2402 7.19995 40.8002 11.76 40.8002 17.385C40.8002 20.085 39.7277 22.6724 37.8152 24.5849L24.5852 37.815C22.6727 39.7275 20.0852 40.7999 17.3852 40.7999C11.7602 40.7999 7.2002 36.24 7.2002 30.615ZM27.3827 29.9249L18.0752 20.6174L12.7277 25.965C11.4902 27.2025 10.8002 28.8749 10.8002 30.6224C10.8002 34.2599 13.7477 37.2074 17.3852 37.2074C19.1327 37.2074 20.8052 36.5174 22.0427 35.2799L27.3827 29.9249ZM29.9252 27.3825L35.2727 22.0349C36.5102 20.7974 37.2002 19.125 37.2002 17.3774C37.2002 13.74 34.2527 10.7925 30.6152 10.7925C28.8677 10.7925 27.1952 11.4825 25.9577 12.72L20.6177 18.075L29.9252 27.3825Z" fill="#271332"/>
</svg>
