<svg width="48" height="48" viewBox="0 0 48 48" fill="none" xmlns="http://www.w3.org/2000/svg">
<path d="M9.8623 9.58493C6.7348 12.6299 4.7998 16.8899 4.7998 21.5999C4.7998 25.6499 6.2323 29.3624 8.6173 32.2649C9.2173 32.9924 9.5998 33.8849 9.5998 34.8299V39.5999C9.5998 41.5874 11.2123 43.1999 13.1998 43.1999H25.1998C27.1873 43.1999 28.7998 41.5874 28.7998 39.5999V39.0599C28.7998 38.6774 29.1373 38.3999 29.5273 38.3999H32.3998C35.0473 38.3999 37.1998 36.2474 37.1998 33.5999V29.9999C37.1998 29.3399 37.7398 28.7999 38.3998 28.7999H38.4748C40.4248 28.7999 41.9998 27.2249 41.9998 25.2749C41.9998 24.4499 41.7073 23.6549 41.1823 23.0174L38.4973 19.7999C38.3473 19.6199 38.2573 19.4024 38.2273 19.1774C37.6873 15.4424 35.9173 12.0974 33.3373 9.58493L31.2673 11.6549C30.6523 12.2774 30.2998 13.1099 30.2998 13.9874V16.5974C31.1998 17.1149 31.7998 18.0824 31.7998 19.1924C31.7998 20.8499 30.4573 22.1924 28.7998 22.1924C27.1423 22.1924 25.7998 20.8499 25.7998 19.1924C25.7998 18.0824 26.3998 17.1149 27.2998 16.5974V13.9874C27.2998 12.3149 27.9673 10.7174 29.1448 9.53243L31.0048 7.67243C28.7098 6.11993 26.0098 5.12243 23.0998 4.86743V11.8049C23.9998 12.3224 24.5998 13.2899 24.5998 14.3999C24.5998 16.0574 23.2573 17.3999 21.5998 17.3999C19.9423 17.3999 18.5998 16.0574 18.5998 14.3999C18.5998 13.2899 19.1998 12.3224 20.0998 11.8049V4.86743C17.1898 5.12243 14.4898 6.11993 12.1948 7.67243L14.0548 9.53243C15.2398 10.7174 15.8998 12.3149 15.8998 13.9874V16.5974C16.7998 17.1149 17.3998 18.0824 17.3998 19.1924C17.3998 20.8499 16.0573 22.1924 14.3998 22.1924C12.7423 22.1924 11.3998 20.8499 11.3998 19.1924C11.3998 18.0824 11.9998 17.1149 12.8998 16.5974V13.9874C12.8998 13.1099 12.5548 12.2699 11.9323 11.6549L9.8623 9.58493ZM18.5998 23.9999C18.5998 22.3424 19.9423 20.9999 21.5998 20.9999C23.2573 20.9999 24.5998 22.3424 24.5998 23.9999C24.5998 25.6574 23.2573 26.9999 21.5998 26.9999C19.9423 26.9999 18.5998 25.6574 18.5998 23.9999Z" fill="#271332"/>
</svg>
