<svg width="64" height="64" viewBox="0 0 64 64" fill="none" xmlns="http://www.w3.org/2000/svg">
<path d="M32.02 17.6C36.44 17.6 40.02 14.02 40.02 9.59998H45.37C47.07 9.59998 48.7 10.27 49.9 11.47L61.76 23.34C63.01 24.59 63.01 26.62 61.76 27.87L56.69 32.94C55.44 34.19 53.41 34.19 52.16 32.94L48.02 28.8V51.2C48.02 54.73 45.15 57.6 41.62 57.6H22.42C18.89 57.6 16.02 54.73 16.02 51.2V28.8L11.88 32.94C10.63 34.19 8.60004 34.19 7.35004 32.94L2.29004 27.86C1.04004 26.61 1.04004 24.58 2.29004 23.33L14.15 11.47C15.35 10.27 16.98 9.59998 18.68 9.59998H24.03C24.03 14.02 27.61 17.6 32.03 17.6H32.02Z" fill="#271332"/>
</svg>
