<?xml version="1.0" encoding="UTF-8"?>
<!--
Soliguide: Useful information for those who need it

SPDX-FileCopyrightText: © 2025 Solinum

SPDX-License-Identifier: AGPL-3.0-only

This program is free software: you can redistribute it and/or modify
it under the terms of the GNU Affero General Public License as published
by the Free Software Foundation, either version 3 of the License, or
(at your option) any later version.

This program is distributed in the hope that it will be useful,
but WITHOUT ANY WARRANTY; without even the implied warranty of
MERCHANTABILITY or FITNESS FOR A PARTICULAR PURPOSE.  See the
GNU Affero General Public License for more details.

You should have received a copy of the GNU Affero General Public License
along with this program.  If not, see <https://www.gnu.org/licenses/>.
-->
<svg version="1.1" width="667" height="667" xmlns="http://www.w3.org/2000/svg"><path d="M425.000 100.106 C 423.075 100.601,413.660 102.363,404.079 104.021 C 375.565 108.955,358.066 110.345,324.000 110.383 C 291.261 110.420,274.404 109.095,250.000 104.567 C 243.125 103.291,237.396 102.334,237.268 102.439 C 237.141 102.544,240.145 107.326,243.945 113.065 C 276.766 162.641,314.688 181.873,353.550 168.653 C 379.093 159.963,406.742 136.304,428.087 104.872 C 432.394 98.530,432.212 98.249,425.000 100.106 M439.992 110.185 C 430.363 126.142,417.692 142.388,405.038 155.000 C 384.324 175.645,366.894 186.064,345.792 190.412 C 311.936 197.388,276.962 179.079,244.718 137.500 C 237.330 127.972,228.198 114.643,223.652 106.750 C 222.147 104.138,220.822 102.006,220.708 102.013 C 220.594 102.020,176.625 119.534,123.000 140.933 L 25.500 179.841 25.796 184.171 C 25.958 186.552,28.515 202.000,31.478 218.500 C 34.441 235.000,38.495 257.725,40.488 269.000 C 45.483 297.258,47.738 309.071,48.234 309.567 C 48.560 309.893,151.802 276.932,158.478 274.370 C 159.837 273.849,160.000 290.582,160.000 430.393 L 160.000 587.000 331.750 587.000 L 503.500 587.000 503.262 431.288 C 503.132 345.646,503.357 275.264,503.762 274.883 C 504.168 274.502,529.676 281.784,560.446 291.066 C 591.216 300.348,616.497 307.837,616.625 307.708 C 616.753 307.580,620.018 291.955,623.879 272.987 C 627.740 254.019,633.642 225.042,636.994 208.594 C 640.345 192.146,642.731 178.345,642.294 177.926 C 641.857 177.506,625.525 170.851,606.000 163.137 C 586.475 155.422,556.775 143.656,540.000 136.989 C 514.972 127.042,451.692 101.989,447.359 100.311 C 446.731 100.068,443.416 104.511,439.992 110.185 " stroke="none" fill="black" fill-rule="evenodd"/></svg>