<svg width="48" height="48" viewBox="0 0 48 48" fill="none" xmlns="http://www.w3.org/2000/svg">
<path d="M20.265 14.3325L17.4825 16.1925C15.705 17.3775 13.6275 18.0075 11.49 18.0075H10.8V21.6075C10.8 26.07 13.0125 30.015 16.4025 32.4L16.635 32.46L16.6125 32.55C18.72 33.975 21.2625 34.8075 24 34.8075C26.7375 34.8075 29.28 33.975 31.3875 32.55L31.365 32.46L31.5975 32.4C34.9875 30.0075 37.2 26.0625 37.2 21.6V18H36.51C34.38 18 32.295 17.37 30.5175 16.185L27.735 14.325C26.625 13.59 25.3275 13.2 24 13.2C22.6725 13.2 21.375 13.59 20.265 14.3325ZM7.2 18H4.2C3.87 18 3.6 18.27 3.6 18.6V24.975C3.6 27.45 5.2875 29.61 7.6875 30.21L9.9225 30.765C8.205 28.14 7.2 24.9825 7.2 21.6V18ZM14.9175 35.7375L6.8175 33.7125C2.8125 32.7075 0 29.1075 0 24.975V18.6C0 16.2825 1.8825 14.4 4.2 14.4H11.49C12.915 14.4 14.3025 13.98 15.4875 13.1925L18.27 11.3325C19.965 10.2 21.96 9.59998 24 9.59998C26.04 9.59998 28.035 10.2 29.73 11.3325L32.5125 13.1925C33.6975 13.98 35.085 14.4 36.51 14.4H43.8C46.1175 14.4 48 16.2825 48 18.6V24.975C48 29.1075 45.1875 32.7075 41.1825 33.705L33.0825 35.73C30.465 37.425 27.345 38.4 24 38.4C20.655 38.4 17.535 37.425 14.9175 35.7375ZM38.0775 30.78L40.3125 30.225C42.72 29.625 44.4 27.465 44.4 24.99V18.615C44.4 18.285 44.13 18.015 43.8 18.015H40.8V21.615C40.8 24.9975 39.795 28.155 38.0775 30.7875V30.78ZM14.4 22.2C14.4 21.2025 15.2025 20.4 16.2 20.4H31.8C32.7975 20.4 33.6 21.2025 33.6 22.2C33.6 23.1975 32.7975 24 31.8 24H16.2C15.2025 24 14.4 23.1975 14.4 22.2ZM18.6 26.4H29.4C30.3975 26.4 31.2 27.2025 31.2 28.2C31.2 29.1975 30.3975 30 29.4 30H18.6C17.6025 30 16.8 29.1975 16.8 28.2C16.8 27.2025 17.6025 26.4 18.6 26.4Z" fill="#271332"/>
</svg>
