<?xml version="1.0" encoding="UTF-8"?>
<!--
Soliguide: Useful information for those who need it

SPDX-FileCopyrightText: © 2025 Solinum

SPDX-License-Identifier: AGPL-3.0-only

This program is free software: you can redistribute it and/or modify
it under the terms of the GNU Affero General Public License as published
by the Free Software Foundation, either version 3 of the License, or
(at your option) any later version.

This program is distributed in the hope that it will be useful,
but WITHOUT ANY WARRANTY; without even the implied warranty of
MERCHANTABILITY or FITNESS FOR A PARTICULAR PURPOSE.  See the
GNU Affero General Public License for more details.

You should have received a copy of the GNU Affero General Public License
along with this program.  If not, see <https://www.gnu.org/licenses/>.
-->
<svg width="48" height="48" viewBox="0 0 48 48" fill="none" xmlns="http://www.w3.org/2000/svg">
<path d="M39 12C36.38 12 34.26 14.02 34.04 16.6C30.28 15.6 28.36 13 24 13C19.62 13 17.72 15.6 13.96 16.6C13.74 14.04 11.62 12 9 12C6.24 12 4 14.24 4 17V18C4 30 11.2 33.62 17.04 33.96C19.06 35.24 21.44 36 24 36C26.56 36 28.94 35.24 30.96 33.96C36.8 33.62 44 30 44 18V17C44 14.24 41.76 12 39 12ZM7 18V17C7 15.9 7.9 15 9 15C10.1 15 11 15.9 11 17V23C11 25.56 11.76 27.94 13.02 29.96C9.98 28.54 7 25.3 7 18ZM14 23V19.7C16.24 19.24 17.9 18.32 19.32 17.54C20.96 16.66 22.14 16 24 16C25.86 16 27.04 16.66 28.68 17.56C30.1 18.34 31.76 19.24 34 19.72V23.02C34 28.54 29.52 33.02 24 33.02C18.48 33.02 14 28.52 14 23ZM41 18C41 25.3 38.02 28.54 34.98 29.96C36.26 27.94 37 25.56 37 23V17C37 15.9 37.9 15 39 15C40.1 15 41 15.9 41 17V18ZM21.38 20.96C20.5 21.48 19.46 22.08 18 22.48V20.4C18.96 20.06 19.68 19.64 20.36 19.24C21.44 18.6 22.46 18 24 18C25.54 18 26.54 18.6 27.6 19.24C28.28 19.64 29.02 20.08 30 20.42V22.5C28.5 22.08 27.48 21.48 26.58 20.94C25.66 20.4 24.98 20 24 20C23.02 20 22.32 20.4 21.38 20.96Z" fill="#404040"/>
</svg>
