<?xml version="1.0" encoding="UTF-8"?>
<!--
Soliguide: Useful information for those who need it

SPDX-FileCopyrightText: © 2025 Solinum

SPDX-License-Identifier: AGPL-3.0-only

This program is free software: you can redistribute it and/or modify
it under the terms of the GNU Affero General Public License as published
by the Free Software Foundation, either version 3 of the License, or
(at your option) any later version.

This program is distributed in the hope that it will be useful,
but WITHOUT ANY WARRANTY; without even the implied warranty of
MERCHANTABILITY or FITNESS FOR A PARTICULAR PURPOSE.  See the
GNU Affero General Public License for more details.

You should have received a copy of the GNU Affero General Public License
along with this program.  If not, see <https://www.gnu.org/licenses/>.
-->
<svg version="1.1" width="667" height="667" xmlns="http://www.w3.org/2000/svg"><path d="M334.000 288.716 C 263.643 298.217,200.157 314.308,133.500 339.535 C 109.167 348.744,109.428 348.669,99.405 349.420 C 73.009 351.398,49.787 357.724,36.466 366.566 C 23.521 375.159,19.404 387.939,24.950 402.317 C 29.470 414.035,44.578 430.746,64.582 446.154 C 73.622 453.117,98.111 469.648,108.500 475.800 C 113.843 478.963,116.802 481.661,121.000 487.193 C 132.115 501.842,152.074 520.082,172.500 534.257 C 212.941 562.322,266.696 581.336,323.697 587.736 C 350.993 590.801,406.065 579.880,443.683 563.941 C 484.684 546.569,519.683 520.979,542.315 491.825 C 548.216 484.223,550.314 482.375,559.274 476.887 C 636.355 429.672,662.665 394.303,637.771 371.357 C 635.353 369.127,631.377 366.154,628.937 364.749 C 618.039 358.476,595.767 353.019,572.500 350.919 C 560.086 349.799,558.711 349.441,542.000 342.955 C 480.298 319.009,417.520 301.333,361.500 292.134 C 340.149 288.628,337.287 288.273,334.000 288.716 M108.405 360.250 C 108.678 362.038,109.619 376.100,110.497 391.500 C 111.374 406.900,112.279 421.750,112.509 424.500 C 112.940 429.675,113.460 438.043,114.611 458.325 L 115.281 470.151 108.486 465.991 C 59.721 436.144,31.102 408.310,31.022 390.651 C 30.982 381.868,36.002 375.496,47.507 369.724 C 59.061 363.928,85.818 358.002,104.205 357.168 C 107.661 357.011,107.943 357.218,108.405 360.250 M576.000 359.578 C 587.030 360.524,606.954 364.623,614.709 367.543 C 638.737 376.587,644.152 388.862,632.162 407.104 C 621.443 423.411,590.217 448.742,554.630 470.000 L 550.760 472.311 551.438 459.906 C 551.811 453.083,552.292 445.925,552.508 444.000 C 552.724 442.075,553.170 435.325,553.499 429.000 C 553.828 422.675,554.280 414.800,554.504 411.500 C 554.984 404.427,555.794 391.471,556.520 379.250 C 556.806 374.438,557.296 367.650,557.609 364.167 L 558.177 357.833 563.339 358.384 C 566.177 358.686,571.875 359.224,576.000 359.578 " stroke="none" fill="black" fill-rule="evenodd"/></svg>