<svg width="48" height="48" viewBox="0 0 48 48" fill="none" xmlns="http://www.w3.org/2000/svg">
<path d="M24 9.59998C21.96 9.59998 19.965 10.2 18.27 11.3325L15.4875 13.1925C14.3025 13.98 12.915 14.4 11.49 14.4H4.8C2.1525 14.4 0 16.5525 0 19.2V25.1025C0 29.7975 3.39 33.8025 8.025 34.575L15.3675 35.7975C17.8425 37.4475 20.8125 38.4 24 38.4C27.1875 38.4 30.165 37.44 32.6325 35.7975L39.975 34.5675C44.6025 33.795 48 29.79 48 25.095V19.1925C48 16.545 45.8475 14.3925 43.2 14.3925H36.51C35.085 14.3925 33.6975 13.9725 32.5125 13.185L29.73 11.3325C28.035 10.2 26.04 9.59998 24 9.59998ZM10.1925 30.0675L8.8125 29.835C6.495 29.4525 4.8 27.45 4.8 25.1025V19.2H8.4V22.8C8.4 25.425 9.045 27.8925 10.1925 30.0675ZM39.1875 29.835L37.8075 30.0675C38.955 27.8925 39.6 25.425 39.6 22.8V19.2H43.2V25.1025C43.2 27.45 41.505 29.4525 39.1875 29.835ZM14.4 22.2C14.4 21.2025 15.2025 20.4 16.2 20.4H31.8C32.7975 20.4 33.6 21.2025 33.6 22.2C33.6 23.1975 32.7975 24 31.8 24H16.2C15.2025 24 14.4 23.1975 14.4 22.2ZM18.6 26.4H29.4C30.3975 26.4 31.2 27.2025 31.2 28.2C31.2 29.1975 30.3975 30 29.4 30H18.6C17.6025 30 16.8 29.1975 16.8 28.2C16.8 27.2025 17.6025 26.4 18.6 26.4Z" fill="#271332"/>
</svg>
