<svg width="48" height="48" viewBox="0 0 48 48" fill="none" xmlns="http://www.w3.org/2000/svg">
<path d="M14.4075 4.79999C17.055 4.79999 19.2075 6.95249 19.2075 9.59999C19.2075 12.2475 17.055 14.4 14.4075 14.4C11.76 14.4 9.60752 12.2475 9.60752 9.59999C9.60752 6.95249 11.76 4.79999 14.4075 4.79999ZM12.0075 16.8H16.8075C16.8375 16.8 16.875 16.8 16.905 16.8C16.8375 17.19 16.8075 17.5875 16.8075 18C16.8075 19.62 17.34 21.12 18.2475 22.32C15.915 24.075 14.4075 26.8575 14.4075 30V31.2C14.4075 33.4875 15.3225 35.565 16.8075 37.08V40.8C16.8075 41.52 16.935 42.21 17.1675 42.8475C16.695 43.0725 16.17 43.2 15.6075 43.2H13.2075C11.22 43.2 9.60752 41.5875 9.60752 39.6V30.555C8.17502 29.7225 7.20752 28.1775 7.20752 26.4V21.6C7.20752 18.9525 9.36002 16.8 12.0075 16.8ZM32.4075 43.2C31.8525 43.2 31.32 43.0725 30.8475 42.8475C31.08 42.21 31.2075 41.52 31.2075 40.8V37.08C32.6925 35.565 33.6075 33.495 33.6075 31.2V30C33.6075 26.8575 32.1 24.075 29.7675 22.32C30.675 21.12 31.2075 19.62 31.2075 18C31.2075 17.76 31.1925 17.52 31.17 17.2875C31.9275 16.9725 32.7525 16.8 33.6075 16.8C36.45 16.8 38.9475 18.6825 39.7275 21.4125L42.3375 30.54C42.7725 32.07 41.625 33.6 40.0275 33.6H38.4075V39.6C38.4075 41.5875 36.795 43.2 34.8075 43.2H32.4075ZM33.6075 4.79999C36.255 4.79999 38.4075 6.95249 38.4075 9.59999C38.4075 12.2475 36.255 14.4 33.6075 14.4C30.96 14.4 28.8075 12.2475 28.8075 9.59999C28.8075 6.95249 30.96 4.79999 33.6075 4.79999ZM24.0075 14.4C25.995 14.4 27.6075 16.0125 27.6075 18C27.6075 19.9875 25.995 21.6 24.0075 21.6C22.02 21.6 20.4075 19.9875 20.4075 18C20.4075 16.0125 22.02 14.4 24.0075 14.4ZM24.0075 24C27.3225 24 30.0075 26.685 30.0075 30V31.2C30.0075 32.9775 29.04 34.53 27.6075 35.355V40.8C27.6075 42.1275 26.535 43.2 25.2075 43.2H22.8075C21.48 43.2 20.4075 42.1275 20.4075 40.8V35.355C18.975 34.5225 18.0075 32.9775 18.0075 31.2V30C18.0075 26.685 20.6925 24 24.0075 24Z" fill="#271332"/>
</svg>
