<svg width="48" height="48" viewBox="0 0 48 48" fill="none" xmlns="http://www.w3.org/2000/svg">
<path d="M14.4075 4.79999C17.055 4.79999 19.2075 6.95249 19.2075 9.59999C19.2075 12.2475 17.055 14.4 14.4075 14.4C11.76 14.4 9.60752 12.2475 9.60752 9.59999C9.60752 6.95249 11.76 4.79999 14.4075 4.79999ZM10.8075 21.6V26.4C10.8075 27.06 11.3475 27.6 12.0075 27.6H14.7075C14.5125 28.365 14.4075 29.175 14.4075 30V31.2H13.2075V41.4C13.2075 42.3975 12.405 43.2 11.4075 43.2C10.41 43.2 9.60752 42.3975 9.60752 41.4V30.555C8.17502 29.7225 7.20752 28.1775 7.20752 26.4V21.6C7.20752 18.9525 9.36002 16.8 12.0075 16.8H16.8075C16.8375 16.8 16.875 16.8 16.905 16.8C16.8375 17.19 16.8075 17.5875 16.8075 18C16.8075 18.84 16.95 19.65 17.22 20.4H12.0075C11.3475 20.4 10.8075 20.94 10.8075 21.6ZM33.6075 20.4H30.795C31.0575 19.65 31.2075 18.84 31.2075 18C31.2075 17.76 31.1925 17.52 31.17 17.2875C31.9275 16.9725 32.7525 16.8 33.6075 16.8C36.45 16.8 38.9475 18.6825 39.7275 21.4125L42.3375 30.54C42.7725 32.07 41.625 33.6 40.0275 33.6H38.4075V41.4C38.4075 42.3975 37.605 43.2 36.6075 43.2C35.61 43.2 34.8075 42.3975 34.8075 41.4V33.6H33.2625C33.4875 32.8425 33.6075 32.0325 33.6075 31.2V30H38.4375L36.27 22.4025C35.9325 21.2175 34.845 20.4 33.615 20.4H33.6075ZM33.6075 4.79999C36.255 4.79999 38.4075 6.95249 38.4075 9.59999C38.4075 12.2475 36.255 14.4 33.6075 14.4C30.96 14.4 28.8075 12.2475 28.8075 9.59999C28.8075 6.95249 30.96 4.79999 33.6075 4.79999ZM24.0075 14.4C25.995 14.4 27.6075 16.0125 27.6075 18C27.6075 19.9875 25.995 21.6 24.0075 21.6C22.02 21.6 20.4075 19.9875 20.4075 18C20.4075 16.0125 22.02 14.4 24.0075 14.4ZM26.4075 30C26.4075 28.6725 25.335 27.6 24.0075 27.6C22.68 27.6 21.6075 28.6725 21.6075 30V31.2C21.6075 31.86 22.1475 32.4 22.8075 32.4H25.2075C25.8675 32.4 26.4075 31.86 26.4075 31.2V30ZM30.0075 31.2C30.0075 33 29.0175 34.5675 27.555 35.385C27.5925 35.5875 27.6075 35.79 27.6075 36V40.8C27.6075 42.1275 26.535 43.2 25.2075 43.2H22.8075C21.48 43.2 20.4075 42.1275 20.4075 40.8V36C20.4075 35.79 20.4225 35.5875 20.46 35.385C18.9975 34.56 18.0075 32.9925 18.0075 31.2V30C18.0075 26.685 20.6925 24 24.0075 24C27.3225 24 30.0075 26.685 30.0075 30V31.2Z" fill="#271332"/>
</svg>
