<?xml version="1.0" encoding="UTF-8"?>
<!--
Soliguide: Useful information for those who need it

SPDX-FileCopyrightText: © 2025 Solinum

SPDX-License-Identifier: AGPL-3.0-only

This program is free software: you can redistribute it and/or modify
it under the terms of the GNU Affero General Public License as published
by the Free Software Foundation, either version 3 of the License, or
(at your option) any later version.

This program is distributed in the hope that it will be useful,
but WITHOUT ANY WARRANTY; without even the implied warranty of
MERCHANTABILITY or FITNESS FOR A PARTICULAR PURPOSE.  See the
GNU Affero General Public License for more details.

You should have received a copy of the GNU Affero General Public License
along with this program.  If not, see <https://www.gnu.org/licenses/>.
-->
<svg version="1.1" width="512" height="512" xmlns="http://www.w3.org/2000/svg"><path d="M101.286 41.451 C 91.428 44.532,83.898 51.019,78.960 60.685 C 76.832 64.851,76.500 66.849,76.500 75.500 C 76.500 84.192,76.827 86.140,78.997 90.390 C 82.932 98.096,88.405 103.582,95.778 107.212 C 101.738 110.146,103.363 110.497,110.976 110.498 C 118.277 110.500,120.403 110.083,125.791 107.595 C 155.275 93.980,152.125 50.836,120.972 41.584 C 114.608 39.694,107.070 39.643,101.286 41.451 M415.500 42.399 C 409.240 44.379,405.724 46.512,401.104 51.132 C 383.877 68.359,388.958 97.508,411.000 107.906 C 415.649 110.099,417.893 110.500,425.500 110.500 C 433.192 110.500,435.339 110.107,440.270 107.796 C 459.631 98.723,466.459 74.857,454.863 56.786 C 446.783 44.196,429.636 37.928,415.500 42.399 M75.226 123.068 C 63.207 125.170,52.719 133.658,46.556 146.271 C 43.735 152.045,23.399 207.714,2.912 265.748 C -0.519 275.465,-0.687 278.732,1.972 283.945 C 7.478 294.737,20.541 296.769,29.026 288.154 C 32.056 285.078,33.872 281.021,40.508 262.500 C 58.543 212.165,66.958 189.732,66.391 193.500 C 66.061 195.700,60.662 224.121,54.395 256.658 C 48.128 289.195,43.010 316.870,43.022 318.158 C 43.048 320.870,45.546 324.278,48.684 325.883 C 49.886 326.497,54.030 327.000,57.893 327.000 L 64.918 327.000 65.209 391.750 C 65.497 455.850,65.522 456.540,67.653 460.500 C 70.355 465.521,73.492 468.472,78.232 470.452 C 89.778 475.277,103.308 468.115,105.954 455.779 C 106.618 452.682,107.000 428.291,107.000 388.951 L 107.000 327.000 111.500 327.000 L 116.000 327.000 116.000 391.788 L 116.000 456.576 118.250 461.025 C 126.282 476.905,150.432 474.754,155.494 457.707 C 156.765 453.427,157.000 442.863,157.000 389.921 L 157.000 327.205 165.587 326.853 C 173.548 326.526,174.349 326.296,176.587 323.694 C 178.049 321.994,179.000 319.630,178.999 317.694 C 178.999 315.937,173.832 287.725,167.516 255.000 C 154.153 185.756,154.855 189.522,155.419 190.085 C 155.660 190.327,163.132 210.769,172.023 235.512 C 180.913 260.256,189.157 282.283,190.344 284.461 C 193.978 291.138,196.584 292.189,222.487 297.424 C 247.799 302.539,251.559 302.702,255.645 298.864 C 259.322 295.410,259.988 290.956,259.994 269.809 C 260.000 249.974,260.450 247.469,263.544 250.036 C 264.802 251.080,265.000 265.564,265.000 356.475 L 265.000 461.704 267.270 465.102 C 273.564 474.523,287.172 473.884,292.248 463.929 C 293.856 460.777,293.997 455.635,293.998 400.250 L 294.000 340.000 296.963 340.000 L 299.927 340.000 300.213 400.928 C 300.496 460.956,300.531 461.897,302.592 464.678 C 309.783 474.379,322.089 474.241,327.734 464.396 L 329.967 460.500 329.984 354.680 L 330.000 248.861 332.250 249.180 L 334.500 249.500 335.000 297.000 C 335.371 332.256,335.821 345.060,336.744 346.672 C 342.347 356.460,356.115 354.616,359.103 343.677 C 359.930 340.649,360.053 326.429,359.550 292.000 C 358.865 245.138,358.824 244.431,356.526 239.345 C 353.453 232.541,347.165 226.579,340.387 224.044 C 335.244 222.119,332.742 222.000,297.500 222.000 C 261.813 222.000,259.812 222.098,254.407 224.121 C 247.134 226.842,241.768 231.732,238.320 238.779 C 235.773 243.984,235.550 245.467,235.167 259.750 C 234.851 271.497,234.459 275.006,233.505 274.640 C 232.818 274.377,230.248 273.860,227.793 273.492 C 225.339 273.124,222.895 272.525,222.361 272.161 C 221.348 271.470,213.989 251.457,191.969 189.500 C 184.736 169.150,177.187 149.350,175.195 145.500 C 170.388 136.214,161.992 127.927,154.328 124.902 C 148.699 122.681,147.341 122.595,114.500 122.374 C 95.800 122.248,78.127 122.561,75.226 123.068 M374.628 128.093 C 367.691 129.753,357.177 136.025,352.225 141.457 C 349.626 144.308,345.611 150.128,343.302 154.392 C 339.674 161.090,339.245 162.507,340.144 164.821 C 343.920 174.546,342.917 188.508,337.670 199.240 L 334.375 205.980 337.938 206.627 C 339.897 206.983,343.739 208.146,346.475 209.211 C 349.212 210.277,351.582 210.778,351.744 210.324 C 351.905 209.871,357.316 199.825,363.768 188.000 C 373.002 171.077,375.926 166.500,377.500 166.500 C 379.489 166.500,379.503 167.333,380.000 312.000 C 380.458 445.142,380.641 457.755,382.161 460.500 C 389.217 473.246,405.556 475.658,415.197 465.376 C 421.244 458.928,421.000 462.872,421.000 371.439 L 421.000 287.814 425.250 288.356 C 427.587 288.654,429.613 288.921,429.750 288.949 C 429.887 288.977,430.000 326.729,430.000 372.843 L 430.000 456.685 432.328 461.093 C 433.823 463.924,436.311 466.526,439.286 468.368 C 450.096 475.064,462.315 471.802,468.294 460.624 L 470.500 456.500 470.113 311.459 C 469.750 175.749,469.835 166.308,471.432 164.711 C 472.668 163.475,473.627 163.265,474.908 163.951 C 476.496 164.801,476.745 167.377,477.339 189.111 C 477.702 202.428,478.000 231.715,478.000 254.194 C 478.000 298.971,478.043 299.334,483.909 304.270 C 490.459 309.782,499.436 309.870,505.835 304.485 C 512.101 299.213,512.009 300.088,511.906 246.349 C 511.854 219.482,511.516 188.264,511.154 176.976 C 510.498 156.501,510.489 156.436,507.304 149.965 C 503.239 141.709,496.292 134.761,488.033 130.695 L 481.546 127.500 430.023 127.333 C 401.189 127.240,376.795 127.574,374.628 128.093 M287.358 149.091 C 282.284 150.561,274.868 156.252,271.323 161.396 C 259.841 178.057,267.149 202.030,285.851 209.054 C 297.432 213.403,311.209 210.556,319.708 202.057 C 326.345 195.420,328.500 189.891,328.500 179.500 C 328.500 172.096,328.087 169.661,326.171 165.771 C 322.871 159.071,315.766 152.430,309.314 150.016 C 303.558 147.863,293.116 147.422,287.358 149.091 " stroke="none" fill="black" fill-rule="evenodd"/></svg>