<?xml version="1.0" encoding="UTF-8"?>
<!--
Soliguide: Useful information for those who need it

SPDX-FileCopyrightText: © 2025 Solinum

SPDX-License-Identifier: AGPL-3.0-only

This program is free software: you can redistribute it and/or modify
it under the terms of the GNU Affero General Public License as published
by the Free Software Foundation, either version 3 of the License, or
(at your option) any later version.

This program is distributed in the hope that it will be useful,
but WITHOUT ANY WARRANTY; without even the implied warranty of
MERCHANTABILITY or FITNESS FOR A PARTICULAR PURPOSE.  See the
GNU Affero General Public License for more details.

You should have received a copy of the GNU Affero General Public License
along with this program.  If not, see <https://www.gnu.org/licenses/>.
-->
<svg version="1.1" width="586" height="578" xmlns="http://www.w3.org/2000/svg"><path d="M254.500 137.591 C 156.050 190.695,74.528 234.770,73.339 235.536 C 72.151 236.302,70.651 238.527,70.006 240.481 C 68.859 243.956,69.101 244.527,81.350 267.266 L 93.866 290.500 88.683 291.136 C 81.739 291.987,80.188 292.736,78.463 296.072 C 77.206 298.503,77.000 313.960,77.000 406.000 C 77.000 523.871,76.665 517.642,83.119 519.892 C 85.406 520.689,143.544 521.000,290.181 521.000 C 512.567 521.000,499.368 521.354,501.864 515.329 C 502.752 513.184,502.996 502.600,502.786 475.310 C 502.456 432.503,502.962 434.707,493.208 433.603 C 474.013 431.431,462.678 414.786,467.940 396.500 C 469.994 389.364,478.664 380.771,486.013 378.589 C 488.955 377.715,492.661 377.000,494.247 377.000 C 498.426 377.000,500.975 375.303,502.585 371.452 C 503.711 368.756,504.000 361.112,504.000 334.000 C 504.000 298.996,503.580 294.776,499.852 292.372 C 499.108 291.892,488.150 291.275,475.500 291.000 L 452.500 290.500 498.386 266.047 C 541.128 243.269,544.372 241.354,545.735 238.091 C 547.084 234.863,547.033 234.248,545.086 230.241 C 539.916 219.599,512.566 170.277,510.710 168.250 C 508.125 165.425,504.737 165.390,496.718 168.106 C 477.947 174.464,459.470 161.436,459.648 141.970 C 459.697 136.617,460.267 134.281,462.543 130.099 C 465.108 125.386,467.159 123.187,475.391 116.326 C 480.173 112.340,479.401 110.190,460.929 76.051 C 451.540 58.698,442.940 43.712,441.818 42.750 C 440.696 41.788,438.366 41.008,436.639 41.019 C 434.399 41.032,382.212 68.702,254.500 137.591 M445.687 83.725 L 457.873 106.428 453.529 111.072 C 445.100 120.084,441.565 130.504,442.178 144.530 C 442.537 152.738,442.997 154.609,446.293 161.278 C 453.256 175.367,465.980 184.870,480.671 186.953 C 486.978 187.848,497.373 187.123,499.806 185.620 C 500.509 185.186,523.430 226.718,524.183 229.791 C 524.380 230.592,503.676 242.420,469.500 261.030 L 414.500 290.979 360.957 290.990 L 307.415 291.000 306.245 286.627 C 303.323 275.702,291.465 267.000,279.500 267.000 C 267.535 267.000,255.677 275.702,252.755 286.627 C 251.608 290.916,251.504 291.000,247.362 291.000 C 243.228 291.000,243.156 290.943,243.943 288.250 C 244.385 286.738,248.629 272.655,253.373 256.956 C 258.118 241.257,262.000 227.175,262.000 225.661 C 262.000 221.730,257.937 218.000,253.656 218.000 C 246.993 218.000,246.604 218.820,235.616 256.046 L 225.446 290.500 169.973 290.744 L 114.500 290.988 103.000 269.303 C 96.675 257.377,91.500 247.255,91.500 246.810 C 91.500 246.164,431.179 61.462,433.000 61.117 C 433.275 61.065,438.984 71.239,445.687 83.725 M353.357 140.970 C 350.418 142.186,348.000 145.892,348.000 149.183 C 348.000 151.791,399.317 249.162,402.907 253.365 C 405.512 256.415,408.699 257.153,412.467 255.578 C 416.232 254.005,418.000 251.426,418.000 247.505 C 418.000 244.572,366.063 146.837,362.631 143.311 C 360.091 140.703,356.311 139.748,353.357 140.970 M192.383 228.901 C 173.467 233.705,164.539 252.751,173.136 269.957 C 178.033 279.756,186.246 284.782,197.590 284.924 C 208.460 285.060,218.696 278.396,223.206 268.248 C 227.205 259.249,225.207 246.204,218.478 237.383 C 213.770 231.209,200.402 226.865,192.383 228.901 M202.522 247.577 C 207.202 249.798,209.514 254.913,207.962 259.615 C 206.626 263.662,201.976 266.991,197.650 266.996 C 193.462 267.002,188.000 261.244,188.000 256.823 C 188.000 252.613,190.316 249.205,194.378 247.437 C 198.377 245.696,198.565 245.700,202.522 247.577 M284.928 286.463 C 286.485 287.268,288.023 288.618,288.347 289.463 C 288.851 290.776,287.622 291.000,279.933 291.000 C 271.305 291.000,270.973 290.918,271.977 289.043 C 274.174 284.938,279.809 283.816,284.928 286.463 M485.000 334.885 L 485.000 360.770 479.750 362.467 C 463.886 367.595,451.710 382.171,449.023 399.250 C 445.629 420.828,459.058 442.745,479.837 449.541 L 485.000 451.230 485.000 476.615 L 485.000 502.000 290.000 502.000 L 95.000 502.000 95.000 405.500 L 95.000 309.000 290.000 309.000 L 485.000 309.000 485.000 334.885 M175.453 342.326 C 160.636 348.035,153.515 363.416,158.676 378.563 C 161.076 385.606,169.042 393.341,176.034 395.417 C 187.251 398.749,196.612 396.518,204.495 388.635 C 222.389 370.742,210.125 340.830,185.000 341.086 C 181.425 341.122,177.129 341.680,175.453 342.326 M368.566 344.104 L 365.954 347.208 366.227 406.191 L 366.500 465.174 369.306 467.587 C 373.186 470.924,377.413 470.741,381.077 467.077 L 384.000 464.154 384.000 405.031 L 384.000 345.909 381.545 343.455 C 377.827 339.736,371.996 340.028,368.566 344.104 M192.077 361.923 C 199.244 369.091,192.302 381.049,182.414 378.568 C 174.891 376.680,172.400 367.446,177.923 361.923 C 180.216 359.631,181.742 359.000,185.000 359.000 C 188.258 359.000,189.784 359.631,192.077 361.923 M243.500 361.897 C 241.850 362.937,223.963 380.387,203.750 400.675 C 168.459 436.098,167.000 437.712,167.000 441.327 C 167.000 446.488,170.532 450.000,175.722 450.000 C 179.407 450.000,180.826 448.707,218.267 411.220 C 253.571 375.873,257.000 372.149,257.000 369.143 C 257.000 366.832,256.126 364.972,254.077 362.923 C 250.688 359.534,247.710 359.245,243.500 361.897 M228.385 415.617 C 222.610 417.666,216.386 423.323,213.265 429.362 C 211.094 433.561,210.605 435.870,210.584 442.000 C 210.563 448.443,210.974 450.255,213.498 454.859 C 221.185 468.878,236.803 473.936,250.804 466.940 C 260.975 461.858,266.257 453.338,266.281 441.977 C 266.304 430.529,261.148 422.229,250.800 417.058 C 243.819 413.570,235.641 413.044,228.385 415.617 M244.811 434.494 C 250.250 439.071,249.747 447.528,243.855 450.575 C 238.491 453.349,232.524 451.850,229.665 447.010 C 223.897 437.246,236.098 427.163,244.811 434.494 " stroke="none" fill="black" fill-rule="evenodd"/></svg>