<?xml version="1.0" encoding="UTF-8"?>
<!--
Soliguide: Useful information for those who need it

SPDX-FileCopyrightText: © 2025 Solinum

SPDX-License-Identifier: AGPL-3.0-only

This program is free software: you can redistribute it and/or modify
it under the terms of the GNU Affero General Public License as published
by the Free Software Foundation, either version 3 of the License, or
(at your option) any later version.

This program is distributed in the hope that it will be useful,
but WITHOUT ANY WARRANTY; without even the implied warranty of
MERCHANTABILITY or FITNESS FOR A PARTICULAR PURPOSE.  See the
GNU Affero General Public License for more details.

You should have received a copy of the GNU Affero General Public License
along with this program.  If not, see <https://www.gnu.org/licenses/>.
-->
<svg version="1.1" width="667" height="667" xmlns="http://www.w3.org/2000/svg"><path d="M529.679 70.500 C 529.337 72.150,528.109 82.274,526.949 92.997 C 525.789 103.720,524.723 112.610,524.581 112.753 C 524.438 112.895,521.999 109.306,519.161 104.776 C 516.322 100.246,514.000 96.861,514.000 97.252 C 514.000 97.643,518.930 118.230,524.956 143.000 L 535.912 188.036 531.617 192.330 C 524.126 199.822,519.106 213.466,516.918 232.287 C 515.803 241.875,516.114 286.594,517.340 293.000 C 517.604 294.375,518.116 298.809,518.480 302.852 C 518.844 306.896,519.383 310.834,519.678 311.602 C 520.113 312.737,524.129 313.000,541.046 313.000 L 561.879 313.000 567.311 304.219 C 573.884 293.593,581.106 278.823,584.043 270.000 C 586.286 263.260,587.089 251.976,585.714 246.500 C 585.012 243.703,586.069 242.150,601.371 223.500 C 610.396 212.500,617.640 203.347,617.468 203.161 C 617.296 202.975,615.459 203.975,613.385 205.385 C 611.311 206.794,609.476 207.809,609.307 207.641 C 609.139 207.472,610.815 202.248,613.032 196.032 C 615.250 189.816,616.898 184.564,616.694 184.361 C 616.491 184.158,611.864 190.308,606.413 198.028 C 595.770 213.097,595.346 213.304,595.100 203.550 C 594.975 198.591,593.883 199.810,591.561 207.500 C 590.565 210.800,589.327 214.618,588.811 215.984 C 587.882 218.441,587.851 218.424,586.092 214.484 L 584.312 210.500 580.865 225.000 L 577.418 239.500 572.959 241.623 L 568.500 243.746 567.778 233.123 C 566.314 211.587,562.057 198.073,554.560 191.162 L 550.391 187.319 555.051 164.910 C 557.615 152.584,560.034 140.700,560.429 138.500 L 561.145 134.500 555.791 139.750 C 552.846 142.637,550.176 145.000,549.857 145.000 C 549.538 145.000,549.424 143.988,549.604 142.750 C 549.783 141.512,550.877 134.293,552.034 126.706 C 553.191 119.119,553.967 112.400,553.758 111.775 C 553.550 111.150,550.754 114.780,547.546 119.842 C 544.337 124.904,541.591 128.922,541.443 128.772 C 541.295 128.623,538.861 115.225,536.032 99.000 C 530.076 64.834,530.478 66.638,529.679 70.500 M89.000 136.374 C 76.100 139.199,59.003 151.757,53.715 162.292 C 52.182 165.343,50.278 170.914,49.482 174.670 C 47.789 182.658,47.572 199.976,49.013 212.026 C 49.571 216.687,50.286 222.750,50.604 225.500 C 51.894 236.687,57.353 266.853,62.030 288.639 C 64.763 301.373,67.000 312.064,67.000 312.396 C 67.000 312.728,92.200 313.000,123.000 313.000 C 164.220 313.000,179.000 312.699,179.000 311.861 C 179.000 310.450,174.954 286.620,174.665 286.332 C 174.248 285.915,145.263 283.051,135.500 282.461 C 124.633 281.805,121.578 280.520,119.160 275.586 C 117.350 271.893,118.405 268.395,122.594 264.206 L 126.070 260.730 137.285 261.397 C 143.453 261.764,152.550 262.303,157.500 262.596 C 162.450 262.888,167.063 263.310,167.750 263.532 C 168.469 263.765,169.000 263.086,169.000 261.932 C 169.000 257.979,164.710 242.477,163.302 241.340 C 162.512 240.703,159.083 239.863,155.682 239.474 C 152.282 239.085,148.718 238.621,147.761 238.443 C 146.805 238.265,141.180 237.806,135.261 237.423 C 129.343 237.041,123.825 236.598,123.000 236.440 C 122.175 236.282,119.317 236.119,116.650 236.077 C 112.520 236.011,111.296 235.496,108.400 232.600 C 106.159 230.359,105.000 228.249,105.000 226.412 C 105.000 222.799,108.752 217.352,112.236 215.905 C 114.983 214.764,125.783 215.096,148.486 217.017 C 153.978 217.482,158.521 217.781,158.582 217.681 C 158.977 217.038,153.230 195.830,152.451 195.051 C 151.493 194.093,129.868 191.665,112.500 190.564 C 102.906 189.955,99.803 188.600,97.096 183.834 C 95.277 180.629,96.236 176.887,99.939 172.742 C 102.675 169.680,103.216 169.501,109.668 169.517 C 113.426 169.527,122.013 169.889,128.750 170.321 C 135.911 170.780,141.000 170.734,141.000 170.209 C 141.000 168.293,132.569 156.400,127.283 150.858 C 115.274 138.268,102.471 133.424,89.000 136.374 M318.500 141.945 C 317.400 142.396,315.714 143.638,314.753 144.707 C 313.119 146.525,313.004 152.429,312.962 236.325 L 312.918 326.000 189.407 326.000 L 65.896 326.000 66.270 401.750 C 66.629 474.584,66.724 477.827,68.738 486.000 C 74.877 510.917,85.149 529.827,102.178 547.565 C 121.041 567.213,148.366 581.176,175.895 585.232 C 182.555 586.213,219.423 586.500,339.000 586.500 C 484.976 586.500,494.079 586.398,504.000 584.647 C 551.285 576.301,588.953 544.073,604.034 499.057 C 610.454 479.897,610.273 482.549,610.716 400.750 L 611.121 326.000 487.560 326.000 L 364.000 326.000 364.000 236.934 C 364.000 177.760,363.654 147.223,362.970 145.945 C 360.699 141.701,357.137 140.996,338.300 141.063 C 328.510 141.098,319.600 141.495,318.500 141.945 M434.695 190.238 C 420.085 208.245,414.296 228.581,418.375 247.574 L 419.679 253.649 414.848 250.398 C 408.867 246.372,401.047 244.514,393.867 245.411 C 385.528 246.453,385.034 247.057,388.001 252.570 C 393.203 262.236,401.801 269.726,410.432 272.109 L 413.956 273.082 409.304 278.791 C 402.183 287.529,397.000 300.696,397.000 310.049 L 397.000 313.000 449.500 313.000 L 502.000 313.000 502.000 309.394 C 502.000 307.411,501.287 303.024,500.416 299.644 C 494.058 274.987,470.598 258.219,445.433 260.346 L 437.983 260.976 440.852 255.238 C 449.475 237.988,451.600 219.685,446.854 203.525 C 444.734 196.306,440.742 187.577,439.096 186.559 C 438.577 186.239,436.597 187.894,434.695 190.238 M227.492 197.192 C 224.985 200.172,224.830 200.911,225.165 208.289 C 225.491 215.486,225.774 216.409,228.318 218.597 C 231.031 220.931,231.601 221.000,248.133 221.000 L 265.154 221.000 268.077 218.077 C 270.788 215.366,271.000 214.610,271.000 207.654 C 271.000 201.044,270.693 199.788,268.411 197.077 L 265.822 194.000 248.000 194.000 L 230.178 194.000 227.492 197.192 M228.500 229.927 C 227.400 230.387,225.752 231.605,224.839 232.632 C 223.925 233.659,217.057 251.548,209.577 272.383 C 199.061 301.674,196.234 310.577,197.111 311.633 C 198.814 313.685,297.209 313.658,298.913 311.605 C 299.823 310.508,296.856 302.025,285.014 271.869 C 276.732 250.782,269.336 232.907,268.576 232.148 C 267.817 231.388,265.244 230.410,262.859 229.974 C 257.042 228.910,231.014 228.875,228.500 229.927 " stroke="none" fill="black" fill-rule="evenodd"/></svg>