<?xml version="1.0" encoding="UTF-8"?>
<!--
Soliguide: Useful information for those who need it

SPDX-FileCopyrightText: © 2025 Solinum

SPDX-License-Identifier: AGPL-3.0-only

This program is free software: you can redistribute it and/or modify
it under the terms of the GNU Affero General Public License as published
by the Free Software Foundation, either version 3 of the License, or
(at your option) any later version.

This program is distributed in the hope that it will be useful,
but WITHOUT ANY WARRANTY; without even the implied warranty of
MERCHANTABILITY or FITNESS FOR A PARTICULAR PURPOSE.  See the
GNU Affero General Public License for more details.

You should have received a copy of the GNU Affero General Public License
along with this program.  If not, see <https://www.gnu.org/licenses/>.
-->
<svg version="1.1" width="667" height="667" xmlns="http://www.w3.org/2000/svg"><path d="M251.346 95.497 C 247.450 97.135,243.486 102.316,242.163 107.500 C 241.602 109.700,240.861 120.050,240.517 130.500 C 240.173 140.950,239.720 151.750,239.511 154.500 C 239.301 157.250,238.819 169.625,238.438 182.000 C 238.057 194.375,237.613 205.175,237.449 206.000 C 237.286 206.825,237.119 208.557,237.077 209.850 C 236.958 213.476,230.865 219.000,226.982 219.000 C 223.062 219.000,216.043 212.570,215.923 208.868 C 215.881 207.565,215.715 205.825,215.553 205.000 C 215.392 204.175,214.956 194.050,214.586 182.500 C 214.215 170.950,213.722 158.800,213.491 155.500 C 213.260 152.200,212.806 141.175,212.481 131.000 C 211.661 105.311,211.090 102.778,204.959 97.619 C 198.670 92.327,191.777 94.729,187.864 103.575 C 185.822 108.192,185.434 113.321,184.544 147.500 C 182.811 214.031,182.500 229.926,182.500 252.018 L 182.500 276.536 185.791 283.225 C 188.040 287.794,190.893 291.537,194.791 295.034 C 201.193 300.776,213.821 309.456,221.750 313.564 L 227.000 316.284 227.000 446.494 L 227.000 576.704 229.287 580.102 C 233.226 585.954,235.445 586.503,255.000 586.472 C 273.656 586.441,276.038 585.930,280.502 580.998 C 282.475 578.818,282.503 577.148,282.761 446.986 L 283.022 315.181 293.261 308.918 C 307.123 300.440,317.486 290.096,322.232 280.000 C 324.172 275.875,326.291 270.275,326.942 267.556 C 328.024 263.040,328.433 236.748,327.558 228.000 C 327.365 226.075,326.906 213.925,326.538 201.000 C 326.169 188.075,325.695 174.800,325.484 171.500 C 325.273 168.200,324.833 156.275,324.506 145.000 C 323.371 105.863,322.690 102.220,315.710 97.965 C 311.507 95.402,308.058 95.486,303.952 98.253 C 297.069 102.892,296.585 105.169,295.501 138.000 C 295.183 147.625,294.730 158.875,294.494 163.000 C 294.258 167.125,293.795 179.050,293.466 189.500 C 293.137 199.950,292.415 209.955,291.861 211.734 C 288.967 221.039,277.298 221.279,272.567 212.130 C 271.015 209.127,270.131 193.469,268.497 140.000 C 267.431 105.141,266.728 101.126,260.930 96.797 C 257.608 94.316,254.996 93.962,251.346 95.497 M443.834 107.750 C 406.141 146.402,380.844 202.346,370.559 269.790 C 369.242 278.431,367.853 289.100,367.472 293.500 C 367.091 297.900,366.591 302.850,366.361 304.500 C 365.558 310.251,365.193 348.547,365.882 354.766 C 366.430 359.708,367.153 361.608,369.308 363.766 L 372.040 366.500 390.770 367.000 L 409.500 367.500 410.000 472.544 C 410.467 570.622,410.617 577.767,412.259 580.273 C 415.874 585.790,418.813 586.500,438.000 586.496 C 457.558 586.492,460.343 585.765,464.040 579.701 C 465.962 576.550,465.993 572.809,465.996 341.200 C 466.000 132.829,465.826 105.565,464.483 102.967 C 462.994 100.088,458.453 97.000,455.708 97.000 C 454.943 97.000,449.599 101.838,443.834 107.750 " stroke="none" fill="black" fill-rule="evenodd"/></svg>