<svg width="64" height="64" viewBox="0 0 64 64" fill="none" xmlns="http://www.w3.org/2000/svg">
<path d="M12.79 7.84C12.71 7.02 12.02 6.4 11.2 6.4C10.38 6.4 9.69 7.02 9.6 7.83L8.19 21.37C8.06 21.97 8 22.58 8 23.19C8 27.78 11.51 31.55 16 31.96V54.4C16 56.17 17.43 57.6 19.2 57.6C20.97 57.6 22.4 56.17 22.4 54.4V31.96C26.89 31.55 30.4 27.78 30.4 23.19C30.4 22.58 30.34 21.97 30.21 21.37L28.79 7.83C28.71 7.02 28.02 6.4 27.2 6.4C26.38 6.4 25.69 7.02 25.61 7.84L24.25 21.39C24.19 21.96 23.71 22.4 23.14 22.4C22.56 22.4 22.08 21.96 22.02 21.38L20.79 7.86C20.72 7.03 20.03 6.4 19.2 6.4C18.37 6.4 17.68 7.03 17.61 7.86L16.38 21.38C16.33 21.96 15.84 22.4 15.26 22.4C14.68 22.4 14.2 21.96 14.15 21.39L12.79 7.84ZM51.2 6.4C49.6 6.4 38.4 9.6 38.4 24V35.2C38.4 38.73 41.27 41.6 44.8 41.6H48V54.4C48 56.17 49.43 57.6 51.2 57.6C52.97 57.6 54.4 56.17 54.4 54.4V9.6C54.4 7.83 52.97 6.4 51.2 6.4Z" fill="#271332"/>
</svg>
