<svg width="48" height="48" viewBox="0 0 48 48" fill="none" xmlns="http://www.w3.org/2000/svg">
<path d="M14.6024 19.2H8.72992L12.3224 36.2475C12.4424 36.8025 12.9299 37.2 13.4999 37.2H34.5074C35.0774 37.2 35.5649 36.8025 35.6849 36.2475L39.2774 19.2H14.6099H14.6024ZM26.6099 12L26.4674 11.85L23.9924 9.225L21.5174 11.85L21.3749 12L17.9849 15.6H29.9924L26.6024 12H26.6099ZM34.9499 15.6H42.5999C43.5974 15.6 44.3999 16.4025 44.3999 17.4C44.3999 18.27 43.7774 18.9975 42.9524 19.1625L39.2024 36.9825C38.7374 39.2025 36.7724 40.7925 34.5074 40.7925H13.4999C11.2274 40.7925 9.26992 39.2025 8.80492 36.9825L5.05492 19.1625C4.22992 18.9975 3.60742 18.27 3.60742 17.4C3.60742 16.4025 4.40992 15.6 5.40742 15.6H13.0574C13.9949 14.6025 16.7699 11.655 21.3899 6.7575L22.6874 5.3625C23.0324 5.0025 23.5049 4.8 23.9999 4.8C24.4949 4.8 24.9674 5.0025 25.3124 5.3625C25.4024 5.46 27.8399 8.0475 32.6249 13.125L34.9499 15.6ZM13.1999 24.6C13.1999 23.6025 14.0024 22.8 14.9999 22.8C15.9974 22.8 16.7999 23.6025 16.7999 24.6C16.7999 25.5975 15.9974 26.4 14.9999 26.4C14.0024 26.4 13.1999 25.5975 13.1999 24.6ZM32.9999 22.8C33.9974 22.8 34.7999 23.6025 34.7999 24.6C34.7999 25.5975 33.9974 26.4 32.9999 26.4C32.0024 26.4 31.1999 25.5975 31.1999 24.6C31.1999 23.6025 32.0024 22.8 32.9999 22.8Z" fill="#271332"/>
</svg>
