<?xml version="1.0" encoding="UTF-8"?>
<!--
Soliguide: Useful information for those who need it

SPDX-FileCopyrightText: © 2025 Solinum

SPDX-License-Identifier: AGPL-3.0-only

This program is free software: you can redistribute it and/or modify
it under the terms of the GNU Affero General Public License as published
by the Free Software Foundation, either version 3 of the License, or
(at your option) any later version.

This program is distributed in the hope that it will be useful,
but WITHOUT ANY WARRANTY; without even the implied warranty of
MERCHANTABILITY or FITNESS FOR A PARTICULAR PURPOSE.  See the
GNU Affero General Public License for more details.

You should have received a copy of the GNU Affero General Public License
along with this program.  If not, see <https://www.gnu.org/licenses/>.
-->
<svg version="1.1" width="667" height="667" xmlns="http://www.w3.org/2000/svg"><path d="M36.754 394.660 L 36.500 507.321 27.500 507.410 L 18.500 507.500 18.228 526.750 L 17.957 546.000 81.978 546.000 L 146.000 546.000 146.000 542.710 C 146.000 537.783,148.720 528.299,151.774 522.575 C 155.337 515.897,165.298 505.896,171.528 502.741 C 182.717 497.075,196.468 495.418,207.632 498.390 C 225.144 503.053,240.086 518.846,243.213 535.999 C 243.765 539.025,244.401 542.513,244.627 543.750 L 245.038 546.000 363.974 546.000 L 482.909 546.000 483.507 542.250 C 485.555 529.410,489.351 521.047,496.834 512.895 C 515.369 492.702,546.276 491.768,566.226 510.797 C 575.572 519.711,581.343 532.015,581.918 544.250 C 581.994 545.880,584.294 546.000,615.510 546.000 L 649.019 546.000 648.760 497.392 L 648.500 448.783 634.000 440.580 C 626.025 436.068,612.424 428.381,603.775 423.498 L 588.050 414.620 584.640 404.560 C 582.765 399.027,573.482 371.775,564.011 344.000 C 550.265 303.684,546.763 292.340,546.648 287.750 L 546.504 282.000 291.756 282.000 L 37.009 282.000 36.754 394.660 M160.028 314.052 C 160.563 315.051,161.049 320.061,161.109 325.184 C 161.168 330.308,161.506 337.200,161.859 340.500 C 162.411 345.664,162.804 346.543,164.680 346.810 C 167.273 347.180,167.653 345.115,168.377 326.698 C 168.855 314.539,169.678 312.000,173.144 312.000 C 176.085 312.000,176.844 315.324,177.556 331.323 C 178.073 342.954,178.529 346.266,179.675 346.705 C 182.513 347.795,183.207 345.042,183.750 330.526 C 184.184 318.923,184.647 315.422,185.962 313.799 C 187.798 311.532,191.383 311.949,192.379 314.546 C 192.690 315.355,193.251 326.317,193.626 338.907 L 194.308 361.798 191.736 366.149 C 190.322 368.542,187.327 371.619,185.082 372.986 L 181.000 375.472 181.000 413.036 C 181.000 440.919,180.691 450.909,179.800 451.800 C 178.555 453.045,169.355 453.457,166.582 452.393 C 165.178 451.854,165.000 447.533,165.000 413.997 L 165.000 376.208 159.970 372.981 C 151.763 367.714,152.000 368.640,152.000 341.843 C 152.000 318.962,152.588 313.491,155.222 311.863 C 156.744 310.922,158.871 311.891,160.028 314.052 M232.429 313.571 C 233.826 314.969,234.000 322.600,234.000 382.500 C 234.000 442.400,233.826 450.031,232.429 451.429 C 230.522 453.335,220.009 453.609,218.200 451.800 C 217.319 450.919,217.000 442.533,217.000 420.300 L 217.000 390.000 211.700 390.000 C 208.785 390.000,205.860 389.460,205.200 388.800 C 202.757 386.357,204.338 365.336,208.080 350.500 C 211.035 338.784,217.903 325.299,224.596 318.069 C 227.687 314.731,230.360 312.000,230.536 312.000 C 230.713 312.000,231.564 312.707,232.429 313.571 M536.970 336.945 C 538.136 339.122,563.000 411.974,563.000 413.211 C 563.000 413.645,542.075 414.000,516.500 414.000 L 470.000 414.000 470.000 375.167 C 470.000 353.808,470.300 336.033,470.667 335.667 C 471.033 335.300,485.868 335.000,503.631 335.000 C 534.601 335.000,535.972 335.080,536.970 336.945 M190.000 504.774 C 180.432 505.634,168.670 511.905,162.499 519.436 C 160.605 521.748,157.805 526.308,156.277 529.570 C 153.769 534.926,153.500 536.564,153.500 546.500 C 153.500 556.807,153.702 557.927,156.709 564.274 C 165.712 583.282,187.221 592.921,207.000 586.811 C 217.092 583.693,227.418 575.092,231.986 566.000 C 240.467 549.119,237.846 531.177,224.900 517.488 C 215.868 507.938,203.782 503.535,190.000 504.774 M519.286 506.451 C 500.080 512.453,487.412 533.280,490.833 553.229 C 495.264 579.073,521.707 594.799,546.234 586.178 C 557.342 582.274,565.149 575.124,570.397 564.047 C 573.283 557.959,573.500 556.730,573.500 546.500 C 573.500 536.605,573.225 534.914,570.766 529.664 C 565.544 518.518,557.739 511.208,546.712 507.137 C 539.944 504.638,526.188 504.294,519.286 506.451 M204.874 527.936 C 215.651 533.434,219.339 548.285,212.409 558.285 C 209.108 563.048,200.514 568.003,195.571 567.994 C 187.084 567.979,177.303 561.477,174.924 554.269 C 173.306 549.368,173.631 541.580,175.628 537.371 C 177.585 533.247,183.399 528.107,188.137 526.312 C 192.515 524.654,199.833 525.364,204.874 527.936 M538.500 526.105 C 544.419 527.725,551.495 535.395,552.829 541.638 C 554.477 549.351,552.750 555.235,547.143 561.015 C 538.887 569.525,527.630 570.265,518.680 562.888 C 505.952 552.396,509.889 532.086,525.748 526.427 C 530.386 524.772,533.351 524.697,538.500 526.105 " stroke="none" fill="black" fill-rule="evenodd"/></svg>