<svg width="64" height="64" viewBox="0 0 64 64" fill="none" xmlns="http://www.w3.org/2000/svg">
<path d="M16.7902 9.07C16.9402 7.75 15.9902 6.57 14.6702 6.42C13.3502 6.27 12.1702 7.22 12.0202 8.54L10.4202 22.94L10.4102 23.07V24.8C10.4102 29.66 14.3502 33.6 19.2102 33.6H20.0102V55.2C20.0102 56.53 21.0802 57.6 22.4102 57.6C23.7402 57.6 24.8102 56.53 24.8102 55.2V33.6H25.6102C30.4702 33.6 34.4102 29.66 34.4102 24.8V23.07L34.4002 22.94L32.8002 8.54C32.6402 7.22 31.4502 6.27 30.1302 6.41C28.8102 6.55 27.8602 7.74 28.0102 9.06L29.6002 23.33V24.8C29.6002 27.01 27.8102 28.8 25.6002 28.8H19.2002C16.9902 28.8 15.2002 27.01 15.2002 24.8V23.33L16.7902 9.06V9.07ZM24.8002 8.8C24.8002 7.47 23.7302 6.4 22.4002 6.4C21.0702 6.4 20.0002 7.47 20.0002 8.8V23.2C20.0002 24.53 21.0702 25.6 22.4002 25.6C23.7302 25.6 24.8002 24.53 24.8002 23.2V8.8ZM43.2002 24C43.2002 18.23 45.3702 15.14 47.3402 13.43C48.1102 12.77 48.8902 12.27 49.6002 11.91V36.8H44.8002C43.9202 36.8 43.2002 36.08 43.2002 35.2V24ZM49.6002 41.6V55.2C49.6002 56.53 50.6702 57.6 52.0002 57.6C53.3302 57.6 54.4002 56.53 54.4002 55.2V9.6C54.4002 7.83 52.9702 6.4 51.2002 6.4C49.6002 6.4 38.4002 9.6 38.4002 24V35.2C38.4002 38.73 41.2702 41.6 44.8002 41.6H49.6002Z" fill="#271332"/>
</svg>
