<svg width="48" height="48" viewBox="0 0 48 48" fill="none" xmlns="http://www.w3.org/2000/svg">
<path d="M4.8 7.2C2.1525 7.2 0 9.3525 0 12V36.6C0 40.245 2.955 43.2 6.6 43.2C8.49 43.2 10.2 42.405 11.4 41.13C12.6 42.405 14.31 43.2 16.2 43.2C19.2225 43.2 21.765 41.1675 22.5525 38.4H32.6475C33.4275 41.1675 35.9775 43.2 39 43.2C42.225 43.2 44.9175 40.8825 45.4875 37.8225C46.9875 37.0125 48 35.4225 48 33.6V22.5975C48 21.3225 47.4975 20.1 46.5975 19.2L43.2 15.8025C42.3 14.9025 41.0775 14.4 39.8025 14.4H36V12C36 9.3525 33.8475 7.2 31.2 7.2H4.8ZM36 19.2H39.8025L43.2 22.5975V26.4H36V19.2ZM6.6 33.6C8.2575 33.6 9.6 34.9425 9.6 36.6C9.6 38.2575 8.2575 39.6 6.6 39.6C4.9425 39.6 3.6 38.2575 3.6 36.6C3.6 34.9425 4.9425 33.6 6.6 33.6ZM36 36.6C36 34.9425 37.3425 33.6 39 33.6C40.6575 33.6 42 34.9425 42 36.6C42 38.2575 40.6575 39.6 39 39.6C37.3425 39.6 36 38.2575 36 36.6ZM16.2 33.6C17.8575 33.6 19.2 34.9425 19.2 36.6C19.2 38.2575 17.8575 39.6 16.2 39.6C14.5425 39.6 13.2 38.2575 13.2 36.6C13.2 34.9425 14.5425 33.6 16.2 33.6Z" fill="#271332"/>
</svg>
