<svg width="48" height="48" viewBox="0 0 48 48" fill="none" xmlns="http://www.w3.org/2000/svg">
<path d="M25.3051 5.3625C24.9676 5.0025 24.4951 4.8 24.0001 4.8C23.5051 4.8 23.0326 5.0025 22.6951 5.3625L11.8951 16.7625L11.8576 16.8H6.0001C4.6726 16.8 3.6001 17.8725 3.6001 19.2C3.6001 20.2875 4.3201 21.2025 5.3101 21.5025L8.7601 37.0425C9.2476 39.24 11.1976 40.8 13.4476 40.8H34.5451C36.7951 40.8 38.7451 39.24 39.2326 37.0425L42.6901 21.5025C43.6801 21.21 44.4001 20.2875 44.4001 19.2C44.4001 17.8725 43.3276 16.8 42.0001 16.8H36.1426L36.1051 16.7625L25.3051 5.3625ZM31.1851 16.8H16.8151L24.0001 9.2175L31.1851 16.8ZM12.0001 24.6C12.0001 23.6025 12.8026 22.8 13.8001 22.8C14.7976 22.8 15.6001 23.6025 15.6001 24.6C15.6001 25.5975 14.7976 26.4 13.8001 26.4C12.8026 26.4 12.0001 25.5975 12.0001 24.6ZM34.2001 22.8C35.1976 22.8 36.0001 23.6025 36.0001 24.6C36.0001 25.5975 35.1976 26.4 34.2001 26.4C33.2026 26.4 32.4001 25.5975 32.4001 24.6C32.4001 23.6025 33.2026 22.8 34.2001 22.8Z" fill="#271332"/>
</svg>
