<svg width="48" height="48" viewBox="0 0 48 48" fill="none" xmlns="http://www.w3.org/2000/svg">
<path d="M7.1999 13.2H40.7999C41.4599 13.2 41.9999 13.74 41.9999 14.4V17.7675C39.8474 19.0125 38.3999 21.3375 38.3999 24C38.3999 26.6625 39.8474 28.995 41.9999 30.2325V33.6C41.9999 34.26 41.4599 34.8 40.7999 34.8H7.1999C6.5399 34.8 5.9999 34.26 5.9999 33.6V30.2325C8.1524 28.9875 9.5999 26.6625 9.5999 24C9.5999 21.3375 8.1524 19.005 5.9999 17.7675V14.4C5.9999 13.74 6.5399 13.2 7.1999 13.2ZM7.1999 9.6C4.5524 9.6 2.3999 11.7525 2.3999 14.4V19.2C2.3999 19.86 2.9549 20.3775 3.5774 20.595C4.9874 21.0825 5.9999 22.425 5.9999 24C5.9999 25.575 4.9874 26.9175 3.5774 27.405C2.9549 27.6225 2.3999 28.14 2.3999 28.8V33.6C2.3999 36.2475 4.5524 38.4 7.1999 38.4H40.7999C43.4474 38.4 45.5999 36.2475 45.5999 33.6V28.8C45.5999 28.14 45.0449 27.6225 44.4224 27.405C43.0124 26.9175 41.9999 25.575 41.9999 24C41.9999 22.425 43.0124 21.0825 44.4224 20.595C45.0449 20.3775 45.5999 19.86 45.5999 19.2V14.4C45.5999 11.7525 43.4474 9.6 40.7999 9.6H7.1999Z" fill="#271332"/>
</svg>
