<?xml version="1.0" encoding="UTF-8"?>
<!--
Soliguide: Useful information for those who need it

SPDX-FileCopyrightText: © 2025 Solinum

SPDX-License-Identifier: AGPL-3.0-only

This program is free software: you can redistribute it and/or modify
it under the terms of the GNU Affero General Public License as published
by the Free Software Foundation, either version 3 of the License, or
(at your option) any later version.

This program is distributed in the hope that it will be useful,
but WITHOUT ANY WARRANTY; without even the implied warranty of
MERCHANTABILITY or FITNESS FOR A PARTICULAR PURPOSE.  See the
GNU Affero General Public License for more details.

You should have received a copy of the GNU Affero General Public License
along with this program.  If not, see <https://www.gnu.org/licenses/>.
-->
<svg width="48" height="48" viewBox="0 0 48 48" fill="none" xmlns="http://www.w3.org/2000/svg">
<path d="M44 20V12C44 9.78 42.2 8 40 8H8C5.8 8 4.02 9.78 4.02 12V20C6.22 20 8 21.8 8 24C8 26.2 6.22 28 4 28V36C4 38.2 5.8 40 8 40H40C42.2 40 44 38.2 44 36V28C41.8 28 40 26.2 40 24C40 21.8 41.8 20 44 20ZM40 17.08C37.62 18.46 36 21.06 36 24C36 26.94 37.62 29.54 40 30.92V36H8V30.92C10.38 29.54 12 26.94 12 24C12 21.04 10.4 18.46 8.02 17.08L8 12H40V17.08ZM22 30H26V34H22V30ZM22 22H26V26H22V22ZM22 14H26V18H22V14Z" fill="#404040"/>
</svg>
