<svg width="48" height="48" viewBox="0 0 48 48" fill="none" xmlns="http://www.w3.org/2000/svg">
<path d="M12.0002 4.8C11.3327 4.8 10.6952 5.0775 10.2452 5.565C9.79521 6.0525 9.55521 6.705 9.60771 7.3725L11.7677 37.6275C11.9927 40.77 14.6027 43.2 17.7527 43.2H30.2477C33.3977 43.2 36.0077 40.77 36.2327 37.6275L38.3927 7.3725C38.4377 6.705 38.2127 6.0525 37.7552 5.565C37.2977 5.0775 36.6677 4.8 36.0002 4.8H12.0002ZM15.8252 27.1125L14.5802 9.6H33.4202L32.1752 27.1125L31.2002 27.6C29.6927 28.3575 27.9077 28.3575 26.4002 27.6C24.8927 26.8425 23.1077 26.8425 21.6002 27.6C20.0927 28.3575 18.3077 28.3575 16.8002 27.6L15.8252 27.1125ZM28.8002 19.5C28.8002 17.7 26.2727 14.2425 24.8852 12.4875C24.4277 11.91 23.5727 11.91 23.1152 12.4875C21.7277 14.2425 19.2002 17.7 19.2002 19.5C19.2002 21.9825 21.3527 24 24.0002 24C26.6477 24 28.8002 21.9825 28.8002 19.5Z" fill="#271332"/>
</svg>
