<?xml version="1.0" encoding="UTF-8"?>
<!--
Soliguide: Useful information for those who need it

SPDX-FileCopyrightText: © 2025 Solinum

SPDX-License-Identifier: AGPL-3.0-only

This program is free software: you can redistribute it and/or modify
it under the terms of the GNU Affero General Public License as published
by the Free Software Foundation, either version 3 of the License, or
(at your option) any later version.

This program is distributed in the hope that it will be useful,
but WITHOUT ANY WARRANTY; without even the implied warranty of
MERCHANTABILITY or FITNESS FOR A PARTICULAR PURPOSE.  See the
GNU Affero General Public License for more details.

You should have received a copy of the GNU Affero General Public License
along with this program.  If not, see <https://www.gnu.org/licenses/>.
-->
<svg version="1.1" width="667" height="667" xmlns="http://www.w3.org/2000/svg"><path d="M296.500 31.871 C 288.570 36.796,287.000 40.711,287.000 55.565 L 287.000 67.000 260.816 67.000 C 236.316 67.000,234.354 67.134,230.323 69.086 C 222.198 73.019,221.544 74.911,221.191 95.514 C 220.891 112.942,220.957 113.639,223.191 116.922 C 226.240 121.403,229.784 123.931,234.577 125.043 C 236.735 125.543,249.412 125.963,262.750 125.976 L 287.000 126.000 286.996 142.250 L 286.993 158.500 282.246 160.384 C 270.078 165.213,251.679 179.641,244.527 189.962 L 241.793 193.907 186.146 194.212 C 124.540 194.549,126.908 194.299,120.301 201.172 C 114.256 207.460,113.998 209.047,114.022 239.718 C 114.046 270.346,114.390 272.352,120.624 278.197 C 126.873 284.057,126.270 284.000,182.382 284.000 L 233.828 284.000 237.385 290.361 C 250.263 313.389,270.745 328.992,296.759 335.591 C 316.040 340.482,339.616 338.153,357.683 329.574 C 376.349 320.709,391.976 305.759,400.880 288.250 L 403.041 284.000 425.036 284.000 L 447.032 284.000 446.766 311.636 L 446.500 339.272 443.068 339.648 C 437.676 340.237,431.289 344.540,428.748 349.293 C 426.721 353.086,426.500 354.893,426.500 367.664 C 426.500 381.789,426.508 381.839,429.513 386.164 C 431.275 388.699,434.374 391.435,436.975 392.750 C 441.413 394.994,441.551 395.000,491.590 395.000 C 545.774 395.000,545.438 395.030,551.311 389.587 C 556.039 385.206,557.000 381.388,557.000 366.992 C 557.000 355.991,556.690 353.313,555.044 350.086 C 552.850 345.785,547.955 341.258,544.673 340.494 C 542.519 339.992,538.194 339.217,536.750 339.074 C 536.337 339.033,536.000 324.356,536.000 306.458 C 536.000 270.598,535.363 264.847,529.858 251.000 C 521.861 230.884,505.980 213.580,486.500 203.755 C 471.469 196.174,455.283 193.821,419.850 194.065 C 396.765 194.225,395.796 194.154,394.428 192.200 C 383.927 177.208,365.935 163.896,347.750 157.663 C 346.184 157.126,346.000 155.428,346.000 141.531 L 346.000 126.000 370.750 125.994 C 384.934 125.991,397.113 125.541,399.277 124.940 C 403.833 123.675,409.315 119.069,410.943 115.138 C 411.752 113.184,412.031 106.716,411.816 94.884 C 411.454 74.989,410.747 72.992,402.677 69.086 C 398.646 67.134,396.684 67.000,372.184 67.000 L 346.000 67.000 346.000 56.243 C 346.000 43.733,345.080 39.746,341.270 35.736 C 336.182 30.382,334.515 30.000,316.300 30.004 C 301.655 30.007,299.115 30.247,296.500 31.871 M490.799 427.500 C 490.427 428.600,489.401 433.462,488.519 438.305 C 483.421 466.293,470.959 496.968,455.468 519.658 C 447.521 531.298,446.506 534.284,446.503 546.021 C 446.500 554.790,446.763 556.076,449.827 562.301 C 456.166 575.176,469.487 584.728,484.280 587.004 C 504.237 590.076,525.022 579.184,533.666 561.124 C 535.753 556.762,536.456 553.561,536.796 546.860 C 537.392 535.110,535.843 530.980,524.369 513.714 C 503.967 483.015,494.374 458.072,491.787 429.000 C 491.544 426.274,491.326 425.942,490.799 427.500 " stroke="none" fill="black" fill-rule="evenodd"/></svg>