<svg width="48" height="48" viewBox="0 0 48 48" fill="none" xmlns="http://www.w3.org/2000/svg">
<path d="M11.3999 4.8C10.8974 4.8 10.4174 5.01 10.0724 5.385C9.72737 5.76 9.56237 6.255 9.60737 6.7575L12.3224 38.265C12.5624 41.055 14.9024 43.2 17.6999 43.2H30.2999C33.1049 43.2 35.4374 41.055 35.6774 38.265L38.3924 6.7575C38.4374 6.255 38.2649 5.76 37.9274 5.385C37.5899 5.01 37.1024 4.8 36.5999 4.8H11.3999ZM15.1124 28.74L13.3574 8.4H34.6349L32.8799 28.74L32.1824 29.13C30.9674 29.805 29.4674 29.6775 28.3799 28.8075C25.8149 26.7525 22.1699 26.7525 19.6049 28.8075C18.5174 29.6775 17.0174 29.805 15.8024 29.13L15.1049 28.74H15.1124ZM15.4649 32.865C17.6399 33.51 20.0324 33.075 21.8549 31.62C23.1074 30.6225 24.8849 30.6225 26.1299 31.62C27.9524 33.075 30.3449 33.5175 32.5199 32.865L32.0849 37.9575C32.0099 38.8875 31.2299 39.6 30.2999 39.6H17.6999C16.7624 39.6 15.9899 38.8875 15.9074 37.9575L15.4649 32.865ZM28.7999 19.5C28.7999 17.7 26.2724 14.2425 24.8849 12.4875C24.4274 11.91 23.5724 11.91 23.1149 12.4875C21.7274 14.2425 19.1999 17.7 19.1999 19.5C19.1999 21.9825 21.3524 24 23.9999 24C26.6474 24 28.7999 21.9825 28.7999 19.5Z" fill="#271332"/>
</svg>
