<?xml version="1.0" encoding="UTF-8"?>
<!--
Soliguide: Useful information for those who need it

SPDX-FileCopyrightText: © 2025 Solinum

SPDX-License-Identifier: AGPL-3.0-only

This program is free software: you can redistribute it and/or modify
it under the terms of the GNU Affero General Public License as published
by the Free Software Foundation, either version 3 of the License, or
(at your option) any later version.

This program is distributed in the hope that it will be useful,
but WITHOUT ANY WARRANTY; without even the implied warranty of
MERCHANTABILITY or FITNESS FOR A PARTICULAR PURPOSE.  See the
GNU Affero General Public License for more details.

You should have received a copy of the GNU Affero General Public License
along with this program.  If not, see <https://www.gnu.org/licenses/>.
-->
<svg width="48" height="48" viewBox="0 0 48 48" fill="none" xmlns="http://www.w3.org/2000/svg">
<path d="M10.4599 4C8.07986 4 6.21986 6.08 6.47986 8.44L10.0199 40.46C10.2599 42.46 11.9399 44 13.9999 44H33.9999C36.0599 44 37.7399 42.46 37.9799 40.46L41.5199 8.44C41.7799 6.08 39.9199 4 37.5399 4H10.4599ZM23.9999 38C20.6799 38 17.9999 35.32 17.9999 32C17.9999 28.9 21.6199 24.1 23.2399 22.12C23.6399 21.62 24.3799 21.62 24.7799 22.12C26.3999 24.12 30.0199 28.9 30.0199 32C29.9999 35.32 27.3199 38 23.9999 38ZM36.6599 16H11.3399L10.6999 10.22C10.5799 9.04 11.4999 8 12.6999 8H35.2999C36.4799 8 37.4199 9.04 37.2799 10.22L36.6599 16Z" fill="#404040"/>
</svg>
