<svg width="48" height="48" viewBox="0 0 48 48" fill="none" xmlns="http://www.w3.org/2000/svg">
<path d="M17.9998 6.60005C17.9998 5.60255 17.1973 4.80005 16.1998 4.80005C15.2023 4.80005 14.3998 5.60255 14.3998 6.60005V11.4C14.3998 16.3725 18.4273 20.4 23.3998 20.4H24.0748C24.0223 20.79 23.9998 21.195 23.9998 21.6V26.4C23.9998 29.385 21.5848 31.8001 18.5998 31.8001H13.7998C8.8273 31.8001 4.7998 35.8275 4.7998 40.8V41.4001C4.7998 42.3975 5.6023 43.2001 6.5998 43.2001C7.5973 43.2001 8.3998 42.3975 8.3998 41.4001V40.8C8.3998 38.1525 10.5523 36 13.1998 36C13.9198 36 14.6248 36.2626 15.4948 36.8326C16.1548 37.2601 16.7773 37.7775 17.5123 38.385C17.8273 38.64 18.1573 38.9175 18.5248 39.21C20.8948 41.1 23.9923 43.2076 28.7998 43.2076C36.7498 43.2076 43.1998 36.7576 43.1998 28.8076V21.6075C43.1998 16.305 38.9023 12.0075 33.5998 12.0075C30.0448 12.0075 26.9473 13.9351 25.2823 16.8075L23.3998 16.8C20.4148 16.8 17.9998 14.385 17.9998 11.4V6.60005ZM27.5998 21.6C27.5998 18.285 30.2848 15.6 33.5998 15.6C36.9148 15.6 39.5998 18.285 39.5998 21.6V27.6H37.1998C36.0298 27.6 34.8973 27.2176 33.9598 26.5201L32.9998 25.8C31.4398 24.63 29.5498 24 27.5998 24V21.6ZM37.1998 31.2001H39.3298C38.2348 36.0075 33.9373 39.6001 28.7998 39.6001C25.2073 39.6001 22.9048 38.1 20.7748 36.3975C20.5123 36.1875 20.2348 35.9625 19.9573 35.73C19.8073 35.6101 19.6573 35.4825 19.5073 35.3626C23.6548 34.9501 26.9773 31.7176 27.5248 27.6075H27.6073C28.7773 27.6075 29.9098 27.99 30.8473 28.6875L31.7998 29.4C33.3598 30.57 35.2498 31.2001 37.1998 31.2001Z" fill="#271332"/>
</svg>
