<?xml version="1.0" encoding="UTF-8"?>
<!--
Soliguide: Useful information for those who need it

SPDX-FileCopyrightText: © 2025 Solinum

SPDX-License-Identifier: AGPL-3.0-only

This program is free software: you can redistribute it and/or modify
it under the terms of the GNU Affero General Public License as published
by the Free Software Foundation, either version 3 of the License, or
(at your option) any later version.

This program is distributed in the hope that it will be useful,
but WITHOUT ANY WARRANTY; without even the implied warranty of
MERCHANTABILITY or FITNESS FOR A PARTICULAR PURPOSE.  See the
GNU Affero General Public License for more details.

You should have received a copy of the GNU Affero General Public License
along with this program.  If not, see <https://www.gnu.org/licenses/>.
-->
<svg version="1.1" width="667" height="667" xmlns="http://www.w3.org/2000/svg"><path d="M331.500 62.426 C 323.455 64.287,319.940 65.721,317.250 68.241 C 312.230 72.943,316.193 78.296,327.130 81.585 C 332.359 83.157,336.456 83.485,350.000 83.417 C 364.344 83.344,367.278 83.048,372.452 81.151 C 386.707 75.924,386.455 68.521,371.861 63.803 C 363.582 61.126,340.521 60.339,331.500 62.426 M312.743 100.218 C 313.656 116.429,319.883 140.508,327.038 155.500 C 335.876 174.015,351.594 193.327,368.691 206.678 C 378.436 214.287,383.927 220.891,388.467 230.461 C 394.378 242.921,395.280 253.456,392.496 277.506 C 384.603 345.687,357.232 394.012,313.000 417.859 C 301.499 424.060,283.574 429.646,269.000 431.571 C 254.333 433.508,241.069 433.064,223.320 430.042 C 189.232 424.238,160.694 425.346,136.678 433.408 C 102.865 444.759,77.692 470.860,65.544 507.163 C 63.634 512.870,61.777 520.048,61.416 523.114 L 60.761 528.688 67.319 529.301 C 85.600 531.008,103.007 539.428,114.361 552.057 C 119.412 557.674,119.242 557.764,121.058 548.500 C 121.705 545.200,123.534 538.513,125.123 533.641 C 133.589 507.682,147.179 493.507,164.811 492.246 C 183.638 490.899,200.704 500.798,212.110 519.682 C 227.933 545.879,248.760 563.526,278.000 575.516 C 324.483 594.577,384.227 594.548,440.000 575.437 C 499.074 555.196,548.328 521.167,580.115 478.635 C 612.566 435.213,629.100 375.226,621.006 330.275 C 607.837 257.143,563.162 205.779,493.000 183.102 C 479.322 178.682,464.269 175.286,450.500 173.515 C 435.768 171.620,429.529 169.883,420.531 165.172 C 407.144 158.161,396.882 145.824,389.974 128.435 C 386.502 119.695,383.203 107.533,382.356 100.353 L 381.749 95.207 378.124 96.742 C 367.831 101.100,349.223 102.998,336.893 100.949 C 331.692 100.085,317.519 96.172,313.945 94.613 C 312.611 94.032,312.440 94.832,312.743 100.218 M519.801 226.807 C 527.801 231.988,525.978 245.332,516.793 248.828 C 509.070 251.767,500.000 245.542,500.000 237.302 C 500.000 226.906,510.974 221.090,519.801 226.807 M482.800 263.405 C 487.932 266.075,490.304 269.604,490.756 275.242 C 491.261 281.532,488.562 286.411,482.980 289.302 C 474.046 293.929,462.597 286.720,462.750 276.563 C 462.912 265.835,473.772 258.708,482.800 263.405 M550.871 288.623 C 557.613 291.983,561.183 297.157,561.787 304.448 C 562.387 311.681,560.711 316.090,555.554 320.844 C 547.456 328.308,538.032 328.831,529.241 322.304 C 519.420 315.012,519.420 298.009,529.241 290.686 C 536.295 285.425,543.143 284.772,550.871 288.623 M584.372 348.968 C 585.853 350.444,586.691 368.259,585.781 378.916 C 582.659 415.473,563.527 451.910,530.867 483.500 C 496.626 516.619,451.935 540.455,406.416 549.876 C 387.899 553.709,379.044 554.502,355.500 554.433 C 336.397 554.377,330.437 553.994,320.323 552.172 C 284.483 545.714,259.097 532.113,244.544 511.570 C 232.902 495.138,232.428 485.440,242.915 478.300 C 247.371 475.267,253.817 474.515,262.552 476.009 C 272.169 477.654,287.226 476.799,297.500 474.025 C 308.161 471.146,321.849 464.569,333.210 456.866 C 343.393 449.963,366.896 427.336,376.179 415.500 C 387.396 401.197,402.971 377.137,412.004 360.157 C 415.865 352.898,419.623 349.621,426.018 347.935 C 432.522 346.221,437.252 347.854,445.018 354.495 C 458.407 365.946,471.569 370.191,495.000 370.617 C 508.573 370.863,511.623 370.608,519.536 368.563 C 530.402 365.756,540.227 361.678,549.000 356.335 C 563.443 347.538,579.568 344.180,584.372 348.968 M57.000 547.759 C 51.909 548.302,47.006 550.121,46.107 551.799 C 43.685 556.325,50.249 563.153,62.762 569.125 C 80.467 577.575,107.406 579.716,111.021 572.960 C 115.362 564.849,89.892 550.550,67.000 548.246 C 62.875 547.831,58.375 547.612,57.000 547.759 " stroke="none" fill="black" fill-rule="evenodd"/></svg>