<svg width="48" height="48" viewBox="0 0 48 48" fill="none" xmlns="http://www.w3.org/2000/svg">
<path d="M16.7998 4.80005C18.1273 4.80005 19.1998 5.87255 19.1998 7.20005V12C19.1998 14.6475 21.3523 16.8 23.9998 16.8H25.2823C26.9398 13.9275 30.0448 12 33.5998 12C38.9023 12 43.1998 16.2975 43.1998 21.6V27.6C43.1998 36.2176 36.2173 43.2001 27.5998 43.2001C25.1998 43.2001 23.2873 42.765 21.6823 42.0601C20.0923 41.3625 18.9148 40.4325 17.9623 39.6451C17.8273 39.5325 17.6923 39.4201 17.5648 39.3151C15.8998 37.9201 15.0448 37.2001 13.1998 37.2001C11.2123 37.2001 9.5998 38.8125 9.5998 40.8C9.5998 42.1276 8.5273 43.2001 7.1998 43.2001C5.8723 43.2001 4.7998 42.1276 4.7998 40.8C4.7998 35.4976 9.09731 31.2001 14.3998 31.2001H19.1998C21.8473 31.2001 23.9998 29.0476 23.9998 26.4V21.6C18.6973 21.6 14.3998 17.3025 14.3998 12V7.20005C14.3998 5.87255 15.4723 4.80005 16.7998 4.80005ZM38.3998 27.6V21.6C38.3998 18.9525 36.2473 16.8 33.5998 16.8C30.9523 16.8 28.7998 18.9525 28.7998 21.6V24.0225C30.8398 24.195 32.7223 25.2225 33.9598 26.88C34.8673 28.0875 36.2923 28.8 37.7998 28.8H38.3323C38.3773 28.4025 38.3998 28.0051 38.3998 27.6Z" fill="#271332"/>
</svg>
