<?xml version="1.0" encoding="UTF-8"?>
<!--
Soliguide: Useful information for those who need it

SPDX-FileCopyrightText: © 2025 Solinum

SPDX-License-Identifier: AGPL-3.0-only

This program is free software: you can redistribute it and/or modify
it under the terms of the GNU Affero General Public License as published
by the Free Software Foundation, either version 3 of the License, or
(at your option) any later version.

This program is distributed in the hope that it will be useful,
but WITHOUT ANY WARRANTY; without even the implied warranty of
MERCHANTABILITY or FITNESS FOR A PARTICULAR PURPOSE.  See the
GNU Affero General Public License for more details.

You should have received a copy of the GNU Affero General Public License
along with this program.  If not, see <https://www.gnu.org/licenses/>.
-->
<svg width="48" height="48" viewBox="0 0 48 48" fill="none" xmlns="http://www.w3.org/2000/svg">
<path d="M40 14H30V8C30 5.8 28.2 4 26 4H22C19.8 4 18 5.8 18 8V14H8C5.8 14 4 15.8 4 18V40C4 42.2 5.8 44 8 44H40C42.2 44 44 42.2 44 40V18C44 15.8 42.2 14 40 14ZM22 8H26V18H22V8ZM14 32H12C10.9 32 10 31.1 10 30C10 28.9 10.9 28 12 28H14V26C14 24.9 14.9 24 16 24C17.1 24 18 24.9 18 26V28H20C21.1 28 22 28.9 22 30C22 31.1 21.1 32 20 32H18V34C18 35.1 17.1 36 16 36C14.9 36 14 35.1 14 34V32ZM27.5 29C26.68 29 26 28.32 26 27.5C26 26.68 26.68 26 27.5 26H36.5C37.32 26 38 26.68 38 27.5C38 28.32 37.32 29 36.5 29H27.5ZM27.5 35C26.68 35 26 34.32 26 33.5C26 32.68 26.68 32 27.5 32H32.5C33.32 32 34 32.68 34 33.5C34 34.32 33.32 35 32.5 35H27.5Z" fill="#404040"/>
</svg>
