<?xml version="1.0" encoding="UTF-8"?>
<!--
Soliguide: Useful information for those who need it

SPDX-FileCopyrightText: © 2025 Solinum

SPDX-License-Identifier: AGPL-3.0-only

This program is free software: you can redistribute it and/or modify
it under the terms of the GNU Affero General Public License as published
by the Free Software Foundation, either version 3 of the License, or
(at your option) any later version.

This program is distributed in the hope that it will be useful,
but WITHOUT ANY WARRANTY; without even the implied warranty of
MERCHANTABILITY or FITNESS FOR A PARTICULAR PURPOSE.  See the
GNU Affero General Public License for more details.

You should have received a copy of the GNU Affero General Public License
along with this program.  If not, see <https://www.gnu.org/licenses/>.
-->
<svg version="1.1" width="667" height="667" xmlns="http://www.w3.org/2000/svg"><path d="M323.037 37.222 C 307.473 38.426,287.562 44.132,272.691 51.651 C 257.517 59.321,236.906 76.479,226.283 90.283 C 183.124 146.364,189.341 226.403,240.631 275.000 C 252.047 285.816,262.076 292.717,276.247 299.507 C 297.583 309.729,316.585 313.602,340.908 312.686 C 356.842 312.086,367.121 310.332,380.000 306.014 C 419.892 292.640,453.308 259.369,466.387 220.000 C 472.359 202.024,473.504 194.666,473.467 174.500 C 473.423 150.174,470.336 136.055,460.519 115.290 C 447.677 88.126,425.358 65.266,398.372 51.634 C 375.162 39.910,350.148 35.125,323.037 37.222 M190.024 337.603 C 179.539 340.421,170.731 347.677,165.669 357.667 C 164.317 360.334,156.268 373.537,147.781 387.008 C 126.778 420.343,92.653 474.456,81.886 491.500 C 77.022 499.200,61.397 523.950,47.165 546.500 L 21.288 587.500 63.347 587.761 C 96.163 587.965,105.671 587.745,106.611 586.761 C 107.273 586.067,115.106 573.125,124.018 558.000 C 132.929 542.875,145.008 522.409,150.860 512.519 L 161.500 494.539 161.760 541.269 L 162.020 588.000 335.000 588.000 L 507.980 588.000 508.240 541.431 L 508.500 494.863 528.500 528.517 C 539.500 547.026,551.574 567.420,555.332 573.835 C 559.089 580.251,562.710 586.068,563.378 586.761 C 564.326 587.745,573.744 587.965,606.164 587.761 L 647.734 587.500 635.780 568.500 C 629.206 558.050,618.746 541.400,612.536 531.500 C 606.327 521.600,596.848 506.525,591.473 498.000 C 586.097 489.475,575.623 472.825,568.197 461.000 C 560.771 449.175,543.800 422.175,530.485 401.000 C 517.169 379.825,505.252 360.475,504.004 358.000 C 498.825 347.734,491.883 341.666,481.199 338.067 C 475.648 336.197,472.687 336.000,450.128 336.000 L 425.192 336.000 426.991 340.750 C 428.472 344.660,431.735 358.432,433.626 368.750 C 433.886 370.170,434.755 371.000,435.982 371.000 C 441.230 371.000,449.643 375.468,455.588 381.412 C 463.350 389.175,466.304 396.179,466.378 407.000 C 466.602 439.458,428.547 456.059,404.575 433.962 C 385.474 416.356,391.456 383.235,415.523 373.338 C 419.132 371.854,419.993 371.019,419.995 369.000 C 419.999 365.202,415.410 347.180,412.930 341.250 L 410.733 336.000 345.905 336.000 L 281.077 336.000 280.099 339.750 C 275.546 357.210,273.037 370.507,269.985 393.366 C 268.893 401.543,268.000 408.573,268.000 408.989 C 268.000 409.404,269.889 410.046,272.198 410.416 C 285.601 412.559,301.507 425.856,308.849 441.054 C 316.104 456.072,319.000 471.339,319.000 494.572 L 319.000 509.000 298.500 509.000 L 278.000 509.000 278.000 502.500 L 278.000 496.000 292.152 496.000 L 306.305 496.000 305.636 484.750 C 303.964 456.647,294.857 436.447,279.907 427.686 C 265.771 419.401,247.682 421.223,236.887 432.018 C 226.217 442.688,220.000 463.663,220.000 488.992 L 220.000 497.536 232.250 497.518 L 244.500 497.500 244.796 504.250 L 245.091 511.000 226.685 511.000 L 208.279 511.000 207.648 505.750 C 205.678 489.353,207.685 463.679,212.045 449.500 C 218.610 428.149,233.771 412.638,250.289 410.374 L 254.765 409.760 255.431 402.630 C 256.975 386.089,262.862 352.241,266.628 338.250 L 267.233 336.000 231.367 336.066 C 203.105 336.118,194.339 336.444,190.024 337.603 M419.229 386.573 C 397.125 397.588,405.220 430.339,430.078 430.466 C 435.688 430.495,437.377 430.055,441.547 427.476 C 448.820 422.980,452.314 417.429,452.814 409.578 C 453.319 401.648,451.810 396.904,447.129 391.713 C 439.906 383.701,429.018 381.695,419.229 386.573 M438.780 484.220 L 439.059 496.941 451.780 497.220 L 464.500 497.500 464.783 508.750 L 465.066 520.000 452.033 520.000 L 439.000 520.000 439.000 532.500 L 439.000 545.000 427.500 545.000 L 416.000 545.000 416.000 532.500 L 416.000 520.000 403.500 520.000 L 391.000 520.000 391.000 508.500 L 391.000 497.000 403.500 497.000 L 416.000 497.000 416.000 483.967 L 416.000 470.934 427.250 471.217 L 438.500 471.500 438.780 484.220 " stroke="none" fill="black" fill-rule="evenodd"/></svg>