<?xml version="1.0" encoding="UTF-8"?>
<!--
Soliguide: Useful information for those who need it

SPDX-FileCopyrightText: © 2025 Solinum

SPDX-License-Identifier: AGPL-3.0-only

This program is free software: you can redistribute it and/or modify
it under the terms of the GNU Affero General Public License as published
by the Free Software Foundation, either version 3 of the License, or
(at your option) any later version.

This program is distributed in the hope that it will be useful,
but WITHOUT ANY WARRANTY; without even the implied warranty of
MERCHANTABILITY or FITNESS FOR A PARTICULAR PURPOSE.  See the
GNU Affero General Public License for more details.

You should have received a copy of the GNU Affero General Public License
along with this program.  If not, see <https://www.gnu.org/licenses/>.
-->
<svg width="48" height="48" viewBox="0 0 48 48" fill="none" xmlns="http://www.w3.org/2000/svg">
<path d="M40 14H30V8C30 5.8 28.2 4 26 4H22C19.8 4 18 5.8 18 8V14H8C5.8 14 4 15.8 4 18V40C4 42.2 5.8 44 8 44H40C42.2 44 44 42.2 44 40V18C44 15.8 42.2 14 40 14ZM22 8H26V18H22V8ZM40 40H8V18H18C18 20.2 19.8 22 22 22H26C28.2 22 30 20.2 30 18H40V40ZM22 32H18V36H14V32H10V28H14V24H18V28H22V32ZM26 29V26H38V29H26ZM26 35V32H34V35H26Z" fill="#404040"/>
</svg>
