<svg width="48" height="48" viewBox="0 0 48 48" fill="none" xmlns="http://www.w3.org/2000/svg">
<path d="M24 35.2051C24.405 35.5351 24.84 35.8351 25.305 36.1051L25.8525 36.3976C26.76 36.8551 27.7125 37.1701 28.6725 37.3876C27.285 39.4126 25.665 41.0551 24.7425 41.9176C24.3225 42.3151 23.685 42.3151 23.265 41.9176C22.3425 41.0551 20.7225 39.4126 19.335 37.3951C20.49 37.1326 21.6375 36.7276 22.71 36.1126L23.3475 35.7151C23.58 35.5576 23.7975 35.3926 24.0075 35.2201L24 35.2051ZM23.2725 5.46756C23.6925 5.07006 24.33 5.07006 24.75 5.46756C26.5875 7.19256 31.2075 11.9926 31.2075 16.8001C31.2075 17.9776 30.93 19.0801 30.4275 20.0626C31.6425 20.0626 32.8725 20.3776 34.005 21.0301C38.1675 23.4301 40.02 29.8426 40.59 32.2951C40.7175 32.8576 40.4025 33.4126 39.8475 33.5776C37.44 34.3051 30.96 35.9026 26.7975 33.5026C25.5525 32.7826 24.6075 31.7551 24 30.5626C23.3925 31.7476 22.44 32.7826 21.195 33.5026C17.0325 35.9026 10.56 34.3051 8.15253 33.5776C7.59753 33.4126 7.28253 32.8576 7.41003 32.2951C7.98003 29.8426 9.83253 23.4376 13.995 21.0301C15.1275 20.3776 16.365 20.0626 17.58 20.0626C17.085 19.0801 16.8 17.9776 16.8 16.8001C16.8 11.9926 21.42 7.18506 23.2575 5.46756H23.2725ZM24.015 19.8001C22.3575 19.8001 21.015 21.1426 21.015 22.8001C21.015 24.4576 22.3575 25.8001 24.015 25.8001C25.6725 25.8001 27.015 24.4576 27.015 22.8001C27.015 21.1426 25.6725 19.8001 24.015 19.8001ZM14.5875 12.6301C14.115 13.9351 13.815 15.3376 13.815 16.8001C13.815 17.1301 13.83 17.4526 13.8675 17.7751C13.6125 17.8726 13.365 17.9851 13.1175 18.1051L12.51 18.4276C11.34 19.1026 10.335 19.9876 9.48753 20.9551C8.36253 18.6751 7.72503 16.3501 7.42503 15.0826C7.29753 14.5201 7.61253 13.9651 8.16753 13.8001C9.46503 13.4101 11.94 12.7651 14.595 12.6301H14.5875ZM33.435 12.6301C36.09 12.7651 38.5575 13.4101 39.855 13.8001C40.41 13.9651 40.725 14.5201 40.5975 15.0826C40.305 16.3501 39.66 18.6751 38.535 20.9551C37.815 20.1301 36.9825 19.3726 36.03 18.7501L35.505 18.4276C35.07 18.1726 34.6125 17.9551 34.155 17.7751C34.17 17.6551 34.1775 17.5351 34.185 17.4151L34.2075 16.8001C34.2075 15.3376 33.9 13.9351 33.435 12.6301Z" fill="#271332"/>
</svg>
