<svg width="48" height="48" viewBox="0 0 48 48" fill="none" xmlns="http://www.w3.org/2000/svg">
<path d="M8.3998 13.2C8.3998 10.5525 10.5523 8.40005 13.1998 8.40005C15.8473 8.40005 17.9998 10.5525 17.9998 13.2C17.9998 15.8475 15.8473 18 13.1998 18C10.5523 18 8.3998 15.8475 8.3998 13.2ZM21.5998 13.2C21.5998 8.55755 17.8423 4.80005 13.1998 4.80005C8.5573 4.80005 4.7998 8.55755 4.7998 13.2C4.7998 17.8425 8.5573 21.6 13.1998 21.6C14.9998 21.6 16.6723 21.0301 18.0373 20.0701L22.3348 24L18.0373 27.93C16.6723 26.97 14.9998 26.4 13.1998 26.4C8.5573 26.4 4.7998 30.1575 4.7998 34.8001C4.7998 39.4426 8.5573 43.2001 13.1998 43.2001C17.8423 43.2001 21.5998 39.4426 21.5998 34.8001C21.5998 33.2626 21.1873 31.83 20.4673 30.585L42.6148 10.3275C43.3498 9.66005 43.4023 8.52005 42.7273 7.78505C42.0523 7.05005 40.9198 6.99755 40.1848 7.67255L25.0048 21.5625L20.4673 17.415C21.1873 16.1775 21.5998 14.7375 21.5998 13.2ZM40.1848 40.3276C40.9198 40.9951 42.0598 40.9501 42.7273 40.215C43.3948 39.4801 43.3498 38.34 42.6148 37.6726L30.1948 26.31L27.5023 28.725L40.1848 40.3276ZM8.3998 34.8001C8.3998 32.1525 10.5523 30 13.1998 30C15.8473 30 17.9998 32.1525 17.9998 34.8001C17.9998 37.4476 15.8473 39.6001 13.1998 39.6001C10.5523 39.6001 8.3998 37.4476 8.3998 34.8001Z" fill="#271332"/>
</svg>
