<svg width="48" height="48" viewBox="0 0 48 48" fill="none" xmlns="http://www.w3.org/2000/svg">
<path d="M19.1998 24L16.2373 26.9625C15.2923 26.595 14.2723 26.4 13.1998 26.4C8.5573 26.4 4.7998 30.1575 4.7998 34.8001C4.7998 39.4426 8.5573 43.2001 13.1998 43.2001C17.8423 43.2001 21.5998 39.4426 21.5998 34.8001C21.5998 33.7276 21.3973 32.7076 21.0373 31.7626L42.2398 10.56C42.7723 10.0275 42.7723 9.17255 42.2398 8.64005C40.1173 6.51755 36.6823 6.51755 34.5598 8.64005L23.9998 19.2L21.0373 16.2375C21.4048 15.2925 21.5998 14.2725 21.5998 13.2C21.5998 8.55755 17.8423 4.80005 13.1998 4.80005C8.5573 4.80005 4.7998 8.55755 4.7998 13.2C4.7998 17.8425 8.5573 21.6 13.1998 21.6C14.2723 21.6 15.2923 21.3975 16.2373 21.0375L19.1998 24ZM26.5423 31.3426L34.5598 39.3601C36.6823 41.4825 40.1173 41.4825 42.2398 39.3601C42.7723 38.8275 42.7723 37.9725 42.2398 37.4401L31.3423 26.5425L26.5423 31.3426ZM9.5998 13.2C9.5998 11.2125 11.2123 9.60005 13.1998 9.60005C15.1873 9.60005 16.7998 11.2125 16.7998 13.2C16.7998 15.1875 15.1873 16.8 13.1998 16.8C11.2123 16.8 9.5998 15.1875 9.5998 13.2ZM13.1998 31.2001C15.1873 31.2001 16.7998 32.8125 16.7998 34.8001C16.7998 36.7875 15.1873 38.4001 13.1998 38.4001C11.2123 38.4001 9.5998 36.7875 9.5998 34.8001C9.5998 32.8125 11.2123 31.2001 13.1998 31.2001Z" fill="#271332"/>
</svg>
