<?xml version="1.0" encoding="UTF-8"?>
<!--
Soliguide: Useful information for those who need it

SPDX-FileCopyrightText: © 2025 Solinum

SPDX-License-Identifier: AGPL-3.0-only

This program is free software: you can redistribute it and/or modify
it under the terms of the GNU Affero General Public License as published
by the Free Software Foundation, either version 3 of the License, or
(at your option) any later version.

This program is distributed in the hope that it will be useful,
but WITHOUT ANY WARRANTY; without even the implied warranty of
MERCHANTABILITY or FITNESS FOR A PARTICULAR PURPOSE.  See the
GNU Affero General Public License for more details.

You should have received a copy of the GNU Affero General Public License
along with this program.  If not, see <https://www.gnu.org/licenses/>.
-->
<svg width="48" height="48" viewBox="0 0 48 48" fill="none" xmlns="http://www.w3.org/2000/svg">
<path d="M19.2824 15.2803C19.8624 14.0403 20.1224 12.6203 19.9624 11.1003C19.5824 7.64033 16.8824 4.70033 13.4424 4.12033C7.90242 3.16033 3.16242 7.90033 4.12242 13.4203C4.72242 16.8603 7.64242 19.5603 11.1024 19.9403C12.6224 20.1003 14.0224 19.8403 15.2824 19.2603L20.0024 24.0003L15.2824 28.7203C14.0424 28.1403 12.6224 27.8803 11.1024 28.0403C7.64242 28.4203 4.70242 31.1203 4.12242 34.5603C3.16242 40.1003 7.90242 44.8203 13.4224 43.8603C16.8624 43.2603 19.5624 40.3403 19.9424 36.8803C20.1024 35.3603 19.8424 33.9603 19.2624 32.7003L24.0024 28.0003L39.1824 43.1803C40.9624 44.9603 44.0024 43.7003 44.0024 41.1803V41.1603C44.0024 40.4203 43.7024 39.7003 43.1824 39.1603L19.2824 15.2803ZM12.0024 16.0003C9.80242 16.0003 8.00242 14.2203 8.00242 12.0003C8.00242 9.78033 9.80242 8.00033 12.0024 8.00033C14.2024 8.00033 16.0024 9.78033 16.0024 12.0003C16.0024 14.2203 14.2024 16.0003 12.0024 16.0003ZM12.0024 40.0003C9.80242 40.0003 8.00242 38.2203 8.00242 36.0003C8.00242 33.7803 9.80242 32.0003 12.0024 32.0003C14.2024 32.0003 16.0024 33.7803 16.0024 36.0003C16.0024 38.2203 14.2024 40.0003 12.0024 40.0003ZM24.0024 25.0003C23.4424 25.0003 23.0024 24.5603 23.0024 24.0003C23.0024 23.4403 23.4424 23.0003 24.0024 23.0003C24.5624 23.0003 25.0024 23.4403 25.0024 24.0003C25.0024 24.5603 24.5624 25.0003 24.0024 25.0003ZM39.1824 4.82033L26.0024 18.0003L30.0024 22.0003L43.1824 8.82033C43.7024 8.30033 44.0024 7.58033 44.0024 6.82033V6.80033C44.0024 4.30033 40.9624 3.04033 39.1824 4.82033Z" fill="#404040"/>
</svg>
