<svg width="64" height="64" viewBox="0 0 64 64" fill="none" xmlns="http://www.w3.org/2000/svg">
<path d="M25.5999 11.9999V15.9999H38.3999V11.9999C38.3999 11.5599 38.0399 11.1999 37.5999 11.1999H26.3999C25.9599 11.1999 25.5999 11.5599 25.5999 11.9999ZM20.7999 12.7999V11.9999C20.7999 8.9099 23.3099 6.3999 26.3999 6.3999H37.5999C40.6899 6.3999 43.1999 8.9099 43.1999 11.9999V54.3999H20.7999V12.7999ZM15.9999 23.9999V54.3999H12.7999C9.2699 54.3999 6.3999 51.5299 6.3999 47.9999V22.3999C6.3999 18.8699 9.2699 15.9999 12.7999 15.9999H15.9999V23.9999ZM47.9999 54.3999V15.9999H51.1999C54.7299 15.9999 57.5999 18.8699 57.5999 22.3999V47.9999C57.5999 51.5299 54.7299 54.3999 51.1999 54.3999H47.9999ZM30.7999 27.1999C29.9199 27.1999 29.1999 27.9199 29.1999 28.7999V32.3999H25.5999C24.7199 32.3999 23.9999 33.1199 23.9999 33.9999V36.3999C23.9999 37.2799 24.7199 37.9999 25.5999 37.9999H29.1999V41.5999C29.1999 42.4799 29.9199 43.1999 30.7999 43.1999H33.1999C34.0799 43.1999 34.7999 42.4799 34.7999 41.5999V37.9999H38.3999C39.2799 37.9999 39.9999 37.2799 39.9999 36.3999V33.9999C39.9999 33.1199 39.2799 32.3999 38.3999 32.3999H34.7999V28.7999C34.7999 27.9199 34.0799 27.1999 33.1999 27.1999H30.7999Z" fill="#271332"/>
</svg>
