<svg width="48" height="48" viewBox="0 0 48 48" fill="none" xmlns="http://www.w3.org/2000/svg">
<path d="M10.2825 14.325L24 8.50505L37.725 14.325C38.1675 14.5125 38.4075 14.91 38.4 15.285C38.37 22.14 35.52 33.9826 24.4275 39.2926C24.1575 39.4201 23.8425 39.4201 23.58 39.2926C12.48 33.9826 9.63753 22.14 9.60003 15.285C9.60003 14.91 9.83253 14.52 10.275 14.325H10.2825ZM39.135 11.01L25.005 5.01755C24.69 4.87505 24.3525 4.80005 24 4.80005C23.6475 4.80005 23.31 4.87505 22.995 5.01755L8.87253 11.01C7.22253 11.7075 5.99253 13.335 6.00003 15.3C6.03753 22.74 9.09753 36.3526 22.02 42.5401C23.2725 43.1401 24.7275 43.1401 25.98 42.5401C38.91 36.3526 41.9625 22.74 42 15.3C42.0075 13.335 40.7775 11.7075 39.1275 11.01H39.135ZM24 12C23.0025 12 22.2 12.8025 22.2 13.8C22.2 15.5175 20.1225 16.38 18.9075 15.165C18.2025 14.46 17.0625 14.46 16.365 15.165C15.6675 15.87 15.66 17.01 16.365 17.7076C17.58 18.9226 16.7175 21 15 21C14.0025 21 13.2 21.8025 13.2 22.8C13.2 23.7976 14.0025 24.6 15 24.6C16.7175 24.6 17.58 26.6775 16.365 27.8925C15.66 28.5975 15.66 29.7375 16.365 30.435C17.07 31.1325 18.21 31.14 18.9075 30.435C20.1225 29.22 22.2 30.0826 22.2 31.8001C22.2 32.7976 23.0025 33.6 24 33.6C24.9975 33.6 25.8 32.7976 25.8 31.8001C25.8 30.0826 27.8775 29.22 29.0925 30.435C29.7975 31.14 30.9375 31.14 31.635 30.435C32.3325 29.73 32.34 28.59 31.635 27.8925C30.42 26.6775 31.2825 24.6 33 24.6C33.9975 24.6 34.8 23.7976 34.8 22.8C34.8 21.8025 33.9975 21 33 21C31.2825 21 30.42 18.9226 31.635 17.7076C32.34 17.0026 32.34 15.8625 31.635 15.165C30.93 14.4675 29.79 14.46 29.0925 15.165C27.8775 16.38 25.8 15.5175 25.8 13.8C25.8 12.8025 24.9975 12 24 12ZM21.6 18.6C22.5975 18.6 23.4 19.4025 23.4 20.4C23.4 21.3975 22.5975 22.2001 21.6 22.2001C20.6025 22.2001 19.8 21.3975 19.8 20.4C19.8 19.4025 20.6025 18.6 21.6 18.6ZM24.6 25.2001C24.6 24.2025 25.4025 23.4 26.4 23.4C27.3975 23.4 28.2 24.2025 28.2 25.2001C28.2 26.1975 27.3975 27 26.4 27C25.4025 27 24.6 26.1975 24.6 25.2001Z" fill="#271332"/>
</svg>
