<svg width="48" height="48" viewBox="0 0 48 48" fill="none" xmlns="http://www.w3.org/2000/svg">
<path d="M20.3999 6.60005C20.3999 5.60255 21.2024 4.80005 22.1999 4.80005H25.7999C26.7974 4.80005 27.5999 5.60255 27.5999 6.60005V10.8H31.7999C32.7974 10.8 33.5999 11.6025 33.5999 12.6V16.2C33.5999 17.1975 32.7974 18 31.7999 18H27.5999V22.2001C27.5999 23.1975 26.7974 24 25.7999 24H22.1999C21.2024 24 20.3999 23.1975 20.3999 22.2001V18H16.1999C15.2024 18 14.3999 17.1975 14.3999 16.2V12.6C14.3999 11.6025 15.2024 10.8 16.1999 10.8H20.3999V6.60005ZM7.4024 33.6L10.5899 30.4125C12.3899 28.6125 14.8349 27.6 17.3774 27.6H28.7999C30.1274 27.6 31.1999 28.6726 31.1999 30C31.1999 31.3276 30.1274 32.4 28.7999 32.4H23.3999C22.4024 32.4 21.5999 33.2026 21.5999 34.2001C21.5999 35.1975 22.4024 36 23.3999 36H31.8449L40.8224 29.385C42.1574 28.4025 44.0324 28.6875 45.0149 30.0225C45.9974 31.3575 45.7124 33.2326 44.3774 34.2151L34.8824 41.2126C33.1274 42.5026 31.0124 43.2001 28.8299 43.2001H4.7999C3.4724 43.2001 2.3999 42.1276 2.3999 40.8V36C2.3999 34.6726 3.4724 33.6 4.7999 33.6H7.4024Z" fill="#271332"/>
</svg>
