<?xml version="1.0" encoding="UTF-8"?>
<!--
Soliguide: Useful information for those who need it

SPDX-FileCopyrightText: © 2025 Solinum

SPDX-License-Identifier: AGPL-3.0-only

This program is free software: you can redistribute it and/or modify
it under the terms of the GNU Affero General Public License as published
by the Free Software Foundation, either version 3 of the License, or
(at your option) any later version.

This program is distributed in the hope that it will be useful,
but WITHOUT ANY WARRANTY; without even the implied warranty of
MERCHANTABILITY or FITNESS FOR A PARTICULAR PURPOSE.  See the
GNU Affero General Public License for more details.

You should have received a copy of the GNU Affero General Public License
along with this program.  If not, see <https://www.gnu.org/licenses/>.
-->
<svg width="48" height="48" viewBox="0 0 48 48" fill="none" xmlns="http://www.w3.org/2000/svg">
<path d="M40 12H32V8C32 5.8 30.2 4 28 4H20C17.8 4 16 5.8 16 8V12H8C5.8 12 4 13.8 4 16V40C4 42.2 5.8 44 8 44H40C42.2 44 44 42.2 44 40V16C44 13.8 42.2 12 40 12ZM20 8H28V12H20V8ZM40 40H8V16H40V40Z" fill="#404040"/>
<path d="M26 20H22V26H16V30H22V36H26V30H32V26H26V20Z" fill="#404040"/>
</svg>
