<?xml version="1.0" encoding="UTF-8"?>
<!--
Soliguide: Useful information for those who need it

SPDX-FileCopyrightText: © 2025 Solinum

SPDX-License-Identifier: AGPL-3.0-only

This program is free software: you can redistribute it and/or modify
it under the terms of the GNU Affero General Public License as published
by the Free Software Foundation, either version 3 of the License, or
(at your option) any later version.

This program is distributed in the hope that it will be useful,
but WITHOUT ANY WARRANTY; without even the implied warranty of
MERCHANTABILITY or FITNESS FOR A PARTICULAR PURPOSE.  See the
GNU Affero General Public License for more details.

You should have received a copy of the GNU Affero General Public License
along with this program.  If not, see <https://www.gnu.org/licenses/>.
-->
<svg width="64" height="64" viewBox="0 0 64 64" fill="none" xmlns="http://www.w3.org/2000/svg">
<path d="M46.6667 8H13.3333C10.4 8 8 10.4 8 13.3333V28.56C8 38.7733 15.8667 47.7067 26.08 48C36.64 48.32 45.3333 39.84 45.3333 29.3333V26.6667H46.6667C51.8133 26.6667 56 22.48 56 17.3333C56 12.1867 51.8133 8 46.6667 8ZM40 13.3333V21.3333H13.3333V13.3333H40ZM40 26.6667V29.3333C40 36.6933 34.0267 42.6667 26.6667 42.6667C19.3067 42.6667 13.3333 36.6933 13.3333 29.3333V26.6667M46.6667 21.3333H45.3333V13.3333H46.6667C48.88 13.3333 50.6667 15.12 50.6667 17.3333C50.6667 19.5467 48.88 21.3333 46.6667 21.3333ZM8 50.6667H50.6667V56H8V50.6667Z" fill="#404040"/>
</svg>
