<?xml version="1.0" encoding="UTF-8"?>
<!--
Soliguide: Useful information for those who need it

SPDX-FileCopyrightText: © 2025 Solinum

SPDX-License-Identifier: AGPL-3.0-only

This program is free software: you can redistribute it and/or modify
it under the terms of the GNU Affero General Public License as published
by the Free Software Foundation, either version 3 of the License, or
(at your option) any later version.

This program is distributed in the hope that it will be useful,
but WITHOUT ANY WARRANTY; without even the implied warranty of
MERCHANTABILITY or FITNESS FOR A PARTICULAR PURPOSE.  See the
GNU Affero General Public License for more details.

You should have received a copy of the GNU Affero General Public License
along with this program.  If not, see <https://www.gnu.org/licenses/>.
-->
<svg width="48" height="48" viewBox="0 0 48 48" fill="none" xmlns="http://www.w3.org/2000/svg">
<path d="M29 13C29 11.32 32 8 32 8C32 8 35 11.32 35 13C35 14.66 33.66 16 32 16C30.34 16 29 14.66 29 13ZM37 30C39.76 30 42 27.76 42 25C42 21.66 37 16 37 16C37 16 32 21.66 32 25C32 27.76 34.24 30 37 30ZM24 28H20V24H16V28H12V32H16V36H20V32H24V28ZM30 24V40C30 42.2 28.2 44 26 44H10C7.8 44 6 42.2 6 40V24C6 18.06 10.32 13.14 16 12.18V8H12V4H24C26.26 4 28.3 4.78 29.98 6.02L27.12 8.88C26.2 8.34 25.14 8 24 8H20V12.18C25.68 13.14 30 18.06 30 24ZM26 24C26 19.58 22.42 16 18 16C13.58 16 10 19.58 10 24V40H26V24Z" fill="#404040"/>
</svg>
