<?xml version="1.0" encoding="UTF-8"?>
<!--
Soliguide: Useful information for those who need it

SPDX-FileCopyrightText: © 2025 Solinum

SPDX-License-Identifier: AGPL-3.0-only

This program is free software: you can redistribute it and/or modify
it under the terms of the GNU Affero General Public License as published
by the Free Software Foundation, either version 3 of the License, or
(at your option) any later version.

This program is distributed in the hope that it will be useful,
but WITHOUT ANY WARRANTY; without even the implied warranty of
MERCHANTABILITY or FITNESS FOR A PARTICULAR PURPOSE.  See the
GNU Affero General Public License for more details.

You should have received a copy of the GNU Affero General Public License
along with this program.  If not, see <https://www.gnu.org/licenses/>.
-->
<svg version="1.1" width="513" height="513" xmlns="http://www.w3.org/2000/svg"><path d="M381.500 4.063 C 372.954 5.382,363.527 8.586,356.000 12.729 C 351.124 15.413,344.502 21.249,329.500 36.083 L 309.500 55.858 299.482 55.297 C 288.096 54.658,281.526 55.747,273.311 59.633 L 267.766 62.256 303.120 97.620 L 338.473 132.983 340.646 128.708 C 345.063 120.015,346.319 113.369,345.713 101.883 L 345.151 91.225 361.825 74.753 C 370.996 65.694,380.075 57.450,382.000 56.433 C 384.254 55.242,387.664 54.569,391.578 54.542 C 399.946 54.484,406.261 58.328,410.206 65.880 L 413.000 71.228 413.000 178.114 L 413.000 285.000 325.059 285.000 L 237.119 285.000 229.722 279.049 C 225.653 275.777,212.565 262.302,200.637 249.105 C 188.708 235.909,177.048 223.479,174.724 221.483 C 164.531 212.725,147.489 207.332,133.531 208.447 C 118.255 209.667,106.655 215.318,95.808 226.826 C 84.317 239.016,80.048 251.418,80.017 272.694 L 80.000 284.889 50.750 285.194 C 22.872 285.486,21.308 285.603,17.405 287.691 C 15.153 288.896,11.834 291.563,10.030 293.618 C 3.140 301.466,3.500 296.949,3.500 375.500 C 3.500 454.103,3.322 451.729,10.113 463.667 C 17.455 476.574,33.609 487.433,47.521 488.813 L 54.448 489.500 55.182 493.810 C 56.231 499.969,59.827 505.894,64.828 509.703 L 69.155 513.000 258.627 513.000 C 466.738 513.000,450.358 513.510,456.638 506.835 C 460.589 502.636,462.760 498.354,463.599 493.105 C 464.249 489.042,464.300 489.000,468.522 489.000 C 474.720 489.000,484.762 485.600,491.580 481.193 C 499.331 476.183,505.462 469.165,509.633 460.528 L 513.000 453.556 513.000 376.582 L 513.000 299.608 510.419 295.883 C 507.582 291.790,502.359 287.980,497.101 286.170 C 495.102 285.482,487.595 285.000,478.880 285.000 L 464.058 285.000 463.762 174.250 C 463.429 50.301,463.980 59.640,456.049 43.500 C 442.604 16.137,411.134 -0.511,381.500 4.063 M119.725 81.566 C 93.877 87.828,76.823 112.873,80.835 138.679 C 84.708 163.590,106.035 182.027,130.932 181.988 C 145.389 181.965,156.998 177.169,167.033 167.073 C 177.232 156.812,181.926 145.625,181.976 131.460 C 182.090 98.620,151.275 73.922,119.725 81.566 " stroke="none" fill="black" fill-rule="evenodd"/></svg>