<svg width="64" height="64" viewBox="0 0 64 64" fill="none" xmlns="http://www.w3.org/2000/svg">
<path d="M15.9999 14.13C15.9999 13.4 16.5899 12.8 17.3299 12.8C17.6799 12.8 18.0199 12.94 18.2699 13.19L19.7599 14.68C19.3999 15.59 19.2099 16.57 19.2099 17.6C19.2099 19.59 19.9299 21.4 21.1299 22.8C20.5999 23.72 20.7299 24.91 21.5099 25.7C22.4499 26.64 23.9699 26.64 24.8999 25.7L35.2999 15.3C36.2399 14.36 36.2399 12.84 35.2999 11.91C34.5199 11.12 33.3199 11 32.3999 11.53C30.9999 10.33 29.1899 9.61002 27.1999 9.61002C26.1699 9.61002 25.1799 9.81002 24.2799 10.16L22.7899 8.66002C21.3399 7.21002 19.3699 6.40002 17.3299 6.40002C13.0599 6.40002 9.5999 9.86002 9.5999 14.13V32C7.8299 32 6.3999 33.43 6.3999 35.2C6.3999 36.97 7.8299 38.4 9.5999 38.4V43.2C9.5999 46.04 10.8399 48.6 12.7999 50.36V54.4C12.7999 56.17 14.2299 57.6 15.9999 57.6C17.7699 57.6 19.1999 56.17 19.1999 54.4V52.8H44.7999V54.4C44.7999 56.17 46.2299 57.6 47.9999 57.6C49.7699 57.6 51.1999 56.17 51.1999 54.4V50.36C53.1599 48.6 54.3999 46.05 54.3999 43.2V38.4C56.1699 38.4 57.5999 36.97 57.5999 35.2C57.5999 33.43 56.1699 32 54.3999 32H15.9999V14.13Z" fill="#271332"/>
</svg>
