<?xml version="1.0" encoding="UTF-8"?>
<!--
Soliguide: Useful information for those who need it

SPDX-FileCopyrightText: © 2025 Solinum

SPDX-License-Identifier: AGPL-3.0-only

This program is free software: you can redistribute it and/or modify
it under the terms of the GNU Affero General Public License as published
by the Free Software Foundation, either version 3 of the License, or
(at your option) any later version.

This program is distributed in the hope that it will be useful,
but WITHOUT ANY WARRANTY; without even the implied warranty of
MERCHANTABILITY or FITNESS FOR A PARTICULAR PURPOSE.  See the
GNU Affero General Public License for more details.

You should have received a copy of the GNU Affero General Public License
along with this program.  If not, see <https://www.gnu.org/licenses/>.
-->
<svg width="64" height="64" viewBox="0 0 64 64" fill="none" xmlns="http://www.w3.org/2000/svg">
<path d="M18.6668 24C21.6123 24 24.0002 21.6122 24.0002 18.6667C24.0002 15.7212 21.6123 13.3334 18.6668 13.3334C15.7213 13.3334 13.3335 15.7212 13.3335 18.6667C13.3335 21.6122 15.7213 24 18.6668 24Z" fill="#404040"/>
<path d="M56.0002 34.6667H53.3335V12.88C53.3335 8.72004 49.9468 5.33337 45.7868 5.33337C43.7868 5.33337 41.8668 6.13337 40.4535 7.54671L37.1202 10.88C36.6935 10.7467 36.2402 10.6667 35.7602 10.6667C34.6935 10.6667 33.7068 10.9867 32.8802 11.52L40.2402 18.88C40.7735 18.0534 41.0935 17.0667 41.0935 16C41.0935 15.52 41.0135 15.0934 40.9068 14.64L44.2402 11.3067C44.6402 10.9067 45.2002 10.6667 45.7868 10.6667C47.0135 10.6667 48.0002 11.6534 48.0002 12.88V34.6667H29.7335C28.9335 34.1067 28.2135 33.4667 27.5468 32.7467L23.8135 28.6134C23.3068 28.0534 22.6668 27.6 21.9735 27.28C21.1468 26.88 20.2402 26.6667 19.3068 26.6667C16.0002 26.6934 13.3335 29.36 13.3335 32.6667V34.6667H8.00016C6.5335 34.6667 5.3335 35.8667 5.3335 37.3334V50.6667C5.3335 53.6 7.7335 56 10.6668 56C10.6668 57.4667 11.8668 58.6667 13.3335 58.6667H50.6668C52.1335 58.6667 53.3335 57.4667 53.3335 56C56.2668 56 58.6668 53.6 58.6668 50.6667V37.3334C58.6668 35.8667 57.4668 34.6667 56.0002 34.6667Z" fill="#404040"/>
</svg>
