<?xml version="1.0" encoding="UTF-8"?>
<!--
Soliguide: Useful information for those who need it

SPDX-FileCopyrightText: © 2025 Solinum

SPDX-License-Identifier: AGPL-3.0-only

This program is free software: you can redistribute it and/or modify
it under the terms of the GNU Affero General Public License as published
by the Free Software Foundation, either version 3 of the License, or
(at your option) any later version.

This program is distributed in the hope that it will be useful,
but WITHOUT ANY WARRANTY; without even the implied warranty of
MERCHANTABILITY or FITNESS FOR A PARTICULAR PURPOSE.  See the
GNU Affero General Public License for more details.

You should have received a copy of the GNU Affero General Public License
along with this program.  If not, see <https://www.gnu.org/licenses/>.
-->
<svg width="48" height="48" viewBox="0 0 48 48" fill="none" xmlns="http://www.w3.org/2000/svg">
<path d="M29 13C29 11.88 30.34 10.02 31.22 8.92C31.62 8.42 32.38 8.42 32.76 8.92C33.64 10.02 34.98 11.88 34.98 13C35 14.66 33.66 16 32 16C30.34 16 29 14.66 29 13ZM37 30C39.76 30 42 27.76 42 25C42 22.5 39.18 18.68 37.78 16.92C37.38 16.42 36.64 16.42 36.24 16.92C34.82 18.68 32 22.5 32 25C32 27.76 34.24 30 37 30ZM22 28H20V26C20 24.9 19.1 24 18 24C16.9 24 16 24.9 16 26V28H14C12.9 28 12 28.9 12 30C12 31.1 12.9 32 14 32H16V34C16 35.1 16.9 36 18 36C19.1 36 20 35.1 20 34V32H22C23.1 32 24 31.1 24 30C24 28.9 23.1 28 22 28ZM30 24V40C30 42.2 28.2 44 26 44H10C7.8 44 6 42.2 6 40V24C6 18.06 10.32 13.14 16 12.18V8H14C12.9 8 12 7.1 12 6C12 4.9 12.9 4 14 4H24C25.22 4 26.38 4.22 27.44 4.62C28.78 5.12 29.1 6.88 28.1 7.9C27.54 8.46 26.72 8.62 26 8.36C25.36 8.12 24.7 8 24 8H20V12.18C25.68 13.14 30 18.06 30 24Z" fill="#404040"/>
</svg>
