<?xml version="1.0" encoding="UTF-8"?>
<!--
Soliguide: Useful information for those who need it

SPDX-FileCopyrightText: © 2025 Solinum

SPDX-License-Identifier: AGPL-3.0-only

This program is free software: you can redistribute it and/or modify
it under the terms of the GNU Affero General Public License as published
by the Free Software Foundation, either version 3 of the License, or
(at your option) any later version.

This program is distributed in the hope that it will be useful,
but WITHOUT ANY WARRANTY; without even the implied warranty of
MERCHANTABILITY or FITNESS FOR A PARTICULAR PURPOSE.  See the
GNU Affero General Public License for more details.

You should have received a copy of the GNU Affero General Public License
along with this program.  If not, see <https://www.gnu.org/licenses/>.
-->
<svg version="1.1" width="667" height="667" xmlns="http://www.w3.org/2000/svg"><path d="M320.883 39.047 C 272.332 43.372,225.349 72.708,179.535 127.304 C 174.750 133.006,174.698 133.141,176.582 134.961 C 177.637 135.979,189.710 146.532,203.411 158.410 L 228.322 180.008 231.411 177.528 C 245.940 165.864,272.795 151.527,291.500 145.448 C 309.528 139.589,323.409 137.682,343.500 138.305 C 353.331 138.610,363.452 139.495,367.500 140.404 C 390.600 145.593,414.520 157.313,433.568 172.773 L 439.636 177.699 464.318 155.800 C 477.893 143.756,488.997 133.361,488.994 132.701 C 488.984 130.776,472.467 111.530,461.212 100.330 C 430.871 70.136,397.012 49.980,363.481 42.154 C 355.904 40.386,333.861 37.708,330.500 38.148 C 329.950 38.220,325.622 38.624,320.883 39.047 M345.000 67.000 L 345.000 78.000 356.000 78.000 L 367.000 78.000 367.000 88.000 L 367.000 98.000 356.000 98.000 L 345.000 98.000 345.000 109.000 L 345.000 120.000 335.000 120.000 L 325.000 120.000 325.000 109.000 L 325.000 98.000 314.000 98.000 L 303.000 98.000 303.000 88.000 L 303.000 78.000 314.000 78.000 L 325.000 78.000 325.000 67.000 L 325.000 56.000 335.000 56.000 L 345.000 56.000 345.000 67.000 M317.000 148.490 C 288.256 153.413,257.278 167.888,233.878 187.331 C 228.172 192.071,226.833 193.850,224.194 200.188 C 198.088 262.897,230.007 335.464,293.766 358.359 C 318.380 367.198,347.425 367.486,372.082 359.136 C 413.533 345.099,443.476 310.470,451.586 267.192 C 453.407 257.472,453.656 237.555,452.076 227.852 C 450.525 218.323,446.450 204.843,442.604 196.519 C 439.826 190.505,438.084 188.325,431.893 183.109 C 410.200 164.833,385.495 152.800,361.074 148.615 C 349.827 146.688,327.884 146.625,317.000 148.490 M272.864 389.491 C 256.744 392.205,240.134 399.132,226.256 408.930 C 222.272 411.743,212.094 420.896,203.638 429.272 C 195.183 437.647,153.851 476.675,111.789 516.000 L 35.314 587.500 80.390 587.760 L 125.465 588.021 151.490 562.010 C 165.803 547.705,177.848 536.000,178.257 536.000 C 178.666 536.000,179.000 547.700,179.000 562.000 L 179.000 588.000 328.985 588.000 L 478.969 588.000 479.235 559.390 L 479.500 530.781 509.500 559.333 L 539.500 587.886 585.477 587.943 L 631.455 588.000 628.977 585.625 C 626.973 583.702,457.404 430.985,441.084 416.404 C 425.823 402.768,405.789 393.240,384.615 389.548 C 372.895 387.504,284.931 387.459,272.864 389.491 M404.000 468.000 L 404.000 479.000 415.000 479.000 L 426.000 479.000 426.000 489.000 L 426.000 499.000 415.033 499.000 L 404.066 499.000 403.783 510.250 L 403.500 521.500 393.750 521.786 L 384.000 522.072 384.000 510.536 L 384.000 499.000 372.500 499.000 L 361.000 499.000 361.000 489.000 L 361.000 479.000 372.500 479.000 L 384.000 479.000 384.000 468.000 L 384.000 457.000 394.000 457.000 L 404.000 457.000 404.000 468.000 " stroke="none" fill="black" fill-rule="evenodd"/></svg>