<?xml version="1.0" encoding="UTF-8"?>
<!--
Soliguide: Useful information for those who need it

SPDX-FileCopyrightText: © 2025 Solinum

SPDX-License-Identifier: AGPL-3.0-only

This program is free software: you can redistribute it and/or modify
it under the terms of the GNU Affero General Public License as published
by the Free Software Foundation, either version 3 of the License, or
(at your option) any later version.

This program is distributed in the hope that it will be useful,
but WITHOUT ANY WARRANTY; without even the implied warranty of
MERCHANTABILITY or FITNESS FOR A PARTICULAR PURPOSE.  See the
GNU Affero General Public License for more details.

You should have received a copy of the GNU Affero General Public License
along with this program.  If not, see <https://www.gnu.org/licenses/>.
-->
<svg width="48" height="48" viewBox="0 0 48 48" fill="none" xmlns="http://www.w3.org/2000/svg">
<path d="M35.4898 24L43.4498 16.04C44.2298 15.26 44.2298 14 43.4498 13.22L34.7698 4.53996C33.9898 3.75996 32.7298 3.75996 31.9498 4.53996L23.9898 12.5L16.0298 4.53996C15.6298 4.15996 15.1298 3.95996 14.6098 3.95996C14.1098 3.95996 13.5898 4.15996 13.2098 4.53996L4.52982 13.22C3.74982 14 3.74982 15.26 4.52982 16.04L12.4898 24L4.52982 31.96C3.74982 32.74 3.74982 34 4.52982 34.78L13.2098 43.46C13.9898 44.24 15.2498 44.24 16.0298 43.46L23.9898 35.5L31.9498 43.46C32.3498 43.86 32.8498 44.04 33.3698 44.04C33.8898 44.04 34.3898 43.84 34.7898 43.46L43.4698 34.78C44.2498 34 44.2498 32.74 43.4698 31.96L35.4898 24ZM24.0298 17.96C25.1298 17.96 26.0298 18.86 26.0298 19.96C26.0298 21.06 25.1298 21.96 24.0298 21.96C22.9298 21.96 22.0298 21.06 22.0298 19.96C22.0298 18.86 22.9298 17.96 24.0298 17.96ZM14.6098 21.88L7.34982 14.64L14.6098 7.37996L21.8498 14.62L14.6098 21.88ZM20.0298 25.96C18.9298 25.96 18.0298 25.06 18.0298 23.96C18.0298 22.86 18.9298 21.96 20.0298 21.96C21.1298 21.96 22.0298 22.86 22.0298 23.96C22.0298 25.06 21.1298 25.96 20.0298 25.96ZM24.0298 29.96C22.9298 29.96 22.0298 29.06 22.0298 27.96C22.0298 26.86 22.9298 25.96 24.0298 25.96C25.1298 25.96 26.0298 26.86 26.0298 27.96C26.0298 29.06 25.1298 29.96 24.0298 29.96ZM28.0298 21.96C29.1298 21.96 30.0298 22.86 30.0298 23.96C30.0298 25.06 29.1298 25.96 28.0298 25.96C26.9298 25.96 26.0298 25.06 26.0298 23.96C26.0298 22.86 26.9298 21.96 28.0298 21.96ZM33.3498 40.64L26.0898 33.4L33.3498 26.14L40.5898 33.3799L33.3498 40.64Z" fill="#404040"/>
</svg>
