<svg width="48" height="48" viewBox="0 0 48 48" fill="none" xmlns="http://www.w3.org/2000/svg">
<path d="M37.1999 36H40.7999C43.4474 36 45.5999 33.8475 45.5999 31.2V16.8C45.5999 14.1525 43.4474 12 40.7999 12H37.1999V36ZM33.5999 12H14.3999V36H33.5999V12ZM7.1999 12C4.5524 12 2.3999 14.1525 2.3999 16.8V31.2C2.3999 33.8475 4.5524 36 7.1999 36H10.7999V12H7.1999ZM18.5999 20.4C18.5999 19.4025 19.4024 18.6 20.3999 18.6C21.3974 18.6 22.1999 19.4025 22.1999 20.4C22.1999 21.3975 21.3974 22.2 20.3999 22.2C19.4024 22.2 18.5999 21.3975 18.5999 20.4ZM27.5999 18.6C28.5974 18.6 29.3999 19.4025 29.3999 20.4C29.3999 21.3975 28.5974 22.2 27.5999 22.2C26.6024 22.2 25.7999 21.3975 25.7999 20.4C25.7999 19.4025 26.6024 18.6 27.5999 18.6ZM18.5999 27.6C18.5999 26.6025 19.4024 25.8 20.3999 25.8C21.3974 25.8 22.1999 26.6025 22.1999 27.6C22.1999 28.5975 21.3974 29.4 20.3999 29.4C19.4024 29.4 18.5999 28.5975 18.5999 27.6ZM27.5999 25.8C28.5974 25.8 29.3999 26.6025 29.3999 27.6C29.3999 28.5975 28.5974 29.4 27.5999 29.4C26.6024 29.4 25.7999 28.5975 25.7999 27.6C25.7999 26.6025 26.6024 25.8 27.5999 25.8Z" fill="#271332"/>
</svg>
