<svg width="48" height="48" viewBox="0 0 48 48" fill="none" xmlns="http://www.w3.org/2000/svg">
<path d="M23.9998 8.39999C32.6173 8.39999 39.5998 15.3825 39.5998 24C39.5998 32.6175 32.6173 39.6 23.9998 39.6C15.3823 39.6 8.3998 32.6175 8.3998 24C8.3998 15.3825 15.3823 8.39999 23.9998 8.39999ZM23.9998 43.2C34.6048 43.2 43.1998 34.605 43.1998 24C43.1998 13.395 34.6048 4.79999 23.9998 4.79999C13.3948 4.79999 4.7998 13.395 4.7998 24C4.7998 34.605 13.3948 43.2 23.9998 43.2ZM20.9998 30C20.0023 30 19.1998 30.8025 19.1998 31.8C19.1998 32.7975 20.0023 33.6 20.9998 33.6H26.9998C27.9973 33.6 28.7998 32.7975 28.7998 31.8C28.7998 30.8025 27.9973 30 26.9998 30H26.3998V23.4C26.3998 22.4025 25.5973 21.6 24.5998 21.6H20.9998C20.0023 21.6 19.1998 22.4025 19.1998 23.4C19.1998 24.3975 20.0023 25.2 20.9998 25.2H22.7998V30H20.9998ZM23.9998 19.2C25.3273 19.2 26.3998 18.1275 26.3998 16.8C26.3998 15.4725 25.3273 14.4 23.9998 14.4C22.6723 14.4 21.5998 15.4725 21.5998 16.8C21.5998 18.1275 22.6723 19.2 23.9998 19.2Z" fill="#271332"/>
</svg>
