<?xml version="1.0" encoding="UTF-8"?>
<!--
Soliguide: Useful information for those who need it

SPDX-FileCopyrightText: © 2025 Solinum

SPDX-License-Identifier: AGPL-3.0-only

This program is free software: you can redistribute it and/or modify
it under the terms of the GNU Affero General Public License as published
by the Free Software Foundation, either version 3 of the License, or
(at your option) any later version.

This program is distributed in the hope that it will be useful,
but WITHOUT ANY WARRANTY; without even the implied warranty of
MERCHANTABILITY or FITNESS FOR A PARTICULAR PURPOSE.  See the
GNU Affero General Public License for more details.

You should have received a copy of the GNU Affero General Public License
along with this program.  If not, see <https://www.gnu.org/licenses/>.
-->
<svg version="1.1" width="512" height="512" xmlns="http://www.w3.org/2000/svg"><path d="M231.500 1.051 C 153.451 9.057,84.567 50.906,41.353 116.571 C -0.206 179.720,-11.109 260.973,12.194 333.863 C 24.750 373.138,45.877 407.715,75.183 436.950 C 115.841 477.510,165.270 501.754,224.500 510.185 C 236.264 511.859,275.736 511.859,287.500 510.185 C 346.844 501.737,396.508 477.356,436.950 436.817 C 483.258 390.397,509.184 330.774,511.660 265.000 C 514.333 194.013,487.399 125.594,436.902 75.098 C 397.272 35.467,347.814 10.740,291.500 2.402 C 279.271 0.591,243.776 -0.208,231.500 1.051 M288.500 42.463 C 379.278 56.644,450.448 125.087,467.914 215.000 C 487.710 316.908,432.145 418.375,335.500 456.799 C 270.033 482.828,195.133 474.817,136.019 435.464 C 85.553 401.867,52.216 349.367,42.318 287.901 C 39.957 273.244,39.935 239.402,42.275 224.500 C 51.977 162.733,85.348 110.288,136.754 76.017 C 166.486 56.196,199.506 44.707,238.500 40.615 C 246.635 39.761,278.817 40.951,288.500 42.463 M246.679 137.543 C 240.903 139.662,235.729 144.256,232.449 150.176 C 229.910 154.761,229.504 156.541,229.523 163.000 C 229.551 171.977,231.575 176.510,238.339 182.745 C 251.352 194.740,271.622 190.759,280.315 174.500 C 281.945 171.451,282.459 168.717,282.477 163.000 C 282.497 156.531,282.092 154.764,279.533 150.144 C 277.902 147.199,275.002 143.499,273.090 141.922 C 266.322 136.344,255.044 134.474,246.679 137.543 M249.637 215.465 C 244.708 217.222,240.253 221.409,237.896 226.500 C 236.151 230.269,236.043 234.461,236.022 299.093 L 236.000 367.685 238.327 372.093 C 239.606 374.517,242.570 377.850,244.913 379.500 C 248.639 382.125,250.027 382.500,256.000 382.500 C 261.973 382.500,263.361 382.125,267.087 379.500 C 269.430 377.850,272.394 374.517,273.673 372.093 L 276.000 367.685 275.978 299.093 C 275.957 234.908,275.839 230.242,274.135 226.491 C 271.845 221.450,266.193 216.425,261.277 215.060 C 256.412 213.709,254.363 213.780,249.637 215.465 " stroke="none" fill="black" fill-rule="evenodd"/></svg>