<svg width="48" height="48" viewBox="0 0 48 48" fill="none" xmlns="http://www.w3.org/2000/svg">
<path d="M23.9998 43.2C34.6048 43.2 43.1998 34.605 43.1998 24C43.1998 13.395 34.6048 4.79999 23.9998 4.79999C13.3948 4.79999 4.7998 13.395 4.7998 24C4.7998 34.605 13.3948 43.2 23.9998 43.2ZM21.5998 16.8C21.5998 15.4725 22.6723 14.4 23.9998 14.4C25.3273 14.4 26.3998 15.4725 26.3998 16.8C26.3998 18.1275 25.3273 19.2 23.9998 19.2C22.6723 19.2 21.5998 18.1275 21.5998 16.8ZM20.9998 21.6H24.5998C25.5973 21.6 26.3998 22.4025 26.3998 23.4V30H26.9998C27.9973 30 28.7998 30.8025 28.7998 31.8C28.7998 32.7975 27.9973 33.6 26.9998 33.6H20.9998C20.0023 33.6 19.1998 32.7975 19.1998 31.8C19.1998 30.8025 20.0023 30 20.9998 30H22.7998V25.2H20.9998C20.0023 25.2 19.1998 24.3975 19.1998 23.4C19.1998 22.4025 20.0023 21.6 20.9998 21.6Z" fill="#271332"/>
</svg>
