<?xml version="1.0" encoding="UTF-8"?>
<!--
Soliguide: Useful information for those who need it

SPDX-FileCopyrightText: © 2025 Solinum

SPDX-License-Identifier: AGPL-3.0-only

This program is free software: you can redistribute it and/or modify
it under the terms of the GNU Affero General Public License as published
by the Free Software Foundation, either version 3 of the License, or
(at your option) any later version.

This program is distributed in the hope that it will be useful,
but WITHOUT ANY WARRANTY; without even the implied warranty of
MERCHANTABILITY or FITNESS FOR A PARTICULAR PURPOSE.  See the
GNU Affero General Public License for more details.

You should have received a copy of the GNU Affero General Public License
along with this program.  If not, see <https://www.gnu.org/licenses/>.
-->
<svg version="1.1" width="667" height="667" xmlns="http://www.w3.org/2000/svg"><path d="M273.645 114.561 C 256.611 118.751,242.935 130.878,236.230 147.740 C 233.562 154.449,233.539 154.721,233.203 183.750 L 232.865 213.000 175.682 213.024 C 140.051 213.040,116.804 213.438,114.000 214.081 C 99.218 217.470,84.542 229.196,77.803 243.000 C 72.992 252.855,71.826 259.701,72.195 275.908 L 72.500 289.316 201.627 337.648 L 330.754 385.979 435.127 346.933 C 492.532 325.457,552.991 302.844,569.479 296.681 L 599.458 285.476 599.271 271.980 C 599.128 261.667,598.609 256.952,597.069 251.992 C 592.755 238.099,582.799 225.896,570.380 219.281 C 558.616 213.015,558.436 213.000,495.290 213.000 L 438.000 213.000 438.000 186.636 C 438.000 172.137,437.551 157.849,437.001 154.886 C 435.428 146.402,429.566 135.566,422.994 128.994 C 416.517 122.517,411.155 119.072,402.420 115.775 C 396.565 113.564,395.861 113.538,338.000 113.331 C 289.928 113.159,278.456 113.378,273.645 114.561 M391.010 156.665 C 392.561 157.581,394.326 159.419,394.932 160.749 C 395.789 162.631,396.516 196.161,396.038 211.750 C 396.008 212.736,383.213 213.000,335.500 213.000 L 275.000 213.000 275.000 187.400 L 275.000 161.800 278.400 158.400 L 281.800 155.000 334.996 155.000 C 382.832 155.000,388.475 155.168,391.010 156.665 M564.000 347.391 C 546.125 354.130,492.575 374.186,445.000 391.961 C 397.425 409.737,358.192 424.555,357.816 424.890 C 357.440 425.226,356.990 436.075,356.816 449.000 C 356.455 475.841,355.919 477.957,348.078 483.500 C 344.116 486.302,343.132 486.523,333.213 486.847 C 321.357 487.234,316.613 486.228,312.001 482.348 C 305.452 476.837,305.000 474.661,305.000 448.647 C 305.000 427.262,304.847 425.153,303.250 424.517 C 302.288 424.134,250.650 404.771,188.500 381.488 C 126.350 358.205,74.713 338.847,73.750 338.471 C 72.089 337.821,72.000 344.126,72.000 462.393 L 72.000 587.000 335.750 587.000 L 599.500 587.000 599.500 461.000 C 599.500 349.635,599.326 335.008,598.000 335.070 C 597.175 335.108,581.875 340.653,564.000 347.391 " stroke="none" fill="black" fill-rule="evenodd"/></svg>