<?xml version="1.0" encoding="UTF-8"?>
<!--
Soliguide: Useful information for those who need it

SPDX-FileCopyrightText: © 2025 Solinum

SPDX-License-Identifier: AGPL-3.0-only

This program is free software: you can redistribute it and/or modify
it under the terms of the GNU Affero General Public License as published
by the Free Software Foundation, either version 3 of the License, or
(at your option) any later version.

This program is distributed in the hope that it will be useful,
but WITHOUT ANY WARRANTY; without even the implied warranty of
MERCHANTABILITY or FITNESS FOR A PARTICULAR PURPOSE.  See the
GNU Affero General Public License for more details.

You should have received a copy of the GNU Affero General Public License
along with this program.  If not, see <https://www.gnu.org/licenses/>.
-->
<svg version="1.1" width="667" height="667" xmlns="http://www.w3.org/2000/svg"><path d="M334.774 39.511 C 334.623 39.636,330.450 39.988,325.500 40.292 C 288.022 42.600,251.322 62.384,234.578 89.306 C 215.018 120.756,220.505 156.197,249.182 183.640 C 255.538 189.723,266.193 197.217,273.310 200.611 C 275.340 201.579,277.000 202.722,277.000 203.152 C 277.000 203.582,270.970 211.037,263.600 219.717 C 256.229 228.398,250.302 235.610,250.428 235.745 C 250.553 235.879,266.146 231.674,285.078 226.399 L 319.500 216.809 338.000 215.990 C 366.140 214.743,381.017 211.396,400.500 201.928 C 443.203 181.176,462.885 140.819,448.693 103.108 C 444.477 91.903,439.437 84.352,429.546 74.421 C 408.145 52.932,379.069 41.339,342.274 39.622 C 338.300 39.436,334.925 39.387,334.774 39.511 M355.970 72.279 C 360.549 74.596,363.000 79.606,363.000 86.648 L 363.000 93.000 375.250 93.022 C 385.116 93.040,388.314 93.414,391.684 94.943 C 396.529 97.143,399.009 101.140,398.980 106.700 L 398.960 110.500 368.677 121.798 L 338.393 133.096 309.447 122.277 L 280.500 111.457 280.204 106.422 C 279.971 102.445,280.374 100.794,282.122 98.572 C 285.713 94.007,289.571 93.000,303.468 93.000 L 316.000 93.000 316.000 86.077 C 316.000 80.034,316.340 78.750,318.668 75.982 C 320.136 74.238,322.274 72.432,323.418 71.969 C 326.818 70.593,353.134 70.844,355.970 72.279 M326.695 81.638 C 326.313 82.021,326.000 84.733,326.000 87.667 L 326.000 93.000 339.550 93.000 L 353.100 93.000 352.800 87.250 L 352.500 81.500 339.945 81.222 C 333.040 81.068,327.077 81.256,326.695 81.638 M399.000 149.500 L 399.000 178.000 339.500 178.000 L 280.000 178.000 280.000 150.000 C 280.000 134.600,280.329 122.000,280.731 122.000 C 281.134 122.000,293.059 126.331,307.231 131.625 L 333.000 141.249 333.000 146.925 C 333.000 153.442,334.093 155.000,338.665 155.000 C 342.715 155.000,344.000 152.887,344.000 146.225 L 344.000 141.318 350.750 138.653 C 361.914 134.246,397.445 121.064,398.250 121.031 C 398.663 121.014,399.000 133.825,399.000 149.500 M170.000 195.045 C 167.525 195.550,162.309 197.536,158.409 199.458 C 139.777 208.639,130.185 229.932,135.495 250.320 C 137.639 258.552,140.503 263.628,146.626 270.047 C 174.339 299.101,223.074 279.339,223.191 239.000 C 223.216 230.367,220.483 221.016,216.056 214.583 C 212.628 209.603,204.359 201.750,200.407 199.722 C 191.810 195.309,178.636 193.283,170.000 195.045 M481.335 195.444 C 460.936 200.306,446.826 218.121,446.826 239.017 C 446.826 262.180,462.402 279.990,485.580 283.329 C 499.862 285.387,514.003 280.177,524.154 269.118 C 533.009 259.470,536.622 248.985,535.707 235.589 C 534.716 221.080,525.109 206.178,512.649 199.821 C 502.679 194.735,491.103 193.117,481.335 195.444 M163.324 292.382 C 157.573 294.259,153.227 297.115,148.397 302.189 C 146.140 304.560,131.154 324.583,115.094 346.685 C 94.624 374.857,85.730 387.889,85.342 390.280 C 83.844 399.509,96.152 408.076,104.618 403.698 C 106.309 402.823,110.101 398.414,113.531 393.335 C 116.814 388.473,123.775 378.228,129.000 370.569 L 138.500 356.644 139.000 469.249 C 139.499 581.631,139.504 581.859,141.596 584.677 C 142.749 586.230,144.774 588.082,146.096 588.792 C 149.398 590.567,157.528 589.740,160.824 587.294 C 166.068 583.404,166.074 583.308,165.776 507.315 L 165.500 436.945 178.247 437.222 L 190.994 437.500 191.247 509.677 C 191.497 581.132,191.521 581.882,193.591 584.677 C 198.126 590.801,208.216 591.460,214.294 586.029 L 217.500 583.164 218.000 470.103 L 218.500 357.041 222.862 363.521 L 227.224 370.000 251.862 369.978 C 273.993 369.958,276.930 369.761,280.729 368.036 C 291.257 363.257,291.617 350.507,281.368 345.420 C 278.012 343.754,275.103 343.486,259.388 343.395 C 249.427 343.337,240.777 342.980,240.165 342.602 C 238.993 341.878,215.634 311.403,212.739 306.821 C 209.695 302.001,203.604 296.767,198.000 294.153 C 193.173 291.902,190.970 291.553,180.000 291.303 C 171.450 291.109,166.180 291.450,163.324 292.382 M477.718 292.034 C 469.113 294.191,463.154 298.521,457.123 307.000 C 449.009 318.408,431.107 341.816,429.949 342.532 C 429.334 342.912,420.656 343.285,410.665 343.361 C 394.941 343.481,391.980 343.758,388.632 345.420 C 378.383 350.507,378.743 363.257,389.271 368.036 C 393.070 369.761,396.007 369.958,418.133 369.978 L 442.765 370.000 447.133 363.296 L 451.500 356.592 452.000 469.777 L 452.500 582.962 455.593 586.055 C 461.224 591.685,471.735 590.984,476.233 584.678 L 478.500 581.500 478.793 509.250 L 479.086 437.000 491.543 437.000 L 504.000 437.000 504.056 507.750 C 504.098 559.869,504.427 579.397,505.306 581.906 C 508.527 591.099,523.248 592.656,528.672 584.378 C 530.407 581.730,530.525 575.899,531.000 469.185 L 531.500 356.782 546.926 379.457 C 562.543 402.410,564.944 405.000,570.612 405.000 C 574.505 405.000,581.715 400.451,583.600 396.806 C 585.964 392.235,584.819 387.902,579.216 380.219 C 576.521 376.524,563.181 358.200,549.573 339.500 C 535.964 320.800,522.955 303.567,520.665 301.206 C 518.374 298.844,514.025 295.723,511.000 294.272 C 506.148 291.944,504.086 291.601,493.500 291.360 C 486.900 291.209,479.798 291.513,477.718 292.034 " stroke="none" fill="black" fill-rule="evenodd"/></svg>