<svg width="48" height="48" viewBox="0 0 48 48" fill="none" xmlns="http://www.w3.org/2000/svg">
<path d="M24.5998 2.3999C26.9173 2.3999 28.7998 4.2824 28.7998 6.5999C28.7998 8.9174 26.9173 10.7999 24.5998 10.7999C22.2823 10.7999 20.3998 8.9174 20.3998 6.5999C20.3998 4.2824 22.2823 2.3999 24.5998 2.3999ZM17.9998 22.5524L14.5273 27.2324C13.7398 28.2974 12.2323 28.5224 11.1673 27.7274C10.1023 26.9324 9.87726 25.4324 10.6723 24.3674L15.9598 17.2424C17.8498 14.6999 20.8273 13.1999 23.9998 13.1999C27.1723 13.1999 30.1498 14.6999 32.0398 17.2424L37.3273 24.3674C38.1148 25.4324 37.8973 26.9324 36.8323 27.7274C35.7673 28.5224 34.2673 28.2974 33.4723 27.2324L29.9998 22.5524V43.1999C29.9998 44.5274 28.9273 45.5999 27.5998 45.5999C26.2723 45.5999 25.1998 44.5274 25.1998 43.1999V31.1999C25.1998 30.5399 24.6598 29.9999 23.9998 29.9999C23.3398 29.9999 22.7998 30.5399 22.7998 31.1999V43.1999C22.7998 44.5274 21.7273 45.5999 20.3998 45.5999C19.0723 45.5999 17.9998 44.5274 17.9998 43.1999V22.5524ZM36.5998 33.5999C36.2698 33.5999 35.9998 33.8699 35.9998 34.1999C35.9998 35.1974 35.1973 35.9999 34.1998 35.9999C33.2023 35.9999 32.3998 35.1974 32.3998 34.1999C32.3998 31.8824 34.2823 29.9999 36.5998 29.9999C38.9173 29.9999 40.7998 31.8824 40.7998 34.1999V43.7999C40.7998 44.7974 39.9973 45.5999 38.9998 45.5999C38.0023 45.5999 37.1998 44.7974 37.1998 43.7999V34.1999C37.1998 33.8699 36.9298 33.5999 36.5998 33.5999Z" fill="#271332"/>
</svg>
