<svg width="48" height="48" viewBox="0 0 48 48" fill="none" xmlns="http://www.w3.org/2000/svg">
<path d="M24.6002 10.7999C26.9177 10.7999 28.8002 8.9174 28.8002 6.5999C28.8002 4.2824 26.9177 2.3999 24.6002 2.3999C22.2827 2.3999 20.4002 4.2824 20.4002 6.5999C20.4002 8.9174 22.2827 10.7999 24.6002 10.7999ZM24.0002 16.7999C24.8402 16.7999 25.6577 16.9874 26.4002 17.3324V28.7999H21.6002V17.3324C22.3427 16.9874 23.1602 16.7999 24.0002 16.7999ZM26.4002 32.3999V43.7999C26.4002 44.7974 27.2027 45.5999 28.2002 45.5999C29.1977 45.5999 30.0002 44.7974 30.0002 43.7999V21.1199L34.5377 27.4499C35.1152 28.2599 36.2402 28.4399 37.0502 27.8624C37.8602 27.2849 38.0402 26.1599 37.4627 25.3499L31.5227 17.0624C29.7827 14.6399 26.9852 13.1999 24.0002 13.1999C21.0152 13.1999 18.2102 14.6399 16.4777 17.0624L10.5377 25.3499C9.96017 26.1599 10.1477 27.2849 10.9502 27.8624C11.7527 28.4399 12.8852 28.2524 13.4627 27.4499L18.0002 21.1199V43.7999C18.0002 44.7974 18.8027 45.5999 19.8002 45.5999C20.7977 45.5999 21.6002 44.7974 21.6002 43.7999V32.3999H26.4002ZM36.6002 33.5999C36.9302 33.5999 37.2002 33.8699 37.2002 34.1999V43.7999C37.2002 44.7974 38.0027 45.5999 39.0002 45.5999C39.9977 45.5999 40.8002 44.7974 40.8002 43.7999V34.1999C40.8002 31.8824 38.9177 29.9999 36.6002 29.9999C34.2827 29.9999 32.4002 31.8824 32.4002 34.1999C32.4002 35.1974 33.2027 35.9999 34.2002 35.9999C35.1977 35.9999 36.0002 35.1974 36.0002 34.1999C36.0002 33.8699 36.2702 33.5999 36.6002 33.5999Z" fill="#271332"/>
</svg>
