<?xml version="1.0" encoding="UTF-8"?>
<!--
Soliguide: Useful information for those who need it

SPDX-FileCopyrightText: © 2025 Solinum

SPDX-License-Identifier: AGPL-3.0-only

This program is free software: you can redistribute it and/or modify
it under the terms of the GNU Affero General Public License as published
by the Free Software Foundation, either version 3 of the License, or
(at your option) any later version.

This program is distributed in the hope that it will be useful,
but WITHOUT ANY WARRANTY; without even the implied warranty of
MERCHANTABILITY or FITNESS FOR A PARTICULAR PURPOSE.  See the
GNU Affero General Public License for more details.

You should have received a copy of the GNU Affero General Public License
along with this program.  If not, see <https://www.gnu.org/licenses/>.
-->
<svg version="1.1" width="667" height="667" xmlns="http://www.w3.org/2000/svg"><path d="M136.205 77.889 C 130.052 80.020,124.826 83.960,120.259 89.910 C 113.505 98.708,113.952 80.400,114.240 336.542 L 114.500 568.500 116.661 573.176 C 119.710 579.774,125.939 586.135,132.706 589.564 L 138.500 592.500 333.500 592.500 L 528.500 592.500 534.203 589.700 C 541.343 586.193,548.231 578.671,550.946 571.414 C 552.996 565.935,553.000 565.495,553.000 334.500 C 553.000 103.505,552.996 103.065,550.946 97.586 C 548.231 90.329,541.343 82.807,534.203 79.300 L 528.500 76.500 335.000 76.277 C 149.600 76.064,141.278 76.132,136.205 77.889 M204.000 109.607 L 204.000 120.000 181.416 120.000 L 158.832 120.000 159.166 109.750 L 159.500 99.500 180.500 99.000 C 192.050 98.725,202.063 98.661,202.750 98.857 C 203.647 99.113,204.000 102.150,204.000 109.607 M244.915 99.456 C 248.588 101.356,251.401 107.246,250.584 111.330 C 249.761 115.446,245.418 119.831,241.422 120.581 C 237.197 121.373,231.369 118.614,229.456 114.915 C 224.230 104.810,234.810 94.230,244.915 99.456 M286.692 101.238 C 289.944 104.490,290.772 110.607,288.543 114.916 C 285.350 121.091,275.767 122.656,271.285 117.735 C 265.317 111.181,265.936 104.644,273.000 99.636 C 276.499 97.155,283.419 97.965,286.692 101.238 M539.000 156.500 L 539.000 168.000 333.500 168.000 L 128.000 168.000 128.000 156.500 L 128.000 145.000 333.500 145.000 L 539.000 145.000 539.000 156.500 M358.108 252.519 C 407.403 261.072,449.181 297.697,464.325 345.636 C 469.021 360.502,470.427 370.209,470.387 387.500 C 470.344 405.869,468.752 415.759,463.316 431.417 C 447.249 477.696,410.027 510.299,360.881 521.142 C 346.355 524.346,322.163 524.354,307.250 521.158 C 265.115 512.130,230.886 485.735,211.730 447.500 C 206.219 436.499,202.636 425.922,199.910 412.604 C 197.018 398.475,197.029 375.553,199.934 361.312 C 210.766 308.220,249.448 267.510,301.432 254.494 C 319.567 249.953,339.347 249.264,358.108 252.519 M323.838 281.108 C 309.349 282.300,294.667 286.731,282.000 293.733 C 219.117 328.493,206.845 413.627,257.423 464.218 C 279.433 486.233,308.791 497.408,340.000 495.652 C 376.934 493.574,411.170 471.662,428.327 439.121 C 436.829 422.997,439.951 411.237,440.706 392.500 C 442.009 360.124,430.193 331.180,406.849 309.567 C 387.048 291.234,365.856 282.577,336.000 280.624 C 334.075 280.498,328.602 280.716,323.838 281.108 M350.792 303.581 C 377.766 309.113,400.140 326.887,411.937 352.156 C 414.080 356.745,416.558 363.200,417.445 366.500 C 419.346 373.578,420.572 391.701,419.591 398.240 C 419.004 402.157,418.466 402.990,415.963 403.863 C 414.346 404.427,411.076 406.228,408.696 407.865 C 399.100 414.467,383.911 413.610,368.559 405.600 C 363.119 402.761,361.809 402.500,353.020 402.500 C 344.131 402.500,342.962 402.740,337.211 405.750 C 317.226 416.208,319.238 415.476,310.563 415.440 C 300.146 415.397,293.406 412.780,285.029 405.525 C 277.335 398.862,271.115 396.530,262.998 397.266 C 259.849 397.552,255.209 398.699,252.686 399.815 L 248.099 401.844 247.410 397.251 C 246.279 389.707,247.785 373.970,250.556 364.372 C 259.357 333.894,284.662 310.236,315.500 303.657 C 324.862 301.659,341.251 301.624,350.792 303.581 " stroke="none" fill="black" fill-rule="evenodd"/></svg>