<svg width="48" height="48" viewBox="0 0 48 48" fill="none" xmlns="http://www.w3.org/2000/svg">
<path d="M36.0002 8.40005C36.6602 8.40005 37.2002 8.94005 37.2002 9.60005V38.4001C37.2002 39.0601 36.6602 39.6001 36.0002 39.6001H12.0002C11.3402 39.6001 10.8002 39.0601 10.8002 38.4001V9.60005C10.8002 8.94005 11.3402 8.40005 12.0002 8.40005H36.0002ZM12.0002 4.80005C9.3527 4.80005 7.2002 6.95255 7.2002 9.60005V38.4001C7.2002 41.0476 9.3527 43.2001 12.0002 43.2001H36.0002C38.6477 43.2001 40.8002 41.0476 40.8002 38.4001V9.60005C40.8002 6.95255 38.6477 4.80005 36.0002 4.80005H12.0002ZM16.8002 12.6C16.8002 11.6025 15.9977 10.8 15.0002 10.8C14.0027 10.8 13.2002 11.6025 13.2002 12.6C13.2002 13.5975 14.0027 14.4 15.0002 14.4C15.9977 14.4 16.8002 13.5975 16.8002 12.6ZM21.0002 14.4C21.9977 14.4 22.8002 13.5975 22.8002 12.6C22.8002 11.6025 21.9977 10.8 21.0002 10.8C20.0027 10.8 19.2002 11.6025 19.2002 12.6C19.2002 13.5975 20.0027 14.4 21.0002 14.4ZM30.7952 28.7775C30.5327 28.7926 30.2702 28.8 30.0002 28.8C25.2002 28.8 22.8002 24 18.0002 24C17.7377 24 17.4677 24.015 17.1977 24.03C18.1802 21.2175 20.8502 19.2 24.0002 19.2C27.9752 19.2 31.2002 22.425 31.2002 26.4C31.2002 27.2325 31.0577 28.0351 30.7952 28.7775ZM34.8002 26.4C34.8002 20.4375 29.9627 15.6 24.0002 15.6C18.0377 15.6 13.2002 20.4375 13.2002 26.4C13.2002 32.3626 18.0377 37.2001 24.0002 37.2001C29.9627 37.2001 34.8002 32.3626 34.8002 26.4Z" fill="#271332"/>
</svg>
