<?xml version="1.0" encoding="UTF-8"?>
<!--
Soliguide: Useful information for those who need it

SPDX-FileCopyrightText: © 2025 Solinum

SPDX-License-Identifier: AGPL-3.0-only

This program is free software: you can redistribute it and/or modify
it under the terms of the GNU Affero General Public License as published
by the Free Software Foundation, either version 3 of the License, or
(at your option) any later version.

This program is distributed in the hope that it will be useful,
but WITHOUT ANY WARRANTY; without even the implied warranty of
MERCHANTABILITY or FITNESS FOR A PARTICULAR PURPOSE.  See the
GNU Affero General Public License for more details.

You should have received a copy of the GNU Affero General Public License
along with this program.  If not, see <https://www.gnu.org/licenses/>.
-->
<svg width="48" height="48" viewBox="0 0 48 48" fill="none" xmlns="http://www.w3.org/2000/svg">
<path d="M19.28 32.72C21.88 35.32 26.12 35.32 28.72 32.72C31.32 30.12 31.32 25.88 28.72 23.28L19.28 32.72ZM36 4.02L12 4C9.78 4 8 5.78 8 8V40C8 42.22 9.78 44 12 44H36C38.22 44 40 42.22 40 40V8C40 5.78 38.22 4.02 36 4.02ZM22 10C23.1 10 24 10.9 24 12C24 13.1 23.1 14 22 14C20.9 14 20 13.1 20 12C20 10.9 20.9 10 22 10ZM16 10C17.1 10 18 10.9 18 12C18 13.1 17.1 14 16 14C14.9 14 14 13.1 14 12C14 10.9 14.9 10 16 10ZM24 38C18.48 38 14 33.52 14 28C14 22.48 18.48 18 24 18C29.52 18 34 22.48 34 28C34 33.52 29.52 38 24 38Z" fill="#404040"/>
</svg>
