<svg width="48" height="48" viewBox="0 0 48 48" fill="none" xmlns="http://www.w3.org/2000/svg">
<path d="M19.23 15.3075L17.1225 13.2L24.03 6.29251L26.1375 8.40001L19.23 15.3075ZM14.1525 15.3225L17.1075 18.2775C17.9475 19.1175 19.1625 19.3575 20.22 18.99L23.355 22.125L5.95502 39.525C5.25002 40.23 5.25002 41.37 5.95502 42.0675C6.66002 42.765 7.80002 42.7725 8.49752 42.0675L25.8975 24.6675L29.0325 27.8025C28.665 28.8525 28.905 30.075 29.745 30.915L32.7 33.87C33.87 35.04 35.7675 35.04 36.945 33.87L44.7075 26.1225C45.8775 24.9525 45.8775 23.055 44.7075 21.8775L41.7525 18.9225C40.9125 18.0825 39.6975 17.8425 38.64 18.21L29.82 9.39001C30.1875 8.34001 29.9475 7.11751 29.1075 6.27751L26.1525 3.32251C24.9825 2.15251 23.085 2.15251 21.9075 3.32251L14.1525 11.0775C12.9825 12.2475 12.9825 14.145 14.1525 15.3225ZM35.8875 20.55L31.38 25.0575L22.98 16.6575L27.4875 12.15L35.8875 20.55ZM41.745 24L34.8375 30.9075L32.73 28.8L39.6375 21.8925L41.745 24Z" fill="#271332"/>
</svg>
