<?xml version="1.0" encoding="UTF-8"?>
<!--
Soliguide: Useful information for those who need it

SPDX-FileCopyrightText: © 2025 Solinum

SPDX-License-Identifier: AGPL-3.0-only

This program is free software: you can redistribute it and/or modify
it under the terms of the GNU Affero General Public License as published
by the Free Software Foundation, either version 3 of the License, or
(at your option) any later version.

This program is distributed in the hope that it will be useful,
but WITHOUT ANY WARRANTY; without even the implied warranty of
MERCHANTABILITY or FITNESS FOR A PARTICULAR PURPOSE.  See the
GNU Affero General Public License for more details.

You should have received a copy of the GNU Affero General Public License
along with this program.  If not, see <https://www.gnu.org/licenses/>.
-->
<svg version="1.1" width="667" height="667" xmlns="http://www.w3.org/2000/svg"><path d="M327.000 45.251 C 322.426 46.435,318.234 50.498,316.999 54.943 C 316.456 56.899,316.009 66.713,316.006 76.750 C 316.003 86.787,315.877 95.000,315.727 95.000 C 315.577 95.000,310.964 93.829,305.477 92.397 C 297.032 90.194,292.890 89.744,278.500 89.464 C 249.629 88.904,230.614 93.743,199.015 109.694 C 171.364 123.651,156.201 127.915,132.000 128.541 C 107.419 129.177,81.593 123.688,60.640 113.376 C 51.972 109.110,47.848 108.998,43.923 112.923 C 41.580 115.266,41.000 116.718,41.000 120.235 C 41.000 126.036,43.227 128.310,53.598 133.102 C 76.567 143.713,104.265 149.681,129.888 149.539 C 139.653 149.485,141.405 150.055,139.136 152.550 C 138.661 153.072,134.552 160.700,130.005 169.500 C 125.457 178.300,120.498 187.750,118.983 190.500 C 117.468 193.250,106.449 214.175,94.496 237.000 C 82.543 259.825,71.080 281.650,69.022 285.500 C 66.964 289.350,62.459 297.900,59.010 304.500 C 55.561 311.100,51.387 318.911,49.734 321.858 C 46.839 327.022,46.753 327.531,47.383 335.874 C 50.410 375.979,76.421 412.235,111.991 425.932 C 136.219 435.261,163.953 434.032,187.482 422.586 C 219.857 406.836,242.561 372.432,244.621 336.000 L 245.158 326.500 234.079 304.170 C 227.986 291.889,223.000 281.709,223.000 281.549 C 223.000 281.389,213.963 262.862,202.919 240.379 C 172.216 177.880,157.764 147.903,158.150 147.518 C 158.342 147.326,162.100 146.248,166.500 145.122 C 181.492 141.286,192.468 136.867,209.000 128.012 C 231.610 115.902,248.279 111.144,271.000 110.315 C 287.511 109.712,296.152 110.811,309.750 115.244 L 316.000 117.281 316.000 319.105 L 316.000 520.928 267.250 521.214 L 218.500 521.500 212.776 524.311 C 203.257 528.985,197.000 538.452,197.000 548.178 L 197.000 552.000 173.368 552.000 C 151.549 552.000,149.490 552.152,146.528 553.983 C 141.726 556.950,139.683 562.380,140.164 570.891 C 140.617 578.921,142.553 582.435,148.071 585.248 C 151.298 586.894,162.221 586.997,333.849 586.998 C 500.022 587.000,516.501 586.856,519.619 585.377 C 524.858 582.891,527.366 578.616,527.826 571.391 C 528.327 563.530,526.791 558.901,522.404 555.050 L 518.930 552.000 494.965 552.000 L 471.000 552.000 471.000 547.660 C 471.000 542.216,466.133 532.136,461.692 528.382 C 459.936 526.898,456.475 524.742,454.000 523.592 C 449.679 521.583,447.556 521.480,400.500 521.000 L 351.500 520.500 351.227 321.000 C 351.076 211.275,351.193 120.506,351.485 119.291 C 351.905 117.549,353.662 116.562,359.782 114.629 C 371.582 110.901,382.443 109.658,397.886 110.267 C 419.652 111.126,436.275 116.141,461.242 129.380 C 475.447 136.912,487.730 141.775,500.669 144.987 C 508.315 146.885,509.718 147.532,509.118 148.882 C 507.154 153.295,493.903 180.511,464.512 240.500 C 457.506 254.800,448.954 272.350,445.507 279.500 C 442.060 286.650,435.325 300.375,430.540 310.000 L 421.840 327.500 422.444 335.539 C 425.743 379.466,454.588 416.160,495.626 428.634 C 503.600 431.058,506.123 431.340,520.500 431.416 C 534.268 431.488,537.676 431.179,544.933 429.196 C 577.084 420.411,602.833 395.892,613.928 363.500 C 617.521 353.010,619.565 342.796,619.895 333.686 C 620.161 326.374,620.333 326.783,603.515 295.000 C 598.422 285.375,587.392 264.450,579.004 248.500 C 562.605 217.318,548.974 191.411,536.391 167.513 C 532.051 159.271,528.196 151.783,527.824 150.875 C 527.218 149.397,528.164 149.250,536.824 149.480 C 561.508 150.133,593.907 143.101,615.288 132.451 C 625.020 127.603,626.500 126.011,626.500 120.390 C 626.500 116.510,626.017 115.404,623.234 112.918 C 618.891 109.037,616.022 109.195,605.890 113.874 C 595.070 118.871,581.081 123.328,567.390 126.139 C 558.652 127.933,553.141 128.378,539.500 128.391 C 512.292 128.415,498.609 124.856,469.372 110.148 C 440.402 95.575,422.723 90.383,398.500 89.335 C 383.444 88.684,372.139 89.746,359.885 92.964 C 355.882 94.015,352.301 94.686,351.929 94.456 C 351.556 94.226,351.228 86.041,351.200 76.269 C 351.172 66.496,351.116 57.278,351.075 55.785 C 350.975 52.166,345.705 46.314,341.766 45.449 C 336.764 44.350,330.791 44.270,327.000 45.251 M179.199 220.542 C 185.634 233.719,198.162 259.350,207.039 277.500 C 224.483 313.163,229.000 322.617,229.000 323.458 C 229.000 323.756,191.875 324.000,146.500 324.000 C 88.965 324.000,64.000 323.679,64.000 322.938 C 64.000 322.354,65.975 318.192,68.389 313.688 C 70.802 309.185,77.615 296.275,83.528 285.000 C 94.667 263.758,112.996 228.913,136.070 185.111 L 149.444 159.723 158.472 178.154 C 163.437 188.291,172.765 207.366,179.199 220.542 M533.028 188.250 C 540.901 203.238,548.327 217.300,549.530 219.500 C 550.733 221.700,557.019 233.625,563.499 246.000 C 569.980 258.375,581.743 280.733,589.641 295.685 C 597.538 310.637,604.000 323.125,604.000 323.435 C 604.000 323.746,566.650 324.000,521.000 324.000 C 475.350 324.000,438.000 323.860,438.000 323.689 C 438.000 323.517,441.651 315.980,446.113 306.939 C 450.576 297.897,456.601 285.550,459.502 279.500 C 462.404 273.450,471.828 254.100,480.445 236.500 C 489.062 218.900,500.890 194.713,506.729 182.750 C 512.569 170.787,517.654 161.000,518.029 161.000 C 518.405 161.000,525.154 173.262,533.028 188.250 " stroke="none" fill="black" fill-rule="evenodd"/></svg>