<svg width="48" height="48" viewBox="0 0 48 48" fill="none" xmlns="http://www.w3.org/2000/svg">
<path d="M39.0001 8.39999H29.4976C28.5751 6.27749 26.4601 4.79999 24.0001 4.79999C21.5401 4.79999 19.4251 6.27749 18.5026 8.39999H9.00007C8.00257 8.39999 7.20007 9.20249 7.20007 10.2C7.20007 11.1975 8.00257 12 9.00007 12H18.1201C18.5551 14.145 20.1376 15.8775 22.2001 16.5225V39.6H9.00007C8.00257 39.6 7.20007 40.4025 7.20007 41.4C7.20007 42.3975 8.00257 43.2 9.00007 43.2H39.0001C39.9976 43.2 40.8001 42.3975 40.8001 41.4C40.8001 40.4025 39.9976 39.6 39.0001 39.6H25.8001V16.5225C27.8626 15.8775 29.4451 14.145 29.8801 12H39.0001C39.9976 12 40.8001 11.1975 40.8001 10.2C40.8001 9.20249 39.9976 8.39999 39.0001 8.39999ZM38.4001 19.485L43.8301 28.8H32.9701L38.4001 19.485ZM28.9501 30.0825C29.7601 33.45 33.6826 36 38.4001 36C43.1176 36 47.0401 33.45 47.8501 30.0825C48.0451 29.2575 47.7751 28.41 47.3476 27.675L40.2076 15.435C39.8326 14.79 39.1426 14.4 38.4001 14.4C37.6576 14.4 36.9676 14.7975 36.5926 15.435L29.4526 27.6825C29.0251 28.4175 28.7551 29.265 28.9501 30.09V30.0825ZM4.08007 28.8L9.51007 19.485L14.9401 28.8H4.07257H4.08007ZM9.51007 36C14.2276 36 18.1501 33.45 18.9601 30.0825C19.1551 29.2575 18.8851 28.41 18.4576 27.675L11.3176 15.435C10.9426 14.79 10.2526 14.4 9.51007 14.4C8.76757 14.4 8.07757 14.7975 7.70257 15.435L0.570065 27.6825C0.142565 28.41 -0.134935 29.2575 0.0675654 30.0825C0.877566 33.45 4.80007 36 9.51007 36ZM24.0001 8.39999C25.3276 8.39999 26.4001 9.47249 26.4001 10.8C26.4001 12.1275 25.3276 13.2 24.0001 13.2C22.6726 13.2 21.6001 12.1275 21.6001 10.8C21.6001 9.47249 22.6726 8.39999 24.0001 8.39999Z" fill="#271332"/>
</svg>
