<?xml version="1.0" encoding="UTF-8"?>
<!--
Soliguide: Useful information for those who need it

SPDX-FileCopyrightText: © 2025 Solinum

SPDX-License-Identifier: AGPL-3.0-only

This program is free software: you can redistribute it and/or modify
it under the terms of the GNU Affero General Public License as published
by the Free Software Foundation, either version 3 of the License, or
(at your option) any later version.

This program is distributed in the hope that it will be useful,
but WITHOUT ANY WARRANTY; without even the implied warranty of
MERCHANTABILITY or FITNESS FOR A PARTICULAR PURPOSE.  See the
GNU Affero General Public License for more details.

You should have received a copy of the GNU Affero General Public License
along with this program.  If not, see <https://www.gnu.org/licenses/>.
-->
<svg version="1.1" width="667" height="667" xmlns="http://www.w3.org/2000/svg"><path d="M291.000 149.775 C 162.381 243.449,104.700 285.436,74.500 307.367 C 36.884 334.684,30.052 340.843,24.550 352.402 C 17.161 367.925,13.869 384.138,14.073 404.000 C 14.229 419.195,14.985 425.138,18.587 439.500 C 21.868 452.583,24.807 458.810,30.646 465.052 C 36.947 471.789,40.247 473.589,61.000 481.608 C 70.625 485.328,78.629 488.454,78.787 488.556 C 78.945 488.658,74.606 498.924,69.144 511.371 C 63.682 523.817,59.459 534.000,59.760 534.000 C 60.061 534.000,73.035 527.473,88.592 519.496 C 104.149 511.519,117.061 505.332,117.286 505.746 C 117.510 506.161,121.025 519.660,125.097 535.745 C 129.169 551.830,132.761 564.993,133.080 564.995 C 133.399 564.998,138.054 554.538,143.426 541.750 C 148.797 528.962,153.313 518.373,153.462 518.218 C 153.610 518.062,161.104 520.825,170.116 524.358 C 179.127 527.890,213.500 541.361,246.500 554.293 C 279.500 567.225,312.350 580.135,319.500 582.983 C 334.589 588.992,338.446 589.185,345.406 584.279 C 347.700 582.663,395.208 545.601,450.980 501.920 C 506.752 458.239,573.086 406.300,598.390 386.500 C 624.509 366.063,645.148 349.203,646.133 347.500 C 648.498 343.413,649.068 337.067,647.422 333.152 C 644.671 326.610,632.494 324.107,624.225 328.384 L 621.342 329.875 617.184 323.550 C 606.843 307.822,603.652 291.219,607.618 273.783 C 609.084 267.334,609.824 266.044,615.541 259.956 C 623.072 251.938,624.967 247.170,623.100 240.938 C 621.749 236.429,616.488 230.074,611.653 227.111 C 607.227 224.399,335.398 120.999,332.704 121.003 C 331.402 121.005,314.335 132.780,291.000 149.775 M602.944 274.066 C 601.265 279.704,601.545 296.728,603.434 303.872 C 605.518 311.758,609.824 320.994,614.448 327.498 C 616.380 330.216,617.632 332.726,617.231 333.076 C 616.829 333.427,599.850 346.462,579.500 362.044 C 559.150 377.626,529.225 400.560,513.000 413.009 C 475.511 441.772,366.568 525.308,349.648 538.263 C 335.184 549.339,337.017 549.234,330.999 539.335 C 323.058 526.273,320.099 507.231,323.820 493.139 C 325.373 487.260,325.775 486.685,329.130 485.548 C 333.217 484.163,329.395 487.109,429.000 408.585 C 505.400 348.355,569.528 297.521,590.972 280.190 C 597.831 274.646,603.561 270.228,603.705 270.371 C 603.848 270.515,603.506 272.178,602.944 274.066 M188.500 432.843 C 257.250 460.374,315.189 483.709,317.254 484.700 C 320.495 486.254,320.920 486.841,320.372 489.000 C 317.326 500.991,317.199 513.649,320.023 523.841 C 321.986 530.925,326.685 541.106,331.057 547.750 C 332.234 549.538,332.710 551.000,332.115 551.000 C 331.520 551.000,309.538 542.290,283.266 531.645 C 256.995 521.000,220.650 506.308,202.500 498.996 C 184.350 491.683,169.096 485.341,168.602 484.902 C 168.090 484.447,170.534 477.305,174.279 468.312 C 177.896 459.627,180.775 452.457,180.677 452.378 C 179.999 451.827,109.777 421.001,109.213 421.007 C 108.821 421.010,105.655 427.648,102.178 435.757 C 98.701 443.865,95.326 451.478,94.678 452.674 C 93.508 454.833,93.372 454.796,74.582 447.178 L 55.664 439.508 53.244 434.222 C 48.959 424.862,47.455 414.249,48.763 402.605 C 49.387 397.047,50.835 389.475,51.981 385.777 L 54.064 379.054 58.782 380.921 C 61.377 381.948,119.750 405.313,188.500 432.843 " stroke="none" fill="black" fill-rule="evenodd"/></svg>