<?xml version="1.0" encoding="UTF-8"?>
<!--
Soliguide: Useful information for those who need it

SPDX-FileCopyrightText: © 2025 Solinum

SPDX-License-Identifier: AGPL-3.0-only

This program is free software: you can redistribute it and/or modify
it under the terms of the GNU Affero General Public License as published
by the Free Software Foundation, either version 3 of the License, or
(at your option) any later version.

This program is distributed in the hope that it will be useful,
but WITHOUT ANY WARRANTY; without even the implied warranty of
MERCHANTABILITY or FITNESS FOR A PARTICULAR PURPOSE.  See the
GNU Affero General Public License for more details.

You should have received a copy of the GNU Affero General Public License
along with this program.  If not, see <https://www.gnu.org/licenses/>.
-->
<svg width="48" height="48" viewBox="0 0 48 48" fill="none" xmlns="http://www.w3.org/2000/svg">
<path d="M44.94 13.9C44 13.42 43.02 13.02 42 12.68V36.74C39.72 35.92 37.38 35.5 35 35.5C31.2 35.5 27.44 36.58 24 38.66V14.46C20.76 12.6 17.02 11.5 13 11.5C9.42 11.5 6.04 12.38 3.06 13.9C2.4 14.22 2 14.92 2 15.66V39.82C2 40.98 2.94 41.8 4 41.8C4.32 41.8 4.64 41.72 4.96 41.56C7.38 40.3 10.1 39.5 13 39.5C17.14 39.5 20.96 41.14 24 43.5C27.04 41.14 30.86 39.5 35 39.5C37.9 39.5 40.62 40.3 43.04 41.58C43.36 41.74 43.68 41.82 44 41.82C45.04 41.82 46 41 46 39.84V15.66C46 14.92 45.6 14.22 44.94 13.9ZM20 36.74C17.72 35.92 15.38 35.5 13 35.5C10.62 35.5 8.28 35.92 6 36.74V16.92C8.22 15.98 10.56 15.5 13 15.5C15.4 15.5 17.78 16 20 16.94V36.74ZM38 4.5L28 14.5V33.5L38 24.5V4.5Z" fill="#404040"/>
</svg>
