<svg width="48" height="48" viewBox="0 0 48 48" fill="none" xmlns="http://www.w3.org/2000/svg">
<path d="M9.62227 8.4H13.2223C13.8823 8.4 14.4223 8.94 14.4223 9.6V12H8.42227V9.6C8.42227 8.94 8.96227 8.4 9.62227 8.4ZM8.42227 15.6H14.4223V32.4H8.42227V15.6ZM18.0223 9.75V9.6C18.0223 6.9525 15.8698 4.8 13.2223 4.8H9.62227C6.97477 4.8 4.82227 6.9525 4.82227 9.6V38.4C4.82227 41.0475 6.97477 43.2 9.62227 43.2H13.2223C14.3548 43.2 15.3973 42.8025 16.2223 42.15C17.0473 42.81 18.0898 43.2 19.2223 43.2H22.8223C25.4698 43.2 27.6223 41.0475 27.6223 38.4V26.07L31.2673 39.66C31.9498 42.2175 34.5823 43.74 37.1473 43.0575L40.6273 42.1275C43.1848 41.445 44.7073 38.8125 44.0248 36.2475L36.5548 8.4225C35.8723 5.865 33.2398 4.3425 30.6748 5.0325L27.2023 5.9625C25.3723 6.45 24.0673 7.9425 23.7298 9.69C23.4373 9.63 23.1298 9.6075 22.8223 9.6075H19.2223C18.8098 9.6075 18.4048 9.66 18.0223 9.7575V9.75ZM18.0223 14.4C18.0223 13.74 18.5623 13.2 19.2223 13.2H22.8223C23.4823 13.2 24.0223 13.74 24.0223 14.4V38.4C24.0223 39.06 23.4823 39.6 22.8223 39.6H19.2223C18.5623 39.6 18.0223 39.06 18.0223 38.4V14.4ZM14.4223 38.4C14.4223 39.06 13.8823 39.6 13.2223 39.6H9.62227C8.96227 39.6 8.42227 39.06 8.42227 38.4V36H14.4223V38.4ZM31.6123 8.505C32.2498 8.3325 32.9098 8.715 33.0823 9.3525L33.7048 11.67L27.9073 13.2225L27.2848 10.905C27.1123 10.2675 27.4948 9.6075 28.1323 9.435L31.6123 8.505ZM33.1873 32.9325L28.8373 16.7025L34.6348 15.15L38.9848 31.38L33.1873 32.9325ZM34.1173 36.4125L39.9148 34.86L40.5373 37.1775C40.7098 37.815 40.3273 38.475 39.6898 38.6475L36.2098 39.5775C35.5723 39.75 34.9123 39.3675 34.7398 38.73L34.1173 36.4125Z" fill="#271332"/>
</svg>
