<?xml version="1.0" encoding="UTF-8"?>
<!--
Soliguide: Useful information for those who need it

SPDX-FileCopyrightText: © 2025 Solinum

SPDX-License-Identifier: AGPL-3.0-only

This program is free software: you can redistribute it and/or modify
it under the terms of the GNU Affero General Public License as published
by the Free Software Foundation, either version 3 of the License, or
(at your option) any later version.

This program is distributed in the hope that it will be useful,
but WITHOUT ANY WARRANTY; without even the implied warranty of
MERCHANTABILITY or FITNESS FOR A PARTICULAR PURPOSE.  See the
GNU Affero General Public License for more details.

You should have received a copy of the GNU Affero General Public License
along with this program.  If not, see <https://www.gnu.org/licenses/>.
-->
<svg width="48" height="48" viewBox="0 0 48 48" fill="none" xmlns="http://www.w3.org/2000/svg">
<path d="M28.32 20.8L18.32 13.66C16.92 12.66 15.06 12.66 13.68 13.66L3.68 20.8C2.62 21.56 2 22.76 2 24.06V40C2 41.1 2.9 42 4 42H12V30H20V42H28C29.1 42 30 41.1 30 40V24.06C30 22.76 29.38 21.56 28.32 20.8Z" fill="#404040"/>
<path d="M42.06 6H23.94C21.76 6 20 7.76 20 9.94L20.18 10.12C20.34 10.22 20.5 10.3 20.66 10.4L30.66 17.54C32.18 18.62 33.26 20.22 33.74 22H38V26H34V30H38V34H34V42H42.06C44.24 42 46 40.24 46 38.06V9.94C46 7.76 44.24 6 42.06 6ZM38 18H34V14H38V18Z" fill="#404040"/>
</svg>
