<svg width="48" height="48" viewBox="0 0 48 48" fill="none" xmlns="http://www.w3.org/2000/svg">
<path d="M24 9.60005V13.5075L32.865 21.2626C34.095 22.335 34.8 23.895 34.8 25.5225C34.8 27.435 33.855 29.1301 32.4 30.15V39.2401C32.4 40.695 31.9875 42.0451 31.2825 43.2001H43.2C45.8475 43.2001 48 41.0476 48 38.4001V9.60005C48 6.95255 45.8475 4.80005 43.2 4.80005H28.8C26.1525 4.80005 24 6.95255 24 9.60005ZM33.03 16.62L28.83 12.945C28.95 12.405 29.43 12 30 12H32.4C33.06 12 33.6 12.54 33.6 13.2V15.6C33.6 16.035 33.375 16.41 33.03 16.62ZM39.6 12H42C42.66 12 43.2 12.54 43.2 13.2V15.6C43.2 16.26 42.66 16.8 42 16.8H39.6C38.94 16.8 38.4 16.26 38.4 15.6V13.2C38.4 12.54 38.94 12 39.6 12ZM38.4 22.8C38.4 22.14 38.94 21.6 39.6 21.6H42C42.66 21.6 43.2 22.14 43.2 22.8V25.2001C43.2 25.8601 42.66 26.4 42 26.4H39.6C38.94 26.4 38.4 25.8601 38.4 25.2001V22.8ZM39.6 31.2001H42C42.66 31.2001 43.2 31.74 43.2 32.4V34.8001C43.2 35.4601 42.66 36 42 36H39.6C38.94 36 38.4 35.4601 38.4 34.8001V32.4C38.4 31.74 38.94 31.2001 39.6 31.2001ZM28.8 27.6H29.1375C30.2775 27.6 31.2 26.6775 31.2 25.5375C31.2 24.945 30.945 24.375 30.495 23.985L17.7 12.7875C17.1225 12.2775 16.3725 12 15.6 12C14.8275 12 14.0775 12.2775 13.5 12.7875L0.705 23.985C0.255 24.375 0 24.945 0 25.5375C0 26.6775 0.9225 27.6 2.0625 27.6H2.4V39.2551C2.4 41.4301 4.17 43.2001 6.345 43.2001H24.855C27.0375 43.2001 28.8 41.4301 28.8 39.2551V27.6ZM12 27C12 26.0026 12.8025 25.2001 13.8 25.2001H17.4C18.3975 25.2001 19.2 26.0026 19.2 27V30.6C19.2 31.5975 18.3975 32.4 17.4 32.4H13.8C12.8025 32.4 12 31.5975 12 30.6V27Z" fill="#271332"/>
</svg>
