<?xml version="1.0" encoding="UTF-8"?>
<!--
Soliguide: Useful information for those who need it

SPDX-FileCopyrightText: © 2025 Solinum

SPDX-License-Identifier: AGPL-3.0-only

This program is free software: you can redistribute it and/or modify
it under the terms of the GNU Affero General Public License as published
by the Free Software Foundation, either version 3 of the License, or
(at your option) any later version.

This program is distributed in the hope that it will be useful,
but WITHOUT ANY WARRANTY; without even the implied warranty of
MERCHANTABILITY or FITNESS FOR A PARTICULAR PURPOSE.  See the
GNU Affero General Public License for more details.

You should have received a copy of the GNU Affero General Public License
along with this program.  If not, see <https://www.gnu.org/licenses/>.
-->
<svg version="1.1" width="667" height="667" xmlns="http://www.w3.org/2000/svg"><path d="M241.500 56.503 C 213.080 61.716,191.372 80.814,182.396 108.500 C 179.093 118.687,178.145 134.347,180.232 144.237 C 181.616 150.795,181.599 150.992,179.581 151.633 C 178.441 151.995,169.387 160.082,159.460 169.606 L 141.411 186.920 142.657 198.210 C 143.342 204.420,143.924 211.252,143.951 213.394 L 144.000 217.287 128.500 216.766 C 113.220 216.253,112.998 216.275,112.888 218.373 C 112.827 219.543,112.856 226.956,112.954 234.847 L 113.132 249.194 97.024 248.470 C 87.873 248.058,81.017 248.124,81.150 248.623 C 81.427 249.652,79.652 269.976,78.498 279.000 C 78.252 280.925,77.790 286.100,77.472 290.500 C 77.154 294.900,76.653 299.753,76.360 301.285 L 75.826 304.070 87.663 303.583 C 94.173 303.316,104.238 303.075,110.029 303.048 L 120.557 303.000 167.529 258.450 C 193.363 233.947,217.359 210.999,220.854 207.453 L 227.208 201.005 234.354 203.239 C 243.577 206.121,262.959 206.355,273.000 203.705 C 281.640 201.425,294.162 195.144,301.222 189.549 C 328.552 167.891,337.316 128.407,321.683 97.364 C 309.054 72.286,285.346 56.866,257.500 55.621 C 252.547 55.400,245.352 55.796,241.500 56.503 M278.384 94.222 C 283.796 95.830,291.170 103.204,292.778 108.616 C 295.480 117.717,293.573 125.482,287.028 132.028 C 279.629 139.427,269.582 141.088,260.278 136.451 C 251.929 132.291,247.809 125.533,247.809 116.000 C 247.809 112.975,248.302 109.232,248.906 107.682 C 253.308 96.370,266.040 90.557,278.384 94.222 M466.618 129.053 C 460.299 130.633,451.288 135.964,446.912 140.711 C 444.667 143.147,441.415 148.147,439.686 151.820 C 436.718 158.128,436.522 159.279,436.165 172.500 L 435.787 186.500 414.643 186.565 C 395.415 186.625,393.002 186.827,388.000 188.795 C 378.278 192.621,372.455 198.793,368.465 209.500 C 366.707 214.218,366.584 219.603,366.293 305.000 C 366.123 354.775,366.240 397.413,366.553 399.750 L 367.123 404.000 390.956 404.000 C 412.055 404.000,415.541 404.232,421.339 406.023 C 429.634 408.585,437.680 415.602,441.668 423.754 C 444.196 428.920,444.483 430.719,445.130 445.444 C 445.518 454.275,445.872 480.958,445.917 504.740 L 446.000 547.980 493.159 548.240 L 540.319 548.500 540.409 555.839 C 540.489 562.286,540.787 563.410,542.861 565.089 C 546.071 567.688,549.601 567.490,552.545 564.545 C 554.678 562.413,555.000 561.184,555.000 555.180 L 555.000 548.270 567.376 547.793 C 577.854 547.390,580.297 546.980,583.305 545.121 C 588.217 542.085,590.720 536.312,592.028 525.000 C 593.315 513.873,593.161 231.013,591.862 219.307 C 590.394 206.081,583.584 196.503,571.701 190.952 C 563.873 187.295,553.900 185.843,538.000 186.044 C 531.125 186.131,524.938 186.156,524.250 186.101 C 523.340 186.027,523.000 183.269,523.000 175.947 C 523.000 157.097,517.903 144.503,507.048 136.536 C 498.332 130.137,493.766 128.676,481.500 128.363 C 475.450 128.209,468.753 128.519,466.618 129.053 M494.556 148.526 C 497.582 150.399,500.601 153.419,502.474 156.446 C 505.353 161.102,505.517 161.950,505.844 173.920 L 506.188 186.500 480.344 186.267 C 466.130 186.139,454.163 186.027,453.750 186.017 C 452.546 185.990,452.887 165.109,454.161 160.858 C 455.695 155.738,460.940 149.745,466.230 147.068 C 469.888 145.216,471.874 144.949,480.083 145.203 C 488.732 145.471,490.141 145.795,494.556 148.526 M293.472 369.849 C 283.002 373.693,275.397 380.392,270.358 390.214 C 268.202 394.416,267.555 397.279,267.204 404.171 L 266.763 412.842 238.131 413.203 C 213.130 413.519,208.960 413.797,205.242 415.394 C 199.929 417.677,192.761 425.516,191.189 430.764 C 189.569 436.171,189.502 562.667,191.116 568.481 C 192.861 574.764,197.270 580.279,203.152 583.538 L 208.500 586.500 310.931 586.768 C 423.515 587.064,419.656 587.254,427.160 581.036 C 429.173 579.368,431.985 575.664,433.410 572.805 L 436.000 567.607 436.000 501.985 C 436.000 429.799,436.022 430.084,429.928 422.716 C 428.206 420.634,424.481 417.718,421.649 416.236 L 416.500 413.540 387.871 413.180 L 359.241 412.820 358.774 404.660 C 357.936 390.032,349.799 378.115,336.275 371.709 C 329.660 368.576,329.134 368.494,314.000 368.251 C 300.990 368.043,297.692 368.300,293.472 369.849 M331.742 388.149 C 338.150 392.110,343.000 401.146,343.000 409.126 L 343.000 413.000 313.000 413.000 L 283.000 413.000 283.000 408.866 C 283.000 402.726,284.904 397.473,288.761 392.966 C 294.093 386.736,297.005 385.621,309.500 385.025 C 321.801 384.438,326.894 385.153,331.742 388.149 " stroke="none" fill="black" fill-rule="evenodd"/></svg>