<svg width="48" height="48" viewBox="0 0 48 48" fill="none" xmlns="http://www.w3.org/2000/svg">
<path d="M13.1626 9.35255C13.3576 8.37755 12.7276 7.43255 11.7526 7.23755C10.7776 7.04255 9.8326 7.67255 9.6376 8.64755L6.9226 22.2076C4.8751 24.1726 3.6001 26.9401 3.6001 30.0001C3.6001 35.9626 8.4376 40.8001 14.4001 40.8001C18.1426 40.8001 21.4426 38.8951 23.3851 36.0001H24.6226C26.5576 38.8951 29.8576 40.8001 33.6076 40.8001C39.5701 40.8001 44.4076 35.9626 44.4076 30.0001C44.4076 26.9401 43.1326 24.1726 41.0851 22.2076L38.3626 8.64755C38.1676 7.67255 37.2226 7.04255 36.2476 7.23755C35.2726 7.43255 34.6426 8.37755 34.8376 9.35255L37.6351 23.3476L36.5326 23.7901C32.6251 25.3501 29.2051 27.9076 26.6026 31.2001H21.3901C18.7951 27.9076 15.3751 25.3501 11.4676 23.7901L10.3651 23.3476L13.1626 9.35255Z" fill="#271332"/>
</svg>
