<svg width="48" height="48" viewBox="0 0 48 48" fill="none" xmlns="http://www.w3.org/2000/svg">
<path d="M13.1626 9.35255C13.3576 8.37755 12.7276 7.43255 11.7526 7.23755C10.7776 7.04255 9.8326 7.67255 9.6376 8.64755L6.9226 22.2076C4.8751 24.1726 3.6001 26.9401 3.6001 30.0001C3.6001 35.9626 8.4376 40.8001 14.4001 40.8001C18.1426 40.8001 21.4426 38.8951 23.3851 36.0001H24.6226C26.5576 38.8951 29.8576 40.8001 33.6076 40.8001C39.5701 40.8001 44.4076 35.9626 44.4076 30.0001C44.4076 26.9401 43.1326 24.1726 41.0851 22.2076L38.3626 8.64755C38.1676 7.67255 37.2226 7.04255 36.2476 7.23755C35.2726 7.43255 34.6426 8.37755 34.8376 9.35255L37.6351 23.3476L36.5326 23.7901C32.2726 25.4926 28.5826 28.3876 25.9126 32.1226L25.7176 32.4001H22.2901L22.0951 32.1226C19.4251 28.3876 15.7426 25.4926 11.4751 23.7901L10.3726 23.3476L13.1701 9.35255H13.1626ZM19.1551 34.2151L19.6576 34.9201C18.3376 36.3301 16.4701 37.2001 14.4001 37.2001C10.4251 37.2001 7.2001 33.9751 7.2001 30.0001C7.2001 28.6651 7.5601 27.4201 8.1901 26.3551L10.1326 27.1351C13.7551 28.5826 16.8901 31.0426 19.1551 34.2226V34.2151ZM28.8376 34.2151C31.1026 31.0426 34.2376 28.5826 37.8601 27.1276L39.8026 26.3476C40.4326 27.4201 40.7926 28.6651 40.7926 29.9926C40.7926 33.9676 37.5676 37.1926 33.5926 37.1926C31.5226 37.1926 29.6476 36.3151 28.3351 34.9126L28.8376 34.2076V34.2151Z" fill="#271332"/>
</svg>
