<svg width="48" height="48" viewBox="0 0 48 48" fill="none" xmlns="http://www.w3.org/2000/svg">
<path d="M21.5923 7.2002H15.8773C13.6723 7.2002 11.7448 8.7077 11.2198 10.8452L4.90479 36.3377C4.34229 38.6027 6.05979 40.8002 8.39979 40.8002H21.5923V36.0002C21.5923 34.6727 22.6648 33.6002 23.9923 33.6002C25.3198 33.6002 26.3923 34.6727 26.3923 36.0002V40.8002H39.5998C41.9398 40.8002 43.6573 38.6027 43.0948 36.3377L36.7873 10.8452C36.2548 8.7077 34.3348 7.2002 32.1223 7.2002H26.3923V12.0002C26.3923 13.3277 25.3198 14.4002 23.9923 14.4002C22.6648 14.4002 21.5923 13.3277 21.5923 12.0002V7.2002ZM26.3923 21.6002V26.4002C26.3923 27.7277 25.3198 28.8002 23.9923 28.8002C22.6648 28.8002 21.5923 27.7277 21.5923 26.4002V21.6002C21.5923 20.2727 22.6648 19.2002 23.9923 19.2002C25.3198 19.2002 26.3923 20.2727 26.3923 21.6002Z" fill="#271332"/>
</svg>
