<?xml version="1.0" encoding="UTF-8"?>
<!--
Soliguide: Useful information for those who need it

SPDX-FileCopyrightText: © 2025 Solinum

SPDX-License-Identifier: AGPL-3.0-only

This program is free software: you can redistribute it and/or modify
it under the terms of the GNU Affero General Public License as published
by the Free Software Foundation, either version 3 of the License, or
(at your option) any later version.

This program is distributed in the hope that it will be useful,
but WITHOUT ANY WARRANTY; without even the implied warranty of
MERCHANTABILITY or FITNESS FOR A PARTICULAR PURPOSE.  See the
GNU Affero General Public License for more details.

You should have received a copy of the GNU Affero General Public License
along with this program.  If not, see <https://www.gnu.org/licenses/>.
-->
<svg version="1.1" width="512" height="512" xmlns="http://www.w3.org/2000/svg"><path d="M237.090 7.119 C 218.643 9.257,195.852 16.763,179.488 26.087 C 162.731 35.636,143.875 51.505,142.461 57.250 C 140.403 65.604,148.933 73.740,157.495 71.591 C 158.874 71.244,163.040 68.206,166.752 64.838 C 184.973 48.303,206.182 37.575,231.000 32.338 C 242.830 29.842,269.170 29.842,281.000 32.338 C 305.786 37.568,326.323 47.948,345.427 64.903 C 349.237 68.284,353.402 71.314,354.684 71.635 C 363.507 73.850,371.840 65.105,369.027 56.582 C 368.344 54.511,365.376 50.786,361.695 47.378 C 328.495 16.641,282.668 1.834,237.090 7.119 M237.922 55.552 C 216.578 59.417,197.198 68.976,183.319 82.484 C 174.823 90.753,173.961 95.567,179.803 102.106 C 181.887 104.438,183.670 105.321,187.066 105.704 C 191.109 106.160,192.022 105.845,196.034 102.610 C 212.176 89.593,218.158 85.997,230.000 82.191 C 247.543 76.553,264.457 76.553,282.000 82.191 C 293.815 85.988,299.921 89.654,315.828 102.504 C 319.094 105.142,321.099 106.000,324.001 106.000 C 330.974 106.000,337.073 98.162,335.538 91.172 C 335.197 89.620,332.574 86.074,329.709 83.291 C 306.380 60.632,270.219 49.703,237.922 55.552 M241.202 104.022 C 231.661 106.522,222.887 111.271,216.033 117.645 C 210.722 122.584,210.500 122.995,210.500 127.876 C 210.500 132.286,210.934 133.396,213.769 136.231 C 216.555 139.017,217.750 139.500,221.847 139.500 C 225.682 139.500,227.422 138.893,230.441 136.500 C 243.079 126.483,253.478 123.874,265.977 127.586 C 271.408 129.199,274.787 131.131,281.559 136.500 C 288.700 142.159,297.666 140.050,301.034 131.918 C 303.092 126.948,301.514 122.670,295.640 117.302 C 281.361 104.251,260.112 99.068,241.202 104.022 M155.251 165.545 C 152.364 166.323,148.122 167.918,145.824 169.090 C 140.484 171.814,131.491 180.305,128.458 185.486 C 127.166 187.694,116.877 214.119,105.593 244.209 L 85.078 298.917 71.020 319.970 C 63.288 331.548,55.958 343.379,54.731 346.261 L 52.500 351.500 52.500 426.231 L 52.500 500.961 55.769 504.231 L 59.038 507.500 96.000 507.500 L 132.962 507.500 136.231 504.232 L 139.500 500.965 139.797 474.482 L 140.093 448.000 256.000 448.000 L 371.907 448.000 372.203 474.482 L 372.500 500.965 375.769 504.232 L 379.038 507.500 416.000 507.500 L 452.962 507.500 456.231 504.231 L 459.500 500.961 459.500 426.231 L 459.500 351.500 457.269 346.261 C 456.042 343.379,448.714 331.551,440.984 319.976 L 426.931 298.931 406.410 244.215 C 395.124 214.122,384.833 187.694,383.541 185.486 C 380.517 180.318,371.521 171.816,366.207 169.106 C 356.042 163.920,357.694 163.995,255.540 164.066 C 176.941 164.120,159.592 164.376,155.251 165.545 M354.554 190.483 C 357.274 191.849,360.519 194.473,361.763 196.314 C 363.008 198.156,372.980 223.476,383.924 252.581 C 394.867 281.687,404.134 306.288,404.517 307.250 C 405.179 308.912,397.707 309.000,256.000 309.000 C 114.290 309.000,106.821 308.912,107.491 307.250 C 107.879 306.288,117.157 281.671,128.109 252.546 C 139.061 223.421,149.029 198.101,150.261 196.279 C 151.492 194.457,154.726 191.849,157.446 190.483 L 162.393 188.000 256.000 188.000 L 349.607 188.000 354.554 190.483 M43.500 244.954 C 42.400 245.409,40.375 246.992,39.000 248.471 L 36.500 251.161 36.500 280.061 L 36.500 308.962 39.767 312.231 C 42.922 315.388,43.314 315.500,51.173 315.500 L 59.312 315.500 66.776 304.500 C 73.123 295.148,75.258 290.804,81.029 275.500 C 84.763 265.600,88.964 254.463,90.364 250.750 L 92.910 244.000 69.205 244.063 C 56.167 244.098,44.600 244.499,43.500 244.954 M421.618 250.701 C 423.028 254.441,427.225 265.602,430.943 275.504 C 436.756 290.984,438.758 295.050,445.217 304.504 L 452.730 315.500 460.848 315.500 C 468.683 315.500,469.079 315.386,472.233 312.231 L 475.500 308.962 475.500 280.000 L 475.500 251.038 472.233 247.769 L 468.965 244.500 444.009 244.201 L 419.053 243.903 421.618 250.701 M137.201 341.125 C 149.756 343.791,161.223 352.556,166.920 363.841 C 180.417 390.579,164.337 422.182,134.648 427.267 C 116.818 430.322,97.294 420.430,89.095 404.189 C 72.382 371.080,101.082 333.456,137.201 341.125 M393.201 341.125 C 405.756 343.791,417.223 352.556,422.920 363.841 C 436.417 390.579,420.337 422.182,390.648 427.267 C 372.818 430.322,353.294 420.430,345.095 404.189 C 328.382 371.080,357.082 333.456,393.201 341.125 M328.231 355.769 C 331.044 358.583,331.500 359.730,331.500 364.000 C 331.500 368.270,331.045 369.417,328.231 372.231 L 324.962 375.500 256.000 375.500 L 187.038 375.500 183.769 372.231 C 180.966 369.428,180.500 368.262,180.500 364.061 C 180.500 358.908,183.093 354.790,187.500 352.943 C 188.600 352.482,219.979 352.194,257.231 352.303 L 324.962 352.500 328.231 355.769 M328.231 395.769 C 331.044 398.583,331.500 399.730,331.500 404.000 C 331.500 408.270,331.045 409.417,328.231 412.231 L 324.962 415.500 256.000 415.500 L 187.038 415.500 183.769 412.231 C 180.966 409.428,180.500 408.262,180.500 404.061 C 180.500 398.908,183.093 394.790,187.500 392.943 C 188.600 392.482,219.979 392.194,257.231 392.303 L 324.962 392.500 328.231 395.769 " stroke="none" fill="black" fill-rule="evenodd"/></svg>