<?xml version="1.0" encoding="UTF-8"?>
<!--
Soliguide: Useful information for those who need it

SPDX-FileCopyrightText: © 2025 Solinum

SPDX-License-Identifier: AGPL-3.0-only

This program is free software: you can redistribute it and/or modify
it under the terms of the GNU Affero General Public License as published
by the Free Software Foundation, either version 3 of the License, or
(at your option) any later version.

This program is distributed in the hope that it will be useful,
but WITHOUT ANY WARRANTY; without even the implied warranty of
MERCHANTABILITY or FITNESS FOR A PARTICULAR PURPOSE.  See the
GNU Affero General Public License for more details.

You should have received a copy of the GNU Affero General Public License
along with this program.  If not, see <https://www.gnu.org/licenses/>.
-->
<svg version="1.1" width="512" height="512" xmlns="http://www.w3.org/2000/svg"><path d="M184.365 1.089 C 178.899 2.673,171.689 8.288,168.529 13.421 L 165.500 18.342 165.232 96.171 L 164.964 174.000 228.893 174.000 C 288.701 174.000,293.212 174.121,298.875 175.884 C 315.250 180.980,324.879 191.809,332.564 213.767 L 334.408 219.035 414.033 218.767 L 493.658 218.500 498.579 215.471 C 503.926 212.180,509.330 205.071,510.967 199.177 C 511.626 196.806,511.991 164.880,511.994 109.288 C 512.000 25.654,511.940 22.916,510.010 17.755 C 507.483 11.001,501.044 4.585,494.176 1.975 C 489.080 0.039,486.030 0.002,338.239 0.090 C 251.114 0.142,186.177 0.564,184.365 1.089 M356.500 14.469 C 363.766 22.672,365.776 22.997,411.500 23.361 C 437.575 23.568,443.318 23.878,447.651 25.313 C 458.424 28.880,467.444 37.404,471.359 47.714 C 473.669 53.799,474.541 66.801,473.140 74.279 L 472.057 80.057 476.185 83.779 C 486.620 93.186,486.634 107.800,476.218 117.191 C 473.967 119.221,470.257 121.442,467.975 122.126 C 464.676 123.114,463.159 124.407,460.574 128.434 C 456.483 134.808,445.915 144.724,439.724 147.998 C 435.359 150.307,435.000 150.785,435.000 154.298 C 435.000 156.389,435.687 159.427,436.526 161.050 C 437.985 163.872,438.344 164.000,444.776 164.008 C 466.806 164.032,481.479 172.073,489.645 188.596 C 494.433 198.285,494.754 204.093,490.694 207.586 C 487.451 210.377,482.528 210.759,479.265 208.473 C 478.053 207.624,476.305 204.472,475.327 201.369 C 473.208 194.646,467.186 187.444,461.539 184.878 C 458.864 183.663,455.136 183.040,450.500 183.033 L 443.500 183.023 441.548 187.096 C 438.709 193.021,432.393 198.891,425.240 202.255 C 419.519 204.944,418.225 205.168,410.240 204.844 C 403.499 204.571,400.356 203.930,396.500 202.042 C 390.436 199.074,382.591 191.276,380.864 186.500 C 379.732 183.370,379.212 183.000,375.948 183.000 C 370.401 183.000,366.107 181.108,364.470 177.941 C 362.622 174.369,362.622 172.631,364.470 169.059 C 366.308 165.504,370.491 164.000,378.535 164.000 C 384.646 164.000,384.805 163.931,386.386 160.599 C 387.274 158.728,388.000 155.825,388.000 154.147 C 388.000 151.471,387.149 150.546,381.057 146.606 C 372.753 141.234,367.112 135.771,362.583 128.716 C 359.831 124.429,358.365 123.196,354.350 121.791 C 348.579 119.773,343.410 115.059,340.871 109.500 C 336.592 100.133,340.119 87.612,348.538 82.280 C 352.415 79.824,352.931 79.067,352.963 75.794 C 352.991 73.050,351.958 70.601,348.984 66.356 C 343.990 59.226,340.317 47.858,338.856 35.008 C 337.302 21.341,338.245 14.813,342.263 11.432 C 346.818 7.599,351.254 8.546,356.500 14.469 M207.545 39.455 C 211.134 43.043,210.899 48.255,206.972 52.182 C 204.023 55.131,203.737 55.200,195.876 54.843 C 188.502 54.508,187.599 54.236,185.403 51.682 C 182.209 47.969,182.229 43.124,185.452 39.646 C 187.738 37.180,188.490 37.000,196.498 37.000 C 204.288 37.000,205.320 37.229,207.545 39.455 M316.087 38.282 C 320.477 41.653,321.139 47.564,317.587 51.694 L 315.175 54.500 275.203 54.783 L 235.231 55.065 232.115 52.444 C 228.027 49.004,227.731 43.178,231.455 39.455 L 233.909 37.000 274.205 37.032 C 304.303 37.056,314.902 37.372,316.087 38.282 M358.417 42.208 C 359.968 51.908,365.334 59.615,373.372 63.688 C 379.680 66.885,380.928 68.463,380.968 73.298 C 381.003 77.475,377.304 82.000,373.854 82.000 C 372.757 82.000,371.998 82.715,371.994 83.750 C 371.991 84.713,371.520 87.187,370.948 89.248 C 369.837 93.249,366.089 96.000,361.750 96.000 C 358.838 96.000,357.000 97.741,357.000 100.500 C 357.000 103.674,358.952 105.000,363.623 105.000 C 368.014 105.000,374.000 108.735,374.000 111.475 C 374.000 114.444,382.455 125.215,387.776 129.026 C 398.425 136.651,411.074 138.765,423.354 134.972 C 434.091 131.656,441.780 124.917,447.523 113.789 C 451.375 106.325,453.071 105.000,458.779 105.000 C 465.802 105.000,468.648 97.827,462.183 96.421 C 456.595 95.206,453.857 93.624,452.372 90.753 C 450.959 88.020,451.014 87.147,453.071 79.643 C 456.027 68.860,456.108 57.998,453.275 52.500 C 450.760 47.621,448.626 45.617,443.463 43.288 C 439.925 41.692,436.011 41.495,407.000 41.455 C 380.102 41.417,373.207 41.116,367.000 39.706 C 362.875 38.768,359.105 38.001,358.622 38.001 C 358.139 38.000,358.047 39.893,358.417 42.208 M207.077 75.923 C 210.897 79.743,211.092 84.999,207.545 88.545 C 205.320 90.771,204.288 91.000,196.498 91.000 C 188.490 91.000,187.738 90.820,185.452 88.354 C 181.303 83.877,182.853 76.213,188.357 73.992 C 189.536 73.516,193.572 73.098,197.327 73.063 C 203.580 73.005,204.400 73.246,207.077 75.923 M317.587 76.306 C 320.215 79.361,320.656 82.899,318.837 86.316 C 316.361 90.964,316.641 90.935,274.205 90.968 L 233.909 91.000 231.455 88.545 C 227.731 84.822,228.027 78.996,232.115 75.556 L 235.231 72.935 275.203 73.217 L 315.175 73.500 317.587 76.306 M207.545 112.455 C 211.252 116.161,210.972 122.004,206.923 125.411 C 204.212 127.693,202.956 128.000,196.346 128.000 C 189.390 128.000,188.634 127.788,185.923 125.077 C 182.797 121.951,182.193 118.384,184.163 114.684 C 186.240 110.786,188.198 110.065,196.795 110.032 C 204.292 110.003,205.327 110.236,207.545 112.455 M317.411 113.077 C 320.918 117.244,320.803 121.350,317.077 125.077 L 314.154 128.000 275.011 128.000 C 235.015 128.000,233.162 127.838,230.282 124.087 C 228.118 121.269,228.733 115.176,231.455 112.455 L 233.909 110.000 274.366 110.000 L 314.822 110.000 317.411 113.077 M406.000 157.874 C 406.000 162.226,403.283 169.049,399.840 173.341 C 397.028 176.847,396.876 177.400,398.094 179.675 C 402.916 188.685,418.801 189.308,424.040 180.693 C 425.845 177.727,425.844 177.725,422.449 172.790 C 418.904 167.636,417.015 162.417,417.006 157.750 C 417.000 155.084,416.832 155.000,411.500 155.000 C 406.109 155.000,406.000 155.057,406.000 157.874 M107.027 193.737 C 104.323 194.691,100.558 197.329,97.507 200.408 C 92.115 205.849,94.016 201.302,59.167 292.131 C 58.979 292.620,120.911 293.000,200.917 293.000 C 279.063 293.000,343.000 292.756,343.000 292.457 C 343.000 290.255,310.061 206.903,307.947 203.755 C 304.867 199.169,298.393 194.481,293.113 193.015 C 290.811 192.375,257.217 192.038,200.500 192.085 C 122.098 192.149,110.967 192.346,107.027 193.737 M24.500 274.945 C 18.308 277.480,16.644 285.099,21.272 289.726 C 23.694 292.149,24.664 292.403,31.668 292.449 L 39.393 292.500 42.696 284.057 C 44.513 279.413,46.000 275.250,46.000 274.807 C 46.000 273.756,27.108 273.878,24.500 274.945 M356.000 274.403 C 356.000 274.624,357.537 278.787,359.415 283.653 L 362.831 292.500 368.165 292.822 C 379.179 293.486,384.998 289.135,383.534 281.331 C 382.474 275.678,378.536 274.008,366.250 274.004 C 360.613 274.002,356.000 274.181,356.000 274.403 M37.500 312.944 C 35.850 314.009,27.995 320.195,20.044 326.690 C -0.608 343.562,0.578 340.393,0.197 379.720 L -0.105 411.000 200.947 411.000 L 402.000 411.000 401.990 380.250 C 401.977 339.873,403.502 343.320,376.058 321.626 L 362.617 311.000 201.558 311.004 C 43.963 311.007,40.435 311.049,37.500 312.944 M83.063 341.500 C 90.100 346.491,91.000 349.245,91.000 365.784 C 91.000 376.329,90.618 380.837,89.551 382.901 C 87.434 386.996,81.532 391.810,77.771 392.511 C 75.972 392.846,64.566 392.981,52.424 392.810 C 30.428 392.501,30.332 392.490,26.330 389.839 C 20.123 385.728,18.562 381.531,18.172 367.905 C 17.782 354.285,18.900 349.163,23.310 344.378 C 28.691 338.539,31.697 337.987,56.667 338.259 L 78.834 338.500 83.063 341.500 M275.061 341.500 C 282.100 346.490,283.000 349.244,283.000 365.784 C 283.000 376.163,282.612 380.842,281.589 382.800 C 279.695 386.425,275.134 390.633,271.685 391.936 C 269.797 392.650,246.491 393.000,200.895 393.000 C 136.166 393.000,132.743 392.910,129.210 391.106 C 120.755 386.791,119.000 382.453,119.000 365.865 C 119.000 351.176,120.532 345.861,125.836 342.150 C 131.512 338.178,132.570 338.125,202.665 338.315 L 270.829 338.500 275.061 341.500 M370.277 339.060 C 374.978 340.365,380.863 345.428,382.649 349.702 C 384.815 354.887,384.451 377.421,382.119 382.500 C 377.772 391.968,374.318 393.000,346.992 393.000 C 327.307 393.000,324.519 392.795,321.210 391.106 C 312.755 386.791,311.000 382.453,311.000 365.865 C 311.000 354.494,311.294 352.025,313.086 348.323 C 315.274 343.803,318.479 341.002,323.500 339.222 C 327.443 337.823,365.353 337.693,370.277 339.060 M37.000 366.000 L 37.000 375.000 55.000 375.000 L 73.000 375.000 73.000 366.000 L 73.000 357.000 55.000 357.000 L 37.000 357.000 37.000 366.000 M137.000 366.000 L 137.000 375.000 146.000 375.000 L 155.000 375.000 155.000 366.000 L 155.000 357.000 146.000 357.000 L 137.000 357.000 137.000 366.000 M174.000 366.000 L 174.000 375.000 183.000 375.000 L 192.000 375.000 192.000 366.000 L 192.000 357.000 183.000 357.000 L 174.000 357.000 174.000 366.000 M210.000 366.038 L 210.000 375.075 219.250 374.788 L 228.500 374.500 228.789 365.750 L 229.078 357.000 219.539 357.000 L 210.000 357.000 210.000 366.038 M247.000 366.000 L 247.000 375.000 256.000 375.000 L 265.000 375.000 265.000 366.000 L 265.000 357.000 256.000 357.000 L 247.000 357.000 247.000 366.000 M329.000 366.000 L 329.000 375.000 347.500 375.000 L 366.000 375.000 366.000 366.000 L 366.000 357.000 347.500 357.000 L 329.000 357.000 329.000 366.000 M0.000 436.032 C 0.000 445.825,3.292 451.809,10.500 455.119 C 14.230 456.832,18.326 456.958,71.250 456.978 L 128.000 457.000 128.000 443.500 L 128.000 430.000 64.000 430.000 L 0.000 430.000 0.000 436.032 M146.000 443.500 L 146.000 457.000 201.000 457.000 L 256.000 457.000 256.000 443.500 L 256.000 430.000 201.000 430.000 L 146.000 430.000 146.000 443.500 M274.000 443.523 L 274.000 457.047 332.408 456.773 L 390.816 456.500 394.658 453.429 C 400.131 449.054,401.997 444.815,401.998 436.750 L 402.000 430.000 338.000 430.000 L 274.000 430.000 274.000 443.523 M27.667 475.667 C 26.549 476.784,26.925 502.485,28.108 505.881 C 30.047 511.444,32.527 512.000,55.374 512.000 L 75.847 512.000 78.923 509.411 L 82.000 506.822 82.000 490.911 L 82.000 475.000 55.167 475.000 C 40.408 475.000,28.033 475.300,27.667 475.667 M320.000 490.577 L 320.000 506.154 322.923 509.077 L 325.846 512.000 347.367 512.000 C 368.669 512.000,368.917 511.975,371.694 509.589 L 374.500 507.178 374.819 491.089 L 375.138 475.000 347.569 475.000 L 320.000 475.000 320.000 490.577 " stroke="none" fill="black" fill-rule="evenodd"/></svg>