<svg width="48" height="48" viewBox="0 0 48 48" fill="none" xmlns="http://www.w3.org/2000/svg">
<path d="M14.3998 11.9998V10.7998C14.3998 7.4848 20.8498 4.7998 28.7998 4.7998C36.7498 4.7998 43.1998 7.4848 43.1998 10.7998V11.9998C43.1998 14.2948 40.1023 16.2898 35.5498 17.3023C35.3698 17.0923 35.1823 16.8898 34.9948 16.7023C33.8323 15.5548 32.3323 14.6848 30.7648 14.0398C27.6223 12.7273 23.5273 12.0073 19.1998 12.0073C17.5573 12.0073 15.9523 12.1123 14.4148 12.3148C14.3998 12.2173 14.3998 12.1123 14.3998 12.0073V11.9998ZM37.1998 31.2748V27.8098C38.3323 27.5173 39.3973 27.1723 40.3648 26.7673C41.3548 26.3548 42.3223 25.8523 43.1998 25.2448V26.3998C43.1998 28.4098 40.8373 30.1873 37.1998 31.2748ZM37.1998 24.0748V21.5998C37.1998 21.2623 37.1698 20.9398 37.1248 20.6248C38.2873 20.3323 39.3748 19.9798 40.3648 19.5598C41.3548 19.1398 42.3223 18.6448 43.1998 18.0373V19.1923C43.1998 21.2023 40.8373 22.9798 37.1998 24.0673V24.0748ZM4.7998 22.7998V21.5998C4.7998 18.2848 11.2498 15.5998 19.1998 15.5998C27.1498 15.5998 33.5998 18.2848 33.5998 21.5998V22.7998C33.5998 26.1148 27.1498 28.7998 19.1998 28.7998C11.2498 28.7998 4.7998 26.1148 4.7998 22.7998ZM33.5998 29.9998C33.5998 33.3148 27.1498 35.9998 19.1998 35.9998C11.2498 35.9998 4.7998 33.3148 4.7998 29.9998V28.8448C5.6698 29.4523 6.63731 29.9473 7.6348 30.3673C10.7773 31.6798 14.8723 32.3998 19.1998 32.3998C23.5273 32.3998 27.6223 31.6723 30.7648 30.3673C31.7548 29.9548 32.7223 29.4523 33.5998 28.8448V29.9998ZM33.5998 36.0448V37.1998C33.5998 40.5148 27.1498 43.1998 19.1998 43.1998C11.2498 43.1998 4.7998 40.5148 4.7998 37.1998V36.0448C5.6698 36.6523 6.63731 37.1473 7.6348 37.5673C10.7773 38.8798 14.8723 39.5998 19.1998 39.5998C23.5273 39.5998 27.6223 38.8723 30.7648 37.5673C31.7548 37.1548 32.7223 36.6523 33.5998 36.0448Z" fill="#271332"/>
</svg>
