<svg width="64" height="64" viewBox="0 0 64 64" fill="none" xmlns="http://www.w3.org/2000/svg">
<path d="M16.11 14.4001H24V25.6001H10.19L13.87 15.9501C14.22 15.0201 15.12 14.4001 16.11 14.4001ZM28.8 25.6001V14.4001H36.02C36.77 14.4001 37.48 14.7501 37.93 15.3501L45.74 25.6001H28.8ZM51.79 25.6101L41.75 12.4401C40.39 10.6501 38.27 9.6001 36.02 9.6001H16.11C13.12 9.6001 10.45 11.4401 9.38 14.2401L4.99 25.7601C2.13 26.4001 0 28.9501 0 32.0001V40.0001C0 43.5301 2.87 46.4001 6.4 46.4001H6.44C6.84 50.8901 10.61 54.4001 15.2 54.4001C19.79 54.4001 23.56 50.8901 23.96 46.4001H38.43C38.83 50.8901 42.6 54.4001 47.19 54.4001C51.78 54.4001 55.55 50.8901 55.95 46.4001H57.59C61.12 46.4001 63.99 43.5301 63.99 40.0001V38.4001C63.99 31.5301 58.57 25.9201 51.78 25.6101H51.79ZM55.04 41.6001C53.58 38.7501 50.62 36.8001 47.2 36.8001C43.78 36.8001 40.82 38.7501 39.36 41.6001H23.04C21.58 38.7501 18.62 36.8001 15.2 36.8001C11.78 36.8001 8.82 38.7501 7.36 41.6001H6.4C5.52 41.6001 4.8 40.8801 4.8 40.0001V32.0001C4.8 31.1201 5.52 30.4001 6.4 30.4001H51.2C55.62 30.4001 59.2 33.9801 59.2 38.4001V40.0001C59.2 40.8801 58.48 41.6001 57.6 41.6001H55.04ZM15.2 41.6001C17.41 41.6001 19.2 43.3901 19.2 45.6001C19.2 47.8101 17.41 49.6001 15.2 49.6001C12.99 49.6001 11.2 47.8101 11.2 45.6001C11.2 43.3901 12.99 41.6001 15.2 41.6001ZM43.2 45.6001C43.2 43.3901 44.99 41.6001 47.2 41.6001C49.41 41.6001 51.2 43.3901 51.2 45.6001C51.2 47.8101 49.41 49.6001 47.2 49.6001C44.99 49.6001 43.2 47.8101 43.2 45.6001Z" fill="#271332"/>
</svg>
