<?xml version="1.0" encoding="UTF-8"?>
<!--
Soliguide: Useful information for those who need it

SPDX-FileCopyrightText: © 2025 Solinum

SPDX-License-Identifier: AGPL-3.0-only

This program is free software: you can redistribute it and/or modify
it under the terms of the GNU Affero General Public License as published
by the Free Software Foundation, either version 3 of the License, or
(at your option) any later version.

This program is distributed in the hope that it will be useful,
but WITHOUT ANY WARRANTY; without even the implied warranty of
MERCHANTABILITY or FITNESS FOR A PARTICULAR PURPOSE.  See the
GNU Affero General Public License for more details.

You should have received a copy of the GNU Affero General Public License
along with this program.  If not, see <https://www.gnu.org/licenses/>.
-->
<svg width="64" height="64" viewBox="0 0 64 64" fill="none" xmlns="http://www.w3.org/2000/svg">
<path d="M50.4533 13.3601C49.92 11.7867 48.4267 10.6667 46.6667 10.6667H17.3333C15.5733 10.6667 14.1067 11.7867 13.5467 13.3601L8.29333 28.4801C8.10667 29.0401 8 29.6267 8 30.2401V49.3334C8 51.5467 9.78667 53.3334 12 53.3334C14.2133 53.3334 16 51.5467 16 49.3334V48.0001H48V49.3334C48 51.5201 49.7867 53.3334 52 53.3334C54.1867 53.3334 56 51.5467 56 49.3334V30.2401C56 29.6534 55.8933 29.0401 55.7067 28.4801L50.4533 13.3601ZM17.3333 40.0001C15.12 40.0001 13.3333 38.2134 13.3333 36.0001C13.3333 33.7867 15.12 32.0001 17.3333 32.0001C19.5467 32.0001 21.3333 33.7867 21.3333 36.0001C21.3333 38.2134 19.5467 40.0001 17.3333 40.0001ZM46.6667 40.0001C44.4533 40.0001 42.6667 38.2134 42.6667 36.0001C42.6667 33.7867 44.4533 32.0001 46.6667 32.0001C48.88 32.0001 50.6667 33.7867 50.6667 36.0001C50.6667 38.2134 48.88 40.0001 46.6667 40.0001ZM13.3333 26.6667L16.72 16.4801C17.0933 15.4134 18.1067 14.6667 19.2533 14.6667H44.7467C45.8933 14.6667 46.9067 15.4134 47.28 16.4801L50.6667 26.6667H13.3333Z" fill="#404040"/>
</svg>
