<svg width="48" height="48" viewBox="0 0 48 48" fill="none" xmlns="http://www.w3.org/2000/svg">
<path d="M8.45981 35.0777C8.41481 35.2277 8.3998 35.3777 8.3998 35.5352C8.3998 36.4577 9.14981 37.2077 10.0723 37.2077H22.1998V34.2077C22.1998 33.2102 23.0023 32.4077 23.9998 32.4077C24.9973 32.4077 25.7998 33.2102 25.7998 34.2077V37.2077H37.9273C38.8498 37.2077 39.5998 36.4577 39.5998 35.5352C39.5998 35.3852 39.5773 35.2277 39.5398 35.0777L32.9248 11.6702C32.7748 11.1602 32.3023 10.8002 31.7698 10.8002H25.7998V13.8002C25.7998 14.7977 24.9973 15.6002 23.9998 15.6002C23.0023 15.6002 22.1998 14.7977 22.1998 13.8002V10.8002H16.2298C15.6898 10.8002 15.2248 11.1602 15.0748 11.6702L8.45981 35.0702V35.0777ZM4.9948 34.0952L11.6098 10.6952C12.1948 8.6252 14.0848 7.2002 16.2298 7.2002H31.7698C33.9148 7.2002 35.8048 8.6252 36.3898 10.6952L43.0048 34.0952C43.1398 34.5602 43.1998 35.0402 43.1998 35.5277C43.1998 38.4377 40.8373 40.8002 37.9273 40.8002H10.0723C7.16231 40.8002 4.7998 38.4377 4.7998 35.5277C4.7998 35.0402 4.8673 34.5602 4.9948 34.0952ZM25.7998 21.0002V27.0002C25.7998 27.9977 24.9973 28.8002 23.9998 28.8002C23.0023 28.8002 22.1998 27.9977 22.1998 27.0002V21.0002C22.1998 20.0027 23.0023 19.2002 23.9998 19.2002C24.9973 19.2002 25.7998 20.0027 25.7998 21.0002Z" fill="#271332"/>
</svg>
