<svg width="48" height="48" viewBox="0 0 48 48" fill="none" xmlns="http://www.w3.org/2000/svg">
<path d="M28.7998 4.79998C32.4673 4.79998 35.8423 5.42998 38.3698 6.42748C39.6223 6.92248 40.7548 7.54498 41.6023 8.28748C42.4273 9.01498 43.1998 10.065 43.1998 11.4V27C43.1998 28.335 42.4198 29.385 41.6023 30.1125C40.7548 30.8625 39.6298 31.4775 38.3698 31.9725C37.9948 32.1225 37.6048 32.2575 37.1998 32.385V28.56C38.1448 28.17 38.8123 27.765 39.2173 27.405C39.5098 27.15 39.5848 27 39.5998 26.955V23.94C38.8648 24.2475 38.0548 24.5175 37.1998 24.75V20.9925C37.7848 20.7975 38.3023 20.595 38.7373 20.3775C39.1048 20.1975 39.3823 20.025 39.5998 19.875V15.9225C39.2023 16.1175 38.7823 16.2975 38.3473 16.4625C37.6648 16.725 36.9148 16.9575 36.1198 17.1525C35.6173 16.3125 35.0023 15.63 34.4173 15.105C34.0198 14.745 33.5998 14.4225 33.1573 14.13C36.9448 13.665 39.5923 12.6075 39.5923 11.385C39.5923 9.88498 34.7548 8.38498 28.7923 8.38498C23.6098 8.38498 19.2823 9.51748 18.2323 10.8C16.9273 10.83 15.6448 10.9275 14.3998 11.0925C14.5048 9.89998 15.2248 8.94748 15.9898 8.27998C16.8373 7.52998 17.9623 6.91498 19.2223 6.41998C21.7498 5.42248 25.1248 4.79248 28.7923 4.79248L28.7998 4.79998ZM9.6298 16.0275C12.1573 15.03 15.5323 14.4 19.1998 14.4C22.8673 14.4 26.2423 15.03 28.7698 16.0275C30.0223 16.5225 31.1548 17.145 32.0023 17.8875C32.8273 18.615 33.5998 19.665 33.5998 21V36.6C33.5998 37.935 32.8198 38.985 32.0023 39.7125C31.1548 40.4625 30.0298 41.0775 28.7698 41.5725C26.2423 42.57 22.8673 43.2 19.1998 43.2C15.5323 43.2 12.1573 42.57 9.6298 41.5725C8.3773 41.0775 7.24481 40.455 6.39731 39.7125C5.5723 38.985 4.7998 37.935 4.7998 36.6V21C4.7998 19.665 5.5798 18.615 6.39731 17.8875C7.24481 17.1375 8.3698 16.5225 9.6298 16.0275ZM28.7473 26.0775C26.2198 27.0375 22.8373 27.6 19.1998 27.6C15.5623 27.6 12.1798 27.0375 9.6523 26.0775C9.2173 25.9125 8.7973 25.7325 8.3998 25.5375V29.49C8.6098 29.6475 8.8948 29.8125 9.2623 29.9925C9.94481 30.33 10.8223 30.645 11.8648 30.9225C13.9423 31.47 16.5298 31.8075 19.1998 31.8075C21.8698 31.8075 24.4573 31.47 26.5348 30.9225C27.5773 30.645 28.4548 30.33 29.1373 29.9925C29.5048 29.8125 29.7823 29.64 29.9998 29.49V25.5375C29.6023 25.7325 29.1823 25.9125 28.7473 26.0775ZM8.3998 33.5475V36.5625C8.4148 36.6075 8.4898 36.7575 8.7823 37.0125C9.2098 37.3875 9.9298 37.8225 10.9498 38.2275C12.9823 39.03 15.9073 39.6 19.1998 39.6C22.4923 39.6 25.4098 39.03 27.4498 38.2275C28.4773 37.8225 29.1898 37.395 29.6173 37.0125C29.9098 36.7575 29.9848 36.6075 29.9998 36.5625V33.5475C29.2198 33.8775 28.3648 34.155 27.4573 34.395C25.0498 35.0325 22.1473 35.3925 19.1998 35.3925C16.2523 35.3925 13.3573 35.025 10.9498 34.395C10.0423 34.155 9.1798 33.87 8.3998 33.5475ZM29.9998 21C29.9998 19.5 25.1623 18 19.1998 18C13.2373 18 8.3998 19.5 8.3998 21C8.3998 22.6575 13.2373 24 19.1998 24C25.1623 24 29.9998 22.6575 29.9998 21Z" fill="#271332"/>
</svg>
