<?xml version="1.0" encoding="UTF-8"?>
<!--
Soliguide: Useful information for those who need it

SPDX-FileCopyrightText: © 2025 Solinum

SPDX-License-Identifier: AGPL-3.0-only

This program is free software: you can redistribute it and/or modify
it under the terms of the GNU Affero General Public License as published
by the Free Software Foundation, either version 3 of the License, or
(at your option) any later version.

This program is distributed in the hope that it will be useful,
but WITHOUT ANY WARRANTY; without even the implied warranty of
MERCHANTABILITY or FITNESS FOR A PARTICULAR PURPOSE.  See the
GNU Affero General Public License for more details.

You should have received a copy of the GNU Affero General Public License
along with this program.  If not, see <https://www.gnu.org/licenses/>.
-->
<svg version="1.1" width="667" height="667" xmlns="http://www.w3.org/2000/svg"><path d="M317.460 25.900 C 309.782 30.824,299.675 37.312,295.000 40.319 C 290.325 43.325,275.250 52.966,261.500 61.743 C 234.742 78.823,204.015 98.488,157.500 128.301 C 141.550 138.524,122.875 150.460,116.000 154.825 C 109.125 159.190,97.200 166.800,89.500 171.737 C 81.800 176.673,65.825 186.890,54.000 194.440 C 42.175 201.990,32.185 208.467,31.800 208.834 C 31.415 209.200,165.830 209.500,330.500 209.500 C 495.170 209.500,629.518 209.118,629.051 208.651 C 628.584 208.184,616.912 200.534,603.114 191.651 C 589.316 182.768,570.258 170.485,560.764 164.355 C 551.269 158.225,514.025 134.209,478.000 110.987 C 441.975 87.765,408.000 65.857,402.500 62.303 C 350.427 28.654,333.348 17.692,332.460 17.349 C 331.888 17.128,325.138 20.976,317.460 25.900 M61.000 227.500 L 61.000 236.000 330.500 236.000 L 600.000 236.000 600.000 227.500 L 600.000 219.000 330.500 219.000 L 61.000 219.000 61.000 227.500 M84.000 376.500 L 84.000 508.000 68.000 508.000 L 52.000 508.000 52.000 524.500 L 52.000 541.000 40.000 541.000 L 28.000 541.000 28.000 565.000 L 28.000 589.000 330.500 589.000 L 633.000 589.000 633.000 565.000 L 633.000 541.000 623.750 540.901 C 618.663 540.847,613.375 540.735,612.000 540.651 L 609.500 540.500 609.225 524.250 L 608.950 508.000 592.975 508.000 L 577.000 508.000 577.000 376.500 L 577.000 245.000 542.500 245.000 L 508.000 245.000 508.000 376.500 L 508.000 508.000 472.000 508.000 L 436.000 508.000 436.000 376.500 L 436.000 245.000 401.500 245.000 L 367.000 245.000 367.000 376.500 L 367.000 508.000 331.000 508.000 C 302.871 508.000,294.998 507.727,294.993 506.750 C 294.989 506.063,294.992 447.608,295.000 376.851 C 295.008 306.094,294.738 247.481,294.400 246.601 C 293.854 245.176,290.006 245.000,259.393 245.000 L 225.000 245.000 225.000 376.500 L 225.000 508.000 189.000 508.000 L 153.000 508.000 153.000 376.500 L 153.000 245.000 118.500 245.000 L 84.000 245.000 84.000 376.500 " stroke="none" fill="black" fill-rule="evenodd"/></svg>