<svg width="48" height="48" viewBox="0 0 48 48" fill="none" xmlns="http://www.w3.org/2000/svg">
<path d="M25.1925 6.315C24.4575 5.895 23.55 5.895 22.8075 6.315L6.0075 15.915C5.0625 16.455 4.5975 17.565 4.875 18.615C5.1525 19.665 6.1125 20.4 7.2 20.4H9.6V36L5.76 38.88C5.1525 39.33 4.8 40.0425 4.8 40.8C4.8 42.1275 5.8725 43.2 7.2 43.2H40.8C42.1275 43.2 43.2 42.1275 43.2 40.8C43.2 40.0425 42.8475 39.33 42.24 38.88L38.4 36V20.4H40.8C41.8875 20.4 42.84 19.665 43.1175 18.615C43.395 17.565 42.93 16.455 41.985 15.915L25.185 6.315H25.1925ZM34.8 20.4V36H30V20.4H34.8ZM26.4 20.4V36H21.6V20.4H26.4ZM18 20.4V36H13.2V20.4H18ZM24 12C25.3275 12 26.4 13.0725 26.4 14.4C26.4 15.7275 25.3275 16.8 24 16.8C22.6725 16.8 21.6 15.7275 21.6 14.4C21.6 13.0725 22.6725 12 24 12Z" fill="#271332"/>
</svg>
