<svg width="48" height="48" viewBox="0 0 48 48" fill="none" xmlns="http://www.w3.org/2000/svg">
<path d="M25.2 20.4001C25.2 21.2251 25.29 22.0276 25.47 22.8001H23.1V13.2001C23.1 12.3751 22.425 11.7001 21.6 11.7001C20.775 11.7001 20.1 12.3751 20.1 13.2001V22.7776L13.0575 15.7351C12.4725 15.1501 11.52 15.1501 10.935 15.7351C10.35 16.3201 10.35 17.2726 10.935 17.8576L15.8775 22.8001H12C8.02498 22.8001 4.79998 19.5751 4.79998 15.6001C4.79998 11.6251 8.02498 8.4001 12 8.4001C12.6525 8.4001 13.29 8.4901 13.8975 8.6551C15.1875 5.6851 18.1575 3.6001 21.6 3.6001C25.0425 3.6001 28.0125 5.6776 29.3025 8.6551C29.9025 8.4901 30.54 8.4001 31.2 8.4001C32.6925 8.4001 34.0725 8.8501 35.22 9.6301C29.6175 10.0276 25.2 14.7001 25.2 20.4001ZM13.6425 36.4726C14.61 36.9001 15.345 37.7251 15.6525 38.7451C15.8025 39.2401 16.2675 39.6001 16.8 39.6001H31.2C31.74 39.6001 32.205 39.2401 32.3475 38.7451C32.6475 37.7326 33.3825 36.9001 34.3575 36.4726C36.9975 35.3176 38.9475 32.9026 39.465 30.0001H8.53498C9.05248 32.9026 11.0025 35.3176 13.6425 36.4726ZM4.79998 28.4551C4.79998 27.3226 5.72248 26.4001 6.85498 26.4001H41.1375C42.27 26.4001 43.1925 27.3226 43.1925 28.4551C43.1925 33.5101 40.1475 37.8601 35.7975 39.7651C35.205 41.7451 33.3675 43.1926 31.1925 43.1926H16.7925C14.6175 43.1926 12.78 41.7451 12.1875 39.7651C7.82998 37.8601 4.79248 33.5101 4.79248 28.4551H4.79998ZM39.6 20.4001C39.6 18.4126 37.9875 16.8001 36 16.8001C34.0125 16.8001 32.4 18.4126 32.4 20.4001C32.4 21.3226 32.745 22.1626 33.315 22.8001H29.205C28.9425 22.0501 28.7925 21.2401 28.7925 20.4001C28.7925 16.4251 32.0175 13.2001 35.9925 13.2001C39.9675 13.2001 43.1925 16.4251 43.1925 20.4001C43.1925 21.2401 43.05 22.0501 42.78 22.8001H38.67C39.24 22.1626 39.585 21.3226 39.585 20.4001H39.6Z" fill="#271332"/>
</svg>
