<svg width="48" height="48" viewBox="0 0 48 48" fill="none" xmlns="http://www.w3.org/2000/svg">
<path d="M25.2673 22.8C25.2223 22.4025 25.1998 22.005 25.1998 21.6C25.1998 15.6375 30.0373 10.8 35.9998 10.8C36.1948 10.8 36.3898 10.8075 36.5773 10.815C35.2573 9.33005 33.3373 8.40005 31.1998 8.40005C30.3448 8.40005 29.5273 8.55005 28.7698 8.82005C27.2923 6.40505 24.6373 4.80005 21.5998 4.80005C18.5623 4.80005 15.9073 6.41255 14.4298 8.82005C13.6723 8.55005 12.8548 8.40005 11.9998 8.40005C8.0248 8.40005 4.7998 11.625 4.7998 15.6C4.7998 19.575 8.0248 22.8 11.9998 22.8H15.8773L10.9348 17.8575C10.3498 17.2725 10.3498 16.32 10.9348 15.735C11.5198 15.15 12.4723 15.15 13.0573 15.735L20.0998 22.7775V13.2C20.0998 12.375 20.7748 11.7 21.5998 11.7C22.4248 11.7 23.0998 12.375 23.0998 13.2V22.8H25.2673ZM6.8548 26.4C5.7223 26.4 4.7998 27.3225 4.7998 28.455C4.7998 33.7425 8.1298 38.2575 12.8023 40.0126L12.9373 41.0926C13.0873 42.2926 14.1073 43.1926 15.3223 43.1926H32.6848C33.8923 43.1926 34.9198 42.2926 35.0698 41.0926L35.2048 40.0126C39.8773 38.2575 43.2073 33.7425 43.2073 28.455C43.2073 27.3225 42.2848 26.4 41.1523 26.4H6.8548ZM43.1998 21.6C43.1998 17.625 39.9748 14.4 35.9998 14.4C32.0248 14.4 28.7998 17.625 28.7998 21.6C28.7998 22.0126 28.8373 22.41 28.8973 22.8H43.0948C43.1623 22.41 43.1923 22.0126 43.1923 21.6H43.1998Z" fill="#271332"/>
</svg>
