<svg width="48" height="48" viewBox="0 0 48 48" fill="none" xmlns="http://www.w3.org/2000/svg">
<path d="M24.0002 7.19995C17.9402 7.19995 13.0877 9.95995 9.55516 13.245C6.04516 16.5075 3.69766 20.4 2.58016 23.0775C2.33266 23.67 2.33266 24.3299 2.58016 24.9224C3.69766 27.5999 6.04516 31.4999 9.55516 34.7549C13.0877 38.0324 17.9402 40.7999 24.0002 40.7999C30.0602 40.7999 34.9127 38.0399 38.4452 34.7549C41.9552 31.4924 44.3027 27.5999 45.4202 24.9224C45.6677 24.3299 45.6677 23.67 45.4202 23.0775C44.3027 20.4 41.9552 16.5 38.4452 13.245C34.9127 9.96745 30.0602 7.19995 24.0002 7.19995ZM13.2002 24C13.2002 18.0375 18.0377 13.2 24.0002 13.2C29.9627 13.2 34.8002 18.0375 34.8002 24C34.8002 29.9625 29.9627 34.7999 24.0002 34.7999C18.0377 34.7999 13.2002 29.9625 13.2002 24ZM24.0002 19.2C24.0002 21.8475 21.8477 24 19.2002 24C18.3377 24 17.5277 23.775 16.8227 23.37C16.7477 24.1875 16.8152 25.0274 17.0402 25.8599C18.0677 29.6999 22.0202 31.9799 25.8602 30.9524C29.7002 29.925 31.9802 25.9725 30.9527 22.1325C30.0377 18.705 26.7902 16.5225 23.3702 16.8225C23.7677 17.52 24.0002 18.33 24.0002 19.2Z" fill="#271332"/>
</svg>
