<?xml version="1.0" encoding="UTF-8"?>
<!--
Soliguide: Useful information for those who need it

SPDX-FileCopyrightText: © 2025 Solinum

SPDX-License-Identifier: AGPL-3.0-only

This program is free software: you can redistribute it and/or modify
it under the terms of the GNU Affero General Public License as published
by the Free Software Foundation, either version 3 of the License, or
(at your option) any later version.

This program is distributed in the hope that it will be useful,
but WITHOUT ANY WARRANTY; without even the implied warranty of
MERCHANTABILITY or FITNESS FOR A PARTICULAR PURPOSE.  See the
GNU Affero General Public License for more details.

You should have received a copy of the GNU Affero General Public License
along with this program.  If not, see <https://www.gnu.org/licenses/>.
-->
<svg version="1.1" width="667" height="667" xmlns="http://www.w3.org/2000/svg"><path d="M519.000 51.985 L 519.000 87.000 484.500 87.000 L 450.000 87.000 450.000 117.000 L 450.000 147.000 484.487 147.000 L 518.974 147.000 519.237 181.750 L 519.500 216.500 549.500 216.500 L 579.500 216.500 579.500 181.749 L 579.500 146.999 614.250 146.999 L 649.000 147.000 649.000 117.000 L 649.000 87.000 614.500 87.000 C 587.579 87.000,579.995 86.725,579.976 85.750 C 579.963 85.063,579.850 69.425,579.726 51.000 L 579.500 17.500 549.250 17.235 L 519.000 16.971 519.000 51.985 M327.000 275.704 C 288.070 278.767,264.746 282.919,234.500 292.172 C 163.997 313.739,90.087 359.221,32.000 416.784 L 14.500 434.126 27.522 446.813 C 96.473 513.991,175.412 560.593,252.030 579.353 C 264.936 582.514,288.783 586.621,299.500 587.529 C 303.900 587.902,308.850 588.389,310.500 588.611 C 315.237 589.248,354.858 589.170,361.500 588.510 C 389.391 585.741,408.003 582.404,431.339 575.988 C 489.745 559.930,546.409 529.245,601.000 484.113 C 613.145 474.072,649.830 438.103,651.899 434.206 C 653.049 432.041,651.976 430.775,632.809 411.675 C 621.639 400.544,607.325 387.003,601.000 381.583 C 544.064 332.798,488.520 302.171,428.500 286.467 C 413.376 282.510,391.730 278.442,381.000 277.541 C 376.875 277.194,372.283 276.674,370.796 276.386 C 367.830 275.810,332.614 275.262,327.000 275.704 M395.500 296.532 C 406.630 298.203,429.198 303.756,443.000 308.221 C 503.141 327.675,560.581 364.306,615.500 418.228 L 630.500 432.955 615.500 447.794 C 570.501 492.311,516.153 527.473,458.000 549.693 C 436.144 558.044,404.668 566.251,384.000 568.987 C 379.325 569.606,374.375 570.276,373.000 570.477 C 366.217 571.468,355.080 572.165,341.500 572.447 C 251.169 574.324,160.994 538.423,74.000 465.949 C 59.823 454.138,39.000 435.179,39.000 434.081 C 39.000 432.675,61.163 411.728,73.589 401.390 C 128.006 356.113,187.368 323.390,245.890 306.411 C 254.354 303.955,261.441 302.108,261.640 302.306 C 261.838 302.505,259.419 304.430,256.263 306.584 C 248.253 312.051,233.359 327.066,227.084 336.000 C 217.690 349.373,211.582 362.882,207.414 379.500 C 204.022 393.026,203.102 415.326,205.370 429.083 C 213.023 475.507,246.307 514.722,290.244 529.080 C 303.278 533.339,314.719 535.138,329.000 535.174 C 342.902 535.209,349.612 534.574,358.500 532.383 C 395.873 523.172,425.880 499.735,442.875 466.482 C 452.264 448.110,456.264 430.780,456.256 408.500 C 456.245 375.105,444.649 346.229,421.594 322.188 C 412.283 312.478,404.963 306.612,393.562 299.722 C 387.735 296.201,386.332 295.000,388.500 295.391 C 390.150 295.688,393.300 296.202,395.500 296.532 M301.714 342.564 C 311.539 347.365,319.000 359.145,319.000 369.856 C 319.000 387.095,305.543 400.993,288.726 401.122 C 285.048 401.151,279.816 400.435,277.099 399.533 C 270.753 397.425,263.632 391.135,260.222 384.623 C 257.895 380.182,257.536 378.303,257.519 370.500 C 257.503 362.993,257.888 360.753,259.837 357.000 C 268.039 341.208,286.158 334.963,301.714 342.564 " stroke="none" fill="black" fill-rule="evenodd"/></svg>