<svg width="48" height="48" viewBox="0 0 48 48" fill="none" xmlns="http://www.w3.org/2000/svg">
<path d="M25.8 6.60005C25.8 5.60255 24.9975 4.80005 24 4.80005C23.0025 4.80005 22.2 5.60255 22.2 6.60005V9.60005H19.05C16.6425 9.60005 14.3775 10.9125 13.2975 13.155C12.24 15.345 10.7325 18.7276 9.48 22.4776C8.235 26.1975 7.2075 30.4051 7.2075 34.2001V35.0776C7.2075 38.2351 9.7725 40.8 12.93 40.8C13.77 40.8 14.6025 40.6126 15.3675 40.2526L20.685 37.7476C21.18 37.515 21.69 37.3426 22.2075 37.215V41.3926C22.2075 42.3901 23.01 43.1926 24.0075 43.1926C25.005 43.1926 25.8075 42.3901 25.8075 41.3926V37.215C26.325 37.3351 26.835 37.515 27.33 37.7476L32.6475 40.2526C33.4125 40.6126 34.245 40.8 35.085 40.8C38.2425 40.8 40.8075 38.2351 40.8075 35.0776V34.2001C40.8075 30.4051 39.7725 26.1975 38.535 22.4776C37.2825 18.7276 35.7675 15.345 34.7175 13.155C33.6375 10.9125 31.3725 9.60005 28.965 9.60005H25.815V6.60005H25.8ZM22.2 13.2V17.7225L14.52 19.26C15.2475 17.4825 15.9675 15.915 16.545 14.715C16.9875 13.7925 17.9475 13.2 19.0575 13.2H22.2075H22.2ZM13.02 23.235L22.2 21.3975V25.65L11.4525 28.785C11.82 27.075 12.3225 25.3275 12.8925 23.6175C12.9375 23.49 12.9825 23.3551 13.0275 23.2276L13.02 23.235ZM10.86 32.7076L22.2 29.4V33.555C21.15 33.72 20.1225 34.035 19.1475 34.5L13.83 37.0051C13.545 37.14 13.2375 37.2076 12.9225 37.2076C11.7525 37.2076 10.8 36.255 10.8 35.085V34.2076C10.8 33.7201 10.8225 33.225 10.86 32.7151V32.7076ZM25.8 33.555V29.4L37.14 32.7076C37.1775 33.2176 37.2 33.7125 37.2 34.2001V35.0776C37.2 36.2476 36.2475 37.2001 35.0775 37.2001C34.7625 37.2001 34.455 37.1325 34.17 36.9976L28.8525 34.4925C27.87 34.035 26.8425 33.72 25.8 33.5475V33.555ZM36.5475 28.785L25.8 25.65V21.3975L34.98 23.235C35.025 23.3625 35.07 23.4975 35.115 23.625C35.685 25.3275 36.1875 27.075 36.555 28.7925L36.5475 28.785ZM33.48 19.26L25.8 17.7225V13.2H28.95C30.06 13.2 31.0125 13.7925 31.4625 14.715C32.04 15.915 32.76 17.4825 33.4875 19.26H33.48ZM0 14.4V41.4001C0 42.3975 0.8025 43.2001 1.8 43.2001C2.7975 43.2001 3.6 42.3975 3.6 41.4001V22.2001C3.6 21.7125 3.855 21.2701 4.2675 21.0151L7.05 19.35C8.6325 18.405 9.6 16.695 9.6 14.85V14.4C9.6 11.7525 7.4475 9.60005 4.8 9.60005C2.1525 9.60005 0 11.7525 0 14.4ZM43.2 9.60005C40.5525 9.60005 38.4 11.7525 38.4 14.4V14.85C38.4 16.695 39.3675 18.405 40.95 19.35L43.7325 21.0225C44.145 21.27 44.4 21.7201 44.4 22.2076V41.4075C44.4 42.405 45.2025 43.2076 46.2 43.2076C47.1975 43.2076 48 42.405 48 41.4075V14.4075C48 11.76 45.8475 9.60755 43.2 9.60755V9.60005Z" fill="#271332"/>
</svg>
