<svg width="48" height="48" viewBox="0 0 48 48" fill="none" xmlns="http://www.w3.org/2000/svg">
<path d="M26.4 7.20005C26.4 5.87255 25.3275 4.80005 24 4.80005C22.6725 4.80005 21.6 5.87255 21.6 7.20005V9.60005H19.515C17.0025 9.60005 14.5875 10.92 13.3575 13.2675C11.28 17.2425 7.1925 25.965 7.1925 33.6V34.875C7.1925 38.1451 9.8475 40.8 13.1175 40.8C14.25 40.8 15.375 40.5975 16.4325 40.2001L21.465 38.3101C21.51 38.295 21.5475 38.2801 21.5925 38.2651V40.8C21.5925 42.1276 22.665 43.2001 23.9925 43.2001C25.32 43.2001 26.3925 42.1276 26.3925 40.8V38.2651C26.4375 38.2801 26.475 38.295 26.52 38.3101L31.56 40.2001C32.6175 40.5975 33.7425 40.8 34.875 40.8C38.145 40.8 40.8 38.1451 40.8 34.875V33.6C40.8 25.965 36.7125 17.235 34.635 13.2675C33.4125 10.9275 30.9975 9.60005 28.4775 9.60005H26.3925V7.20005H26.4ZM21.6 14.4V17.2725L16.1475 18.4875C16.6725 17.3475 17.1825 16.335 17.6175 15.4875C17.955 14.8425 18.66 14.4 19.515 14.4H21.6ZM13.95 23.8951L21.6 22.1925V25.17L12.84 27.555C13.1475 26.3175 13.53 25.0875 13.9425 23.8951H13.95ZM12.0225 32.7526L21.6 30.1425V33.2925C20.985 33.42 20.3775 33.5926 19.785 33.8175L14.7525 35.7076C14.2275 35.9025 13.68 36 13.125 36C12.5025 36 12 35.4976 12 34.875V33.6C12 33.3225 12.0075 33.0375 12.0225 32.7526ZM26.4 33.2925V30.225L35.31 32.8951C35.535 32.9626 35.7675 32.9925 35.9925 33C36 33.2026 36 33.3976 36 33.6V34.875C36 35.4976 35.4975 36 34.875 36C34.32 36 33.765 35.9025 33.2475 35.7076L28.215 33.8175C27.6225 33.5926 27.015 33.42 26.4 33.2925ZM35.235 27.8625L26.4 25.215V22.1925L34.05 23.8951C34.5 25.1851 34.905 26.5275 35.2275 27.8701L35.235 27.8625ZM31.86 18.4875L26.4075 17.2725V14.4H28.4925C29.3475 14.4 30.0525 14.8425 30.39 15.4875C30.8325 16.335 31.335 17.3475 31.86 18.4875ZM0 15.6V40.8C0 42.1276 1.0725 43.2001 2.4 43.2001C3.7275 43.2001 4.8 42.1276 4.8 40.8V22.8C4.8 22.0425 5.1525 21.33 5.76 20.88L7.68 19.4401C8.8875 18.5325 9.6 17.1075 9.6 15.6C9.6 12.9525 7.4475 10.8 4.8 10.8C2.1525 10.8 0 12.9525 0 15.6ZM43.2 10.8C40.5525 10.8 38.4 12.9525 38.4 15.6C38.4 17.1075 39.1125 18.5325 40.32 19.4401L42.24 20.88C42.8475 21.33 43.2 22.0425 43.2 22.8V40.8C43.2 42.1276 44.2725 43.2001 45.6 43.2001C46.9275 43.2001 48 42.1276 48 40.8V15.6C48 12.9525 45.8475 10.8 43.2 10.8Z" fill="#271332"/>
</svg>
