<?xml version="1.0" encoding="UTF-8"?>
<!--
Soliguide: Useful information for those who need it

SPDX-FileCopyrightText: © 2025 Solinum

SPDX-License-Identifier: AGPL-3.0-only

This program is free software: you can redistribute it and/or modify
it under the terms of the GNU Affero General Public License as published
by the Free Software Foundation, either version 3 of the License, or
(at your option) any later version.

This program is distributed in the hope that it will be useful,
but WITHOUT ANY WARRANTY; without even the implied warranty of
MERCHANTABILITY or FITNESS FOR A PARTICULAR PURPOSE.  See the
GNU Affero General Public License for more details.

You should have received a copy of the GNU Affero General Public License
along with this program.  If not, see <https://www.gnu.org/licenses/>.
-->
<svg version="1.1" width="667" height="667" xmlns="http://www.w3.org/2000/svg"><path d="M463.500 14.664 C 439.957 16.771,408.452 25.790,385.500 36.993 C 325.433 66.314,293.537 119.748,291.482 194.500 C 290.221 240.384,303.815 283.721,330.845 319.988 C 338.564 330.344,357.672 349.301,368.500 357.345 C 386.835 370.965,402.518 377.015,419.410 376.983 C 431.802 376.959,440.834 374.873,451.500 369.570 C 462.520 364.091,471.435 356.875,477.998 348.121 C 488.486 334.134,492.529 321.932,493.970 299.924 C 494.490 291.991,495.616 282.800,496.472 279.500 C 501.330 260.789,513.263 246.781,533.031 236.584 C 574.812 215.033,609.559 182.896,620.818 155.390 C 625.721 143.412,626.500 139.316,626.500 125.500 C 626.500 113.862,626.197 111.575,623.606 103.670 C 618.684 88.653,609.341 74.660,594.224 59.661 C 570.366 35.991,541.240 21.882,503.000 15.473 C 498.787 14.767,469.135 14.159,463.500 14.664 M161.500 25.045 C 141.700 28.245,113.238 32.783,98.250 35.128 L 71.000 39.392 71.000 97.763 L 71.000 156.135 68.750 155.413 C 55.065 151.023,40.639 153.020,30.176 160.752 C 7.694 177.366,15.153 208.077,43.460 215.448 C 62.457 220.395,82.286 212.320,89.573 196.671 L 91.980 191.500 91.990 136.317 C 91.999 84.622,92.111 81.104,93.750 80.641 C 94.713 80.370,101.800 79.173,109.500 77.981 C 117.200 76.790,135.774 73.831,150.775 71.407 C 165.777 68.983,178.714 67.000,179.525 67.000 C 180.796 67.000,181.000 71.711,181.000 101.067 L 181.000 135.135 178.896 134.467 C 174.968 133.220,165.987 132.329,161.234 132.714 C 151.698 133.487,142.601 137.664,136.298 144.166 C 118.122 162.912,130.325 191.416,158.411 195.821 C 177.922 198.880,196.667 188.725,201.569 172.438 C 202.755 168.496,203.000 154.957,203.000 93.341 L 203.000 19.000 200.250 19.113 C 198.738 19.176,181.300 21.845,161.500 25.045 M495.101 41.172 C 500.505 43.036,503.827 46.011,506.507 51.389 C 509.690 57.778,509.657 62.289,506.377 68.871 C 498.952 83.771,478.487 83.676,470.850 68.707 C 467.744 62.618,468.536 53.400,472.603 48.287 C 478.218 41.230,487.111 38.417,495.101 41.172 M426.987 60.511 C 430.509 62.358,435.677 67.969,436.939 71.315 C 440.319 80.281,435.534 92.028,426.603 96.691 C 423.079 98.531,415.769 98.741,410.928 97.142 C 406.566 95.702,401.634 90.777,399.551 85.782 C 393.939 72.327,405.678 56.713,419.987 58.601 C 422.455 58.927,425.605 59.787,426.987 60.511 M373.638 110.142 C 382.579 114.308,386.566 126.410,382.229 136.216 C 376.994 148.050,361.191 151.375,351.330 142.716 C 338.297 131.274,343.855 111.298,361.000 107.961 C 365.294 107.125,368.266 107.638,373.638 110.142 M541.768 121.548 C 556.232 127.591,558.242 147.234,545.328 156.331 C 539.467 160.460,531.127 161.046,525.000 157.760 C 513.506 151.596,510.512 136.675,518.795 126.832 C 524.029 120.611,534.025 118.312,541.768 121.548 M360.631 183.286 C 369.207 187.784,373.184 198.835,369.447 207.782 C 366.102 215.789,359.507 220.275,350.903 220.397 C 339.897 220.553,331.000 211.768,331.000 200.744 C 331.000 185.512,346.953 176.113,360.631 183.286 M630.988 199.250 C 630.982 202.137,630.348 206.860,629.580 209.744 C 626.321 221.987,620.410 229.920,610.031 235.982 C 592.089 246.461,583.923 265.380,590.820 280.488 C 593.602 286.580,596.146 289.394,601.967 292.817 C 605.672 294.996,607.635 295.438,613.467 295.408 C 619.391 295.378,621.501 294.859,626.851 292.121 C 649.334 280.610,654.878 254.278,642.559 217.500 C 638.821 206.340,633.210 194.000,631.874 194.000 C 631.393 194.000,630.995 196.363,630.988 199.250 M238.500 249.164 C 212.954 270.000,179.523 289.307,146.500 302.296 C 109.242 316.952,69.747 325.322,32.057 326.550 C 23.563 326.827,16.505 327.162,16.373 327.294 C 15.583 328.083,25.004 367.122,31.022 388.000 C 51.670 459.632,79.056 512.242,113.528 546.500 C 135.636 568.470,158.460 581.355,186.500 587.694 C 194.895 589.592,222.754 590.352,231.500 588.921 C 255.416 585.010,274.995 575.101,290.148 559.241 C 341.000 506.014,338.261 411.110,282.565 296.500 C 269.794 270.220,252.561 239.900,250.507 240.096 C 249.953 240.150,244.550 244.230,238.500 249.164 M582.500 300.954 C 577.844 302.880,575.404 307.905,561.041 345.158 C 535.268 412.007,499.628 504.347,486.473 538.360 C 475.092 567.789,473.819 571.701,474.284 575.827 C 475.139 583.416,481.765 588.017,489.696 586.529 C 494.749 585.581,497.299 582.358,503.169 569.500 C 509.733 555.121,535.453 498.924,556.488 453.000 C 565.683 432.925,578.966 403.900,586.006 388.500 C 593.046 373.100,602.715 351.950,607.492 341.500 C 615.192 324.659,616.124 322.003,615.698 318.128 C 615.032 312.063,611.568 309.045,599.592 304.095 C 589.718 300.014,586.294 299.385,582.500 300.954 M249.294 348.488 C 252.437 349.307,256.683 350.676,258.729 351.531 L 262.448 353.085 258.411 355.379 C 244.689 363.173,229.305 376.656,219.443 389.531 C 216.297 393.639,213.506 397.000,213.240 397.000 C 212.206 397.000,214.253 378.332,216.063 371.253 C 218.790 360.593,223.364 353.441,229.494 350.253 C 236.312 346.708,240.891 346.300,249.294 348.488 M125.854 403.540 C 132.070 406.378,143.753 413.964,146.382 416.870 C 148.186 418.863,148.135 418.872,134.847 418.861 C 119.298 418.848,104.903 420.798,93.156 424.510 C 88.567 425.960,84.614 426.947,84.371 426.704 C 83.506 425.839,88.552 414.056,91.682 409.633 C 95.486 404.256,98.660 402.031,104.724 400.491 C 110.439 399.040,118.568 400.213,125.854 403.540 M270.374 468.000 C 276.107 485.740,274.145 503.123,264.641 518.767 C 257.541 530.455,244.564 541.100,231.534 545.925 C 211.165 553.466,188.357 550.885,172.936 539.293 C 163.149 531.936,153.423 515.893,150.561 502.386 L 149.901 499.271 158.200 501.697 C 184.566 509.401,210.509 505.911,231.564 491.829 C 240.813 485.643,251.340 474.380,258.647 462.854 L 264.364 453.836 266.157 457.168 C 267.143 459.001,269.041 463.875,270.374 468.000 " stroke="none" fill="black" fill-rule="evenodd"/></svg>