<svg width="48" height="48" viewBox="0 0 48 48" fill="none" xmlns="http://www.w3.org/2000/svg">
<path d="M10.8977 16.5375C9.34523 16.8075 8.20523 18.0375 7.96523 19.515C7.86023 20.1675 8.50523 20.6175 9.15773 20.505L13.2227 19.785V16.9125C12.5327 16.545 11.7227 16.395 10.8977 16.5375ZM9.85523 28.53C9.71273 29.2575 10.3952 29.82 11.1227 29.6925L13.3052 29.31C13.2527 28.7325 13.2227 28.1475 13.2227 27.5625V23.7075C11.4677 24.7575 10.2377 26.52 9.85523 28.53ZM6.50273 26.1375L4.39523 14.1975C4.38773 14.145 4.38773 14.115 4.38773 14.0925C5.43773 12.5775 8.49023 9.65249 14.3777 8.61749C15.3227 8.45249 16.2227 8.35499 17.0627 8.31749C18.6227 7.18499 20.6552 6.11999 23.1452 5.36249C20.6852 4.70249 17.5202 4.40999 13.7477 5.07749C6.85523 6.29249 2.96273 9.80249 1.39523 12.0975C0.78773 12.9825 0.69773 13.995 0.84773 14.835L2.95523 26.7675C4.11773 33.36 9.36773 38.46 15.9827 39.4425L17.5502 39.675C16.5227 38.415 15.6527 37.0275 14.9777 35.55C10.6352 34.305 7.30523 30.6825 6.51023 26.145L6.50273 26.1375ZM31.2227 7.79999C24.2252 7.79999 19.7852 10.575 17.8352 12.57C17.0852 13.335 16.8227 14.325 16.8227 15.165V27.2925C16.8227 33.9825 21.1052 39.9225 27.4502 42.0375L29.2052 42.6225C30.5177 43.0575 31.9277 43.0575 33.2402 42.6225L34.9952 42.0375C41.3402 39.9225 45.6227 33.9825 45.6227 27.2925V15.165C45.6227 14.3175 45.3602 13.335 44.6102 12.57C42.6602 10.5825 38.2202 7.79999 31.2227 7.79999ZM20.4227 15.165C20.4227 15.1125 20.4302 15.0825 20.4302 15.06C21.7277 13.7475 25.2452 11.4 31.2227 11.4C37.2002 11.4 40.7102 13.7475 42.0077 15.06C42.0152 15.075 42.0227 15.1125 42.0227 15.165V27.2925C42.0227 32.4375 38.7302 36.9975 33.8552 38.625L32.1002 39.21C31.5302 39.3975 30.9152 39.3975 30.3377 39.21L28.5977 38.625C23.7227 36.9975 20.4302 32.4375 20.4302 27.2925V15.165H20.4227ZM23.0252 21.6225C22.8077 22.2525 23.3627 22.8 24.0302 22.8H28.8302C29.4902 22.8 30.0527 22.245 29.8352 21.6225C29.3477 20.2125 28.0052 19.2 26.4302 19.2C24.8552 19.2 23.5127 20.2125 23.0252 21.6225ZM38.4227 22.8C39.0827 22.8 39.6452 22.245 39.4277 21.6225C38.9402 20.2125 37.5977 19.2 36.0227 19.2C34.4477 19.2 33.1052 20.2125 32.6177 21.6225C32.4002 22.2525 32.9552 22.8 33.6227 22.8H38.4227ZM22.9877 28.0275C23.7452 31.8825 27.1502 34.8 31.2302 34.8C35.3102 34.8 38.7152 31.89 39.4727 28.0275C39.5777 27.5025 38.9477 27.2025 38.5202 27.5325C36.5027 29.0775 33.9752 30 31.2302 30C28.4852 30 25.9652 29.0775 23.9402 27.5325C23.5127 27.2025 22.8827 27.5025 22.9877 28.0275Z" fill="#271332"/>
</svg>
