<svg width="48" height="48" viewBox="0 0 48 48" fill="none" xmlns="http://www.w3.org/2000/svg">
<path d="M2.02503 13.65L4.16253 25.7775C5.21253 31.74 9.88503 36.4125 15.8475 37.4625L16.8 37.6275C15.5625 35.4825 14.7675 33.075 14.505 30.54L12.6975 30.8625C11.97 30.99 11.2875 30.4275 11.43 29.7C11.79 27.8475 12.8625 26.205 14.4075 25.1325V19.5375C14.3025 19.5975 14.1825 19.635 14.055 19.6575L9.33003 20.49C8.67753 20.6025 8.03253 20.16 8.13753 19.5075C8.37003 18.0375 9.51753 16.8075 11.07 16.53C12.36 16.305 13.6125 16.7925 14.415 17.715V16.0125C14.415 14.325 14.9325 12.0825 16.8375 10.5075C18.7875 8.895 21.915 7.215 26.205 6.4425C23.9175 5.22 19.7325 4.0425 13.92 5.0625C7.89753 6.1275 4.32003 8.82 2.66253 10.77C1.98753 11.5575 1.85253 12.6375 2.03253 13.6575L2.02503 13.65ZM18 15.2025V28.3125C18 34.365 21.7875 39.78 27.48 41.8425L29.5575 42.6C30.615 42.9825 31.7775 42.9825 32.835 42.6L34.92 41.85C40.6125 39.78 44.4 34.3725 44.4 28.3125V15.2025C44.4 14.685 44.2425 14.1675 43.875 13.8075C42.18 12.12 38.01 9.6075 31.2 9.6075C24.39 9.6075 20.22 12.1275 18.525 13.8075C18.1575 14.175 18 14.685 18 15.2025ZM22.9575 29.235C22.8525 28.71 23.4825 28.41 23.91 28.74C25.9275 30.285 28.455 31.2075 31.2 31.2075C33.945 31.2075 36.465 30.285 38.49 28.74C38.9175 28.41 39.5475 28.71 39.4425 29.235C38.685 33.09 35.28 36.0075 31.2 36.0075C27.12 36.0075 23.715 33.0975 22.9575 29.235ZM22.995 21.6225C23.49 20.2125 24.825 19.2 26.4 19.2C27.975 19.2 29.3175 20.2125 29.805 21.6225C30.0225 22.2525 29.4675 22.8 28.8 22.8H24C23.34 22.8 22.7775 22.245 22.995 21.6225ZM38.4 22.8H33.6C32.94 22.8 32.3775 22.245 32.595 21.6225C33.0825 20.2125 34.425 19.2 36 19.2C37.575 19.2 38.9175 20.2125 39.405 21.6225C39.6225 22.2525 39.0675 22.8 38.4 22.8Z" fill="#271332"/>
</svg>
