<?xml version="1.0" encoding="UTF-8"?>
<!--
Soliguide: Useful information for those who need it

SPDX-FileCopyrightText: © 2025 Solinum

SPDX-License-Identifier: AGPL-3.0-only

This program is free software: you can redistribute it and/or modify
it under the terms of the GNU Affero General Public License as published
by the Free Software Foundation, either version 3 of the License, or
(at your option) any later version.

This program is distributed in the hope that it will be useful,
but WITHOUT ANY WARRANTY; without even the implied warranty of
MERCHANTABILITY or FITNESS FOR A PARTICULAR PURPOSE.  See the
GNU Affero General Public License for more details.

You should have received a copy of the GNU Affero General Public License
along with this program.  If not, see <https://www.gnu.org/licenses/>.
-->
<svg version="1.1" width="667" height="667" xmlns="http://www.w3.org/2000/svg"><path d="M418.500 68.435 C 404.300 71.760,393.747 77.369,383.745 86.906 L 376.768 93.559 387.289 93.170 C 411.658 92.268,434.957 101.610,451.153 118.779 C 459.551 127.681,464.155 135.364,468.037 146.952 C 470.667 154.801,471.185 157.914,471.273 166.398 C 471.330 171.954,470.790 178.975,470.071 182.000 C 468.610 188.153,461.875 203.341,460.130 204.420 C 459.509 204.804,459.000 205.564,459.000 206.110 C 459.000 206.655,462.712 205.176,467.250 202.824 C 481.685 195.339,495.039 180.203,500.806 164.788 C 504.226 155.648,506.241 142.758,505.517 134.655 C 502.782 104.061,484.070 80.032,455.500 70.426 C 445.636 67.109,428.174 66.169,418.500 68.435 M21.315 248.007 C 20.114 248.491,18.654 249.777,18.072 250.865 C 16.898 253.059,16.422 583.331,17.589 586.370 C 19.210 590.595,22.381 591.000,53.874 591.000 L 83.847 591.000 86.923 588.411 L 90.000 585.822 90.000 551.411 L 90.000 517.000 333.000 517.000 L 576.000 517.000 576.032 551.250 C 576.055 576.596,576.380 585.912,577.282 587.087 C 580.094 590.750,582.345 591.000,612.484 591.000 C 645.536 591.000,647.160 590.721,648.880 584.737 C 649.415 582.877,649.744 556.685,649.655 523.163 L 649.500 464.826 646.694 462.413 L 643.888 460.000 366.944 460.000 L 90.000 460.000 89.968 356.250 C 89.935 246.446,90.119 250.721,85.316 248.163 C 82.690 246.765,24.750 246.623,21.315 248.007 M193.500 305.759 C 179.340 307.507,167.276 313.607,156.364 324.535 C 147.028 333.885,141.942 343.057,139.364 355.191 C 137.357 364.640,138.019 379.106,140.866 388.000 C 145.105 401.242,155.168 414.274,167.117 421.997 C 185.025 433.571,210.769 434.811,229.955 425.023 C 236.655 421.605,246.012 413.833,250.591 407.882 C 255.929 400.945,261.312 389.702,262.887 382.201 C 264.465 374.688,264.266 360.465,262.485 353.460 C 256.962 331.734,238.672 313.131,217.249 307.450 C 211.523 305.931,199.208 305.054,193.500 305.759 M291.524 330.250 L 288.936 332.500 288.948 380.414 L 288.960 428.329 291.154 430.664 L 293.349 433.000 467.486 433.000 C 641.350 433.000,641.626 432.997,643.811 430.961 C 645.015 429.840,646.034 428.602,646.077 428.211 C 646.119 427.820,646.330 426.600,646.546 425.500 C 647.298 421.669,644.912 405.442,642.357 397.008 C 637.305 380.333,629.076 367.088,616.168 354.860 C 605.923 345.154,594.195 337.863,582.149 333.711 C 565.293 327.901,568.237 328.008,425.306 328.004 L 294.112 328.000 291.524 330.250 " stroke="none" fill="black" fill-rule="evenodd"/></svg>