<svg width="48" height="48" viewBox="0 0 48 48" fill="none" xmlns="http://www.w3.org/2000/svg">
<path d="M22.7473 8.45255C14.7148 9.09005 8.3998 15.81 8.3998 24C8.3998 32.6175 15.3823 39.6001 23.9998 39.6001C26.4973 39.6001 28.8523 39.015 30.9448 37.9725C23.1898 36.2175 17.3998 29.2875 17.3998 21C17.3998 16.065 19.4548 11.6175 22.7473 8.45255ZM4.7998 24C4.7998 13.3951 13.3948 4.80005 23.9998 4.80005C25.4548 4.80005 26.8798 4.96505 28.2523 5.27255C28.9948 5.43755 29.5498 6.06005 29.6398 6.81005C29.7298 7.56005 29.3398 8.29505 28.6573 8.64005C24.1123 10.905 20.9998 15.5925 20.9998 21C20.9998 28.6201 27.1798 34.8001 34.7998 34.8001C35.1748 34.8001 35.5423 34.785 35.9098 34.755C36.6673 34.695 37.3798 35.115 37.6948 35.8125C38.0098 36.51 37.8448 37.32 37.2973 37.8451C33.8473 41.16 29.1598 43.2001 23.9998 43.2001C13.3948 43.2001 4.7998 34.605 4.7998 24Z" fill="#271332"/>
</svg>
