<svg width="48" height="48" viewBox="0 0 48 48" fill="none" xmlns="http://www.w3.org/2000/svg">
<path d="M23.9998 4.80005C13.3948 4.80005 4.7998 13.3951 4.7998 24C4.7998 34.605 13.3948 43.2001 23.9998 43.2001C29.1598 43.2001 33.8473 41.16 37.2973 37.8451C37.8448 37.32 38.0023 36.5026 37.6948 35.8125C37.3873 35.1226 36.6673 34.695 35.9098 34.755C35.5423 34.785 35.1748 34.8001 34.7998 34.8001C27.1798 34.8001 20.9998 28.6201 20.9998 21C20.9998 15.5925 24.1123 10.905 28.6573 8.64005C29.3398 8.30255 29.7298 7.56755 29.6398 6.81005C29.5498 6.05255 28.9948 5.43755 28.2523 5.27255C26.8798 4.96505 25.4548 4.80005 23.9998 4.80005Z" fill="#271332"/>
</svg>
