<svg width="48" height="48" viewBox="0 0 48 48" fill="none" xmlns="http://www.w3.org/2000/svg">
<path d="M24 2.39999C25.6575 2.39999 27 3.74249 27 5.39999C27 7.05749 25.6575 8.39999 24 8.39999C22.3425 8.39999 21 7.05749 21 5.39999C21 3.74249 22.3425 2.39999 24 2.39999ZM3 9.59999C4.6575 9.59999 6 10.9425 6 12.6V24.615C6 25.89 6.5025 27.1125 7.4025 28.0125L11.235 31.845C11.8575 32.4675 12.8325 32.565 13.56 32.0775C14.5275 31.4325 14.6625 30.06 13.8375 29.2425C13.29 28.695 12.105 27.51 10.2975 25.7025C9.36 24.765 9.36 23.2425 10.2975 22.305C11.235 21.3675 12.7575 21.3675 13.695 22.305C15.5025 24.1125 16.6875 25.2975 17.235 25.845L19.1325 27.7425C20.7075 29.3175 21.5925 31.455 21.5925 33.6825V39.6C21.5925 41.5875 19.98 43.2 17.9925 43.2H12.99C11.715 43.2 10.4925 42.6975 9.5925 41.7975L2.1075 34.305C0.7575 32.955 0 31.125 0 29.2125V12.6C0 10.9425 1.3425 9.59999 3 9.59999ZM45 9.59999C46.6575 9.59999 48 10.9425 48 12.6V29.2125C48 31.125 47.2425 32.955 45.8925 34.305L38.4 41.7975C37.5 42.6975 36.2775 43.2 35.0025 43.2H30C28.0125 43.2 26.4 41.5875 26.4 39.6V33.6825C26.4 31.455 27.285 29.3175 28.86 27.7425L30.7575 25.845C31.305 25.2975 32.49 24.1125 34.2975 22.305C35.235 21.3675 36.7575 21.3675 37.695 22.305C38.6325 23.2425 38.6325 24.765 37.695 25.7025C35.8875 27.51 34.7025 28.695 34.155 29.2425C33.33 30.0675 33.465 31.4325 34.4325 32.0775C35.16 32.565 36.135 32.4675 36.7575 31.845L40.59 28.0125C41.49 27.1125 41.9925 25.89 41.9925 24.615L42 12.6C42 10.9425 43.3425 9.59999 45 9.59999ZM28.8375 15.975L27.3525 14.7225L28.185 21.3825C28.305 22.3725 27.6075 23.265 26.625 23.3925C25.6425 23.52 24.7425 22.815 24.615 21.8325L24.285 19.2075H23.715L23.385 21.8325C23.265 22.8225 22.365 23.52 21.375 23.3925C20.385 23.265 19.6875 22.3725 19.815 21.3825L20.6475 14.7225L19.1625 15.975C18.405 16.62 17.265 16.5225 16.6275 15.765C15.99 15.0075 16.08 13.8675 16.8375 13.23L18.93 11.46C20.3475 10.26 22.1475 9.59999 24 9.59999C25.8525 9.59999 27.6525 10.26 29.07 11.4525L31.1625 13.2225C31.92 13.8675 32.0175 15 31.3725 15.7575C30.7275 16.515 29.595 16.6125 28.8375 15.9675V15.975Z" fill="#271332"/>
</svg>
