<?xml version="1.0" encoding="UTF-8"?>
<!--
Soliguide: Useful information for those who need it

SPDX-FileCopyrightText: © 2025 Solinum

SPDX-License-Identifier: AGPL-3.0-only

This program is free software: you can redistribute it and/or modify
it under the terms of the GNU Affero General Public License as published
by the Free Software Foundation, either version 3 of the License, or
(at your option) any later version.

This program is distributed in the hope that it will be useful,
but WITHOUT ANY WARRANTY; without even the implied warranty of
MERCHANTABILITY or FITNESS FOR A PARTICULAR PURPOSE.  See the
GNU Affero General Public License for more details.

You should have received a copy of the GNU Affero General Public License
along with this program.  If not, see <https://www.gnu.org/licenses/>.
-->
<svg width="48" height="48" viewBox="0 0 48 48" fill="none" xmlns="http://www.w3.org/2000/svg">
<path d="M14 4C16.2 4 18 5.8 18 8C18 10.2 16.2 12 14 12C11.8 12 10 10.2 10 8C10 5.8 11.8 4 14 4ZM32 19C32 20.66 33.34 22 35 22C36.66 22 38 20.66 38 19C38 17.34 36.66 16 35 16C33.34 16 32 17.34 32 19ZM38 24H32.32C31.16 24.02 30.04 24.64 29.42 25.72L27.58 28.36L20.44 16C19.7 14.74 18.38 14.02 17.02 14H11C8.8 14 7 15.8 7 18V28C7 29.1 7.9 30 9 30H10V42C10 43.1 10.9 44 12 44H18C19.1 44 20 43.1 20 42V23.22L24.48 31C24.84 31.62 25.5 32 26.22 32H28.42C29.08 32 29.68 31.68 30.06 31.14L31 29.8V42C31 43.1 31.9 44 33 44H37C38.1 44 39 43.1 39 42V34C40.1 34 41 33.1 41 32V27C41 25.36 39.66 24 38 24Z" fill="#404040"/>
</svg>
