<?xml version="1.0" encoding="UTF-8"?>
<!--
Soliguide: Useful information for those who need it

SPDX-FileCopyrightText: © 2025 Solinum

SPDX-License-Identifier: AGPL-3.0-only

This program is free software: you can redistribute it and/or modify
it under the terms of the GNU Affero General Public License as published
by the Free Software Foundation, either version 3 of the License, or
(at your option) any later version.

This program is distributed in the hope that it will be useful,
but WITHOUT ANY WARRANTY; without even the implied warranty of
MERCHANTABILITY or FITNESS FOR A PARTICULAR PURPOSE.  See the
GNU Affero General Public License for more details.

You should have received a copy of the GNU Affero General Public License
along with this program.  If not, see <https://www.gnu.org/licenses/>.
-->
<svg version="1.1" width="667" height="667" xmlns="http://www.w3.org/2000/svg"><path d="M395.637 189.655 C 344.607 196.011,301.478 215.275,269.686 245.914 C 250.025 264.862,237.101 286.469,230.200 311.926 C 227.859 320.565,227.600 323.306,227.555 340.000 C 227.515 354.490,227.892 360.099,229.293 365.876 C 230.276 369.933,230.931 373.402,230.748 373.586 C 230.564 373.769,227.508 373.007,223.957 371.891 C 191.492 361.696,153.055 361.954,121.000 372.581 C 81.006 385.841,51.417 414.040,43.325 446.608 C 40.935 456.225,40.990 476.217,43.430 485.000 C 46.010 494.282,53.006 508.427,58.763 516.000 C 68.079 528.253,83.814 541.321,97.750 548.376 C 100.638 549.838,103.000 551.491,103.000 552.050 C 103.000 552.609,96.244 561.037,87.987 570.779 C 79.731 580.521,73.358 588.619,73.826 588.775 C 74.294 588.931,93.537 583.919,116.589 577.637 L 158.500 566.214 170.500 566.500 C 217.799 567.629,263.185 548.288,287.388 516.689 C 297.858 503.020,303.936 487.602,305.515 470.707 C 305.915 466.421,306.526 463.053,306.872 463.223 C 326.318 472.763,332.160 475.422,340.259 478.423 C 352.464 482.946,369.773 487.439,385.445 490.154 C 395.072 491.822,402.870 492.315,424.161 492.603 L 450.822 492.964 514.617 510.442 C 549.705 520.055,578.504 527.826,578.614 527.710 C 578.725 527.595,568.079 514.900,554.957 499.500 C 541.836 484.100,531.077 471.256,531.050 470.958 C 531.022 470.660,533.587 469.154,536.750 467.610 C 546.268 462.964,558.370 455.335,567.870 447.993 C 617.449 409.676,636.884 354.598,619.366 302.056 C 615.746 291.198,606.986 274.747,599.613 264.959 C 563.171 216.578,497.033 187.480,425.000 188.134 C 414.825 188.227,401.612 188.911,395.637 189.655 " stroke="none" fill="black" fill-rule="evenodd"/></svg>