<svg width="48" height="48" viewBox="0 0 48 48" fill="none" xmlns="http://www.w3.org/2000/svg">
<path d="M24.5999 19.2C23.0174 18.2925 21.4274 17.385 19.1999 17.0025V6.48005C21.7274 5.77505 25.7549 4.80005 28.7999 4.80005C35.9999 4.80005 45.5999 8.40005 45.5999 14.4C45.5999 20.4 36.6299 21.6 32.3999 21.6C28.7999 21.6 26.6999 20.4 24.5999 19.2ZM11.9999 7.20005H15.5999V16.8H11.9999C9.3524 16.8 7.1999 14.6475 7.1999 12C7.1999 9.35255 9.3524 7.20005 11.9999 7.20005ZM19.7999 28.8C21.8999 27.6 23.9999 26.4 27.5999 26.4C31.8299 26.4 40.7999 27.6 40.7999 33.6C40.7999 39.6001 31.1999 43.2001 23.9999 43.2001C20.9624 43.2001 16.9274 42.225 14.3999 41.5201V30.9975C16.6274 30.6075 18.2174 29.7 19.7999 28.7925V28.8ZM7.1999 40.8C4.5524 40.8 2.3999 38.6475 2.3999 36C2.3999 33.3526 4.5524 31.2001 7.1999 31.2001H10.7999V40.8H7.1999Z" fill="#271332"/>
</svg>
