<?xml version="1.0" encoding="UTF-8"?>
<!--
Soliguide: Useful information for those who need it

SPDX-FileCopyrightText: © 2025 Solinum

SPDX-License-Identifier: AGPL-3.0-only

This program is free software: you can redistribute it and/or modify
it under the terms of the GNU Affero General Public License as published
by the Free Software Foundation, either version 3 of the License, or
(at your option) any later version.

This program is distributed in the hope that it will be useful,
but WITHOUT ANY WARRANTY; without even the implied warranty of
MERCHANTABILITY or FITNESS FOR A PARTICULAR PURPOSE.  See the
GNU Affero General Public License for more details.

You should have received a copy of the GNU Affero General Public License
along with this program.  If not, see <https://www.gnu.org/licenses/>.
-->
<svg version="1.1" width="667" height="667" xmlns="http://www.w3.org/2000/svg"><path d="M519.000 51.985 L 519.000 87.000 484.500 87.000 L 450.000 87.000 450.000 117.000 L 450.000 147.000 484.487 147.000 L 518.974 147.000 519.237 181.750 L 519.500 216.500 549.500 216.500 L 579.500 216.500 579.500 181.749 L 579.500 146.999 614.250 146.999 L 649.000 147.000 649.000 117.000 L 649.000 87.000 614.500 87.000 C 587.579 87.000,579.995 86.725,579.976 85.750 C 579.963 85.063,579.850 69.425,579.726 51.000 L 579.500 17.500 549.250 17.235 L 519.000 16.971 519.000 51.985 M240.966 69.250 C 238.070 70.712,235.706 72.901,234.217 75.500 C 232.014 79.346,231.949 80.114,232.500 95.500 C 232.816 104.300,233.268 114.425,233.505 118.000 C 233.742 121.575,234.186 131.475,234.491 140.000 C 234.797 148.525,235.253 159.775,235.505 165.000 C 236.208 179.580,236.919 195.280,237.473 208.500 C 238.484 232.605,239.054 245.705,239.494 255.000 C 239.742 260.225,240.187 270.350,240.482 277.500 C 242.315 321.820,243.402 327.129,254.486 345.886 C 279.585 388.362,318.070 427.939,360.213 454.615 C 374.286 463.523,401.608 476.813,418.500 482.966 C 426.200 485.772,440.600 491.207,450.500 495.046 C 479.344 506.229,500.072 511.612,529.000 515.431 C 551.231 518.366,554.974 519.147,560.821 522.068 C 568.053 525.682,575.000 531.563,575.000 534.072 C 575.000 536.320,568.680 541.239,561.500 544.580 C 554.668 547.758,546.698 549.711,537.353 550.498 C 533.034 550.862,528.375 551.318,527.000 551.511 C 523.687 551.978,506.782 553.038,487.834 553.968 C 472.007 554.745,402.129 554.462,391.500 553.579 C 388.200 553.304,380.775 552.816,375.000 552.492 C 350.802 551.138,330.526 548.038,302.891 541.465 C 282.121 536.525,269.028 534.901,251.500 535.091 C 226.846 535.357,207.890 539.515,186.382 549.373 C 172.353 555.804,165.532 557.375,154.500 556.718 C 129.662 555.237,109.974 539.073,101.860 513.500 C 97.347 499.276,103.620 467.639,118.218 431.000 C 120.957 424.125,124.160 415.125,125.335 411.000 C 127.470 403.505,127.472 403.403,127.792 244.500 C 128.021 130.811,127.799 84.427,127.011 81.733 C 125.548 76.729,120.731 71.396,116.375 69.959 C 107.687 67.091,97.384 72.575,95.146 81.258 C 94.378 84.238,94.050 131.974,94.043 241.693 C 94.038 338.948,93.668 399.519,93.064 402.214 C 92.530 404.596,89.774 412.384,86.938 419.522 C 74.465 450.916,67.003 481.055,67.012 500.000 C 67.022 522.579,75.642 544.020,91.438 560.756 C 110.022 580.447,131.835 590.154,157.500 590.154 C 171.670 590.154,181.672 587.850,197.566 580.926 C 219.981 571.160,228.164 569.113,248.000 568.308 C 262.952 567.701,276.036 569.187,293.500 573.476 C 309.606 577.432,320.758 579.712,332.500 581.450 C 347.975 583.741,348.525 583.807,358.000 584.488 C 362.675 584.824,367.400 585.275,368.500 585.489 C 373.725 586.507,412.234 587.500,446.500 587.500 C 490.087 587.500,509.563 586.680,543.500 583.415 C 565.186 581.329,589.254 570.174,599.967 557.243 C 604.557 551.703,608.153 543.401,608.733 537.007 C 610.467 517.883,592.495 497.249,566.451 488.463 C 559.300 486.051,557.548 485.736,530.000 481.909 C 505.396 478.491,482.999 472.468,461.500 463.489 C 456.550 461.421,446.200 457.513,438.500 454.803 C 410.604 444.985,392.899 436.360,372.020 422.415 C 340.929 401.650,311.617 372.175,290.556 340.500 C 276.977 320.078,275.393 315.440,274.508 293.500 C 274.198 285.800,273.746 275.900,273.505 271.500 C 273.264 267.100,272.811 256.300,272.499 247.500 C 272.186 238.700,271.737 229.025,271.500 226.000 C 271.262 222.975,270.816 212.175,270.508 202.000 C 270.199 191.825,269.746 181.025,269.500 178.000 C 269.254 174.975,268.801 165.975,268.494 158.000 C 268.186 150.025,267.739 139.450,267.502 134.500 C 267.264 129.550,266.819 119.200,266.512 111.500 C 265.056 74.974,264.666 73.424,255.790 68.894 C 250.894 66.395,246.409 66.503,240.966 69.250 M158.579 414.250 C 155.180 417.269,153.743 426.327,153.780 444.500 C 153.804 456.145,154.230 460.116,156.310 468.105 C 162.091 490.305,173.538 503.857,192.466 510.911 C 201.247 514.182,207.228 515.099,219.474 515.051 C 229.496 515.011,230.642 514.812,232.695 512.753 C 235.518 509.922,236.137 506.280,234.382 502.821 C 232.600 499.310,230.597 498.776,218.029 498.462 C 190.887 497.783,176.125 485.132,171.537 458.619 C 169.675 447.858,169.642 444.967,171.202 429.129 L 172.421 416.759 169.655 414.379 C 166.174 411.386,161.860 411.335,158.579 414.250 " stroke="none" fill="black" fill-rule="evenodd"/></svg>