<svg width="48" height="48" viewBox="0 0 48 48" fill="none" xmlns="http://www.w3.org/2000/svg">
<path d="M9.5999 8.3998H23.9999C25.9874 8.3998 27.5999 10.0123 27.5999 11.9998H5.9999C5.9999 10.0123 7.6124 8.3998 9.5999 8.3998ZM5.9999 15.5998H19.9049C21.5324 14.0848 23.7074 13.1848 26.0474 13.1848H31.1999V11.9998C31.1999 8.0248 27.9749 4.7998 23.9999 4.7998H9.5999C5.6249 4.7998 2.3999 8.0248 2.3999 11.9998V31.1998C2.3999 33.4348 3.9299 35.3173 5.9999 35.8498V38.9998C5.9999 39.9973 6.8024 40.7998 7.7999 40.7998C8.7974 40.7998 9.5999 39.9973 9.5999 38.9998V35.9998H13.1999V32.3998H7.1999C6.5399 32.3998 5.9999 31.8598 5.9999 31.1998V22.7998H16.4249L17.4599 19.4998C17.4899 19.4023 17.5274 19.2973 17.5574 19.1998H5.9999V15.5998ZM10.7999 29.9998C12.1274 29.9998 13.1999 28.9273 13.1999 27.5998C13.1999 26.2723 12.1274 25.1998 10.7999 25.1998C9.4724 25.1998 8.3999 26.2723 8.3999 27.5998C8.3999 28.9273 9.4724 29.9998 10.7999 29.9998ZM26.0474 20.3923H36.3524C37.1399 20.3923 37.8374 20.9023 38.0699 21.6523L39.5474 26.3923H22.8449L24.3224 21.6523C24.5549 20.9023 25.2524 20.3923 26.0399 20.3923H26.0474ZM20.8949 20.5798L18.7949 27.2923C17.5874 28.1623 16.7999 29.5873 16.7999 31.1848V41.3848C16.7999 42.3823 17.6024 43.1848 18.5999 43.1848C19.5974 43.1848 20.3999 42.3823 20.3999 41.3848V40.7848H41.9999V41.3848C41.9999 42.3823 42.8024 43.1848 43.7999 43.1848C44.7974 43.1848 45.5999 42.3823 45.5999 41.3848V31.1848C45.5999 29.5798 44.8124 28.1623 43.6049 27.2923L41.5049 20.5798C40.7999 18.3223 38.7149 16.7923 36.3524 16.7923H26.0474C23.6849 16.7923 21.5999 18.3298 20.8949 20.5798ZM41.9999 34.7923V37.1923H20.3999V31.1923C20.3999 30.5323 20.9399 29.9923 21.5999 29.9923H40.7999C41.4599 29.9923 41.9999 30.5323 41.9999 31.1923V34.7923ZM23.9999 35.3923C24.9974 35.3923 25.7999 34.5898 25.7999 33.5923C25.7999 32.5948 24.9974 31.7923 23.9999 31.7923C23.0024 31.7923 22.1999 32.5948 22.1999 33.5923C22.1999 34.5898 23.0024 35.3923 23.9999 35.3923ZM40.1999 33.5923C40.1999 32.5948 39.3974 31.7923 38.3999 31.7923C37.4024 31.7923 36.5999 32.5948 36.5999 33.5923C36.5999 34.5898 37.4024 35.3923 38.3999 35.3923C39.3974 35.3923 40.1999 34.5898 40.1999 33.5923Z" fill="#271332"/>
</svg>
