<svg width="48" height="48" viewBox="0 0 48 48" fill="none" xmlns="http://www.w3.org/2000/svg">
<path d="M24.0151 3.6001C24.7651 3.6001 25.4626 3.9376 25.9051 4.5376C28.6351 8.2426 38.4001 21.9601 38.4001 28.8001C38.4001 36.7501 31.9501 43.2001 24.0001 43.2001C16.0501 43.2001 9.6001 36.7501 9.6001 28.8001C9.6001 21.9601 19.3651 8.2426 22.0951 4.5376C22.5376 3.9376 23.2351 3.6001 23.9851 3.6001H24.0151ZM24.0001 21.6001C23.0026 21.6001 22.2001 22.4026 22.2001 23.4001V27.0001H18.6001C17.6026 27.0001 16.8001 27.8026 16.8001 28.8001C16.8001 29.7976 17.6026 30.6001 18.6001 30.6001H22.2001V34.2001L22.2076 34.3876C22.2976 35.2951 23.0701 36.0001 24.0001 36.0001C24.9301 36.0001 25.6951 35.2951 25.7926 34.3876L25.8001 34.2001V30.6001H29.4001C30.3976 30.6001 31.2001 29.7976 31.2001 28.8001C31.2001 27.8026 30.3976 27.0001 29.4001 27.0001H25.8001V23.4001C25.8001 22.4026 24.9976 21.6001 24.0001 21.6001Z" fill="#271332"/>
</svg>
