<svg width="48" height="48" viewBox="0 0 48 48" fill="none" xmlns="http://www.w3.org/2000/svg">
<path d="M24.0151 3.6001C24.7651 3.6001 25.4626 3.9376 25.9051 4.5376C28.6351 8.2426 38.4001 21.9601 38.4001 28.8001C38.4001 36.7501 31.9501 43.2001 24.0001 43.2001C16.0501 43.2001 9.6001 36.7501 9.6001 28.8001C9.6001 21.9601 19.3651 8.2426 22.0951 4.5376C22.4851 4.0126 23.0626 3.6901 23.7076 3.6151L23.9851 3.6001H24.0151ZM24.0001 8.0476C22.4551 10.2076 20.0776 13.6501 17.9326 17.3101C16.5901 19.6051 15.3676 21.9226 14.4976 24.0226C13.5901 26.2051 13.2076 27.8101 13.2076 28.8001C13.2076 34.7626 18.0451 39.6001 24.0076 39.6001C29.9701 39.6001 34.8076 34.7626 34.8076 28.8001C34.8076 27.8101 34.4176 26.2051 33.5101 24.0226C32.6401 21.9226 31.4176 19.6051 30.0751 17.3101C27.9301 13.6426 25.5526 10.2076 24.0076 8.0476H24.0001ZM24.0001 21.6001C24.9976 21.6001 25.8001 22.4026 25.8001 23.4001V27.0001H29.4001C30.3976 27.0001 31.2001 27.8026 31.2001 28.8001C31.2001 29.7976 30.3976 30.6001 29.4001 30.6001H25.8001V34.2001L25.7926 34.3876C25.6951 35.2951 24.9301 36.0001 24.0001 36.0001C23.0701 36.0001 22.3051 35.2951 22.2076 34.3876L22.2001 34.2001V30.6001H18.6001C17.6026 30.6001 16.8001 29.7976 16.8001 28.8001C16.8001 27.8026 17.6026 27.0001 18.6001 27.0001H22.2001V23.4001C22.2001 22.4026 23.0026 21.6001 24.0001 21.6001Z" fill="#271332"/>
</svg>
