<?xml version="1.0" encoding="UTF-8"?>
<!--
Soliguide: Useful information for those who need it

SPDX-FileCopyrightText: © 2025 Solinum

SPDX-License-Identifier: AGPL-3.0-only

This program is free software: you can redistribute it and/or modify
it under the terms of the GNU Affero General Public License as published
by the Free Software Foundation, either version 3 of the License, or
(at your option) any later version.

This program is distributed in the hope that it will be useful,
but WITHOUT ANY WARRANTY; without even the implied warranty of
MERCHANTABILITY or FITNESS FOR A PARTICULAR PURPOSE.  See the
GNU Affero General Public License for more details.

You should have received a copy of the GNU Affero General Public License
along with this program.  If not, see <https://www.gnu.org/licenses/>.
-->
<svg version="1.1" width="667" height="667" xmlns="http://www.w3.org/2000/svg"><path d="M523.000 52.000 L 523.000 87.000 488.500 87.000 L 454.000 87.000 454.000 117.000 L 454.000 147.000 488.487 147.000 L 522.974 147.000 523.237 181.750 L 523.500 216.500 552.348 216.681 C 568.215 216.781,581.827 216.620,582.598 216.324 C 583.763 215.877,584.000 209.973,584.000 181.393 L 584.000 147.000 618.500 147.000 L 653.000 147.000 653.000 117.000 L 653.000 87.000 618.500 87.000 L 584.000 87.000 584.000 52.000 L 584.000 17.000 553.500 17.000 L 523.000 17.000 523.000 52.000 M330.388 120.997 C 329.227 121.457,327.314 123.057,326.138 124.552 L 324.000 127.270 324.000 237.429 L 324.000 347.589 315.250 352.578 L 306.500 357.568 306.000 371.534 C 305.725 379.215,305.598 385.673,305.717 385.884 C 305.836 386.095,308.986 384.462,312.717 382.257 C 321.400 377.123,331.600 372.000,333.140 372.000 C 333.799 372.000,340.098 375.150,347.138 379.000 C 354.178 382.850,360.116 386.000,360.333 386.000 C 360.550 386.000,360.501 379.700,360.224 372.000 C 359.900 363.005,360.077 358.000,360.719 358.000 C 361.269 358.000,373.059 363.625,386.921 370.500 C 400.782 377.375,412.833 383.000,413.701 383.000 C 415.516 383.000,492.119 350.439,502.225 345.372 C 513.181 339.879,520.432 341.134,524.630 349.251 C 526.708 353.270,525.889 359.409,522.832 362.727 C 519.805 366.012,511.935 369.782,475.285 385.506 C 458.666 392.636,445.391 398.767,445.785 399.130 C 446.178 399.494,466.975 409.771,492.000 421.968 C 517.643 434.466,538.732 445.354,540.324 446.916 C 545.699 452.190,544.905 461.795,538.730 466.193 C 532.639 470.530,529.806 469.683,498.398 454.141 C 482.624 446.335,469.615 440.072,469.489 440.224 C 469.362 440.376,478.701 457.600,490.242 478.500 C 513.070 519.840,513.965 522.084,510.114 528.316 C 506.607 533.990,497.801 536.065,492.360 532.500 C 489.167 530.408,489.313 530.658,456.943 471.658 L 428.500 419.816 412.000 411.795 C 402.925 407.383,387.669 399.988,378.098 395.360 L 360.696 386.946 361.361 401.723 C 361.728 409.850,362.208 417.625,362.430 419.000 C 362.652 420.375,363.106 424.875,363.440 429.000 C 365.915 459.613,376.574 512.550,384.179 532.000 C 391.686 551.197,407.307 567.824,425.654 576.142 C 446.321 585.514,466.418 589.511,488.960 588.734 C 506.519 588.129,515.238 586.066,529.500 579.143 C 559.553 564.552,580.520 538.524,589.227 505.000 C 591.932 494.586,592.264 491.556,592.737 472.907 C 593.704 434.873,588.173 399.412,573.951 352.450 C 564.995 322.881,547.369 278.867,538.774 264.611 C 522.416 237.480,497.303 218.276,467.686 210.249 C 458.842 207.852,435.842 207.899,427.000 210.331 C 410.833 214.779,394.075 225.700,383.718 238.535 C 367.829 258.226,363.350 277.579,361.107 336.241 C 360.691 347.098,360.082 356.251,359.753 356.580 C 359.424 356.909,355.944 355.451,352.020 353.339 L 344.884 349.500 344.692 238.500 C 344.488 120.349,344.686 125.158,339.903 122.171 C 337.340 120.571,332.859 120.018,330.388 120.997 M202.500 209.417 C 183.069 213.229,164.021 223.387,148.300 238.320 C 132.319 253.501,122.935 269.401,108.651 305.500 C 91.791 348.110,81.715 384.178,75.825 423.000 C 73.127 440.787,72.386 481.050,74.508 494.554 C 78.340 518.939,89.039 540.033,106.476 557.582 C 128.037 579.280,151.842 589.154,182.000 588.909 C 201.566 588.750,215.092 586.116,233.821 578.816 C 254.892 570.603,269.297 557.623,278.487 538.569 C 286.096 522.795,292.597 497.404,298.477 460.500 C 300.796 445.943,301.208 442.728,302.517 429.000 C 302.858 425.425,303.306 421.150,303.512 419.500 C 303.718 417.850,304.202 409.859,304.586 401.742 L 305.284 386.984 295.892 391.371 C 290.727 393.784,275.489 401.229,262.031 407.915 L 237.562 420.072 207.772 474.231 C 191.388 504.019,177.007 529.428,175.815 530.697 C 171.074 535.743,162.749 535.479,157.613 530.118 C 153.713 526.047,153.144 520.606,156.025 514.923 C 158.170 510.691,188.044 456.149,194.170 445.280 L 197.112 440.060 191.698 442.455 C 188.720 443.772,176.420 449.785,164.364 455.818 C 137.167 469.427,135.787 469.884,129.828 467.248 C 121.044 463.363,119.394 452.267,126.648 445.859 C 127.666 444.958,148.975 434.234,174.000 422.027 C 199.025 409.820,219.844 399.503,220.265 399.101 C 220.685 398.700,213.710 395.284,204.765 391.512 C 172.349 377.842,146.798 366.158,144.408 363.913 C 138.999 358.832,139.092 350.082,144.609 344.897 C 146.695 342.936,148.191 342.507,152.830 342.538 C 157.715 342.571,160.646 343.569,174.000 349.753 C 182.525 353.701,203.670 362.936,220.990 370.275 L 252.479 383.619 279.096 370.566 L 305.713 357.513 305.425 348.507 C 304.274 312.510,301.206 279.767,297.965 268.882 C 289.446 240.278,268.227 218.770,240.821 210.960 C 231.322 208.253,212.331 207.489,202.500 209.417 " stroke="none" fill="black" fill-rule="evenodd"/></svg>