<svg width="48" height="48" viewBox="0 0 48 48" fill="none" xmlns="http://www.w3.org/2000/svg">
<path d="M26.3999 7.20005C26.3999 5.87255 25.3274 4.80005 23.9999 4.80005C22.6724 4.80005 21.5999 5.87255 21.5999 7.20005V17.8425L19.1999 19.2825V10.53C19.1999 8.69255 17.7074 7.20005 15.8699 7.20005C14.9324 7.20005 14.0399 7.59755 13.4099 8.28755L11.4299 10.4625C5.6174 16.86 2.3999 25.185 2.3999 33.8251V36.1126C2.3999 40.0275 5.5724 43.2001 9.4874 43.2001C11.1374 43.2001 12.7649 42.8176 14.2424 42.0751L14.6174 41.8876C17.4224 40.4851 19.1924 37.6201 19.1924 34.4776V24.8776L23.9924 21.9975L28.7924 24.8776V34.4776C28.7924 37.6126 30.5624 40.4851 33.3674 41.8876L33.7424 42.0751C35.2199 42.8101 36.8474 43.2001 38.4974 43.2001C42.4124 43.2001 45.5849 40.0275 45.5849 36.1126V35.6475C45.5849 27.315 42.8324 19.2225 37.7549 12.6225L34.5674 8.45255C33.9599 7.65755 33.0149 7.20005 32.0174 7.20005C30.2399 7.20005 28.7999 8.64005 28.7999 10.4175V19.2825L26.3999 17.8425V7.20005Z" fill="#271332"/>
</svg>
