<?xml version="1.0" encoding="UTF-8"?>
<!--
Soliguide: Useful information for those who need it

SPDX-FileCopyrightText: © 2025 Solinum

SPDX-License-Identifier: AGPL-3.0-only

This program is free software: you can redistribute it and/or modify
it under the terms of the GNU Affero General Public License as published
by the Free Software Foundation, either version 3 of the License, or
(at your option) any later version.

This program is distributed in the hope that it will be useful,
but WITHOUT ANY WARRANTY; without even the implied warranty of
MERCHANTABILITY or FITNESS FOR A PARTICULAR PURPOSE.  See the
GNU Affero General Public License for more details.

You should have received a copy of the GNU Affero General Public License
along with this program.  If not, see <https://www.gnu.org/licenses/>.
-->
<svg width="48" height="48" viewBox="0 0 48 48" fill="none" xmlns="http://www.w3.org/2000/svg">
<path d="M18 8C18 5.78 19.78 4 22 4C24.22 4 26 5.78 26 8C26 10.22 24.22 12 22 12C19.78 12 18 10.22 18 8ZM32 26C31.98 23.32 30.34 20.98 28 20C28 16.58 25.16 13.84 21.68 14C18.44 14.18 16 17.08 16 20.32V32C16 33.1 16.9 34 18 34H20V41C20 42.66 21.34 44 23 44C24.66 44 26 42.66 26 41V34H30C31.1 34 32 33.1 32 32V26Z" fill="#404040"/>
</svg>
