<svg width="48" height="48" viewBox="0 0 48 48" fill="none" xmlns="http://www.w3.org/2000/svg">
<path d="M23.9998 10.7999C26.3173 10.7999 28.1998 8.9174 28.1998 6.5999C28.1998 4.2824 26.3173 2.3999 23.9998 2.3999C21.6823 2.3999 19.7998 4.2824 19.7998 6.5999C19.7998 8.9174 21.6823 10.7999 23.9998 10.7999ZM29.9998 34.8899C30.6448 34.5524 31.2598 34.1399 31.8223 33.6524L32.1223 33.3974C33.8173 31.9424 34.7998 29.8199 34.7998 27.5774C34.7998 24.8849 33.3898 22.3949 31.0798 21.0074L28.7998 19.6424V19.5074C28.7998 16.0199 25.9723 13.1999 22.4923 13.1999C20.3848 13.1999 18.4123 14.2574 17.2423 16.0124L11.2048 25.0649C10.4698 26.1674 10.7698 27.6599 11.8723 28.3949C12.9748 29.1299 14.4673 28.8299 15.2023 27.7274L17.3773 24.4649L15.0898 32.9774C14.8948 33.6974 15.0448 34.4699 15.5023 35.0624C15.9598 35.6549 16.6498 35.9999 17.3998 35.9999H17.9998V43.1999C17.9998 44.5274 19.0723 45.5999 20.3998 45.5999C21.7273 45.5999 22.7998 44.5274 22.7998 43.1999V35.9999H25.1998V43.1999C25.1998 44.5274 26.2723 45.5999 27.5998 45.5999C28.9273 45.5999 29.9998 44.5274 29.9998 43.1999V34.8899Z" fill="#271332"/>
</svg>
