<?xml version="1.0" encoding="UTF-8"?>
<!--
Soliguide: Useful information for those who need it

SPDX-FileCopyrightText: © 2025 Solinum

SPDX-License-Identifier: AGPL-3.0-only

This program is free software: you can redistribute it and/or modify
it under the terms of the GNU Affero General Public License as published
by the Free Software Foundation, either version 3 of the License, or
(at your option) any later version.

This program is distributed in the hope that it will be useful,
but WITHOUT ANY WARRANTY; without even the implied warranty of
MERCHANTABILITY or FITNESS FOR A PARTICULAR PURPOSE.  See the
GNU Affero General Public License for more details.

You should have received a copy of the GNU Affero General Public License
along with this program.  If not, see <https://www.gnu.org/licenses/>.
-->
<svg version="1.1" width="667" height="667" xmlns="http://www.w3.org/2000/svg"><path d="M266.929 38.329 C 247.960 43.602,235.461 64.403,238.868 85.031 C 239.520 88.981,242.025 97.002,244.434 102.856 C 249.903 116.145,250.739 121.112,248.467 126.792 C 245.446 134.342,238.734 137.144,228.250 135.231 C 225.363 134.704,223.000 134.451,223.000 134.669 C 223.000 134.886,223.696 136.731,224.548 138.768 C 230.847 153.845,251.354 155.643,260.549 141.925 C 264.636 135.827,266.247 128.276,267.464 109.500 C 268.874 87.774,270.212 82.873,275.719 79.265 C 279.321 76.904,286.190 76.957,288.851 79.365 L 290.912 81.231 288.042 86.918 C 283.470 95.973,281.661 103.508,281.659 113.500 C 281.657 124.416,283.153 131.264,287.555 140.500 C 299.758 166.102,329.089 180.011,356.234 173.068 C 374.559 168.381,388.539 157.057,396.441 140.500 C 400.827 131.308,402.288 124.591,402.298 113.562 C 402.324 86.091,383.361 62.258,356.012 55.392 C 351.195 54.182,346.819 53.894,339.012 54.275 C 327.302 54.845,319.925 56.959,311.059 62.286 L 305.618 65.554 302.680 59.677 C 299.002 52.315,289.165 41.683,284.192 39.693 C 278.521 37.424,272.030 36.912,266.929 38.329 M312.233 186.668 C 306.721 188.618,298.133 196.496,294.796 202.661 C 293.355 205.322,291.408 210.200,290.468 213.500 C 289.528 216.800,279.138 243.274,267.378 272.332 C 255.619 301.390,245.748 326.815,245.442 328.832 C 245.037 331.509,245.510 333.715,247.193 337.000 C 251.480 345.364,265.151 349.644,272.759 345.005 C 277.126 342.343,279.080 338.873,284.184 324.718 L 288.500 312.748 288.758 370.874 L 289.016 429.000 294.008 429.000 L 299.000 429.000 299.106 433.750 C 299.164 436.363,299.312 439.850,299.435 441.500 C 299.557 443.150,300.001 453.500,300.420 464.500 C 300.840 475.500,301.323 486.075,301.494 488.000 C 301.665 489.925,302.107 500.500,302.476 511.500 C 302.845 522.500,303.302 532.625,303.492 534.000 C 303.682 535.375,304.140 546.175,304.510 558.000 C 305.265 582.145,305.971 585.065,311.725 587.808 C 314.752 589.252,315.425 589.270,317.720 587.967 C 324.004 584.401,324.209 583.350,325.499 548.000 C 325.810 539.475,326.260 528.900,326.499 524.500 C 326.737 520.100,327.194 509.075,327.515 500.000 C 327.835 490.925,328.277 480.800,328.497 477.500 C 328.718 474.200,329.171 463.175,329.505 453.000 C 329.840 442.825,330.348 433.262,330.636 431.750 L 331.159 429.000 359.079 429.000 L 387.000 429.000 387.159 419.250 C 387.246 413.887,387.417 407.925,387.538 406.000 C 387.658 404.075,387.812 401.091,387.879 399.369 C 387.988 396.553,388.429 396.128,392.250 395.157 C 399.456 393.324,412.235 386.550,418.813 381.076 C 430.740 371.150,439.816 356.600,443.432 341.604 C 446.811 327.597,445.237 309.632,439.422 295.816 C 430.089 273.641,408.255 256.469,384.875 252.916 C 380.819 252.299,376.600 251.630,375.500 251.429 C 373.930 251.142,372.793 248.850,370.215 240.781 C 361.906 214.771,349.156 196.159,334.179 188.176 C 329.339 185.596,327.120 185.015,322.360 185.079 C 319.137 185.122,314.580 185.837,312.233 186.668 M370.841 293.014 C 373.229 294.097,376.488 296.381,378.082 298.088 L 380.982 301.193 384.125 298.549 C 392.844 291.211,400.672 290.269,408.274 295.640 C 416.453 301.419,419.174 312.572,414.757 322.219 C 410.699 331.084,396.047 345.220,383.390 352.481 L 380.281 354.265 373.890 349.962 C 365.034 343.997,351.875 330.576,348.926 324.500 C 345.396 317.225,345.529 308.170,349.258 301.815 C 352.162 296.868,356.299 293.343,360.791 291.988 C 364.899 290.750,366.129 290.876,370.841 293.014 " stroke="none" fill="black" fill-rule="evenodd"/></svg>