<svg width="48" height="48" viewBox="0 0 48 48" fill="none" xmlns="http://www.w3.org/2000/svg">
<path d="M24 2.3999C26.3175 2.3999 28.2 4.2824 28.2 6.5999C28.2 8.9174 26.3175 10.7999 24 10.7999C21.6825 10.7999 19.8 8.9174 19.8 6.5999C19.8 4.2824 21.6825 2.3999 24 2.3999ZM22.6125 16.7999C21.795 16.7999 21.0225 17.1899 20.535 17.8499L13.4475 27.4649C12.855 28.2674 11.73 28.4324 10.9275 27.8474C10.125 27.2624 9.96001 26.1299 10.545 25.3274L17.6325 15.7124C18.795 14.1299 20.6475 13.1999 22.6125 13.1999C26.025 13.1999 28.7925 15.9674 28.8 19.3799L30.69 20.5124C33.24 22.0424 34.8 24.7949 34.8 27.7649V28.2374C34.8 30.6749 33.6225 32.9549 31.6425 34.3724C30.78 34.9874 29.8125 35.4374 28.8 35.7074V43.7999C28.8 44.7974 27.9975 45.5999 27 45.5999C26.0025 45.5999 25.2 44.7974 25.2 43.7999V35.9999H22.8V43.7999C22.8 44.7974 21.9975 45.5999 21 45.5999C20.0025 45.5999 19.2 44.7974 19.2 43.7999V35.9999H16.8C16.23 35.9999 15.69 35.7299 15.3525 35.2724C15.015 34.8149 14.91 34.2224 15.0825 33.6749L17.4825 25.8749C17.775 24.9224 18.78 24.3899 19.7325 24.6824C20.685 24.9749 21.2175 25.9799 20.925 26.9324L19.245 32.3999H26.6025C27.66 32.3999 28.695 32.0699 29.5575 31.4549C30.5925 30.7124 31.2075 29.5199 31.2075 28.2524V27.7799C31.2075 26.0699 30.315 24.4874 28.845 23.6099L26.0775 21.9524C25.5375 21.6299 25.2 21.0449 25.2 20.4074V19.3949C25.2 17.9699 24.045 16.8074 22.6125 16.8074V16.7999Z" fill="#271332"/>
</svg>
