<?xml version="1.0" encoding="UTF-8"?>
<!--
Soliguide: Useful information for those who need it

SPDX-FileCopyrightText: © 2025 Solinum

SPDX-License-Identifier: AGPL-3.0-only

This program is free software: you can redistribute it and/or modify
it under the terms of the GNU Affero General Public License as published
by the Free Software Foundation, either version 3 of the License, or
(at your option) any later version.

This program is distributed in the hope that it will be useful,
but WITHOUT ANY WARRANTY; without even the implied warranty of
MERCHANTABILITY or FITNESS FOR A PARTICULAR PURPOSE.  See the
GNU Affero General Public License for more details.

You should have received a copy of the GNU Affero General Public License
along with this program.  If not, see <https://www.gnu.org/licenses/>.
-->
<svg width="48" height="48" viewBox="0 0 48 48" fill="none" xmlns="http://www.w3.org/2000/svg">
<path d="M39 47.5825C40.64 47.5825 42 46.2425 42 44.5825V30.2625C42 29.8225 41.92 29.3625 41.78 28.9425L37.84 17.6025C37.44 16.4225 36.32 15.5825 35 15.5825H13C11.68 15.5825 10.58 16.4225 10.16 17.6025L6.22 28.9425C6.08 29.3625 6 29.8025 6 30.2625V44.5825C6 46.2425 7.36 47.5825 9 47.5825C10.64 47.5825 12 46.2425 12 44.5825V43.5825H36V44.5825C36 46.2425 37.34 47.5825 39 47.5825ZM13.7 19.5825H34.28L36.36 25.5825H11.62L13.7 19.5825ZM12 34.5825C12 32.9225 13.34 31.5825 15 31.5825C16.66 31.5825 18 32.9225 18 34.5825C18 36.2425 16.66 37.5825 15 37.5825C13.34 37.5825 12 36.2425 12 34.5825ZM30 34.5825C30 32.9225 31.34 31.5825 33 31.5825C34.66 31.5825 36 32.9225 36 34.5825C36 36.2425 34.66 37.5825 33 37.5825C31.34 37.5825 30 36.2425 30 34.5825ZM32.48 1.00248C33.26 1.78248 33.26 3.04248 32.48 3.82248L25.4 10.9025C24.62 11.6825 23.36 11.6825 22.58 10.9025L19.76 8.06248C18.98 7.28248 18.98 6.02248 19.76 5.24248C20.54 4.46248 21.8 4.46248 22.58 5.24248L24 6.66248L29.66 1.00248C30.44 0.22248 31.7 0.22248 32.48 1.00248Z" fill="#404040"/>
</svg>
