<svg width="48" height="48" viewBox="0 0 48 48" fill="none" xmlns="http://www.w3.org/2000/svg">
<path d="M9.5999 4.7998C5.6249 4.7998 2.3999 8.0248 2.3999 11.9998V31.1998C2.3999 32.9773 3.3674 34.5298 4.7999 35.3548V38.3998C4.7999 39.7273 5.8724 40.7998 7.1999 40.7998H8.3999C9.7274 40.7998 10.7999 39.7273 10.7999 38.3998V35.9998H13.1999V31.1923C13.1999 28.6273 14.3549 26.3323 16.1549 24.7948L17.0699 21.5998H9.5999C8.2724 21.5998 7.1999 20.5273 7.1999 19.1998V14.3998C7.1999 13.0723 8.2724 11.9998 9.5999 11.9998H23.9999C24.8924 11.9998 25.6724 12.4873 26.0849 13.2148C26.3024 13.1998 26.5199 13.1923 26.7374 13.1923L31.1999 13.1998V11.9998C31.1999 8.0248 27.9749 4.7998 23.9999 4.7998H9.5999ZM9.5999 26.3998C10.9274 26.3998 11.9999 27.4723 11.9999 28.7998C11.9999 30.1273 10.9274 31.1998 9.5999 31.1998C8.2724 31.1998 7.1999 30.1273 7.1999 28.7998C7.1999 27.4723 8.2724 26.3998 9.5999 26.3998ZM26.7149 21.5998L35.6849 21.6223C36.2174 21.6223 36.6899 21.9748 36.8324 22.4923L37.9574 26.3998H24.4349L25.5599 22.4698C25.7099 21.9523 26.1824 21.5998 26.7149 21.5998ZM19.2899 26.9323L19.2674 26.9998C17.7899 27.8173 16.7924 29.3923 16.7924 31.1998V40.7998C16.7924 42.1273 17.8649 43.1998 19.1924 43.1998C20.5199 43.1998 21.5924 42.1273 21.5924 40.7998V39.5998H40.7924V40.7998C40.7924 42.1273 41.8649 43.1998 43.1924 43.1998C44.5199 43.1998 45.5924 42.1273 45.5924 40.7998V31.1998C45.5924 29.3923 44.5949 27.8173 43.1174 26.9998L43.0949 26.9323L41.4374 21.1648C40.7024 18.5998 38.3549 16.8298 35.6849 16.8223L26.7299 16.7998C24.0449 16.7923 21.6824 18.5698 20.9474 21.1498L19.2974 26.9323H19.2899ZM23.9999 31.1623C25.3274 31.1623 26.3999 32.2348 26.3999 33.5623C26.3999 34.8898 25.3274 35.9623 23.9999 35.9623C22.6724 35.9623 21.5999 34.8898 21.5999 33.5623C21.5999 32.2348 22.6724 31.1623 23.9999 31.1623ZM35.9999 33.5623C35.9999 32.2348 37.0724 31.1623 38.3999 31.1623C39.7274 31.1623 40.7999 32.2348 40.7999 33.5623C40.7999 34.8898 39.7274 35.9623 38.3999 35.9623C37.0724 35.9623 35.9999 34.8898 35.9999 33.5623Z" fill="#271332"/>
</svg>
