<?xml version="1.0" encoding="UTF-8"?>
<!--
Soliguide: Useful information for those who need it

SPDX-FileCopyrightText: © 2025 Solinum

SPDX-License-Identifier: AGPL-3.0-only

This program is free software: you can redistribute it and/or modify
it under the terms of the GNU Affero General Public License as published
by the Free Software Foundation, either version 3 of the License, or
(at your option) any later version.

This program is distributed in the hope that it will be useful,
but WITHOUT ANY WARRANTY; without even the implied warranty of
MERCHANTABILITY or FITNESS FOR A PARTICULAR PURPOSE.  See the
GNU Affero General Public License for more details.

You should have received a copy of the GNU Affero General Public License
along with this program.  If not, see <https://www.gnu.org/licenses/>.
-->
<svg width="48" height="48" viewBox="0 0 48 48" fill="none" xmlns="http://www.w3.org/2000/svg">
<path d="M37.84 18.02C37.44 16.84 36.32 16 35 16H13C11.68 16 10.58 16.84 10.16 18.02L6 30V46C6 47.1 6.9 48 8 48H10C11.1 48 12 47.1 12 46V44H36V46C36 47.1 36.9 48 38 48H40C41.1 48 42 47.1 42 46V30L37.84 18.02ZM13.7 20H34.28L36.36 26H11.62L13.7 20ZM38 40H10V30H38V40ZM12 35C12 33.34 13.34 32 15 32C16.66 32 18 33.34 18 35C18 36.66 16.66 38 15 38C13.34 38 12 36.66 12 35ZM30 35C30 33.34 31.34 32 33 32C34.66 32 36 33.34 36 35C36 36.66 34.66 38 33 38C31.34 38 30 36.66 30 35ZM24 12.72L18.34 7.08L21.16 4.26L24 7.08L31.08 0L33.9 2.82L24 12.72Z" fill="#404040"/>
</svg>
