<?xml version="1.0" encoding="UTF-8"?>
<!--
Soliguide: Useful information for those who need it

SPDX-FileCopyrightText: © 2025 Solinum

SPDX-License-Identifier: AGPL-3.0-only

This program is free software: you can redistribute it and/or modify
it under the terms of the GNU Affero General Public License as published
by the Free Software Foundation, either version 3 of the License, or
(at your option) any later version.

This program is distributed in the hope that it will be useful,
but WITHOUT ANY WARRANTY; without even the implied warranty of
MERCHANTABILITY or FITNESS FOR A PARTICULAR PURPOSE.  See the
GNU Affero General Public License for more details.

You should have received a copy of the GNU Affero General Public License
along with this program.  If not, see <https://www.gnu.org/licenses/>.
-->
<svg version="1.1" width="512" height="512" xmlns="http://www.w3.org/2000/svg"><path d="M104.741 128.429 C 100.050 130.103,98.283 131.553,96.331 135.327 C 95.485 136.963,89.496 154.995,83.020 175.400 L 71.248 212.500 40.374 213.000 C 10.443 213.485,9.404 213.568,6.373 215.730 C -0.056 220.316,-0.000 219.826,0.004 272.151 C 0.007 317.878,0.077 319.613,2.026 322.810 C 5.353 328.268,8.598 329.000,29.468 329.000 L 48.000 329.000 48.000 331.840 C 48.000 336.561,51.781 349.819,54.698 355.325 C 58.551 362.596,71.136 374.840,78.340 378.325 C 99.249 388.439,120.100 386.551,138.354 372.891 C 149.827 364.305,158.403 349.199,159.702 335.288 L 160.289 329.000 251.965 329.000 L 343.641 329.000 344.842 336.720 C 347.574 354.296,359.485 370.736,375.000 378.347 C 382.779 382.163,393.577 384.965,400.500 384.965 C 413.643 384.965,429.704 378.233,439.428 368.648 C 448.667 359.541,456.000 344.830,456.000 335.400 C 456.000 328.723,454.997 329.000,479.139 329.000 C 502.211 329.000,505.541 328.477,509.293 324.262 C 513.635 319.384,513.352 318.389,493.432 268.483 C 483.117 242.643,473.859 220.318,472.858 218.873 C 468.870 213.114,467.964 213.005,423.349 212.941 L 382.500 212.882 339.500 171.873 C 313.639 147.210,294.906 130.103,292.500 128.954 C 288.653 127.117,285.050 127.045,198.500 127.066 C 125.803 127.084,107.777 127.346,104.741 128.429 M197.000 185.500 L 197.000 215.000 158.883 215.000 C 123.068 215.000,120.795 214.894,121.241 213.250 C 121.502 212.287,125.232 199.012,129.530 183.750 L 137.346 156.000 167.173 156.000 L 197.000 156.000 197.000 185.500 M292.000 185.500 L 321.487 215.000 271.244 215.000 L 221.000 215.000 221.000 185.500 L 221.000 156.000 241.756 156.000 L 262.513 156.000 292.000 185.500 M115.736 307.378 C 125.070 312.253,130.073 324.997,126.998 336.065 C 125.828 340.279,119.955 347.455,116.005 349.498 C 97.439 359.098,75.691 342.695,80.905 323.025 C 84.892 307.985,102.099 300.255,115.736 307.378 M411.736 307.382 C 415.725 309.471,420.656 314.919,422.449 319.218 C 424.567 324.296,424.400 333.543,422.100 338.500 C 416.343 350.908,401.023 355.947,388.981 349.393 C 369.264 338.662,374.180 309.038,396.326 305.134 C 401.083 304.295,407.681 305.258,411.736 307.382 " stroke="none" fill="black" fill-rule="evenodd"/></svg>