<?xml version="1.0" encoding="UTF-8"?>
<!--
Soliguide: Useful information for those who need it

SPDX-FileCopyrightText: © 2025 Solinum

SPDX-License-Identifier: AGPL-3.0-only

This program is free software: you can redistribute it and/or modify
it under the terms of the GNU Affero General Public License as published
by the Free Software Foundation, either version 3 of the License, or
(at your option) any later version.

This program is distributed in the hope that it will be useful,
but WITHOUT ANY WARRANTY; without even the implied warranty of
MERCHANTABILITY or FITNESS FOR A PARTICULAR PURPOSE.  See the
GNU Affero General Public License for more details.

You should have received a copy of the GNU Affero General Public License
along with this program.  If not, see <https://www.gnu.org/licenses/>.
-->
<svg version="1.1" width="667" height="667" xmlns="http://www.w3.org/2000/svg"><path d="M381.896 42.388 C 381.678 42.578,377.000 43.005,371.500 43.337 C 358.556 44.118,345.239 46.330,331.444 49.990 C 279.717 63.714,237.745 98.407,213.046 147.853 C 210.751 152.448,209.041 156.374,209.246 156.579 C 209.451 156.784,212.038 155.133,214.996 152.911 C 246.320 129.374,288.350 121.035,327.841 130.521 C 372.888 141.342,409.984 175.525,424.401 219.500 C 428.838 233.036,430.133 240.871,430.704 257.650 C 431.354 276.715,429.764 288.732,424.487 304.651 C 412.563 340.621,387.250 369.184,352.900 385.430 C 320.274 400.861,279.746 402.156,246.123 388.841 C 242.066 387.235,238.637 386.051,238.503 386.210 C 238.370 386.370,240.428 391.900,243.077 398.500 C 254.610 427.234,259.667 455.152,259.739 490.500 C 259.792 516.575,257.512 537.243,252.164 559.166 L 249.334 570.771 263.917 571.954 C 290.968 574.148,313.451 575.896,322.000 576.469 C 330.939 577.068,341.451 577.865,349.000 578.516 C 351.475 578.729,356.875 579.164,361.000 579.482 C 365.125 579.800,370.975 580.261,374.000 580.506 C 377.025 580.752,382.875 581.200,387.000 581.502 C 391.125 581.804,396.975 582.246,400.000 582.484 C 403.025 582.721,409.100 583.180,413.500 583.503 C 417.900 583.825,423.975 584.292,427.000 584.540 C 430.025 584.788,444.425 585.893,459.000 586.996 C 473.575 588.099,487.637 589.175,490.250 589.387 C 492.863 589.599,495.000 589.643,495.000 589.485 C 495.000 589.326,492.572 582.965,489.605 575.348 C 486.637 567.732,483.017 557.586,481.560 552.803 C 471.152 518.633,473.400 489.770,487.341 478.582 C 490.967 475.672,491.665 475.500,499.841 475.500 C 504.603 475.500,511.650 475.840,515.500 476.256 C 519.350 476.672,525.200 477.265,528.500 477.575 C 531.800 477.884,535.850 478.324,537.500 478.551 C 539.150 478.778,548.150 479.249,557.500 479.597 C 573.379 480.188,574.876 480.087,580.202 478.061 C 588.097 475.058,594.999 468.580,598.591 460.800 C 601.341 454.845,601.502 453.762,601.532 441.000 C 601.549 433.575,601.211 416.250,600.780 402.500 C 599.883 373.899,599.624 374.843,608.714 373.565 C 619.566 372.040,624.652 369.118,628.848 362.000 C 635.154 351.300,630.237 329.962,614.214 298.500 C 610.572 291.350,606.102 282.575,604.280 279.000 C 597.761 266.208,597.063 258.309,598.052 208.500 C 598.305 195.742,597.975 189.254,596.730 182.500 C 588.281 136.682,557.127 99.041,505.000 71.669 C 470.004 53.293,435.096 44.052,394.896 42.522 C 387.963 42.258,382.113 42.198,381.896 42.388 M277.500 145.109 C 260.429 147.568,239.188 156.430,225.327 166.874 C 183.814 198.156,167.221 250.505,183.131 300.000 C 184.280 303.575,187.916 311.675,191.210 318.000 L 197.199 329.500 190.417 335.500 C 161.576 361.013,48.232 466.196,47.244 468.364 C 44.630 474.101,45.996 478.870,52.170 485.569 C 59.168 493.161,65.338 494.940,71.500 491.144 C 74.736 489.151,196.944 377.247,211.020 363.388 C 215.706 358.775,219.949 355.000,220.450 355.000 C 220.951 355.000,224.543 357.193,228.431 359.873 C 242.104 369.299,258.848 376.210,275.000 379.095 C 284.622 380.814,306.343 380.818,316.000 379.103 C 327.420 377.075,338.476 373.314,349.303 367.775 C 380.735 351.695,402.117 324.641,410.773 290.000 C 413.040 280.929,413.404 277.323,413.448 263.500 C 413.505 246.065,412.472 238.887,407.857 224.641 C 394.407 183.117,356.095 151.127,312.566 145.072 C 303.665 143.834,286.216 143.852,277.500 145.109 M318.511 171.493 C 335.603 175.800,348.094 182.917,361.280 195.862 C 373.610 207.967,381.338 220.842,386.076 237.174 C 388.741 246.360,389.840 268.933,388.076 278.258 C 381.285 314.160,356.088 342.278,321.500 352.553 C 308.820 356.320,290.443 357.011,276.990 354.226 C 239.535 346.474,210.729 317.468,203.435 280.162 C 201.540 270.469,201.609 252.823,203.580 243.208 C 206.996 226.544,215.388 210.806,227.763 197.852 C 251.697 172.801,285.144 163.086,318.511 171.493 M291.075 195.087 C 270.471 199.130,250.130 212.611,236.289 231.398 L 231.943 237.297 237.175 240.285 L 242.407 243.273 243.953 240.933 C 247.979 234.842,255.878 226.427,262.253 221.439 C 275.192 211.315,289.591 205.966,304.714 205.665 L 312.981 205.500 313.004 202.000 C 313.017 200.075,313.299 197.488,313.630 196.250 C 314.226 194.029,314.114 194.001,304.867 194.110 C 299.715 194.170,293.509 194.610,291.075 195.087 " stroke="none" fill="black" fill-rule="evenodd"/></svg>