<?xml version="1.0" encoding="UTF-8"?>
<!--
Soliguide: Useful information for those who need it

SPDX-FileCopyrightText: © 2025 Solinum

SPDX-License-Identifier: AGPL-3.0-only

This program is free software: you can redistribute it and/or modify
it under the terms of the GNU Affero General Public License as published
by the Free Software Foundation, either version 3 of the License, or
(at your option) any later version.

This program is distributed in the hope that it will be useful,
but WITHOUT ANY WARRANTY; without even the implied warranty of
MERCHANTABILITY or FITNESS FOR A PARTICULAR PURPOSE.  See the
GNU Affero General Public License for more details.

You should have received a copy of the GNU Affero General Public License
along with this program.  If not, see <https://www.gnu.org/licenses/>.
-->
<svg width="48" height="48" viewBox="0 0 48 48" fill="none" xmlns="http://www.w3.org/2000/svg">
<path d="M25.9977 17.143C24.4177 17.143 23.1377 18.423 23.1377 20.003C23.1377 21.583 24.4177 22.863 25.9977 22.863C27.5777 22.863 28.8577 21.583 28.8577 20.003C28.8577 18.423 27.5777 17.143 25.9977 17.143Z" fill="#404040"/>
<path d="M26.4177 6.00297C18.7377 5.78297 12.4177 11.743 12.0377 19.283L8.1977 24.403C7.6977 25.063 8.1777 26.003 8.9977 26.003H11.9977V32.003C11.9977 34.203 13.7977 36.003 15.9977 36.003H17.9977V40.003C17.9977 41.103 18.8977 42.003 19.9977 42.003H29.9977C31.0977 42.003 31.9977 41.103 31.9977 40.003V32.643C36.8777 30.323 40.1977 25.283 39.9977 19.483C39.7177 12.243 33.6377 6.22297 26.4177 6.00297ZM31.9977 20.003C31.9977 20.263 31.9777 20.523 31.9577 20.783L33.6177 22.103C33.7777 22.223 33.8177 22.423 33.7177 22.603L32.1177 25.383C32.0177 25.563 31.7977 25.623 31.6377 25.563L29.6577 24.763C29.2377 25.083 28.7977 25.343 28.3177 25.543L27.9977 27.663C27.9777 27.863 27.7977 28.003 27.5977 28.003H24.3977C24.1977 28.003 24.0377 27.863 23.9977 27.663L23.6977 25.543C23.1977 25.343 22.7577 25.083 22.3377 24.763L20.3577 25.563C20.1777 25.623 19.9577 25.563 19.8577 25.383L18.2577 22.603C18.1577 22.443 18.1977 22.223 18.3577 22.103L20.0377 20.783C20.0177 20.523 19.9977 20.263 19.9977 20.003C19.9977 19.743 20.0377 19.463 20.0777 19.223L18.3777 17.903C18.2177 17.783 18.1777 17.583 18.2777 17.383L19.8777 14.623C19.9777 14.443 20.1777 14.383 20.3577 14.443L22.3577 15.243C22.7577 14.943 23.2177 14.663 23.6977 14.463L23.9977 12.343C24.0377 12.143 24.1977 12.003 24.3977 12.003H27.5977C27.7977 12.003 27.9577 12.143 27.9977 12.343L28.2977 14.463C28.7777 14.663 29.2177 14.923 29.6377 15.243L31.6377 14.443C31.8177 14.383 32.0377 14.443 32.1177 14.623L33.7177 17.383C33.8177 17.563 33.7777 17.783 33.6177 17.903L31.9177 19.223C31.9777 19.463 31.9977 19.723 31.9977 20.003Z" fill="#404040"/>
</svg>
