<?xml version="1.0" encoding="UTF-8"?>
<!--
Soliguide: Useful information for those who need it

SPDX-FileCopyrightText: © 2025 Solinum

SPDX-License-Identifier: AGPL-3.0-only

This program is free software: you can redistribute it and/or modify
it under the terms of the GNU Affero General Public License as published
by the Free Software Foundation, either version 3 of the License, or
(at your option) any later version.

This program is distributed in the hope that it will be useful,
but WITHOUT ANY WARRANTY; without even the implied warranty of
MERCHANTABILITY or FITNESS FOR A PARTICULAR PURPOSE.  See the
GNU Affero General Public License for more details.

You should have received a copy of the GNU Affero General Public License
along with this program.  If not, see <https://www.gnu.org/licenses/>.
-->
<svg width="48" height="48" viewBox="0 0 48 48" fill="none" xmlns="http://www.w3.org/2000/svg">
<path d="M31.6397 14.44L29.6397 15.24C29.2197 14.92 28.7797 14.66 28.2997 14.46L27.9997 12.34C27.9597 12.14 27.7997 12 27.5997 12H24.3997C24.1997 12 24.0397 12.14 24.0197 12.34L23.7197 14.46C23.2397 14.66 22.7797 14.92 22.3797 15.24L20.3797 14.44C20.1997 14.38 19.9797 14.44 19.8997 14.62L18.2997 17.38C18.1997 17.56 18.2397 17.78 18.3997 17.9L20.0997 19.22C20.0397 19.46 19.9997 19.74 19.9997 20C19.9997 20.26 20.0197 20.52 20.0597 20.78L18.3797 22.1C18.2197 22.22 18.1797 22.44 18.2797 22.6L19.8797 25.38C19.9797 25.56 20.1797 25.62 20.3797 25.56L22.3597 24.76C22.7797 25.08 23.2197 25.34 23.7197 25.54L23.9997 27.66C24.0397 27.86 24.1997 28 24.3997 28H27.5997C27.7997 28 27.9597 27.86 27.9997 27.66L28.2997 25.54C28.7797 25.34 29.2397 25.08 29.6397 24.76L31.6197 25.56C31.7997 25.64 32.0197 25.56 32.0997 25.38L33.6997 22.6C33.7997 22.42 33.7597 22.22 33.5997 22.1L31.9397 20.78C31.9797 20.52 31.9997 20.26 31.9997 20C31.9997 19.72 31.9797 19.46 31.9397 19.22L33.6397 17.9C33.7997 17.78 33.8397 17.56 33.7397 17.38L32.1397 14.62C32.0397 14.44 31.8197 14.38 31.6397 14.44ZM25.9997 22.86C24.4197 22.86 23.1397 21.58 23.1397 20C23.1397 18.42 24.4197 17.14 25.9997 17.14C27.5797 17.14 28.8597 18.42 28.8597 20C28.8597 21.58 27.5797 22.86 25.9997 22.86Z" fill="#404040"/>
<path d="M39.8797 18.12C39.0197 11.58 33.4197 6.4 26.8197 6.02C26.5397 6 26.2797 6 25.9997 6C18.9397 6 13.1397 11.22 12.1597 18L8.29969 24.96C7.47969 26.28 8.43969 28 9.99969 28H11.9997V32C11.9997 34.2 13.7997 36 15.9997 36H17.9997V42H31.9997V32.64C37.2397 30.14 40.6997 24.48 39.8797 18.12ZM29.7797 29.26L27.9997 30.1V38H21.9997V32H15.9997V24H13.3997L16.0597 19.34C16.4197 14.12 20.6997 10 25.9997 10C31.5197 10 35.9997 14.48 35.9997 20C35.9997 24.18 33.4197 27.76 29.7797 29.26Z" fill="#404040"/>
</svg>
