<svg width="48" height="48" viewBox="0 0 48 48" fill="none" xmlns="http://www.w3.org/2000/svg">
<path d="M29.5273 38.4001C29.1448 38.4001 28.7998 38.6775 28.7998 39.0601V39.6001C28.7998 41.5876 27.1873 43.2001 25.1998 43.2001H13.1998C11.2123 43.2001 9.5998 41.5876 9.5998 39.6001V34.83C9.5998 33.885 9.2173 32.9925 8.6173 32.2651C6.2323 29.3626 4.7998 25.65 4.7998 21.6C4.7998 12.3225 12.3223 4.80005 21.5998 4.80005C30.0523 4.80005 37.0498 11.0475 38.2273 19.1775C38.2573 19.4025 38.3548 19.62 38.4973 19.8L41.1823 23.0175C41.7073 23.6475 41.9998 24.4501 41.9998 25.275C41.9998 27.2176 40.4248 28.8 38.4748 28.8H38.3998C37.7398 28.8 37.1998 29.34 37.1998 30V33.6C37.1998 36.2476 35.0473 38.4001 32.3998 38.4001H29.5273ZM22.7998 9.60005C21.8773 9.60005 21.0373 9.94505 20.3998 10.515C19.7623 9.94505 18.9223 9.60005 17.9998 9.60005C16.0123 9.60005 14.3998 11.2125 14.3998 13.2C12.4123 13.2 10.7998 14.8125 10.7998 16.8C10.7998 18.7875 12.4123 20.4 14.3998 20.4C14.4523 20.4 14.4973 20.4 14.5498 20.4C15.0823 22.47 16.9648 24 19.1998 24C21.8473 24 23.9998 21.8475 23.9998 19.2H27.5998C29.5873 19.2 31.1998 17.5875 31.1998 15.6C31.1998 13.6125 29.5873 12 27.5998 12H26.1973C25.7023 10.605 24.3673 9.60005 22.7998 9.60005Z" fill="#271332"/>
</svg>
