<svg width="48" height="48" viewBox="0 0 48 48" fill="none" xmlns="http://www.w3.org/2000/svg">
<path d="M21.5998 4.80005C12.3223 4.80005 4.7998 12.3225 4.7998 21.6C4.7998 25.935 6.4498 29.895 9.14981 32.8725C9.4648 33.225 9.5998 33.6 9.5998 33.9076V41.4001C9.5998 42.3975 10.4023 43.2001 11.3998 43.2001C12.3973 43.2001 13.1998 42.3975 13.1998 41.4001V33.9076C13.1998 32.5501 12.6148 31.3426 11.8123 30.4576C9.68981 28.1175 8.3998 25.0126 8.3998 21.6C8.3998 14.31 14.3098 8.40005 21.5998 8.40005C28.0948 8.40005 33.5023 13.095 34.5973 19.2825C34.6648 19.6425 34.8373 19.98 35.0998 20.2425L39.0148 24.1576C39.3898 24.5326 39.6073 25.0501 39.6073 25.5826C39.6073 26.7001 38.7073 27.6 37.5898 27.6H36.5998C35.6023 27.6 34.7998 28.4025 34.7998 29.4V33C34.7998 34.6576 33.4573 36 31.7998 36H28.1998C27.2023 36 26.3998 36.8026 26.3998 37.8V41.4001C26.3998 42.3975 27.2023 43.2001 28.1998 43.2001C29.1973 43.2001 29.9998 42.3975 29.9998 41.4001V39.6001H31.7998C35.4448 39.6001 38.3998 36.6451 38.3998 33V31.1401C41.1148 30.7425 43.1998 28.4025 43.1998 25.5826C43.1998 24.09 42.6073 22.6651 41.5573 21.6075L38.0323 18.0826C36.4123 10.4925 29.6773 4.80005 21.5998 4.80005ZM22.7998 12C21.8773 12 21.0373 12.345 20.3998 12.915C19.7623 12.345 18.9223 12 17.9998 12C16.0123 12 14.3998 13.6125 14.3998 15.6C12.4123 15.6 10.7998 17.2125 10.7998 19.2C10.7998 21.1875 12.4123 22.8 14.3998 22.8C14.4523 22.8 14.4973 22.8 14.5498 22.8C15.0823 24.8701 16.9648 26.4 19.1998 26.4C21.8473 26.4 23.9998 24.2475 23.9998 21.6H27.5998C29.5873 21.6 31.1998 19.9875 31.1998 18C31.1998 16.0125 29.5873 14.4 27.5998 14.4H26.1973C25.7023 13.005 24.3673 12 22.7998 12Z" fill="#271332"/>
</svg>
