<svg width="48" height="48" viewBox="0 0 48 48" fill="none" xmlns="http://www.w3.org/2000/svg">
<path d="M5.12996 31.335C5.43746 30.24 6.01496 29.2425 6.82496 28.4325L28.875 6.38249C29.88 5.36999 31.26 4.79999 32.7 4.79999C34.14 4.79999 35.52 5.36999 36.5325 6.38999L39.21 9.06749C40.23 10.08 40.8 11.46 40.8 12.9C40.8 14.34 40.23 15.72 39.21 16.7325L17.16 38.7825C16.3575 39.585 15.3525 40.17 14.2575 40.4775L4.67996 43.1325C4.05746 43.305 3.38246 43.1325 2.92496 42.6675C2.46746 42.2025 2.28746 41.535 2.45996 40.9125L5.12996 31.335ZM31.41 8.93249L27.4425 12.9L32.7 18.1575L36.6675 14.19C37.0125 13.845 37.2 13.3875 37.2 12.9C37.2 12.4125 37.005 11.955 36.6675 11.61L33.99 8.93249C33.645 8.59499 33.18 8.39999 32.7 8.39999C32.22 8.39999 31.755 8.59499 31.41 8.93249ZM24.9 15.4425L10.6425 29.7L15.9 34.9575L30.1575 20.7L24.9 15.4425ZM6.78746 38.8125L12.9525 37.1025L8.49746 32.6475L6.78746 38.8125ZM23.4 39.6H43.8C44.7975 39.6 45.6 40.4025 45.6 41.4C45.6 42.3975 44.7975 43.2 43.8 43.2H23.4C22.4025 43.2 21.6 42.3975 21.6 41.4C21.6 40.4025 22.4025 39.6 23.4 39.6Z" fill="#271332"/>
</svg>
