<?xml version="1.0" encoding="UTF-8"?>
<!--
Soliguide: Useful information for those who need it

SPDX-FileCopyrightText: © 2025 Solinum

SPDX-License-Identifier: AGPL-3.0-only

This program is free software: you can redistribute it and/or modify
it under the terms of the GNU Affero General Public License as published
by the Free Software Foundation, either version 3 of the License, or
(at your option) any later version.

This program is distributed in the hope that it will be useful,
but WITHOUT ANY WARRANTY; without even the implied warranty of
MERCHANTABILITY or FITNESS FOR A PARTICULAR PURPOSE.  See the
GNU Affero General Public License for more details.

You should have received a copy of the GNU Affero General Public License
along with this program.  If not, see <https://www.gnu.org/licenses/>.
-->
<svg version="1.1" width="667" height="667" xmlns="http://www.w3.org/2000/svg"><path d="M37.766 43.918 L 34.500 46.836 34.207 311.668 C 33.997 501.703,34.224 577.573,35.012 580.298 C 35.740 582.819,37.183 584.750,39.304 586.044 C 42.444 587.958,46.039 587.993,243.800 587.996 C 424.575 588.000,445.408 587.840,448.128 586.434 C 454.108 583.342,453.993 584.871,454.068 506.782 L 454.137 435.500 475.698 418.500 C 487.556 409.150,511.747 390.025,529.454 376.000 C 547.162 361.975,567.162 346.225,573.899 341.000 C 588.708 329.515,636.895 288.220,639.804 284.522 C 644.140 279.009,645.698 259.352,642.633 248.810 C 637.768 232.075,621.172 221.000,600.959 221.000 C 590.351 221.000,599.292 214.701,497.742 293.726 C 474.225 312.027,454.762 327.000,454.492 327.000 C 454.221 327.000,453.984 288.188,453.965 240.750 C 453.938 175.007,453.640 153.983,452.715 152.327 C 451.316 149.825,353.031 45.956,349.242 42.975 C 346.766 41.028,344.583 41.000,193.881 41.000 L 41.032 41.000 37.766 43.918 M333.000 111.577 L 333.000 161.154 335.923 164.077 L 338.846 167.000 385.923 167.000 L 433.000 167.000 432.939 255.750 L 432.878 344.500 410.401 362.000 C 355.074 405.075,350.780 409.030,358.500 409.799 C 364.030 410.349,370.654 413.029,373.275 415.777 C 376.950 419.630,378.000 423.087,378.000 431.343 C 378.000 436.002,378.510 439.283,379.440 440.611 C 380.316 441.862,384.294 443.778,389.600 445.504 C 396.359 447.702,399.296 449.276,402.660 452.499 C 406.452 456.132,407.000 457.196,407.000 460.924 C 407.000 463.271,406.258 466.448,405.350 467.984 C 404.443 469.520,403.997 471.551,404.360 472.497 C 404.982 474.116,405.181 474.113,407.760 472.437 C 409.267 471.458,415.000 467.058,420.500 462.660 C 426.000 458.261,431.063 454.233,431.750 453.708 C 432.747 452.948,433.000 464.338,433.000 509.878 L 433.000 567.000 244.000 567.000 L 55.000 567.000 55.000 314.500 L 55.000 62.000 194.000 62.000 L 333.000 62.000 333.000 111.577 M111.166 147.750 C 107.923 150.510,107.827 158.827,111.000 162.000 C 112.948 163.948,114.333 164.000,164.045 164.000 L 215.091 164.000 217.545 161.545 C 220.926 158.165,220.998 151.286,217.686 148.174 C 215.372 146.000,215.360 146.000,164.296 146.000 C 117.104 146.000,113.065 146.133,111.166 147.750 M110.995 255.803 C 109.192 257.263,108.769 258.629,108.769 263.000 C 108.769 272.920,96.023 272.000,233.500 272.000 C 349.947 272.000,353.853 271.940,356.112 270.110 C 358.031 268.557,358.440 267.288,358.412 262.973 C 358.385 258.727,357.940 257.370,356.079 255.863 C 353.863 254.069,349.332 254.000,233.500 254.000 C 119.101 254.000,113.113 254.088,110.995 255.803 M579.396 283.250 L 602.985 311.500 599.243 314.761 C 597.184 316.554,594.355 318.881,592.956 319.932 L 590.412 321.843 576.385 304.672 C 552.127 274.973,543.690 263.909,544.614 263.006 C 546.662 261.004,554.552 255.019,555.154 255.010 C 555.514 255.004,566.423 267.712,579.396 283.250 M111.780 319.064 C 107.508 321.553,107.689 332.693,112.039 335.021 C 113.203 335.644,157.490 336.000,233.823 336.000 C 370.499 336.000,358.050 336.870,358.316 327.303 C 358.420 323.528,357.958 321.611,356.574 320.082 L 354.690 318.000 234.095 318.030 C 155.348 318.050,112.903 318.409,111.780 319.064 M110.744 383.750 C 107.158 387.758,108.239 396.877,112.532 398.833 C 114.429 399.697,140.368 400.000,212.412 400.000 C 309.352 400.000,309.741 399.992,312.365 397.927 C 314.545 396.213,315.000 395.042,315.000 391.150 C 315.000 388.510,314.317 385.470,313.443 384.223 L 311.887 382.000 212.098 382.000 C 118.325 382.000,112.216 382.105,110.744 383.750 M343.073 420.679 C 341.739 420.958,339.673 421.824,338.482 422.604 C 336.198 424.100,301.486 491.515,300.667 496.044 C 299.707 501.356,305.072 508.000,310.321 508.000 C 312.869 508.000,387.093 487.958,389.158 486.712 C 392.219 484.865,395.164 478.283,395.732 472.020 C 396.476 463.816,393.639 458.630,386.687 455.485 C 383.834 454.195,379.259 452.903,376.520 452.615 C 371.751 452.113,368.380 449.812,369.577 447.875 C 370.829 445.850,370.234 433.352,368.751 430.500 C 366.787 426.726,363.280 423.429,359.843 422.127 C 356.551 420.880,346.339 419.998,343.073 420.679 M111.408 499.326 C 109.141 501.276,108.667 502.499,108.667 506.397 C 108.667 509.767,109.233 511.678,110.653 513.097 C 112.581 515.025,114.067 515.082,161.569 515.054 C 188.481 515.038,211.738 515.020,213.250 515.013 C 214.763 515.006,216.900 514.100,218.000 513.000 C 220.679 510.321,220.728 503.121,218.089 499.861 L 216.178 497.500 165.163 497.234 L 114.149 496.968 111.408 499.326 " stroke="none" fill="black" fill-rule="evenodd"/></svg>