<svg width="48" height="48" viewBox="0 0 48 48" fill="none" xmlns="http://www.w3.org/2000/svg">
<path d="M4.7998 9.59995C4.7998 8.27245 5.8723 7.19995 7.1998 7.19995H40.7998C42.1273 7.19995 43.1998 8.27245 43.1998 9.59995C43.1998 10.9275 42.1273 12 40.7998 12V36C42.1273 36 43.1998 37.0724 43.1998 38.4C43.1998 39.7274 42.1273 40.7999 40.7998 40.7999H7.1998C5.8723 40.7999 4.7998 39.7274 4.7998 38.4C4.7998 37.0724 5.8723 36 7.1998 36V12C5.8723 12 4.7998 10.9275 4.7998 9.59995ZM25.7998 13.8C25.7998 12.8025 24.9973 12 23.9998 12C23.0023 12 22.1998 12.8025 22.1998 13.8V15H17.3998C16.4023 15 15.5998 15.8025 15.5998 16.8C15.5998 17.7975 16.4023 18.6 17.3998 18.6H22.1998V22.2H16.1998C15.2023 22.2 14.3998 23.0024 14.3998 24C14.3998 24.9974 15.2023 25.7999 16.1998 25.7999H22.1998V29.4H17.3998C16.4023 29.4 15.5998 30.2024 15.5998 31.1999C15.5998 32.1975 16.4023 33 17.3998 33H22.1998V34.1999C22.1998 35.1974 23.0023 36 23.9998 36C24.9973 36 25.7998 35.1974 25.7998 34.1999V33H30.5998C31.5973 33 32.3998 32.1975 32.3998 31.1999C32.3998 30.2024 31.5973 29.4 30.5998 29.4H25.7998V25.7999H31.7998C32.7973 25.7999 33.5998 24.9974 33.5998 24C33.5998 23.0024 32.7973 22.2 31.7998 22.2H25.7998V18.6H30.5998C31.5973 18.6 32.3998 17.7975 32.3998 16.8C32.3998 15.8025 31.5973 15 30.5998 15H25.7998V13.8Z" fill="#271332"/>
</svg>
