<?xml version="1.0" encoding="UTF-8"?>
<!--
Soliguide: Useful information for those who need it

SPDX-FileCopyrightText: © 2025 Solinum

SPDX-License-Identifier: AGPL-3.0-only

This program is free software: you can redistribute it and/or modify
it under the terms of the GNU Affero General Public License as published
by the Free Software Foundation, either version 3 of the License, or
(at your option) any later version.

This program is distributed in the hope that it will be useful,
but WITHOUT ANY WARRANTY; without even the implied warranty of
MERCHANTABILITY or FITNESS FOR A PARTICULAR PURPOSE.  See the
GNU Affero General Public License for more details.

You should have received a copy of the GNU Affero General Public License
along with this program.  If not, see <https://www.gnu.org/licenses/>.
-->
<svg version="1.1" width="667" height="667" xmlns="http://www.w3.org/2000/svg"><path d="M163.500 210.720 C 127.380 215.710,97.604 241.757,87.158 277.500 C 84.777 285.648,81.702 301.606,82.216 303.148 C 82.446 303.839,87.492 304.157,96.668 304.059 C 131.654 303.686,156.076 312.884,168.086 330.958 C 172.559 337.689,175.026 346.972,175.540 359.000 C 176.002 369.832,176.928 411.313,176.974 423.250 L 177.000 430.000 333.383 430.000 L 489.767 430.000 490.417 392.250 C 490.775 371.488,491.496 351.800,492.018 348.500 C 494.360 333.704,504.362 321.093,519.500 313.849 C 533.824 306.994,548.420 304.248,571.000 304.160 L 584.500 304.108 584.203 300.304 C 583.698 293.831,580.963 281.241,578.467 273.904 C 568.775 245.408,547.787 223.954,520.971 215.132 C 504.996 209.877,512.142 210.065,333.000 210.189 C 241.425 210.253,165.150 210.492,163.500 210.720 M57.265 341.542 C 49.160 343.724,42.149 347.717,35.821 353.752 C 28.958 360.298,24.799 366.497,21.847 374.581 C 18.763 383.027,18.763 399.973,21.847 408.419 C 26.535 421.257,36.665 432.431,48.771 438.121 L 55.960 441.500 55.984 508.500 C 56.007 573.573,56.065 575.594,57.995 578.759 C 59.088 580.552,61.448 582.912,63.241 584.005 C 66.313 585.879,68.331 585.993,98.500 585.995 C 126.980 585.997,130.881 585.805,133.966 584.248 C 140.273 581.067,141.785 576.416,141.932 559.750 L 142.000 552.000 334.500 552.000 L 527.000 552.000 527.000 564.132 C 527.000 574.484,527.291 576.735,528.983 579.472 C 532.930 585.859,534.794 586.140,571.029 585.802 C 600.403 585.529,603.754 585.328,606.164 583.691 C 612.143 579.632,611.998 581.496,612.020 508.349 L 612.040 441.500 619.270 438.106 C 628.230 433.900,639.356 423.200,643.296 415.000 C 650.771 399.444,650.785 383.501,643.336 368.127 C 639.789 360.807,629.399 350.024,622.189 346.182 C 611.321 340.389,608.067 340.000,570.540 340.004 C 538.543 340.007,536.308 340.125,533.299 341.960 C 526.818 345.911,527.000 344.045,527.000 406.450 C 527.000 451.020,526.735 463.001,525.750 463.006 C 525.063 463.010,438.413 463.012,333.196 463.012 L 141.893 463.011 141.696 406.755 C 141.478 344.206,141.696 346.224,134.701 341.960 C 131.684 340.120,129.518 340.011,97.000 340.070 C 70.615 340.117,61.269 340.463,57.265 341.542 " stroke="none" fill="black" fill-rule="evenodd"/></svg>