<svg width="48" height="48" viewBox="0 0 48 48" fill="none" xmlns="http://www.w3.org/2000/svg">
<path d="M15.5998 25.2C15.5998 21.6525 13.0348 18.705 9.65981 18.1125C10.1998 13.32 14.2648 9.60001 19.1998 9.60001H28.7998C33.7348 9.60001 37.7998 13.32 38.3398 18.1125C34.9648 18.7125 32.3998 21.6525 32.3998 25.2V27.6H15.5998V25.2ZM9.5998 38.4C6.9523 38.4 4.7998 36.2475 4.7998 33.6V25.2C4.7998 23.2125 6.4123 21.6 8.3998 21.6C10.3873 21.6 11.9998 23.2125 11.9998 25.2V31.2H35.9998V25.2C35.9998 23.2125 37.6123 21.6 39.5998 21.6C41.5873 21.6 43.1998 23.2125 43.1998 25.2V33.6C43.1998 36.2475 41.0473 38.4 38.3998 38.4C38.3998 39.7275 37.3273 40.8 35.9998 40.8C34.6723 40.8 33.5998 39.7275 33.5998 38.4H14.3998C14.3998 39.7275 13.3273 40.8 11.9998 40.8C10.6723 40.8 9.5998 39.7275 9.5998 38.4Z" fill="#271332"/>
</svg>
