<?xml version="1.0" encoding="UTF-8"?>
<!--
Soliguide: Useful information for those who need it

SPDX-FileCopyrightText: © 2025 Solinum

SPDX-License-Identifier: AGPL-3.0-only

This program is free software: you can redistribute it and/or modify
it under the terms of the GNU Affero General Public License as published
by the Free Software Foundation, either version 3 of the License, or
(at your option) any later version.

This program is distributed in the hope that it will be useful,
but WITHOUT ANY WARRANTY; without even the implied warranty of
MERCHANTABILITY or FITNESS FOR A PARTICULAR PURPOSE.  See the
GNU Affero General Public License for more details.

You should have received a copy of the GNU Affero General Public License
along with this program.  If not, see <https://www.gnu.org/licenses/>.
-->
<svg width="48" height="48" viewBox="0 0 48 48" fill="none" xmlns="http://www.w3.org/2000/svg">
<path d="M40 16V12C40 8.7 37.3 6 34 6H14C10.7 6 8 8.7 8 12V16C4.7 16 2 18.7 2 22V32C2 35.3 4.7 38 8 38V40C8 41.1 8.9 42 10 42C11.1 42 12 41.1 12 40V38H36V40C36 41.1 36.9 42 38 42C39.1 42 40 41.1 40 40V38C43.3 38 46 35.3 46 32V22C46 18.7 43.3 16 40 16ZM12 12C12 10.9 12.9 10 14 10H34C35.1 10 36 10.9 36 12V17.56C34.78 18.66 34 20.24 34 22V26H14V22C14 20.24 13.22 18.66 12 17.56V12ZM42 32C42 33.1 41.1 34 40 34H8C6.9 34 6 33.1 6 32V22C6 20.9 6.9 20 8 20C9.1 20 10 20.9 10 22V30H38V22C38 20.9 38.9 20 40 20C41.1 20 42 20.9 42 22V32Z" fill="#404040"/>
</svg>
