<?xml version="1.0" encoding="UTF-8"?>
<!--
Soliguide: Useful information for those who need it

SPDX-FileCopyrightText: © 2025 Solinum

SPDX-License-Identifier: AGPL-3.0-only

This program is free software: you can redistribute it and/or modify
it under the terms of the GNU Affero General Public License as published
by the Free Software Foundation, either version 3 of the License, or
(at your option) any later version.

This program is distributed in the hope that it will be useful,
but WITHOUT ANY WARRANTY; without even the implied warranty of
MERCHANTABILITY or FITNESS FOR A PARTICULAR PURPOSE.  See the
GNU Affero General Public License for more details.

You should have received a copy of the GNU Affero General Public License
along with this program.  If not, see <https://www.gnu.org/licenses/>.
-->
<svg width="48" height="48" viewBox="0 0 48 48" fill="none" xmlns="http://www.w3.org/2000/svg">
<path d="M42 18C39.8 18 38 19.8 38 22V30H10V22C10 19.8 8.2 18 6 18C3.8 18 2 19.8 2 22V32C2 35.3 4.7 38 8 38V40C8 41.1 8.9 42 10 42C11.1 42 12 41.1 12 40V38H36V40C36 41.1 36.9 42 38 42C39.1 42 40 41.1 40 40V38C43.3 38 46 35.3 46 32V22C46 19.8 44.2 18 42 18Z" fill="#404040"/>
<path d="M14 22V26H34V22C34 18.28 36.56 15.18 40 14.28V12C40 8.7 37.3 6 34 6H14C10.7 6 8 8.7 8 12V14.28C11.44 15.18 14 18.28 14 22Z" fill="#404040"/>
</svg>
