<svg width="48" height="48" viewBox="0 0 48 48" fill="none" xmlns="http://www.w3.org/2000/svg">
<path d="M25.8 4.1999C25.8 3.2024 24.9975 2.3999 24 2.3999C23.0025 2.3999 22.2 3.2024 22.2 4.1999V10.1999C22.2 11.1974 23.0025 11.9999 24 11.9999C24.9975 11.9999 25.8 11.1974 25.8 10.1999V4.1999ZM15.075 7.7249C14.37 7.0199 13.23 7.0199 12.5325 7.7249C11.835 8.4299 11.8275 9.5699 12.5325 10.2674L16.1325 13.8674C16.8375 14.5724 17.9775 14.5724 18.675 13.8674C19.3725 13.1624 19.38 12.0224 18.675 11.3249L15.075 7.7249ZM35.475 10.2749C36.18 9.5699 36.18 8.4299 35.475 7.7324C34.77 7.0349 33.63 7.0274 32.9325 7.7324L29.325 11.3249C28.62 12.0299 28.62 13.1699 29.325 13.8674C30.03 14.5649 31.17 14.5724 31.8675 13.8674L35.4675 10.2674L35.475 10.2749ZM8.4 13.1999C3.7575 13.1999 0 16.9574 0 21.5999C0 23.3849 0.555 25.0424 1.5075 26.3999C0.5625 27.7574 0 29.4149 0 31.1999C0 35.8424 3.7575 39.5999 8.4 39.5999C12.21 39.5999 15.42 37.0724 16.455 33.5999H31.5525C32.5875 37.0724 35.7975 39.5999 39.6075 39.5999C44.25 39.5999 48.0075 35.8424 48.0075 31.1999C48.0075 29.4149 47.4525 27.7574 46.5 26.3999C47.445 25.0424 48.0075 23.3849 48.0075 21.5999C48.0075 16.9574 44.25 13.1999 39.6075 13.1999C35.805 13.1999 32.5875 15.7274 31.5525 19.1999H29.1975C28.2525 19.1999 27.39 19.7549 27.0075 20.6249L24.0075 27.3674L21.0075 20.6249C20.625 19.7549 19.7625 19.1999 18.8175 19.1999H16.4625C15.4275 15.7274 12.2175 13.1999 8.4075 13.1999H8.4ZM18.03 22.7999L21.2325 29.9999H15.525C14.25 29.9999 13.32 30.9599 13.1325 32.0324C12.7425 34.2824 10.77 35.9999 8.4075 35.9999C5.76 35.9999 3.6075 33.8474 3.6075 31.1999C3.6075 29.9924 4.05 28.8899 4.7925 28.0424C5.61 27.1049 5.61 25.6949 4.7925 24.7574C4.05 23.9099 3.6075 22.8074 3.6075 21.5999C3.6075 18.9524 5.76 16.7999 8.4075 16.7999C10.77 16.7999 12.7425 18.5099 13.1325 20.7674C13.32 21.8399 14.25 22.7999 15.525 22.7999H18.0375H18.03ZM29.97 22.7999H32.475C33.75 22.7999 34.68 21.8399 34.8675 20.7674C35.2575 18.5174 37.23 16.7999 39.5925 16.7999C42.24 16.7999 44.3925 18.9524 44.3925 21.5999C44.3925 22.8074 43.95 23.9099 43.2075 24.7574C42.39 25.6949 42.39 27.1049 43.2075 28.0424C43.95 28.8899 44.3925 29.9924 44.3925 31.1999C44.3925 33.8474 42.24 35.9999 39.5925 35.9999C37.23 35.9999 35.2575 34.2899 34.8675 32.0324C34.68 30.9599 33.75 29.9999 32.475 29.9999H26.7675L29.97 22.7999Z" fill="#271332"/>
</svg>
