<svg width="48" height="48" viewBox="0 0 48 48" fill="none" xmlns="http://www.w3.org/2000/svg">
<path d="M25.7998 4.1999V10.1999C25.7998 11.1974 24.9973 11.9999 23.9998 11.9999C23.0023 11.9999 22.1998 11.1974 22.1998 10.1999V4.1999C22.1998 3.2024 23.0023 2.3999 23.9998 2.3999C24.9973 2.3999 25.7998 3.2024 25.7998 4.1999ZM15.0748 7.7249L18.6748 11.3249C19.3798 12.0299 19.3798 13.1699 18.6748 13.8674C17.9698 14.5649 16.8298 14.5724 16.1323 13.8674L12.5248 10.2749C11.8198 9.5699 11.8198 8.4299 12.5248 7.7324C13.2298 7.0349 14.3698 7.0274 15.0673 7.7324L15.0748 7.7249ZM35.4748 10.2749L31.8748 13.8749C31.1698 14.5799 30.0298 14.5799 29.3323 13.8749C28.6348 13.1699 28.6273 12.0299 29.3323 11.3324L32.9323 7.7324C33.6373 7.0274 34.7773 7.0274 35.4748 7.7324C36.1723 8.4374 36.1798 9.5774 35.4748 10.2749ZM14.1973 19.9049C14.2648 20.1899 14.5123 20.3999 14.8048 20.3999H18.7048C18.9373 20.3999 19.1548 20.5349 19.2523 20.7524L22.9048 28.7999C23.3323 29.7374 24.6598 29.7374 25.0873 28.7999L28.7473 20.7524C28.8448 20.5349 29.0548 20.3999 29.2948 20.3999H33.1948C33.4873 20.3999 33.7348 20.1899 33.8023 19.9049C34.5673 16.7474 37.4098 14.3999 40.7998 14.3999C44.7748 14.3999 47.9998 17.6249 47.9998 21.5999C47.9998 23.7824 47.0323 25.7324 45.5023 27.0524C45.1798 27.3299 45.1798 27.8624 45.5023 28.1399C47.0323 29.4599 47.9998 31.4174 47.9998 33.5924C47.9998 37.5674 44.7748 40.7924 40.7998 40.7924C37.4098 40.7924 34.5673 38.4449 33.8023 35.2874C33.7348 35.0024 33.4873 34.7924 33.1948 34.7924H14.8123C14.5198 34.7924 14.2723 35.0024 14.2048 35.2874C13.4398 38.4449 10.5973 40.7924 7.20732 40.7924C3.23232 40.7924 0.00732422 37.5674 0.00732422 33.5924C0.00732422 31.4099 0.974824 29.4599 2.50482 28.1399C2.82732 27.8624 2.82732 27.3299 2.50482 27.0524C0.974824 25.7324 0.00732422 23.7749 0.00732422 21.5999C0.00732422 17.6249 3.23232 14.3999 7.20732 14.3999C10.5973 14.3999 13.4398 16.7474 14.2048 19.9049H14.1973Z" fill="#271332"/>
</svg>
