<?xml version="1.0" encoding="UTF-8"?>
<!--
Soliguide: Useful information for those who need it

SPDX-FileCopyrightText: © 2025 Solinum

SPDX-License-Identifier: AGPL-3.0-only

This program is free software: you can redistribute it and/or modify
it under the terms of the GNU Affero General Public License as published
by the Free Software Foundation, either version 3 of the License, or
(at your option) any later version.

This program is distributed in the hope that it will be useful,
but WITHOUT ANY WARRANTY; without even the implied warranty of
MERCHANTABILITY or FITNESS FOR A PARTICULAR PURPOSE.  See the
GNU Affero General Public License for more details.

You should have received a copy of the GNU Affero General Public License
along with this program.  If not, see <https://www.gnu.org/licenses/>.
-->
<svg version="1.1" width="667" height="667" xmlns="http://www.w3.org/2000/svg"><path d="M32.288 95.521 C 28.830 96.975,25.740 100.984,24.211 106.000 C 23.030 109.875,22.872 114.606,19.484 248.000 C 18.718 278.157,20.253 283.538,32.984 295.325 C 39.734 301.574,55.522 312.336,60.672 314.198 L 64.000 315.402 64.000 445.315 L 64.000 575.228 66.094 578.954 C 69.992 585.890,72.129 586.500,92.500 586.500 C 109.465 586.500,110.709 586.370,114.144 584.234 C 121.509 579.654,120.999 590.008,121.012 444.849 L 121.024 314.500 126.879 311.285 C 136.236 306.146,148.521 296.544,153.087 290.802 C 158.294 284.253,162.451 275.545,164.449 267.000 C 165.946 260.598,165.975 241.289,164.528 214.500 C 164.261 209.550,163.795 196.275,163.493 185.000 C 163.191 173.725,162.745 161.350,162.503 157.500 C 162.261 153.650,161.779 141.275,161.432 130.000 C 160.731 107.207,159.883 103.604,154.075 98.717 C 148.077 93.669,140.010 96.125,136.220 104.152 C 134.504 107.788,134.066 111.284,133.549 125.500 C 133.209 134.850,132.732 146.550,132.488 151.500 C 132.244 156.450,131.800 167.475,131.501 176.000 C 130.787 196.359,130.011 209.030,129.328 211.500 C 129.024 212.600,127.617 214.738,126.201 216.250 C 120.806 222.011,111.426 218.255,109.169 209.430 C 108.616 207.269,107.886 195.600,107.547 183.500 C 107.207 171.400,106.733 158.350,106.494 154.500 C 106.254 150.650,105.784 138.500,105.449 127.500 C 104.958 111.423,104.489 106.715,103.055 103.500 C 100.108 96.890,96.366 94.433,89.940 94.889 C 87.743 95.045,81.945 100.922,80.458 104.500 C 79.143 107.664,78.410 116.842,77.503 141.500 C 77.200 149.750,76.749 161.000,76.501 166.500 C 76.253 172.000,75.764 183.925,75.414 193.000 C 74.710 211.281,73.740 215.049,69.128 217.434 C 65.140 219.496,63.177 219.405,59.190 216.974 C 53.056 213.235,53.044 213.137,50.496 144.000 C 49.313 111.911,48.932 107.662,46.842 103.257 C 43.583 96.389,37.682 93.253,32.288 95.521 M627.220 107.464 C 586.822 149.776,561.174 209.375,552.109 282.000 C 551.525 286.675,550.789 292.300,550.473 294.500 C 549.186 303.471,548.729 355.648,549.907 359.218 C 552.198 366.161,553.064 366.443,573.852 367.000 L 592.500 367.500 593.000 472.500 C 593.481 573.529,593.572 577.606,595.398 580.301 C 599.196 585.904,601.721 586.500,621.677 586.500 C 641.619 586.500,642.467 586.274,647.438 579.615 L 649.500 576.853 649.740 343.134 C 649.895 192.231,649.631 108.200,648.996 105.987 C 647.741 101.612,644.344 98.217,640.439 97.437 C 637.581 96.866,636.704 97.531,627.220 107.464 M316.000 194.672 C 251.238 204.151,195.475 245.130,167.033 304.146 C 148.831 341.913,143.155 383.295,150.558 424.255 C 160.540 479.482,192.763 526.783,241.000 557.018 C 282.438 582.991,336.005 592.221,385.000 581.830 C 414.271 575.623,442.185 562.492,466.500 543.492 C 475.531 536.435,493.259 518.525,500.144 509.500 C 520.031 483.438,532.530 454.468,538.545 420.500 C 540.449 409.747,541.229 380.896,539.937 369.000 C 530.131 278.682,460.542 206.938,370.727 194.548 C 356.521 192.589,329.819 192.649,316.000 194.672 M361.500 223.018 C 443.204 231.963,507.072 299.087,510.867 380.000 C 512.657 418.167,503.508 451.821,483.096 482.151 C 452.214 528.040,403.428 554.990,348.500 556.503 C 274.900 558.530,208.480 511.703,185.133 441.328 C 179.296 423.732,177.542 411.783,177.526 389.500 C 177.515 372.621,177.867 367.744,179.787 358.245 C 183.088 341.915,187.106 330.336,194.968 314.500 C 216.445 271.239,258.090 237.966,304.582 226.924 C 323.645 222.397,343.425 221.039,361.500 223.018 M326.798 262.501 C 268.435 270.630,224.104 314.224,214.985 372.454 C 213.430 382.387,213.668 403.029,215.455 413.171 C 223.745 460.219,257.717 499.705,302.500 514.344 C 316.445 518.902,324.662 520.242,340.500 520.541 C 364.500 520.993,382.230 517.037,402.375 506.736 C 436.252 489.412,460.077 459.331,469.622 421.828 C 471.872 412.987,472.293 408.980,472.546 394.000 C 472.884 373.977,471.804 366.145,466.534 350.395 C 459.570 329.585,450.701 315.443,434.607 299.490 C 418.805 283.827,404.293 274.743,384.461 268.100 C 367.138 262.298,344.227 260.073,326.798 262.501 " stroke="none" fill="black" fill-rule="evenodd"/></svg>