<?xml version="1.0" encoding="UTF-8"?>
<!--
Soliguide: Useful information for those who need it

SPDX-FileCopyrightText: © 2025 Solinum

SPDX-License-Identifier: AGPL-3.0-only

This program is free software: you can redistribute it and/or modify
it under the terms of the GNU Affero General Public License as published
by the Free Software Foundation, either version 3 of the License, or
(at your option) any later version.

This program is distributed in the hope that it will be useful,
but WITHOUT ANY WARRANTY; without even the implied warranty of
MERCHANTABILITY or FITNESS FOR A PARTICULAR PURPOSE.  See the
GNU Affero General Public License for more details.

You should have received a copy of the GNU Affero General Public License
along with this program.  If not, see <https://www.gnu.org/licenses/>.
-->
<svg width="50" height="48" viewBox="0 0 50 48" fill="none" xmlns="http://www.w3.org/2000/svg">
<path fill-rule="evenodd" clip-rule="evenodd" d="M44.4132 20.2526C44.8805 20.0964 45.3866 20.3488 45.5428 20.8161C45.6987 21.2833 45.4461 21.7886 44.979 21.9447L36.2202 24.8732L35.8255 23.6927L35.8311 23.6436L35.8128 23.6547L35.6545 23.181L44.4132 20.2526ZM32.3095 25.791L30.5925 20.6558L43.1449 16.4591L43.386 16.3856C45.879 15.6903 48.5064 17.0654 49.3364 19.5478L49.4095 19.788C50.0826 22.2007 48.8167 24.7394 46.4844 25.6529L46.2473 25.7383L35.189 29.4356C35.0575 30.5286 34.8844 31.7849 34.6494 33.0605C34.183 35.5926 33.4242 38.4982 32.0791 40.4238C30.9337 42.4198 28.6193 43.6614 26.1426 44.4092C23.5758 45.1841 20.5128 45.5286 17.4844 45.498C14.4534 45.4674 11.3748 45.0605 8.76855 44.2773C6.38652 43.5615 4.15634 42.4591 2.84766 40.8203L2.59863 40.4853C1.86331 39.4213 1.38073 37.9642 1.04297 36.5205C0.697019 35.0417 0.468592 33.4199 0.316406 31.9199C0.0118344 28.9179 0 26.2803 0 26L0.00488281 25.8789C0.0533541 25.2774 0.459844 24.7579 1.04199 24.5713C1.66292 24.3723 2.34168 24.5974 2.7207 25.1279C3.74775 26.5658 5.61612 27.9201 8.14941 28.917C10.6623 29.9058 13.725 30.5 17 30.5C21.3551 30.5 23.9269 30.0394 26.0908 29.207C27.9109 28.5068 29.4785 27.5388 31.6482 26.199C31.8624 26.0667 32.0826 25.9307 32.3095 25.791ZM27.1689 32.0068C28.8978 31.3416 30.4557 30.4484 32.1689 29.4014C32.049 30.3653 31.8993 31.4314 31.6992 32.5176C31.2291 35.0699 30.542 37.426 29.5859 38.7578L29.5361 38.8271L29.4951 38.9023C28.9397 39.8985 27.544 40.8522 25.2754 41.5371C23.0715 42.2025 20.3256 42.5264 17.5156 42.498C14.7082 42.4697 11.917 42.091 9.63184 41.4043C7.42802 40.742 5.93143 39.865 5.20215 38.9609L5.06641 38.7803C4.65832 38.1898 4.27786 37.1791 3.96387 35.8369C3.65813 34.5299 3.44587 33.0472 3.30078 31.6172C3.23088 30.9282 3.17796 30.2585 3.13672 29.6357C4.28862 30.4479 5.61575 31.1429 7.05176 31.708C9.93914 32.8441 13.3766 33.5 17 33.5C21.5707 33.5 24.5427 33.0172 27.1689 32.0068Z" fill="#404040"/>
<mask id="path-2-inside-1_260_219" fill="white">
<path fill-rule="evenodd" clip-rule="evenodd" d="M17.7323 33.5698C27.5255 33.5698 35.4645 30.0844 35.4645 25.7849C35.4645 21.4854 27.5255 18 17.7323 18C7.939 18 0 21.4854 0 25.7849C0 30.0844 7.939 33.5698 17.7323 33.5698ZM17.5 30C24.9558 30 31 27.9853 31 25.5C31 23.0147 24.9558 21 17.5 21C10.0442 21 4 23.0147 4 25.5C4 27.9853 10.0442 30 17.5 30Z"/>
</mask>
<path fill-rule="evenodd" clip-rule="evenodd" d="M17.7323 33.5698C27.5255 33.5698 35.4645 30.0844 35.4645 25.7849C35.4645 21.4854 27.5255 18 17.7323 18C7.939 18 0 21.4854 0 25.7849C0 30.0844 7.939 33.5698 17.7323 33.5698ZM17.5 30C24.9558 30 31 27.9853 31 25.5C31 23.0147 24.9558 21 17.5 21C10.0442 21 4 23.0147 4 25.5C4 27.9853 10.0442 30 17.5 30Z" fill="#404040"/>
<path d="M35.4645 25.7849H31.4645C31.4645 25.5412 31.5938 25.6211 31.1904 26.0399C30.7681 26.4782 29.9649 27.0555 28.6629 27.6271C26.0704 28.7652 22.209 29.5698 17.7323 29.5698V33.5698V37.5698C23.0488 37.5698 28.0535 36.6316 31.8788 34.9522C33.7857 34.115 35.5793 33.0148 36.9516 31.5904C38.3428 30.1464 39.4645 28.1784 39.4645 25.7849H35.4645ZM17.7323 18V22C22.209 22 26.0704 22.8046 28.6629 23.9427C29.9649 24.5143 30.7681 25.0916 31.1904 25.5299C31.5938 25.9486 31.4645 26.0286 31.4645 25.7849H35.4645H39.4645C39.4645 23.3914 38.3428 21.4234 36.9516 19.9794C35.5793 18.555 33.7857 17.4548 31.8788 16.6176C28.0535 14.9382 23.0488 14 17.7323 14V18ZM0 25.7849H4C4 26.0286 3.87069 25.9486 4.27411 25.5299C4.69638 25.0916 5.49963 24.5143 6.80162 23.9427C9.39411 22.8046 13.2555 22 17.7323 22V18V14C12.4157 14 7.41102 14.9382 3.5857 16.6176C1.67878 17.4548 -0.114802 18.555 -1.48714 19.9794C-2.87832 21.4234 -4 23.3914 -4 25.7849H0ZM17.7323 33.5698V29.5698C13.2555 29.5698 9.39411 28.7652 6.80162 27.6271C5.49963 27.0555 4.69638 26.4782 4.27411 26.0399C3.87069 25.6211 4 25.5412 4 25.7849H0H-4C-4 28.1784 -2.87832 30.1464 -1.48714 31.5904C-0.114802 33.0148 1.67878 34.115 3.5857 34.9522C7.41102 36.6316 12.4157 37.5698 17.7323 37.5698V33.5698ZM31 25.5H27C27 24.3704 27.6905 23.9309 27.4632 24.11C27.2811 24.2535 26.7696 24.5577 25.781 24.8872C23.8457 25.5324 20.9176 26 17.5 26V30V34C21.5382 34 25.3601 33.4603 28.3109 32.4767C29.7653 31.9919 31.2309 31.3264 32.415 30.3932C33.554 29.4956 35 27.8722 35 25.5H31ZM17.5 21V25C20.9176 25 23.8457 25.4676 25.781 26.1128C26.7696 26.4423 27.2811 26.7465 27.4632 26.89C27.6905 27.0691 27 26.6296 27 25.5H31H35C35 23.1278 33.554 21.5044 32.415 20.6068C31.2309 19.6736 29.7653 19.0081 28.3109 18.5233C25.3601 17.5397 21.5382 17 17.5 17V21ZM4 25.5H8C8 26.6296 7.30955 27.0691 7.53679 26.89C7.71894 26.7465 8.2304 26.4423 9.21897 26.1128C11.1543 25.4676 14.0824 25 17.5 25V21V17C13.4618 17 9.63986 17.5397 6.68915 18.5233C5.2347 19.0081 3.76913 19.6736 2.585 20.6068C1.44597 21.5044 0 23.1278 0 25.5H4ZM17.5 30V26C14.0824 26 11.1543 25.5324 9.21897 24.8872C8.2304 24.5577 7.71894 24.2535 7.53679 24.11C7.30955 23.9309 8 24.3704 8 25.5H4H0C0 27.8722 1.44597 29.4956 2.585 30.3932C3.76913 31.3264 5.2347 31.9919 6.68915 32.4767C9.63986 33.4603 13.4618 34 17.5 34V30Z" fill="#404040" mask="url(#path-2-inside-1_260_219)"/>
<path d="M11.2595 6.17936L12.0636 4.34151C12.3997 3.57324 13.2521 3.17189 14.0584 3.40227C14.9514 3.65741 15.4664 4.59036 15.2063 5.48195L14.6137 7.51383C14.4887 7.94246 14.5595 8.40442 14.8072 8.77592L15.4804 9.78585C16.089 10.6986 16.2897 11.8237 16.0344 12.8906L15.4765 15.2219C15.2645 16.1076 14.3626 16.6431 13.4835 16.4052C12.6105 16.1689 12.1016 15.2619 12.3548 14.3937L12.8517 12.6901C12.9639 12.3053 12.8983 11.8904 12.6728 11.559L11.6146 10.0042C10.8462 8.8752 10.7121 7.43052 11.2595 6.17936Z" fill="#404040"/>
<path d="M19.0442 6.17936L19.8482 4.34151C20.1844 3.57324 21.0368 3.17189 21.8431 3.40227C22.7361 3.65741 23.251 4.59036 22.991 5.48195L22.3984 7.51383C22.2733 7.94246 22.3442 8.40442 22.5918 8.77592L23.2651 9.78585C23.8736 10.6986 24.0744 11.8237 23.819 12.8906L23.2611 15.2219C23.0492 16.1076 22.1472 16.6431 21.2681 16.4052C20.3951 16.1689 19.8862 15.2619 20.1395 14.3937L20.6363 12.6901C20.7486 12.3053 20.6829 11.8904 20.4574 11.559L19.3993 10.0042C18.6309 8.8752 18.4968 7.43052 19.0442 6.17936Z" fill="#404040"/>
</svg>
