<?xml version="1.0" encoding="UTF-8"?>
<!--
Soliguide: Useful information for those who need it

SPDX-FileCopyrightText: © 2025 Solinum

SPDX-License-Identifier: AGPL-3.0-only

This program is free software: you can redistribute it and/or modify
it under the terms of the GNU Affero General Public License as published
by the Free Software Foundation, either version 3 of the License, or
(at your option) any later version.

This program is distributed in the hope that it will be useful,
but WITHOUT ANY WARRANTY; without even the implied warranty of
MERCHANTABILITY or FITNESS FOR A PARTICULAR PURPOSE.  See the
GNU Affero General Public License for more details.

You should have received a copy of the GNU Affero General Public License
along with this program.  If not, see <https://www.gnu.org/licenses/>.
-->
<svg width="51" height="48" viewBox="0 0 51 48" fill="none" xmlns="http://www.w3.org/2000/svg">
<path fill-rule="evenodd" clip-rule="evenodd" d="M44.1104 16.8406C46.7001 15.9748 49.5012 17.372 50.3672 19.9617C51.2193 22.5107 49.879 25.2745 47.3496 26.1833L33.4414 31.1804C32.9922 34.1745 32.2217 37.6584 30.8047 39.6326C27.4279 45.6889 7.69295 45.2169 3.83301 39.6326C1.87215 36.7952 0.823516 29.1792 0.564453 26.741C0.196143 26.1161 4.85338e-05 25.4603 0 24.7849C0.000273721 20.4855 7.93934 16.9998 17.7324 16.9998C24.0538 16.9998 29.6005 18.4554 32.7402 20.6414L44.1104 16.8406ZM17.5 19.9998C10.0446 19.9998 4.00079 22.0147 4 24.4998C4.00041 26.9849 10.0444 28.9998 17.5 28.9998C24.9556 28.9998 30.9996 26.9849 31 24.4998C30.9992 22.0147 24.9554 19.9998 17.5 19.9998Z" fill="#271332"/>
<path d="M12.0977 3.77417C12.4338 3.0059 13.2865 2.60434 14.0928 2.83471C14.9857 3.08992 15.5003 4.02326 15.2402 4.91479L14.6475 6.94604C14.5224 7.37467 14.5941 7.83724 14.8418 8.20874L15.5146 9.2185C16.1231 10.1313 16.3237 11.2561 16.0684 12.323L15.5107 14.654C15.2988 15.5398 14.3967 16.0756 13.5176 15.8376C12.6446 15.6013 12.1354 14.6941 12.3887 13.8259L12.8857 12.1228C12.9979 11.7381 12.9324 11.3233 12.707 10.9919L11.6484 9.43628C10.8804 8.30736 10.7467 6.86303 11.2939 5.61206L12.0977 3.77417Z" fill="#271332"/>
<path d="M19.8828 3.77417C20.2189 3.0059 21.0716 2.60434 21.8779 2.83471C22.7708 3.08992 23.2854 4.02326 23.0254 4.91479L22.4326 6.94604C22.3076 7.37467 22.3793 7.83724 22.627 8.20874L23.2998 9.2185C23.9083 10.1313 24.1088 11.2561 23.8535 12.323L23.2959 14.654C23.0839 15.5398 22.1818 16.0756 21.3027 15.8376C20.4298 15.6013 19.9206 14.6941 20.1738 13.8259L20.6709 12.1228C20.7831 11.7381 20.7175 11.3233 20.4922 10.9919L19.4336 9.43628C18.6655 8.30736 18.5318 6.86303 19.0791 5.61206L19.8828 3.77417Z" fill="#271332"/>
</svg>
