<?xml version="1.0" encoding="UTF-8"?>
<!--
Soliguide: Useful information for those who need it

SPDX-FileCopyrightText: © 2025 Solinum

SPDX-License-Identifier: AGPL-3.0-only

This program is free software: you can redistribute it and/or modify
it under the terms of the GNU Affero General Public License as published
by the Free Software Foundation, either version 3 of the License, or
(at your option) any later version.

This program is distributed in the hope that it will be useful,
but WITHOUT ANY WARRANTY; without even the implied warranty of
MERCHANTABILITY or FITNESS FOR A PARTICULAR PURPOSE.  See the
GNU Affero General Public License for more details.

You should have received a copy of the GNU Affero General Public License
along with this program.  If not, see <https://www.gnu.org/licenses/>.
-->
<svg version="1.1" width="512" height="486" xmlns="http://www.w3.org/2000/svg"><path d="M132.475 29.060 C 127.235 30.585,123.470 35.792,117.332 50.000 C 111.569 63.340,111.500 63.613,111.518 73.000 C 111.539 84.195,113.197 88.556,122.825 102.748 C 132.555 117.091,132.412 116.309,128.000 131.162 C 126.350 136.716,125.000 142.821,125.000 144.729 C 125.000 160.255,146.623 166.371,154.405 153.047 C 157.455 147.823,162.962 123.676,162.982 115.432 C 163.006 105.761,161.072 100.029,154.131 89.204 C 150.874 84.125,147.914 78.794,147.554 77.359 C 147.126 75.654,148.329 69.649,151.027 60.020 C 154.686 46.966,155.032 44.833,154.074 41.276 C 152.620 35.875,149.494 32.129,144.579 29.896 C 140.166 27.892,137.195 27.687,132.475 29.060 M211.145 29.070 C 205.058 31.508,203.234 33.956,196.863 48.238 L 190.500 62.500 190.563 73.000 C 190.638 85.592,191.633 88.227,201.939 103.121 C 205.800 108.702,209.216 114.670,209.530 116.384 C 209.895 118.378,209.004 123.280,207.056 130.000 C 202.564 145.498,203.166 151.839,209.611 156.908 C 216.353 162.212,225.248 161.514,231.129 155.220 C 234.438 151.680,235.090 149.940,238.503 135.552 C 244.142 111.785,243.223 105.139,231.911 87.878 C 229.164 83.686,226.670 78.736,226.370 76.878 C 226.005 74.614,227.045 69.248,229.526 60.605 C 234.960 41.668,233.790 35.263,223.980 30.250 C 219.353 27.886,215.082 27.493,211.145 29.070 M449.500 169.521 C 446.750 170.285,418.906 179.463,387.625 189.917 L 330.749 208.923 326.321 205.877 C 323.886 204.201,316.855 200.408,310.697 197.447 C 263.758 174.879,190.196 166.486,123.500 176.091 C 62.580 184.864,17.356 207.155,4.124 234.931 C 0.892 241.716,0.523 243.328,0.564 250.500 C 0.599 256.730,1.188 259.938,3.226 265.000 C 5.058 269.552,6.639 277.194,8.502 290.500 C 17.290 353.257,29.471 392.138,45.223 407.710 C 63.208 425.487,98.129 437.841,145.500 443.183 C 159.993 444.818,201.535 444.786,215.500 443.129 C 257.630 438.131,288.660 426.656,304.151 410.344 C 318.508 395.226,329.441 366.406,336.521 325.011 C 337.414 319.792,338.244 315.423,338.365 315.301 C 338.487 315.180,371.104 303.390,410.848 289.103 C 450.592 274.815,485.223 261.891,487.805 260.383 C 494.343 256.563,501.906 248.536,505.730 241.357 C 523.550 207.909,499.314 167.713,461.540 168.066 C 457.668 168.102,452.250 168.757,449.500 169.521 M203.500 203.015 C 273.148 208.026,319.200 228.641,313.011 252.040 C 311.443 257.965,301.988 267.246,292.500 272.171 C 273.555 282.004,243.870 289.184,210.349 292.041 C 191.416 293.654,144.661 292.802,128.500 290.548 C 101.628 286.802,78.109 280.442,62.810 272.785 C 52.261 267.505,42.691 258.476,41.046 252.250 C 36.825 236.277,56.659 221.181,94.663 211.440 C 125.289 203.591,166.816 200.376,203.500 203.015 " stroke="none" fill="black" fill-rule="evenodd"/></svg>