<svg width="48" height="48" viewBox="0 0 48 48" fill="none" xmlns="http://www.w3.org/2000/svg">
<path d="M32.3999 21.6C32.3999 14.31 26.4899 8.4 19.1999 8.4C11.9099 8.4 5.9999 14.31 5.9999 21.6C5.9999 28.89 11.9099 34.8 19.1999 34.8C26.4899 34.8 32.3999 28.89 32.3999 21.6ZM29.7599 34.6725C26.8724 37.005 23.1974 38.4 19.1999 38.4C9.9224 38.4 2.3999 30.8775 2.3999 21.6C2.3999 12.3225 9.9224 4.8 19.1999 4.8C28.4774 4.8 35.9999 12.3225 35.9999 21.6C35.9999 24.105 35.4524 26.4825 34.4699 28.62L43.7474 34.6125C44.9099 35.49 45.5999 36.84 45.5999 38.4C45.5999 41.0475 43.4474 43.2 40.7999 43.2C39.6599 43.2 38.6774 42.855 37.8524 42.1875L29.7599 34.6725ZM41.9999 38.4C41.9999 37.74 41.4599 37.2 40.7999 37.2C40.1399 37.2 39.5999 37.74 39.5999 38.4C39.5999 39.06 40.1399 39.6 40.7999 39.6C41.4599 39.6 41.9999 39.06 41.9999 38.4ZM21.4574 13.47C22.5974 14.655 24.7949 15.9375 26.3924 16.35C27.4199 16.6125 28.3724 17.22 29.0549 18.1425C30.6299 20.2725 30.1874 23.28 28.0574 24.855C27.3899 25.35 26.6399 25.6425 25.8674 25.755C24.4724 25.95 22.7024 26.9775 21.9974 28.2C20.3399 31.0725 16.6724 32.055 13.7999 30.3975C10.9274 28.74 9.9449 25.0725 11.6024 22.2C12.5324 20.595 13.0574 18.225 13.2149 16.38C13.3124 15.2625 13.7999 14.175 14.6699 13.3425C16.5824 11.505 19.6199 11.565 21.4574 13.4775V13.47ZM22.7999 21.6C22.7999 19.6125 21.1874 18 19.1999 18C17.2124 18 15.5999 19.6125 15.5999 21.6C15.5999 23.5875 17.2124 25.2 19.1999 25.2C21.1874 25.2 22.7999 23.5875 22.7999 21.6Z" fill="#271332"/>
</svg>
