<?xml version="1.0" encoding="UTF-8"?>
<!--
Soliguide: Useful information for those who need it

SPDX-FileCopyrightText: © 2025 Solinum

SPDX-License-Identifier: AGPL-3.0-only

This program is free software: you can redistribute it and/or modify
it under the terms of the GNU Affero General Public License as published
by the Free Software Foundation, either version 3 of the License, or
(at your option) any later version.

This program is distributed in the hope that it will be useful,
but WITHOUT ANY WARRANTY; without even the implied warranty of
MERCHANTABILITY or FITNESS FOR A PARTICULAR PURPOSE.  See the
GNU Affero General Public License for more details.

You should have received a copy of the GNU Affero General Public License
along with this program.  If not, see <https://www.gnu.org/licenses/>.
-->
<svg width="51" height="48" viewBox="0 0 51 48" fill="none" xmlns="http://www.w3.org/2000/svg">
<path fill-rule="evenodd" clip-rule="evenodd" d="M44.1101 16.8401L30.8283 21.2808L32.299 27.5235C27.4431 30.3107 24.2897 31.1428 16.2609 31.1428C9.36232 31.1428 3.45652 28.0571 0.5 26C0.5 26.5143 1.54569 36.3238 3.83267 39.6328C7.69237 45.2173 27.4285 45.6894 30.805 39.6328C32.2221 37.6586 32.9924 34.1744 33.4417 31.1802L47.3499 26.1827C49.8794 25.2739 51.2196 22.5108 50.3673 19.9617C49.5014 17.3718 46.7 15.9743 44.1101 16.8401Z" fill="#404040"/>
<mask id="path-2-inside-1_369_1279" fill="white">
<path fill-rule="evenodd" clip-rule="evenodd" d="M17.7323 32.5698C27.5255 32.5698 35.4645 29.0844 35.4645 24.7849C35.4645 20.4854 27.5255 17 17.7323 17C7.939 17 0 20.4854 0 24.7849C0 29.0844 7.939 32.5698 17.7323 32.5698ZM17.5 29C24.9558 29 31 26.9853 31 24.5C31 22.0147 24.9558 20 17.5 20C10.0442 20 4 22.0147 4 24.5C4 26.9853 10.0442 29 17.5 29Z"/>
</mask>
<path fill-rule="evenodd" clip-rule="evenodd" d="M17.7323 32.5698C27.5255 32.5698 35.4645 29.0844 35.4645 24.7849C35.4645 20.4854 27.5255 17 17.7323 17C7.939 17 0 20.4854 0 24.7849C0 29.0844 7.939 32.5698 17.7323 32.5698ZM17.5 29C24.9558 29 31 26.9853 31 24.5C31 22.0147 24.9558 20 17.5 20C10.0442 20 4 22.0147 4 24.5C4 26.9853 10.0442 29 17.5 29Z" fill="#404040"/>
<path d="M35.4645 24.7849H31.4645C31.4645 24.5412 31.5938 24.6211 31.1904 25.0399C30.7681 25.4782 29.9649 26.0555 28.6629 26.6271C26.0704 27.7652 22.209 28.5698 17.7323 28.5698V32.5698V36.5698C23.0488 36.5698 28.0535 35.6316 31.8788 33.9522C33.7857 33.115 35.5793 32.0148 36.9516 30.5904C38.3428 29.1464 39.4645 27.1784 39.4645 24.7849H35.4645ZM17.7323 17V21C22.209 21 26.0704 21.8046 28.6629 22.9427C29.9649 23.5143 30.7681 24.0916 31.1904 24.5299C31.5938 24.9486 31.4645 25.0286 31.4645 24.7849H35.4645H39.4645C39.4645 22.3914 38.3428 20.4234 36.9516 18.9794C35.5793 17.555 33.7857 16.4548 31.8788 15.6176C28.0535 13.9382 23.0488 13 17.7323 13V17ZM0 24.7849H4C4 25.0286 3.87069 24.9486 4.27411 24.5299C4.69638 24.0916 5.49963 23.5143 6.80162 22.9427C9.39411 21.8046 13.2555 21 17.7323 21V17V13C12.4157 13 7.41102 13.9382 3.5857 15.6176C1.67878 16.4548 -0.114802 17.555 -1.48714 18.9794C-2.87832 20.4234 -4 22.3914 -4 24.7849H0ZM17.7323 32.5698V28.5698C13.2555 28.5698 9.39411 27.7652 6.80162 26.6271C5.49963 26.0555 4.69638 25.4782 4.27411 25.0399C3.87069 24.6211 4 24.5412 4 24.7849H0H-4C-4 27.1784 -2.87832 29.1464 -1.48714 30.5904C-0.114801 32.0148 1.67878 33.115 3.5857 33.9522C7.41102 35.6316 12.4157 36.5698 17.7323 36.5698V32.5698ZM31 24.5H27C27 23.3704 27.6905 22.9309 27.4632 23.11C27.2811 23.2535 26.7696 23.5577 25.781 23.8872C23.8457 24.5324 20.9176 25 17.5 25V29V33C21.5382 33 25.3601 32.4603 28.3109 31.4767C29.7653 30.9919 31.2309 30.3264 32.415 29.3932C33.554 28.4956 35 26.8722 35 24.5H31ZM17.5 20V24C20.9176 24 23.8457 24.4676 25.781 25.1128C26.7696 25.4423 27.2811 25.7465 27.4632 25.89C27.6905 26.0691 27 25.6296 27 24.5H31H35C35 22.1278 33.554 20.5044 32.415 19.6068C31.2309 18.6736 29.7653 18.0081 28.3109 17.5233C25.3601 16.5397 21.5382 16 17.5 16V20ZM4 24.5H8C8 25.6296 7.30955 26.0691 7.53679 25.89C7.71894 25.7465 8.2304 25.4423 9.21897 25.1128C11.1543 24.4676 14.0824 24 17.5 24V20V16C13.4618 16 9.63986 16.5397 6.68915 17.5233C5.2347 18.0081 3.76913 18.6736 2.585 19.6068C1.44597 20.5044 0 22.1278 0 24.5H4ZM17.5 29V25C14.0824 25 11.1543 24.5324 9.21897 23.8872C8.2304 23.5577 7.71894 23.2535 7.53679 23.11C7.30955 22.9309 8 23.3704 8 24.5H4H0C0 26.8722 1.44597 28.4956 2.585 29.3932C3.76913 30.3264 5.2347 30.9919 6.68915 31.4767C9.63986 32.4603 13.4618 33 17.5 33V29Z" fill="#404040" mask="url(#path-2-inside-1_369_1279)"/>
<path d="M11.2937 5.61185L12.0977 3.774C12.4339 3.00574 13.2863 2.60439 14.0926 2.83476C14.9856 3.0899 15.5005 4.02286 15.2405 4.91444L14.6479 6.94633C14.5229 7.37495 14.5937 7.83691 14.8413 8.20841L15.5146 9.21835C16.1232 10.1311 16.3239 11.2562 16.0685 12.3231L15.5106 14.6544C15.2987 15.5401 14.3967 16.0756 13.5176 15.8376C12.6446 15.6013 12.1357 14.6944 12.389 13.8261L12.8858 12.1226C12.9981 11.7378 12.9325 11.3229 12.7069 10.9915L11.6488 9.4367C10.8804 8.30769 10.7463 6.86301 11.2937 5.61185Z" fill="#404040"/>
<path d="M19.0788 5.61185L19.8829 3.774C20.219 3.00574 21.0714 2.60439 21.8777 2.83476C22.7707 3.0899 23.2857 4.02286 23.0257 4.91444L22.433 6.94633C22.308 7.37495 22.3788 7.83691 22.6265 8.20841L23.2998 9.21835C23.9083 10.1311 24.109 11.2562 23.8537 12.3231L23.2958 14.6544C23.0838 15.5401 22.1819 16.0756 21.3028 15.8376C20.4298 15.6013 19.9209 14.6944 20.1741 13.8261L20.671 12.1226C20.7832 11.7378 20.7176 11.3229 20.4921 10.9915L19.4339 9.4367C18.6656 8.30769 18.5315 6.86301 19.0788 5.61185Z" fill="#404040"/>
</svg>
