<?xml version="1.0" encoding="UTF-8"?>
<!--
Soliguide: Useful information for those who need it

SPDX-FileCopyrightText: © 2025 Solinum

SPDX-License-Identifier: AGPL-3.0-only

This program is free software: you can redistribute it and/or modify
it under the terms of the GNU Affero General Public License as published
by the Free Software Foundation, either version 3 of the License, or
(at your option) any later version.

This program is distributed in the hope that it will be useful,
but WITHOUT ANY WARRANTY; without even the implied warranty of
MERCHANTABILITY or FITNESS FOR A PARTICULAR PURPOSE.  See the
GNU Affero General Public License for more details.

You should have received a copy of the GNU Affero General Public License
along with this program.  If not, see <https://www.gnu.org/licenses/>.
-->
<svg width="51" height="48" viewBox="0 0 51 48" fill="none" xmlns="http://www.w3.org/2000/svg">
<path fill-rule="evenodd" clip-rule="evenodd" d="M43.1447 16.4587C45.707 15.6021 48.4793 16.9854 49.3361 19.5476L49.4093 19.7878C50.1047 22.2808 48.7295 24.908 46.2472 25.738L35.1886 29.4343C35.0572 30.5273 34.8845 31.7845 34.6496 33.0603C34.1832 35.5922 33.4241 38.4981 32.0793 40.4236C30.9338 42.4194 28.6193 43.6612 26.1427 44.4089C23.576 45.1839 20.513 45.5284 17.4845 45.4978C14.4536 45.4671 11.3749 45.0602 8.76872 44.2771C6.22818 43.5136 3.86008 42.3099 2.5988 40.4851C1.86364 39.4212 1.38086 37.9638 1.04313 36.5203C0.697258 35.0417 0.468742 33.4194 0.31657 31.9197C0.0121601 28.919 9.57986e-06 26.0669 0 25.7849C5.13002e-06 25.8262 -0.00146878 25.7438 0 25.7849C0.000500105 21.4856 7.93964 17.9998 17.7326 17.9998C22.9451 17.9998 27.6326 18.9872 30.8771 20.5593L43.1447 16.4587ZM3.18083 30.2312C3.21456 30.6778 3.25289 31.1432 3.30094 31.6169C3.44602 33.0467 3.65836 34.5299 3.96403 35.8367C4.27796 37.1785 4.65859 38.1896 5.06657 38.78C5.73521 39.7472 7.28171 40.6977 9.632 41.404C11.9172 42.0907 14.7084 42.4694 17.5158 42.4978C20.3257 42.5262 23.0717 42.2022 25.2756 41.5369C27.5439 40.852 29.0306 39.7537 29.5861 38.7576C30.542 37.4258 31.2293 35.0694 31.6994 32.5173C31.8336 31.7884 31.9441 31.0677 32.0392 30.3816C28.8123 32.3129 23.6066 33.5691 17.7326 33.5691C11.7073 33.5691 6.38531 32.2476 3.18083 30.2312ZM17.5002 20.9998C10.0447 20.9998 4.00082 23.0147 4.00016 25.4998C4.00044 27.985 10.0445 29.9998 17.5002 29.9998C21.8069 29.9998 25.6416 29.3249 28.1134 28.2781C29.6096 27.6445 31.0001 26.1121 31.0002 25.4998C30.9995 23.0147 24.9556 20.9998 17.5002 20.9998ZM45.5431 20.8162C45.3868 20.3491 44.8804 20.0966 44.4132 20.2527L35.6545 23.1804L36.2199 24.8728L44.9787 21.9441C45.4456 21.7879 45.6986 21.2831 45.5431 20.8162Z" fill="#271332"/>
<path d="M12.0636 4.34155C12.3998 3.57328 13.2524 3.17172 14.0588 3.4021C14.9517 3.65729 15.4662 4.59064 15.2062 5.48217L14.6134 7.51342C14.4884 7.94205 14.5601 8.40462 14.8078 8.77612L15.4806 9.78588C16.0891 10.6986 16.2896 11.8235 16.0343 12.8904L15.4767 15.2214C15.2648 16.1072 14.3627 16.643 13.4836 16.405C12.6106 16.1687 12.1014 15.2615 12.3547 14.3933L12.8517 12.6902C12.9639 12.3055 12.8984 11.8907 12.673 11.5593L11.6144 10.0046C10.8461 8.87563 10.7125 7.4306 11.2599 6.17944L12.0636 4.34155Z" fill="#271332"/>
<path d="M19.8488 4.34155C20.1849 3.57346 21.0368 3.17193 21.8429 3.4021C22.7359 3.65724 23.2514 4.59059 22.9914 5.48217L22.3986 7.51342C22.2736 7.94205 22.3443 8.40462 22.592 8.77612L23.2648 9.78588C23.8733 10.6986 24.0747 11.8235 23.8195 12.8904L23.2609 15.2214C23.049 16.107 22.1477 16.6427 21.2687 16.405C20.3957 16.1687 19.8866 15.2615 20.1398 14.3933L20.6369 12.6902C20.7491 12.3054 20.6827 11.8907 20.4572 11.5593L19.3996 10.0046C18.6313 8.87567 18.4968 7.43056 19.0441 6.17944L19.8488 4.34155Z" fill="#271332"/>
</svg>
