<?xml version="1.0" encoding="UTF-8"?>
<!--
Soliguide: Useful information for those who need it

SPDX-FileCopyrightText: © 2025 Solinum

SPDX-License-Identifier: AGPL-3.0-only

This program is free software: you can redistribute it and/or modify
it under the terms of the GNU Affero General Public License as published
by the Free Software Foundation, either version 3 of the License, or
(at your option) any later version.

This program is distributed in the hope that it will be useful,
but WITHOUT ANY WARRANTY; without even the implied warranty of
MERCHANTABILITY or FITNESS FOR A PARTICULAR PURPOSE.  See the
GNU Affero General Public License for more details.

You should have received a copy of the GNU Affero General Public License
along with this program.  If not, see <https://www.gnu.org/licenses/>.
-->
<svg width="48" height="48" viewBox="0 0 48 48" fill="none" xmlns="http://www.w3.org/2000/svg">
<path d="M18 34C18 35.1 17.1 36 16 36C14.9 36 14 35.1 14 34C14 32.9 14.9 32 16 32C17.1 32 18 32.9 18 34ZM24 32C22.9 32 22 32.9 22 34C22 35.1 22.9 36 24 36C25.1 36 26 35.1 26 34C26 32.9 25.1 32 24 32ZM32 32C30.9 32 30 32.9 30 34C30 35.1 30.9 36 32 36C33.1 36 34 35.1 34 34C34 32.9 33.1 32 32 32ZM38 24V28H10V24C10 16.94 15.22 11.14 22 10.16V6H26V10.16C32.78 11.14 38 16.94 38 24ZM34 24C34 18.48 29.52 14 24 14C18.48 14 14 18.48 14 24H34ZM16 38C14.9 38 14 38.9 14 40C14 41.1 14.9 42 16 42C17.1 42 18 41.1 18 40C18 38.9 17.1 38 16 38ZM24 38C22.9 38 22 38.9 22 40C22 41.1 22.9 42 24 42C25.1 42 26 41.1 26 40C26 38.9 25.1 38 24 38ZM32 38C30.9 38 30 38.9 30 40C30 41.1 30.9 42 32 42C33.1 42 34 41.1 34 40C34 38.9 33.1 38 32 38Z" fill="#404040"/>
</svg>
