<?xml version="1.0" encoding="UTF-8"?>
<!--
Soliguide: Useful information for those who need it

SPDX-FileCopyrightText: © 2025 Solinum

SPDX-License-Identifier: AGPL-3.0-only

This program is free software: you can redistribute it and/or modify
it under the terms of the GNU Affero General Public License as published
by the Free Software Foundation, either version 3 of the License, or
(at your option) any later version.

This program is distributed in the hope that it will be useful,
but WITHOUT ANY WARRANTY; without even the implied warranty of
MERCHANTABILITY or FITNESS FOR A PARTICULAR PURPOSE.  See the
GNU Affero General Public License for more details.

You should have received a copy of the GNU Affero General Public License
along with this program.  If not, see <https://www.gnu.org/licenses/>.
-->
<svg width="48" height="48" viewBox="0 0 48 48" fill="none" xmlns="http://www.w3.org/2000/svg">
<path d="M16 36C17.1046 36 18 35.1046 18 34C18 32.8954 17.1046 32 16 32C14.8954 32 14 32.8954 14 34C14 35.1046 14.8954 36 16 36Z" fill="#404040"/>
<path d="M24 36C25.1046 36 26 35.1046 26 34C26 32.8954 25.1046 32 24 32C22.8954 32 22 32.8954 22 34C22 35.1046 22.8954 36 24 36Z" fill="#404040"/>
<path d="M32 36C33.1046 36 34 35.1046 34 34C34 32.8954 33.1046 32 32 32C30.8954 32 30 32.8954 30 34C30 35.1046 30.8954 36 32 36Z" fill="#404040"/>
<path d="M26 10.16V8C26 6.9 25.1 6 24 6C22.9 6 22 6.9 22 8V10.16C15.22 11.14 10 16.94 10 24V26C10 27.1 10.9 28 12 28H36C37.1 28 38 27.1 38 26V24C38 16.94 32.78 11.14 26 10.16Z" fill="#404040"/>
<path d="M16 42C17.1046 42 18 41.1046 18 40C18 38.8954 17.1046 38 16 38C14.8954 38 14 38.8954 14 40C14 41.1046 14.8954 42 16 42Z" fill="#404040"/>
<path d="M24 42C25.1046 42 26 41.1046 26 40C26 38.8954 25.1046 38 24 38C22.8954 38 22 38.8954 22 40C22 41.1046 22.8954 42 24 42Z" fill="#404040"/>
<path d="M32 42C33.1046 42 34 41.1046 34 40C34 38.8954 33.1046 38 32 38C30.8954 38 30 38.8954 30 40C30 41.1046 30.8954 42 32 42Z" fill="#404040"/>
</svg>
