<?xml version="1.0" encoding="UTF-8"?>
<!--
Soliguide: Useful information for those who need it

SPDX-FileCopyrightText: © 2025 Solinum

SPDX-License-Identifier: AGPL-3.0-only

This program is free software: you can redistribute it and/or modify
it under the terms of the GNU Affero General Public License as published
by the Free Software Foundation, either version 3 of the License, or
(at your option) any later version.

This program is distributed in the hope that it will be useful,
but WITHOUT ANY WARRANTY; without even the implied warranty of
MERCHANTABILITY or FITNESS FOR A PARTICULAR PURPOSE.  See the
GNU Affero General Public License for more details.

You should have received a copy of the GNU Affero General Public License
along with this program.  If not, see <https://www.gnu.org/licenses/>.
-->
<svg version="1.1" width="667" height="667" xmlns="http://www.w3.org/2000/svg"><path d="M204.500 27.446 C 180.749 32.713,158.970 50.645,150.323 72.053 C 144.137 87.368,144.557 77.606,144.238 213.250 L 143.947 337.000 120.539 337.000 C 95.713 337.000,93.402 337.349,88.627 341.814 C 84.459 345.710,83.000 349.978,83.000 358.268 C 83.000 364.566,83.387 366.196,85.741 369.827 C 89.180 375.131,94.823 378.000,101.816 378.000 L 107.000 378.000 107.000 426.042 C 107.000 466.007,107.267 475.380,108.587 481.792 C 110.875 492.909,114.344 502.207,119.444 510.894 C 135.021 537.424,160.638 553.670,191.788 556.774 L 199.076 557.500 189.552 572.500 L 180.029 587.500 192.711 587.781 C 199.687 587.936,205.916 587.863,206.553 587.618 C 207.190 587.373,212.389 580.395,218.106 572.110 L 228.500 557.047 337.500 557.049 L 446.500 557.051 455.254 569.776 C 460.068 576.774,465.018 583.754,466.254 585.288 L 468.500 588.075 481.736 587.788 L 494.971 587.500 485.445 572.500 L 475.918 557.500 480.709 556.713 C 496.090 554.184,510.028 549.205,520.500 542.498 C 527.685 537.896,538.551 527.670,544.671 519.752 C 552.898 509.108,560.673 490.290,562.335 477.000 C 562.645 474.525,562.921 451.238,562.949 425.250 L 563.000 378.000 567.935 378.000 C 573.983 378.000,577.617 376.699,581.373 373.186 C 585.448 369.377,587.000 365.049,587.000 357.500 C 587.000 353.890,586.380 349.488,585.623 347.718 C 583.958 343.826,579.516 339.511,575.685 338.064 C 573.730 337.325,511.177 337.000,370.927 337.000 L 168.984 337.000 169.080 217.250 C 169.183 87.497,169.059 90.581,174.650 79.059 C 178.207 71.727,189.764 60.189,197.131 56.614 C 218.097 46.440,242.147 50.197,258.129 66.142 C 264.320 72.319,270.792 84.007,271.667 90.592 L 272.186 94.500 265.750 97.291 C 253.632 102.545,249.353 110.364,252.967 120.645 C 253.981 123.531,255.502 126.879,256.348 128.087 C 257.767 130.113,257.706 130.523,255.557 133.391 C 249.661 141.262,245.020 155.622,245.583 164.257 C 245.886 168.906,245.802 169.060,241.906 171.048 C 236.602 173.754,235.365 177.049,237.528 182.712 C 239.314 187.389,242.216 190.000,245.627 190.000 C 248.133 190.000,379.598 130.561,382.250 128.229 C 384.376 126.359,384.492 122.423,382.558 117.793 C 380.112 111.940,376.080 110.233,370.352 112.626 C 366.848 114.090,366.807 114.077,362.505 110.112 C 355.483 103.639,343.193 98.402,333.645 97.814 C 330.796 97.639,329.584 97.037,329.003 95.507 C 324.360 83.296,319.556 78.780,311.276 78.845 C 308.617 78.865,304.243 79.824,301.556 80.976 C 298.869 82.128,296.367 82.717,295.997 82.285 C 295.627 81.853,294.299 78.575,293.047 75.000 C 285.229 52.684,264.476 34.353,239.979 28.124 C 230.943 25.827,213.319 25.490,204.500 27.446 M355.357 158.991 C 352.563 160.120,350.000 163.840,350.000 166.768 C 350.000 170.314,354.272 174.000,358.382 174.000 C 364.810 174.000,368.488 165.488,364.000 161.000 C 362.900 159.900,361.587 159.000,361.082 159.000 C 360.577 159.000,359.564 158.803,358.832 158.563 C 358.099 158.322,356.536 158.515,355.357 158.991 M326.315 172.007 C 321.400 173.988,320.409 181.603,324.635 184.927 C 329.783 188.977,336.392 186.615,337.614 180.290 C 338.133 177.604,337.738 176.584,335.194 174.040 C 332.072 170.918,330.125 170.472,326.315 172.007 M369.191 179.492 C 365.769 182.372,364.801 186.622,366.596 190.891 C 369.187 197.053,377.613 198.236,382.216 193.084 C 386.526 188.261,385.403 181.294,379.855 178.425 C 375.830 176.344,372.542 176.673,369.191 179.492 M296.635 186.073 C 291.089 190.435,294.526 200.000,301.640 200.000 C 308.570 200.000,311.817 190.820,306.504 186.250 C 303.245 183.447,300.046 183.389,296.635 186.073 M333.923 195.923 C 327.738 202.108,331.880 212.000,340.654 212.000 C 345.575 212.000,350.000 207.502,350.000 202.500 C 350.000 197.419,345.581 193.000,340.500 193.000 C 337.795 193.000,336.087 193.759,333.923 195.923 M389.763 200.565 C 381.713 204.933,382.359 217.570,390.838 221.593 C 403.305 227.510,413.786 211.166,403.383 202.031 C 399.468 198.594,394.401 198.049,389.763 200.565 M298.923 211.923 C 296.759 214.087,296.000 215.795,296.000 218.500 C 296.000 223.534,300.423 228.000,305.407 228.000 C 313.978 228.000,318.524 217.171,312.354 211.452 C 308.488 207.869,302.777 208.070,298.923 211.923 M348.234 219.543 C 344.697 221.031,341.010 226.252,341.004 229.782 C 340.984 241.673,356.920 246.740,362.996 236.775 C 369.152 226.678,359.120 214.967,348.234 219.543 M305.096 239.209 C 298.977 242.496,296.750 251.510,300.738 256.851 C 305.537 263.278,316.082 263.193,320.044 256.696 C 324.911 248.713,320.734 239.230,311.968 238.360 C 309.375 238.103,306.491 238.459,305.096 239.209 " stroke="none" fill="black" fill-rule="evenodd"/></svg>