<svg width="48" height="48" viewBox="0 0 48 48" fill="none" xmlns="http://www.w3.org/2000/svg">
<path d="M8.3998 14.0925C8.3998 12.2775 9.8698 10.8 11.6923 10.8C12.5623 10.8 13.4023 11.145 14.0173 11.7675L14.3848 12.135C12.2323 15.465 12.6073 19.9574 15.5248 22.875L16.0573 23.4074C15.4273 24.1124 15.4498 25.1999 16.1248 25.875C16.8298 26.58 17.9698 26.58 18.6673 25.875L30.6748 13.875C31.3798 13.17 31.3798 12.03 30.6748 11.3325C29.9998 10.6575 28.9123 10.6275 28.2073 11.265L27.6748 10.725C24.7573 7.80745 20.2648 7.42495 16.9348 9.58495L16.5673 9.21745C15.2698 7.92745 13.5223 7.19995 11.6923 7.19995C7.8823 7.19995 4.7998 10.2825 4.7998 14.0925V38.9999C4.7998 39.9974 5.6023 40.7999 6.5998 40.7999C7.5973 40.7999 8.3998 39.9974 8.3998 38.9999V14.0925ZM18.0748 13.275C20.0248 11.325 23.1823 11.325 25.1323 13.275L25.6573 13.8L18.5998 20.8575L18.0748 20.3325C16.1248 18.3825 16.1248 15.225 18.0748 13.275ZM35.9998 19.2C35.9998 17.8725 34.9273 16.8 33.5998 16.8C32.2723 16.8 31.1998 17.8725 31.1998 19.2C31.1998 20.5275 32.2723 21.6 33.5998 21.6C34.9273 21.6 35.9998 20.5275 35.9998 19.2ZM31.1998 24C31.1998 22.6725 30.1273 21.6 28.7998 21.6C27.4723 21.6 26.3998 22.6725 26.3998 24C26.3998 25.3274 27.4723 26.4 28.7998 26.4C30.1273 26.4 31.1998 25.3274 31.1998 24ZM23.9998 31.1999C25.3273 31.1999 26.3998 30.1274 26.3998 28.7999C26.3998 27.4725 25.3273 26.4 23.9998 26.4C22.6723 26.4 21.5998 27.4725 21.5998 28.7999C21.5998 30.1274 22.6723 31.1999 23.9998 31.1999ZM26.3998 38.4C27.7273 38.4 28.7998 37.3274 28.7998 36C28.7998 34.6724 27.7273 33.5999 26.3998 33.5999C25.0723 33.5999 23.9998 34.6724 23.9998 36C23.9998 37.3274 25.0723 38.4 26.3998 38.4ZM31.1998 33.5999C32.5273 33.5999 33.5998 32.5275 33.5998 31.1999C33.5998 29.8724 32.5273 28.7999 31.1998 28.7999C29.8723 28.7999 28.7998 29.8724 28.7998 31.1999C28.7998 32.5275 29.8723 33.5999 31.1998 33.5999ZM35.9998 28.7999C37.3273 28.7999 38.3998 27.7274 38.3998 26.4C38.3998 25.0725 37.3273 24 35.9998 24C34.6723 24 33.5998 25.0725 33.5998 26.4C33.5998 27.7274 34.6723 28.7999 35.9998 28.7999ZM43.1998 21.6C43.1998 20.2725 42.1273 19.2 40.7998 19.2C39.4723 19.2 38.3998 20.2725 38.3998 21.6C38.3998 22.9275 39.4723 24 40.7998 24C42.1273 24 43.1998 22.9275 43.1998 21.6Z" fill="#271332"/>
</svg>
