<svg width="48" height="48" viewBox="0 0 48 48" fill="none" xmlns="http://www.w3.org/2000/svg">
<path d="M9.5998 14.6925C9.5998 13.2075 10.8073 12 12.2923 12C13.0048 12 13.6873 12.285 14.1973 12.7875L15.4123 14.0025C13.8373 16.92 14.1073 20.565 16.2298 23.2275L16.1248 23.3249C15.4198 24.0299 15.4198 25.17 16.1248 25.8674C16.8298 26.5649 17.9698 26.5724 18.6673 25.8674L30.6748 13.875C31.3798 13.17 31.3798 12.03 30.6748 11.3325C29.9698 10.635 28.8298 10.6275 28.1323 11.3325L28.0348 11.43C25.3723 9.30745 21.7273 9.03745 18.8098 10.6125L17.5873 9.39745C16.1848 7.98745 14.2798 7.19995 12.2923 7.19995C8.1523 7.19995 4.7998 10.5525 4.7998 14.6925V38.4C4.7998 39.7274 5.8723 40.7999 7.1998 40.7999C8.5273 40.7999 9.5998 39.7274 9.5998 38.4V14.6925ZM23.9998 31.1999C25.3273 31.1999 26.3998 30.1274 26.3998 28.7999C26.3998 27.4725 25.3273 26.4 23.9998 26.4C22.6723 26.4 21.5998 27.4725 21.5998 28.7999C21.5998 30.1274 22.6723 31.1999 23.9998 31.1999ZM28.7998 36C28.7998 34.6724 27.7273 33.5999 26.3998 33.5999C25.0723 33.5999 23.9998 34.6724 23.9998 36C23.9998 37.3274 25.0723 38.4 26.3998 38.4C27.7273 38.4 28.7998 37.3274 28.7998 36ZM28.7998 26.4C30.1273 26.4 31.1998 25.3274 31.1998 24C31.1998 22.6725 30.1273 21.6 28.7998 21.6C27.4723 21.6 26.3998 22.6725 26.3998 24C26.3998 25.3274 27.4723 26.4 28.7998 26.4ZM33.5998 31.1999C33.5998 29.8724 32.5273 28.7999 31.1998 28.7999C29.8723 28.7999 28.7998 29.8724 28.7998 31.1999C28.7998 32.5275 29.8723 33.5999 31.1998 33.5999C32.5273 33.5999 33.5998 32.5275 33.5998 31.1999ZM33.5998 21.6C34.9273 21.6 35.9998 20.5275 35.9998 19.2C35.9998 17.8725 34.9273 16.8 33.5998 16.8C32.2723 16.8 31.1998 17.8725 31.1998 19.2C31.1998 20.5275 32.2723 21.6 33.5998 21.6ZM38.3998 26.4C38.3998 25.0725 37.3273 24 35.9998 24C34.6723 24 33.5998 25.0725 33.5998 26.4C33.5998 27.7274 34.6723 28.7999 35.9998 28.7999C37.3273 28.7999 38.3998 27.7274 38.3998 26.4ZM40.7998 24C42.1273 24 43.1998 22.9275 43.1998 21.6C43.1998 20.2725 42.1273 19.2 40.7998 19.2C39.4723 19.2 38.3998 20.2725 38.3998 21.6C38.3998 22.9275 39.4723 24 40.7998 24Z" fill="#271332"/>
</svg>
