<?xml version="1.0" encoding="UTF-8"?>
<!--
Soliguide: Useful information for those who need it

SPDX-FileCopyrightText: © 2025 Solinum

SPDX-License-Identifier: AGPL-3.0-only

This program is free software: you can redistribute it and/or modify
it under the terms of the GNU Affero General Public License as published
by the Free Software Foundation, either version 3 of the License, or
(at your option) any later version.

This program is distributed in the hope that it will be useful,
but WITHOUT ANY WARRANTY; without even the implied warranty of
MERCHANTABILITY or FITNESS FOR A PARTICULAR PURPOSE.  See the
GNU Affero General Public License for more details.

You should have received a copy of the GNU Affero General Public License
along with this program.  If not, see <https://www.gnu.org/licenses/>.
-->
<svg width="48" height="48" viewBox="0 0 48 48" fill="none" xmlns="http://www.w3.org/2000/svg">
<path d="M43.7965 15.78L41.6965 9.04C41.2565 7.24 39.6965 6 37.8765 6H10.0965C8.29649 6 6.71649 7.26 6.29649 9.04L4.19649 15.78C3.27649 19.72 5.89649 22 5.99649 22.12V38C5.99649 40.2 7.79649 42 9.99649 42H37.9965C40.1965 42 41.9965 40.2 41.9965 38V22.12C44.2365 19.88 44.1765 17.3 43.7965 15.78ZM25.9965 10H29.9165L30.9965 17.04C31.1765 18.46 30.2165 20 28.4365 20C27.0965 20 25.9965 18.82 25.9965 17.38V10ZM12.8765 17.72C12.7165 19.02 11.6765 20 10.4565 20C8.59649 20 7.75649 18.06 8.07649 16.72L10.0965 10H14.0365L12.8765 17.72ZM21.9965 17.38C21.9965 18.82 20.8965 20 19.4165 20C17.9165 20 16.8165 18.6 16.9765 17.04L18.0765 10H21.9965V17.38ZM37.5365 20C36.3165 20 35.2565 19.02 35.1165 17.72L33.9565 10L37.8165 9.98L39.9165 16.72C40.2365 18.06 39.4165 20 37.5365 20Z" fill="#404040"/>
</svg>
