<?xml version="1.0" encoding="UTF-8"?>
<!--
Soliguide: Useful information for those who need it

SPDX-FileCopyrightText: © 2025 Solinum

SPDX-License-Identifier: AGPL-3.0-only

This program is free software: you can redistribute it and/or modify
it under the terms of the GNU Affero General Public License as published
by the Free Software Foundation, either version 3 of the License, or
(at your option) any later version.

This program is distributed in the hope that it will be useful,
but WITHOUT ANY WARRANTY; without even the implied warranty of
MERCHANTABILITY or FITNESS FOR A PARTICULAR PURPOSE.  See the
GNU Affero General Public License for more details.

You should have received a copy of the GNU Affero General Public License
along with this program.  If not, see <https://www.gnu.org/licenses/>.
-->
<svg version="1.1" width="667" height="667" xmlns="http://www.w3.org/2000/svg"><path d="M320.000 77.958 C 320.000 78.514,319.130 88.989,318.066 101.235 C 317.003 113.481,315.861 127.100,315.529 131.500 C 315.197 135.900,314.744 141.075,314.522 143.000 C 314.300 144.925,313.851 150.100,313.524 154.500 C 312.736 165.118,312.044 173.505,311.504 179.000 C 311.261 181.475,310.791 187.325,310.459 192.000 C 310.128 196.675,309.701 201.850,309.512 203.500 C 307.038 225.069,306.631 276.038,308.882 282.416 C 312.175 291.742,323.161 299.000,333.988 299.000 C 346.831 299.000,355.311 294.480,360.286 284.982 L 363.157 279.500 362.724 247.500 C 362.282 214.847,362.310 215.217,352.974 116.500 C 352.350 109.900,351.305 98.425,350.652 91.000 L 349.464 77.500 334.732 77.223 C 325.284 77.046,320.000 77.309,320.000 77.958 M371.017 79.250 C 371.027 80.487,371.449 85.550,371.956 90.500 C 372.463 95.450,373.154 102.650,373.491 106.500 C 373.829 110.350,374.287 114.625,374.510 116.000 C 374.733 117.375,375.178 121.425,375.500 125.000 C 376.385 134.844,378.012 151.063,378.510 155.000 C 378.753 156.925,379.860 167.725,380.970 179.000 C 382.080 190.275,383.661 205.800,384.484 213.500 C 385.395 222.031,385.983 237.315,385.989 252.624 C 386.001 279.711,386.461 282.805,391.457 289.355 C 392.851 291.182,396.356 293.988,399.246 295.589 C 404.033 298.241,405.344 298.497,414.000 298.465 C 421.694 298.437,424.263 298.028,427.513 296.316 C 432.591 293.640,436.606 289.637,439.351 284.513 C 441.362 280.758,441.520 278.855,441.810 254.916 L 442.120 229.332 438.629 215.916 C 435.217 202.807,430.912 186.054,419.509 141.500 C 413.927 119.690,405.775 87.965,403.898 80.750 L 402.923 77.000 386.961 77.000 C 371.070 77.000,371.000 77.010,371.017 79.250 M423.367 78.731 C 423.650 79.704,433.133 114.072,444.440 155.104 L 465.000 229.707 465.010 254.604 C 465.019 278.661,465.099 279.671,467.381 284.571 C 471.611 293.655,480.916 299.000,492.500 299.000 C 504.178 299.000,514.116 293.247,518.410 284.000 C 520.331 279.863,520.518 277.481,520.727 254.500 L 520.955 229.500 494.154 153.500 L 467.353 77.500 445.103 77.231 C 424.222 76.978,422.885 77.070,423.367 78.731 M489.419 83.250 C 490.699 86.688,503.291 120.616,517.399 158.646 L 543.051 227.792 543.276 253.646 C 543.490 278.395,543.599 279.700,545.808 284.186 C 550.441 293.592,559.821 299.000,571.500 299.000 C 583.053 299.000,591.828 293.999,596.410 284.805 C 598.995 279.618,599.000 279.555,599.000 253.910 L 599.000 228.213 563.750 152.608 L 528.500 77.003 507.795 77.001 L 487.090 77.000 489.419 83.250 M105.581 153.750 L 70.895 229.500 71.198 254.500 C 71.476 277.549,71.666 279.851,73.624 284.000 C 77.925 293.113,86.781 298.480,98.245 298.923 C 110.291 299.388,119.663 294.331,124.410 284.805 C 126.990 279.627,127.000 279.514,127.000 254.448 L 127.000 229.289 153.143 155.395 C 167.521 114.753,179.498 80.713,179.759 79.750 C 180.199 78.126,178.796 78.000,160.250 78.000 L 140.267 78.000 105.581 153.750 M200.715 82.250 C 199.905 84.588,188.163 118.512,174.621 157.639 L 150.000 228.777 150.000 253.240 C 150.000 269.157,150.405 278.889,151.159 281.101 C 153.241 287.211,157.610 292.468,163.152 295.534 C 168.036 298.236,169.324 298.490,178.000 298.469 C 185.726 298.450,188.250 298.050,191.513 296.324 C 196.596 293.635,200.609 289.632,203.351 284.513 C 205.357 280.767,205.535 278.672,206.024 253.000 L 206.548 225.500 227.317 153.000 C 238.739 113.125,248.277 79.938,248.511 79.250 C 248.844 78.274,243.823 78.000,225.563 78.000 L 202.188 78.000 200.715 82.250 M267.670 78.750 C 267.290 79.387,254.319 129.232,234.038 208.000 L 229.017 227.500 229.018 253.500 C 229.019 278.682,229.093 279.658,231.367 284.541 C 235.466 293.344,242.469 297.737,253.936 298.698 C 266.629 299.762,277.182 294.359,282.162 284.247 C 284.425 279.651,284.507 278.607,284.716 251.500 C 284.834 236.100,285.406 219.225,285.986 214.000 C 286.566 208.775,288.609 188.300,290.527 168.500 C 292.445 148.700,294.210 130.700,294.449 128.500 C 294.688 126.300,295.605 117.075,296.486 108.000 C 297.368 98.925,298.438 88.463,298.864 84.750 L 299.638 78.000 283.878 78.000 C 275.210 78.000,267.916 78.338,267.670 78.750 M536.749 286.000 C 532.937 299.179,529.450 305.487,522.370 312.013 C 501.421 331.324,468.031 320.750,459.445 292.087 C 458.442 288.739,457.307 286.000,456.922 286.000 C 456.537 286.000,455.948 287.462,455.611 289.250 C 453.529 300.322,442.851 313.838,432.268 318.797 C 427.224 321.161,425.307 321.493,417.000 321.441 C 408.927 321.390,406.633 320.984,401.732 318.738 C 391.197 313.909,380.480 300.372,378.389 289.250 C 378.052 287.462,377.463 286.000,377.078 286.000 C 376.693 286.000,375.558 288.739,374.555 292.087 C 372.352 299.444,366.283 308.815,361.029 312.977 C 358.908 314.657,354.546 317.262,351.336 318.766 C 346.314 321.119,344.245 321.497,336.500 321.477 C 328.929 321.457,326.608 321.039,321.880 318.842 C 311.503 314.019,303.532 304.936,299.467 293.303 C 298.235 289.778,297.031 286.698,296.792 286.459 C 296.553 286.220,295.552 288.606,294.566 291.762 C 292.380 298.767,285.386 309.502,280.520 313.322 C 278.543 314.875,274.355 317.350,271.213 318.822 C 266.344 321.104,264.170 321.500,256.500 321.500 C 248.815 321.500,246.660 321.106,241.747 318.804 C 233.609 314.990,225.723 307.168,221.494 298.714 C 219.572 294.874,217.993 291.004,217.985 290.116 C 217.976 289.227,217.564 287.860,217.069 287.078 C 216.408 286.034,215.857 286.830,214.993 290.078 C 210.434 307.215,195.231 320.607,179.019 321.767 C 160.307 323.105,143.399 310.052,138.033 290.124 C 137.393 287.745,136.606 286.061,136.285 286.382 C 135.964 286.703,134.842 289.512,133.791 292.624 C 127.989 309.809,114.764 320.613,98.195 321.702 C 89.744 322.258,82.688 320.313,75.531 315.456 C 73.540 314.105,71.706 313.000,71.456 313.000 C 71.205 313.000,71.000 374.875,71.000 450.500 L 71.000 588.000 102.980 588.000 L 134.960 588.000 135.230 495.750 L 135.500 403.500 137.835 399.124 C 140.715 393.725,144.279 390.291,149.500 387.886 C 153.198 386.183,156.931 386.043,199.000 386.028 C 228.060 386.017,245.880 386.394,248.321 387.072 C 253.038 388.382,259.426 394.021,262.322 399.432 L 264.500 403.500 264.775 495.750 L 265.050 588.000 432.275 588.000 L 599.500 588.000 599.271 452.000 C 599.145 377.200,598.817 316.021,598.542 316.046 C 598.267 316.071,595.445 317.308,592.271 318.796 C 587.339 321.107,585.192 321.500,577.500 321.500 C 569.830 321.500,567.656 321.104,562.787 318.822 C 559.645 317.350,555.457 314.875,553.480 313.322 C 548.399 309.333,541.560 298.647,539.195 291.000 C 538.088 287.425,536.988 285.175,536.749 286.000 M544.000 443.000 L 544.000 500.000 527.500 500.000 C 518.425 500.000,511.000 499.822,511.000 499.604 C 511.000 499.386,512.612 495.814,514.582 491.666 C 517.304 485.934,518.175 482.798,518.213 478.598 C 518.264 472.929,519.450 470.966,530.847 457.707 C 532.248 456.077,532.234 455.973,530.694 456.564 C 528.593 457.370,528.543 456.029,530.500 451.345 C 531.804 448.225,531.808 447.914,530.530 448.975 C 529.722 449.646,527.809 452.175,526.280 454.596 C 523.173 459.514,522.038 460.075,521.921 456.750 C 521.869 455.255,521.653 455.003,521.277 456.000 C 520.967 456.825,520.302 458.610,519.799 459.966 C 519.082 461.900,518.697 462.127,518.011 461.018 C 517.355 459.956,516.970 460.338,516.465 462.552 C 516.095 464.173,515.484 466.807,515.108 468.404 C 514.731 470.001,513.428 471.968,512.211 472.776 C 510.038 474.219,510.000 474.166,510.000 469.671 C 510.000 462.525,508.060 455.224,505.283 451.925 L 502.745 448.908 504.445 440.204 C 505.380 435.417,506.399 430.437,506.709 429.137 L 507.273 426.775 504.506 428.588 C 501.802 430.360,501.751 430.356,502.296 428.451 C 502.604 427.378,503.149 424.025,503.508 421.000 L 504.161 415.500 501.371 419.500 L 498.580 423.500 496.313 410.606 C 495.066 403.514,493.859 397.526,493.632 397.299 C 493.205 396.872,491.485 412.914,491.815 414.250 C 492.223 415.904,489.998 414.865,488.954 412.914 C 486.573 408.466,487.141 412.372,491.498 430.439 L 496.021 449.187 493.519 452.160 C 488.874 457.680,487.542 464.722,487.640 483.250 L 487.727 500.000 477.546 500.000 L 467.365 500.000 465.586 494.356 C 462.054 483.150,449.222 474.410,437.421 475.172 L 432.335 475.500 434.759 470.210 C 437.349 464.558,439.004 455.412,438.325 450.500 C 437.619 445.390,434.802 437.080,433.373 435.894 C 431.679 434.489,429.487 436.944,424.792 445.500 C 421.714 451.111,421.500 452.124,421.500 461.116 L 421.500 470.733 418.015 468.866 C 414.503 466.986,406.548 466.364,404.298 467.795 C 402.097 469.194,408.594 477.619,413.922 480.274 L 418.666 482.638 415.808 486.062 C 414.235 487.945,412.203 491.851,411.292 494.743 L 409.635 500.000 394.817 500.000 L 380.000 500.000 380.000 467.037 L 380.000 434.073 374.343 426.037 L 368.686 418.000 361.518 418.000 L 354.350 418.000 348.675 425.927 L 343.000 433.853 343.000 466.927 L 343.000 500.000 336.500 500.000 L 330.000 500.000 330.000 443.000 L 330.000 386.000 437.000 386.000 L 544.000 386.000 544.000 443.000 M353.321 405.211 C 352.466 406.326,352.342 408.672,352.870 413.750 C 352.963 414.642,355.446 415.000,361.552 415.000 L 370.105 415.000 369.802 409.750 L 369.500 404.500 361.905 404.211 C 356.593 404.008,354.013 404.309,353.321 405.211 " stroke="none" fill="black" fill-rule="evenodd"/></svg>