<svg width="48" height="48" viewBox="0 0 48 48" fill="none" xmlns="http://www.w3.org/2000/svg">
<path d="M23.9999 12C25.3274 12 26.3999 13.0725 26.3999 14.4C26.3999 15.7275 25.3274 16.8 23.9999 16.8C22.6724 16.8 21.5999 15.7275 21.5999 14.4C21.5999 13.0725 22.6724 12 23.9999 12ZM23.9999 20.4C27.3149 20.4 29.9999 17.715 29.9999 14.4C29.9999 11.085 27.3149 8.39999 23.9999 8.39999C20.6849 8.39999 17.9999 11.085 17.9999 14.4C17.9999 17.715 20.6849 20.4 23.9999 20.4ZM14.3999 14.4C14.3999 13.185 14.6249 12.015 15.0374 10.9425C14.6399 10.8525 14.2199 10.8 13.7999 10.8C10.8149 10.8 8.3999 13.215 8.3999 16.2C8.3999 19.185 10.8149 21.6 13.7999 21.6C14.8949 21.6 15.9149 21.27 16.7699 20.715C15.9749 19.8075 15.3524 18.75 14.9474 17.595C14.6399 17.85 14.2349 18.0075 13.8074 18.0075C12.8099 18.0075 12.0074 17.205 12.0074 16.2075C12.0074 15.21 12.8099 14.4075 13.8074 14.4075C14.0174 14.4075 14.2199 14.445 14.4074 14.5125V14.4075L14.3999 14.4ZM34.1999 21.6C37.1849 21.6 39.5999 19.185 39.5999 16.2C39.5999 13.215 37.1849 10.8 34.1999 10.8C33.7724 10.8 33.3599 10.8525 32.9624 10.9425C33.3749 12.015 33.5999 13.1775 33.5999 14.4V14.505C33.7874 14.4375 33.9899 14.4 34.1999 14.4C35.1974 14.4 35.9999 15.2025 35.9999 16.2C35.9999 17.1975 35.1974 18 34.1999 18C33.7649 18 33.3674 17.85 33.0599 17.5875C32.6549 18.7425 32.0249 19.8 31.2374 20.7075C32.0924 21.27 33.1124 21.5925 34.2074 21.5925L34.1999 21.6ZM4.7999 31.2V31.8C4.7999 32.7975 5.6024 33.6 6.5999 33.6C7.5974 33.6 8.3999 32.7975 8.3999 31.8V31.2C8.3999 29.325 9.8324 27.7875 11.6549 27.615C12.2099 26.265 13.0049 25.0425 13.9949 24H11.9999C8.0249 24 4.7999 27.225 4.7999 31.2ZM36.3449 27.615C38.1674 27.7875 39.5999 29.325 39.5999 31.2V31.8C39.5999 32.7975 40.4024 33.6 41.3999 33.6C42.3974 33.6 43.1999 32.7975 43.1999 31.8V31.2C43.1999 27.225 39.9749 24 35.9999 24H33.9974C34.9874 25.0425 35.7899 26.265 36.3374 27.615H36.3449ZM21.5999 24C17.6249 24 14.3999 27.225 14.3999 31.2V31.8C14.3999 32.7975 15.2024 33.6 16.1999 33.6C17.1974 33.6 17.9999 32.7975 17.9999 31.8V31.2C17.9999 29.2125 19.6124 27.6 21.5999 27.6H26.3999C28.3874 27.6 29.9999 29.2125 29.9999 31.2V31.8C29.9999 32.7975 30.8024 33.6 31.7999 33.6C32.7974 33.6 33.5999 32.7975 33.5999 31.8V31.2C33.5999 27.225 30.3749 24 26.3999 24H21.5999ZM4.1999 37.2C3.2024 37.2 2.3999 38.0025 2.3999 39C2.3999 39.9975 3.2024 40.8 4.1999 40.8H43.7999C44.7974 40.8 45.5999 39.9975 45.5999 39C45.5999 38.0025 44.7974 37.2 43.7999 37.2H4.1999Z" fill="#271332"/>
</svg>
