<?xml version="1.0" encoding="UTF-8"?>
<!--
Soliguide: Useful information for those who need it

SPDX-FileCopyrightText: © 2025 Solinum

SPDX-License-Identifier: AGPL-3.0-only

This program is free software: you can redistribute it and/or modify
it under the terms of the GNU Affero General Public License as published
by the Free Software Foundation, either version 3 of the License, or
(at your option) any later version.

This program is distributed in the hope that it will be useful,
but WITHOUT ANY WARRANTY; without even the implied warranty of
MERCHANTABILITY or FITNESS FOR A PARTICULAR PURPOSE.  See the
GNU Affero General Public License for more details.

You should have received a copy of the GNU Affero General Public License
along with this program.  If not, see <https://www.gnu.org/licenses/>.
-->
<svg version="1.1" width="667" height="667" xmlns="http://www.w3.org/2000/svg"><path d="M378.854 33.099 C 335.936 36.669,299.538 63.342,291.913 96.811 C 290.595 102.596,290.582 118.355,291.892 122.750 C 293.006 126.490,293.010 126.489,286.354 124.513 C 268.247 119.135,244.966 121.323,227.181 130.072 C 189.591 148.566,186.994 190.974,222.124 212.657 C 225.356 214.652,228.000 216.462,228.000 216.678 C 228.000 216.895,224.658 220.989,220.573 225.776 C 216.489 230.563,213.297 234.631,213.482 234.815 C 213.666 235.000,222.746 232.698,233.659 229.700 C 250.697 225.020,255.130 224.176,265.035 223.725 C 279.503 223.068,287.986 221.027,299.808 215.361 C 316.394 207.411,327.502 193.849,330.000 178.501 C 330.517 175.325,331.133 172.533,331.370 172.296 C 331.607 172.059,333.983 172.965,336.651 174.309 C 352.551 182.320,374.570 187.082,393.500 186.604 C 402.039 186.388,404.160 186.828,434.915 195.190 C 452.743 200.037,467.452 203.882,467.600 203.733 C 467.748 203.585,462.501 197.089,455.938 189.298 C 445.330 176.704,444.235 175.060,446.070 174.478 C 450.857 172.959,466.145 161.575,472.568 154.747 C 480.643 146.163,485.098 139.051,488.798 128.835 C 491.122 122.416,491.453 120.001,491.441 109.500 C 491.431 99.594,491.030 96.366,489.147 91.000 C 475.693 52.677,430.257 28.824,378.854 33.099 M112.000 178.591 C 93.528 183.437,79.524 196.459,73.506 214.387 C 67.223 233.105,72.173 254.876,85.878 268.795 C 96.761 279.849,109.137 285.091,124.350 285.091 C 168.911 285.091,194.423 235.741,168.545 199.602 C 162.301 190.883,152.226 183.357,142.410 180.079 C 133.756 177.190,119.920 176.513,112.000 178.591 M538.500 178.037 C 522.919 181.786,509.627 191.354,502.327 204.073 C 498.642 210.494,495.970 219.048,495.347 226.422 C 492.707 257.659,517.275 284.909,548.339 285.197 C 571.602 285.412,592.319 271.126,600.161 249.461 C 602.784 242.212,603.714 227.756,602.067 219.823 C 597.120 195.995,576.206 178.468,551.500 177.447 C 546.550 177.242,540.700 177.508,538.500 178.037 M116.994 307.874 C 109.920 310.195,103.940 315.274,100.362 322.000 C 98.600 325.313,98.500 329.065,98.500 392.078 L 98.500 458.655 101.384 462.436 C 107.046 469.860,107.654 469.953,150.679 469.978 L 188.858 470.000 189.874 475.250 C 191.185 482.028,203.249 549.986,206.605 569.500 C 208.024 577.750,209.320 584.973,209.485 585.552 C 209.685 586.253,215.233 586.472,226.142 586.208 C 235.139 585.990,242.632 585.685,242.793 585.530 C 242.954 585.374,240.827 573.154,238.066 558.373 C 224.495 485.726,222.053 471.939,221.525 465.000 C 220.534 451.970,213.417 441.876,203.225 439.046 C 201.124 438.462,188.723 438.009,174.782 438.006 L 150.064 438.000 149.782 381.750 C 149.518 329.122,149.380 325.275,147.638 322.000 C 145.006 317.052,140.166 312.168,135.529 309.780 C 131.219 307.559,121.118 306.521,116.994 307.874 M540.679 308.482 C 534.710 310.767,529.393 315.569,526.579 321.218 L 524.000 326.393 524.000 382.196 L 524.000 438.000 499.250 438.006 C 485.287 438.009,472.877 438.462,470.775 439.046 C 460.791 441.818,453.510 451.950,452.483 464.500 C 451.906 471.548,449.544 484.971,437.463 549.856 C 433.842 569.302,431.019 585.329,431.190 585.472 C 431.360 585.614,438.787 586.000,447.694 586.330 C 462.443 586.876,463.930 586.777,464.362 585.215 C 464.623 584.272,466.225 575.625,467.923 566.000 C 480.015 497.466,483.680 476.851,484.592 472.250 L 485.038 470.000 522.519 470.000 C 543.134 470.000,560.112 470.053,560.250 470.118 C 560.953 470.449,568.684 466.696,570.355 465.212 C 571.415 464.270,573.109 461.700,574.119 459.500 C 575.839 455.754,575.957 451.483,575.978 392.288 C 575.999 331.562,575.922 328.865,574.006 323.747 C 571.856 317.999,566.696 312.328,561.008 309.459 C 556.359 307.115,545.600 306.597,540.679 308.482 M209.299 381.960 C 204.778 384.716,203.000 388.764,203.000 396.302 C 203.000 401.315,203.496 403.441,205.287 406.102 C 209.690 412.642,208.149 412.471,265.250 412.784 L 317.000 413.069 317.000 500.090 L 317.000 587.112 333.014 586.924 C 348.420 586.742,349.048 586.654,349.542 584.617 C 349.825 583.453,349.931 544.362,349.778 497.750 C 349.594 441.728,349.839 413.002,350.500 413.006 C 351.050 413.009,376.025 412.896,406.000 412.756 C 466.142 412.474,464.291 412.670,468.713 406.102 C 470.452 403.519,471.000 401.294,471.000 396.820 C 471.000 389.344,469.009 384.586,464.810 382.026 C 461.537 380.030,460.113 380.007,337.000 380.007 C 215.280 380.007,212.429 380.051,209.299 381.960 " stroke="none" fill="black" fill-rule="evenodd"/></svg>