<?xml version="1.0" encoding="UTF-8"?>
<!--
Soliguide: Useful information for those who need it

SPDX-FileCopyrightText: © 2025 Solinum

SPDX-License-Identifier: AGPL-3.0-only

This program is free software: you can redistribute it and/or modify
it under the terms of the GNU Affero General Public License as published
by the Free Software Foundation, either version 3 of the License, or
(at your option) any later version.

This program is distributed in the hope that it will be useful,
but WITHOUT ANY WARRANTY; without even the implied warranty of
MERCHANTABILITY or FITNESS FOR A PARTICULAR PURPOSE.  See the
GNU Affero General Public License for more details.

You should have received a copy of the GNU Affero General Public License
along with this program.  If not, see <https://www.gnu.org/licenses/>.
-->
<svg version="1.1" width="667" height="667" xmlns="http://www.w3.org/2000/svg"><path d="M314.410 46.420 C 281.663 53.892,249.384 85.804,236.948 123.000 C 232.081 137.556,230.847 146.404,230.285 170.750 L 229.748 194.000 192.124 194.022 C 157.303 194.042,154.188 194.186,150.309 195.947 C 144.097 198.767,142.378 202.906,141.565 217.000 C 141.200 223.325,140.720 229.625,140.498 231.000 C 140.275 232.375,139.813 238.675,139.471 245.000 C 139.129 251.325,138.687 258.075,138.489 260.000 C 138.291 261.925,137.864 267.775,137.539 273.000 C 137.214 278.225,136.749 284.975,136.506 288.000 C 136.262 291.025,135.810 297.325,135.500 302.000 C 135.190 306.675,134.740 312.975,134.500 316.000 C 134.260 319.025,133.814 325.325,133.509 330.000 C 133.204 334.675,132.750 340.975,132.500 344.000 C 132.250 347.025,131.801 353.550,131.502 358.500 C 131.204 363.450,130.754 369.975,130.503 373.000 C 129.878 380.538,128.978 393.211,124.464 458.000 C 123.640 469.825,122.762 481.975,122.513 485.000 C 122.264 488.025,121.784 495.000,121.446 500.500 C 121.108 506.000,120.677 511.625,120.488 513.000 C 120.300 514.375,119.850 520.900,119.489 527.500 C 119.128 534.100,118.677 540.625,118.486 542.000 C 118.295 543.375,117.834 549.900,117.462 556.500 C 117.089 563.100,116.742 568.725,116.690 569.000 C 116.638 569.275,116.917 571.109,117.310 573.075 C 118.081 576.929,121.980 581.300,126.000 582.815 C 127.454 583.363,167.612 584.021,222.000 584.388 C 273.425 584.735,336.650 585.230,362.500 585.488 C 388.350 585.747,439.270 586.081,475.655 586.229 L 541.810 586.500 545.639 583.402 C 552.538 577.822,552.530 578.237,547.002 516.500 C 546.509 511.000,545.834 502.675,545.501 498.000 C 545.168 493.325,544.721 487.925,544.507 486.000 C 544.294 484.075,543.855 478.450,543.532 473.500 C 543.209 468.550,542.751 462.925,542.514 461.000 C 542.278 459.075,541.827 453.900,541.512 449.500 C 541.198 445.100,540.745 439.475,540.507 437.000 C 540.269 434.525,539.813 428.900,539.494 424.500 C 539.175 420.100,538.730 414.475,538.505 412.000 C 538.280 409.525,537.842 404.350,537.532 400.500 C 537.222 396.650,536.304 385.400,535.493 375.500 C 534.682 365.600,533.772 354.350,533.471 350.500 C 533.170 346.650,532.733 341.475,532.500 339.000 C 532.267 336.525,531.822 331.125,531.512 327.000 C 531.201 322.875,530.746 317.475,530.500 315.000 C 530.254 312.525,529.802 307.125,529.497 303.000 C 529.191 298.875,528.724 293.025,528.460 290.000 C 527.537 279.430,525.000 248.437,524.448 241.000 C 524.143 236.875,523.721 232.150,523.511 230.500 C 523.302 228.850,522.838 222.775,522.480 217.000 C 521.655 203.688,519.665 198.985,513.624 196.060 C 509.555 194.090,507.696 194.000,471.184 194.000 L 433.000 194.000 432.974 191.250 C 432.850 178.073,431.626 158.636,430.378 150.000 C 428.645 138.019,422.889 119.711,417.449 108.879 C 402.965 80.038,376.746 56.191,350.500 47.985 C 341.530 45.181,323.302 44.390,314.410 46.420 M344.477 76.871 C 356.450 81.153,372.707 94.160,381.507 106.500 C 395.762 126.488,401.785 144.352,402.582 169.000 C 402.839 176.975,403.231 185.863,403.453 188.750 L 403.855 194.000 331.390 194.000 L 258.925 194.000 259.069 176.750 C 259.226 157.912,259.975 150.654,263.012 138.500 C 270.453 108.731,295.287 81.408,320.695 75.038 C 326.437 73.598,337.767 74.471,344.477 76.871 M230.002 271.359 C 230.003 315.196,230.159 319.811,231.752 322.980 C 236.684 332.797,250.464 333.849,256.805 324.894 C 258.326 322.746,258.551 317.417,259.000 273.000 L 259.500 223.500 331.135 223.259 C 387.202 223.071,402.985 223.288,403.757 224.259 C 404.681 225.421,405.224 238.692,406.552 292.500 C 406.851 304.600,407.317 315.949,407.587 317.721 C 408.538 323.944,415.933 330.000,422.582 330.000 C 426.376 330.000,432.374 326.329,434.522 322.693 C 436.726 318.962,436.770 316.971,435.511 277.000 C 435.001 260.775,434.564 242.100,434.541 235.500 L 434.500 223.500 463.808 223.318 C 485.605 223.183,493.214 223.439,493.502 224.318 C 493.714 224.968,494.379 232.025,494.979 240.000 C 495.579 247.975,496.258 256.075,496.487 258.000 C 496.717 259.925,497.160 265.325,497.472 270.000 C 497.783 274.675,498.243 280.525,498.493 283.000 C 498.743 285.475,499.201 290.875,499.512 295.000 C 499.822 299.125,500.264 304.525,500.493 307.000 C 500.721 309.475,501.162 314.650,501.473 318.500 C 501.783 322.350,502.255 327.975,502.523 331.000 C 502.791 334.025,503.914 348.200,505.018 362.500 C 506.122 376.800,507.231 390.525,507.483 393.000 C 507.734 395.475,508.205 401.100,508.529 405.500 C 508.853 409.900,509.302 415.075,509.528 417.000 C 509.753 418.925,510.407 427.025,510.981 435.000 C 511.556 442.975,512.227 451.300,512.473 453.500 C 512.719 455.700,513.395 464.025,513.975 472.000 C 514.554 479.975,515.228 488.075,515.472 490.000 C 515.716 491.925,516.175 497.100,516.493 501.500 C 517.065 509.429,517.703 517.324,518.473 526.000 C 518.693 528.475,519.141 534.325,519.470 539.000 C 519.799 543.675,520.329 549.708,520.649 552.407 L 521.231 557.314 415.865 556.624 C 357.914 556.244,297.900 555.707,282.500 555.429 C 267.100 555.152,230.275 554.942,200.666 554.963 L 146.832 555.000 147.471 545.750 C 147.823 540.663,148.291 534.475,148.511 532.000 C 148.732 529.525,149.176 523.000,149.499 517.500 C 149.822 512.000,150.275 505.925,150.506 504.000 C 150.737 502.075,151.192 495.775,151.517 490.000 C 151.842 484.225,152.285 477.925,152.500 476.000 C 152.715 474.075,153.158 467.775,153.483 462.000 C 153.808 456.225,154.266 449.925,154.500 448.000 C 154.734 446.075,155.186 439.775,155.504 434.000 C 155.823 428.225,156.274 421.475,156.508 419.000 C 156.741 416.525,157.193 410.225,157.513 405.000 C 157.832 399.775,158.500 390.100,158.998 383.500 C 159.495 376.900,160.152 367.900,160.457 363.500 C 160.762 359.100,161.679 346.275,162.494 335.000 C 163.309 323.725,164.228 310.675,164.535 306.000 C 164.843 301.325,165.281 295.250,165.508 292.500 C 165.735 289.750,166.184 283.225,166.507 278.000 C 166.829 272.775,167.275 266.700,167.497 264.500 C 167.719 262.300,168.207 255.325,168.582 249.000 C 168.958 242.675,169.396 236.825,169.556 236.000 C 169.716 235.175,169.881 232.170,169.923 229.323 C 169.983 225.273,170.381 224.048,171.750 223.692 C 172.713 223.442,186.213 223.233,201.750 223.227 L 230.000 223.217 230.002 271.359 " stroke="none" fill="black" fill-rule="evenodd"/></svg>