<?xml version="1.0" encoding="UTF-8"?>
<!--
Soliguide: Useful information for those who need it

SPDX-FileCopyrightText: © 2025 Solinum

SPDX-License-Identifier: AGPL-3.0-only

This program is free software: you can redistribute it and/or modify
it under the terms of the GNU Affero General Public License as published
by the Free Software Foundation, either version 3 of the License, or
(at your option) any later version.

This program is distributed in the hope that it will be useful,
but WITHOUT ANY WARRANTY; without even the implied warranty of
MERCHANTABILITY or FITNESS FOR A PARTICULAR PURPOSE.  See the
GNU Affero General Public License for more details.

You should have received a copy of the GNU Affero General Public License
along with this program.  If not, see <https://www.gnu.org/licenses/>.
-->
<svg version="1.1" width="512" height="512" xmlns="http://www.w3.org/2000/svg"><path d="M117.618 44.105 C 106.609 46.710,94.811 56.569,89.322 67.752 L 86.500 73.500 86.220 132.750 L 85.939 192.000 256.000 192.000 L 426.061 192.000 425.780 132.750 L 425.500 73.500 422.678 67.752 C 418.328 58.890,411.100 51.653,402.210 47.259 L 394.604 43.500 258.052 43.343 C 177.973 43.252,119.894 43.567,117.618 44.105 M213.500 138.500 L 213.500 170.500 192.000 170.500 L 170.500 170.500 170.235 139.510 C 170.090 122.465,170.191 107.944,170.461 107.240 C 170.844 106.244,175.668 106.020,192.226 106.230 L 213.500 106.500 213.500 138.500 M86.232 336.750 L 86.500 438.500 89.322 444.248 C 93.672 453.111,100.900 460.347,109.790 464.741 L 117.396 468.500 256.000 468.500 L 394.604 468.500 402.210 464.741 C 411.100 460.347,418.328 453.110,422.678 444.248 L 425.500 438.500 425.768 336.750 L 426.037 235.000 256.000 235.000 L 85.963 235.000 86.232 336.750 M213.759 309.250 L 213.500 362.500 192.000 362.500 L 170.500 362.500 170.241 309.250 L 169.982 256.000 192.000 256.000 L 214.018 256.000 213.759 309.250 " stroke="none" fill="black" fill-rule="evenodd"/></svg>