<svg width="48" height="48" viewBox="0 0 48 48" fill="none" xmlns="http://www.w3.org/2000/svg">
<path d="M15.5999 9.60002V12H22.7999V9.60002C22.7999 7.61252 21.1874 6.00002 19.1999 6.00002C17.2124 6.00002 15.5999 7.61252 15.5999 9.60002ZM11.9999 12V9.60002C11.9999 5.62502 15.2249 2.40002 19.1999 2.40002C23.1749 2.40002 26.3999 5.62502 26.3999 9.60002V12H31.1999C33.8474 12 35.9999 14.1525 35.9999 16.8V18H32.3999V16.8C32.3999 16.14 31.8599 15.6 31.1999 15.6H7.1999C6.5399 15.6 5.9999 16.14 5.9999 16.8V33.6C5.9999 34.26 6.5399 34.8 7.1999 34.8H13.1999V38.4H7.1999C4.5524 38.4 2.3999 36.2475 2.3999 33.6V16.8C2.3999 14.1525 4.5524 12 7.1999 12H11.9999ZM21.5999 21.6H40.7999C43.4474 21.6 45.5999 23.7525 45.5999 26.4V38.4C45.5999 41.0475 43.4474 43.2 40.7999 43.2H21.5999C18.9524 43.2 16.7999 41.0475 16.7999 38.4V26.4C16.7999 23.7525 18.9524 21.6 21.5999 21.6ZM27.5999 28.2C27.5999 27.2025 26.7974 26.4 25.7999 26.4C24.8024 26.4 23.9999 27.2025 23.9999 28.2V31.2C23.9999 35.175 27.2249 38.4 31.1999 38.4C35.1749 38.4 38.3999 35.175 38.3999 31.2V28.2C38.3999 27.2025 37.5974 26.4 36.5999 26.4C35.6024 26.4 34.7999 27.2025 34.7999 28.2V31.2C34.7999 33.1875 33.1874 34.8 31.1999 34.8C29.2124 34.8 27.5999 33.1875 27.5999 31.2V28.2Z" fill="#271332"/>
</svg>
