<svg width="48" height="48" viewBox="0 0 48 48" fill="none" xmlns="http://www.w3.org/2000/svg">
<path d="M16.2001 4.8C12.5551 4.8 9.6001 7.755 9.6001 11.4V16.8H30.0001V13.8C30.0001 12.8025 30.8026 12 31.8001 12C32.7976 12 33.6001 12.8025 33.6001 13.8V16.8H38.4001V11.4C38.4001 7.755 35.4451 4.8 31.8001 4.8H16.2001ZM38.4001 20.4H33.6001V29.4C33.6001 30.3975 32.7976 31.2 31.8001 31.2C30.8026 31.2 30.0001 30.3975 30.0001 29.4V20.4H9.6001V38.4C9.6001 41.0475 11.7526 43.2 14.4001 43.2H33.6001C36.2476 43.2 38.4001 41.0475 38.4001 38.4V20.4Z" fill="#271332"/>
</svg>
