<?xml version="1.0" encoding="UTF-8"?>
<!--
Soliguide: Useful information for those who need it

SPDX-FileCopyrightText: © 2025 Solinum

SPDX-License-Identifier: AGPL-3.0-only

This program is free software: you can redistribute it and/or modify
it under the terms of the GNU Affero General Public License as published
by the Free Software Foundation, either version 3 of the License, or
(at your option) any later version.

This program is distributed in the hope that it will be useful,
but WITHOUT ANY WARRANTY; without even the implied warranty of
MERCHANTABILITY or FITNESS FOR A PARTICULAR PURPOSE.  See the
GNU Affero General Public License for more details.

You should have received a copy of the GNU Affero General Public License
along with this program.  If not, see <https://www.gnu.org/licenses/>.
-->
<svg version="1.1" width="512" height="512" xmlns="http://www.w3.org/2000/svg"><path d="M117.618 44.112 C 106.631 46.691,94.813 56.565,89.322 67.752 L 86.500 73.500 86.500 256.000 L 86.500 438.500 89.322 444.248 C 93.672 453.111,100.900 460.347,109.790 464.741 L 117.396 468.500 256.000 468.500 L 394.604 468.500 402.210 464.741 C 411.100 460.347,418.328 453.110,422.678 444.248 L 425.500 438.500 425.500 256.000 L 425.500 73.500 422.705 67.808 C 417.121 56.438,408.024 48.665,395.875 44.884 C 390.066 43.076,384.416 43.004,255.661 43.100 C 178.820 43.158,119.841 43.590,117.618 44.112 M372.956 88.000 C 375.406 89.375,378.781 92.451,380.456 94.835 L 383.500 99.169 383.809 136.335 C 384.017 161.380,383.757 174.728,383.014 177.267 C 381.565 182.209,376.511 187.863,371.509 190.135 C 367.708 191.862,361.714 191.956,256.000 191.956 C 150.286 191.956,144.292 191.862,140.491 190.135 C 135.489 187.863,130.435 182.209,128.986 177.267 C 128.243 174.729,127.983 161.404,128.191 136.425 L 128.500 99.351 131.248 95.200 C 132.760 92.917,135.126 90.308,136.507 89.403 C 143.280 84.966,140.558 85.058,257.500 85.285 L 368.500 85.500 372.956 88.000 M183.500 108.896 C 181.300 109.914,178.286 112.042,176.803 113.624 C 171.813 118.945,171.000 122.545,171.000 139.311 C 171.000 153.476,171.183 155.032,173.327 159.093 C 174.606 161.517,177.570 164.850,179.913 166.500 C 183.768 169.215,184.916 169.500,192.000 169.500 C 199.084 169.500,200.232 169.215,204.087 166.500 C 206.430 164.850,209.394 161.517,210.673 159.093 C 212.824 155.018,212.998 153.509,212.978 139.093 C 212.960 126.054,212.653 122.845,211.104 119.500 C 206.195 108.896,193.791 104.131,183.500 108.896 M369.384 235.230 C 374.616 236.793,381.510 243.599,382.984 248.655 C 383.781 251.392,384.017 275.597,383.802 332.664 L 383.500 412.829 380.456 417.164 C 378.781 419.549,375.406 422.625,372.956 424.000 L 368.500 426.500 256.000 426.500 L 143.500 426.500 139.044 424.000 C 136.594 422.625,133.219 419.549,131.544 417.164 L 128.500 412.828 128.500 330.500 L 128.500 248.172 131.506 243.836 C 133.475 240.996,136.383 238.551,139.936 236.750 L 145.359 234.000 255.313 234.000 C 339.418 234.000,366.236 234.289,369.384 235.230 M185.239 257.335 C 180.214 259.157,175.438 263.463,173.112 268.269 C 171.079 272.468,171.000 274.022,171.000 309.658 C 171.000 346.489,171.012 346.709,173.327 351.093 C 174.606 353.517,177.570 356.850,179.913 358.500 C 183.768 361.215,184.916 361.500,192.000 361.500 C 199.084 361.500,200.232 361.215,204.087 358.500 C 206.430 356.850,209.394 353.517,210.673 351.093 C 212.989 346.706,213.000 346.513,212.978 309.593 C 212.958 275.673,212.798 272.152,211.107 268.429 C 206.778 258.898,194.934 253.819,185.239 257.335 " stroke="none" fill="black" fill-rule="evenodd"/></svg>