<?xml version="1.0" encoding="UTF-8"?>
<!--
Soliguide: Useful information for those who need it

SPDX-FileCopyrightText: © 2025 Solinum

SPDX-License-Identifier: AGPL-3.0-only

This program is free software: you can redistribute it and/or modify
it under the terms of the GNU Affero General Public License as published
by the Free Software Foundation, either version 3 of the License, or
(at your option) any later version.

This program is distributed in the hope that it will be useful,
but WITHOUT ANY WARRANTY; without even the implied warranty of
MERCHANTABILITY or FITNESS FOR A PARTICULAR PURPOSE.  See the
GNU Affero General Public License for more details.

You should have received a copy of the GNU Affero General Public License
along with this program.  If not, see <https://www.gnu.org/licenses/>.
-->
<svg width="48" height="48" viewBox="0 0 48 48" fill="none" xmlns="http://www.w3.org/2000/svg">
<path d="M36 4.02L12 4C10.9391 4 9.92172 4.42143 9.17157 5.17157C8.42143 5.92172 8 6.93913 8 8V40C8 42.2 9.8 44 12 44H36C38.2 44 40 42.2 40 40V8C40 5.78 38.2 4.02 36 4.02ZM34 40H14C12.9 40 12 39.1 12 38V23.96C12 22.86 12.9 21.96 14 21.96H34C35.1 21.96 36 22.86 36 23.96V38C36 39.1 35.1 40 34 40ZM34 18H14C12.9 18 12 17.1 12 16V10C12 8.9 12.9 8 14 8H34C35.1 8 36 8.9 36 10V16C36 17.1 35.1 18 34 18ZM18 10C19.1 10 20 10.9 20 12V14C20 15.1 19.1 16 18 16C16.9 16 16 15.1 16 14V12C16 10.9 16.9 10 18 10ZM18 24C19.1 24 20 24.9 20 26V32C20 33.1 19.1 34 18 34C16.9 34 16 33.1 16 32V26C16 24.9 16.9 24 18 24Z" fill="#404040"/>
</svg>
