<?xml version="1.0" encoding="UTF-8"?>
<!--
Soliguide: Useful information for those who need it

SPDX-FileCopyrightText: © 2025 Solinum

SPDX-License-Identifier: AGPL-3.0-only

This program is free software: you can redistribute it and/or modify
it under the terms of the GNU Affero General Public License as published
by the Free Software Foundation, either version 3 of the License, or
(at your option) any later version.

This program is distributed in the hope that it will be useful,
but WITHOUT ANY WARRANTY; without even the implied warranty of
MERCHANTABILITY or FITNESS FOR A PARTICULAR PURPOSE.  See the
GNU Affero General Public License for more details.

You should have received a copy of the GNU Affero General Public License
along with this program.  If not, see <https://www.gnu.org/licenses/>.
-->
<svg version="1.1" width="667" height="667" xmlns="http://www.w3.org/2000/svg"><path d="M274.500 159.871 C 269.984 162.675,267.313 166.057,266.101 170.500 C 264.554 176.178,264.567 357.396,266.116 363.545 C 267.317 368.316,273.053 374.489,277.225 375.501 C 278.476 375.805,355.630 375.929,448.677 375.777 C 617.771 375.500,617.855 375.499,620.615 373.438 C 622.134 372.304,624.304 370.134,625.438 368.615 C 627.488 365.869,627.500 365.280,627.500 267.099 L 627.500 168.344 624.618 164.566 C 619.230 157.502,632.747 158.000,446.282 158.004 C 283.374 158.007,277.396 158.072,274.500 159.871 M126.634 161.634 C 113.256 164.763,101.650 174.183,95.701 186.741 C 92.677 193.127,92.500 194.135,92.500 205.000 C 92.500 215.450,92.751 217.035,95.244 222.358 C 99.414 231.259,104.463 237.476,111.148 241.940 C 134.477 257.519,164.251 249.481,176.728 224.236 C 179.907 217.803,180.448 215.661,180.811 208.062 C 181.470 194.290,178.059 184.602,169.100 174.799 C 158.638 163.352,141.718 158.107,126.634 161.634 M123.147 258.075 C 117.417 259.202,110.779 263.175,106.012 268.332 C 102.281 272.369,46.139 349.002,44.041 352.924 C 42.700 355.429,42.706 360.582,44.052 363.097 C 44.631 364.178,46.948 366.399,49.202 368.031 C 53.695 371.286,58.783 371.882,62.847 369.628 C 64.137 368.912,72.350 357.836,81.097 345.014 L 97.000 321.703 97.000 434.447 C 97.000 538.921,97.125 547.403,98.706 550.080 C 101.885 555.460,109.620 557.439,116.401 554.606 C 123.405 551.679,123.000 556.518,123.000 475.777 L 123.000 403.000 136.000 403.000 L 149.000 403.000 149.000 474.550 C 149.000 550.830,148.881 548.867,153.794 553.314 C 156.387 555.660,165.627 556.568,168.904 554.798 C 170.226 554.084,172.251 552.230,173.404 550.677 C 175.496 547.860,175.501 547.624,176.000 435.677 L 176.500 323.500 180.787 329.750 L 185.075 336.000 209.787 335.978 C 231.876 335.958,234.943 335.755,238.672 334.062 C 246.185 330.651,248.920 323.094,244.828 317.054 C 239.944 309.846,237.734 309.334,210.492 309.108 L 197.484 309.000 183.992 290.781 C 166.161 266.703,161.276 261.783,152.509 259.076 C 145.335 256.860,131.692 256.395,123.147 258.075 M315.184 407.562 C 303.595 410.681,292.438 420.056,287.259 431.028 C 278.719 449.119,282.401 469.578,296.617 483.022 C 319.868 505.012,357.570 496.199,369.437 466.000 C 371.813 459.952,372.585 447.648,371.012 440.890 C 365.250 416.137,339.793 400.940,315.184 407.562 M433.798 407.931 C 425.745 410.505,420.263 413.971,414.346 420.227 C 408.454 426.457,405.612 431.552,403.495 439.680 C 397.668 462.053,410.975 486.249,432.845 493.047 C 456.424 500.376,480.296 488.654,488.947 465.500 C 491.525 458.602,492.014 446.412,490.012 439.017 C 483.475 414.882,457.310 400.413,433.798 407.931 M555.698 407.096 C 540.763 410.610,526.967 423.934,523.164 438.517 C 519.123 454.011,523.136 469.920,533.978 481.383 C 542.651 490.554,553.646 495.200,566.673 495.200 C 599.834 495.200,621.130 459.657,605.880 429.764 C 602.940 424.001,593.971 414.846,588.174 411.691 C 578.829 406.605,565.686 404.745,555.698 407.096 M314.890 503.035 C 302.362 504.951,291.555 513.068,285.695 524.964 L 282.500 531.449 282.189 557.724 L 281.879 584.000 326.939 584.000 L 372.000 584.000 372.000 559.682 C 372.000 540.221,371.678 534.278,370.387 529.932 C 366.991 518.492,357.925 508.931,346.752 505.004 C 340.536 502.819,323.278 501.753,314.890 503.035 M434.917 502.937 C 418.059 505.243,404.364 518.858,402.054 535.607 C 401.606 538.848,401.164 551.063,401.070 562.750 L 400.898 584.000 446.449 584.000 L 492.000 584.000 492.000 561.636 C 492.000 549.337,491.548 536.890,490.996 533.977 C 488.275 519.634,477.429 507.866,463.494 504.141 C 458.064 502.689,441.753 502.002,434.917 502.937 M554.917 502.940 C 538.269 505.209,524.754 518.407,522.066 535.020 C 521.578 538.034,521.124 550.288,521.057 562.250 L 520.936 584.000 566.534 584.000 L 612.133 584.000 611.914 561.414 C 611.794 548.991,611.279 536.537,610.771 533.739 C 608.264 519.948,598.010 508.516,584.501 504.450 C 578.923 502.772,562.355 501.926,554.917 502.940 " stroke="none" fill="black" fill-rule="evenodd"/></svg>