<svg width="48" height="48" viewBox="0 0 48 48" fill="none" xmlns="http://www.w3.org/2000/svg">
<path d="M5.9999 19.485L21.6899 25.9425C22.4249 26.2425 23.2049 26.4 23.9999 26.4C24.7949 26.4 25.5749 26.2425 26.3099 25.9425L44.4899 18.4575C45.1649 18.18 45.5999 17.5275 45.5999 16.8C45.5999 16.0725 45.1649 15.42 44.4899 15.1425L26.3099 7.65751C25.5749 7.35751 24.7949 7.20001 23.9999 7.20001C23.2049 7.20001 22.4249 7.35751 21.6899 7.65751L3.5099 15.1425C2.8349 15.42 2.3999 16.0725 2.3999 16.8V39C2.3999 39.9975 3.2024 40.8 4.1999 40.8C5.1974 40.8 5.9999 39.9975 5.9999 39V19.485ZM9.5999 24.8625V33.6C9.5999 37.575 16.0499 40.8 23.9999 40.8C31.9499 40.8 38.3999 37.575 38.3999 33.6V24.855L27.6824 29.2725C26.5124 29.7525 25.2674 30 23.9999 30C22.7324 30 21.4874 29.7525 20.3174 29.2725L9.5999 24.855V24.8625Z" fill="#271332"/>
</svg>
