<svg width="48" height="48" viewBox="0 0 48 48" fill="none" xmlns="http://www.w3.org/2000/svg">
<path d="M26.3099 7.65751C25.5749 7.35751 24.7949 7.20001 23.9999 7.20001C23.2049 7.20001 22.4249 7.35751 21.6899 7.65751L3.5099 15.1425C2.8349 15.42 2.3999 16.0725 2.3999 16.8V39C2.3999 39.9975 3.2024 40.8 4.1999 40.8C5.1974 40.8 5.9999 39.9975 5.9999 39V19.485L9.5999 20.97V33.6075C9.5999 37.5825 16.0499 40.8075 23.9999 40.8075C31.9499 40.8075 38.3999 37.5825 38.3999 33.6075V20.97L44.4899 18.465C45.1649 18.1875 45.5999 17.535 45.5999 16.8075C45.5999 16.08 45.1649 15.4275 44.4899 15.15L26.3099 7.65751ZM13.1999 33.6V22.4475L21.6899 25.9425C22.4249 26.2425 23.2049 26.4 23.9999 26.4C24.7949 26.4 25.5749 26.2425 26.3099 25.9425L34.7999 22.4475V33.6C34.7999 33.6075 34.7999 33.6075 34.7999 33.6225C34.7999 33.6375 34.7924 33.6525 34.7774 33.69C34.7474 33.7575 34.6799 33.8925 34.5224 34.08C34.1924 34.47 33.5774 34.9725 32.5724 35.475C30.5624 36.48 27.5399 37.2 23.9999 37.2C20.4599 37.2 17.4374 36.4725 15.4274 35.475C14.4224 34.9725 13.8074 34.47 13.4774 34.08C13.3199 33.8925 13.2524 33.7575 13.2224 33.69C13.2074 33.6525 13.1999 33.63 13.1999 33.6225C13.1999 33.615 13.1999 33.6075 13.1999 33.6ZM8.9399 16.8L23.0624 10.9875C23.3624 10.8675 23.6774 10.8 23.9999 10.8C24.3224 10.8 24.6374 10.86 24.9374 10.9875L39.0599 16.8L24.9374 22.6125C24.6374 22.7325 24.3224 22.8 23.9999 22.8C23.6774 22.8 23.3624 22.74 23.0624 22.6125L8.9399 16.8Z" fill="#271332"/>
</svg>
