<svg width="48" height="48" viewBox="0 0 48 48" fill="none" xmlns="http://www.w3.org/2000/svg">
<path d="M20.2276 16.8824C19.1401 10.6949 13.7326 5.9999 7.23008 5.9999H6.63008C5.63258 5.9999 4.83008 5.1974 4.83008 4.1999C4.83008 3.2024 5.63258 2.3999 6.63008 2.3999H7.23008C15.3076 2.3999 22.0501 8.0924 23.6626 15.6824L27.1876 19.2074C28.2451 20.2574 28.8301 21.6899 28.8301 23.1824C28.8301 26.0099 26.7451 28.3424 24.0301 28.7399V36.5999C24.0301 40.2449 21.0751 43.1999 17.4301 43.1999H6.63008C5.63258 43.1999 4.83008 42.3974 4.83008 41.3999C4.83008 40.4024 5.63258 39.5999 6.63008 39.5999H17.4301C19.0876 39.5999 20.4301 38.2574 20.4301 36.5999V35.9999L14.8501 35.5349C13.9351 35.4599 13.2301 34.6949 13.2301 33.7799C13.2301 32.9699 13.7776 32.2649 14.5651 32.0699L20.4301 30.6074V27.0074C20.4301 26.0099 21.2326 25.2074 22.2301 25.2074H23.2126C24.3301 25.2074 25.2301 24.2999 25.2301 23.1899C25.2301 22.6574 25.0201 22.1399 24.6376 21.7649L20.7226 17.8499C20.4601 17.5874 20.2876 17.2574 20.2201 16.8899L20.2276 16.8824ZM12.0301 17.9999C12.0301 16.6724 13.1026 15.5999 14.4301 15.5999C15.7576 15.5999 16.8301 16.6724 16.8301 17.9999C16.8301 19.3274 15.7576 20.3999 14.4301 20.3999C13.1026 20.3999 12.0301 19.3274 12.0301 17.9999ZM38.1301 21.6749C38.8351 20.9699 39.9751 20.9699 40.6726 21.6749C47.4676 28.4699 47.4676 39.4874 40.6726 46.2824C39.9676 46.9874 38.8276 46.9874 38.1301 46.2824C37.4326 45.5774 37.4251 44.4374 38.1301 43.7399C43.5226 38.3474 43.5226 29.6099 38.1301 24.2249C37.4251 23.5199 37.4251 22.3799 38.1301 21.6824V21.6749ZM33.0376 26.7674C33.7426 26.0624 34.8826 26.0624 35.5801 26.7674C39.5626 30.7499 39.5626 37.2074 35.5801 41.1899C34.8751 41.8949 33.7351 41.8949 33.0376 41.1899C32.3401 40.4849 32.3326 39.3449 33.0376 38.6474C35.6176 36.0674 35.6176 31.8899 33.0376 29.3099C32.3326 28.6049 32.3326 27.4649 33.0376 26.7674Z" fill="#271332"/>
</svg>
