<svg width="48" height="48" viewBox="0 0 48 48" fill="none" xmlns="http://www.w3.org/2000/svg">
<path d="M7.2299 43.2001H16.8299C20.8049 43.2001 24.0299 39.9751 24.0299 36V30.6C24.0299 29.6026 24.8324 28.8 25.8299 28.8H25.9049C27.8549 28.8 29.4299 27.225 29.4299 25.275C29.4299 24.4501 29.1374 23.655 28.6124 23.0175L25.9349 19.8C25.7849 19.62 25.6949 19.4025 25.6649 19.1775C24.4874 11.0475 17.4974 4.80005 9.0374 4.80005C8.2274 4.80005 7.4399 4.86005 6.6599 4.96505C5.5724 5.11505 4.8374 6.09005 4.8374 7.18505V40.7926C4.8374 42.1201 5.9099 43.1926 7.2374 43.1926L7.2299 43.2001ZM13.2299 19.2C13.2299 17.8725 14.3024 16.8 15.6299 16.8C16.9574 16.8 18.0299 17.8725 18.0299 19.2C18.0299 20.5275 16.9574 21.6 15.6299 21.6C14.3024 21.6 13.2299 20.5275 13.2299 19.2ZM17.9624 36.9901L14.8499 36.735C13.9349 36.66 13.2299 35.8951 13.2299 34.98C13.2299 34.17 13.7774 33.465 14.5649 33.2701L17.5949 32.5126C19.0349 32.1525 20.4299 33.24 20.4299 34.725C20.4299 36.0601 19.2899 37.1101 17.9624 36.9976V36.9901ZM38.1374 21.675C37.4324 22.38 37.4324 23.5201 38.1374 24.2175C43.5299 29.6101 43.5299 38.3475 38.1374 43.7325C37.4324 44.4375 37.4324 45.5775 38.1374 46.2751C38.8424 46.9725 39.9824 46.98 40.6799 46.2751C47.4749 39.48 47.4749 28.4625 40.6799 21.6675C39.9749 20.9625 38.8349 20.9625 38.1374 21.6675V21.675ZM33.0449 26.7675C32.3399 27.4725 32.3399 28.6125 33.0449 29.31C35.6249 31.89 35.6249 36.0675 33.0449 38.6475C32.3399 39.3526 32.3399 40.4925 33.0449 41.1901C33.7499 41.8876 34.8899 41.8951 35.5874 41.1901C39.5699 37.2076 39.5699 30.75 35.5874 26.7675C34.8824 26.0625 33.7424 26.0625 33.0449 26.7675Z" fill="#271332"/>
</svg>
