<?xml version="1.0" encoding="UTF-8"?>
<!--
Soliguide: Useful information for those who need it

SPDX-FileCopyrightText: © 2025 Solinum

SPDX-License-Identifier: AGPL-3.0-only

This program is free software: you can redistribute it and/or modify
it under the terms of the GNU Affero General Public License as published
by the Free Software Foundation, either version 3 of the License, or
(at your option) any later version.

This program is distributed in the hope that it will be useful,
but WITHOUT ANY WARRANTY; without even the implied warranty of
MERCHANTABILITY or FITNESS FOR A PARTICULAR PURPOSE.  See the
GNU Affero General Public License for more details.

You should have received a copy of the GNU Affero General Public License
along with this program.  If not, see <https://www.gnu.org/licenses/>.
-->
<svg version="1.1" width="667" height="667" xmlns="http://www.w3.org/2000/svg"><path d="M304.500 15.658 C 247.427 20.936,196.600 41.137,150.000 77.063 C 139.070 85.490,114.181 109.989,105.363 121.000 C 61.744 175.475,38.873 241.848,40.583 309.000 C 41.007 325.640,41.337 329.256,44.553 352.500 C 46.581 367.153,47.799 372.195,53.379 389.022 C 65.914 426.823,80.840 455.098,102.988 483.000 C 112.975 495.582,136.212 518.997,148.000 528.357 C 192.828 563.952,244.787 585.196,301.000 590.914 C 316.230 592.464,348.226 591.992,364.000 589.986 C 429.150 581.700,485.634 554.458,531.302 509.294 C 559.180 481.725,578.913 453.149,593.911 418.632 C 620.739 356.887,625.130 287.415,606.308 222.500 C 593.875 179.621,570.635 138.915,540.088 106.512 C 494.402 58.050,436.162 27.567,369.804 17.385 C 360.079 15.893,314.883 14.698,304.500 15.658 M257.301 58.466 C 241.928 72.713,228.065 90.814,219.599 107.693 L 215.181 116.500 206.340 118.907 C 176.480 127.036,149.461 142.241,127.291 163.393 C 117.260 172.963,116.834 173.245,114.211 172.052 C 109.171 169.759,93.522 160.174,90.161 157.322 L 86.823 154.489 92.740 145.494 C 111.640 116.767,141.326 87.036,170.779 67.336 C 190.967 53.834,212.848 42.878,235.025 35.168 L 246.500 31.179 256.235 40.805 L 265.969 50.432 257.301 58.466 M424.766 35.555 C 441.805 41.650,468.758 55.057,483.500 64.771 C 502.453 77.261,513.344 86.180,530.082 102.918 C 546.525 119.360,555.907 130.757,567.190 147.992 C 573.589 157.768,573.937 158.579,572.279 159.866 C 569.186 162.268,546.287 173.000,544.255 173.000 C 543.185 173.000,541.453 172.030,540.405 170.843 C 535.743 165.566,515.530 149.137,505.500 142.472 C 486.715 129.991,466.077 120.967,452.733 119.398 C 447.157 118.743,447.030 118.656,444.437 113.697 C 435.230 96.090,415.192 68.042,400.420 52.087 C 397.439 48.867,395.000 45.775,395.000 45.215 C 395.000 43.829,409.184 31.067,410.766 31.030 C 411.462 31.013,417.762 33.050,424.766 35.555 M379.275 45.838 C 388.128 46.595,389.341 46.948,392.138 49.587 C 397.583 54.723,415.318 76.415,422.413 86.616 C 429.316 96.541,443.000 118.827,443.000 120.143 C 443.000 120.530,428.712 137.550,411.250 157.965 L 379.500 195.083 326.623 195.291 L 273.746 195.500 246.773 157.056 L 219.800 118.612 220.870 115.038 C 222.340 110.133,230.920 95.949,238.846 85.323 C 246.841 74.604,266.895 54.359,271.372 52.489 C 278.359 49.570,295.607 46.490,311.500 45.324 C 315.900 45.001,319.682 44.576,319.905 44.380 C 320.599 43.769,368.971 44.957,379.275 45.838 M92.670 164.376 C 96.977 167.333,103.816 171.416,107.869 173.449 C 115.063 177.057,115.225 177.221,114.668 180.323 C 111.641 197.178,110.940 201.807,110.095 210.500 C 109.086 220.876,109.413 270.805,110.576 284.084 C 111.240 291.668,111.240 291.669,107.633 296.394 C 102.195 303.518,97.336 312.231,92.540 323.461 C 88.133 333.778,79.000 360.215,79.000 362.653 C 79.000 364.909,77.030 364.197,70.627 359.626 C 64.388 355.171,50.692 341.511,47.346 336.406 C 45.658 333.829,45.501 331.107,45.509 304.544 C 45.516 281.548,45.892 273.105,47.316 264.000 C 52.313 232.046,61.268 203.402,74.560 176.851 C 79.444 167.094,83.958 159.000,84.515 159.000 C 84.694 159.000,88.364 161.419,92.670 164.376 M584.355 178.250 C 599.145 208.180,608.503 240.383,612.035 273.500 C 614.177 293.582,612.911 338.845,609.992 346.521 C 609.504 347.804,606.494 350.621,603.302 352.780 C 596.253 357.549,576.131 370.000,575.473 370.000 C 575.213 370.000,575.000 368.709,575.000 367.131 C 575.000 361.549,571.980 347.053,568.896 337.837 C 564.956 326.061,558.642 312.496,551.921 301.369 L 546.697 292.721 548.472 281.617 C 552.868 254.116,552.464 217.075,547.451 188.119 C 546.653 183.509,546.000 179.193,546.000 178.527 C 546.000 177.861,549.038 176.113,552.750 174.643 C 556.462 173.173,563.100 169.990,567.500 167.571 C 571.900 165.151,575.797 163.133,576.160 163.086 C 576.523 163.039,580.211 169.863,584.355 178.250 M388.996 207.787 C 401.649 220.917,414.533 240.553,438.021 282.500 L 449.219 302.500 447.077 308.780 C 441.266 325.819,422.100 359.921,400.310 391.995 C 392.966 402.804,392.261 403.531,388.500 404.169 C 386.300 404.542,358.582 404.887,326.905 404.936 L 269.311 405.024 262.748 393.762 C 252.743 376.592,239.875 352.076,226.737 325.151 L 214.855 300.802 218.077 292.651 C 222.504 281.452,234.801 255.853,241.107 244.712 C 250.024 228.957,260.729 213.991,270.766 203.250 L 273.802 200.000 327.647 200.000 L 381.492 200.000 388.996 207.787 M546.037 299.750 C 551.366 308.076,561.839 330.179,565.048 339.871 C 566.754 345.026,568.873 354.389,569.758 360.679 L 571.365 372.116 568.113 382.740 C 558.291 414.831,541.476 447.654,520.722 475.250 C 515.862 481.712,511.425 487.000,510.863 487.000 C 510.300 487.000,504.496 487.695,497.964 488.545 C 478.683 491.053,454.419 492.784,440.583 492.637 C 427.727 492.501,427.662 492.488,426.895 490.000 C 415.416 452.713,405.572 425.162,398.925 411.712 L 396.064 405.924 404.333 393.712 C 426.364 361.175,444.584 328.810,451.104 310.632 C 452.412 306.985,454.046 304.000,454.736 304.000 C 456.183 304.000,498.736 299.670,523.000 297.054 C 532.075 296.075,540.287 295.213,541.248 295.137 C 542.323 295.053,544.168 296.830,546.037 299.750 M123.500 297.403 C 127.900 298.173,136.450 299.097,142.500 299.456 C 148.550 299.816,154.850 300.275,156.500 300.477 C 158.150 300.679,167.150 301.152,176.500 301.528 C 185.850 301.905,195.525 302.364,198.000 302.550 C 200.475 302.735,204.405 302.912,206.734 302.943 L 210.969 303.000 223.845 329.250 C 236.695 355.445,251.168 382.789,260.837 399.139 L 265.947 407.778 261.886 417.139 C 253.087 437.424,241.482 466.094,237.453 477.500 C 234.804 484.999,232.705 489.480,231.857 489.447 C 216.485 488.846,181.101 481.461,162.383 474.946 C 150.586 470.841,130.899 461.067,123.747 455.765 C 118.267 451.703,117.545 450.618,108.593 433.000 C 97.455 411.077,92.529 399.739,86.369 381.837 L 81.804 368.570 83.997 360.535 C 87.359 348.213,94.655 328.595,100.002 317.500 C 105.155 306.807,112.345 295.999,114.305 296.001 C 114.962 296.002,119.100 296.633,123.500 297.403 M120.856 458.844 C 133.803 468.950,157.065 478.926,183.037 485.509 C 193.207 488.087,217.296 492.427,227.436 493.508 C 232.961 494.097,233.649 494.465,237.370 498.820 C 254.953 519.399,279.913 536.410,311.000 549.003 L 322.500 553.661 322.774 570.923 L 323.048 588.185 313.774 587.532 C 267.203 584.251,226.304 572.184,188.279 550.507 C 159.079 533.861,130.266 509.525,109.125 483.653 L 102.936 476.079 109.621 466.040 C 113.297 460.518,116.509 456.000,116.759 456.000 C 117.008 456.000,118.852 457.280,120.856 458.844 M515.228 503.250 C 518.729 514.943,518.814 515.568,517.101 517.000 C 495.963 534.663,477.920 546.856,458.000 556.939 C 426.701 572.781,396.257 581.895,359.500 586.425 C 357.300 586.696,349.087 587.224,341.250 587.597 L 327.000 588.276 327.000 570.867 L 327.000 553.457 336.152 550.671 C 369.235 540.600,399.939 523.521,419.763 504.163 L 426.775 497.316 449.637 496.661 C 462.212 496.300,475.650 495.591,479.500 495.086 C 483.350 494.580,489.264 493.873,492.642 493.515 C 496.021 493.158,500.971 492.498,503.642 492.050 C 506.314 491.602,509.188 491.182,510.030 491.118 C 511.147 491.032,512.547 494.300,515.228 503.250 " stroke="none" fill="black" fill-rule="evenodd"/></svg>