<svg width="48" height="48" viewBox="0 0 48 48" fill="none" xmlns="http://www.w3.org/2000/svg">
<path d="M5.47515 2.93256C4.77015 2.22756 3.63015 2.22756 2.93265 2.93256C2.23515 3.63756 2.22765 4.77756 2.92515 5.48256L42.5252 45.0826C43.2302 45.7876 44.3702 45.7876 45.0677 45.0826C45.7652 44.3776 45.7727 43.2376 45.0677 42.5401L38.5951 36.0676C39.3377 34.3201 39.0002 32.2201 37.5677 30.7951C36.8327 30.0601 37.3502 28.8076 38.3927 28.8076C41.0402 28.8076 43.1927 26.6551 43.1927 24.0076C43.1927 21.3601 41.0402 19.2076 38.3927 19.2076C37.3577 19.2076 36.8327 17.9551 37.5677 17.2201C39.4427 15.3451 39.4427 12.3076 37.5677 10.4326C35.6927 8.55756 32.6552 8.55756 30.7802 10.4326C30.0452 11.1676 28.7927 10.6501 28.7927 9.60756C28.7927 6.96006 26.6402 4.80756 23.9927 4.80756C21.3452 4.80756 19.1927 6.96006 19.1927 9.60756C19.1927 10.6426 17.9402 11.1676 17.2052 10.4326C15.7802 9.00756 13.6802 8.66256 11.9327 9.40506L5.47515 2.93256ZM16.7402 14.1976C19.5752 15.0001 22.8002 12.9601 22.8002 9.60006C22.8002 8.94006 23.3402 8.40006 24.0002 8.40006C24.6602 8.40006 25.2002 8.94006 25.2002 9.60006C25.2002 13.8451 30.3302 15.9676 33.3377 12.9676C33.8027 12.5026 34.5677 12.5026 35.0327 12.9676C35.4977 13.4326 35.4977 14.1976 35.0327 14.6626C32.0327 17.6626 34.1552 22.7926 38.4002 22.7926C39.0602 22.7926 39.6002 23.3326 39.6002 23.9926C39.6002 24.6526 39.0602 25.1926 38.4002 25.1926C35.0327 25.1926 33.0002 28.4176 33.8027 31.2526L16.7402 14.1976ZM27.0152 34.6501C25.9352 35.4901 25.2002 36.7876 25.2002 38.4001C25.2002 39.0601 24.6602 39.6001 24.0002 39.6001C23.3402 39.6001 22.8002 39.0601 22.8002 38.4001C22.8002 34.1551 17.6702 32.0326 14.6702 35.0326C14.2052 35.4976 13.4402 35.4976 12.9752 35.0326C12.5102 34.5676 12.5102 33.8026 12.9752 33.3376C15.9752 30.3376 13.8527 25.2001 9.60765 25.2001C8.94765 25.2001 8.40765 24.6601 8.40765 24.0001C8.40765 23.3401 8.94765 22.8001 9.60765 22.8001C11.2127 22.8001 12.5177 22.0651 13.3577 20.9851L10.7327 18.3601C10.5977 18.8251 10.1852 19.2001 9.61515 19.2001C6.96765 19.2001 4.81515 21.3526 4.81515 24.0001C4.81515 26.6476 6.96765 28.8001 9.61515 28.8001C10.6502 28.8001 11.1752 30.0526 10.4402 30.7876C8.56515 32.6626 8.56515 35.7001 10.4402 37.5751C12.3152 39.4501 15.3527 39.4501 17.2277 37.5751C17.9627 36.8401 19.2152 37.3576 19.2152 38.4001C19.2152 41.0476 21.3677 43.2001 24.0152 43.2001C26.6627 43.2001 28.8152 41.0476 28.8152 38.4001C28.8152 37.8301 29.1977 37.4176 29.6552 37.2826L27.0302 34.6576L27.0152 34.6501Z" fill="#271332"/>
</svg>
