<svg width="48" height="48" viewBox="0 0 48 48" fill="none" xmlns="http://www.w3.org/2000/svg">
<path d="M4.7998 12C4.7998 9.35245 6.9523 7.19995 9.5998 7.19995H38.3998C41.0473 7.19995 43.1998 9.35245 43.1998 12V36C43.1998 38.6474 41.0473 40.7999 38.3998 40.7999H9.5998C6.9523 40.7999 4.7998 38.6474 4.7998 36V12ZM15.5998 20.4V22.2C15.5998 23.1975 16.4023 24 17.3998 24H20.9998C21.9973 24 22.7998 23.1975 22.7998 22.2V20.4C22.7998 18.4125 21.1873 16.8 19.1998 16.8C17.2123 16.8 15.5998 18.4125 15.5998 20.4ZM25.1998 20.4V22.2C25.1998 23.1975 26.0023 24 26.9998 24H30.5998C31.5973 24 32.3998 23.1975 32.3998 22.2V20.4C32.3998 18.4125 30.7873 16.8 28.7998 16.8C26.8123 16.8 25.1998 18.4125 25.1998 20.4ZM10.7998 18C9.4723 18 8.3998 19.0725 8.3998 20.4V22.2C8.3998 23.1975 9.2023 24 10.1998 24H11.3998C12.3973 24 13.1998 23.1975 13.1998 22.2V20.4C13.1998 19.0725 12.1273 18 10.7998 18ZM34.7998 20.4V22.2C34.7998 23.1975 35.6023 24 36.5998 24H37.7998C38.7973 24 39.5998 23.1975 39.5998 22.2V20.4C39.5998 19.0725 38.5273 18 37.1998 18C35.8723 18 34.7998 19.0725 34.7998 20.4ZM8.3998 30C8.3998 31.3274 9.4723 32.4 10.7998 32.4C12.1273 32.4 13.1998 31.3274 13.1998 30V28.7999C13.1998 28.1399 12.6598 27.6 11.9998 27.6H9.5998C8.93981 27.6 8.3998 28.1399 8.3998 28.7999V30ZM19.1998 33.5999C21.1873 33.5999 22.7998 31.9874 22.7998 30V28.7999C22.7998 28.1399 22.2598 27.6 21.5998 27.6H16.7998C16.1398 27.6 15.5998 28.1399 15.5998 28.7999V30C15.5998 31.9874 17.2123 33.5999 19.1998 33.5999ZM28.7998 33.5999C30.7873 33.5999 32.3998 31.9874 32.3998 30V28.7999C32.3998 28.1399 31.8598 27.6 31.1998 27.6H26.3998C25.7398 27.6 25.1998 28.1399 25.1998 28.7999V30C25.1998 31.9874 26.8123 33.5999 28.7998 33.5999ZM37.1998 32.4C38.5273 32.4 39.5998 31.3274 39.5998 30V28.7999C39.5998 28.1399 39.0598 27.6 38.3998 27.6H35.9998C35.3398 27.6 34.7998 28.1399 34.7998 28.7999V30C34.7998 31.3274 35.8723 32.4 37.1998 32.4Z" fill="#271332"/>
</svg>
