<svg width="64" height="64" viewBox="0 0 64 64" fill="none" xmlns="http://www.w3.org/2000/svg">
<path d="M51.2 14.4001H12.8C11.92 14.4001 11.2 15.1201 11.2 16.0001V36.8001H6.4V16.0001C6.4 12.4701 9.27 9.6001 12.8 9.6001H51.2C54.73 9.6001 57.6 12.4701 57.6 16.0001V36.8001H52.8V16.0001C52.8 15.1201 52.08 14.4001 51.2 14.4001ZM10.24 49.6001H53.76C55.97 49.6001 57.87 48.2901 58.72 46.4001H5.28C6.13 48.2901 8.03 49.6001 10.24 49.6001ZM0 44.1601C0 42.7501 1.15 41.6001 2.56 41.6001H61.44C62.85 41.6001 64 42.7501 64 44.1601C64 49.8201 59.42 54.4001 53.76 54.4001H10.24C4.58 54.4001 0 49.8201 0 44.1601Z" fill="#271332"/>
</svg>
