<?xml version="1.0" encoding="UTF-8"?>
<!--
Soliguide: Useful information for those who need it

SPDX-FileCopyrightText: © 2025 Solinum

SPDX-License-Identifier: AGPL-3.0-only

This program is free software: you can redistribute it and/or modify
it under the terms of the GNU Affero General Public License as published
by the Free Software Foundation, either version 3 of the License, or
(at your option) any later version.

This program is distributed in the hope that it will be useful,
but WITHOUT ANY WARRANTY; without even the implied warranty of
MERCHANTABILITY or FITNESS FOR A PARTICULAR PURPOSE.  See the
GNU Affero General Public License for more details.

You should have received a copy of the GNU Affero General Public License
along with this program.  If not, see <https://www.gnu.org/licenses/>.
-->
<svg version="1.1" width="667" height="667" xmlns="http://www.w3.org/2000/svg"><path d="M78.500 148.404 C 63.412 153.196,52.545 164.033,47.964 178.855 C 46.045 185.065,46.000 189.057,46.000 353.107 L 46.000 521.003 333.250 520.752 L 620.500 520.500 620.741 355.144 C 621.002 176.153,621.168 182.172,615.684 171.374 C 610.320 160.814,600.373 152.463,588.909 148.895 C 583.001 147.056,575.474 147.002,332.661 147.067 C 133.305 147.120,81.688 147.392,78.500 148.404 M582.500 178.000 C 585.133 179.275,587.424 181.410,588.816 183.886 L 591.000 187.772 591.000 339.320 L 591.000 490.867 588.250 491.184 C 586.737 491.358,470.637 491.386,330.250 491.246 L 75.000 490.992 75.000 340.118 C 75.000 177.224,74.736 185.394,80.163 180.310 C 81.449 179.106,83.626 177.672,85.001 177.123 C 86.636 176.471,172.345 176.105,332.934 176.063 C 576.394 176.001,578.402 176.016,582.500 178.000 M314.000 252.430 C 295.786 255.711,279.858 261.016,262.860 269.463 C 253.525 274.101,235.000 285.823,235.000 287.091 C 235.000 287.478,239.621 293.397,245.268 300.243 L 255.537 312.690 262.018 308.311 C 276.887 298.265,299.580 288.964,317.500 285.572 C 329.613 283.279,350.766 284.079,363.000 287.293 C 377.979 291.228,394.255 299.537,406.576 309.539 L 410.651 312.848 421.332 300.174 L 432.012 287.500 428.256 284.213 C 413.191 271.028,387.670 258.540,365.401 253.457 C 355.780 251.261,324.010 250.626,314.000 252.430 M319.500 313.405 C 306.634 315.906,294.227 320.975,282.250 328.623 C 279.363 330.467,277.000 332.458,277.000 333.047 C 277.000 333.637,280.230 338.030,284.178 342.810 C 288.126 347.589,291.484 351.670,291.640 351.879 C 291.796 352.087,294.079 350.875,296.712 349.186 C 312.896 338.806,333.280 334.578,348.289 338.487 C 355.113 340.265,366.442 345.818,370.906 349.575 C 372.735 351.113,374.480 351.896,374.954 351.390 C 378.308 347.807,390.000 333.453,390.000 332.918 C 390.000 331.682,375.434 322.167,369.578 319.577 C 357.945 314.432,351.076 312.855,338.500 312.440 C 330.862 312.188,323.955 312.539,319.500 313.405 M325.481 366.394 C 321.236 368.243,316.222 374.301,315.426 378.541 C 314.328 384.394,315.509 390.667,318.428 394.495 C 325.472 403.730,339.235 404.191,346.911 395.448 C 357.548 383.334,349.294 364.908,333.290 365.039 C 330.655 365.061,327.142 365.670,325.481 366.394 M18.166 554.750 C 18.470 569.987,18.711 571.906,20.837 576.000 C 24.093 582.268,28.435 586.511,34.080 588.939 L 38.896 591.011 332.537 591.020 C 523.792 591.026,627.463 590.683,629.865 590.036 C 636.668 588.205,642.357 582.838,645.996 574.820 C 647.682 571.105,647.959 568.225,647.978 554.250 L 648.000 538.000 521.026 538.000 L 394.051 538.000 392.611 540.750 C 390.462 544.853,385.071 549.628,380.000 551.921 C 375.709 553.862,373.569 553.957,333.876 553.978 C 288.798 554.002,287.440 553.861,280.320 548.430 C 278.495 547.038,275.989 544.126,274.751 541.958 L 272.500 538.015 145.166 538.008 L 17.831 538.000 18.166 554.750 " stroke="none" fill="black" fill-rule="evenodd"/></svg>