<?xml version="1.0" encoding="UTF-8"?>
<!--
Soliguide: Useful information for those who need it

SPDX-FileCopyrightText: © 2025 Solinum

SPDX-License-Identifier: AGPL-3.0-only

This program is free software: you can redistribute it and/or modify
it under the terms of the GNU Affero General Public License as published
by the Free Software Foundation, either version 3 of the License, or
(at your option) any later version.

This program is distributed in the hope that it will be useful,
but WITHOUT ANY WARRANTY; without even the implied warranty of
MERCHANTABILITY or FITNESS FOR A PARTICULAR PURPOSE.  See the
GNU Affero General Public License for more details.

You should have received a copy of the GNU Affero General Public License
along with this program.  If not, see <https://www.gnu.org/licenses/>.
-->
<svg version="1.1" width="667" height="667" xmlns="http://www.w3.org/2000/svg"><path d="M149.500 51.227 C 147.850 51.815,144.700 53.507,142.500 54.986 C 140.300 56.465,133.907 60.238,128.294 63.369 C 114.383 71.130,103.932 79.089,94.965 88.751 C 81.692 103.052,73.110 119.986,68.951 140.077 C 67.099 149.025,66.870 152.623,67.332 165.500 C 68.160 188.588,72.270 201.307,89.952 235.500 C 151.652 354.813,239.243 454.118,345.000 524.656 C 377.425 546.283,429.076 574.242,449.914 581.446 C 484.599 593.438,522.020 590.440,552.479 573.228 C 582.547 556.237,603.822 524.996,602.346 500.000 C 601.689 488.885,596.946 476.117,591.614 471.107 C 589.227 468.864,477.889 428.384,468.500 426.345 C 441.373 420.453,412.835 436.980,404.872 463.194 C 403.060 469.162,402.598 469.855,401.005 469.003 C 400.011 468.470,391.165 462.014,381.348 454.654 C 315.127 405.010,255.506 347.417,216.588 295.500 C 205.064 280.127,189.000 255.840,189.000 253.790 C 189.000 253.496,190.710 252.982,192.800 252.648 C 199.065 251.646,208.604 246.219,214.734 240.169 C 228.383 226.697,233.173 207.864,227.655 189.363 C 224.145 177.596,186.479 72.860,184.033 68.064 C 178.770 57.748,167.273 49.929,157.590 50.079 C 154.791 50.122,151.150 50.639,149.500 51.227 " stroke="none" fill="black" fill-rule="evenodd"/></svg>