<svg width="48" height="48" viewBox="0 0 48 48" fill="none" xmlns="http://www.w3.org/2000/svg">
<path d="M13.2602 5.61746C15.3077 4.93496 17.5352 5.90996 18.4277 7.86746L21.4052 14.415C22.2002 16.17 21.7052 18.24 20.2052 19.4475L18.3902 20.895C20.3027 24.645 23.3027 27.75 26.9702 29.805L28.5602 27.81C29.7677 26.3025 31.8377 25.8075 33.5927 26.61L40.1402 29.5875C42.1052 30.48 43.0727 32.7075 42.3902 34.755C40.8377 39.4275 36.1127 43.47 30.3227 42.45C17.2952 40.155 7.8527 30.7125 5.5577 17.685C4.5377 11.895 8.5877 7.17746 13.2527 5.61746H13.2602ZM15.1502 9.35996C15.0227 9.07496 14.7002 8.93246 14.4002 9.02996C11.0102 10.1625 8.4677 13.425 9.1127 17.055C11.1452 28.59 19.4177 36.87 30.9527 38.9025C34.5827 39.54 37.8452 37.005 38.9777 33.615C39.0752 33.315 38.9327 32.9925 38.6477 32.865L32.1002 29.88C31.8452 29.7675 31.5452 29.835 31.3727 30.0525L28.8602 33.195C28.3352 33.8475 27.4352 34.0575 26.6852 33.6975C21.2477 31.1175 16.8977 26.625 14.5052 21.0825C14.1827 20.34 14.4002 19.47 15.0302 18.9675L17.9477 16.635C18.1652 16.4625 18.2402 16.1625 18.1202 15.9075L15.1427 9.35246L15.1502 9.35996Z" fill="#271332"/>
</svg>
