<?xml version="1.0" encoding="UTF-8"?>
<!--
Soliguide: Useful information for those who need it

SPDX-FileCopyrightText: © 2025 Solinum

SPDX-License-Identifier: AGPL-3.0-only

This program is free software: you can redistribute it and/or modify
it under the terms of the GNU Affero General Public License as published
by the Free Software Foundation, either version 3 of the License, or
(at your option) any later version.

This program is distributed in the hope that it will be useful,
but WITHOUT ANY WARRANTY; without even the implied warranty of
MERCHANTABILITY or FITNESS FOR A PARTICULAR PURPOSE.  See the
GNU Affero General Public License for more details.

You should have received a copy of the GNU Affero General Public License
along with this program.  If not, see <https://www.gnu.org/licenses/>.
-->
<svg width="48" height="48" viewBox="0 0 48 48" fill="none" xmlns="http://www.w3.org/2000/svg">
<path d="M38.4435 30.5364L33.3635 29.9564C32.1435 29.8164 30.9435 30.2364 30.0835 31.0964L26.4035 34.7764C20.7435 31.8964 16.1035 27.2764 13.2235 21.5964L16.9235 17.8964C17.7835 17.0364 18.2035 15.8364 18.0635 14.6164L17.4835 9.57638C17.2435 7.55638 15.5435 6.03638 13.5035 6.03638H10.0435C7.78348 6.03638 5.90348 7.91638 6.04348 10.1764C7.10348 27.2564 20.7635 40.8964 37.8235 41.9564C40.0835 42.0964 41.9635 40.2164 41.9635 37.9564V34.4964C41.9835 32.4764 40.4635 30.7764 38.4435 30.5364Z" fill="#404040"/>
</svg>
