<svg width="48" height="48" viewBox="0 0 48 48" fill="none" xmlns="http://www.w3.org/2000/svg">
<path d="M34.5227 34.3725C36.5327 33.975 38.4002 35.505 38.4002 37.5525C38.4002 39.345 36.9452 40.8 35.1527 40.8H12.8402C11.0477 40.8 9.6002 39.345 9.6002 37.5525C9.6002 35.505 11.4752 33.9675 13.4777 34.3725L24.0002 36.4725L34.5227 34.3725ZM24.0002 18C27.6152 18 30.9527 19.935 32.7452 23.0775L34.6427 26.4H39.0002C39.9977 26.4 40.8002 27.2025 40.8002 28.2C40.8002 29.1975 39.9977 30 39.0002 30H33.6002C32.9552 30 32.3552 29.655 32.0402 29.0925L31.2002 27.63V31.98L27.6002 32.7V22.695C26.5502 21.9975 25.3052 21.6 24.0002 21.6C22.6952 21.6 21.4502 21.99 20.4002 22.695V32.7L16.8002 31.98V27.63L15.9602 29.0925C15.6452 29.655 15.0452 30 14.4002 30H9.0002C8.0027 30 7.2002 29.1975 7.2002 28.2C7.2002 27.2025 8.0027 26.4 9.0002 26.4H13.3577L15.2552 23.0775C17.0477 19.935 20.3852 18 24.0002 18ZM24.0002 14.4C21.6827 14.4 19.8002 12.5175 19.8002 10.2C19.8002 7.8825 21.6827 6 24.0002 6C26.3177 6 28.2002 7.8825 28.2002 10.2C28.2002 12.5175 26.3177 14.4 24.0002 14.4Z" fill="#271332"/>
</svg>
