<?xml version="1.0" encoding="UTF-8"?>
<!--
Soliguide: Useful information for those who need it

SPDX-FileCopyrightText: © 2025 Solinum

SPDX-License-Identifier: AGPL-3.0-only

This program is free software: you can redistribute it and/or modify
it under the terms of the GNU Affero General Public License as published
by the Free Software Foundation, either version 3 of the License, or
(at your option) any later version.

This program is distributed in the hope that it will be useful,
but WITHOUT ANY WARRANTY; without even the implied warranty of
MERCHANTABILITY or FITNESS FOR A PARTICULAR PURPOSE.  See the
GNU Affero General Public License for more details.

You should have received a copy of the GNU Affero General Public License
along with this program.  If not, see <https://www.gnu.org/licenses/>.
-->
<svg width="38" height="46" viewBox="0 0 38 46" fill="none" xmlns="http://www.w3.org/2000/svg">
<path d="M29.0813 8L28.3233 8.65223L28.6225 9H29.0813V8ZM29.5 21.5464H28.5V22.5464H29.5V21.5464ZM32 24.6166L31.2199 25.2424L31.5477 25.6509L32.0701 25.6142L32 24.6166ZM33 24.5464V23.5464H32.9649L32.9299 23.5488L33 24.5464ZM10.0499 8V9H10.587L10.8836 8.55223L10.0499 8ZM5 24.5464V25.5464H5.0321L5.06414 25.5443L5 24.5464ZM6.5 24.45L6.56414 25.4479L6.85515 25.4292L7.09049 25.257L6.5 24.45ZM8.82741 21.5464L9.76109 21.1883L9.51489 20.5464H8.82741V21.5464ZM18.9339 8.00921C19.485 8.04573 19.9613 7.62859 19.9978 7.07751C20.0343 6.52644 19.6172 6.0501 19.0661 6.01359L18.9339 8.00921ZM11.0326 18.0493C11.0598 18.6009 11.529 19.026 12.0807 18.9988C12.6323 18.9716 13.0574 18.5023 13.0302 17.9507L11.0326 18.0493ZM5 27.8275H4C4 30.3349 5.49618 33.3751 8.04045 35.7578C10.6174 38.1711 14.3566 40 19 40V39V38C14.9074 38 11.6466 36.3948 9.40755 34.298C7.13582 32.1705 6 29.6245 6 27.8275H5ZM19 39V40C23.5336 40 27.1526 38.8373 29.7219 36.6922C32.302 34.5381 33.7194 31.4793 33.997 27.9049L33 27.8275L32.003 27.7501C31.7606 30.8713 30.546 33.3988 28.4401 35.157C26.3234 36.9242 23.2024 38 19 38V39ZM33 27.8275H32C32 29.349 30.8315 30.9571 28.4277 32.2435C26.066 33.5073 22.7346 34.3195 19 34.3195V35.3195V36.3195C22.9974 36.3195 26.666 35.4546 29.3713 34.0068C32.0345 32.5817 34 30.4437 34 27.8275H33ZM19 35.3195V34.3195C15.2654 34.3195 11.934 33.5073 9.57234 32.2435C7.1685 30.9571 6 29.349 6 27.8275H5H4C4 30.4437 5.96551 32.5817 8.62867 34.0068C11.334 35.4546 15.0026 36.3195 19 36.3195V35.3195ZM5 27.8275H6C6 26.306 7.1685 24.6979 9.57234 23.4115C11.934 22.1477 15.2654 21.3355 19 21.3355V20.3355V19.3355C15.0026 19.3355 11.334 20.2004 8.62867 21.6482C5.96551 23.0733 4 25.2113 4 27.8275H5ZM19 20.3355V21.3355C22.7346 21.3355 26.066 22.1477 28.4277 23.4115C30.8315 24.6979 32 26.306 32 27.8275H33H34C34 25.2113 32.0345 23.0733 29.3713 21.6482C26.666 20.2004 22.9974 19.3355 19 19.3355V20.3355ZM27 27.8275H26C26 27.9085 25.9632 28.086 25.683 28.3519C25.4005 28.62 24.9383 28.9074 24.2844 29.1699C22.982 29.6926 21.1141 30.0384 19 30.0384V31.0384V32.0384C21.3041 32.0384 23.4363 31.6654 25.0293 31.026C25.8231 30.7074 26.5325 30.303 27.0597 29.8027C27.5891 29.3003 28 28.6331 28 27.8275H27ZM19 31.0384V30.0384C16.8859 30.0384 15.018 29.6926 13.7156 29.1699C13.0617 28.9074 12.5995 28.62 12.317 28.3519C12.0368 28.086 12 27.9085 12 27.8275H11H10C10 28.6331 10.4109 29.3003 10.9403 29.8027C11.4675 30.303 12.1769 30.7074 12.9707 31.026C14.5637 31.6654 16.6959 32.0384 19 32.0384V31.0384ZM11 27.8275H12C12 27.7465 12.0368 27.569 12.317 27.3031C12.5995 27.035 13.0617 26.7476 13.7156 26.4851C15.018 25.9624 16.8859 25.6166 19 25.6166V24.6166V23.6166C16.6959 23.6166 14.5637 23.9897 12.9707 24.629C12.1769 24.9476 11.4675 25.3521 10.9403 25.8523C10.4109 26.3547 10 27.0219 10 27.8275H11ZM19 24.6166V25.6166C21.1141 25.6166 22.982 25.9624 24.2844 26.4851C24.9383 26.7476 25.4005 27.035 25.683 27.3031C25.9632 27.569 26 27.7465 26 27.8275H27H28C28 27.0219 27.5891 26.3547 27.0597 25.8523C26.5325 25.3521 25.8231 24.9476 25.0293 24.629C23.4363 23.9897 21.3041 23.6166 19 23.6166V24.6166ZM9.55914 23.2643L10.444 22.7983C8.81908 19.7125 8.61913 14.9458 10.075 10.9407C11.5165 6.97508 14.4707 4 19 4V3V2C13.3676 2 9.82301 5.77968 8.19533 10.2575C6.58198 14.6958 6.74243 20.0613 8.67431 23.7302L9.55914 23.2643ZM19 3V4C23.8081 4 26.982 6.2851 28.544 9.62001C30.1318 13.01 30.108 17.6154 28.1597 22.2407L29.0813 22.6289L30.0029 23.0171C32.1192 17.9929 32.2344 12.7837 30.3552 8.77168C28.4502 4.70454 24.551 2 19 2V3ZM12.0995 38.2212L11.1779 37.833C10.7787 38.7808 10.4519 40.4349 10.7654 41.9202C10.9261 42.6817 11.271 43.4688 11.9356 44.0667C12.6138 44.6767 13.5251 45 14.6399 45V44V43C13.9257 43 13.5202 42.802 13.2732 42.5798C13.0127 42.3455 12.8241 41.9894 12.7223 41.5072C12.5108 40.5052 12.7429 39.2699 13.0211 38.6094L12.0995 38.2212ZM14.6399 44V45H23.2774V44V43H14.6399V44ZM23.2774 44V45C25.1857 45 26.532 43.8989 27.0655 42.3335C27.5782 40.8291 27.3244 38.9845 26.3667 37.3205L25.5 37.8193L24.6333 38.3181C25.3658 39.5909 25.4626 40.8367 25.1724 41.6884C24.9029 42.4792 24.2928 43 23.2774 43V44ZM29.0813 8V9H33V8V7H29.0813V8ZM33 8V9H34H35C35 7.89543 34.1046 7 33 7V8ZM34 9H33V20.5464H34H35V9H34ZM34 20.5464H33V20.5464V21.5464V22.5464C34.1046 22.5464 35 21.6509 35 20.5464H34ZM33 21.5464V20.5464H29.5V21.5464V22.5464H33V21.5464ZM29.5 21.5464H30.5C30.5 21.6558 30.4819 21.9484 30.2454 22.2127C29.9752 22.5148 29.6278 22.557 29.4316 22.5435C29.2558 22.5314 29.1278 22.4753 29.0796 22.4529C29.0192 22.4248 28.9741 22.3964 28.9495 22.3801C28.9003 22.3475 28.8652 22.3178 28.8519 22.3063C28.8349 22.2917 28.8221 22.2796 28.8149 22.2728C28.7921 22.2508 28.7788 22.2356 28.7858 22.2433C28.7928 22.2511 28.8111 22.272 28.8441 22.3109C28.9073 22.3857 29.001 22.4988 29.1175 22.6408C29.3495 22.9235 29.6601 23.3064 29.9722 23.6927C30.284 24.0785 30.596 24.4659 30.8301 24.757C30.9471 24.9026 31.0446 25.024 31.1129 25.1089C31.147 25.1514 31.1738 25.1848 31.192 25.2076C31.2012 25.2189 31.2081 25.2276 31.2129 25.2335C31.2152 25.2364 31.217 25.2387 31.2182 25.2401C31.2188 25.2409 31.2192 25.2414 31.2195 25.2418C31.2197 25.242 31.2198 25.2421 31.2198 25.2422C31.2199 25.2423 31.2199 25.2423 31.2199 25.2423C31.2199 25.2423 31.2199 25.2424 32 24.6166C32.7801 23.9909 32.78 23.9909 32.78 23.9909C32.78 23.9909 32.78 23.9908 32.7799 23.9908C32.7798 23.9907 32.7797 23.9905 32.7796 23.9903C32.7793 23.9899 32.7788 23.9894 32.7782 23.9886C32.777 23.9871 32.7752 23.9849 32.7728 23.9819C32.7681 23.976 32.761 23.9672 32.7518 23.9557C32.7335 23.9329 32.7065 23.8993 32.6723 23.8567C32.6038 23.7714 32.506 23.6497 32.3887 23.5037C32.154 23.2119 31.841 22.8231 31.5278 22.4356C31.2149 22.0485 30.9005 21.6609 30.6637 21.3722C30.5459 21.2286 30.4443 21.1059 30.3708 21.019C30.3354 20.9772 30.2999 20.9359 30.2703 20.9031C30.259 20.8905 30.2317 20.8604 30.1994 20.8294C30.195 20.8252 30.1371 20.7678 30.0541 20.7128C30.0289 20.6961 29.9833 20.6674 29.9224 20.6391C29.8738 20.6166 29.7454 20.5604 29.5693 20.5482C29.3728 20.5347 29.0252 20.577 28.7548 20.8793C28.5182 21.1437 28.5 21.4365 28.5 21.5464H29.5ZM32 24.6166L32.0701 25.6142L33.0701 25.5439L33 24.5464L32.9299 23.5488L31.9299 23.6191L32 24.6166ZM33 24.5464V25.5464C35.7614 25.5464 38 23.3078 38 20.5464H37H36C36 22.2032 34.6569 23.5464 33 23.5464V24.5464ZM37 20.5464H38V9H37H36V20.5464H37ZM37 9H38C38 6.23858 35.7614 4 33 4V5V6C34.6569 6 36 7.34315 36 9H37ZM33 5V4H25.9578V5V6H33V5ZM25.9578 5V6C25.7849 6 25.675 5.94701 25.6709 5.94517C25.6514 5.93634 25.6564 5.93646 25.6912 5.95975C25.7602 6.00596 25.8675 6.08999 26.0124 6.21806C26.2981 6.47054 26.6482 6.82093 26.9982 7.18905C27.3447 7.55352 27.6765 7.91988 27.9227 8.19631C28.0455 8.33418 28.1463 8.44892 28.2161 8.52889C28.251 8.56886 28.2782 8.6001 28.2964 8.62115C28.3055 8.63167 28.3124 8.63964 28.3169 8.64489C28.3192 8.64751 28.3209 8.64944 28.3219 8.65068C28.3225 8.65129 28.3228 8.65173 28.3231 8.65199C28.3232 8.65212 28.3232 8.6522 28.3233 8.65224C28.3233 8.65226 28.3233 8.65226 28.3233 8.65227C28.3233 8.65225 28.3233 8.65223 29.0813 8C29.8393 7.34777 29.8393 7.34772 29.8392 7.34766C29.8392 7.34763 29.8391 7.34755 29.8391 7.34748C29.8389 7.34734 29.8388 7.34715 29.8386 7.34692C29.8382 7.34645 29.8376 7.3458 29.8369 7.34498C29.8355 7.34332 29.8334 7.34096 29.8308 7.3379C29.8255 7.33179 29.8179 7.32292 29.8079 7.31147C29.7881 7.28858 29.7592 7.25536 29.7225 7.2133C29.6491 7.1292 29.544 7.00957 29.4163 6.86619C29.1615 6.58012 28.8141 6.19648 28.4476 5.81095C28.0845 5.42907 27.6876 5.02946 27.3368 4.71944C27.1635 4.56626 26.9802 4.41592 26.8042 4.29807C26.7165 4.23932 26.6106 4.17499 26.4936 4.12222C26.3922 4.07642 26.1986 4 25.9578 4V5ZM10.0499 8C10.8836 8.55223 10.8835 8.55231 10.8835 8.55238C10.8835 8.55238 10.8834 8.55244 10.8834 8.55246C10.8834 8.55249 10.8834 8.55247 10.8834 8.55242C10.8835 8.5523 10.8837 8.55201 10.884 8.55153C10.8846 8.55059 10.8857 8.54895 10.8873 8.54663C10.8904 8.54198 10.8953 8.53462 10.902 8.52473C10.9153 8.50493 10.9355 8.47503 10.962 8.43647C11.0149 8.35929 11.0923 8.2478 11.1885 8.11352C11.3818 7.84361 11.6463 7.4879 11.9363 7.13584C12.231 6.77818 12.5301 6.4512 12.7924 6.22242C12.9238 6.10783 13.0229 6.03839 13.0877 6.00219C13.165 5.95909 13.1273 6 13.0056 6V5V4C12.6419 4 12.3301 4.13466 12.1133 4.25562C11.8841 4.38348 11.669 4.54842 11.4779 4.71508C11.0952 5.0488 10.7159 5.47182 10.3927 5.86416C10.0649 6.2621 9.77205 6.65639 9.5625 6.94898C9.45724 7.09595 9.37187 7.21883 9.31231 7.30571C9.28251 7.34919 9.25912 7.38374 9.24286 7.40789C9.23473 7.41997 9.22838 7.42945 9.2239 7.43616C9.22166 7.43951 9.21989 7.44217 9.2186 7.44412C9.21795 7.44509 9.21743 7.44588 9.21702 7.44649C9.21682 7.4468 9.21665 7.44706 9.21651 7.44727C9.21643 7.44738 9.21635 7.4475 9.21632 7.44756C9.21624 7.44767 9.21617 7.44777 10.0499 8ZM13.0056 5V4H5V5V6H13.0056V5ZM5 5V4C2.23858 4 0 6.23857 0 9H1H2C2 7.34314 3.34314 6 5 6V5ZM1 9H0V20.5464H1H2V9H1ZM1 20.5464H0C0 23.3409 2.48145 25.5464 5 25.5464V24.5464V23.5464C3.51855 23.5464 2 22.1701 2 20.5464H1ZM5 24.5464L5.06414 25.5443L6.56414 25.4479L6.5 24.45L6.43586 23.452L4.93586 23.5484L5 24.5464ZM6.5 24.45C7.09049 25.257 7.09062 25.2569 7.09075 25.2568C7.09081 25.2568 7.09096 25.2567 7.09107 25.2566C7.09131 25.2564 7.09159 25.2562 7.0919 25.256C7.09254 25.2555 7.09334 25.2549 7.0943 25.2542C7.09622 25.2528 7.09878 25.2509 7.10197 25.2486C7.10833 25.2439 7.11719 25.2373 7.12836 25.2289C7.15069 25.2123 7.18231 25.1885 7.2218 25.1583C7.30068 25.0981 7.41146 25.012 7.54264 24.906C7.80309 24.6956 8.15272 24.3998 8.49523 24.0671C8.82956 23.7425 9.196 23.3456 9.45895 22.9327C9.67677 22.5907 10.038 21.9102 9.76109 21.1883L8.82741 21.5464L7.89373 21.9045C7.79663 21.6513 7.95682 21.5682 7.77197 21.8584C7.63224 22.0779 7.39435 22.3483 7.10188 22.6324C6.81759 22.9084 6.51794 23.1627 6.28582 23.3502C6.17071 23.4432 6.07437 23.5181 6.00771 23.569C5.97443 23.5944 5.94867 23.6138 5.93182 23.6264C5.92339 23.6326 5.91721 23.6372 5.91343 23.64C5.91154 23.6414 5.91025 23.6424 5.90959 23.6428C5.90926 23.6431 5.90909 23.6432 5.90907 23.6432C5.90907 23.6432 5.9091 23.6432 5.90917 23.6432C5.90921 23.6431 5.90929 23.6431 5.90931 23.6431C5.9094 23.643 5.90951 23.6429 6.5 24.45ZM8.82741 21.5464V20.5464H5V21.5464V22.5464H8.82741V21.5464ZM5 21.5464V20.5464H5H4H3C3 21.6509 3.89543 22.5464 5 22.5464V21.5464ZM4 20.5464H5V9H4H3V20.5464H4ZM4 9H5V9V8V7C3.89543 7 3 7.89543 3 9H4ZM5 8V9H10.0499V8V7H5V8ZM19 7.0114L19.0661 6.01359C17.5113 5.91057 15.3352 6.37372 13.6199 8.22947C11.9041 10.0857 10.7924 13.1796 11.0326 18.0493L12.0314 18L13.0302 17.9507C12.8057 13.4016 13.8621 10.914 15.0886 9.58702C16.3156 8.25956 17.8562 7.93781 18.9339 8.00921L19 7.0114Z" fill="#404040"/>
</svg>
