<svg width="48" height="48" viewBox="0 0 48 48" fill="none" xmlns="http://www.w3.org/2000/svg">
<path d="M9.0002 4.80005C8.0027 4.80005 7.2002 5.60255 7.2002 6.60005C7.2002 7.59755 8.0027 8.40005 9.0002 8.40005H9.6002V19.5675C9.4577 19.6725 9.3152 19.785 9.1802 19.8975C8.0177 20.8875 7.2002 22.2675 7.2002 23.9925C7.2002 27.51 8.2727 30.3 9.9752 32.43C11.0402 33.7575 12.3077 34.7776 13.6127 35.5651L12.1202 40.0426C11.8727 40.7776 12.0002 41.5801 12.4502 42.2026C12.9002 42.8251 13.6277 43.2001 14.4002 43.2001H33.6002C34.3727 43.2001 35.0927 42.8326 35.5502 42.2026C36.0077 41.5726 36.1277 40.7701 35.8802 40.0426L34.3952 35.58C35.7002 34.7925 36.9677 33.7726 38.0327 32.4451C39.7352 30.3151 40.8077 27.5326 40.8077 24.0075C40.8077 22.275 39.9902 20.8951 38.8277 19.9125C38.6927 19.8 38.5502 19.6875 38.4077 19.5826V8.41505H39.0077C40.0052 8.41505 40.8077 7.61255 40.8077 6.61505C40.8077 5.61755 39.9977 4.80005 39.0002 4.80005H9.0002ZM14.4002 10.8C14.4002 10.14 14.9402 9.60005 15.6002 9.60005H18.0002C18.6602 9.60005 19.2002 10.14 19.2002 10.8C19.2002 11.46 18.6602 12 18.0002 12H15.6002C14.9402 12 14.4002 11.46 14.4002 10.8ZM24.0002 26.4C17.3702 26.4 12.0002 25.3275 12.0002 24C12.0002 22.6726 17.3702 21.6 24.0002 21.6C30.6302 21.6 36.0002 22.6726 36.0002 24C36.0002 25.3275 30.6302 26.4 24.0002 26.4Z" fill="#271332"/>
</svg>
