<?xml version="1.0" encoding="UTF-8"?>
<!--
Soliguide: Useful information for those who need it

SPDX-FileCopyrightText: © 2025 Solinum

SPDX-License-Identifier: AGPL-3.0-only

This program is free software: you can redistribute it and/or modify
it under the terms of the GNU Affero General Public License as published
by the Free Software Foundation, either version 3 of the License, or
(at your option) any later version.

This program is distributed in the hope that it will be useful,
but WITHOUT ANY WARRANTY; without even the implied warranty of
MERCHANTABILITY or FITNESS FOR A PARTICULAR PURPOSE.  See the
GNU Affero General Public License for more details.

You should have received a copy of the GNU Affero General Public License
along with this program.  If not, see <https://www.gnu.org/licenses/>.
-->
<svg version="1.1" width="667" height="667" xmlns="http://www.w3.org/2000/svg"><path d="M394.169 58.050 C 389.835 59.001,385.245 63.464,383.995 67.943 C 383.364 70.205,383.008 114.459,383.018 189.500 L 383.033 307.500 245.266 308.000 C 117.859 308.462,107.320 308.627,105.106 310.195 C 100.346 313.565,99.013 316.912,99.010 325.500 C 99.007 334.649,100.768 338.668,106.241 342.005 C 109.456 343.966,111.599 343.993,264.750 343.996 L 420.000 344.000 420.000 207.212 L 420.000 70.424 417.750 66.020 C 414.544 59.746,411.656 57.987,403.964 57.624 C 400.409 57.456,396.001 57.648,394.169 58.050 M433.052 96.757 C 431.293 98.181,430.777 99.932,430.325 106.007 C 429.621 115.479,431.068 121.254,434.542 122.837 C 438.148 124.480,562.820 124.495,566.424 122.853 C 570.026 121.211,571.367 116.190,570.721 106.764 C 569.828 93.732,577.349 95.000,500.956 95.000 C 439.745 95.000,435.072 95.121,433.052 96.757 M434.251 132.537 C 433.045 133.382,431.586 135.824,431.010 137.965 C 429.651 143.009,429.666 323.325,431.025 328.143 C 432.879 334.712,433.931 335.000,456.111 335.000 L 476.000 335.000 476.000 368.500 L 476.000 402.000 439.000 402.000 C 409.963 402.000,402.000 401.730,402.000 400.743 C 402.000 400.052,402.453 397.915,403.007 395.993 C 405.946 385.793,408.157 370.508,408.432 358.500 L 408.500 355.500 260.597 355.247 L 112.695 354.993 113.364 366.247 C 116.449 418.129,148.582 466.409,195.438 489.567 L 203.000 493.304 203.000 539.652 L 203.000 586.000 260.500 586.000 L 318.000 586.000 318.012 539.750 L 318.025 493.500 327.720 488.500 C 333.052 485.750,341.231 480.800,345.895 477.500 C 361.242 466.642,379.225 447.068,387.691 432.007 L 390.457 427.088 439.144 426.794 L 487.830 426.500 492.165 423.487 C 494.698 421.726,497.435 418.624,498.750 416.025 C 500.967 411.642,501.000 411.010,501.000 373.288 L 501.000 335.000 523.500 335.000 C 538.188 335.000,546.000 334.644,546.000 333.976 C 546.000 332.680,552.925 276.368,553.498 273.000 C 553.732 271.625,555.521 257.675,557.474 242.000 C 559.427 226.325,561.228 212.123,561.477 210.441 C 561.725 208.758,563.076 197.958,564.478 186.441 C 565.880 174.923,567.696 160.942,568.514 155.372 C 570.782 139.914,570.559 135.585,567.365 133.073 C 564.762 131.025,563.965 131.000,500.588 131.000 C 444.511 131.000,436.169 131.193,434.251 132.537 " stroke="none" fill="black" fill-rule="evenodd"/></svg>