<?xml version="1.0" encoding="UTF-8"?>
<!--
Soliguide: Useful information for those who need it

SPDX-FileCopyrightText: © 2025 Solinum

SPDX-License-Identifier: AGPL-3.0-only

This program is free software: you can redistribute it and/or modify
it under the terms of the GNU Affero General Public License as published
by the Free Software Foundation, either version 3 of the License, or
(at your option) any later version.

This program is distributed in the hope that it will be useful,
but WITHOUT ANY WARRANTY; without even the implied warranty of
MERCHANTABILITY or FITNESS FOR A PARTICULAR PURPOSE.  See the
GNU Affero General Public License for more details.

You should have received a copy of the GNU Affero General Public License
along with this program.  If not, see <https://www.gnu.org/licenses/>.
-->
<svg width="48" height="48" viewBox="0 0 48 48" fill="none" xmlns="http://www.w3.org/2000/svg">
<path d="M11.5 29C11.5 33.3043 15.264 40 24 40C32.736 40 35.98 35.6957 36.5 29" stroke="#404040" stroke-width="3"/>
<path d="M24 22.8354C27.6686 22.8354 30.9157 23.6343 33.1914 24.8521C35.5304 26.1038 36.5 27.5798 36.5 28.8276C36.4999 30.0754 35.5303 31.5506 33.1914 32.8022C30.9157 34.0201 27.6688 34.8198 24 34.8198C20.3312 34.8198 17.0843 34.0201 14.8086 32.8022C12.4697 31.5506 11.5001 30.0754 11.5 28.8276C11.5 27.5798 12.4696 26.1038 14.8086 24.8521C17.0843 23.6343 20.3314 22.8354 24 22.8354Z" stroke="#404040" stroke-width="3"/>
<path d="M24 26.6167C26.114 26.6167 27.9818 26.9622 29.2842 27.4849C29.938 27.7473 30.4001 28.0352 30.6826 28.3032C30.9628 28.5691 31 28.7466 31 28.8276C31 28.9087 30.9628 29.0862 30.6826 29.3521C30.4001 29.62 29.9379 29.908 29.2842 30.1704C27.9818 30.6931 26.114 31.0386 24 31.0386C21.886 31.0386 20.0182 30.6931 18.7158 30.1704C18.0621 29.908 17.5999 29.62 17.3174 29.3521C17.0372 29.0862 17 28.9087 17 28.8276C17 28.7466 17.0372 28.5691 17.3174 28.3032C17.5999 28.0352 18.062 27.7473 18.7158 27.4849C20.0182 26.9622 21.886 26.6167 24 26.6167Z" stroke="#404040" stroke-width="2"/>
<path d="M14.5591 24.2643C11.0024 17.5095 13.3455 4 23.5071 4C33.8662 4 37.423 15.0971 33.3583 24.7467M17.0995 39.2212C16.4221 40.8295 15.9817 45 19.6399 45C23.2982 45 26.9225 45 28.2774 45C31.2011 45 32.1902 41.7562 30.5 38.8193" stroke="#404040" stroke-width="3"/>
<path fill-rule="evenodd" clip-rule="evenodd" d="M31.8529 25.5459H38L38.2061 25.541C40.2513 25.4372 41.8916 23.7973 41.9951 21.752L42 21.5459V10C42 7.79086 40.2091 6 38 6H30C31.8638 6 33.4299 7.27477 33.874 9H38C38.5523 9 39 9.44772 39 10V21.5459C39 22.0982 38.5523 22.5459 38 22.5459H33.9631C33.7848 23.8523 32.9757 24.958 31.8529 25.5459ZM16.1471 25.5459C15.0243 24.958 14.2152 23.8523 14.0369 22.5459H10C9.44772 22.5459 9 22.0982 9 21.5459V10C9 9.44772 9.44771 9 10 9H14.126C14.5701 7.27477 16.1362 6 18 6H10C7.79086 6 6 7.79086 6 10V21.5459L6.00488 21.752C6.10843 23.7973 7.74866 25.4372 9.79395 25.541L10 25.5459H16.1471Z" fill="#404040"/>
<path d="M24 8.0114C21.3674 7.83698 16.5667 9.5812 17.0314 19" stroke="#404040" stroke-width="2" stroke-linecap="round"/>
</svg>
