<?xml version="1.0" encoding="UTF-8"?>
<!--
Soliguide: Useful information for those who need it

SPDX-FileCopyrightText: © 2025 Solinum

SPDX-License-Identifier: AGPL-3.0-only

This program is free software: you can redistribute it and/or modify
it under the terms of the GNU Affero General Public License as published
by the Free Software Foundation, either version 3 of the License, or
(at your option) any later version.

This program is distributed in the hope that it will be useful,
but WITHOUT ANY WARRANTY; without even the implied warranty of
MERCHANTABILITY or FITNESS FOR A PARTICULAR PURPOSE.  See the
GNU Affero General Public License for more details.

You should have received a copy of the GNU Affero General Public License
along with this program.  If not, see <https://www.gnu.org/licenses/>.
-->
<svg width="36" height="46" viewBox="0 0 36 46" fill="none" xmlns="http://www.w3.org/2000/svg">
<path d="M18 39C27.5 39 32 35.5 31.5 27.5C24 35.5 8.99857 33.8502 5.50004 27.5C5.58595 31.808 9.36467 39 18 39Z" fill="#404040"/>
<path fill-rule="evenodd" clip-rule="evenodd" d="M18.5 20C26.5081 20 33 23.3579 33 27.5C33 31.6421 26.5081 35 18.5 35C10.4919 35 4 31.6421 4 27.5C4 23.3579 10.4919 20 18.5 20ZM18.5 24.6162C13.9242 24.6162 10.2144 26.054 10.2139 27.8271C10.2139 29.6005 13.9239 31.0381 18.5 31.0381C23.0761 31.0381 26.7861 29.6005 26.7861 27.8271C26.7856 26.054 23.0758 24.6162 18.5 24.6162Z" fill="#404040"/>
<path d="M12 5C9.79086 5 8 20 8 20C8 22.2091 9.79086 24 12 24H4C1.79086 24 0 22.2091 0 20V9C0 6.79086 1.79086 5 4 5H12Z" fill="#404040"/>
<path d="M32 5C34.2091 5 36 6.79086 36 9V20C36 22.2091 34.2091 24 32 24H24C26.2091 24 28 22.2091 28 20L27.9957 20.1873L24 5H32Z" fill="#404040"/>
<path d="M13.5 44H24.4998C26.7861 44 26 40.5 25.5 37C18.5 37 12 37 12 37C11.5 41 11.0002 44 13.5 44Z" fill="#404040"/>
<path fill-rule="evenodd" clip-rule="evenodd" d="M27.3581 23.7467C31.4228 14.0971 27.8663 3 17.5071 3C7.57702 3 5.03832 16.6947 8.25032 23.5861C8.28817 23.6673 13.1475 23.6681 17.9556 23.669C22.6613 23.6698 27.318 23.6706 27.3581 23.7467ZM18.168 6.02539L18.0664 6.01367L17.7676 6.00098C16.2411 5.97377 14.2282 6.4898 12.6201 8.22949C11.0115 9.96979 9.93335 12.7978 10.0029 17.1572L10.0322 18.0488L10.043 18.1514C10.1191 18.6524 10.564 19.0245 11.0811 18.999C11.5981 18.9733 12.0042 18.5589 12.0303 18.0527V17.9512L12.0029 17.1221C11.9385 13.0953 12.939 10.831 14.0889 9.58691C15.3157 8.25975 16.8559 7.93747 17.9336 8.00879C18.4847 8.0453 18.9615 7.62822 18.998 7.07715C19.0321 6.56073 18.6675 6.10987 18.168 6.02539Z" fill="#404040"/>
</svg>
