<?xml version="1.0" encoding="UTF-8"?>
<!--
Soliguide: Useful information for those who need it

SPDX-FileCopyrightText: © 2025 Solinum

SPDX-License-Identifier: AGPL-3.0-only

This program is free software: you can redistribute it and/or modify
it under the terms of the GNU Affero General Public License as published
by the Free Software Foundation, either version 3 of the License, or
(at your option) any later version.

This program is distributed in the hope that it will be useful,
but WITHOUT ANY WARRANTY; without even the implied warranty of
MERCHANTABILITY or FITNESS FOR A PARTICULAR PURPOSE.  See the
GNU Affero General Public License for more details.

You should have received a copy of the GNU Affero General Public License
along with this program.  If not, see <https://www.gnu.org/licenses/>.
-->
<svg width="48" height="48" viewBox="0 0 48 48" fill="none" xmlns="http://www.w3.org/2000/svg">
<path d="M24 40C33.5 40 38 36.5 37.5 28.5C30 36.5 14.9985 34.8502 11.5 28.5C11.5859 32.808 15.3646 40 24 40Z" fill="#404040"/>
<path d="M37.5 28.5L38.9971 28.4064C38.9597 27.8091 38.5709 27.2912 38.0078 27.0886C37.4447 26.886 36.815 27.0375 36.4057 27.4741L37.5 28.5ZM11.5 28.5L12.8138 27.7762L10.0003 28.5299L11.5 28.5ZM24 41.5C28.8753 41.5 32.8072 40.6132 35.4603 38.4023C38.1977 36.1212 39.2656 32.7024 38.9971 28.4064L36.0029 28.5936C36.2344 32.2976 35.3023 34.6288 33.5397 36.0977C31.6927 37.6368 28.6247 38.5 24 38.5V41.5ZM36.4057 27.4741C33.0318 31.0729 27.8786 32.5764 23.0598 32.3826C20.6643 32.2862 18.4225 31.7707 16.6081 30.9401C14.7814 30.1039 13.486 28.9963 12.8138 27.7762L10.1862 29.2238C11.2633 31.1788 13.155 32.6588 15.3594 33.6679C17.5761 34.6827 20.2094 35.2703 22.9391 35.3801C28.3706 35.5987 34.4682 33.9271 38.5943 29.5259L36.4057 27.4741ZM10.0003 28.5299C10.0505 31.0463 11.1539 34.2569 13.4128 36.8506C15.7118 39.4905 19.218 41.5 24 41.5V38.5C20.1466 38.5 17.4458 36.9136 15.6751 34.8804C13.8643 32.8011 13.0354 30.2617 12.9997 28.4701L10.0003 28.5299Z" fill="#404040"/>
<mask id="path-3-inside-1_395_1346" fill="white">
<path fill-rule="evenodd" clip-rule="evenodd" d="M24.5 36C32.5081 36 39 32.6421 39 28.5C39 24.3579 32.5081 21 24.5 21C16.4919 21 10 24.3579 10 28.5C10 32.6421 16.4919 36 24.5 36ZM24.5 32.0384C29.0761 32.0384 32.7857 30.6008 32.7857 28.8275C32.7857 27.0542 29.0761 25.6166 24.5 25.6166C19.9239 25.6166 16.2143 27.0542 16.2143 28.8275C16.2143 30.6008 19.9239 32.0384 24.5 32.0384Z"/>
</mask>
<path fill-rule="evenodd" clip-rule="evenodd" d="M24.5 36C32.5081 36 39 32.6421 39 28.5C39 24.3579 32.5081 21 24.5 21C16.4919 21 10 24.3579 10 28.5C10 32.6421 16.4919 36 24.5 36ZM24.5 32.0384C29.0761 32.0384 32.7857 30.6008 32.7857 28.8275C32.7857 27.0542 29.0761 25.6166 24.5 25.6166C19.9239 25.6166 16.2143 27.0542 16.2143 28.8275C16.2143 30.6008 19.9239 32.0384 24.5 32.0384Z" fill="#404040"/>
<path d="M39 28.5H36C36 28.8759 35.6434 29.9652 33.3748 31.1386C31.2579 32.2336 28.1249 33 24.5 33V36V39C28.8832 39 33.0002 38.0875 36.1313 36.468C39.1106 34.9269 42 32.2662 42 28.5H39ZM24.5 21V24C28.1249 24 31.2579 24.7664 33.3748 25.8614C35.6434 27.0348 36 28.1241 36 28.5H39H42C42 24.7338 39.1106 22.0731 36.1313 20.532C33.0002 18.9125 28.8832 18 24.5 18V21ZM10 28.5H13C13 28.1241 13.3566 27.0348 15.6252 25.8614C17.7421 24.7664 20.8751 24 24.5 24V21V18C20.1168 18 15.9998 18.9125 12.8687 20.532C9.88936 22.0731 7 24.7338 7 28.5H10ZM24.5 36V33C20.8751 33 17.7421 32.2336 15.6252 31.1386C13.3566 29.9652 13 28.8759 13 28.5H10H7C7 32.2662 9.88936 34.9269 12.8687 36.468C15.9998 38.0875 20.1168 39 24.5 39V36ZM32.7857 28.8275H29.7857C29.7857 28.1436 30.1551 27.8221 30.108 27.8653C30.0588 27.9104 29.8215 28.0888 29.2749 28.3006C28.201 28.7168 26.5138 29.0384 24.5 29.0384V32.0384V35.0384C27.0622 35.0384 29.5179 34.6412 31.4429 33.8952C32.3957 33.526 33.3718 33.0125 34.1612 32.2893C34.9526 31.5642 35.7857 30.3981 35.7857 28.8275H32.7857ZM24.5 25.6166V28.6166C26.5138 28.6166 28.201 28.9382 29.2749 29.3544C29.8215 29.5662 30.0588 29.7446 30.108 29.7897C30.1551 29.8329 29.7857 29.5114 29.7857 28.8275H32.7857H35.7857C35.7857 27.257 34.9526 26.0908 34.1612 25.3657C33.3718 24.6425 32.3957 24.129 31.4429 23.7598C29.5179 23.0138 27.0622 22.6166 24.5 22.6166V25.6166ZM16.2143 28.8275H19.2143C19.2143 29.5114 18.8449 29.8329 18.892 29.7897C18.9412 29.7446 19.1785 29.5662 19.7251 29.3544C20.799 28.9382 22.4862 28.6166 24.5 28.6166V25.6166V22.6166C21.9378 22.6166 19.4821 23.0138 17.5571 23.7598C16.6043 24.129 15.6282 24.6425 14.8388 25.3657C14.0474 26.0908 13.2143 27.257 13.2143 28.8275H16.2143ZM24.5 32.0384V29.0384C22.4862 29.0384 20.799 28.7168 19.7251 28.3006C19.1785 28.0888 18.9412 27.9104 18.892 27.8653C18.8449 27.8221 19.2143 28.1436 19.2143 28.8275H16.2143H13.2143C13.2143 30.3981 14.0474 31.5642 14.8388 32.2893C15.6282 33.0125 16.6043 33.526 17.5571 33.8952C19.4821 34.6412 21.9378 35.0384 24.5 35.0384V32.0384Z" fill="#404040" mask="url(#path-3-inside-1_395_1346)"/>
<path fill-rule="evenodd" clip-rule="evenodd" d="M10 6C7.79086 6 6 7.79086 6 10V21C6 23.2091 7.79086 25 10 25H18C15.7909 25 14 23.2091 14 21V10C14 7.79086 15.7909 6 18 6H10ZM30 6C32.2091 6 34 7.79086 34 10V21C34 23.2091 32.2091 25 30 25H38C40.2091 25 42 23.2091 42 21V10C42 7.79086 40.2091 6 38 6H30Z" fill="#404040"/>
<path d="M20 45H30.5C33 45 32 43 31.5 39.5C26 39.5 17.5 39.5 17.5 39.5C16.7776 43.5633 16.5373 45 20 45Z" fill="#404040"/>
<path d="M20 45C23.6582 45 28 45 30.5 45M20 45C16.5373 45 16.7776 43.5633 17.5 39.5C17.5 39.5 26 39.5 31.5 39.5C32 43 33 45 30.5 45M20 45H30.5M33.5 24C37.5647 14.3503 33.8664 4 23.5073 4C13.5772 4 11.288 17.1086 14.5 24C14.5749 24.1607 33.5 24 33.5 24Z" stroke="#404040" stroke-width="3"/>
<path fill-rule="evenodd" clip-rule="evenodd" d="M33.358 24.7467C37.4227 15.0971 33.866 4 23.5069 4C13.5768 4 11.0383 17.6947 14.2503 24.5861C14.2881 24.6673 19.1474 24.6681 23.9556 24.669C28.6613 24.6698 33.318 24.6706 33.358 24.7467ZM24.998 8.07715C25.0343 7.52633 24.6172 7.05033 24.0664 7.01367C22.5116 6.91066 20.3354 7.37383 18.6201 9.22949C16.9043 11.0857 15.7921 14.1794 16.0322 19.0488C16.0594 19.6004 16.5294 20.0262 17.081 19.999C17.6323 19.9716 18.0572 19.5025 18.0302 18.9512C17.8058 14.4021 18.8623 11.9139 20.0888 10.5869C21.3157 9.25975 22.8559 8.93747 23.9336 9.00879C24.4846 9.0453 24.9615 8.62822 24.998 8.07715Z" fill="#404040"/>
</svg>
