<svg width="48" height="48" viewBox="0 0 48 48" fill="none" xmlns="http://www.w3.org/2000/svg">
<path d="M7.2002 6.60005C7.2002 5.60255 8.0027 4.80005 9.0002 4.80005H39.0002C39.9977 4.80005 40.8002 5.60255 40.8002 6.60005C40.8002 7.59755 39.9977 8.40005 39.0002 8.40005H38.4002V20.3326L38.4302 20.3625C39.4877 21.255 40.2002 22.4851 40.2002 24C40.2002 29.4525 37.6952 33.015 34.3202 35.1225C34.1927 35.205 34.0577 35.2801 33.9302 35.3626L35.6027 38.4151C35.8652 38.8876 36.0002 39.4276 36.0002 39.9676C36.0002 41.7526 34.5527 43.2001 32.7677 43.2001H15.2327C13.4477 43.2001 12.0002 41.7526 12.0002 39.9676C12.0002 39.4276 12.1352 38.8876 12.3977 38.4151L14.0702 35.3626C13.9352 35.2875 13.8077 35.205 13.6802 35.1225C10.3052 33.015 7.8002 29.4525 7.8002 24C7.8002 22.4776 8.5127 21.255 9.57019 20.3625L9.6002 20.3326V8.40005H9.0002C8.0027 8.40005 7.2002 7.59755 7.2002 6.60005ZM12.7652 29.31C13.5002 30.4875 14.4827 31.3801 15.5852 32.0776C18.0752 33.6301 21.3077 34.2001 24.0002 34.2001C26.6927 34.2001 29.9252 33.6301 32.4152 32.0776C33.5177 31.3876 34.5002 30.4875 35.2352 29.31C35.0552 29.37 34.8677 29.4226 34.6802 29.4825C31.8302 30.3001 28.0277 30.6 24.0002 30.6C19.9727 30.6 16.1702 30.3001 13.3202 29.4825C13.1327 29.43 12.9527 29.37 12.7652 29.31ZM17.3777 36.8101L15.8477 39.6001H32.1452L30.6152 36.8101C28.3277 37.5375 25.9802 37.8 24.0002 37.8C22.0202 37.8 19.6727 37.5375 17.3777 36.8101ZM36.6002 24C36.6002 23.7225 36.5102 23.445 36.1052 23.1C35.6477 22.7176 34.8677 22.32 33.6902 21.975C31.3277 21.2925 27.9302 20.9925 24.0077 20.9925C20.0852 20.9925 16.6802 21.2925 14.3252 21.975C13.1402 22.3125 12.3602 22.71 11.9027 23.1C11.4977 23.445 11.4077 23.715 11.4077 24C11.4077 24.285 11.4977 24.555 11.9027 24.9C12.3602 25.2825 13.1402 25.68 14.3252 26.025C16.6877 26.7076 20.0852 27.0075 24.0077 27.0075C27.9302 27.0075 31.3352 26.7076 33.6902 26.025C34.8752 25.6875 35.6552 25.2901 36.1052 24.9C36.5102 24.555 36.6002 24.285 36.6002 24ZM34.8002 8.40005H13.2002V18.555L13.3202 18.5175C16.1702 17.7 19.9727 17.4 24.0002 17.4C28.0277 17.4 31.8302 17.7 34.6802 18.5175L34.8002 18.555V8.40005ZM16.8002 10.8H20.4002C21.0602 10.8 21.6002 11.34 21.6002 12C21.6002 12.66 21.0602 13.2 20.4002 13.2H16.8002C16.1402 13.2 15.6002 12.66 15.6002 12C15.6002 11.34 16.1402 10.8 16.8002 10.8Z" fill="#271332"/>
</svg>
