<svg width="48" height="48" viewBox="0 0 48 48" fill="none" xmlns="http://www.w3.org/2000/svg">
<path d="M14.4002 4.7998C10.4252 4.7998 7.2002 8.0248 7.2002 11.9998V33.5998C7.2002 35.8348 8.7302 37.7173 10.8002 38.2498V40.7998C10.8002 42.1273 11.8727 43.1998 13.2002 43.1998H14.4002C15.7277 43.1998 16.8002 42.1273 16.8002 40.7998V38.3998H31.2002V40.7998C31.2002 42.1273 32.2727 43.1998 33.6002 43.1998H34.8002C36.1277 43.1998 37.2002 42.1273 37.2002 40.7998V38.2498C39.2702 37.7173 40.8002 35.8348 40.8002 33.5998V11.9998C40.8002 8.0248 37.5752 4.7998 33.6002 4.7998H14.4002ZM12.0002 17.9998C12.0002 16.6723 13.0727 15.5998 14.4002 15.5998H22.2002V23.9998H14.4002C13.0727 23.9998 12.0002 22.9273 12.0002 21.5998V17.9998ZM25.8002 23.9998V15.5998H33.6002C34.9277 15.5998 36.0002 16.6723 36.0002 17.9998V21.5998C36.0002 22.9273 34.9277 23.9998 33.6002 23.9998H25.8002ZM14.4002 28.7998C15.7277 28.7998 16.8002 29.8723 16.8002 31.1998C16.8002 32.5273 15.7277 33.5998 14.4002 33.5998C13.0727 33.5998 12.0002 32.5273 12.0002 31.1998C12.0002 29.8723 13.0727 28.7998 14.4002 28.7998ZM33.6002 28.7998C34.9277 28.7998 36.0002 29.8723 36.0002 31.1998C36.0002 32.5273 34.9277 33.5998 33.6002 33.5998C32.2727 33.5998 31.2002 32.5273 31.2002 31.1998C31.2002 29.8723 32.2727 28.7998 33.6002 28.7998ZM18.6002 10.1998C18.6002 9.2023 19.4027 8.3998 20.4002 8.3998H27.6002C28.5977 8.3998 29.4002 9.2023 29.4002 10.1998C29.4002 11.1973 28.5977 11.9998 27.6002 11.9998H20.4002C19.4027 11.9998 18.6002 11.1973 18.6002 10.1998Z" fill="#271332"/>
</svg>
