<?xml version="1.0" encoding="UTF-8"?>
<!--
Soliguide: Useful information for those who need it

SPDX-FileCopyrightText: © 2025 Solinum

SPDX-License-Identifier: AGPL-3.0-only

This program is free software: you can redistribute it and/or modify
it under the terms of the GNU Affero General Public License as published
by the Free Software Foundation, either version 3 of the License, or
(at your option) any later version.

This program is distributed in the hope that it will be useful,
but WITHOUT ANY WARRANTY; without even the implied warranty of
MERCHANTABILITY or FITNESS FOR A PARTICULAR PURPOSE.  See the
GNU Affero General Public License for more details.

You should have received a copy of the GNU Affero General Public License
along with this program.  If not, see <https://www.gnu.org/licenses/>.
-->
<svg version="1.1" width="667" height="667" xmlns="http://www.w3.org/2000/svg"><path d="M422.814 54.143 C 383.382 59.478,352.811 88.024,344.450 127.315 C 342.534 136.322,342.601 154.149,344.588 163.792 C 349.101 185.694,362.707 206.787,380.572 219.575 C 388.645 225.354,401.657 231.482,411.500 234.141 C 423.415 237.359,446.373 237.406,457.316 234.235 C 483.028 226.784,502.573 211.746,514.810 190.000 C 526.801 168.690,529.544 140.239,521.865 116.820 C 512.077 86.966,487.656 64.125,457.289 56.421 C 446.755 53.749,432.628 52.815,422.814 54.143 M162.500 123.080 C 159.200 123.572,153.350 124.923,149.500 126.083 C 115.754 136.246,91.607 163.403,84.932 198.698 C 83.367 206.978,84.261 228.608,86.512 236.885 C 93.682 263.255,110.585 284.075,134.500 295.994 C 149.352 303.395,158.268 305.402,176.000 305.335 C 193.071 305.270,200.960 303.532,215.354 296.666 C 261.140 274.827,280.416 219.272,257.975 173.829 C 246.463 150.516,227.295 134.055,203.000 126.618 C 188.984 122.328,175.467 121.147,162.500 123.080 M412.500 252.663 C 393.591 255.604,378.599 264.772,366.077 281.051 C 362.460 285.754,351.680 298.457,342.123 309.280 C 326.870 326.552,324.304 329.033,321.123 329.582 C 306.166 332.160,281.694 338.857,264.356 345.117 L 253.212 349.141 248.356 343.931 C 239.465 334.391,229.781 328.306,216.500 323.912 C 209.839 321.708,207.928 321.584,177.000 321.341 C 147.514 321.110,143.804 321.267,137.000 323.035 C 124.780 326.209,114.214 332.014,105.175 340.518 L 97.216 348.004 84.858 344.620 C 70.753 340.758,42.606 334.319,35.667 333.368 L 31.000 332.728 31.018 346.114 C 31.028 353.476,31.452 373.225,31.960 390.000 C 32.468 406.775,33.195 437.600,33.576 458.500 C 33.956 479.400,34.391 499.200,34.542 502.500 C 34.693 505.800,34.858 516.234,34.908 525.686 L 35.000 542.872 44.750 542.611 C 90.721 541.376,143.594 558.283,177.785 585.150 L 184.070 590.088 188.541 585.617 C 201.901 572.257,229.805 559.396,260.213 552.583 C 280.340 548.073,305.851 545.010,323.337 545.003 L 332.174 545.000 331.455 475.481 C 330.805 412.509,330.885 406.019,332.308 406.565 C 333.448 407.002,336.643 403.682,343.940 394.478 L 354.000 381.787 354.000 434.894 L 354.000 488.000 435.045 488.000 L 516.089 488.000 515.795 437.000 C 515.633 408.949,515.756 385.999,516.068 386.000 C 516.381 386.000,519.755 390.613,523.566 396.250 C 556.026 444.269,573.679 469.942,575.886 472.342 C 580.298 477.138,585.713 479.360,593.000 479.364 C 600.205 479.367,603.361 478.108,611.659 471.920 C 622.304 463.982,624.974 450.911,618.182 439.986 C 616.538 437.341,606.689 423.550,596.296 409.338 C 547.561 342.702,509.955 290.915,506.007 285.000 C 495.470 269.215,483.921 260.197,467.500 254.933 C 461.228 252.923,458.159 252.664,438.000 252.443 C 425.625 252.307,414.150 252.406,412.500 252.663 M322.363 379.750 C 322.708 402.712,323.276 447.430,323.625 479.122 L 324.261 536.743 313.380 537.431 C 262.938 540.619,222.403 551.847,195.295 570.138 C 191.332 572.812,187.845 575.000,187.545 575.000 C 187.245 575.000,187.000 535.921,187.000 488.159 L 187.000 401.317 193.250 395.367 C 214.125 375.493,242.575 360.178,282.000 347.591 C 296.142 343.076,315.368 338.210,319.618 338.070 C 321.734 338.000,321.738 338.057,322.363 379.750 M57.500 346.026 C 110.114 357.543,156.066 376.724,175.383 395.233 L 180.000 399.657 180.000 487.829 C 180.000 536.323,179.791 576.000,179.535 576.000 C 179.279 576.000,174.569 573.052,169.069 569.448 C 137.691 548.889,94.207 535.739,54.641 534.843 C 48.194 534.697,43.630 534.171,43.406 533.549 C 43.085 532.657,39.000 359.113,39.000 346.381 C 39.000 342.317,39.181 342.002,41.250 342.462 C 42.487 342.737,49.800 344.341,57.500 346.026 " stroke="none" fill="black" fill-rule="evenodd"/></svg>