<?xml version="1.0" encoding="UTF-8"?>
<!--
Soliguide: Useful information for those who need it

SPDX-FileCopyrightText: © 2025 Solinum

SPDX-License-Identifier: AGPL-3.0-only

This program is free software: you can redistribute it and/or modify
it under the terms of the GNU Affero General Public License as published
by the Free Software Foundation, either version 3 of the License, or
(at your option) any later version.

This program is distributed in the hope that it will be useful,
but WITHOUT ANY WARRANTY; without even the implied warranty of
MERCHANTABILITY or FITNESS FOR A PARTICULAR PURPOSE.  See the
GNU Affero General Public License for more details.

You should have received a copy of the GNU Affero General Public License
along with this program.  If not, see <https://www.gnu.org/licenses/>.
-->
<svg width="48" height="48" viewBox="0 0 48 48" fill="none" xmlns="http://www.w3.org/2000/svg">
<path d="M38.4 17.12L29.96 12.52C29.36 12.2 28.64 12.2 28.04 12.52L19.6 17.12C18.9 17.5 18.9 18.5 19.6 18.88L28.04 23.48C28.64 23.8 29.36 23.8 29.96 23.48L38.4 18.88C39.08 18.5 39.08 17.5 38.4 17.12ZM42 6H6C3.8 6 2 7.8 2 10V14C2 15.1 2.9 16 4 16C5.1 16 6 15.1 6 14V12C6 10.9 6.9 10 8 10H40C41.1 10 42 10.9 42 12V36C42 37.1 41.1 38 40 38H30C28.9 38 28 38.9 28 40C28 41.1 28.9 42 30 42H42C44.2 42 46 40.2 46 38V10C46 7.8 44.2 6 42 6ZM28.04 25.48L22 22.18V25C22 25.74 22.4 26.4 23.04 26.76L28.04 29.48C28.64 29.8 29.36 29.8 29.96 29.48L34.96 26.76C35.6 26.4 36 25.72 36 25V22.18L29.96 25.48C29.36 25.8 28.64 25.8 28.04 25.48ZM2 36V42H8C8 38.68 5.32 36 2 36ZM4.28 28.18C3.08 27.98 2 28.96 2 30.18C2 31.16 2.72 31.98 3.7 32.14C7.86 32.86 11.14 36.14 11.86 40.3C12.02 41.28 12.84 42 13.82 42C15.04 42 16 40.92 15.82 39.72C14.86 33.8 10.18 29.14 4.28 28.18ZM4.2 20.1C3.02 20 2 20.92 2 22.1C2 23.12 2.76 23.98 3.76 24.08C12.3 24.9 19.1 31.7 19.92 40.24C20.02 41.24 20.88 41.98 21.9 41.98C23.1 41.98 24.02 40.94 23.9 39.76C22.84 29.38 14.58 21.14 4.2 20.1Z" fill="#404040"/>
</svg>
