<svg width="48" height="48" viewBox="0 0 48 48" fill="none" xmlns="http://www.w3.org/2000/svg">
<path d="M9.6001 7.20005C9.6001 5.87255 10.6726 4.80005 12.0001 4.80005H36.0001C37.3276 4.80005 38.4001 5.87255 38.4001 7.20005V9.60005C38.4001 10.9275 37.3276 12 36.0001 12H12.0001C10.6726 12 9.6001 10.9275 9.6001 9.60005V7.20005ZM12.0001 15.6H36.0001V38.4001C36.0001 41.0476 33.8476 43.2001 31.2001 43.2001H16.8001C14.1526 43.2001 12.0001 41.0476 12.0001 38.4001H17.4001C18.3976 38.4001 19.2001 37.5975 19.2001 36.6C19.2001 35.6026 18.3976 34.8001 17.4001 34.8001H12.0001V31.2001H17.4001C18.3976 31.2001 19.2001 30.3976 19.2001 29.4C19.2001 28.4025 18.3976 27.6 17.4001 27.6H12.0001V24H17.4001C18.3976 24 19.2001 23.1975 19.2001 22.2001C19.2001 21.2025 18.3976 20.4 17.4001 20.4H12.0001V15.6Z" fill="#271332"/>
</svg>
