<?xml version="1.0" encoding="UTF-8"?>
<!--
Soliguide: Useful information for those who need it

SPDX-FileCopyrightText: © 2025 Solinum

SPDX-License-Identifier: AGPL-3.0-only

This program is free software: you can redistribute it and/or modify
it under the terms of the GNU Affero General Public License as published
by the Free Software Foundation, either version 3 of the License, or
(at your option) any later version.

This program is distributed in the hope that it will be useful,
but WITHOUT ANY WARRANTY; without even the implied warranty of
MERCHANTABILITY or FITNESS FOR A PARTICULAR PURPOSE.  See the
GNU Affero General Public License for more details.

You should have received a copy of the GNU Affero General Public License
along with this program.  If not, see <https://www.gnu.org/licenses/>.
-->
<svg version="1.1" width="667" height="667" xmlns="http://www.w3.org/2000/svg"><path d="M545.459 120.279 L 475.581 187.651 470.933 185.687 C 464.111 182.805,460.031 183.890,453.098 190.427 L 447.500 195.706 443.000 193.611 C 439.506 191.984,436.599 191.526,430.000 191.561 C 413.997 191.647,424.271 182.553,300.250 306.392 L 190.000 416.479 171.502 398.002 L 153.004 379.524 139.498 393.002 L 125.993 406.479 151.739 432.239 L 177.484 457.999 155.004 480.496 L 132.523 502.994 120.497 490.997 L 108.472 479.001 94.994 492.506 L 81.515 506.012 123.751 548.249 L 165.988 590.485 179.494 577.006 L 192.999 563.528 181.003 551.503 L 169.006 539.477 191.504 516.996 L 214.001 494.516 239.997 520.497 L 265.993 546.479 279.499 533.001 L 293.004 519.524 274.300 500.800 L 255.597 482.077 364.841 372.558 C 466.498 270.647,474.298 262.587,477.136 256.524 C 481.040 248.180,481.426 237.586,478.138 229.047 L 476.038 223.593 479.444 220.785 C 484.662 216.485,487.000 212.009,487.000 206.323 C 487.000 203.527,486.363 200.540,485.532 199.441 C 484.724 198.374,484.049 197.149,484.032 196.720 C 484.008 196.127,569.268 106.810,612.871 61.752 C 617.892 56.563,618.282 55.854,616.885 54.456 C 615.487 53.058,608.541 59.460,545.459 120.279 M439.743 210.837 C 441.259 211.927,446.840 217.249,452.145 222.663 C 459.822 230.498,462.040 233.423,463.018 237.003 C 464.576 242.707,463.136 248.805,459.027 253.903 C 457.432 255.881,409.409 304.189,352.308 361.254 L 248.489 465.007 227.744 444.245 L 207.000 423.482 227.498 403.002 L 247.996 382.522 262.491 396.991 L 276.986 411.460 284.000 404.500 L 291.015 397.539 276.506 383.006 L 261.998 368.473 274.760 355.739 L 287.523 343.005 294.752 350.235 L 301.982 357.464 308.993 350.507 L 316.003 343.550 308.767 336.265 L 301.530 328.980 314.261 316.249 L 326.992 303.518 341.489 317.989 L 355.986 332.460 363.000 325.500 L 370.015 318.539 355.506 304.006 L 340.998 289.473 353.760 276.739 L 366.523 264.005 373.752 271.235 L 380.982 278.464 387.993 271.507 L 395.003 264.550 387.769 257.268 L 380.535 249.985 399.517 230.888 C 410.777 219.561,420.127 211.004,422.500 209.856 C 427.479 207.447,435.677 207.913,439.743 210.837 M183.510 506.984 L 162.004 528.490 152.760 519.246 L 143.515 510.002 164.994 488.506 L 186.473 467.010 195.745 476.244 L 205.017 485.477 183.510 506.984 " stroke="none" fill="black" fill-rule="evenodd"/></svg>