<?xml version="1.0" encoding="UTF-8"?>
<!--
Soliguide: Useful information for those who need it

SPDX-FileCopyrightText: © 2025 Solinum

SPDX-License-Identifier: AGPL-3.0-only

This program is free software: you can redistribute it and/or modify
it under the terms of the GNU Affero General Public License as published
by the Free Software Foundation, either version 3 of the License, or
(at your option) any later version.

This program is distributed in the hope that it will be useful,
but WITHOUT ANY WARRANTY; without even the implied warranty of
MERCHANTABILITY or FITNESS FOR A PARTICULAR PURPOSE.  See the
GNU Affero General Public License for more details.

You should have received a copy of the GNU Affero General Public License
along with this program.  If not, see <https://www.gnu.org/licenses/>.
-->
<svg width="48" height="48" viewBox="0 0 48 48" fill="none" xmlns="http://www.w3.org/2000/svg">
<path d="M23 10.5H17V7.5H18C19.1 7.5 20 6.6 20 5.5C20 4.4 19.1 3.5 18 3.5H12C10.9 3.5 10 4.4 10 5.5C10 6.6 10.9 7.5 12 7.5H13V10.5H7C5.9 10.5 5 11.4 5 12.5C5 13.6 5.9 14.5 7 14.5V29.5C7 31.7 8.8 33.5 11 33.5H13V41.5L17 44.5V33.5H19C21.2 33.5 23 31.7 23 29.5V14.5C24.1 14.5 25 13.6 25 12.5C25 11.4 24.1 10.5 23 10.5ZM19 17.5H15.5C14.68 17.5 14 18.18 14 19C14 19.82 14.68 20.5 15.5 20.5H19V23.5H15.5C14.68 23.5 14 24.18 14 25C14 25.82 14.68 26.5 15.5 26.5H19V29.5H11V14.5H19V17.5ZM40 20.5V19.5C41.1 19.5 42 18.6 42 17.5C42 16.4 41.1 15.5 40 15.5H30C28.9 15.5 28 16.4 28 17.5C28 18.6 28.9 19.5 30 19.5V20.5C30 21.5 27 22.82 27 26.5V39.5C27 41.7 28.8 43.5 31 43.5H39C41.2 43.5 43 41.7 43 39.5V26.5C43 22.82 40 21.5 40 20.5ZM34 20.5V19.5H36V20.5C36 23.7 39 24.5 39 26.5V27.5H31C31 27.08 31 26.72 31 26.5C31 24.5 34 23.7 34 20.5ZM39 30.5V33.5H31C31 32.48 31 31.46 31 30.5H39ZM31 39.5C31 39.5 31 38.24 31 36.5H39V39.5H31Z" fill="#404040"/>
</svg>
