<svg width="48" height="48" viewBox="0 0 48 48" fill="none" xmlns="http://www.w3.org/2000/svg">
<path d="M23.9998 9.60005C16.0498 9.60005 9.5998 16.05 9.5998 24C9.5998 31.95 16.0498 38.4001 23.9998 38.4001C27.0598 38.4001 29.8948 37.4476 32.2273 35.8201L34.9723 39.7575C31.8598 41.925 28.0723 43.2001 23.9998 43.2001C13.3948 43.2001 4.7998 34.605 4.7998 24C4.7998 13.395 13.3948 4.80005 23.9998 4.80005C34.6048 4.80005 43.1998 13.395 43.1998 24V31.2H43.7998C44.7973 31.2 45.5998 32.0025 45.5998 33C45.5998 33.9976 44.7973 34.8001 43.7998 34.8001H43.6273L42.9373 39.6301C43.7698 39.7876 44.3998 40.5226 44.3998 41.4001C44.3998 42.3976 43.5973 43.2001 42.5998 43.2001H38.9998C38.0023 43.2001 37.1998 42.3976 37.1998 41.4001C37.1998 40.5226 37.8298 39.7876 38.6623 39.6301L37.9723 34.8001H37.7998C36.8023 34.8001 35.9998 33.9976 35.9998 33C35.9998 32.0025 36.8023 31.2 37.7998 31.2H38.3998V24C38.3998 16.05 31.9498 9.60005 23.9998 9.60005ZM23.9998 30.75C27.7273 30.75 30.7498 27.7275 30.7498 24C30.7498 20.2725 27.7273 17.25 23.9998 17.25C20.2723 17.25 17.2498 20.2725 17.2498 24C17.2498 27.7275 20.2723 30.75 23.9998 30.75ZM23.9998 13.2C29.9623 13.2 34.7998 18.0375 34.7998 24C34.7998 29.9625 29.9623 34.8001 23.9998 34.8001C18.0373 34.8001 13.1998 29.9625 13.1998 24C13.1998 18.0375 18.0373 13.2 23.9998 13.2ZM20.3998 24C20.3998 22.0125 22.0123 20.4 23.9998 20.4C25.9873 20.4 27.5998 22.0125 27.5998 24C27.5998 25.9875 25.9873 27.6 23.9998 27.6C22.0123 27.6 20.3998 25.9875 20.3998 24Z" fill="#271332"/>
</svg>
