<svg width="48" height="48" viewBox="0 0 48 48" fill="none" xmlns="http://www.w3.org/2000/svg">
<path d="M10.8226 14.3999C13.2826 14.3999 15.3976 12.9224 16.3201 10.7999H31.7251C32.6476 12.9224 34.7626 14.3999 37.2226 14.3999C39.9076 14.3999 42.1801 12.6374 42.9451 10.1999H37.8226C36.8326 10.1999 36.0301 9.3974 36.0226 8.4074V8.3924C36.0301 7.4024 36.8326 6.5999 37.8226 6.5999H42.9451C42.1801 4.1624 39.9076 2.3999 37.2226 2.3999C34.7626 2.3999 32.6476 3.8774 31.7251 5.9999H16.3276C15.3976 3.8774 13.2826 2.3999 10.8226 2.3999C8.1376 2.3999 5.8651 4.1624 5.1001 6.5999H10.2226C11.2126 6.5999 12.0151 7.3949 12.0226 8.3849V8.4149C12.0151 9.4049 11.2126 10.1999 10.2226 10.1999H5.1001C5.8651 12.6374 8.1376 14.3999 10.8226 14.3999ZM17.6701 19.1999H30.3751C31.1626 19.1999 31.8601 19.7099 32.0926 20.4599L33.5701 25.1999H14.4676L15.9451 20.4599C16.1776 19.7099 16.8751 19.1999 17.6626 19.1999H17.6701ZM12.5176 19.3874L10.6351 25.4024C8.6626 25.9949 7.2226 27.8324 7.2226 29.9999V41.3999C7.2226 42.3974 8.0251 43.1999 9.0226 43.1999C10.0201 43.1999 10.8226 42.3974 10.8226 41.3999V39.5999H37.2226V41.3999C37.2226 42.3974 38.0251 43.1999 39.0226 43.1999C40.0201 43.1999 40.8226 42.3974 40.8226 41.3999V29.9999C40.8226 27.8324 39.3826 25.9949 37.4101 25.4024L35.5276 19.3874C34.8301 17.1374 32.7376 15.5999 30.3751 15.5999H17.6701C15.3076 15.5999 13.2226 17.1374 12.5176 19.3874ZM37.2226 33.5999V35.9999H10.8226V29.9999C10.8226 29.3399 11.3626 28.7999 12.0226 28.7999H36.0226C36.6826 28.7999 37.2226 29.3399 37.2226 29.9999V33.5999ZM14.4226 34.1999C15.4201 34.1999 16.2226 33.3974 16.2226 32.3999C16.2226 31.4024 15.4201 30.5999 14.4226 30.5999C13.4251 30.5999 12.6226 31.4024 12.6226 32.3999C12.6226 33.3974 13.4251 34.1999 14.4226 34.1999ZM35.4226 32.3999C35.4226 31.4024 34.6201 30.5999 33.6226 30.5999C32.6251 30.5999 31.8226 31.4024 31.8226 32.3999C31.8226 33.3974 32.6251 34.1999 33.6226 34.1999C34.6201 34.1999 35.4226 33.3974 35.4226 32.3999Z" fill="#271332"/>
</svg>
