<svg width="48" height="48" viewBox="0 0 48 48" fill="none" xmlns="http://www.w3.org/2000/svg">
<path d="M22.3874 11.7674C23.4599 14.9849 22.3649 18.2324 19.9424 19.0274C17.5199 19.8224 14.6849 17.8574 13.6124 14.6399C12.5399 11.4224 13.6349 8.17491 16.0574 7.37991C18.4799 6.58491 21.3149 8.54991 22.3874 11.7674ZM12.3299 19.6949C13.7474 22.1249 13.4024 24.9524 11.5649 26.0024C9.72738 27.0524 7.08738 25.9349 5.67738 23.5049C4.26738 21.0749 4.60488 18.2474 6.44238 17.1974C8.27988 16.1474 10.9199 17.2649 12.3299 19.6949ZM9.98988 34.8899C13.9199 24.2924 20.9024 21.5999 23.9999 21.5999C27.0974 21.5999 34.0799 24.2924 38.0099 34.8899C38.2799 35.6174 38.3999 36.3974 38.3999 37.1774V37.2974C38.3999 39.2324 36.8324 40.7999 34.8974 40.7999C34.0349 40.7999 33.1799 40.6949 32.3474 40.4849L25.7474 38.8349C24.5999 38.5499 23.3999 38.5499 22.2524 38.8349L15.6524 40.4849C14.8199 40.6949 13.9649 40.7999 13.1024 40.7999C11.1674 40.7999 9.59988 39.2324 9.59988 37.2974V37.1774C9.59988 36.3974 9.71988 35.6174 9.98988 34.8899ZM36.4349 26.0024C34.5974 24.9524 34.2524 22.1249 35.6699 19.6949C37.0874 17.2649 39.7199 16.1474 41.5574 17.1974C43.3949 18.2474 43.7399 21.0749 42.3224 23.5049C40.9049 25.9349 38.2724 27.0524 36.4349 26.0024ZM28.0574 19.0274C25.6349 18.2324 24.5399 14.9849 25.6124 11.7674C26.6849 8.54991 29.5199 6.58491 31.9424 7.37991C34.3649 8.17491 35.4599 11.4224 34.3874 14.6399C33.3149 17.8574 30.4799 19.8224 28.0574 19.0274Z" fill="#271332"/>
</svg>
