<?xml version="1.0" encoding="UTF-8"?>
<!--
Soliguide: Useful information for those who need it

SPDX-FileCopyrightText: © 2025 Solinum

SPDX-License-Identifier: AGPL-3.0-only

This program is free software: you can redistribute it and/or modify
it under the terms of the GNU Affero General Public License as published
by the Free Software Foundation, either version 3 of the License, or
(at your option) any later version.

This program is distributed in the hope that it will be useful,
but WITHOUT ANY WARRANTY; without even the implied warranty of
MERCHANTABILITY or FITNESS FOR A PARTICULAR PURPOSE.  See the
GNU Affero General Public License for more details.

You should have received a copy of the GNU Affero General Public License
along with this program.  If not, see <https://www.gnu.org/licenses/>.
-->
<svg width="48" height="48" viewBox="0 0 48 48" fill="none" xmlns="http://www.w3.org/2000/svg">
<path d="M9 22.9956C11.7614 22.9956 14 20.757 14 17.9956C14 15.2342 11.7614 12.9956 9 12.9956C6.23858 12.9956 4 15.2342 4 17.9956C4 20.757 6.23858 22.9956 9 22.9956Z" fill="#404040"/>
<path d="M18 14.9956C20.7614 14.9956 23 12.757 23 9.99561C23 7.23418 20.7614 4.99561 18 4.99561C15.2386 4.99561 13 7.23418 13 9.99561C13 12.757 15.2386 14.9956 18 14.9956Z" fill="#404040"/>
<path d="M30 14.9956C32.7614 14.9956 35 12.757 35 9.99561C35 7.23418 32.7614 4.99561 30 4.99561C27.2386 4.99561 25 7.23418 25 9.99561C25 12.757 27.2386 14.9956 30 14.9956Z" fill="#404040"/>
<path d="M39 22.9956C41.7614 22.9956 44 20.757 44 17.9956C44 15.2342 41.7614 12.9956 39 12.9956C36.2386 12.9956 34 15.2342 34 17.9956C34 20.757 36.2386 22.9956 39 22.9956Z" fill="#404040"/>
<path d="M34.68 28.7156C32.94 26.6756 31.48 24.9356 29.72 22.8956C28.8 21.8156 27.62 20.7356 26.22 20.2556C26 20.1756 25.78 20.1156 25.56 20.0756C25.06 19.9956 24.52 19.9956 24 19.9956C23.48 19.9956 22.94 19.9956 22.42 20.0956C22.2 20.1356 21.98 20.1956 21.76 20.2756C20.36 20.7556 19.2 21.8356 18.26 22.9156C16.52 24.9556 15.06 26.6956 13.3 28.7356C10.68 31.3556 7.46 34.2556 8.06 38.3156C8.64 40.3556 10.1 42.3756 12.72 42.9556C14.18 43.2556 18.84 42.0756 23.8 42.0756H24.16C29.12 42.0756 33.78 43.2356 35.24 42.9556C37.86 42.3756 39.32 40.3356 39.9 38.3156C40.52 34.2356 37.3 31.3356 34.68 28.7156Z" fill="#404040"/>
</svg>
