<svg width="64" height="64" viewBox="0 0 64 64" fill="none" xmlns="http://www.w3.org/2000/svg">
<path d="M14.3999 14.4H43.1999V35.2C43.1999 37.85 41.0499 40 38.3999 40H19.1999C16.5499 40 14.3999 37.85 14.3999 35.2V14.4ZM47.9999 28.8V14.4H48.7999C52.7799 14.4 55.9999 17.62 55.9999 21.6C55.9999 25.58 52.7799 28.8 48.7999 28.8H47.9999ZM47.9999 35.2V33.6H48.7999C55.4299 33.6 60.7999 28.23 60.7999 21.6C60.7999 14.97 55.4299 9.60001 48.7999 9.60001H12.7999C11.0299 9.60001 9.5999 11.03 9.5999 12.8V35.2C9.5999 40.5 13.8999 44.8 19.1999 44.8H38.3999C43.6999 44.8 47.9999 40.5 47.9999 35.2ZM8.7999 52.8C7.4699 52.8 6.3999 53.87 6.3999 55.2C6.3999 56.53 7.4699 57.6 8.7999 57.6H48.7999C50.1299 57.6 51.1999 56.53 51.1999 55.2C51.1999 53.87 50.1299 52.8 48.7999 52.8H8.7999Z" fill="#271332"/>
</svg>
