<?xml version="1.0" encoding="UTF-8"?>
<!--
Soliguide: Useful information for those who need it

SPDX-FileCopyrightText: © 2025 Solinum

SPDX-License-Identifier: AGPL-3.0-only

This program is free software: you can redistribute it and/or modify
it under the terms of the GNU Affero General Public License as published
by the Free Software Foundation, either version 3 of the License, or
(at your option) any later version.

This program is distributed in the hope that it will be useful,
but WITHOUT ANY WARRANTY; without even the implied warranty of
MERCHANTABILITY or FITNESS FOR A PARTICULAR PURPOSE.  See the
GNU Affero General Public License for more details.

You should have received a copy of the GNU Affero General Public License
along with this program.  If not, see <https://www.gnu.org/licenses/>.
-->
<svg version="1.1" width="667" height="667" xmlns="http://www.w3.org/2000/svg"><path d="M227.667 32.615 C 224.317 34.431,220.993 41.220,221.653 44.899 C 221.909 46.330,224.545 51.572,227.511 56.549 C 230.477 61.527,234.351 69.852,236.120 75.049 C 238.927 83.298,239.339 85.836,239.357 95.000 C 239.369 100.775,238.805 107.525,238.103 110.000 C 236.241 116.570,231.464 125.578,226.471 131.934 C 208.699 154.560,207.712 186.190,223.758 218.869 C 229.201 229.954,233.190 234.570,238.126 235.496 C 248.051 237.358,256.125 226.683,251.482 217.837 C 240.004 195.973,237.550 188.302,237.617 174.500 C 237.675 162.347,239.688 156.394,247.143 146.330 C 253.682 137.501,259.415 126.072,262.212 116.285 C 265.272 105.583,265.278 87.262,262.225 74.883 C 258.071 58.034,246.401 35.810,239.959 32.479 C 236.316 30.595,231.292 30.651,227.667 32.615 M307.299 32.901 C 300.563 37.131,299.260 45.511,304.301 52.180 C 308.616 57.888,314.985 71.621,317.035 79.635 C 321.773 98.163,318.532 114.707,307.073 130.479 C 296.000 145.720,292.050 157.345,292.017 174.792 C 291.988 190.757,296.158 205.650,305.550 223.115 C 308.031 227.727,311.059 232.278,312.280 233.228 C 320.241 239.426,332.000 233.530,332.000 223.342 C 332.000 220.060,331.105 217.297,328.706 213.168 C 320.232 198.587,317.564 189.355,317.528 174.500 C 317.503 163.616,317.743 161.982,320.114 156.927 C 321.551 153.862,324.776 148.687,327.281 145.427 C 335.323 134.958,340.435 123.534,343.049 110.186 C 344.961 100.421,343.766 81.562,340.541 70.600 C 336.215 55.900,327.547 39.364,321.162 33.632 C 318.024 30.814,311.194 30.454,307.299 32.901 M386.567 32.946 C 384.955 34.010,383.058 35.919,382.353 37.190 C 380.280 40.925,380.709 47.291,383.291 51.110 C 388.462 58.758,392.056 66.049,395.077 75.021 C 402.116 95.924,398.918 114.757,385.367 132.207 C 380.206 138.853,375.731 148.013,373.500 156.500 C 371.533 163.981,370.842 178.577,372.079 186.500 C 374.358 201.089,383.974 224.649,390.454 231.520 C 396.214 237.627,405.646 236.803,410.033 229.810 C 412.853 225.316,412.165 220.109,407.727 212.337 C 399.143 197.308,394.936 180.620,396.680 168.519 C 397.920 159.910,400.923 153.446,409.000 142.000 C 418.565 128.445,424.000 111.712,424.000 95.819 C 424.000 86.057,420.562 70.211,416.083 59.335 C 411.247 47.589,403.622 35.350,399.621 32.910 C 395.622 30.472,390.298 30.487,386.567 32.946 M119.237 253.782 C 105.063 259.934,99.421 268.323,98.014 285.342 C 91.349 365.937,120.524 440.258,182.770 501.250 L 192.720 511.000 108.582 511.000 C 34.050 511.000,24.191 511.178,22.223 512.557 C 19.570 514.414,19.370 517.637,21.696 521.027 C 29.379 532.224,68.784 582.423,71.300 584.218 L 74.500 586.500 333.573 586.500 L 592.647 586.500 596.112 584.125 C 599.490 581.811,645.647 522.186,647.099 518.262 C 647.500 517.177,647.291 515.212,646.635 513.895 L 645.441 511.500 544.699 511.245 L 443.957 510.990 456.228 498.704 L 468.500 486.418 477.000 484.135 C 523.369 471.679,565.937 452.489,595.000 430.940 C 619.257 412.955,636.917 389.307,643.073 366.569 C 655.328 321.306,622.412 297.124,557.140 303.436 C 548.142 304.306,540.379 305.266,539.890 305.568 C 539.400 305.871,538.982 303.954,538.961 301.309 C 538.894 293.223,537.946 281.766,536.908 276.523 C 534.868 266.213,526.695 257.275,515.465 253.073 C 509.930 251.002,509.760 251.000,317.712 251.032 L 125.500 251.064 119.237 253.782 M596.534 328.885 C 605.568 330.646,612.652 333.873,616.268 337.874 C 620.600 342.670,621.499 347.740,619.615 356.754 C 613.204 387.421,581.525 416.562,530.000 439.191 C 518.866 444.081,497.848 452.000,496.004 452.000 C 495.506 452.000,497.254 448.512,499.888 444.250 C 519.086 413.189,531.617 378.730,536.589 343.327 L 538.299 331.153 544.730 330.033 C 548.268 329.417,555.513 328.648,560.831 328.323 C 566.149 327.998,570.624 327.631,570.776 327.507 C 571.497 326.918,592.091 328.020,596.534 328.885 " stroke="none" fill="black" fill-rule="evenodd"/></svg>