<?xml version="1.0" encoding="UTF-8"?>
<!--
Soliguide: Useful information for those who need it

SPDX-FileCopyrightText: © 2025 Solinum

SPDX-License-Identifier: AGPL-3.0-only

This program is free software: you can redistribute it and/or modify
it under the terms of the GNU Affero General Public License as published
by the Free Software Foundation, either version 3 of the License, or
(at your option) any later version.

This program is distributed in the hope that it will be useful,
but WITHOUT ANY WARRANTY; without even the implied warranty of
MERCHANTABILITY or FITNESS FOR A PARTICULAR PURPOSE.  See the
GNU Affero General Public License for more details.

You should have received a copy of the GNU Affero General Public License
along with this program.  If not, see <https://www.gnu.org/licenses/>.
-->
<svg version="1.1" width="667" height="667" xmlns="http://www.w3.org/2000/svg"><path d="M327.183 43.003 C 321.510 45.578,310.933 55.823,305.523 63.984 C 290.658 86.410,281.916 114.939,281.771 141.500 C 281.697 154.860,282.637 162.362,286.030 175.500 C 295.625 212.658,318.154 241.573,337.178 241.145 C 360.965 240.609,387.137 195.456,389.644 150.629 C 391.643 114.899,376.171 70.510,354.643 50.208 C 345.070 41.181,336.280 38.875,327.183 43.003 M204.209 105.954 C 200.016 106.986,197.124 109.572,195.213 114.000 C 193.370 118.268,192.635 143.220,194.064 153.000 C 201.029 200.690,231.161 230.811,284.000 242.903 C 294.159 245.228,303.000 246.444,303.000 245.518 C 303.000 245.149,301.053 242.295,298.674 239.174 C 284.796 220.970,271.385 194.891,265.673 175.000 C 261.047 158.892,259.751 138.560,262.517 125.500 C 263.333 121.651,264.000 118.205,264.000 117.844 C 264.000 116.835,250.292 111.374,243.000 109.477 C 228.532 105.714,211.479 104.166,204.209 105.954 M444.500 106.084 C 435.759 107.267,425.198 110.127,414.876 114.108 C 408.645 116.511,407.030 117.536,407.424 118.838 C 416.870 150.062,404.391 195.288,375.097 236.000 C 366.992 247.264,366.984 247.257,383.092 243.995 C 430.685 234.357,461.240 209.796,473.282 171.500 C 476.649 160.793,478.196 149.862,478.231 136.534 C 478.283 117.009,476.589 110.390,470.773 107.383 C 466.881 105.370,454.352 104.751,444.500 106.084 M90.748 192.427 C 82.643 195.319,77.146 201.542,76.775 208.244 C 76.492 213.357,77.788 227.891,81.612 262.500 C 84.022 284.306,90.655 323.669,94.547 339.256 C 101.067 365.369,111.642 386.420,129.333 408.500 C 142.761 425.259,172.641 451.820,191.183 463.480 L 195.865 466.425 196.218 474.962 C 196.412 479.658,196.689 503.891,196.834 528.813 C 196.979 553.736,197.481 575.136,197.950 576.370 C 199.360 580.076,204.196 585.184,207.671 586.636 C 210.242 587.710,219.367 588.000,250.630 588.000 L 290.324 588.000 294.423 585.598 C 296.677 584.277,299.491 581.464,300.676 579.348 C 302.803 575.548,302.836 574.700,303.325 512.000 C 303.599 476.916,303.408 443.578,302.898 437.500 C 299.885 401.533,292.456 370.861,281.257 348.154 C 275.735 336.956,275.362 336.488,252.711 312.386 C 225.172 283.083,228.223 286.759,213.500 265.137 C 203.422 250.337,200.783 247.121,197.027 245.059 C 188.375 240.311,176.408 242.563,171.439 249.875 C 167.138 256.205,167.856 259.344,178.464 280.566 C 189.140 301.925,191.959 305.980,208.288 323.463 C 214.668 330.294,220.639 337.334,221.556 339.107 C 223.828 343.502,223.069 351.234,220.049 354.448 C 213.274 361.660,204.750 357.728,184.664 338.124 C 152.654 306.882,131.795 266.062,124.420 220.228 C 123.470 214.328,121.807 207.575,120.724 205.223 C 115.816 194.565,101.673 188.528,90.748 192.427 M566.144 192.088 C 559.029 194.259,552.377 200.248,549.930 206.685 C 549.362 208.178,548.010 214.597,546.925 220.949 C 539.143 266.519,519.449 305.509,488.525 336.570 C 470.657 354.517,461.179 360.092,454.183 356.771 C 448.464 354.057,446.702 345.268,450.448 338.145 C 451.213 336.690,457.461 329.507,464.332 322.182 C 478.489 307.091,483.424 300.181,491.248 284.500 C 504.085 258.772,504.827 255.514,499.341 248.994 C 494.445 243.175,486.392 241.122,478.114 243.582 C 471.914 245.425,469.174 248.403,457.024 266.500 C 445.316 283.940,443.713 285.881,421.502 309.500 C 396.159 336.451,395.593 337.149,390.137 348.173 C 381.066 366.503,375.070 387.726,371.117 415.500 C 367.858 438.398,367.611 445.683,367.880 511.000 C 368.170 581.166,367.922 578.787,375.552 584.608 L 379.342 587.500 420.426 587.781 L 461.510 588.063 466.077 585.166 C 474.457 579.851,474.467 579.799,474.728 538.000 C 474.853 517.925,475.029 493.723,475.120 484.218 L 475.285 466.935 483.392 461.355 C 513.794 440.429,539.643 414.870,555.455 390.100 C 560.554 382.113,568.995 364.873,572.152 356.000 C 579.178 336.252,588.800 280.335,592.542 237.500 C 592.878 233.650,593.300 229.565,593.479 228.423 C 594.730 220.448,595.030 207.147,594.019 204.500 C 590.414 195.064,576.580 188.904,566.144 192.088 " stroke="none" fill="black" fill-rule="evenodd"/></svg>