<svg width="48" height="48" viewBox="0 0 48 48" fill="none" xmlns="http://www.w3.org/2000/svg">
<path d="M5.4674 18.405C10.2299 13.7025 16.7774 10.8 24.0074 10.8C31.2374 10.8 37.7774 13.7025 42.5474 18.405C43.2524 19.1025 44.3924 19.095 45.0899 18.39C45.7874 17.6849 45.7799 16.545 45.0749 15.8475C39.6599 10.5 32.2124 7.19995 24.0074 7.19995C15.8024 7.19995 8.3474 10.5 2.9324 15.8475C2.2274 16.545 2.2199 17.6849 2.9174 18.39C3.6149 19.095 4.7549 19.1025 5.4599 18.405H5.4674ZM24.0074 24C28.0274 24 31.6274 25.7925 34.0499 28.6275C34.6949 29.385 35.8349 29.4749 36.5849 28.83C37.3349 28.1849 37.4324 27.045 36.7874 26.295C33.7124 22.695 29.1224 20.4 24.0074 20.4C18.8924 20.4 14.3099 22.6875 11.2274 26.295C10.5824 27.0525 10.6724 28.1849 11.4299 28.83C12.1874 29.4749 13.3199 29.385 13.9649 28.6275C16.3874 25.7925 19.9874 24 24.0074 24ZM27.6074 37.1999C27.6074 35.2125 25.9949 33.5999 24.0074 33.5999C22.0199 33.5999 20.4074 35.2125 20.4074 37.1999C20.4074 39.1874 22.0199 40.7999 24.0074 40.7999C25.9949 40.7999 27.6074 39.1874 27.6074 37.1999Z" fill="#271332"/>
</svg>
