<svg width="48" height="48" viewBox="0 0 48 48" fill="none" xmlns="http://www.w3.org/2000/svg">
<path d="M24 12C17.1825 12 11.01 14.7 6.47249 19.095C5.51999 20.0175 3.99749 19.995 3.08249 19.0424C2.16749 18.0899 2.18249 16.5675 3.13499 15.6525C8.52749 10.4175 15.8925 7.19995 24 7.19995C32.1075 7.19995 39.4725 10.4175 44.8725 15.6525C45.825 16.575 45.8475 18.0975 44.925 19.0424C44.0025 19.9874 42.48 20.0175 41.535 19.095C36.99 14.7 30.8175 12 24 12ZM20.4 37.1999C20.4 35.2125 22.0125 33.5999 24 33.5999C25.9875 33.5999 27.6 35.2125 27.6 37.1999C27.6 39.1874 25.9875 40.7999 24 40.7999C22.0125 40.7999 20.4 39.1874 20.4 37.1999ZM15 29.265C14.1225 30.2625 12.6075 30.3524 11.61 29.475C10.6125 28.5975 10.5225 27.0824 11.4 26.0849C14.475 22.6049 18.9825 20.4 24 20.4C29.0175 20.4 33.525 22.6049 36.6 26.0849C37.4775 27.0824 37.38 28.5975 36.39 29.475C35.4 30.3524 33.8775 30.255 33 29.265C30.795 26.7675 27.585 25.1999 24 25.1999C20.415 25.1999 17.205 26.7675 15 29.265Z" fill="#271332"/>
</svg>
