<?xml version="1.0" encoding="UTF-8"?>
<!--
Soliguide: Useful information for those who need it

SPDX-FileCopyrightText: © 2025 Solinum

SPDX-License-Identifier: AGPL-3.0-only

This program is free software: you can redistribute it and/or modify
it under the terms of the GNU Affero General Public License as published
by the Free Software Foundation, either version 3 of the License, or
(at your option) any later version.

This program is distributed in the hope that it will be useful,
but WITHOUT ANY WARRANTY; without even the implied warranty of
MERCHANTABILITY or FITNESS FOR A PARTICULAR PURPOSE.  See the
GNU Affero General Public License for more details.

You should have received a copy of the GNU Affero General Public License
along with this program.  If not, see <https://www.gnu.org/licenses/>.
-->
<svg version="1.1" width="667" height="667" xmlns="http://www.w3.org/2000/svg"><path d="M320.500 124.665 C 268.352 128.334,221.006 138.446,171.500 156.490 C 130.451 171.452,84.067 194.955,47.500 219.323 C 32.522 229.305,18.000 240.060,18.000 241.173 C 18.000 241.781,43.867 273.747,56.596 288.871 C 56.768 289.075,61.542 285.884,67.204 281.780 C 135.654 232.171,227.128 196.204,303.177 188.997 C 309.405 188.407,316.075 187.694,318.000 187.414 C 323.025 186.681,365.379 186.716,372.500 187.460 C 375.800 187.804,382.775 188.543,388.000 189.101 C 461.265 196.932,531.558 227.347,597.196 279.617 L 608.891 288.931 614.295 282.715 C 631.770 262.616,648.889 241.629,648.424 240.877 C 648.128 240.398,643.524 236.480,638.193 232.172 C 564.503 172.614,482.884 137.145,396.000 126.923 C 379.469 124.978,334.969 123.648,320.500 124.665 M335.941 311.392 C 335.681 311.652,331.650 311.957,326.984 312.070 C 286.660 313.041,234.056 328.620,191.519 352.188 C 180.001 358.569,161.134 370.671,154.805 375.737 L 151.109 378.695 168.090 399.347 C 177.430 410.706,185.248 420.000,185.465 420.000 C 185.682 420.000,191.457 416.262,198.299 411.693 C 230.501 390.187,268.078 375.185,306.891 368.339 C 319.091 366.188,353.792 365.681,366.000 367.477 C 404.884 373.196,439.952 388.401,471.292 413.129 C 476.127 416.945,480.434 419.850,480.861 419.586 C 482.477 418.587,514.500 379.867,514.500 378.911 C 514.500 376.310,487.030 356.595,468.806 346.118 C 438.969 328.964,401.511 316.707,368.000 313.135 C 355.721 311.826,336.550 310.783,335.941 311.392 M319.225 462.499 C 308.243 464.924,298.625 470.313,290.034 478.854 C 277.662 491.153,272.331 502.850,271.343 519.863 C 270.274 538.262,276.016 553.044,289.478 566.546 C 303.074 580.183,317.177 585.691,336.000 584.714 C 354.638 583.748,368.861 576.807,380.613 562.943 C 390.152 551.689,394.958 538.432,394.985 523.299 C 395.004 512.873,393.617 506.340,389.462 497.270 C 381.522 479.943,366.463 467.374,348.000 462.665 C 340.819 460.833,327.123 460.754,319.225 462.499 " stroke="none" fill="black" fill-rule="evenodd"/></svg>