<svg aria-hidden="true" width="152" height="152" viewBox="0 0 152 152" fill="none" xmlns="http://www.w3.org/2000/svg">
  <path
    d="M75.6177 0.795288C60.6673 0.795288 46.0526 5.2286 33.6218 13.5346C21.191 21.8406 11.5024 33.6462 5.78112 47.4586C0.059852 61.271 -1.43709 76.4697 1.47958 91.1328C4.39626 105.796 11.5956 119.265 22.1671 129.836C32.7386 140.408 46.2076 147.607 60.8707 150.524C75.5338 153.441 90.7326 151.944 104.545 146.222C118.357 140.501 130.163 130.812 138.469 118.382C146.775 105.951 151.208 91.3362 151.208 76.3858C151.208 56.338 143.244 37.1113 129.068 22.9353C114.892 8.75931 95.6655 0.79532 75.6177 0.795288ZM133.413 63.3199C132.557 63.5823 131.698 63.8348 130.839 64.0862C129.189 64.5706 127.483 65.0716 125.818 65.6474C123.948 66.2399 122.068 66.9383 120.251 67.6132C119.625 67.8452 118.998 68.078 118.379 68.3039C117.497 68.636 116.611 68.9603 115.725 69.2845C114.151 69.8602 112.523 70.4546 110.963 71.0843L103.601 74.1015L97.1245 76.7423C98.3418 77.2917 99.563 77.8416 100.813 78.392L107.55 81.6007L107.596 81.6242L114.035 85.1248L115.052 85.6789C116.839 86.6516 118.686 87.6566 120.371 88.7972C121.395 89.4331 122.387 90.1211 123.341 90.8586L126.163 92.9493L126.172 92.9561C126.367 93.1008 126.5 93.3147 126.543 93.554C126.585 93.7933 126.535 94.0398 126.401 94.243C126.268 94.4463 126.062 94.5909 125.826 94.6471C125.589 94.7034 125.34 94.6671 125.13 94.5457C124.4 94.1242 123.684 93.69 122.967 93.2548C121.606 92.4286 120.197 91.5728 118.686 90.8221C117.083 89.933 115.315 89.1373 113.604 88.369C113.011 88.1028 112.418 87.8355 111.844 87.5712C111.001 87.1998 110.169 86.8175 109.336 86.4345C107.866 85.7585 106.346 85.06 104.811 84.4517L97.4311 81.6115L91.1571 79.175L88.8678 80.1083L81.5023 83.1C79.162 84.0627 76.7628 84.9362 74.4422 85.7812L74.007 85.9403C71.3081 86.8984 68.8214 87.7275 66.4027 88.4761C64.136 89.1717 61.4421 89.9704 58.6549 90.6317L54.7505 91.5767L50.8159 92.3548C50.584 92.398 50.3599 92.4433 50.1359 92.4874C49.7086 92.5741 49.2813 92.6593 48.7938 92.7371L46.825 93.02L42.8382 93.5888C42.1347 93.6596 41.4627 93.7135 40.8005 93.7628C40.324 93.8 39.88 93.8099 39.4496 93.8206C39.2217 93.8266 38.9927 93.8315 38.75 93.8413L37.7569 93.8708L37.4661 93.8787L37.1723 93.8747L36.6634 93.8638C35.9019 93.8373 35.2594 93.8089 34.6051 93.7578C31.8042 93.5872 29.0418 93.0182 26.4014 92.068C23.6288 91.1116 21.1319 89.492 19.1282 87.3502C18.132 86.2289 17.3124 84.9624 16.6975 83.5943C16.3919 82.9138 16.1358 82.2121 15.9313 81.4947L15.8595 81.255C15.8282 81.1645 15.8046 81.0715 15.7889 80.977L15.7673 80.8541L15.6768 80.3529L15.504 79.3166C15.4971 79.2773 15.4931 79.2375 15.4922 79.1977L15.4902 79.1475L15.4303 77.5363C15.4292 77.498 15.4343 77.4125 15.4371 77.3742L15.5177 76.4145L15.5609 75.9418L15.5756 75.7904C15.5836 75.7121 15.5964 75.6344 15.6139 75.5577L15.6591 75.3238L15.7633 74.7971L15.8703 74.314C15.9459 73.9935 16.0344 73.6665 16.1523 73.2804C16.5675 71.9435 17.1352 70.6588 17.8442 69.4517C20.6908 64.6308 25.3258 61.1288 30.741 59.7075C33.2171 59.0394 35.7718 58.7072 38.3365 58.72L38.7089 58.7219C41.343 58.762 43.969 59.0249 46.5588 59.5079C48.788 59.9057 51.1872 60.4668 54.109 61.2725C58.6628 62.5133 63.4474 63.9684 68.7399 65.724L69.4463 65.9588C70.419 66.2831 71.3808 66.6033 72.3957 66.9638L75.9571 68.2842L83.084 70.9282C83.9269 71.2456 84.764 71.553 85.6001 71.8615C87.1092 72.4166 88.6702 72.9903 90.2727 73.6271L92.554 74.5986C96.028 73.3166 99.614 71.9913 103.231 70.6286L110.554 68.0171L117.928 65.6404L119.095 65.2651C121.141 64.6059 123.255 63.9242 125.353 63.371C126.629 62.9938 127.929 62.6794 129.148 62.3904L132.9 61.4867C133.141 61.4257 133.396 61.4613 133.611 61.5858C133.826 61.7103 133.984 61.9139 134.051 62.1531C134.118 62.3924 134.089 62.6483 133.969 62.8663C133.85 63.0843 133.651 63.2471 133.413 63.3199ZM77.701 74.2293L71.877 72.166L70.4563 71.6622L69.0161 71.2151L66.0666 70.3023L60.1954 68.4956C59.493 68.297 58.7875 68.0919 58.0832 67.8854C56.8325 67.521 55.5395 67.1436 54.2809 66.8136C53.779 66.6789 53.2792 66.5433 52.7817 66.4069C51.2697 65.9932 49.8412 65.6033 48.3734 65.2869C46.4286 64.843 44.4607 64.5077 42.4786 64.2827C41.1711 64.1354 39.8566 64.0593 38.5408 64.0548C37.8885 64.0548 37.2441 64.0755 36.6142 64.1177C35.6646 64.1855 34.7199 64.3088 33.7847 64.4871C33.6118 64.5275 33.4301 64.5649 33.2493 64.6021C32.9477 64.664 32.6363 64.7279 32.3739 64.8094L31.6371 65.0138L31.3227 65.1032L31.137 65.1581L31.0387 65.1878L30.5485 65.3773L30.0209 65.5924C29.6604 65.7408 29.3685 65.8843 29.0542 66.0425C28.4125 66.366 27.7934 66.7327 27.2012 67.1399C26.011 67.9513 24.9342 68.9177 23.9993 70.0136C23.0706 71.0981 22.3054 72.3124 21.7278 73.6181C21.4507 74.2504 21.2301 74.906 21.0687 75.5772L20.9556 76.1009L20.8967 76.3927L20.878 76.486L20.874 76.5283L20.7758 77.6189L20.8141 78.7447C20.9446 79.8238 21.2565 80.8731 21.7366 81.8484C22.2142 82.8376 22.8658 83.7328 23.6604 84.4912C25.4017 86.0396 27.4788 87.1623 29.7281 87.7707C32.0808 88.4315 34.5064 88.7975 36.9493 88.8602C37.2596 88.866 37.5829 88.869 37.912 88.869C38.8178 88.869 39.7797 88.8465 40.6777 88.8052L41.6012 88.7452C41.7191 88.7343 41.8468 88.7245 41.9745 88.7157C42.1622 88.7008 42.3498 88.6881 42.5001 88.6676L44.4199 88.4191L48.2113 87.9297L51.9849 87.2488C52.208 87.2067 52.4388 87.1663 52.6688 87.1252C53.0706 87.0544 53.4724 86.9826 53.827 86.9069L55.7095 86.4786C56.1545 86.3745 56.6045 86.2742 57.0545 86.1731C57.8493 85.9943 58.6706 85.8106 59.4477 85.613C64.0349 84.4479 68.8568 83.0214 74.1926 81.25C76.7864 80.4011 79.1581 79.5689 81.4512 78.7044L85.8035 77.0991L83.5251 76.2915L77.701 74.2293ZM32.0653 77.1893C31.3885 77.1893 30.7269 76.9886 30.1641 76.6126C29.6014 76.2366 29.1628 75.7022 28.9038 75.0769C28.6448 74.4516 28.577 73.7636 28.7091 73.0998C28.8411 72.436 29.167 71.8263 29.6455 71.3477C30.1241 70.8691 30.7338 70.5432 31.3976 70.4112C32.0614 70.2791 32.7495 70.3469 33.3747 70.6059C34 70.8648 34.5345 71.3034 34.9105 71.8662C35.2865 72.4289 35.4872 73.0905 35.4873 73.7673C35.4873 74.6749 35.1267 75.5453 34.485 76.187C33.8433 76.8288 32.9729 77.1893 32.0653 77.1893Z"
    fill="#1a70b0"></path>
</svg>