<?xml version="1.0" encoding="UTF-8" standalone="no"?>
<svg
   width="259.47922pt"
   height="300pt"
   viewBox="0 0 259.47922 300"
   version="1.1"
   id="svg9"
   sodipodi:docname="Armée du Salut.svg"
   inkscape:version="1.2.2 (732a01da63, 2022-12-09, custom)"
   xmlns:inkscape="http://www.inkscape.org/namespaces/inkscape"
   xmlns:sodipodi="http://sodipodi.sourceforge.net/DTD/sodipodi-0.dtd"
   xmlns="http://www.w3.org/2000/svg"
   xmlns:svg="http://www.w3.org/2000/svg">
  <sodipodi:namedview
     id="namedview423"
     pagecolor="#ffffff"
     bordercolor="#000000"
     borderopacity="0.25"
     inkscape:showpageshadow="2"
     inkscape:pageopacity="0.0"
     inkscape:pagecheckerboard="0"
     inkscape:deskcolor="#d1d1d1"
     inkscape:document-units="pt"
     showgrid="false"
     inkscape:zoom="0.76253082"
     inkscape:cx="203.27047"
     inkscape:cy="232.77748"
     inkscape:window-width="1366"
     inkscape:window-height="704"
     inkscape:window-x="0"
     inkscape:window-y="27"
     inkscape:window-maximized="1"
     inkscape:current-layer="surface1"/>
  <defs
     id="defs13"/>
  <g
     id="surface1"
     transform="translate(41.171752,370.04736)">
    <path
       style="fill:#cc0000;fill-opacity:1;stroke-width:0.300389"
       d="m 88.893596,-70.279109 c 0.05512,-0.131714 1.046358,-1.028021 2.202859,-1.991757 1.156492,-0.963745 2.440662,-2.041542 2.853697,-2.395092 0.413044,-0.353568 1.426853,-1.113155 2.252923,-1.688011 0.82607,-0.574855 1.569536,-1.128798 1.652139,-1.230972 0.288536,-0.356855 5.577426,-4.056534 8.008586,-5.602186 7.98677,-5.077657 15.54301,-8.483749 23.68247,-10.675169 1.48693,-0.400328 4.05525,-1.093027 5.7074,-1.539348 13.51659,-3.65138 33.91852,-11.200856 41.07094,-15.197746 6.62028,-3.6995 11.28337,-7.1835 17.03018,-12.72409 2.21053,-2.13121 5.88105,-6.12749 7.23352,-7.87555 3.36117,-4.34421 5.05972,-7.11771 7.64009,-12.4752 3.14426,-6.52824 4.98361,-11.5648 6.91079,-18.92318 2.77577,-10.59851 3.72338,-21.93392 2.85956,-34.20644 -0.33387,-4.74306 -2.11733,-20.86426 -2.84133,-25.68326 -0.67563,-4.49713 -1.31405,-8.9392 -1.79164,-12.46615 -0.56425,-4.16685 -2.13094,-14.33038 -2.84769,-18.47395 -0.31438,-1.81735 -0.92523,-5.39949 -1.35745,-7.9603 -0.4322,-2.56083 -0.98417,-5.73745 -1.22659,-7.05915 -1.24556,-6.79138 -2.28127,-15.21527 -2.8807,-23.43036 -0.49237,-6.74759 -0.16325,-20.65335 0.60081,-25.38633 0.80811,-5.00588 1.4772,-8.20575 2.1348,-10.20979 3.86379,-11.77451 4.05477,-12.6083 4.05974,-17.72295 0.004,-4.31481 -0.005,-4.3745 -0.97934,-6.36633 -2.30682,-4.71604 -7.46704,-7.03706 -13.86226,-6.23516 -2.50923,0.31463 -6.16894,1.47036 -9.427,2.97705 -7.14383,3.30365 -15.4033,5.88821 -23.93965,7.49123 -3.48217,0.6539 -9.40376,1.06421 -15.47005,1.07192 -10.99137,0.014 -16.57316,-1.08359 -25.23269,-4.96168 -7.60733,-3.78254 -16.5533,-8.38262 -22.93013,-12.15058 -0.279038,-0.16522 -1.992671,-1.15586 -3.808071,-2.20142 -1.815392,-1.04559 -4.300409,-2.48048 -5.522258,-3.18868 l -2.221537,-1.28762 -2.2843,1.36316 c -1.256365,0.74976 -3.162934,1.85616 -4.236823,2.4587 -1.073898,0.60255 -2.643361,1.52541 -3.487704,2.0508 -2.082978,0.95357 -4.005988,2.34001 -5.674172,3.27061 -1.817355,1.01072 -3.912564,2.19357 -4.65603,2.62858 -3.609241,2.11171 -16.734565,8.36029 -19.525293,9.2954 -6.432795,2.1555 -14.243099,3.10627 -22.725614,2.76646 -13.828668,-0.55396 -24.1074281,-3.06271 -37.953001,-9.2632 -4.702186,-2.10579 -8.896216,-2.87672 -12.597606,-2.31566 -7.847356,1.18953 -11.43844,6.88422 -10.08432,15.99156 0.304981,2.05122 1.242734,5.66442 2.549087,9.82173 3.730651,11.87237 4.377149,16.38981 4.320438,30.18936 -0.04962,12.08382 -0.74035,19.95696 -2.819718,32.14163 -1.381066,8.09282 -2.396848,14.01253 -2.989589,17.42259 -0.344616,1.98257 -0.76654,4.55089 -0.93761,5.70739 -0.171069,1.1565 -0.570802,3.86 -0.88831,6.00779 -0.317499,2.14778 -1.117649,7.82513 -1.778107,12.61634 -0.660457,4.7912 -1.265483,8.98659 -1.344502,9.32306 -0.07898,0.33648 -0.484966,3.78345 -0.902098,7.65994 -0.417151,3.87647 -0.902171,8.19713 -1.077842,9.60144 -0.538823,4.30747 -0.725509,18.14552 -0.30082,22.29944 1.665873,16.29435 6.75259,31.97586 13.959589,43.03519 4.112823,6.31119 11.047362,13.7071 17.5959114,18.76656 0.7429168,0.57396 1.4183425,1.11466 1.5009458,1.20157 0.1920177,0.20191 3.7757986,2.54543 6.3081787,4.12501 3.8178116,2.38144 8.9900681,4.73445 16.6715951,7.58445 2.312993,0.85815 5.016497,1.88602 6.007782,2.28413 4.427962,1.77827 16.178839,5.44689 24.481719,7.643165 10.452675,2.764925 18.176062,6.254728 27.48561,12.419287 4.115002,2.724858 14.864315,11.013355 15.119582,11.658251 0.126814,0.320425 0.569028,0.328927 0.700903,0.01351 z"
       id="path579"
       sodipodi:nodetypes="ssssscscsssssssssscsscccssssccsscsscccsssssssssssssssssscssssssss"/>
    <path
       style="fill:#ffffff;fill-opacity:1;stroke-width:0.300389"
       d="m 84.889084,-78.826026 c -7.212312,-5.761314 -12.742865,-9.348193 -20.076678,-13.020873 -6.070788,-3.040185 -9.174232,-4.220084 -15.770433,-5.995885 -13.579318,-3.655736 -22.855373,-6.708956 -35.805295,-11.785356 -12.27147164,-4.81045 -19.5309308,-9.54862 -28.292623,-18.46627 -2.682151,-2.72988 -3.959441,-4.28306 -7.69509,-9.35725 -3.967772,-5.38948 -9.328164,-18.61247 -11.528104,-28.4375 -2.104756,-9.39995 -2.290568,-11.2547 -2.284579,-22.80417 0.0045,-8.31114 0.124346,-11.21354 0.68952,-16.6716 0.376362,-3.63471 0.740935,-6.81133 0.810174,-7.05915 0.06926,-0.24781 0.403146,-2.68098 0.742034,-5.407 0.338888,-2.72603 1.01317,-7.59233 1.498406,-10.81401 0.485236,-3.22167 1.101555,-7.4121 1.369593,-9.31206 0.552953,-3.9196 3.262094,-20.0952 3.899028,-23.28018 0.532662,-2.66355 2.414617,-14.24862 2.830237,-17.42256 0.800186,-6.11079 1.270265,-13.021 1.432194,-21.05388 0.290823,-14.42651 -0.760965,-21.92057 -4.823525,-34.36792 -2.124668,-6.50983 -2.66893,-9.03535 -2.549257,-11.82931 0.07772,-1.81427 0.280997,-2.77515 0.793485,-3.75058 0.82987,-1.57951 1.046376,-1.80657 2.771842,-2.90697 3.283821,-1.49523 6.919476,-1.05102 10.20654,0.002 6.435872,2.47154 12.7983117,5.31711 19.224905,7.19027 14.852358,4.25316 33.28158,4.73656 45.65916,1.19768 4.158005,-1.18884 13.310533,-5.39422 20.126067,-9.24751 0.743466,-0.42032 2.027628,-1.13484 2.853697,-1.58782 0.82607,-0.45297 1.729294,-0.96372 2.007157,-1.13502 0.705137,-0.43469 4.916557,-2.8604 6.549469,-3.7724 0.745916,-0.41659 2.326025,-1.32902 3.511354,-2.02763 1.463619,-0.75317 2.899572,-1.79215 4.182949,-2.42251 l 1.381679,-0.67126 3.349452,1.87453 c 2.543017,1.72703 5.486558,3.21419 7.726278,4.50063 5.6351,3.24254 10.01182,5.68689 13.34613,7.45365 1.65215,0.87543 3.34184,1.77464 3.75488,1.99825 6.36147,3.44408 15.07334,6.16109 22.51883,7.02303 6.703,0.77601 19.20955,0.20773 26.89518,-1.22205 6.21145,-1.15554 15.64845,-3.93715 19.90968,-5.8685 0.87227,-0.39535 1.63614,-0.71881 1.6974,-0.71881 0.0613,0 1.24011,-0.52366 2.61953,-1.16367 3.82632,-1.77532 5.68717,-2.23205 9.1166,-2.23759 3.328,-0.005 4.07837,0.20892 5.69172,1.62545 1.52972,1.34314 2.27759,2.96843 2.48072,5.39117 0.25026,2.98509 -0.44478,6.03887 -3.38268,14.86214 -1.40309,4.21378 -2.85256,10.61768 -3.46673,15.31628 -0.56969,4.35821 -0.61352,5.81426 -0.47004,15.62023 0.0898,6.13974 0.35838,12.89147 0.62137,15.62025 0.42463,4.40625 2.52814,18.71186 3.1774,21.60902 0.63364,2.82739 3.34908,19.07582 4.79737,28.70616 0.82741,5.50169 1.22852,8.37105 2.87319,20.55245 1.75674,13.0115 2.37734,27.55781 1.52606,35.77051 -1.40022,13.50922 -6.0924,28.48581 -11.94872,38.13838 -0.8796,1.44978 -1.73444,2.85852 -1.89966,3.13054 -2.59561,4.27358 -10.78028,12.76842 -16.24315,16.85865 -7.15685,5.35856 -11.59825,7.60672 -24.91016,12.60907 -12.42621,4.6695 -16.46113,5.96477 -29.58834,9.49828 -13.63747,3.670851 -25.87223,10.217149 -37.970431,20.316338 -1.14066,0.952181 -2.160206,1.731239 -2.265667,1.731239 -0.10546,0 -1.757014,-1.250371 -3.670118,-2.778605 z m 6.59037,-6.006306 c 1.606704,-1.196965 2.988878,-2.250671 3.071482,-2.341506 0.218315,-0.240101 7.488374,-5.094597 7.629614,-5.094597 0.0655,0 0.99771,-0.533761 2.07157,-1.186176 6.47773,-3.93534 16.48129,-8.024659 23.79221,-9.725909 2.10643,-0.49018 3.27136,-0.83037 11.71518,-3.42105 3.46949,-1.06451 7.18681,-2.25195 8.26069,-2.63876 17.94252,-6.46287 21.67425,-8.01957 26.88483,-11.21511 5.30993,-3.25644 11.77439,-8.74317 15.7215,-13.34369 1.7292,-2.01543 5.639,-7.54439 6.85415,-9.6927 4.20928,-7.4415 7.82193,-17.28898 9.52982,-25.97661 1.38225,-7.03116 1.5394,-8.98071 1.51334,-18.77431 -0.0219,-8.23587 -0.1344,-10.35356 -0.9732,-18.32375 -1.62895,-15.47771 -4.68653,-36.52552 -7.26558,-50.01478 -3.5013,-18.31302 -5.0887,-32.96666 -5.09259,-47.01091 -0.004,-9.38779 0.8414,-16.66631 2.73426,-23.58055 0.33924,-1.23911 1.06991,-3.94262 1.62371,-6.00778 0.55379,-2.06518 1.43441,-5.10662 1.95694,-6.75875 0.63605,-2.01106 0.96383,-3.68221 0.99176,-5.05613 0.0386,-1.90039 -0.0206,-2.10598 -0.80114,-2.7786 -0.62367,-0.5375 -1.19693,-0.72637 -2.20476,-0.72637 -1.45517,0 -5.61908,1.30798 -8.81777,2.76986 -8.16497,3.73161 -19.10032,6.78845 -29.43814,8.22908 -4.55245,0.63441 -17.32453,0.88808 -21.77821,0.43253 -5.71992,-0.58504 -13.45407,-2.38887 -16.74521,-3.90546 -0.70299,-0.32395 -2.02161,-0.87455 -2.9303,-1.22359 -2.0827,-0.79996 -12.13137,-5.99768 -12.26587,-6.34457 -0.055,-0.14203 -0.24436,-0.25824 -0.42064,-0.25824 -0.17628,0 -3.88883,-2.06143 -8.250132,-4.58094 -4.36129,-2.51951 -8.469411,-4.89212 -9.12913,-5.27247 l -1.199496,-0.69155 -1.187968,0.69155 c -0.950218,0.55315 -4.908061,2.84243 -8.466166,4.89698 -21.592267,12.46802 -28.640769,15.34225 -40.849702,16.65771 -4.142713,0.44636 -14.040184,0.37823 -19.161647,-0.13188 -5.693291,-0.56707 -12.3282987,-1.7898 -17.1221756,-3.15535 -1.23910446,-0.35297 -2.9963801,-0.83972 -3.9050621,-1.0817 -2.1795056,-0.58037 -5.3335455,-1.60029 -6.4583633,-2.08843 -12.357361,-5.36268 -14.304772,-5.85462 -16.09393,-4.06547 -1.441515,1.4415 -1.306982,2.59408 1.335073,11.4379 2.376351,7.95445 4.073079,15.34791 4.722126,20.57665 0.485164,3.90848 0.499772,19.94128 0.02351,25.83346 -0.854925,10.5775 -2.671965,23.41364 -5.145149,36.34709 -1.297688,6.78621 -3.510552,20.99257 -5.100145,32.74243 -2.444184,18.06666 -3.289949,33.73016 -2.314632,42.86659 1.094774,10.25549 3.486957,19.0878 7.671837,28.32563 0.523917,1.1565 1.072754,2.30548 1.219651,2.5533 0.146898,0.24782 0.697022,1.26163 1.222506,2.25291 5.845683,11.02744 17.1883254,21.80828 28.512857,27.10063 3.859564,1.8037 3.686711,1.72965 6.926047,2.96719 13.893224,5.30773 24.216041,8.71257 35.075518,11.56916 6.85163,1.80234 10.650799,3.192206 16.823356,6.154579 6.187209,2.969407 14.94476,8.501797 20.795293,13.136942 0.743466,0.589049 1.388929,1.077933 1.434364,1.086426 0.04548,0.0081 1.397187,-0.963925 3.003891,-2.160909 z M 57.302678,-117.40993 c -2.462718,-0.4177 -5.036382,-1.82895 -6.706353,-3.67742 -1.777368,-1.96735 -2.358888,-3.6023 -2.531723,-7.11814 -0.137306,-2.79293 -0.087,-3.18125 0.608493,-4.70047 2.165348,-4.72974 7.085931,-6.17275 10.744525,-3.15095 0.802348,0.66268 2.090508,2.52188 2.090508,3.0172 0,0.92393 -1.471487,1.72068 -3.177843,1.72068 -2.202723,0 -3.158732,0.82292 -3.335736,2.87136 -0.185318,2.14466 0.535291,3.37037 2.608517,4.43696 1.462796,0.75253 1.895437,0.83556 3.775042,0.72451 2.628943,-0.15534 4.774126,-1.23021 6.408821,-3.21125 2.96367,-3.59154 2.798022,-7.79638 -0.509616,-12.93651 -1.818408,-2.82584 -2.575771,-3.69629 -7.462347,-8.57662 -7.326239,-7.31685 -9.421241,-11.15084 -9.421241,-17.24147 0,-3.46013 0.457813,-5.39253 1.827937,-7.71556 1.391694,-2.3596 4.600599,-5.61123 6.442315,-6.52812 3.802942,-1.89326 9.335629,-1.47903 13.40815,1.00388 1.335865,0.81444 1.765975,0.77444 3.103705,-0.28866 1.503341,-1.19469 2.959923,-1.2351 3.555384,-0.0987 0.370914,0.70793 0.355144,0.95022 -0.133757,2.05548 -0.98173,2.21934 -2.06902,6.83334 -2.0518,8.70698 0.0091,0.99129 0.264705,2.74856 0.568001,3.90507 0.303297,1.15649 0.492369,2.16493 0.420168,2.24098 -0.07223,0.0761 -1.096836,-0.11047 -2.276987,-0.4145 -2.581184,-0.66493 -4.72127,-0.68538 -6.527647,-0.0623 -0.737009,0.25421 -1.396764,0.40545 -1.466119,0.33609 -0.129462,-0.12947 1.08393,-3.36364 1.464165,-3.90255 0.479715,-0.67994 0.948705,-3.57626 0.765045,-4.72479 -0.282664,-1.7677 -1.037316,-2.86319 -2.440141,-3.5423 -1.583819,-0.76671 -2.925709,-0.75216 -4.582081,0.0496 -3.22843,1.56286 -4.626311,7.12083 -2.727208,10.84339 0.384819,0.7543 3.050398,3.65851 6.547145,7.13328 7.411697,7.36509 9.507365,10.436 10.979897,16.0894 0.602612,2.3136 0.59891,7.60601 -0.0072,10.21927 -1.329237,5.73157 -5.855571,10.28881 -12.032135,12.11427 -2.028439,0.5995 -5.721796,0.79604 -7.927933,0.42184 z m 20.726851,-8.87536 c 0,-0.22427 0.108163,-0.53616 0.240362,-0.69311 0.848504,-1.00742 2.109943,-5.47607 4.405113,-15.60521 0.598974,-2.64344 1.486302,-6.49593 1.971845,-8.56109 0.485542,-2.06518 1.287287,-5.57972 1.78166,-7.81012 1.61952,-7.30651 4.534287,-19.3316 5.205741,-21.47672 0.455913,-1.4565 0.993735,-2.44772 1.752106,-3.22917 0.980487,-1.01032 1.252271,-1.12756 2.613642,-1.12756 0.835661,0 1.575146,0.10138 1.643313,0.22528 0.06818,0.12391 -0.0099,1.42663 -0.173429,2.89493 -0.4987,4.477 -0.140791,6.0717 5.637008,25.11636 0.87715,2.89124 1.96949,6.51166 2.42743,8.04536 0.45792,1.5337 1.14348,3.20991 1.52344,3.72492 l 0.69083,0.93638 0.38522,-0.87124 c 0.29759,-0.67301 0.40377,-5.30508 0.46675,-20.35917 l 0.0815,-19.48792 -0.72881,-1.23893 c -0.40085,-0.68139 -1.07962,-1.5666 -1.50838,-1.96713 -0.42875,-0.40054 -0.77954,-0.82758 -0.77954,-0.94901 0,-0.12142 1.11518,-0.82444 2.4782,-1.56224 3.00923,-1.62893 5.00464,-2.74268 6.81806,-3.80555 2.30622,-1.35172 2.4199,-1.35547 2.41183,-0.0798 -0.004,0.61436 -0.27424,2.12169 -0.60078,3.34963 -0.55985,2.10529 -0.5937,3.25725 -0.5937,20.20117 0,13.74398 0.0845,17.96855 0.35933,17.96855 0.66466,0 2.59081,-1.54122 3.31528,-2.65276 0.79923,-1.22621 1.65849,-3.34857 2.63531,-6.5091 1.08436,-3.5085 2.30763,-4.95642 4.18741,-4.95642 1.19674,0 1.47809,1.02 0.76647,2.77867 -0.98106,2.42454 -1.10148,6.77379 -0.29338,10.59639 0.18509,0.8756 0.10672,0.9582 -2.13913,2.25292 -1.28221,0.73921 -2.59138,1.44626 -2.90927,1.57127 -0.31791,0.12497 -0.93556,0.47759 -1.37258,0.78355 -0.43702,0.30597 -2.01116,1.20922 -3.49808,2.00724 -1.48693,0.798 -4.16443,2.30407 -5.95002,3.34678 -1.78558,1.04271 -3.31271,1.89586 -3.39365,1.89586 -0.081,0 -2.28417,1.21339 -4.89608,2.6964 -5.831142,3.31093 -5.875614,3.32988 -5.583494,2.38056 0.122068,-0.39672 0.48882,-1.26202 0.815001,-1.92288 1.413362,-2.8636 1.456366,-3.6503 0.4254,-7.78184 -0.518342,-2.07724 -1.060605,-3.77822 -1.205025,-3.77995 -0.249089,-0.004 -3.281007,1.31003 -6.714946,2.90806 -1.806511,0.84069 -1.645682,0.45431 -3.093501,7.43203 -0.511912,2.46709 -0.854745,4.78846 -0.761856,5.15855 0.09288,0.37007 0.506859,1.07455 0.919939,1.56548 1.208268,1.43594 1.790652,0.94588 -5.932587,4.99189 -2.440339,1.27838 -3.829961,1.85844 -3.829961,1.59867 z m 14.796841,-26.66175 c 1.410228,-0.66085 2.713122,-1.20155 2.895287,-1.20155 0.432101,0 0.426112,-0.061 -0.265597,-2.7035 -1.899391,-7.25612 -2.259029,-8.41582 -2.449957,-7.90017 -0.296775,0.80152 -2.936309,13.00678 -2.812882,13.00678 0.03801,0 1.222921,-0.5407 2.633149,-1.20156 z m 42.20419,-6.03281 c -2.33212,-0.54983 -4.28508,-2.22774 -5.39451,-4.63474 l -0.69056,-1.49821 0.0897,-15.77043 c 0.0988,-17.35749 0.14699,-16.86814 -1.75021,-17.76597 -0.57365,-0.2715 -1.04303,-0.677 -1.04303,-0.90117 0,-0.22415 1.14899,-1.02447 2.55331,-1.77848 1.40433,-0.754 3.02642,-1.64438 3.60468,-1.97862 3.23492,-1.8699 6.37301,-3.44451 6.53726,-3.28024 0.10354,0.10354 -0.20413,0.96173 -0.68374,1.90708 l -0.872,1.7188 -0.25831,16.4133 c -0.27328,17.36431 -0.2277,18.19894 1.06972,19.58481 2.29734,2.45396 7.31131,1.16994 10.14833,-2.59887 1.85857,-2.46901 1.86515,-2.5387 1.99565,-21.12976 0.13465,-19.18283 0.18065,-18.73704 -1.99357,-19.32249 -2.27244,-0.61191 -1.93788,-0.90498 5.44832,-4.77239 1.93518,-1.01326 3.60574,-1.8423 3.71234,-1.8423 0.38218,0 -0.23457,1.67693 -1.09611,2.98029 l -0.87793,1.32816 v 19.00148 c 0,11.68466 -0.12241,19.90628 -0.31789,21.35121 -0.46073,3.40554 -1.65042,5.7596 -4.13198,8.17599 -2.41773,2.35423 -5.50946,4.08717 -8.37524,4.6944 -2.24528,0.47575 -5.91771,0.53229 -7.67426,0.11815 z m 30.92747,-14.5793 c -0.26608,-0.26607 0.0718,-1.77663 0.88389,-3.95156 l 0.70358,-1.88428 v -19.21805 c 0,-10.56993 -0.0805,-19.21804 -0.17892,-19.21804 -0.32105,0 -2.04833,1.27175 -3.22591,2.37513 -1.26979,1.18979 -1.82431,2.14848 -3.05675,5.28479 -0.88458,2.25105 -1.49901,3.15409 -2.14606,3.15409 -0.32099,0 -0.40403,-0.95207 -0.40403,-4.63147 0,-2.5473 -0.0757,-4.82895 -0.16842,-5.07033 -0.16638,-0.43361 0.18477,-0.64294 8.42912,-5.02471 1.32171,-0.70247 3.14657,-1.70317 4.05526,-2.22377 0.90866,-0.5206 2.73354,-1.50703 4.05524,-2.19206 1.32171,-0.68503 3.01141,-1.59038 3.75487,-2.0119 0.74346,-0.42152 1.55451,-0.85965 1.80233,-0.97363 0.24782,-0.11397 0.95482,-0.52125 1.57107,-0.90506 0.61628,-0.3838 1.19077,-0.69781 1.27666,-0.69781 0.0859,0 0.15617,2.6359 0.15617,5.85758 0,5.6148 -0.0243,5.8576 -0.58799,5.8576 -0.32336,0 -0.96544,-0.49213 -1.42684,-1.0936 -1.65533,-2.15793 -1.85885,-2.29329 -3.20201,-2.12958 -0.68284,0.0832 -1.61327,0.29844 -2.0676,0.47825 l -0.82606,0.32693 v 19.33019 19.33017 l 0.67586,0.5958 c 0.37174,0.32771 1.0476,0.75389 1.50196,0.94709 1.47728,0.6282 1.05642,1.3625 -1.54552,2.69656 -3.89241,1.99573 -8.25182,4.33659 -8.88475,4.77081 -0.65941,0.4524 -0.8725,0.4935 -1.14515,0.22086 z m -87.628114,-15.14911 c 0,-1.16338 0.590922,-2.29472 1.79656,-3.43955 0.521963,-0.49564 1.243698,-1.37427 1.603858,-1.95253 0.652695,-1.04793 0.654946,-1.10989 0.688566,-18.92452 0.03557,-18.85512 0.02008,-19.08886 -1.313495,-19.77724 -0.287409,-0.14836 -1.036594,-0.36259 -1.664837,-0.47606 -1.115263,-0.20143 -1.944187,-1.20595 -1.442218,-1.74772 0.311627,-0.33633 13.973338,-7.90632 16.552586,-9.17182 2.178506,-1.06888 3.332548,-1.50826 5.686804,-1.45181 2.71597,0.065 3.24931,0.35483 5.56634,1.49973 5.92457,2.92737 9.4737,9.50971 9.4737,17.57033 0,3.20743 -0.78201,9.20047 -1.50669,11.54669 -1.35493,4.38678 -3.8466,8.39047 -7.08413,11.38302 -2.32276,2.147 -4.289,3.39827 -10.676749,6.79442 -7.910191,4.2056 -17.295773,9.06315 -17.511485,9.06315 -0.09285,0 -0.16881,-0.41224 -0.16881,-0.91609 z m 17.302852,-14.26053 c 3.267642,-2.19789 6.726352,-5.96736 8.183792,-8.91908 1.97591,-4.00176 2.29959,-5.6218 2.2978,-11.50041 -9e-4,-3.91584 -0.13201,-5.66698 -0.56097,-7.50974 -1.89404,-8.13645 -6.862803,-10.32766 -13.671879,-6.02928 l -1.235637,0.78001 v 18.02465 18.02464 l 1.457311,-0.73848 c 0.801528,-0.40616 2.389842,-1.36571 3.529583,-2.13231 z m -108.020378,2.75041 c 0,-0.22867 0.340554,-1.18581 0.756777,-2.12696 1.395989,-3.15658 3.1884966,-8.98435 4.3935492,-14.28419 1.6227795,-7.13703 2.9755942,-13.12051 4.5843153,-20.27626 0.7428449,-3.30428 2.0353731,-9.04923 2.87227698,-12.76654 0.83690382,-3.71732 1.72731262,-7.73753 1.97868002,-8.93383 1.4560418,-6.9295 2.6483779,-9.84559 4.8000731,-11.73958 0.737126,-0.64885 1.7628684,-1.26425 2.2794276,-1.36756 1.3193478,-0.26387 3.2033658,-0.23376 3.3812348,0.054 0.08223,0.13302 0.02504,0.77512 -0.12703,1.42685 -0.152085,0.65174 -0.36352,2.46914 -0.469863,4.03867 -0.226736,3.34656 0.220648,5.94586 1.988794,11.5551 0.626676,1.98802 1.811204,5.77737 2.632302,8.42079 6.548829,21.08319 6.613555,21.26954 7.75643,22.33474 0.776267,0.7235 1.172253,0.91539 1.406203,0.68144 0.431578,-0.43157 0.751238,-8.39337 1.080886,-26.92124 0.210174,-11.81326 0.187938,-15.10394 -0.104173,-15.41517 -0.204257,-0.21764 -0.898154,-0.5768 -1.541995,-0.79814 -0.643833,-0.22134 -1.170605,-0.53067 -1.170605,-0.68742 0,-0.66191 3.814885,-3.45965 6.838481,-5.01519 6.234059,-3.20718 10.750829,-3.93988 14.207346,-2.30465 2.178641,1.03067 3.418646,2.47692 4.742992,5.53188 1.36555,3.7057 1.381688,7.3227 0.245478,11.32916 -1.835196,5.12835 -3.765054,7.76389 -7.795489,10.64601 -1.088884,0.77867 -1.540681,1.28944 -1.439678,1.62765 0.08096,0.27108 0.40945,1.43911 0.729984,2.5956 1.72652,6.22938 4.71719,10.67669 9.055326,13.46586 1.968007,1.26532 4.792381,2.13379 6.197692,1.90573 0.58578,-0.095 1.011648,-0.0373 1.011648,0.13738 0,0.79371 -1.741578,2.44451 -3.483778,3.3022 -1.767038,0.86991 -2.092327,0.93133 -4.246444,0.80179 -5.319064,-0.31986 -8.519395,-3.56368 -13.126423,-13.30479 -0.859519,-1.81736 -1.852461,-3.91256 -2.206542,-4.65603 l -0.643788,-1.35174 0.06322,7.20934 0.06322,7.20934 1.051356,0.52463 c 0.57825,0.28855 1.051364,0.73666 1.051364,0.99581 0,0.28933 -1.101348,1.05183 -2.853697,1.97567 -1.569527,0.82749 -5.151669,2.73225 -7.960309,4.23281 -2.80864,1.50058 -6.661134,3.53106 -8.561092,4.51219 -1.899959,0.98114 -3.611412,1.91282 -3.803222,2.07041 -0.731128,0.60068 -0.645445,-0.3255 0.242577,-2.6219 0.505671,-1.30765 1.02287,-2.51273 1.149324,-2.67795 0.51872,-0.67771 0.95735,-3.52467 0.774483,-5.02683 -0.15059,-1.23694 -1.246094,-5.47059 -1.517283,-5.86365 -0.029,-0.042 -1.865745,0.87536 -4.0816167,2.03867 -2.215872,1.16332 -4.907497,2.54818 -5.9813857,3.07745 -1.0738977,0.52927 -2.0071932,0.99576 -2.074,1.03663 -0.066825,0.0409 -0.5131819,2.34015 -0.99194275,5.10952 -0.96626657,5.58932 -1.2125096,9.73576 -0.61382437,10.33606 0.2065174,0.20708 0.37547963,0.58783 0.37547963,0.84609 0,0.43873 -0.80350949,0.92288 -7.64438621,4.60597 -1.1650387,0.62726 -2.8279222,1.54084 -3.6953029,2.03019 -1.114848,0.62898 -1.577037,0.76789 -1.577037,0.47397 z m 17.2135147,-30.78326 c 0.8584465,-0.47002 2.8111802,-1.5078 4.3394053,-2.30614 1.718919,-0.89797 2.777524,-1.63174 2.775768,-1.924 -0.0018,-0.25986 -0.336897,-1.75662 -0.745204,-3.32615 -0.408307,-1.56954 -1.3020207,-5.15168 -1.9860291,-7.96032 -1.2395908,-5.08997 -1.7439828,-6.63646 -1.7626343,-5.40435 -0.0054,0.33189 -0.6231456,3.44092 -1.3736005,6.90895 -1.5674287,7.24348 -3.1413685,14.64765 -3.1413685,14.77771 0,0.21026 0.425274,0.0383 1.8936631,-0.7657 z M 38.528354,-252.1836 c 2.058771,-1.41015 3.915852,-3.4686 4.298527,-4.76463 0.585681,-1.98358 0.956639,-5.05157 0.772844,-6.39183 -0.674426,-4.91819 -3.138864,-6.3997 -7.238196,-4.35124 -1.765687,0.88232 -1.816904,0.94208 -1.995485,2.32802 -0.134118,1.0408 -0.298154,13.48927 -0.203672,15.4555 0.01126,0.23318 2.905735,-1.27563 4.365982,-2.27582 z m 85.768386,38.3768 c -2.97847,-0.80039 -4.43311,-1.94195 -5.89344,-4.62507 -0.54283,-0.99737 -0.57221,-1.89191 -0.57221,-17.42256 0,-9.00417 -0.11058,-16.54211 -0.24567,-16.75099 -0.13513,-0.20887 -0.78605,-0.65545 -1.44651,-0.9924 -1.31967,-0.67323 -1.37237,-1.01686 -0.25244,-1.64606 1.13446,-0.6374 5.86286,-3.19783 8.55318,-4.6316 1.32172,-0.70437 2.53154,-1.40033 2.68849,-1.54656 0.91233,-0.85 1.0468,0.49767 0.1619,1.62265 -0.33225,0.42239 -0.73052,1.43459 -0.88504,2.24933 -0.1545,0.81473 -0.3047,8.78159 -0.33375,17.70411 -0.0575,17.62653 -0.0885,17.26966 1.62064,18.53339 0.64952,0.48021 1.28507,0.62591 2.70351,0.61988 3.18423,-0.0135 6.00764,-1.88159 7.60332,-5.03052 1.14536,-2.26024 1.35237,-6.09621 1.24866,-23.13712 -0.0833,-13.69235 -0.12211,-14.60439 -0.64548,-15.18243 -0.30625,-0.33825 -0.939,-0.69894 -1.4061,-0.80152 -1.33792,-0.29386 -1.64198,-0.88143 -0.7564,-1.46168 0.41012,-0.26872 0.80622,-0.48858 0.88024,-0.48858 0.074,0 2.04303,-1.01919 4.37557,-2.26487 2.33252,-1.24568 4.36676,-2.18712 4.52052,-2.09209 0.3589,0.22182 -0.0723,1.37228 -0.96834,2.5837 l -0.68166,0.92157 -0.16577,20.47684 c -0.14817,18.30254 -0.22161,20.66819 -0.6915,22.27915 -0.7268,2.49172 -1.7886,4.19795 -3.92583,6.30854 -2.24363,2.21565 -5.26221,3.84377 -8.61803,4.64825 -2.94394,0.70574 -4.59929,0.73626 -6.86786,0.12664 z m -72.401069,-20.61892 c 0,-0.55627 0.819054,-2.36156 1.465921,-3.23104 l 0.782165,-1.05137 0.0027,-18.47393 c 0.0027,-21.14332 -0.0081,-21.26326 -2.016721,-22.93199 -0.749546,-0.62263 -1.164895,-1.1886 -1.064415,-1.45044 0.167053,-0.43534 6.935044,-4.15615 7.553507,-4.15265 0.184947,8e-4 0.553375,0.37277 0.818711,0.82608 1.000409,1.70907 9.062837,14.0589 9.435453,14.45299 0.321839,0.34041 1.135643,-1.8607 4.697953,-12.7066 l 4.308695,-13.11833 3.268605,-1.82199 c 4.47953,-2.49701 6.182784,-3.36611 6.319045,-3.22436 0.06358,0.0662 -0.08114,1.13408 -0.321695,2.37319 -0.336051,1.73119 -0.495152,6.73976 -0.687062,21.62802 -0.274341,21.28466 -0.309348,20.78352 1.479197,21.17636 0.928981,0.20402 1.574327,1.43088 1.019294,1.93771 -0.144862,0.13229 -2.020657,1.15455 -4.168431,2.27171 -2.147787,1.11716 -4.979131,2.62171 -6.291887,3.34345 -1.581946,0.86972 -2.487539,1.21151 -2.685474,1.01357 -0.292741,-0.29273 -0.188604,-0.55161 1.304038,-3.24165 0.476771,-0.85923 0.569776,-2.04386 0.731092,-9.31208 0.10166,-4.58018 0.243992,-10.74136 0.316292,-13.69151 0.07232,-2.95016 0.08556,-5.31572 0.02945,-5.25682 -0.05611,0.0589 -0.716079,1.93197 -1.466588,4.16236 -0.7505,2.2304 -2.521321,7.43118 -3.935151,11.55732 -1.41384,4.12614 -2.57062,7.55059 -2.57062,7.60987 0,0.54063 -0.892741,-0.55834 -2.329339,-2.86743 -0.949245,-1.52575 -2.604545,-4.18269 -3.678434,-5.90432 l -1.952527,-3.13025 -0.238146,5.30399 c -0.233671,5.20416 -0.07088,15.01638 0.286149,17.25086 0.09956,0.62309 0.498889,1.43413 0.887391,1.80234 1.203531,1.14067 0.949299,2.04156 -0.860608,3.04962 -0.8672,0.48299 -3.364231,1.939 -5.548951,3.23556 -3.93698,2.33646 -4.88926,2.83736 -4.88926,2.57176 z m 39.05059,-21.62395 c 0,-0.36848 0.466927,-1.42645 1.037612,-2.35105 l 1.037622,-1.68107 0.310663,-15.14665 c 0.170871,-8.33065 0.369094,-16.99052 0.440512,-19.24414 0.150005,-4.73362 0.03062,-5.06275 -2.179533,-6.01015 -1.281342,-0.54925 -1.832323,-1.00079 -1.843832,-1.51108 -0.0036,-0.16877 5.864928,-3.48901 14.113695,-7.98481 8.86978,-4.83428 10.66267,-5.82948 10.98707,-6.09869 0.20876,-0.17328 0.44691,-0.19298 0.53863,-0.0446 0.0904,0.1463 0.18195,2.68001 0.2034,5.63046 0.0387,5.32868 0.0344,5.36614 -0.64707,5.61825 -1.01909,0.37698 -2.06676,-0.21565 -3.35159,-1.89593 -0.62206,-0.81351 -1.29994,-1.47911 -1.50638,-1.47911 -0.20646,0 -0.91408,0.29346 -1.57248,0.65215 -0.6584,0.35868 -2.2785,1.22907 -3.60022,1.93419 l -2.40311,1.28205 -0.22499,8.02901 c -0.12375,4.41596 -0.16324,8.09075 -0.0877,8.16623 0.0755,0.0755 0.55451,-0.21395 1.06455,-0.64312 0.51003,-0.42916 3.77935,-2.21333 7.26515,-3.96482 5.85849,-2.94369 9.18318,-4.96843 10.06006,-6.1266 0.31338,-0.41392 0.38171,-0.39863 0.59494,0.13316 0.72026,1.79621 -0.34844,4.9928 -2.44516,7.3136 -0.91264,1.01019 -3.83652,2.74943 -4.62213,2.74943 -0.16418,0 -1.9449,0.54255 -3.95714,1.20566 -4.29982,1.41694 -6.85244,3.01059 -7.59847,4.74389 -0.66736,1.55055 -0.87008,15.01717 -0.23755,15.78124 0.72015,0.86991 2.38371,0.59961 5.24825,-0.85275 5.13885,-2.60549 6.63746,-4.4134 8.13891,-9.81876 0.49348,-1.77659 1.71638,-3.54954 2.44829,-3.54954 0.35004,0 0.42389,0.99421 0.42389,5.70738 0,3.85202 -0.10446,5.7074 -0.32128,5.7074 -0.2645,0 -5.64999,2.88493 -15.14877,8.11496 -0.82606,0.45483 -2.31299,1.26654 -3.304277,1.80381 -4.09799,2.22104 -5.474499,2.97783 -6.75876,3.71586 -1.661037,0.95456 -2.102729,0.97853 -2.102729,0.11412 z m 29.054119,-15.53798 c -0.1439,-0.5503 0.0371,-0.98668 1.35742,-3.27246 0.46823,-0.81065 0.56864,-2.90613 0.96192,-20.07542 0.49656,-21.67777 0.62698,-20.21865 -1.88195,-21.05496 -1.06414,-0.35471 -2.147,-1.38537 -1.80496,-1.71793 0.20828,-0.2025 5.91812,-3.42505 8.36015,-4.71835 1.40433,-0.74372 3.92847,-2.11582 5.60922,-3.0491 1.68076,-0.93328 3.19021,-1.69687 3.35436,-1.69687 0.16413,0 0.34348,-0.10854 0.39856,-0.24111 0.055,-0.13261 1.38429,-0.92714 2.95382,-1.76561 1.56953,-0.83848 3.28428,-1.77504 3.81057,-2.08126 0.52628,-0.30623 1.01984,-0.49172 1.0968,-0.41222 0.077,0.0794 0.18663,2.56423 0.24373,5.5216 0.10206,5.28568 0.0926,5.38202 -0.55199,5.66966 -1.05898,0.47254 -2.01563,0.0269 -3.05805,-1.4247 -1.57778,-2.19703 -1.7233,-2.20894 -5.07131,-0.41505 -1.61047,0.86289 -3.27943,1.74617 -3.70882,1.96283 l -0.78071,0.39394 -0.16831,8.03604 c -0.0925,4.41982 -0.13192,8.07342 -0.0875,8.11914 0.0445,0.0457 0.80947,-0.40908 1.69998,-1.01061 0.89051,-0.60153 3.57916,-2.03919 5.97475,-3.19475 5.49131,-2.64886 8.18266,-4.21609 9.79942,-5.70635 1.21336,-1.11843 1.28855,-1.14549 1.59459,-0.57366 1.14031,2.13069 -1.38328,7.01875 -4.58536,8.88163 -0.6883,0.40042 -2.626,1.13444 -4.30601,1.63116 -4.95573,1.46521 -7.40812,2.60799 -8.77197,4.0876 -0.7223,0.78359 -1.26572,1.70605 -1.35987,2.30837 -0.0863,0.55178 -0.20772,3.79951 -0.26994,7.21719 -0.13376,7.34914 0.0197,8.05454 1.75329,8.05454 1.39522,0 6.14919,-2.26692 7.87717,-3.7562 1.85153,-1.59579 2.91896,-3.30636 3.65787,-5.86178 0.35741,-1.23607 0.79628,-2.62371 0.97527,-3.08364 0.33603,-0.8635 1.57246,-2.01733 2.16205,-2.01762 0.23655,-1.3e-4 0.31556,1.6084 0.26888,5.47402 -0.0742,6.15321 0.0343,5.86321 -2.6374,7.045 -0.66086,0.29231 -1.26915,0.61178 -1.35176,0.70993 -0.0827,0.0981 -1.29918,0.79059 -2.70351,1.53876 -1.40431,0.74818 -4.85128,2.61772 -7.65991,4.15452 -2.80865,1.5368 -5.78249,3.1593 -6.60856,3.60554 -4.9545,2.67639 -6.14663,3.30586 -6.26088,3.30586 -0.0701,0 -0.19659,-0.26446 -0.28111,-0.58768 z m -16.53848,-41.69209 c -0.30791,-0.50944 5.57125,-9.69435 6.19478,-9.678 1.10815,0.0291 2.01643,1.64644 2.01643,3.59065 0,1.02977 -0.18955,1.32691 -1.71211,2.68394 -0.94165,0.83929 -1.88787,1.52597 -2.10271,1.52597 -0.21484,0 -0.39062,0.11319 -0.39062,0.25165 0,0.26634 -3.05467,1.85108 -3.56804,1.85108 -0.16585,0 -0.36284,-0.10138 -0.43773,-0.22529 z"
       id="path304"
       sodipodi:nodetypes="ssssssssssssssssssscccssssscccccssssssscssssssssscssssssssssscsscsscsssscssssssssssssssscsssssscssssssssssssssscsscsssssssssssssssssssssssssssscsssssccssssssssssssscsscsssssssssssssssssssscssscssssssssssssssscssssssscsssssssscssssssscsssssscsssssssssssscccsssssssssssssscsssssssscsscccsssssssssssssssssssssssccsssscssssscccsssssssssssssssssssssscsscsssssssssssssssssssssscssssssssscssssssscssscssscsssssssssssssssssscssssssssscssscssssssssscssssssssssssssssssssssssssssssssssssscsssssssssssssssscscssssssssssssssss"/>
  </g>
</svg>
