<?xml version="1.0" encoding="UTF-8"?>
<!--
Soliguide: Useful information for those who need it

SPDX-FileCopyrightText: © 2025 Solinum

SPDX-License-Identifier: AGPL-3.0-only

This program is free software: you can redistribute it and/or modify
it under the terms of the GNU Affero General Public License as published
by the Free Software Foundation, either version 3 of the License, or
(at your option) any later version.

This program is distributed in the hope that it will be useful,
but WITHOUT ANY WARRANTY; without even the implied warranty of
MERCHANTABILITY or FITNESS FOR A PARTICULAR PURPOSE.  See the
GNU Affero General Public License for more details.

You should have received a copy of the GNU Affero General Public License
along with this program.  If not, see <https://www.gnu.org/licenses/>.
-->
<svg width="93.41" height="91.56" version="1.1" viewBox="0 0 93.41 91.56" xmlns="http://www.w3.org/2000/svg" xmlns:xlink="http://www.w3.org/1999/xlink">
  <g transform="matrix(1.333 0 0 -1.333 -72.59 1013)">
    <rect transform="scale(1,-1)" x="54.44" y="-759.8" width="70.06" height="68.67" fill="#0062ae" stop-color="#000000"/>
    <path id="path13447" d="m94.36 755.6c-1.256 0-2.413-0.9951-2.584-2.227-0.171-1.23 0.6939-2.225 1.951-2.225 1.256 0 2.413 0.9949 2.584 2.225 0.181 1.231-0.6939 2.227-1.951 2.227zm-6.193-2.492c-1.176 0-2.262-0.9348-2.423-2.087-0.1006-0.7081 0.1707-1.34 0.6636-1.714l3.146-2.067s-0.4927-3.476-0.7441-5.279c-0.08047-0.5208 0.5739-0.8465 1.087-0.5903 0.8751 0.4322 2.613 1.358 2.613 1.358s1.478-0.9257 2.222-1.358c0.4325-0.2561 1.186 0.0694 1.257 0.5903 0.2515 1.793 0.7646 5.279 0.7646 5.279l3.738 2.067c0.6035 0.3842 1.057 1.006 1.157 1.714 0.1609 1.153-0.654 2.087-1.83 2.087-0.4124 0-0.824-0.1071-1.317-0.3633l-4.947-2.708v-0.0102l-4.293 2.767c-0.3017 0.2069-0.6833 0.3149-1.096 0.3149z" fill="#fff"/>
    <g fill="#ffffff">
      <use transform="translate(-13.93 -7.277)" xlink:href="#path13447"/>
      <use transform="translate(-16.04 -21.93)" xlink:href="#path13447"/>
      <use transform="translate(-2.091 -14.64)" xlink:href="#path13447"/>
      <use transform="translate(11.78 -7.287)" xlink:href="#path13447"/>
      <use transform="translate(9.622 -22)" xlink:href="#path13447"/>
      <use transform="translate(-4.183 -29.29)" xlink:href="#path13447"/>
    </g>
    <path d="m112.9 729.7c0.2917-0.9851-0.563-2.09-1.125-2.572-0.6538-0.5504-3.69-2.077-3.69-2.077h13.56v4.649zm-55.69-0.0205v-4.629h14.39c-0.7443 0.4532-2.715 1.566-3.188 2.008-0.5834 0.532-0.9551 1.438-0.6533 2.621zm28.07-2.698c-0.6928-0.3842-3.86-1.939-3.86-1.939h5.077c0 0.2463 0.5229 0.7881 0.5229 0.7881-1.469-0.069-1.75 1.143-1.75 1.143zm9.592 0s-0.5035-1.281-2.071-1.113c0 0 0.3223-0.5799 0.3223-0.8262h4.997s-2.835 1.614-3.248 1.939z" fill="#bdcae9"/>
    <path d="m79.43 706.6c-1.89 0-3.227-1.191-3.517-2.669-0.3319-1.683 0.6023-2.648 2.272-2.648 1.86 0 3.237 1.231 3.519 2.678h0.01025c0.2213 1.153-0.1212 2.64-2.284 2.64zm6.274 0c-1.648 0-3.188-0.8762-3.57-2.817-0.3005-1.516 0.7346-2.5 2.354-2.5 0.5117 0 1.064 0.0883 1.567 0.3149l0.293 0.6401-0.01025-0.019-0.09082 0.0483c-0.4023-0.3151-0.9963-0.5508-1.468-0.5508-1.167 0-1.628 0.8866-1.377 2.156 0.2213 1.094 0.9647 2.275 2.221 2.275 0.4929 0 0.9253-0.2758 1.126-0.6797h0.1113c0.1106 0.266 0.2001 0.5129 0.3208 0.769-0.3923 0.2352-0.9751 0.3633-1.478 0.3633zm16.91 0c-1.891 0-3.227-1.191-3.519-2.669-0.3319-1.683 0.6038-2.648 2.282-2.648 1.86 0 3.237 1.231 3.519 2.678 0.2213 1.153-0.121 2.64-2.282 2.64zm11.08-0.0103c-1.157 0-1.89-0.6986-2.061-1.556-0.352-1.792 2.001-1.36 1.759-2.55-0.1006-0.5123-0.5746-0.7676-1.047-0.7676-0.5218 0-0.8732 0.3051-0.8833 0.8174h-0.1406c-0.1006-0.3251-0.252-0.6297-0.4028-0.9448 0.3118-0.2167 0.7446-0.3164 1.156-0.3164 1.177 0 2.142 0.6806 2.334 1.636 0.342 1.703-2.001 1.515-1.8 2.52 0.0805 0.4236 0.3721 0.7295 0.9756 0.7295 0.4325 0 0.6737-0.2563 0.7441-0.6504v-9e-3h0.1113c0.1207 0.2561 0.2415 0.5018 0.3823 0.7383-0.1408 0.1576-0.5833 0.353-1.126 0.353zm-47.91-0.0396-3.188-5.149c0.1207 0 0.2514 0.019 0.3721 0.019 0.1207 0 0.2309-9e-3 0.3516-0.019 0.2414 0.5121 0.533 0.9755 0.8335 1.547h1.761v-0.0103c0.1106-0.5024 0.161-1.006 0.2314-1.557 0.2213 0.0197 0.4423 0.0395 0.6636 0.0395 0.22 0 0.4318-0.0199 0.6431-0.0395l-1.096 5.169c-0.1006-0.0197-0.1909-0.019-0.2915-0.019s-0.1907-6.6e-4 -0.2812 0.019zm24.03 0-3.188-5.149c0.1207 0 0.2514 0.019 0.3721 0.019 0.1207 0 0.2309-9e-3 0.3516-0.019 0.2515 0.5121 0.5229 0.9755 0.8335 1.547h1.771l-0.01025-0.0103c0.1006-0.5024 0.161-1.006 0.2314-1.557 0.2213 0.0197 0.4423 0.0395 0.6636 0.0395 0.22 0 0.4218-0.0199 0.6431-0.0395l-1.096 5.169c-0.1006-0.0197-0.1909-0.019-0.2915-0.019-0.1006 0-0.1907-6.6e-4 -0.2812 0.019zm-20.63-0.0586-1.006-5.061h2.875c0 0.0985 3.88e-4 0.2164 0.02051 0.3149 0.02011 0.0985 0.05938 0.2066 0.09961 0.315-0.523-0.0591-1.095-0.1084-1.758-0.1084l0.0088 0.0102 0.895 4.529c-0.1911-0.0197-0.3816-0.0381-0.5728-0.0381-0.1911 0-0.3714 0.0184-0.5625 0.0381zm3.79 0-1.005-5.061h2.875c0 0.0985-0.0011 0.2164 0.01904 0.3149 0.02011 0.0985 0.06084 0.2066 0.1011 0.315-0.523-0.0591-1.095-0.1084-1.759-0.1084l0.0088 0.0102 0.895 4.529c-0.1911-0.0197-0.3816-0.0381-0.5728-0.0381s-0.3827 0.0184-0.5625 0.0381zm19.77-0.0103c0-0.1071-3.88e-4 -0.2051-0.02051-0.3135-0.02011-0.1084-0.06084-0.2164-0.1011-0.3149 0.4023 0.0492 0.8863 0.0981 1.428 0.0981l-0.9038-4.57c0.1911 0.0197 0.3816 0.0395 0.5728 0.0395 0.1911 0 0.3714-0.0199 0.5625-0.0395l0.9053 4.57c0.4627 0 0.8948-0.0488 1.337-0.0981 0.01005 0.0985 0.0092 0.2066 0.0293 0.3149 0.02011 0.1084 0.06085 0.2063 0.1011 0.3135zm4.765-0.0102-1.015-5.099c0.1911 0.0197 0.3829 0.0396 0.5728 0.0396 0.1911 0 0.3714-0.0199 0.5625-0.0396l1.017 5.099c-0.1911-0.0185-0.3831-0.0381-0.5742-0.0381-0.1911 0-0.3714 0.0196-0.5625 0.0381zm8.788 0-1.005-5.08c0.1006 0.01 0.2112 0.0205 0.3018 0.0205s0.1909-0.0205 0.2915-0.0205l0.7134 3.595 0.6636-0.8482c0.684-0.8854 1.317-1.8 2.01-2.766h0.6445l1.015 5.099c-0.1006-0.0185-0.2113-0.0176-0.3018-0.0176s-0.201-9.2e-4 -0.2915 0.0176l-0.6943-3.475c-0.8336 1.191-1.738 2.323-2.593 3.475h-0.7456zm-27-0.3135h0.01025c1.128-7e-3 1.367-1.105 1.176-2.058-0.2414-1.23-0.9951-2.373-2.161-2.373-1.167 0-1.389 1.024-1.188 1.988 0.3308 1.659 1.112 2.438 2.162 2.443zm23.19 0c1.135 0 1.376-1.103 1.185-2.058-0.2414-1.23-0.9939-2.373-2.161-2.373-1.167 0-1.388 1.024-1.197 1.988 0.3319 1.665 1.116 2.443 2.172 2.443zm-36.98-1.034 0.3325-1.733h-1.389zm24.03 0 0.3325-1.733h-1.389zm17.96-6.026c-1.157 0-1.89-0.6988-2.061-1.556-0.352-1.792 1.991-1.359 1.759-2.55-0.1106-0.512-0.5732-0.769-1.046-0.769-0.5218 0-0.8747 0.3054-0.8848 0.8174h-0.1406c-0.1106-0.325-0.2608-0.6297-0.4116-0.9448 0.3118-0.2166 0.7434-0.3149 1.156-0.3149 1.176 0 2.141 0.6796 2.332 1.635 0.342 1.694-2.001 1.506-1.8 2.511 0.0805 0.4235 0.3721 0.728 0.9756 0.728 0.4325 0 0.6738-0.255 0.7442-0.6489h0.1113c0.1308 0.256 0.2518 0.502 0.3926 0.7383-0.1408 0.1576-0.5833 0.3545-1.126 0.3545zm-33.15-0.0601-3.186-5.149c0.1207 0 0.2514 0.019 0.3721 0.019 0.1207 0 0.2309-0.019 0.3516-0.019 0.2414 0.512 0.5232 0.9743 0.835 1.545h1.759v-0.0103c0.1106-0.5023 0.161-1.004 0.2314-1.556 0.2213 0.01 0.4423 0.0395 0.6636 0.0395 0.2213 0 0.4316-0.0199 0.6416-0.0395l-1.094 5.169c-0.1006-0.01-0.1909-0.019-0.2915-0.019s-0.1922-6.5e-4 -0.2827 0.019zm20.65 0-3.198-5.149c0.1207 0 0.2528 0.019 0.3735 0.019 0.1207 0 0.2309-0.019 0.3516-0.019 0.2414 0.512 0.5332 0.9743 0.835 1.545h1.759l0.0088-0.0103c0.1106-0.5023 0.161-1.004 0.2314-1.556 0.2213 0.01 0.4438 0.0395 0.665 0.0395 0.2213 0 0.4318-0.0199 0.6431-0.0395l-1.096 5.169c-0.1006-0.01-0.1924-0.019-0.293-0.019-0.1006 0-0.1907-6.5e-4 -0.2812 0.019zm7.148-0.0381-1.005-5.062h2.886c0.0101 0.0984 9e-3 0.2164 0.0293 0.3149 0.0201 0.0984 0.0609 0.208 0.1011 0.3164-0.4727-0.0591-0.9963-0.1084-1.77-0.1084l0.3721 1.881h0.7939c0.342 0 0.6542-0.0294 0.9258-0.0688 0 0.1082-1e-3 0.2154 0.019 0.3237 0.0201 0.0984 0.0609 0.2066 0.1011 0.3149-0.2816-0.0394-0.6028-0.0688-0.9448-0.0688h-0.7837l0.3208 1.605c0.7745 0.01 1.277-0.0493 1.73-0.1084 0 0.0984-1e-3 0.2066 0.019 0.3149 0.0201 0.0984 0.0609 0.2066 0.1011 0.3149l-0.0102 0.0308zm-15.14-0.0205-1.006-5.061h2.875c0 0.0984 3.87e-4 0.2164 0.02051 0.3149 0.02011 0.0984 0.06085 0.2066 0.1011 0.3149-0.523-0.0591-1.095-0.1084-1.759-0.1084l0.01025 0.0103 0.8936 4.529c-0.1899-0.0197-0.3816-0.0395-0.5728-0.0395-0.1911 0-0.3714 0.0199-0.5625 0.0395zm11.38 0-1.005-5.061h2.875c0 0.0984-1e-3 0.2164 0.019 0.3149 0.0201 0.0984 0.0709 0.2066 0.1011 0.3149-0.5218-0.0591-1.095-0.1084-1.759-0.1084l0.01025 0.0103 0.895 4.529c-0.1911-0.0197-0.3816-0.0395-0.5728-0.0395-0.1911 0-0.3729 0.0199-0.564 0.0395zm-29.53-0.0102-1.015-5.101c0.1911 0.0197 0.3816 0.0395 0.5728 0.0395 0.1911 0 0.3815-0.0295 0.5625-0.0395v0.0205l0.4834 2.452h0.7939c0.3017 0 0.6023-0.0394 0.9141-0.0688 0.01005 0.1082 0.01064 0.2154 0.03076 0.3237 0.02011 0.0984 0.06085 0.2066 0.1011 0.3149-0.3319-0.0394-0.6443-0.0688-0.936-0.0688h-0.8027l0.3208 1.605c0.7933 0 1.277-0.0591 1.73-0.1084 0.01005 0.0984 0.0092 0.2066 0.0293 0.3149 0.02011 0.0984 0.06084 0.2066 0.1011 0.3149zm9.29 0c-0.6337-1.881-1.217-3.604-1.78-5.101 0.1207 0.0197 0.2309 0.0395 0.3516 0.0395s0.2309-0.0295 0.3516-0.0395c0.2213 1.034 0.5533 2.068 0.9858 3.378 0.352-1.162 0.7245-2.314 1.005-3.338 0.1106 0.0197 0.1909 0.0197 0.2915 0 0.7644 1.152 1.56 2.294 2.364 3.426-0.1106-1.142-0.1908-2.284-0.3618-3.466 0.2213 0.0197 0.4113 0.0395 0.6226 0.0395 0.21 0 0.4113-0.0295 0.6226-0.0395 0.03017 1.487 0.1818 3.101 0.3428 5.101-0.1106-0.0197-0.2219-0.0381-0.3325-0.0381-0.1106 0-0.2114 0.0184-0.312 0.0381h-0.01025c-0.8235-1.27-1.708-2.442-2.462-3.495-0.3722 1.172-0.7441 2.323-1.055 3.495-0.1006-0.0197-0.2217-0.0381-0.3223-0.0381s-0.2012 0.0184-0.3018 0.0381zm6.404 0-1.015-5.101c0.1911 0.0197 0.3816 0.0395 0.5728 0.0395 0.1911 0 0.3729-0.0295 0.564-0.0395l1.014 5.101c-0.1911-0.0197-0.3816-0.0381-0.5728-0.0381-0.1898 0-0.3815 0.0184-0.5625 0.0381zm6.325 0-1.017-5.101c0.1911 0.0197 0.3816 0.0395 0.5728 0.0395 0.1911 0 0.3727-0.0295 0.5625-0.0395l1.017 5.101c-0.1911-0.0197-0.3831-0.0381-0.5742-0.0381-0.1911 0-0.3712 0.0184-0.561 0.0381zm-16.81-1.358 0.3325-1.733h-1.389zm20.65 0 0.3311-1.733h-1.386z" fill="#fff"/>
  </g>
</svg>
