<?xml version="1.0" encoding="UTF-8" standalone="no"?>
<svg
   xmlns:dc="http://purl.org/dc/elements/1.1/"
   xmlns:cc="http://creativecommons.org/ns#"
   xmlns:rdf="http://www.w3.org/1999/02/22-rdf-syntax-ns#"
   xmlns:svg="http://www.w3.org/2000/svg"
   xmlns="http://www.w3.org/2000/svg"
   xmlns:sodipodi="http://sodipodi.sourceforge.net/DTD/sodipodi-0.dtd"
   xmlns:inkscape="http://www.inkscape.org/namespaces/inkscape"
   version="1.1"
   id="Calque_1"
   x="0px"
   y="0px"
   viewBox="0 0 516.4043 481.19974"
   xml:space="preserve"
   sodipodi:docname="logo_cpam_mini.svg"
   width="516.4043"
   height="481.19974"
   inkscape:version="1.0.1 (3bc2e813f5, 2020-09-07)"><metadata
   id="metadata165"><rdf:RDF><cc:Work
       rdf:about=""><dc:format>image/svg+xml</dc:format><dc:type
         rdf:resource="http://purl.org/dc/dcmitype/StillImage"/><dc:title></dc:title></cc:Work></rdf:RDF></metadata><defs
   id="defs163">
	
	
</defs><sodipodi:namedview
   pagecolor="#ffffff"
   bordercolor="#666666"
   borderopacity="1"
   objecttolerance="10"
   gridtolerance="10"
   guidetolerance="10"
   inkscape:pageopacity="0"
   inkscape:pageshadow="2"
   inkscape:window-width="1920"
   inkscape:window-height="1017"
   id="namedview161"
   showgrid="false"
   fit-margin-top="25"
   fit-margin-right="25"
   fit-margin-bottom="25"
   fit-margin-left="25"
   inkscape:zoom="0.425"
   inkscape:cx="779.52"
   inkscape:cy="335.42"
   inkscape:window-x="1072"
   inkscape:window-y="-8"
   inkscape:window-maximized="1"
   inkscape:current-layer="g156"
   lock-margins="true"
   inkscape:document-rotation="0"/>
<style
   type="text/css"
   id="style2">
	.st0{fill:none;}
	.st1{fill:#005CA9;}
	.st2{fill-rule:evenodd;clip-rule:evenodd;fill:#005CA9;}
</style>
<g
   id="g156"
   transform="translate(-220.48,-664.58)">
		
		
		<g
   id="g154">
			<g
   id="g138">
				<path
   class="st1"
   d="m 270.8,936.33 -3.43,-3.16 c 1.5,-1.57 2.58,-3.65 2.67,-5.54 0.1,-2.17 -0.7,-3.27 -2.07,-3.34 -1.45,-0.07 -1.98,1.22 -2.9,3.19 l -1.41,2.93 c -1.08,2.34 -3.15,4.51 -6.49,4.35 -3.81,-0.18 -6.7,-3.73 -6.47,-8.52 0.13,-2.65 1.3,-5.37 3.37,-7.26 l 3.15,2.78 c -1.23,1.46 -1.94,2.87 -2.03,4.69 -0.08,1.79 0.61,2.97 1.93,3.03 1.41,0.07 2,-1.41 2.89,-3.38 l 1.33,-2.88 c 1.27,-2.76 3.22,-4.42 6.47,-4.27 3.82,0.18 6.98,3.52 6.72,9 -0.15,3 -1.43,6.13 -3.73,8.38 z"
   id="path108"/>
				<path
   class="st1"
   d="m 249.48,903.49 -4,-6.69 3.72,-2.23 3.19,7.04 z m 2.86,5.28 2.13,-14.27 4.32,0.64 -1.36,9.12 4.57,0.68 1.16,-7.77 4.32,0.64 -1.16,7.77 5.25,0.78 1.41,-9.47 4.32,0.64 -2.18,14.62 z"
   id="path110"/>
				<path
   class="st1"
   d="m 266.99,888.65 c -7.41,-1.89 -10.45,-7.89 -9.01,-13.53 0.74,-2.88 2.69,-4.86 4.61,-5.97 l 2.56,3.49 c -1.33,0.85 -2.37,1.87 -2.78,3.49 -0.78,3.06 1.3,6.17 5.77,7.31 4.59,1.17 7.8,-0.28 8.63,-3.54 0.47,-1.83 -0.06,-3.51 -0.97,-4.9 l 3.85,-1.85 c 1.68,2.4 2.17,5.15 1.43,8.04 -1.44,5.65 -6.57,9.38 -14.09,7.46 z"
   id="path112"/>
				<path
   class="st1"
   d="m 274.28,864.3 -11.56,-4.38 1.85,-4.87 12.06,4.57 c 4.22,1.6 6.18,0.82 7.09,-1.59 0.92,-2.42 -0.01,-4.37 -4.23,-5.97 l -12.06,-4.57 1.78,-4.7 11.56,4.38 c 7.23,2.74 9.27,6.88 7.15,12.45 -2.11,5.59 -6.41,7.43 -13.64,4.68 z"
   id="path114"/>
				<path
   class="st1"
   d="m 273.78,831.74 3.83,-7.36 c 2.25,-4.34 5.61,-7.11 10.47,-4.58 4.7,2.44 4.87,7.05 2.62,11.38 l -1.43,2.74 7.36,3.82 -2.4,4.62 z m 13.05,-2.09 c 1.26,-2.43 0.9,-4.28 -1.11,-5.32 -2.02,-1.05 -3.38,-0.1 -4.64,2.34 l -1.23,2.36 5.75,2.99 z m 2.2,1.74 -1.3,-4.73 14.92,-0.53 -2.69,5.17 z"
   id="path116"/>
				<path
   class="st1"
   d="m 287.32,806.77 2.82,-4.38 19.36,12.48 -2.82,4.38 z"
   id="path118"/>
				<path
   class="st1"
   d="m 301.86,792.93 -3.84,5.04 -3.47,-2.65 10.84,-14.22 3.47,2.65 -3.84,5.04 14.84,11.32 -3.16,4.14 z"
   id="path120"/>
				<path
   class="st1"
   d="m 310.99,774.31 9.85,-10.56 3.2,2.98 -6.29,6.75 3.39,3.16 5.36,-5.75 3.2,2.98 -5.36,5.75 3.88,3.62 6.53,-7.01 3.2,2.98 -10.09,10.82 z m 0.63,-5.98 0.5,-7.79 4.34,0.27 -1.36,7.61 z"
   id="path122"/>
				<path
   class="st1"
   d="m 349.66,763.89 0.18,-4.66 c 2.17,0.12 4.45,-0.4 5.95,-1.56 1.72,-1.33 2.04,-2.66 1.2,-3.74 -0.89,-1.15 -2.21,-0.71 -4.31,-0.13 l -3.15,0.82 c -2.48,0.7 -5.47,0.53 -7.52,-2.12 -2.34,-3.02 -1.51,-7.52 2.28,-10.45 2.1,-1.63 4.93,-2.5 7.71,-2.15 l -0.07,4.21 c -1.91,0.01 -3.44,0.39 -4.89,1.5 -1.42,1.1 -1.86,2.39 -1.06,3.43 0.86,1.12 2.37,0.6 4.45,0 l 3.05,-0.86 c 2.92,-0.82 5.46,-0.42 7.45,2.16 2.34,3.02 1.85,7.6 -2.49,10.96 -2.37,1.84 -5.58,2.89 -8.78,2.59 z"
   id="path124"/>
				<path
   class="st1"
   d="m 363.98,741.77 c -3.89,-6.45 -2.48,-12.34 2.84,-15.55 5.32,-3.21 11.2,-1.68 15.08,4.74 3.89,6.45 2.58,12.51 -2.74,15.72 -5.32,3.2 -11.29,1.53 -15.18,-4.91 z m 13.35,-8.06 c -2.39,-3.96 -5.49,-5.27 -8.18,-3.64 -2.69,1.62 -2.98,4.98 -0.59,8.94 2.39,3.96 5.6,5.44 8.29,3.81 2.68,-1.62 2.87,-5.15 0.48,-9.11 z"
   id="path126"/>
				<path
   class="st1"
   d="m 388.63,727.37 c -3.22,-6.93 -0.51,-13.08 4.77,-15.53 2.7,-1.26 5.47,-1 7.54,-0.21 l -1.08,4.19 c -1.5,-0.49 -2.95,-0.65 -4.46,0.05 -2.86,1.33 -3.95,4.91 -2,9.09 2,4.29 5.15,5.86 8.21,4.44 1.72,-0.8 2.67,-2.27 3.18,-3.85 l 3.87,1.81 c -0.8,2.82 -2.62,4.94 -5.32,6.2 -5.31,2.46 -11.44,0.85 -14.71,-6.19 z"
   id="path128"/>
				<path
   class="st1"
   d="m 409,705.69 4.89,-1.8 7.94,21.63 -4.89,1.8 z"
   id="path130"/>
				<path
   class="st1"
   d="m 429.73,698.83 6.02,-1.6 12.9,20.41 -5.33,1.41 -5.9,-10.5 c -1.21,-2.06 -2.5,-4.54 -3.71,-6.7 l -0.14,0.04 c 0.08,2.49 0.18,5.26 0.15,7.64 l 0.06,12.05 -5.14,1.37 z m 1.08,13.68 10.71,-2.84 1.04,3.91 -10.71,2.84 z"
   id="path132"/>
				<path
   class="st1"
   d="m 451.44,693.58 5.15,-0.78 2.81,18.46 8.99,-1.37 0.66,4.32 -14.14,2.15 z"
   id="path134"/>
				<path
   class="st1"
   d="m 473.87,690.5 14.41,-0.92 0.28,4.36 -9.21,0.59 0.29,4.62 7.84,-0.5 0.28,4.36 -7.84,0.5 0.34,5.3 9.56,-0.61 0.28,4.36 -14.76,0.94 z"
   id="path136"/>
			</g>
			<path
   class="st1"
   d="m 511.59,758.04 c -0.57,-1.16 -2.39,-2.07 -3.91,-2.22 -1.58,-0.16 -2.57,-0.27 -2.57,-0.27 -1.81,-0.48 -40.51,0.14 -49.59,6.01 -0.04,0.03 -0.05,0.05 -0.08,0.08 -0.96,-6.16 -3.06,-13.58 -13.69,-15.84 -7.48,-1.59 -23.57,5.55 -18.17,21.61 0.92,2.74 2.82,4.59 5.56,6.07 1.37,0.73 3.57,0.38 5.21,4.61 0.47,1.23 1.37,1.09 2.17,0.83 0.6,-0.19 0.76,-0.12 1.73,0.66 0.79,0.64 1.38,0.25 1.38,0.25 0,0 0.37,0.41 0.89,0.34 0.4,-0.06 1.27,-0.28 1.5,-0.09 3.07,2.49 6.64,-1.4 7.99,-3.84 1.36,4.11 4.97,15.03 4.97,15.03 -1.19,-1.01 -13.38,-4.52 -19.23,2.01 -5.08,5.67 -8.79,13.25 -13.09,26.35 -1.14,3.49 -3.43,5.34 -7.52,6.84 -6.63,2.43 -2.81,5.51 -1.08,5.85 4.09,0.81 13.62,0.35 15.55,-0.61 2.46,-1.23 0.63,-6.91 3.36,-10.41 2.44,-3.14 4.41,-5.69 6.07,-7.82 -0.11,4.15 0.12,6.28 -2.1,11.71 -2,4.89 -8.05,7.47 -9.85,9.78 -3.19,4.1 4.11,4.44 6.05,3.78 4.85,-1.66 8.21,-1.57 10.35,-2.79 2.84,-1.62 0.8,-5.96 1.7,-7.73 2.5,-4.93 11.06,-15.71 12.06,-17.42 0.16,-0.28 0.27,-0.5 0.35,-0.7 6.2,1.93 13.08,2.44 15.61,2.14 14.13,-1.69 17.3,-11.68 15.85,-19.54 -1.34,-7.27 -5.8,-11.73 -7.16,-13.84 -3.73,-5.82 -5.91,-8.93 -7.15,-10.6 4.07,-0.98 26.58,-7.17 26.66,-6.98 0.85,1.84 2.75,2.25 3.45,2.75 1.45,0.79 2.29,-0.45 1.71,-0.82 -1.12,-0.71 -1.4,-1.51 -1.4,-1.51 1.9,-0.04 3.72,0.16 4.9,0.35 1.57,0.26 2.6,-3.18 1.52,-4.02 z"
   id="path140"/>
			<path
   class="st2"
   d="m 711.79,893.83 c -3.61,-19.4 -21.72,-31.4 -31.06,-35.37 -6.38,-2.71 -9.2,-3.26 -10.21,-3.56 -1.39,-0.42 -2.38,-0.75 -3.11,-1.02 v 0 c 0.65,-4.2 5.57,-4.53 8.48,-10.55 8.23,-17.06 -8.75,-29.07 -21.37,-26.3 -5.97,1.31 -10.1,3.44 -11.01,7.99 -0.49,2.48 -2.39,2.56 -5.44,5.81 -1.01,1.07 1.21,2.79 1.57,3.5 0.1,0.2 -0.55,1.11 -0.78,2.14 -0.23,1.06 -0.02,0.85 -0.07,0.99 0,0 -0.61,0.99 -0.6,2.41 0,0 -1.52,2.7 0.06,5.85 0.01,0.05 -0.02,0.08 -0.01,0.13 0.24,0.88 1.97,2.47 2.57,6.41 0.08,0.53 0.14,0.82 -2.33,0.04 -0.56,-0.18 -23.42,-6.9 -25.96,-8.61 -2.84,-1.91 -25.48,-26.48 -27.97,-31.29 -1.37,-2.64 -2.8,-4.39 -3.52,-4.35 -5.33,0.33 3.89,9.96 -1.3,6.67 -1.33,-0.84 -5.32,-3.64 -5.61,-3.87 -1,-0.81 -0.76,-0.42 -1.49,-1.58 -0.65,-1.04 -1.08,-1.82 -1.74,-2.27 -0.59,-0.4 -0.93,-0.53 -1.34,-0.42 -0.83,0.22 -0.69,0.81 -0.9,0.86 0,0 -0.53,-0.01 -0.91,0.08 -1.34,0.32 -0.34,3.72 0.08,5.31 0.09,0.34 3.47,8.91 4.83,10.34 5.77,3.99 11.49,7.35 11.67,7.57 6.23,7.23 13.55,16.27 20.08,23.15 5.2,5.47 28.96,19.28 29.76,19.75 1.56,0.93 4.04,6.01 0.48,42.27 -1.34,13.66 -11.07,42.68 -6.46,57.68 3.01,9.79 6.46,16.45 9.9,42.81 0.78,5.95 -3.85,9.56 -10.46,14.35 -2.59,1.87 -9.85,6.35 -10.58,7.02 -1.22,1.11 -0.09,2.89 1.5,3.54 1.54,0.64 4.44,2.28 6.1,2.59 2.76,0.51 7.02,0.18 11.26,-2.2 4.82,-2.71 5.24,-3.15 8.08,-4.86 3.26,-1.97 7.21,-2.59 8.23,-5.93 1.35,-4.42 -2.38,-10.78 -2.01,-13.66 2.7,-20.77 6.3,-31.05 1.06,-43.78 -1.05,-2.55 7.58,-30.28 8.25,-26.56 1.33,7.33 1.86,29.06 2.09,45.23 0.1,7.07 5.8,32.16 7.62,41.16 2.82,13.94 -20.63,24.97 -15.48,29.06 1.16,0.92 4.04,2.29 6.98,2.75 3.21,0.49 5.83,-0.12 8.49,-1.02 1.59,-0.54 4.24,-3.55 4.78,-4.22 4.99,-6.2 3.46,-4.48 7.4,-8.91 3.4,-3.83 0.95,-10.42 0.52,-13.88 -0.88,-7.05 -0.13,-8.92 -0.2,-21.6 -0.08,-14.7 0.88,-18.88 1.7,-24.3 3.68,-24.29 5.95,-37.52 7.09,-47.85 l 0.1,-0.59 c 0,0 1.76,0.64 2.54,-0.64 1.27,-2.08 1.13,-4.25 1.42,-5.61 0.29,-1.36 0.85,0.39 0.85,0.39 0,0 1.24,3.32 1.21,4.4 -0.06,1.72 -1.12,3.59 -1.95,5.98 -0.95,2.72 1.44,3.16 2.06,3.39 0.62,0.22 7.85,-4.93 8.82,-7.01 0.97,-2.08 0.94,-4.86 1,-6.34 0.14,-3.66 -1.98,-13.83 -1.98,-13.83 2.21,-7.13 8.13,-24.78 7.22,-29.64 z m -16.59,28.05 c -0.79,3.44 -1.01,0.15 -4.27,12.99 l 0.36,-1.84 c 0.07,-1.8 0.11,-3.6 0.1,-5.46 -0.03,-15.9 -12.17,-49.7 -4.8,-42.62 0.04,0.04 8.87,6.18 10.58,10.88 1.35,3.67 0.83,13.82 -1.97,26.05 z"
   id="path142"/>
			<path
   class="st1"
   d="m 398.95,959.81 c -2.87,-2.39 -12.32,-15.49 -18.56,-20.64 -4.23,-4.35 -5.18,-6.65 -8.62,-11.23 -11.32,-15.07 -13.76,-15.94 -21.7,-17.28 -1.61,-1.08 -1.08,-2.31 -0.92,-2.38 10.34,-3.85 6.86,-12.79 6.78,-13.15 -0.47,-1.96 0.86,-2.83 0.83,-4.64 -0.06,-2.95 -0.63,-5.38 -1.48,-7.44 0.4,-1.36 0.56,-3.33 -0.91,-5.2 -5.47,-6.98 -19.29,-7.33 -26.5,-2.36 -5.78,3.98 -2.38,6.76 -4.17,12.41 -1.06,3.35 0.01,6.46 2.34,8.88 0.29,1.87 5.97,5.48 4.85,9.54 -1.14,4.15 -7.77,5 -7.7,5.01 -0.77,0.2 -1.47,0.44 -2.04,0.77 -10.58,6.05 -20.85,14.82 -22.11,24.48 0.58,7.78 12.63,19.01 20.39,25.07 1.12,13.26 9.54,33.57 9.92,34.36 1.15,2.43 -2.38,-1.82 -10.85,-4.7 -4.1,-1.4 -9.53,-7.01 -10.71,-0.41 -0.49,2.75 0.69,7.53 -1.9,13.44 -1.98,4.53 0.32,11.74 5.3,11.6 3.61,-0.11 5.74,-11.08 5.74,-11.08 0,0 17.4,8.67 25.7,5.78 4.87,-1.69 5.96,-21.09 1.18,-38.39 -1.68,-6.07 3.12,9.86 14.76,23.9 2.57,3.1 0.31,5.53 2.01,17.1 0.63,4.3 0.67,5.49 0.56,7.43 -0.31,5.6 -5.65,12.21 6.55,15.35 12.45,3.21 11.45,6.11 19.23,0.89 3.5,-2.34 -10.73,-3.79 -13.51,-12.22 -0.08,-0.23 -0.29,-1.31 -0.32,-1.82 -0.34,-6.65 2.68,-22 1.78,-27.35 -4.43,-26.31 -15.5,-38.47 -16.9,-44.62 -0.12,-18.35 -1.32,-24.11 0.41,-19.98 0.37,0.87 4.16,7.29 8,12.16 l -0.07,0.03 c 0.4,0.52 0.9,1.08 1.44,1.65 1.18,1.36 2.32,2.47 3.33,3.16 7.66,6.71 19.86,14.72 21.5,16.46 0,0 0.91,8.09 4.25,7.49 2.94,-0.53 17.63,-6.93 17.35,-8.56 -0.55,-3.16 -14.71,-3.08 -15.23,-3.51 z m -79.68,-10.19 c -2.23,-4.26 -8.27,-12.18 -7.85,-13.48 3.37,-5.45 6.99,-7.15 8.08,-6.79 0.92,0.29 -0.23,20.27 -0.23,20.27 z"
   id="path144"/>
			<path
   class="st1"
   d="m 641.73,1108.6 c -0.63,-0.33 -9.25,-3.52 -16.86,-15.69 -3.42,-5.47 -28.99,-52.86 -32.48,-62.11 -6.92,-18.31 -60.88,-51.22 -63.2,-53.12 -1.61,-1.32 -1.41,-4.5 -0.79,-6.57 4.55,-15.39 2.75,-29.18 3.63,-31.26 2.21,-5.23 5.62,-12.85 3.07,-17.8 l -5.58,-8.8 c 0,0 28.58,10.32 35.22,8.89 5.69,-1.23 34.45,-20.97 35.96,-21.82 3.99,-2.04 13.54,0.95 23.19,-9.57 3.63,-3.96 1,-5.33 0.34,-4.63 0.14,-0.3 -1.63,-1.86 -3.32,-0.89 -2.3,1.32 -10.24,3.61 -8.78,2.52 5.77,-4.32 1.77,-5.62 1.77,-5.62 -2.52,2.09 -13.98,4.98 -16.21,6.81 -2.61,2.15 -4.33,3.98 -5.66,4.72 -7.05,3.9 -18.84,9.69 -30.78,12.35 -2.42,0.54 -25.21,-14.34 -38.4,-16.36 -7.11,-1.09 -9.63,-0.58 -13.51,0.51 -4.71,1.33 -4.33,-5.48 -0.84,-7.11 1.82,-0.85 4.88,-1.41 5.99,-3.72 1.4,-2.89 -0.26,-5.39 -0.2,-5.74 0.04,-0.33 0.25,-0.57 -0.19,-1.62 -0.34,-0.8 -0.29,-0.38 -0.18,-1.17 0.09,-0.69 -0.35,-1.07 -0.55,-1.73 -0.11,-0.35 -0.01,-1.37 0.19,-1.53 2.82,-2.32 1.6,-3.39 1.22,-3.73 -0.8,-0.72 -4.96,-2.53 -5.33,-5.37 -0.58,-4.5 -2.09,-6.74 -2.81,-8.84 -0.29,-0.83 -0.76,-5.97 -3.03,-8.05 -2.78,-2.53 -8.61,-5.66 -21.2,-2.23 -4.04,1.1 -3.3,3.04 -13.42,4.92 -12.12,2.25 -18.79,20.25 -17.7,27.75 0.88,6.04 6.07,3.11 5.85,5.79 -0.35,4.17 -0.77,11 8.09,13.65 1.9,0.57 13.5,-1.29 17.92,-0.51 0,0 3.58,0.29 1.79,3.88 -0.89,1.78 -12.5,6.39 -15.38,7.59 -7.56,3.15 -27.1,35.21 -33.04,38.22 -5.12,2.6 -8.13,4.46 -9.85,5.78 -8.05,5.04 -15.88,11.23 -20.19,11.05 -5.76,-0.37 -10.45,2.42 -14.3,10.98 -1.13,2.52 -0.48,3.84 1.62,4.37 0.78,0.77 1.97,1.92 3.55,1.83 1.74,1.59 3.67,0.58 5.12,-0.21 4.53,-2.46 5.52,-4.39 7.32,-5.1 4.41,-1.45 30.48,-11.51 36.26,-15.99 8.79,-4.82 26.52,-23 30.56,-23.22 3.55,-0.19 12.54,7.8 9.72,23.13 -0.96,5.23 -7.51,14.69 -11.14,20.19 -7.2,10.91 -1.62,20.42 -3.05,22.74 -7.45,12.16 -16.68,28.4 -32.06,42.29 -6,3.91 -18.69,4.8 -25.38,6.77 -15.41,4.52 -31.81,15.57 -43.5,22.12 -3.88,2.17 -7.6,-2.48 -12.46,-3.04 -4.68,-0.54 -5.3,6.8 -7.79,13.49 -0.77,2.05 -1.11,3.01 -4.83,11.24 -1.45,3.21 -5.31,13.11 -1.43,17.21 3.54,4.93 11.98,-10.52 18.47,-18.03 3.45,-3.99 5.58,-5.3 13.04,-7.02 4.78,-1.11 42.51,-11.33 67.43,-16.81 0.61,-0.11 1.27,-0.25 1.98,-0.44 32.39,-8.42 65.93,-50.68 66.38,-50.48 l 54.97,27.24 c 5.56,2.98 5.59,13.69 12.15,25.9 3.95,7.36 9.72,13.8 33.34,36.85 3.01,2.94 0.54,7.86 1.91,12.42 1.47,4.89 3.77,5 8.18,4.63 4.1,-0.38 7.78,-1 11.88,-1.25 5.24,-0.32 3.83,0.24 9.93,1.14 2.98,0.44 9.76,1.41 14.54,-3.34 8.59,-8.56 -9.08,-4.24 -17.16,-8.45 z"
   id="path146"/>
			<path
   class="st1"
   d="m 582.06,1084.76 c -0.84,-1.65 -2.86,-2.31 -4.5,-1.47 l 0.02,-0.06 c -23.49,11.93 -49.83,18.26 -76.36,18.26 -29.56,0 -58.64,-7.75 -84.11,-22.41 -1.6,-0.93 -3.66,-0.37 -4.58,1.23 -0.92,1.6 -0.37,3.65 1.23,4.58 26.49,15.25 56.73,23.3 87.46,23.3 27.59,0 55.01,-6.57 79.45,-18.98 1.58,-0.87 2.21,-2.83 1.39,-4.45 z"
   id="path148"/>
			<path
   class="st1"
   d="m 344.34,864.82 c -0.46,0 -0.93,-0.1 -1.38,-0.3 -1.69,-0.76 -2.43,-2.75 -1.66,-4.44 15.12,-33.29 39.84,-60.66 71.47,-79.14 1.6,-0.94 3.65,-0.39 4.58,1.2 0.93,1.6 0.4,3.65 -1.2,4.58 -30.43,17.78 -54.2,44.11 -68.75,76.13 -0.57,1.24 -1.78,1.97 -3.06,1.97 z"
   id="path150"/>
			<path
   class="st1"
   d="m 630.26,821.94 c -0.93,0 -1.85,-0.38 -2.51,-1.13 -26.67,-30.15 -63.18,-49.82 -102.83,-55.39 -1.83,-0.26 -3.11,-1.95 -2.85,-3.79 0.26,-1.83 1.96,-3.1 3.78,-2.85 41.22,5.79 79.19,26.24 106.91,57.59 1.23,1.39 1.1,3.5 -0.29,4.73 -0.62,0.56 -1.42,0.84 -2.21,0.84 z"
   id="path152"/>
		</g>
	</g>
</svg>
