<?xml version="1.0" encoding="UTF-8"?>
<!--
Soliguide: Useful information for those who need it

SPDX-FileCopyrightText: © 2025 Solinum

SPDX-License-Identifier: AGPL-3.0-only

This program is free software: you can redistribute it and/or modify
it under the terms of the GNU Affero General Public License as published
by the Free Software Foundation, either version 3 of the License, or
(at your option) any later version.

This program is distributed in the hope that it will be useful,
but WITHOUT ANY WARRANTY; without even the implied warranty of
MERCHANTABILITY or FITNESS FOR A PARTICULAR PURPOSE.  See the
GNU Affero General Public License for more details.

You should have received a copy of the GNU Affero General Public License
along with this program.  If not, see <https://www.gnu.org/licenses/>.
-->
<svg xmlns="http://www.w3.org/2000/svg" xmlns:xlink="http://www.w3.org/1999/xlink" version="1.1" id="logo" x="0px" y="0px" viewBox="0 0 127 45" style="enable-background:new 0 0 127 45;" xml:space="preserve" width="400"  height="141.73228346456693" >
<style type="text/css">
	.st0{fill:#283276;}
	.st1{fill:#F29FC5;}
	.st2{fill:#008ECF;}
	.st3{fill:#E1000F;}
	.st4{fill:#FFE000;}
</style>
<path class="st0" d="M40.7,31.9c0,2.1-1.7,3.8-3.8,3.8c-2.1,0-3.8-1.7-3.8-3.8c0-2.1,1.7-3.8,3.8-3.8C39,28.1,40.7,29.8,40.7,31.9z"/>
<path class="st1" d="M15.9,17.8c0,2.1-1.7,3.8-3.8,3.8s-3.8-1.7-3.8-3.8c0-2.1,1.7-3.8,3.8-3.8S15.9,15.7,15.9,17.8z"/>
<path class="st2" d="M33.6,27.8c0,2.1-1.7,3.8-3.8,3.8s-3.8-1.7-3.8-3.8c0-2.1,1.7-3.8,3.8-3.8S33.6,25.7,33.6,27.8z"/>
<path class="st1" d="M24.5,32.3c0,2.1-1.7,3.8-3.8,3.8s-3.8-1.7-3.8-3.8c0-2.1,1.7-3.8,3.8-3.8S24.5,30.3,24.5,32.3z"/>
<path class="st0" d="M24.5,41.2c0,2.1-1.7,3.8-3.8,3.8s-3.8-1.7-3.8-3.8s1.7-3.8,3.8-3.8S24.5,39.1,24.5,41.2z"/>
<path class="st0" d="M40.7,13.1c0,2.1-1.7,3.8-3.8,3.8c-2.1,0-3.8-1.7-3.8-3.8c0-2.1,1.7-3.8,3.8-3.8C39,9.4,40.7,11.1,40.7,13.1z"/>
<path class="st0" d="M33.6,17.8c0,2.1-1.7,3.8-3.8,3.8s-3.8-1.7-3.8-3.8c0-2.1,1.7-3.8,3.8-3.8S33.6,15.7,33.6,17.8z"/>
<path class="st0" d="M15.3,28.1c0,2.1-1.7,3.8-3.8,3.8c-2.1,0-3.8-1.7-3.8-3.8c0-2.1,1.7-3.8,3.8-3.8C13.6,24.3,15.3,26,15.3,28.1z"/>
<path class="st0" d="M8.1,12.3c0.4,2-0.8,4-2.9,4.5c-2,0.4-4-0.8-4.5-2.9c-0.4-2,0.8-4,2.9-4.5S7.7,10.3,8.1,12.3z"/>
<path class="st3" d="M7.8,20.5c-0.2,1.2-1.3,2-2.4,1.8c-1.2-0.2-2-1.3-1.8-2.4c0.2-1.2,1.3-2,2.4-1.8C7.1,18.2,7.9,19.3,7.8,20.5z"/>
<path class="st3" d="M29.4,36c-0.2,1.3-1.4,2.3-2.8,2.1c-1.3-0.2-2.3-1.4-2.1-2.8c0.2-1.3,1.4-2.3,2.8-2.1  C28.6,33.4,29.6,34.7,29.4,36z"/>
<path class="st3" d="M36.7,20.4c-0.1,0.8-0.9,1.4-1.7,1.3c-0.8-0.1-1.4-0.9-1.3-1.7c0.1-0.8,0.9-1.4,1.7-1.3  C36.2,18.8,36.8,19.6,36.7,20.4z"/>
<path class="st3" d="M22,13.4c-0.2,1.2-1.3,2-2.4,1.8c-1.2-0.2-2-1.3-1.8-2.4c0.2-1.2,1.3-2,2.4-1.8C21.4,11.1,22.2,12.2,22,13.4z"/>
<path class="st1" d="M28.2,10.6c-0.2,1.2-1.3,2-2.4,1.8c-1.2-0.2-2-1.3-1.8-2.4c0.2-1.2,1.3-2,2.4-1.8C27.5,8.3,28.4,9.4,28.2,10.6z  "/>
<path class="st4" d="M14.2,34.2c-0.2,1.2-1.3,2-2.4,1.8c-1.2-0.2-2-1.3-1.8-2.4c0.2-1.2,1.3-2,2.4-1.8C13.6,31.9,14.4,33,14.2,34.2z  "/>
<path class="st4" d="M35.3,24.5c-0.2,1.2-1.3,2-2.4,1.8c-1.2-0.2-2-1.3-1.8-2.4c0.2-1.2,1.3-2,2.4-1.8  C34.7,22.3,35.5,23.4,35.3,24.5z"/>
<path class="st0" d="M32.9,34.5c0.6,1,0.3,2.3-0.7,3c-1,0.6-2.3,0.3-3-0.7s-0.3-2.3,0.7-3C30.9,33.2,32.2,33.5,32.9,34.5z"/>
<path class="st4" d="M16.5,9.3c-0.2,1.2-1.3,2-2.4,1.8c-1.2-0.2-2-1.3-1.8-2.4c0.2-1.2,1.3-2,2.4-1.8C15.8,7.1,16.7,8.2,16.5,9.3z"/>
<path class="st2" d="M24.7,4c0,2.2-1.8,4-4,4s-4-1.8-4-4s1.8-4,4-4C22.9,0,24.7,1.8,24.7,4z"/>
<path class="st2" d="M8.2,31.9c0,2.1-1.7,3.8-3.8,3.8S0.7,34,0.7,31.9s1.7-3.8,3.8-3.8S8.2,29.8,8.2,31.9z"/>
<path class="st2" d="M26.8,21.7c0,3.6-2.9,6.6-6.6,6.6s-6.6-2.9-6.6-6.6s2.9-6.6,6.6-6.6S26.8,18.1,26.8,21.7z"/>
<path class="st0" d="M49.6,8.7h6.6v1.7h-4.7v3.4h4v1.7h-4v5.2h-1.9V8.7z"/>
<path class="st0" d="M57.8,12.1h1.8v1c0.6-0.7,1.3-1.1,2.4-1.1c0.3,0,0.5,0.1,0.8,0.1v1.7c-0.3-0.1-0.5-0.1-0.9-0.1  c-1.1,0-1.8,0.6-2.2,1.3v5.7h-1.8V12.1z"/>
<path class="st0" d="M63.7,18.4c0-1.3,1-2.2,2.8-2.5l2.8-0.5V15c0-1.1-0.8-1.7-1.9-1.7c-0.9,0-1.7,0.4-2.2,1.1l-1.3-1  c0.8-1,2-1.7,3.5-1.7c2.3,0,3.6,1.4,3.6,3.3v5.7h-1.8v-1c-0.6,0.8-1.7,1.2-2.7,1.2C64.9,20.9,63.7,20,63.7,18.4z M66.9,19.5  c1.1,0,1.9-0.5,2.4-1.3v-1.5L67,17.1c-1.1,0.2-1.5,0.6-1.5,1.3C65.5,19,66,19.5,66.9,19.5z"/>
<path class="st0" d="M73.6,12.1h1.8v0.8c0.6-0.7,1.5-1.2,2.7-1.2c1.9,0,3.3,1.3,3.3,3.8v5.2h-1.8v-5.1c0-1.4-0.8-2.2-2-2.2  c-1.2,0-1.9,0.7-2.3,1.5v5.8h-1.8V12.1z"/>
<path class="st0" d="M90.3,18.2l1.4,1.1c-0.8,1.1-2,1.7-3.6,1.7c-2.9,0-4.7-2.1-4.7-4.6s1.8-4.6,4.7-4.6c1.6,0,2.8,0.7,3.6,1.7  l-1.4,1.1c-0.5-0.7-1.3-1.1-2.2-1.1c-1.7,0-2.8,1.3-2.8,3c0,1.7,1.2,3,2.9,3C89.1,19.4,89.9,18.9,90.3,18.2z"/>
<path class="st0" d="M97.5,21c-3,0-4.7-2.1-4.7-4.6c0-2.6,1.6-4.6,4.4-4.6c2.4,0,3.9,1.6,3.9,3.8c0,0.4-0.1,0.8-0.1,1h-6.3  c0.1,1.9,1.3,2.8,2.9,2.8c1,0,1.9-0.5,2.4-1.2l1.3,1C100.4,20.3,99.1,21,97.5,21z M94.7,15.3h4.6c0-1.1-0.8-2.1-2.2-2.1  C95.9,13.2,95,13.9,94.7,15.3z"/>
<path class="st0" d="M48.3,24.1h9.6v1.8h-3.8V36h-2V25.9h-3.8V24.1z"/>
<path class="st0" d="M58.7,27.4h1.8v1c0.6-0.7,1.3-1.1,2.4-1.1c0.3,0,0.5,0.1,0.8,0.1v1.7C63.4,29,63.1,29,62.7,29  c-1.1,0-1.8,0.6-2.2,1.3V36h-1.8V27.4z"/>
<path class="st0" d="M64.7,33.8c0-1.3,1-2.2,2.8-2.5l2.8-0.5v-0.4c0-1.1-0.8-1.7-1.9-1.7c-0.9,0-1.7,0.4-2.2,1.1l-1.3-1  c0.8-1,2-1.7,3.5-1.7c2.3,0,3.6,1.4,3.6,3.3V36h-1.8v-1c-0.6,0.8-1.7,1.2-2.7,1.2C65.8,36.3,64.7,35.3,64.7,33.8z M67.9,34.8  c1.1,0,1.9-0.5,2.4-1.3V32L68,32.4c-1.1,0.2-1.5,0.6-1.5,1.3C66.5,34.4,67,34.8,67.9,34.8z"/>
<path class="st0" d="M75.3,27.4l2.5,6.7l2.5-6.7h1.9L79,36h-2.3l-3.2-8.6H75.3z"/>
<path class="st0" d="M83.2,33.8c0-1.3,1-2.2,2.8-2.5l2.8-0.5v-0.4c0-1.1-0.8-1.7-1.9-1.7c-0.9,0-1.7,0.4-2.2,1.1l-1.3-1  c0.8-1,2-1.7,3.5-1.7c2.3,0,3.6,1.4,3.6,3.3V36h-1.8v-1c-0.6,0.8-1.7,1.2-2.7,1.2C84.3,36.3,83.2,35.3,83.2,33.8z M86.4,34.8  c1.1,0,1.9-0.5,2.4-1.3V32l-2.3,0.4c-1.1,0.2-1.5,0.6-1.5,1.3C85,34.4,85.5,34.8,86.4,34.8z"/>
<path class="st0" d="M95,27.4h-1.8V36H95V27.4z"/>
<path class="st0" d="M99.7,23.2h-1.8V36h1.8V23.2z"/>
<path class="st0" d="M93.1,24.8c0-0.6,0.5-1,1-1c0.6,0,1,0.5,1,1c0,0.6-0.5,1-1,1S93.1,25.4,93.1,24.8z"/>
</svg>