<?xml version="1.0" encoding="UTF-8" standalone="no"?>
<svg
   xmlns:dc="http://purl.org/dc/elements/1.1/"
   xmlns:cc="http://creativecommons.org/ns#"
   xmlns:rdf="http://www.w3.org/1999/02/22-rdf-syntax-ns#"
   xmlns:svg="http://www.w3.org/2000/svg"
   xmlns="http://www.w3.org/2000/svg"
   xmlns:sodipodi="http://sodipodi.sourceforge.net/DTD/sodipodi-0.dtd"
   xmlns:inkscape="http://www.inkscape.org/namespaces/inkscape"
   version="1.0"
   width="4981.6147pt"
   height="4979.1616pt"
   viewBox="0 0 4981.6147 4979.1616"
   preserveAspectRatio="xMidYMid meet"
   id="svg18"
   sodipodi:docname="Medecins_du_monde.svg"
   inkscape:version="0.92.4 (5da689c313, 2019-01-14)">
  <defs
     id="defs22" />
  <sodipodi:namedview
     pagecolor="#ffffff"
     bordercolor="#666666"
     borderopacity="1"
     objecttolerance="10"
     gridtolerance="10"
     guidetolerance="10"
     inkscape:pageopacity="0"
     inkscape:pageshadow="2"
     inkscape:window-width="1920"
     inkscape:window-height="1001"
     id="namedview20"
     showgrid="false"
     inkscape:pagecheckerboard="true"
     inkscape:snap-global="true"
     fit-margin-top="0"
     fit-margin-left="0"
     fit-margin-right="0"
     fit-margin-bottom="0"
     inkscape:zoom="0.048045603"
     inkscape:cx="5728.4398"
     inkscape:cy="1696.2941"
     inkscape:window-x="-9"
     inkscape:window-y="-9"
     inkscape:window-maximized="1"
     inkscape:current-layer="svg18" />
  <metadata
     id="metadata2">
Created by potrace 1.11, written by Peter Selinger 2001-2013
<rdf:RDF>
  <cc:Work
     rdf:about="">
    <dc:format>image/svg+xml</dc:format>
    <dc:type
       rdf:resource="http://purl.org/dc/dcmitype/StillImage" />
    <dc:title />
  </cc:Work>
</rdf:RDF>
</metadata>
  <ellipse
     style="fill:#ffffff;fill-opacity:1;stroke:#ffffff;stroke-width:0.70519865;stroke-opacity:1"
     id="path15"
     cx="2513.2371"
     cy="2475.8025"
     rx="2335.7009"
     ry="2242.1545" />
  <g
     transform="matrix(0.29789732,0,0,-0.29789732,-301.53082,5247.8565)"
     id="g16"
     style="fill:#000000;stroke:none">
    <path
       d="M 9040,17614 C 8378,17577 7875,17504 7317,17364 4852,16746 2783,15004 1734,12664 934,10877 793,8828 1341,6925 1649,5855 2207,4797 2912,3947 3265,3522 3676,3113 4090,2775 5165,1898 6456,1296 7815,1040 8380,933 8849,895 9492,903 c 417,5 589,16 928,58 2251,279 4277,1460 5655,3294 1292,1719 1865,3897 1594,6055 -207,1656 -902,3199 -2010,4465 -160,183 -505,531 -694,700 -771,692 -1647,1228 -2603,1595 -763,292 -1538,464 -2392,530 -136,11 -809,21 -930,14 z m -94,-1240 32,-6 7,-190 c 4,-104 5,-191 4,-193 -2,-2 -29,1 -59,7 -31,6 -117,8 -195,5 -410,-15 -549,-160 -515,-534 30,-321 112,-553 224,-634 66,-48 133,-62 265,-56 135,6 252,36 374,96 57,28 80,36 83,26 3,-7 25,-84 49,-171 32,-113 41,-161 34,-170 -16,-20 -186,-101 -270,-128 -131,-44 -246,-59 -414,-54 -130,4 -161,8 -230,32 -273,94 -443,321 -528,706 -39,176 -50,291 -44,467 5,175 19,245 72,358 116,252 341,390 730,449 38,6 340,-2 381,-10 z m 999,-7 170,-12 2,-35 c 4,-50 -132,-1889 -140,-1896 -6,-7 -436,21 -441,28 -3,4 134,1909 139,1924 2,7 21,10 52,7 26,-3 125,-10 218,-16 z m 1208,-176 c 92,-32 169,-60 171,-62 4,-3 323,-1154 366,-1319 l 12,-45 92,270 c 51,149 137,397 190,552 l 98,281 177,-60 c 97,-34 180,-64 184,-68 7,-6 -614,-1815 -629,-1829 -11,-11 -292,91 -297,108 -2,9 -88,306 -191,661 -103,355 -196,672 -205,705 l -17,60 -18,-55 c -39,-116 -378,-1095 -381,-1098 -2,-2 -86,25 -187,61 -129,45 -182,68 -180,78 3,13 605,1750 623,1797 5,12 12,22 16,22 5,0 84,-26 176,-59 z m -4075,-556 c -2,-1 -172,-83 -378,-180 -206,-98 -377,-180 -379,-182 -7,-5 156,-338 165,-336 5,1 148,67 317,148 170,80 313,145 318,143 10,-3 149,-285 149,-303 0,-5 -62,-39 -138,-75 -75,-35 -219,-104 -319,-152 l -182,-87 89,-188 c 50,-103 91,-191 93,-196 1,-5 184,77 406,183 221,105 404,190 405,188 1,-2 37,-81 79,-176 l 76,-174 -102,-48 c -56,-27 -325,-154 -597,-284 l -495,-236 -22,43 c -60,118 -813,1710 -811,1713 2,1 262,126 578,277 l 575,273 88,-174 c 49,-96 87,-175 85,-177 z m 6367,-555 c 44,-11 113,-37 154,-57 164,-81 390,-284 501,-451 l 51,-75 -132,-126 c -73,-69 -136,-126 -140,-126 -4,0 -32,34 -64,75 -161,211 -370,370 -486,370 -77,0 -149,-70 -149,-145 1,-60 38,-140 138,-292 146,-225 198,-340 209,-468 10,-129 -31,-248 -129,-372 -149,-188 -369,-263 -600,-204 -252,65 -548,314 -684,578 l -39,75 135,129 c 74,71 137,129 140,129 3,-1 27,-40 54,-89 126,-226 344,-422 489,-438 59,-7 125,23 163,73 60,79 37,161 -115,397 -178,276 -228,439 -186,602 51,195 230,375 418,421 79,19 184,17 272,-6 z m -8233,-386 c 77,-20 192,-77 288,-145 96,-67 317,-288 401,-401 244,-328 273,-621 88,-903 -66,-102 -119,-157 -447,-467 l -286,-271 -20,25 c -12,14 -309,330 -661,703 -352,373 -641,681 -643,685 -4,12 571,553 655,616 216,163 414,213 625,158 z m 4708,-1349 c 954,-118 1810,-534 2480,-1205 258,-257 540,-619 540,-692 0,-38 -23,-81 -56,-107 -32,-25 -109,-29 -140,-7 -11,8 -59,68 -106,133 -251,347 -596,688 -938,929 -520,366 -1135,606 -1765,688 -545,72 -1124,25 -1649,-134 -391,-118 -702,-264 -1051,-495 -751,-498 -1297,-1218 -1579,-2082 -195,-600 -242,-1286 -130,-1903 101,-558 297,-1043 609,-1510 757,-1134 2060,-1804 3415,-1756 915,32 1675,305 2345,840 125,101 370,339 485,472 351,407 632,904 798,1414 41,126 242,818 242,834 0,23 -271,51 -500,51 -265,0 -264,1 -387,-139 -260,-293 -585,-502 -905,-580 -136,-33 -226,-42 -648,-62 -195,-9 -356,-18 -358,-19 -2,-2 17,-63 42,-135 262,-751 162,-1351 -275,-1663 -87,-61 -251,-139 -363,-172 -84,-24 -133,-28 -874,-70 -432,-25 -787,-43 -789,-42 -1,2 10,62 27,133 75,332 81,485 46,1149 -14,270 -28,526 -31,570 l -6,80 -417,-22 c -229,-12 -456,-22 -503,-22 -249,-2 -496,96 -683,271 -167,156 -272,356 -310,594 -10,59 -30,376 -51,784 -19,377 -36,709 -39,738 -3,28 -1,52 4,52 5,0 29,-14 54,-31 73,-49 206,-107 307,-134 163,-43 251,-48 564,-30 154,9 432,24 617,33 186,10 340,21 344,25 12,12 -65,1415 -82,1497 -28,133 -80,246 -181,393 -49,71 -52,77 -31,77 13,0 136,7 273,15 664,40 1334,75 1419,75 338,0 597,-171 763,-505 102,-204 118,-289 143,-765 26,-479 25,-545 -12,-619 l -26,-54 73,6 c 88,6 167,37 265,102 41,27 125,75 187,107 552,279 1144,202 1543,-203 136,-138 254,-340 300,-514 22,-86 45,-275 37,-306 -4,-16 11,-28 86,-66 183,-91 333,-212 408,-326 l 37,-57 52,157 c 204,616 409,982 690,1229 166,146 404,281 633,359 122,41 149,41 202,-7 40,-35 52,-81 35,-132 -16,-49 -43,-68 -152,-105 -390,-135 -647,-344 -857,-697 -160,-268 -271,-576 -545,-1519 -150,-518 -225,-723 -369,-1010 -380,-762 -960,-1382 -1662,-1780 -468,-266 -980,-430 -1565,-501 -182,-22 -663,-30 -857,-15 -1032,83 -1968,523 -2690,1265 -591,606 -976,1355 -1127,2186 -49,267 -60,412 -60,750 0,338 11,483 60,750 255,1404 1205,2587 2520,3139 397,166 868,279 1309,315 129,10 686,-2 815,-19 z m -6861,-205 c 18,-113 34,-214 37,-225 3,-13 -24,-65 -76,-150 -44,-71 -84,-133 -89,-138 -11,-11 -183,293 -176,312 15,39 259,421 265,414 4,-4 22,-100 39,-213 z m 566,23 163,-96 -38,-61 c -21,-34 -122,-196 -224,-361 l -186,-299 73,-46 c 140,-89 247,-153 251,-149 2,2 85,137 186,299 100,162 184,297 186,299 1,2 70,-38 153,-89 l 150,-93 -33,-51 c -105,-166 -338,-546 -338,-553 -1,-9 354,-232 362,-228 3,2 109,170 235,374 127,204 233,371 237,371 8,0 296,-185 311,-200 7,-6 -595,-992 -678,-1112 -11,-16 -92,32 -831,491 -548,340 -819,514 -818,525 2,20 656,1075 668,1076 5,0 82,-43 171,-97 z m 11967,-686 c 90,-297 79,-646 -28,-860 -73,-145 -195,-289 -340,-403 -80,-62 -225,-154 -245,-154 -13,0 -27,38 -57,165 -24,100 -26,128 -26,315 0,195 1,209 28,295 80,261 268,484 556,659 41,25 79,44 85,42 5,-1 17,-28 27,-59 z m -1219,-191 c 47,-70 129,-235 155,-311 80,-236 89,-447 25,-650 -53,-170 -192,-392 -326,-524 l -56,-54 -41,64 c -58,89 -133,248 -164,348 -108,343 -55,646 165,954 60,85 185,227 198,227 5,0 24,-24 44,-54 z m 2305,-792 c 110,-19 202,-45 202,-57 0,-21 -105,-192 -169,-274 -251,-325 -566,-463 -966,-424 -115,11 -307,50 -323,65 -10,11 63,146 130,240 194,274 440,429 738,465 92,12 276,4 388,-15 z M 3395,11034 c 517,-65 944,-120 948,-124 7,-6 -36,-387 -44,-394 -3,-3 -729,87 -1124,139 -49,6 -46,5 80,-63 72,-39 321,-176 555,-305 l 425,-234 -3,-64 c -1,-35 -8,-102 -15,-149 l -12,-84 -225,-58 c -124,-32 -400,-103 -615,-157 -345,-88 -384,-100 -345,-105 25,-3 288,-36 585,-73 297,-36 541,-67 542,-68 5,-3 -45,-376 -50,-382 -5,-5 -1917,233 -1922,239 -5,6 57,473 63,479 7,6 548,146 1111,289 l 264,67 -114,60 c -108,58 -1132,622 -1135,626 -1,1 11,101 27,222 15,121 28,228 29,238 0,9 8,17 18,17 9,0 440,-52 957,-116 z m 12375,-674 c 184,-21 359,-87 486,-183 82,-62 198,-186 263,-282 56,-80 161,-277 161,-300 0,-18 -15,-22 -142,-41 -197,-29 -440,-11 -598,44 -223,78 -418,249 -565,497 -55,93 -105,198 -105,221 0,36 320,65 500,44 z m -985,-361 c 415,-106 676,-335 800,-704 32,-96 61,-237 71,-344 l 7,-83 -64,7 c -98,11 -276,60 -377,103 -387,167 -598,475 -652,954 -6,49 -8,93 -6,97 7,10 123,-6 221,-30 z m -215,-2674 c 94,-47 170,-87 170,-90 0,-3 -86,-170 -190,-372 -105,-202 -189,-371 -187,-376 1,-4 75,-46 164,-92 l 162,-84 74,142 c 41,78 114,219 162,312 49,94 90,172 92,175 5,5 313,-151 313,-158 0,-2 -72,-142 -160,-312 -88,-169 -160,-312 -160,-316 0,-13 378,-206 383,-197 3,4 94,179 202,388 108,209 199,383 203,387 10,9 326,-168 329,-184 4,-24 -594,-1163 -608,-1160 -30,7 -1708,878 -1709,886 0,5 124,251 276,545 152,295 283,548 291,564 7,15 16,27 18,27 3,0 82,-38 175,-85 z M 4589,6928 c 105,-185 209,-374 231,-420 188,-403 78,-736 -335,-1012 -334,-222 -633,-317 -874,-276 -156,26 -328,144 -449,308 -45,60 -466,782 -460,787 31,25 1685,962 1689,957 3,-4 92,-159 198,-344 z m 800,-1224 161,-146 -183,-201 c -634,-698 -705,-779 -732,-835 -60,-122 -30,-227 100,-351 157,-149 288,-169 417,-62 26,21 239,250 474,509 235,260 430,472 434,472 11,0 315,-279 315,-289 0,-19 -898,-998 -963,-1049 -311,-245 -656,-185 -1002,174 -100,104 -138,156 -186,257 -51,109 -70,211 -57,317 21,166 89,286 279,497 609,675 770,852 776,852 3,1 79,-65 167,-145 z m 8503,131 c 153,-32 324,-132 508,-298 223,-200 372,-414 420,-604 24,-93 26,-225 5,-308 -21,-81 -82,-205 -144,-292 -54,-76 -628,-676 -643,-671 -15,5 -1388,1342 -1386,1349 10,26 603,619 670,669 194,146 377,196 570,155 z M 12890,4000 c 236,-473 430,-863 430,-868 0,-4 -61,-38 -136,-75 l -135,-67 -577,306 c -317,169 -611,326 -653,350 -42,24 -79,44 -83,44 -3,0 115,-243 264,-540 148,-297 270,-542 270,-545 0,-5 -335,-175 -345,-175 -6,0 -865,1717 -865,1730 0,5 73,46 162,91 l 162,81 33,-16 c 29,-14 1038,-569 1165,-640 l 46,-27 -259,514 c -142,283 -259,519 -259,523 0,10 317,172 337,173 7,1 206,-386 443,-859 z m -5508,334 c 126,-31 231,-61 233,-68 5,-13 171,-1241 181,-1333 4,-35 9,-63 13,-63 3,0 26,31 50,68 91,138 773,1082 782,1082 5,0 101,-23 212,-50 111,-28 212,-53 225,-55 12,-3 22,-12 22,-19 0,-17 -456,-1865 -461,-1870 -8,-8 -389,89 -389,99 1,13 275,1114 285,1140 4,11 -19,-18 -50,-65 -57,-84 -671,-947 -685,-963 -7,-8 -275,55 -287,67 -6,6 -149,1047 -159,1163 -4,40 -10,73 -13,73 -3,0 -68,-253 -144,-562 -75,-309 -138,-563 -140,-564 -3,-3 -370,87 -376,92 -1,1 101,423 228,938 127,514 231,937 231,940 0,9 -4,10 242,-50 z m 3067,-319 c 101,-25 216,-90 291,-165 141,-142 222,-344 271,-673 25,-169 30,-424 10,-537 -59,-335 -245,-511 -623,-591 -137,-29 -399,-33 -498,-6 -321,85 -501,344 -577,829 -25,162 -25,483 0,593 63,272 227,438 513,520 190,54 459,68 613,30 z"
       id="path4"
       inkscape:connector-curvature="0"
       style="fill:#005ea5;fill-opacity:1" />
    <path
       d="m 4925,14264 c -73,-23 -136,-69 -277,-204 l -128,-121 391,-415 c 215,-228 396,-414 403,-414 6,0 76,64 156,143 176,171 195,203 195,322 -1,70 -5,88 -32,140 -92,178 -351,448 -498,520 -86,42 -143,50 -210,29 z"
       id="path6"
       inkscape:connector-curvature="0"
       style="fill:#005ea5;fill-opacity:1" />
    <path
       d="m 12148,9810 c -46,-14 -85,-48 -107,-93 -26,-54 -27,-99 -1,-152 76,-156 311,-118 328,53 6,65 -11,114 -53,151 -50,44 -110,58 -167,41 z"
       id="path8"
       inkscape:connector-curvature="0"
       style="fill:#005ea5;fill-opacity:1" />
    <path
       d="m 3775,6419 c -258,-149 -480,-275 -492,-282 -21,-12 -19,-15 71,-172 144,-249 211,-308 345,-307 86,0 191,35 338,112 386,202 504,362 420,569 -34,84 -187,351 -201,350 -6,0 -222,-122 -481,-270 z"
       id="path10"
       inkscape:connector-curvature="0"
       style="fill:#005ea5;fill-opacity:1" />
    <path
       d="m 13634,5392 c -71,-25 -130,-72 -272,-214 l -123,-124 173,-170 c 95,-94 281,-275 413,-403 l 240,-233 141,145 c 103,105 149,159 170,203 78,159 6,318 -258,569 -218,207 -357,272 -484,227 z"
       id="path12"
       inkscape:connector-curvature="0"
       style="fill:#005ea5;fill-opacity:1" />
    <path
       d="m 10038,3625 c -137,-27 -208,-80 -250,-182 -21,-54 -23,-72 -23,-238 1,-342 75,-623 189,-721 73,-62 186,-79 339,-50 234,45 307,180 279,518 -28,337 -91,546 -189,628 -71,58 -196,74 -345,45 z"
       id="path14"
       inkscape:connector-curvature="0"
       style="fill:#005ea5;fill-opacity:1" />
  </g>
  <path
     style="opacity:0;fill:#005ea5;fill-opacity:1;stroke-width:5.51902866"
     d="m 1161.947,1215.3523 -113.7203,-120.0388 34.6883,-32.184 c 73.2705,-67.98071 101.0492,-76.88205 150.8263,-48.3303 37.7022,21.6256 119.0447,108.0422 137.8195,146.4165 12.5302,25.6109 14.3549,34.7732 11.1636,56.0544 -3.3215,22.1495 -9.5683,31.4323 -48.3039,71.7802 -24.469,25.4875 -47.6985,46.3409 -51.6211,46.3409 -3.9227,0 -58.3062,-54.0175 -120.8524,-120.0389 z"
     id="path70"
     inkscape:connector-curvature="0" />
</svg>
