<?xml version="1.0" encoding="UTF-8"?>
<!--
Soliguide: Useful information for those who need it

SPDX-FileCopyrightText: © 2025 Solinum

SPDX-License-Identifier: AGPL-3.0-only

This program is free software: you can redistribute it and/or modify
it under the terms of the GNU Affero General Public License as published
by the Free Software Foundation, either version 3 of the License, or
(at your option) any later version.

This program is distributed in the hope that it will be useful,
but WITHOUT ANY WARRANTY; without even the implied warranty of
MERCHANTABILITY or FITNESS FOR A PARTICULAR PURPOSE.  See the
GNU Affero General Public License for more details.

You should have received a copy of the GNU Affero General Public License
along with this program.  If not, see <https://www.gnu.org/licenses/>.
-->
<svg xmlns="http://www.w3.org/2000/svg" width="212" height="63" viewBox="0 0 212 63" fill="none" class="attachment-full size-full wp-image-17689 replaced-svg">
  <path fill-rule="evenodd" clip-rule="evenodd"
    d="M201.895 15.0839C201.337 6.67415 194.259 0 185.634 0H157.927C156.538 0 155.411 1.1156 155.411 2.49232C155.411 3.86904 156.538 4.98519 157.927 4.98519H185.634C191.006 4.98519 195.509 8.72978 196.632 13.7228C196.165 13.6828 195.696 13.66 195.223 13.66H188.797H182.9H166.559C165.169 13.66 164.043 14.7761 164.043 16.1528V60.4457C164.043 61.8218 165.169 62.9383 166.559 62.9383C167.948 62.9383 169.074 61.8218 169.074 60.4457V32.3051H179.706H180.314H185.634C189.986 32.3051 194.08 30.6262 197.166 27.5727C198.174 26.5688 199.045 25.4443 199.756 24.2259C200.449 23.0359 200.981 21.7653 201.347 20.4486C202.822 21.3936 204.081 22.677 204.988 24.2276C205.973 25.9166 206.494 27.8483 206.494 29.8128C206.494 32.7946 205.321 35.6003 203.195 37.7098C201.064 39.8188 198.233 40.9799 195.223 40.9799H180.314C178.924 40.9799 177.798 42.0961 177.798 43.4728C177.798 44.8495 178.924 45.9651 180.314 45.9651H195.223C199.575 45.9651 203.669 44.2862 206.753 41.2352C209.83 38.1815 211.525 34.1252 211.525 29.8128C211.525 26.9738 210.771 24.1798 209.343 21.7314C207.603 18.7557 204.97 16.4545 201.895 15.0839M195.399 21.7325C194.907 22.5753 194.302 23.3564 193.606 24.0498C191.475 26.1588 188.643 27.3199 185.634 27.3199H180.314H179.706H169.074V18.6451H182.9H188.797H195.223C195.685 18.6451 196.142 18.6768 196.593 18.7324C196.342 19.7819 195.945 20.7952 195.399 21.7325"
    fill="#E52645"></path>
  <mask id="mask0_1887_12770" style="mask-type:luminance" maskUnits="userSpaceOnUse" x="0" y="13" width="11" height="15">
    <path fill-rule="evenodd" clip-rule="evenodd" d="M0 13.8035H10.2115V27.3837H0V13.8035Z" fill="white"></path>
  </mask>
  <g mask="url(#mask0_1887_12770)">
    <path fill-rule="evenodd" clip-rule="evenodd" d="M4.54102 21.7383C6.21789 21.7383 7.74369 20.943 7.74369 19.0223C7.74369 17.1987 6.21789 16.3256 4.54102 16.3256H2.60059V21.7383H4.54102ZM4.33327 13.8035C8.02611 13.8035 10.2115 16.0538 10.2115 19.0223C10.2115 22.0291 8.02611 24.2603 4.33327 24.2603H2.60028V27.3837H0V13.8035H4.33327Z" fill="#E52645"></path>
  </g>
  <path fill-rule="evenodd" clip-rule="evenodd" d="M20.6496 19.2938V21.8158H14.9411V24.8618H21.1207V27.3838H12.3408V13.8033H21.1207V16.3253H14.9411V19.2938H20.6496Z" fill="#E52645"></path>
  <path fill-rule="evenodd" clip-rule="evenodd" d="M28.9585 27.3838H26.3585V16.3253H22.7412V13.8033H32.5758V16.3253H28.9585V27.3838Z" fill="#E52645"></path>
  <path fill-rule="evenodd" clip-rule="evenodd" d="M40.7535 24.8617V27.3837H34.9883V24.8617H36.571V16.3255H34.9883V13.8032H40.7535V16.3255H39.171V24.8617H40.7535Z" fill="#E52645"></path>
  <path fill-rule="evenodd" clip-rule="evenodd" d="M49.5897 27.3838H46.9894V16.3253H43.3721V13.8033H53.207V16.3253H49.5897V27.3838Z" fill="#E52645"></path>
  <path fill-rule="evenodd" clip-rule="evenodd"
    d="M59.9706 13.6676C61.8358 13.6676 63.701 14.5987 65.0573 15.9182L63.3619 17.5283C62.3821 16.7136 60.9315 16.1896 59.9706 16.1896H59.8198C58.9533 16.1896 57.54 16.5194 57.54 17.7028C57.54 18.6147 58.5576 18.8864 59.7446 19.0417L60.7996 19.1581C63.4749 19.4878 65.4722 20.5159 65.4722 23.3291C65.4722 25.9095 63.2677 27.5001 60.3472 27.5195H60.2344C57.5967 27.5195 55.6748 26.2392 54.6387 24.7841L56.3344 23.1738C56.9185 24.0274 58.2751 24.9975 60.2344 24.9975H60.3472C61.8736 24.978 62.872 24.3572 62.872 23.3291C62.872 22.1457 61.798 21.816 60.4416 21.6412L59.4055 21.5249C56.8807 21.2143 54.9403 20.1862 54.9403 17.8C54.9403 15.2585 57.0879 13.7065 59.8198 13.6676H59.9706Z"
    fill="#E52645"></path>
  <path fill-rule="evenodd" clip-rule="evenodd" d="M82.7121 19.2938V21.8158H77.0036V27.3838H74.4033V13.8033H83.1832V16.3253H77.0036V19.2938H82.7121Z" fill="#E52645"></path>
  <path fill-rule="evenodd" clip-rule="evenodd"
    d="M88.5713 21.5443H90.7003C92.396 21.5443 93.7147 20.7487 93.7147 18.925C93.7147 17.1986 92.396 16.3255 90.7003 16.3255H88.5713V21.5443ZM90.4557 13.8034C94.1486 13.8034 96.1834 16.0538 96.1834 18.925C96.1834 20.9428 95.1281 22.4754 93.3385 23.1932C93.9036 23.5618 94.4877 24.2602 95.2978 25.5794L96.4281 27.3837H93.5079L92.66 26.0258C91.6427 24.4155 91.3222 24.1052 90.0225 24.0663H88.5717V27.3837H85.9717V13.8034H90.4557Z"
    fill="#E52645"></path>
  <path fill-rule="evenodd" clip-rule="evenodd" d="M102.947 12.8333L100.592 10.0007H103.154L104.755 12.8333H102.947ZM101.628 16.3254V19.2936H107.337V21.8156H101.628V24.8616H107.808V27.3836H99.0283V13.8034H107.808V16.3254H101.628Z" fill="#E52645"></path>
  <path fill-rule="evenodd" clip-rule="evenodd"
    d="M113.196 21.5443H115.326C117.021 21.5443 118.34 20.7487 118.34 18.925C118.34 17.1985 117.021 16.3254 115.326 16.3254H113.196V21.5443ZM115.081 13.8033C118.774 13.8033 120.808 16.0537 120.808 18.9249C120.808 20.9428 119.753 22.4753 117.963 23.1932C118.529 23.5618 119.113 24.2601 119.923 25.5794L121.053 27.3836H118.133L117.285 26.0258C116.268 24.4154 115.948 24.1051 114.648 24.0662H113.197V27.3836H110.597V13.8033H115.081Z"
    fill="#E52645"></path>
  <path fill-rule="evenodd" clip-rule="evenodd" d="M131.586 19.2937V21.8158H125.877V24.8617H132.057V27.3837H123.277V13.8032H132.057V16.3253H125.877V19.2937H131.586Z" fill="#E52645"></path>
  <path fill-rule="evenodd" clip-rule="evenodd"
    d="M139.197 13.6676C141.062 13.6676 142.928 14.5987 144.284 15.9182L142.588 17.5283C141.609 16.7136 140.158 16.1896 139.197 16.1896H139.046C138.18 16.1896 136.767 16.5194 136.767 17.7028C136.767 18.6147 137.784 18.8864 138.971 19.0417L140.026 19.1581C142.701 19.4878 144.699 20.5159 144.699 23.3291C144.699 25.9095 142.494 27.5001 139.574 27.5195H139.461C136.823 27.5195 134.902 26.2392 133.865 24.7841L135.561 23.1738C136.145 24.0274 137.502 24.9975 139.461 24.9975H139.574C141.1 24.978 142.099 24.3572 142.099 23.3291C142.099 22.1457 141.025 21.816 139.668 21.6412L138.632 21.5249C136.108 21.2143 134.167 20.1862 134.167 17.8C134.167 15.2585 136.314 13.7065 139.046 13.6676H139.197Z"
    fill="#E52645"></path>
  <path fill-rule="evenodd" clip-rule="evenodd" d="M16.7497 44.2637C19.0484 44.2637 20.8569 42.7506 20.8569 39.9958C20.8569 37.2601 19.0484 35.7275 16.7497 35.7275H14.7715V44.2637H16.7497ZM16.7494 33.2052C20.4608 33.2052 23.4563 36.0573 23.4563 39.9957C23.4563 43.9534 20.4608 46.7857 16.7494 46.7857H12.1709V33.2052H16.7494Z" fill="#E52645"></path>
  <path fill-rule="evenodd" clip-rule="evenodd" d="M34.1907 38.6957V41.2177H28.4821V44.2637H34.6617V46.7857H25.8818V33.2052H34.6617V35.7272H28.4821V38.6957H34.1907Z" fill="#E52645"></path>
  <path fill-rule="evenodd" clip-rule="evenodd"
    d="M42.4091 33.0693C44.2743 33.0693 46.1394 34.0008 47.4958 35.32L45.8003 36.93C44.8205 36.1153 43.37 35.5914 42.4091 35.5914H42.2583C41.3918 35.5914 39.9785 35.9214 39.9785 37.1048C39.9785 38.0167 40.9961 38.2881 42.183 38.4434L43.2381 38.5598C45.9134 38.8896 47.9107 39.9177 47.9107 42.7308C47.9107 45.3112 45.7062 46.9021 42.7857 46.9215H42.6729C40.0351 46.9215 38.1133 45.6412 37.0771 44.1862L38.7729 42.5758C39.3569 43.4295 40.7136 44.3995 42.6729 44.3995H42.7857C44.312 44.3801 45.3104 43.7592 45.3104 42.7308C45.3104 41.5477 44.2365 41.2177 42.8801 41.043L41.8439 40.9266C39.3192 40.6163 37.3787 39.5882 37.3787 37.2017C37.3787 34.6602 39.5264 33.1082 42.2583 33.0693H42.4091Z"
    fill="#E52645"></path>
  <path fill-rule="evenodd" clip-rule="evenodd" d="M61.9326 41.1402C63.6095 41.1402 65.1356 40.3449 65.1356 38.4243C65.1356 36.6004 63.6095 35.7275 61.9326 35.7275H59.9922V41.1402H61.9326ZM61.7256 33.2054C65.4187 33.2054 67.6038 35.4558 67.6038 38.4243C67.6038 41.4313 65.4187 43.6622 61.7256 43.6622H59.9926V46.7857H57.3926V33.2054H61.7256Z" fill="#E52645"></path>
  <path fill-rule="evenodd" clip-rule="evenodd" d="M72.5391 41.7608H75.384L73.971 38.0554L72.5391 41.7608ZM70.692 46.7857H67.8096L73.2357 33.2052H74.7617L80.1123 46.7857H77.2298L76.2875 44.3023H71.6341L70.692 46.7857Z" fill="#E52645"></path>
  <path fill-rule="evenodd" clip-rule="evenodd" d="M92.4983 41.0818C92.4983 45.0008 89.9174 46.9215 87.1477 46.9215C84.3594 46.9215 81.7969 45.0008 81.7969 41.0818V33.2054H84.3972V41.0237C84.3972 43.5649 85.7722 44.3994 87.1477 44.3994C88.523 44.3994 89.8982 43.5649 89.8982 41.0237V33.2054H92.4983V41.0818Z" fill="#E52645"></path>
  <path fill-rule="evenodd" clip-rule="evenodd" d="M100.018 46.7857L94.5732 33.2052H97.456L100.753 41.8775L104.05 33.2052H106.933L101.563 46.7857H100.018Z" fill="#E52645"></path>
  <path fill-rule="evenodd" clip-rule="evenodd"
    d="M111.737 40.9461H113.867C115.562 40.9461 116.881 40.1508 116.881 38.3268C116.881 36.6001 115.562 35.7273 113.867 35.7273H111.737V40.9461ZM113.622 33.2053C117.315 33.2053 119.349 35.4557 119.349 38.3269C119.349 40.3448 118.294 41.8776 116.504 42.5954C117.07 42.9638 117.654 43.6621 118.464 44.9813L119.594 46.7856H116.674L115.826 45.4277C114.809 43.8174 114.489 43.5071 113.189 43.4682H111.738V46.7856H109.138V33.2053H113.622Z"
    fill="#E52645"></path>
  <path fill-rule="evenodd" clip-rule="evenodd" d="M130.868 38.6957V41.2177H125.16V44.2637H131.339V46.7857H122.56V33.2052H131.339V35.7272H125.16V38.6957H130.868Z" fill="#E52645"></path>
  <path fill-rule="evenodd" clip-rule="evenodd"
    d="M139.424 33.0693C141.289 33.0693 143.154 34.0008 144.51 35.32L142.815 36.93C141.835 36.1153 140.385 35.5914 139.424 35.5914H139.273C138.406 35.5914 136.993 35.9214 136.993 37.1048C136.993 38.0167 138.011 38.2881 139.198 38.4434L140.253 38.5598C142.928 38.8896 144.925 39.9177 144.925 42.7308C144.925 45.3112 142.721 46.9021 139.801 46.9215H139.688C137.05 46.9215 135.128 45.6412 134.092 44.1862L135.788 42.5758C136.372 43.4295 137.728 44.3995 139.688 44.3995H139.801C141.327 44.3801 142.325 43.7592 142.325 42.7308C142.325 41.5477 141.251 41.2177 139.895 41.043L138.859 40.9266C136.334 40.6163 134.394 39.5882 134.394 37.2017C134.394 34.6602 136.541 33.1082 139.273 33.0693H139.424Z"
    fill="#E52645"></path>
  <path fill-rule="evenodd" clip-rule="evenodd" d="M16.7255 62.9403L13.1495 58.0237V62.9403H12.1055V55.9736H12.7146L16.2906 60.8899V55.9736H17.3344V62.9403H16.7255Z" fill="#E52645"></path>
  <path fill-rule="evenodd" clip-rule="evenodd"
    d="M19.2108 60.4521C19.2108 61.3975 19.9162 62.0444 20.7185 62.0444C21.5208 62.0444 22.2359 61.3975 22.2359 60.4521C22.2359 59.5068 21.5208 58.8496 20.7185 58.8496C19.9162 58.8496 19.2108 59.5068 19.2108 60.4521M23.2025 60.4522C23.2025 61.8656 22.0907 63 20.7184 63C19.3459 63 18.2441 61.8656 18.2441 60.4522C18.2441 59.0391 19.3459 57.8943 20.7184 57.8943C22.0907 57.8943 23.2025 59.0391 23.2025 60.4522"
    fill="#E52645"></path>
  <path fill-rule="evenodd" clip-rule="evenodd" d="M28.6347 60.2929V62.9403H27.6681V60.3429C27.6681 59.2879 27.1655 58.8498 26.3824 58.8498C25.5321 58.8498 24.9812 59.4271 24.9812 60.5318V62.9403H24.0146V57.964H24.6721L24.7398 58.9195C25.0972 58.2128 25.8027 57.8942 26.5275 57.8942C27.8807 57.8942 28.6347 58.8198 28.6347 60.2929" fill="#E52645"></path>
  <path fill-rule="evenodd" clip-rule="evenodd"
    d="M35.179 57.4366H34.4347L33.333 56.1229H34.4156L35.179 57.4366ZM35.943 60.452C35.943 59.5067 35.2278 58.8497 34.4255 58.8497C33.6232 58.8497 32.9178 59.5067 32.9178 60.452C32.9178 61.3976 33.6232 62.0446 34.4255 62.0446C35.2278 62.0446 35.943 61.3976 35.943 60.452V60.452ZM36.1749 62.9402L36.1172 62.0248C35.7592 62.6118 35.102 62.9999 34.3386 62.9999C32.9663 62.9999 31.9512 61.8654 31.9512 60.452C31.9512 59.0392 32.9663 57.8941 34.3386 57.8941C35.102 57.8941 35.7592 58.2925 36.1172 58.8794L36.1749 57.9639H36.8323V62.9402H36.1749Z"
    fill="#E52645"></path>
  <path fill-rule="evenodd" clip-rule="evenodd" d="M40.5352 62.9402H41.5017V55.9735H40.5352V62.9402Z" fill="#E52645"></path>
  <path fill-rule="evenodd" clip-rule="evenodd" d="M42.9994 58.3123H42.2939L42.9897 55.9736H44.0337L42.9994 58.3123Z" fill="#E52645"></path>
  <path fill-rule="evenodd" clip-rule="evenodd" d="M44.9814 62.9402H45.948V57.9639H44.9814V62.9402ZM44.8945 56.8991C44.8945 56.6005 45.1457 56.3716 45.4743 56.3716C45.7934 56.3716 46.0448 56.6005 46.0448 56.8991C46.0448 57.1977 45.7934 57.4366 45.4743 57.4366C45.1457 57.4366 44.8945 57.1977 44.8945 56.8991V56.8991Z" fill="#E52645"></path>
  <path fill-rule="evenodd" clip-rule="evenodd"
    d="M48.983 57.8943C49.7367 57.8943 50.5196 58.2526 50.9351 58.8199L50.3842 59.3474C50.0656 58.9396 49.4373 58.6904 48.9925 58.6904H48.9153C48.3644 58.7004 47.9584 58.9296 47.9584 59.3374C47.9584 59.656 48.1516 59.8552 48.8765 59.9249L49.3213 59.9744C50.2202 60.0541 51.0319 60.3924 51.0319 61.4875C51.0319 62.3731 50.2587 63 49.1182 63H49.0602C48.1324 63 47.2336 62.6117 46.8564 62.0247L47.4076 61.4875C47.6876 61.8953 48.403 62.1939 49.0505 62.1939H49.0893C49.6305 62.1939 50.0656 61.985 50.0656 61.5172C50.0656 60.9797 49.669 60.8802 49.1279 60.8205L48.7122 60.7705C47.5524 60.6613 46.9919 60.1933 46.9919 59.3971C46.9919 58.4418 47.8522 57.9043 48.8864 57.8943H48.983Z"
    fill="#E52645"></path>
  <path fill-rule="evenodd" clip-rule="evenodd"
    d="M52.5215 60.4522C52.5215 61.3975 53.2269 62.0445 54.0292 62.0445C54.8315 62.0445 55.5467 61.3975 55.5467 60.4522C55.5467 59.5069 54.8315 58.8496 54.0292 58.8496C53.2269 58.8496 52.5215 59.5069 52.5215 60.4522M56.513 60.4522C56.513 61.8656 55.4016 63 54.029 63C52.6567 63 51.5547 61.8656 51.5547 60.4522C51.5547 59.0391 52.6567 57.8943 54.029 57.8943C55.4016 57.8943 56.513 59.0391 56.513 60.4522"
    fill="#E52645"></path>
  <path fill-rule="evenodd" clip-rule="evenodd" d="M57.374 62.9402H58.3406V55.9735H57.374V62.9402Z" fill="#E52645"></path>
  <path fill-rule="evenodd" clip-rule="evenodd"
    d="M60.1671 60.0739H62.9408C62.9408 59.9248 62.9022 59.7356 62.8251 59.5862C62.6222 59.1286 62.1871 58.8 61.5879 58.8C60.7665 58.8 60.2059 59.397 60.1671 60.0739M63.724 59.2976C63.9074 59.7156 63.9268 60.3329 63.8108 60.7109H60.1283C60.1283 61.5868 60.776 62.0943 61.636 62.0943C62.1966 62.0943 62.738 61.9352 63.1923 61.6563L63.714 62.2335C63.1826 62.6516 62.4771 62.9999 61.636 62.9999C60.1479 62.9999 59.1328 61.9252 59.1328 60.452C59.1328 59.0389 60.0802 57.8942 61.578 57.8942C62.6222 57.8942 63.366 58.432 63.724 59.2976"
    fill="#E52645"></path>
  <path fill-rule="evenodd" clip-rule="evenodd"
    d="M72.9353 60.293V62.9403H71.9687V60.343C71.9687 59.288 71.4567 58.8499 70.6833 58.8499C69.8232 58.8499 69.2724 59.4271 69.2724 60.5319V62.9403H68.3058V60.343C68.3058 59.288 67.8032 58.8499 67.0201 58.8499C66.1698 58.8499 65.6189 59.4271 65.6189 60.5319V62.9403H64.6523V57.964H65.3095L65.3772 58.9196C65.7349 58.2129 66.4404 57.8943 67.1652 57.8943C68.0447 57.8943 68.6921 58.3026 68.9727 59.0488C69.3012 58.2626 70.0455 57.8943 70.8281 57.8943C72.1815 57.8943 72.9353 58.8199 72.9353 60.293"
    fill="#E52645"></path>
  <path fill-rule="evenodd" clip-rule="evenodd"
    d="M74.7344 60.0739H77.5082C77.5082 59.9248 77.4696 59.7356 77.3924 59.5862C77.1896 59.1286 76.7545 58.8 76.1553 58.8C75.3339 58.8 74.7733 59.397 74.7344 60.0739M78.2914 59.2976C78.4748 59.7156 78.4942 60.3329 78.3782 60.7109H74.6956C74.6956 61.5868 75.3433 62.0943 76.2034 62.0943C76.7639 62.0943 77.3054 61.9352 77.7596 61.6563L78.2814 62.2335C77.7499 62.6516 77.0445 62.9999 76.2034 62.9999C74.7153 62.9999 73.7002 61.9252 73.7002 60.452C73.7002 59.0389 74.6476 57.8942 76.1454 57.8942C77.1896 57.8942 77.9334 58.432 78.2914 59.2976"
    fill="#E52645"></path>
  <path fill-rule="evenodd" clip-rule="evenodd" d="M83.8407 60.293V62.9403H82.8742V60.343C82.8742 59.288 82.3719 58.8499 81.5887 58.8499C80.7381 58.8499 80.1873 59.4271 80.1873 60.5319V62.9403H79.2207V57.964H79.8781L79.9458 58.9196C80.3033 58.2129 81.009 57.8943 81.7336 57.8943C83.0867 57.8943 83.8407 58.8199 83.8407 60.293" fill="#E52645"></path>
  <path fill-rule="evenodd" clip-rule="evenodd" d="M86.2382 62.9403H85.2716V58.9193H84.6045V57.964H85.2716V56.292H86.2382V57.964H86.9148V58.9193H86.2382V62.9403Z" fill="#E52645"></path>
  <path fill-rule="evenodd" clip-rule="evenodd"
    d="M93.8845 60.4522C93.8845 59.5069 93.1694 58.8496 92.3671 58.8496C91.5648 58.8496 90.8594 59.5069 90.8594 60.4522C90.8594 61.3975 91.5648 62.0445 92.3671 62.0445C93.1694 62.0445 93.8845 61.3975 93.8845 60.4522V60.4522ZM94.116 62.9403L94.0583 62.0247C93.7006 62.6117 93.0435 63 92.28 63C90.9074 63 89.8926 61.8655 89.8926 60.4521C89.8926 59.039 90.9074 57.8943 92.28 57.8943C92.9275 57.8943 93.4975 58.2229 93.8069 58.7104V55.9736H94.7735V62.9403H94.116Z"
    fill="#E52645"></path>
  <path fill-rule="evenodd" clip-rule="evenodd"
    d="M96.62 60.0739H99.3937C99.3937 59.9248 99.3554 59.7356 99.278 59.5862C99.0751 59.1286 98.64 58.8 98.0409 58.8C97.2194 58.8 96.6588 59.397 96.62 60.0739M100.177 59.2976C100.36 59.7156 100.38 60.3329 100.264 60.7109H96.5811C96.5811 61.5868 97.2288 62.0943 98.0891 62.0943C98.6494 62.0943 99.1908 61.9352 99.6451 61.6563L100.167 62.2335C99.6357 62.6516 98.93 62.9999 98.0891 62.9999C96.6008 62.9999 95.5859 61.9252 95.5859 60.452C95.5859 59.0389 96.5331 57.8942 98.0308 57.8942C99.0751 57.8942 99.8191 58.432 100.177 59.2976"
    fill="#E52645"></path>
  <path fill-rule="evenodd" clip-rule="evenodd" d="M108.277 60.2929V62.9403H107.311V60.3429C107.311 59.2879 106.808 58.8498 106.025 58.8498C105.175 58.8498 104.624 59.4271 104.624 60.5318V62.9403H103.657V57.964H104.315L104.382 58.9195C104.74 58.2128 105.445 57.8942 106.17 57.8942C107.523 57.8942 108.277 58.8198 108.277 60.2929" fill="#E52645"></path>
  <path fill-rule="evenodd" clip-rule="evenodd"
    d="M110.008 60.4522C110.008 61.3975 110.714 62.0445 111.516 62.0445C112.318 62.0445 113.033 61.3975 113.033 60.4522C113.033 59.5069 112.318 58.8496 111.516 58.8496C110.714 58.8496 110.008 59.5069 110.008 60.4522M114 60.4522C114 61.8656 112.889 63 111.516 63C110.144 63 109.042 61.8656 109.042 60.4522C109.042 59.0391 110.144 57.8943 111.516 57.8943C112.889 57.8943 114 59.0391 114 60.4522"
    fill="#E52645"></path>
  <path fill-rule="evenodd" clip-rule="evenodd"
    d="M116.649 57.8943C117.402 57.8943 118.185 58.2526 118.601 58.8199L118.05 59.3474C117.731 58.9396 117.103 58.6904 116.658 58.6904H116.581C116.03 58.7004 115.624 58.9296 115.624 59.3374C115.624 59.656 115.818 59.8552 116.542 59.9249L116.987 59.9744C117.886 60.0541 118.698 60.3924 118.698 61.4875C118.698 62.3731 117.924 63 116.784 63H116.726C115.798 63 114.899 62.6117 114.522 62.0247L115.073 61.4875C115.354 61.8953 116.069 62.1939 116.716 62.1939H116.755C117.296 62.1939 117.731 61.985 117.731 61.5172C117.731 60.9797 117.335 60.8802 116.794 60.8205L116.378 60.7705C115.218 60.6613 114.658 60.1933 114.658 59.3971C114.658 58.4418 115.518 57.9043 116.552 57.8943H116.649Z"
    fill="#E52645"></path>
  <path fill-rule="evenodd" clip-rule="evenodd"
    d="M125.764 60.4522C125.764 59.5069 125.049 58.8496 124.246 58.8496C123.444 58.8496 122.738 59.5069 122.738 60.4522C122.738 61.3975 123.444 62.0445 124.246 62.0445C125.049 62.0445 125.764 61.3975 125.764 60.4522V60.4522ZM125.996 62.9403L125.938 62.0247C125.58 62.6117 124.923 63 124.16 63C122.787 63 121.772 61.8656 121.772 60.4522C121.772 59.0391 122.787 57.8943 124.16 57.8943C124.923 57.8943 125.58 58.2926 125.938 58.8796L125.996 57.964H126.653V62.9403H125.996Z"
    fill="#E52645"></path>
  <path fill-rule="evenodd" clip-rule="evenodd" d="M127.901 62.9402H128.868V57.9639H127.901V62.9402ZM129.786 57.4366H129.022L128.385 56.8493L127.737 57.4266H126.974L127.911 56.1029H128.849L129.786 57.4366Z" fill="#E52645"></path>
  <path fill-rule="evenodd" clip-rule="evenodd" d="M134.677 60.293V62.9403H133.71V60.343C133.71 59.288 133.208 58.8499 132.425 58.8499C131.574 58.8499 131.023 59.4271 131.023 60.5319V62.9403H130.057V57.964H130.714L130.782 58.9196C131.139 58.2129 131.845 57.8943 132.57 57.8943C133.923 57.8943 134.677 58.8199 134.677 60.293" fill="#E52645"></path>
  <path fill-rule="evenodd" clip-rule="evenodd"
    d="M137.258 57.4366L138.022 56.1229H139.104L138.002 57.4366H137.258ZM136.466 60.0739H139.24C139.24 59.9247 139.201 59.7356 139.124 59.5861C138.921 59.1286 138.486 58.8 137.887 58.8C137.065 58.8 136.505 59.3972 136.466 60.0739V60.0739ZM140.023 59.2975C140.206 59.7156 140.226 60.3328 140.109 60.7109H136.427C136.427 61.5868 137.075 62.0946 137.935 62.0946C138.495 62.0946 139.037 61.9351 139.491 61.6562L140.013 62.2337C139.481 62.6515 138.776 62.9999 137.935 62.9999C136.447 62.9999 135.432 61.9251 135.432 60.452C135.432 59.0392 136.379 57.8941 137.877 57.8941C138.921 57.8941 139.665 58.4319 140.023 59.2975V59.2975Z"
    fill="#E52645"></path>
  <path fill-rule="evenodd" clip-rule="evenodd"
    d="M142.778 57.8943C143.531 57.8943 144.314 58.2526 144.73 58.8199L144.179 59.3474C143.86 58.9396 143.232 58.6904 142.787 58.6904H142.71C142.159 58.7004 141.753 58.9296 141.753 59.3374C141.753 59.656 141.947 59.8552 142.671 59.9249L143.116 59.9744C144.015 60.0541 144.827 60.3924 144.827 61.4875C144.827 62.3731 144.053 63 142.913 63H142.855C141.927 63 141.028 62.6117 140.651 62.0247L141.202 61.4875C141.483 61.8953 142.198 62.1939 142.845 62.1939H142.884C143.425 62.1939 143.86 61.985 143.86 61.5172C143.86 60.9797 143.464 60.8802 142.923 60.8205L142.507 60.7705C141.347 60.6613 140.787 60.1933 140.787 59.3971C140.787 58.4418 141.647 57.9043 142.681 57.8943H142.778Z"
    fill="#E52645"></path>
</svg>