<?xml version="1.0" encoding="UTF-8" standalone="no"?>
<!-- Created with Inkscape (http://www.inkscape.org/) -->

<svg
   xmlns:dc="http://purl.org/dc/elements/1.1/"
   xmlns:cc="http://creativecommons.org/ns#"
   xmlns:rdf="http://www.w3.org/1999/02/22-rdf-syntax-ns#"
   xmlns:svg="http://www.w3.org/2000/svg"
   xmlns="http://www.w3.org/2000/svg"
   xmlns:sodipodi="http://sodipodi.sourceforge.net/DTD/sodipodi-0.dtd"
   xmlns:inkscape="http://www.inkscape.org/namespaces/inkscape"
   width="81.419624"
   height="80.79644"
   id="svg3952"
   version="1.1"
   inkscape:version="0.48.1 "
   sodipodi:docname="Restos du coeur.svg">
  <defs
     id="defs3954">
    <clipPath
       id="clipPath3493"
       clipPathUnits="userSpaceOnUse">
      <path
         inkscape:connector-curvature="0"
         id="path3495"
         d="m 382.677,705.827 67.786,0 0,74.921 -67.786,0 0,-74.921 z"/>
    </clipPath>
  </defs>
  <sodipodi:namedview
     id="base"
     pagecolor="#ffffff"
     bordercolor="#666666"
     borderopacity="1.0"
     inkscape:pageopacity="0.0"
     inkscape:pageshadow="2"
     inkscape:zoom="5.6568542"
     inkscape:cx="22.644195"
     inkscape:cy="26.816011"
     inkscape:document-units="px"
     inkscape:current-layer="layer1"
     showgrid="false"
     fit-margin-top="1"
     fit-margin-left="1"
     fit-margin-right="1"
     fit-margin-bottom="1"
     inkscape:window-width="1920"
     inkscape:window-height="996"
     inkscape:window-x="-8"
     inkscape:window-y="-8"
     inkscape:window-maximized="1"/>
  <metadata
     id="metadata3957">
    <rdf:RDF>
      <cc:Work
         rdf:about="">
        <dc:format>image/svg+xml</dc:format>
        <dc:type
           rdf:resource="http://purl.org/dc/dcmitype/StillImage"/>
        <dc:title/>
      </cc:Work>
    </rdf:RDF>
  </metadata>
  <g
     inkscape:label="Calque 1"
     inkscape:groupmode="layer"
     id="layer1"
     transform="translate(-322.14733,-351.9204)">
    <g
       id="g3497"
       transform="matrix(1.25,0,0,-1.25,393.66058,353.38002)"
       style="fill:#cb006b;fill-opacity:1">
      <path
         inkscape:connector-curvature="0"
         d="m 0,0 c -1.128,0.843 -2.583,0.136 -3.602,-0.435 -3.031,-2.161 -4.261,-5.784 -5.077,-9.046 0.313,0.163 0.646,0.306 0.985,0.374 0.245,-0.068 0.558,-0.123 0.748,-0.34 0.489,0.476 0.999,1.013 1.665,1.121 0.422,0 0.734,-0.102 0.884,-0.509 0.04,-0.259 0.095,-0.408 -0.136,-0.612 -0.422,-0.014 -0.768,-0.306 -1.054,-0.578 l -0.102,-1.291 c 0.123,-0.272 0.476,-0.027 0.68,-0.136 0.245,-0.122 0.462,-0.184 0.544,-0.442 0.108,-0.87 -0.184,-1.379 -0.442,-2.141 -0.53,-1.101 -1.101,-2.535 -2.447,-2.888 -0.272,-0.054 -0.428,0.19 -0.577,0.34 -0.055,-0.231 -0.272,-0.517 -0.34,-0.748 -0.136,-0.231 -0.272,-0.36 -0.544,-0.374 0.038,-0.15 0.06,-0.358 0.102,-0.475 1.128,0.462 2.549,0.299 3.568,-0.34 0.272,1.767 0.863,3.636 1.339,5.321 0.884,2.732 1.862,5.41 3.072,8.006 0.489,1.088 0.965,2.189 1.346,3.317 C 0.748,-1.169 0.598,-0.421 0,0"
         style="fill:#cb006b;fill-opacity:1;fill-rule:nonzero;stroke:none"
         id="path3499"/>
    </g>
    <g
       id="g3501"
       transform="matrix(1.25,0,0,-1.25,386.13345,391.16815)"
       style="fill:#cb006b;fill-opacity:1">
      <path
         inkscape:connector-curvature="0"
         d="m 0,0 c 0.014,-0.204 -0.292,-0.252 -0.211,-0.455 -0.353,-1.156 -0.448,-2.488 -1.767,-2.991 -0.285,-0.041 -0.55,-0.061 -0.781,0.102 -0.721,0.476 -0.605,1.237 -0.782,1.971 L -3.677,3.283 C -3.84,3.133 -4.234,2.447 -4.289,2.229 c 0.028,-1.413 0.007,-2.372 -0.169,-3.772 -0.327,-1.563 -0.531,-3.486 -2.379,-3.976 -0.897,-0.217 -1.502,0.143 -2.209,0.646 -1.74,-1.441 -3.677,-2.984 -5.539,-4.085 -2.338,-1.223 -4.527,-2.745 -6.919,-3.806 l -0.421,-0.027 -2.549,1.733 c -0.258,-0.965 -0.917,-1.91 -1.733,-2.549 l 3.548,-2.188 c 0.367,-0.109 0.747,-0.353 1.169,-0.19 1.753,0.584 3.262,1.74 4.88,2.65 l 7.802,4.377 3.113,1.781 0.611,0.245 c 0.354,-0.775 0.626,-1.591 1.21,-2.27 0.163,-0.327 0.347,-0.619 0.673,-0.497 0.285,-0.013 0.143,-0.305 0.306,-0.441 0.081,0 0.632,0.006 0.713,0.102 -0.095,0.176 -0.197,0.353 -0.102,0.543 0.123,0.191 0.116,0.177 0.374,0.136 0.544,-0.285 0.476,-1.019 0.85,-1.393 0.51,0.272 -0.048,1.318 -0.034,1.903 0.421,0.394 0.679,0.544 1.223,0.612 0.462,0.068 0.918,-0.306 1.312,-0.068 0.883,2.161 -0.095,4.417 -0.68,6.416 C 0.652,-1.196 0.217,-0.625 0,0"
         style="fill:#cb006b;fill-opacity:1;fill-rule:nonzero;stroke:none"
         id="path3503"/>
    </g>
    <g
       id="g3505"
       transform="matrix(1.25,0,0,-1.25,383.19408,367.48265)"
       style="fill:#cb006b;fill-opacity:1">
      <path
         inkscape:connector-curvature="0"
         d="m 0,0 c 0.027,-1.414 0.102,-3.16 0.238,-4.588 0.122,0.082 0.564,0.367 0.714,0.408 0.57,0.462 0.835,1.217 1.053,1.869 0.367,0.734 -0.564,0.435 -0.782,0.816 C 0.625,-0.897 0.972,0.061 1.053,0.782 0.795,0.578 0.245,0.258 0,0"
         style="fill:#cb006b;fill-opacity:1;fill-rule:nonzero;stroke:none"
         id="path3507"/>
    </g>
    <g
       id="g3509"
       transform="matrix(1.25,0,0,-1.25,384.55333,381.71265)"
       style="fill:#cb006b;fill-opacity:1">
      <path
         inkscape:connector-curvature="0"
         d="M 0,0 C 0.516,0.408 0.938,1.189 0.612,1.869 0.489,2.1 0.136,2.447 -0.136,2.447 -0.489,2.46 -0.918,2.134 -1.053,1.835 L -0.272,0 0,0 z"
         style="fill:#cb006b;fill-opacity:1;fill-rule:nonzero;stroke:none"
         id="path3511"/>
    </g>
    <g
       id="g3513"
       transform="matrix(1.25,0,0,-1.25,361.78521,372.46102)"
       style="fill:#cb006b;fill-opacity:1">
      <path
         inkscape:connector-curvature="0"
         d="m 0,0 c 2.501,1.006 4.866,2.338 7.517,2.95 1.305,0.312 2.705,0.013 3.915,-0.231 0.068,0.435 -0.055,0.829 0.394,1.06 0.979,0.217 1.053,-1.224 1.597,-1.631 0.136,0.611 -0.122,1.481 0.34,1.971 0.244,0.326 0.659,0.081 0.985,0.136 L 16.277,5.41 C 14.782,6.253 12.968,6.959 11.241,7.245 7.272,7.911 4.023,5.79 0.666,4.431 L 0.231,4.363 c -2.922,1.455 -5.614,3.439 -8.985,3.806 -2.188,0.15 -4.485,-0.122 -6.456,-0.883 -2.692,-0.87 -4.826,-3.113 -6.974,-5.138 l -0.054,0.068 c -0.136,2.147 0.381,4.118 1.155,5.94 0.463,1.114 1.115,2.147 1.523,3.276 0.027,0.299 -0.177,0.53 -0.408,0.679 -0.435,0.177 -0.775,-0.136 -1.074,-0.408 -1.033,-1.59 -1.916,-3.248 -2.501,-5.029 -0.462,-1.264 -0.625,-2.651 -0.979,-3.955 -0.108,-0.218 -0.353,-0.408 -0.598,-0.327 -0.489,0.286 -0.584,0.843 -0.611,1.373 0.04,3.235 1.481,5.913 2.949,8.564 l 0.068,0.571 c -0.04,0.217 -0.244,0.38 -0.435,0.489 -0.339,0.19 -0.557,-0.136 -0.802,-0.299 -1.223,-1.658 -2.256,-3.398 -2.936,-5.288 -0.516,-1.318 -0.747,-2.732 -1.06,-4.132 -0.095,-0.231 -0.353,-0.394 -0.598,-0.326 -0.585,0.217 -0.571,0.911 -0.652,1.454 0.163,3.154 1.671,5.764 3.031,8.428 l 0.176,0.625 c -0.027,0.245 -0.231,0.462 -0.435,0.585 -0.489,0.136 -0.869,-0.259 -1.182,-0.626 -1.849,-3.044 -3.466,-6.239 -3.303,-10.072 0.176,-3.697 2.99,-6.321 4.05,-9.651 0.3,-1.441 -0.203,-2.909 -0.312,-4.35 l 0.292,-0.333 c 0.258,-0.108 0.252,-0.469 0.306,-0.713 0.041,-1.604 -0.449,-3.575 -0.272,-5.166 l 0.578,0.476 c 0.448,0.381 1.019,0.992 1.631,0.952 0.136,1.413 -0.197,2.922 0.102,4.281 0.272,0.898 0.632,1.808 1.597,2.039 0.218,0.041 0.231,-0.054 0.34,-0.204 0.149,-0.258 0.034,-0.407 -0.034,-0.679 -0.462,-0.517 -0.87,-1.264 -0.748,-1.971 0.055,-0.204 0.435,-0.143 0.612,-0.17 0.217,-0.122 0.014,-0.184 0.136,-0.374 -0.068,-0.557 -0.557,-0.917 -0.816,-1.393 0,-0.326 -0.006,-1.013 0.102,-1.325 0.313,0.122 0.693,0.516 1.02,0.611 0.448,0.218 0.448,-0.387 0.883,-0.306 0.367,0.408 0.877,1.298 1.054,1.801 l -0.272,0.204 c -0.204,-0.081 -0.347,0.014 -0.578,0 -0.285,0.028 -0.516,0.014 -0.68,0.272 -0.271,1.292 0.32,2.127 0.85,3.161 0.299,0.462 0.598,1.067 1.21,0.944 0,2.229 0.584,4.268 1.672,6.09 1.794,2.61 4.404,4.853 7.421,5.396 3.317,0.707 5.927,-1.196 8.523,-2.664 C -1.536,0.367 -0.884,-0.285 0,0"
         style="fill:#cb006b;fill-opacity:1;fill-rule:nonzero;stroke:none"
         id="path3515"/>
    </g>
    <g
       id="g3517"
       transform="matrix(1.25,0,0,-1.25,381.57983,373.42952)"
       style="fill:#cb006b;fill-opacity:1">
      <path
         inkscape:connector-curvature="0"
         d="M 0,0 C -0.082,1.278 -0.02,2.712 -0.034,3.976 -0.265,3.962 -0.714,3.922 -0.918,3.84 -0.877,2.984 -0.992,2.046 -1.019,1.189 L 0,0 z"
         style="fill:#cb006b;fill-opacity:1;fill-rule:nonzero;stroke:none"
         id="path3519"/>
    </g>
    <g
       id="g3521"
       transform="matrix(1.25,0,0,-1.25,345.43133,397.72677)"
       style="fill:#cb006b;fill-opacity:1">
      <path
         inkscape:connector-curvature="0"
         d="m 0,0 -0.496,0.353 c -0.639,0.422 -1.407,1.156 -2.019,1.618 0.34,-1.74 0.585,-3.704 0.34,-5.539 L 0.197,-4.866 0.544,-5.029 0.34,-4.248 C -0.231,-2.821 -0.109,-1.577 0,0"
         style="fill:#cb006b;fill-opacity:1;fill-rule:nonzero;stroke:none"
         id="path3523"/>
    </g>
    <g
       id="g3525"
       transform="matrix(1.25,0,0,-1.25,340.63133,393.6489)"
       style="fill:#cb006b;fill-opacity:1">
      <path
         inkscape:connector-curvature="0"
         d="M 0,0 -0.041,0.204 C -0.353,0.734 -0.775,1.223 -1.019,1.794 -1.155,2.039 -1.346,2.127 -1.427,2.345 -1.57,3.099 -2.046,3.86 -2.209,4.418 -2.304,3.072 -2.95,1.849 -3.806,0.816 c -0.272,-0.15 -0.313,-0.082 -0.612,0 -0.299,0.04 -0.605,0.435 -0.917,0.271 -0.462,-0.516 -0.829,-1.338 -1.631,-1.257 -0.367,0.177 -0.578,0.523 -0.782,0.782 -0.53,-0.707 -1.468,-0.802 -2.243,-1.292 -0.272,-0.108 -0.272,-1.019 -0.489,-0.815 0.109,-0.992 0.326,-1.971 0.666,-2.855 0.068,0.408 0.183,0.605 0.469,0.918 0.326,0.041 0.557,0.34 0.883,0.408 1.822,0.231 3.378,-0.966 4.52,-2.311 -0.027,0.897 0.265,2.086 0.374,2.956 0.122,0.585 0.068,1.128 0.747,1.36 0.354,0.095 0.442,0.013 0.714,-0.136 0.286,-0.272 0.408,-0.598 0.476,-0.952 l 0.068,-4.112 0.272,-1.121 c 0.095,-0.122 0.407,-0.408 0.611,-0.34 0.109,0.054 0.388,0.231 0.442,0.34 l 0.17,1.495 c 0.054,1.536 -0.258,3.025 -0.544,4.452 C -0.68,-0.809 -0.503,-0.353 0,0"
         style="fill:#cb006b;fill-opacity:1;fill-rule:nonzero;stroke:none"
         id="path3527"/>
    </g>
    <g
       id="g3529"
       transform="matrix(1.25,0,0,-1.25,336.76583,403.63115)"
       style="fill:#cb006b;fill-opacity:1">
      <path
         inkscape:connector-curvature="0"
         d="M 0,0 C -0.285,-1.047 -1.733,-2.855 -1.285,-3.269 -0.714,-3.622 0.129,-3.622 0.741,-3.364 1.285,-3.188 1.665,-2.589 1.869,-2.1 1.631,-1.733 0.408,-0.653 0,0"
         style="fill:#cb006b;fill-opacity:1;fill-rule:nonzero;stroke:none"
         id="path3531"/>
    </g>
    <g
       id="g3533"
       transform="matrix(1.25,0,0,-1.25,336.12871,386.25778)">
      <path
         inkscape:connector-curvature="0"
         d="M 0,0 1.142,-0.449 C 1.033,0.122 0.863,1.067 0.714,1.597 0.415,1.244 0,0.489 0,0"
         style="fill:#ec008c;fill-opacity:1;fill-rule:nonzero;stroke:none"
         id="path3535"/>
    </g>
    <g
       id="g3537"
       transform="matrix(1.25,0,0,-1.25,331.83845,399.93565)"
       style="fill:#cb006b;fill-opacity:1">
      <path
         inkscape:connector-curvature="0"
         d="m 0,0 c -0.217,0.027 -0.748,0.102 -0.951,-0.102 0.244,-1.373 0.421,-2.922 0.339,-4.418 -0.013,-0.095 0.259,-0.224 0.34,-0.238 0.952,0.49 1.706,1.638 1.597,2.753 C 1.23,-1.217 0.72,-0.353 0,0"
         style="fill:#cb006b;fill-opacity:1;fill-rule:nonzero;stroke:none"
         id="path3539"/>
    </g>
    <g
       id="g3541"
       transform="matrix(1.25,0,0,-1.25,402.27883,387.9889)">
      <path
         inkscape:connector-curvature="0"
         d="m 0,0 c -0.828,1.297 -2.565,0.954 -3.854,0.737 -2.59,-0.651 -4.738,0.769 -6.988,1.44 -0.559,0.199 -1.185,0.206 -1.704,0.459 1.126,1.683 2.453,3.6 1.508,5.711 -0.443,0.798 -1.277,1.279 -2.108,1.461 -1.553,0.311 -3.057,-0.166 -4.092,-1.372 -0.375,-0.521 -0.722,-1.258 -0.348,-1.907 1.106,-3.306 0.817,-7.101 0.974,-10.593 0.184,-0.76 0.248,-1.724 1.121,-2.069 0.519,-0.267 0.964,0.132 1.328,0.461 1.344,1.523 1.324,3.602 1.209,5.626 l 0.067,0.069 c 1.39,-0.326 2.567,-1.171 3.877,-1.702 2.403,-0.996 5.593,-1.984 8.163,-0.64 0.406,0.208 0.796,0.551 0.996,0.975 C 0.335,-0.907 0.167,-0.406 0,0 m -14.296,5.08 -0.082,0.04 -0.75,1.664 c 0.132,0.341 0.484,0.562 0.837,0.552 0.258,0.003 0.464,-0.199 0.589,-0.402 0.36,-0.689 0,-1.454 -0.594,-1.854"
         style="fill:#231f20;fill-opacity:1;fill-rule:nonzero;stroke:none"
         id="path3543"/>
    </g>
    <g
       id="g3545"
       transform="matrix(1.25,0,0,-1.25,390.35545,405.8114)">
      <path
         inkscape:connector-curvature="0"
         d="m 0,0 c -0.83,0.128 -1.702,0.323 -2.266,0.997 0.351,0.262 0.401,0.643 0.507,0.984 -0.059,0.462 0.071,1.047 -0.286,1.397 C -2.374,3.661 -2.782,3.711 -3.23,3.666 -3.76,3.565 -4.274,3.302 -4.609,2.877 -4.454,2.308 -4.503,1.777 -4.362,1.221 -4.389,1.194 -4.402,1.167 -4.443,1.18 -4.692,1.599 -4.751,2.088 -5.108,2.451 -5.245,2.518 -5.381,2.598 -5.516,2.515 -6.287,2.045 -5.465,1.401 -5.351,0.858 -5.222,0.193 -5.05,-0.688 -5.616,-1.211 -5.724,-1.266 -5.887,-1.268 -5.97,-1.146 -6.139,-0.563 -6.117,0.035 -6.096,0.661 -6.142,1.122 -6.065,1.64 -6.3,2.032 -6.587,2.192 -6.884,1.985 -7.128,1.874 -7.259,1.383 -7.213,0.813 -7.289,0.295 c 0.185,-0.868 -0.117,-1.958 0.637,-2.549 0.3,-0.078 0.666,-0.048 0.937,0.064 0.65,0.21 1.16,0.881 1.331,1.495 0.013,0.04 0.068,0.041 0.095,0 -0.092,-0.286 -0.075,-0.694 0.28,-0.826 0.191,-0.066 0.423,-0.145 0.613,-0.076 0.281,0.397 0.358,0.874 0.339,1.39 0.027,0.082 0.094,0.192 0.189,0.179 0.892,-0.875 2.041,-1.557 3.274,-1.123 0.338,0.139 0.457,0.521 0.385,0.86 C 0.626,-0.062 0.271,0.071 0,0 m -2.991,1.48 c -0.082,-0.028 -0.151,0.052 -0.151,0.12 0.051,0.354 -0.21,0.637 -0.119,1.005 0.122,0.083 0.298,0.125 0.435,0.045 0.248,-0.378 0.049,-0.842 -0.165,-1.17"
         style="fill:#231f20;fill-opacity:1;fill-rule:nonzero;stroke:none"
         id="path3547"/>
    </g>
    <g
       id="g3549"
       transform="matrix(1.25,0,0,-1.25,346.63808,388.78965)">
      <path
         inkscape:connector-curvature="0"
         d="M 0,0 C 0.16,0.273 0.583,0.142 0.607,0.509 0.958,0.703 1.117,1.18 1.51,1.265 1.797,1.105 2.004,0.781 2.344,0.784 2.657,0.774 2.884,1.143 3.1,1.363 3.904,2.499 4.435,3.809 4.23,5.289 4.076,5.749 3.439,5.607 3.271,6.068 3.277,6.815 3.652,7.444 4.19,7.966 L 5.033,8.015 5.142,7.935 C 5.166,6.875 5.081,5.854 4.996,4.834 5.03,4.087 4.78,3.282 5.072,2.578 5.197,2.308 5.485,2.052 5.784,2.041 6.301,1.992 6.528,2.484 6.714,2.853 7.104,4.76 6.961,6.784 7.091,8.797 L 7.225,8.975 C 7.618,9.169 7.982,9.431 8.319,9.76 8.386,9.829 8.482,9.748 8.483,9.68 8.269,7.925 7.905,6.235 7.773,4.453 7.736,4.072 7.699,3.637 8.014,3.368 8.26,3.221 8.506,3.101 8.818,3.159 9.482,3.41 9.515,4.171 9.618,4.771 9.737,5.098 9.584,5.518 9.826,5.806 9.947,5.875 10.082,5.944 10.259,5.919 10.521,5.568 10.62,5.161 10.855,4.81 11.034,4.54 11.31,4.135 11.704,4.206 c 0.462,0.005 0.62,0.482 0.848,0.797 0.463,-0.104 1.116,-0.098 1.576,0.097 0.799,0.307 1.062,1.193 1.314,1.903 l 0.04,0 c 0.113,-0.366 0.09,-0.787 0.405,-1.083 0.165,-0.135 0.423,-0.159 0.627,-0.144 0.893,0.458 0.869,1.49 1.01,2.362 0.012,0.122 0.106,0.246 0.256,0.22 0.726,-0.537 1.319,-1.483 2.27,-1.364 0.433,0.221 0.66,0.658 0.819,1.068 0.347,0.601 -0.046,1.848 1.069,1.791 0.426,-0.444 0.555,-1.096 1.129,-1.403 0.491,-0.185 0.703,0.429 1.165,0.406 0.811,0.484 0.638,1.488 0.807,2.292 l 0.107,0.15 c 0.29,-0.486 0.377,-1.043 0.776,-1.487 0.137,-0.162 0.356,-0.282 0.586,-0.199 0.284,0.18 0.417,0.494 0.468,0.793 -0.004,1.849 0.113,3.767 0.163,5.575 0.176,0.125 0.461,0.155 0.651,0.116 0.043,-1.618 -0.036,-3.182 0.142,-4.77 0.004,-0.34 0.116,-0.652 0.444,-0.839 0.205,-0.12 0.489,-0.049 0.693,0.021 0.405,0.235 0.455,0.684 0.601,1.052 0.205,-0.12 0.426,-0.458 0.764,-0.291 1.463,0.544 2.018,2.154 2.577,3.41 0.197,0.709 0.649,1.719 -0.091,2.283 -0.233,0.269 -0.652,-0.007 -0.898,0.167 0.036,0.395 0.087,0.776 0.138,1.157 0.27,0.193 0.539,0.481 0.919,0.485 0.503,0.005 0.307,0.656 0.222,0.913 -0.166,0.338 -0.507,0.43 -0.834,0.495 -0.678,-0.116 -1.3,-0.516 -1.729,-1.105 l -0.081,-0.001 c -0.206,0.189 -0.439,0.336 -0.724,0.347 -1.166,-0.379 -2.205,-1.123 -3.134,-2.016 -0.285,-0.03 -0.572,0.144 -0.83,0.019 -0.635,-0.373 -0.382,-1.227 -0.43,-1.852 L 25.432,15.42 c -0.345,0.459 -0.378,1.07 -0.912,1.459 -0.164,0.08 -0.342,0.214 -0.545,0.131 -0.203,-0.03 -0.283,-0.261 -0.363,-0.412 l -0.255,-4.461 -0.094,-0.164 c -0.027,0.013 -0.067,-0.014 -0.081,0.027 -0.651,1.176 -1.098,2.436 -1.843,3.57 -0.125,0.23 -0.357,0.377 -0.629,0.347 -0.271,-0.138 -0.24,-0.437 -0.347,-0.656 L 19.549,9.599 19.47,9.285 c -0.094,-0.123 -0.177,0.039 -0.246,0.093 -0.342,0.296 -0.645,0.646 -0.798,1.052 0.36,0.629 0.94,1.179 1.069,1.9 0.101,0.708 -0.123,1.399 -0.671,1.87 -0.494,0.443 -1.241,0.382 -1.825,0.281 -0.433,-0.208 -1.208,-0.175 -1.215,-0.855 0.028,-1.454 0.138,-2.948 -0.038,-4.377 L 15.665,9.125 C 15.578,9.682 15.532,10.293 15.512,10.864 15.314,11.65 15.4,12.63 14.809,13.263 14.604,13.37 14.36,13.34 14.143,13.284 13.899,13.2 13.725,12.94 13.673,12.708 13.546,11.755 13.732,10.792 13.864,9.869 13.955,8.905 13.979,7.858 13.552,7.052 13.389,6.983 13.24,6.981 13.116,7.143 c -0.183,0.583 -0.217,1.276 -0.169,1.929 -0.039,1.195 0.749,2.658 -0.28,3.613 -0.232,0.093 -0.49,0.09 -0.72,-0.007 -0.23,-0.125 -0.336,-0.371 -0.43,-0.575 -0.154,-0.872 -0.172,-1.796 -0.149,-2.748 0.041,-0.054 -0.04,-0.136 -0.108,-0.11 -0.606,0.769 -0.711,1.761 -1.451,2.447 l -0.26,0.092 C 9.1,11.821 8.915,11.316 8.7,11.069 7.932,11.714 7.001,11.066 6.242,10.855 5.376,10.397 4.263,10.223 3.756,9.24 3.552,9.306 3.226,9.302 3.049,9.233 1.994,8.706 1.544,7.546 1.227,6.537 1.121,6.237 1.084,5.883 0.965,5.583 0.527,5.823 0.095,5.52 -0.269,5.285 -0.448,5.46 -0.451,5.759 -0.385,5.977 0.123,6.893 1.696,7.276 1.29,8.481 1.206,8.657 1.015,8.791 0.851,8.885 0.606,8.923 0.321,8.88 0.132,8.701 -0.622,7.946 -1.593,7.162 -2.032,6.233 -1.937,4.807 -1.733,3.436 -1.732,1.968 L -1.867,1.83 c -0.384,0.35 -0.836,0.699 -1.112,1.104 0.263,0.954 0.824,1.939 0.406,3.008 C -2.602,6.119 -2.834,6.225 -2.85,6.415 -3.249,6.887 -3.821,7.031 -4.431,6.916 -5.135,6.61 -6.126,6.478 -6.362,5.579 c 0.21,-2.037 0.163,-4.158 -0.048,-6.158 0.071,-0.408 -0.073,-0.926 0.27,-1.221 0.261,-0.27 0.669,-0.347 1.008,-0.208 0.27,0.18 0.416,0.494 0.495,0.793 l 0.053,2.869 C -4.571,1.722 -4.613,1.899 -4.477,1.9 L -2.941,0.461 C -2.475,0.139 -2.13,-0.442 -1.492,-0.341 -1.014,-0.554 -0.405,-0.33 0,0 m 30.154,17.655 c -0.048,-0.694 -0.406,-1.595 0.171,-2.187 0.233,-0.215 0.519,-0.294 0.833,-0.345 0.087,-0.557 -0.276,-1.036 -0.516,-1.501 l -0.51,-0.644 c -0.176,-0.124 -0.406,-0.167 -0.541,-0.331 -0.177,1.426 -0.178,2.921 -0.219,4.375 0.242,0.261 0.484,0.494 0.782,0.633 m -9.058,-4.653 c 0.325,-0.071 0.529,-0.469 0.657,-0.742 0.002,-0.225 -0.095,-0.526 -0.37,-0.529 -0.274,-0.052 -0.302,0.247 -0.354,0.446 0.022,0.275 -0.081,0.599 0.067,0.825 m -3.863,-0.236 c 0.094,0.115 0.247,0.116 0.361,0.079 0.346,-0.358 0.294,-0.872 0.165,-1.311 -0.094,-0.095 -0.111,-0.305 -0.302,-0.212 -0.024,0.495 -0.332,0.891 -0.224,1.444 M 9.767,9.137 C 10.158,9.118 10.186,8.681 10.326,8.406 10.352,8.153 10.308,7.922 10.056,7.828 9.918,7.803 9.78,7.802 9.732,7.963 9.682,8.377 9.632,8.79 9.767,9.137 M 0.059,3.698 0.919,4.74 C 1.22,4.471 1.602,4.352 2.009,4.424 2.094,4.099 2.057,3.663 1.884,3.376 L 1.734,3.334 C 1.53,3.413 1.297,3.588 1.054,3.45 0.675,3.269 0.42,2.886 0.11,2.597 -0.12,2.554 0.013,2.828 -0.097,2.922 -0.126,3.193 -0.238,3.518 0.059,3.698 M -4.39,3.096 C -4.561,3.094 -4.501,3.297 -4.549,3.406 L -4.685,4.62 c 0.092,0.125 0.183,0.344 0.371,0.331 C -3.936,4.44 -4.036,3.582 -4.39,3.096"
         style="fill:#231f20;fill-opacity:1;fill-rule:nonzero;stroke:none"
         id="path3551"/>
    </g>
    <g
       id="g3553"
       transform="matrix(1.25,0,0,-1.25,379.76096,408.41315)">
      <path
         inkscape:connector-curvature="0"
         d="m 0,0 c -0.164,0.107 -0.043,0.258 -0.113,0.407 0.12,0.3 0.459,0.33 0.689,0.496 C 1.063,1.098 0.963,1.654 1.149,2.037 0.806,2.36 0.402,1.975 0.063,1.849 L 0.022,1.89 C 0.181,2.367 0.736,2.576 1.059,2.919 1.138,3.138 1.109,3.382 1.052,3.599 1.023,3.789 0.819,3.841 0.656,3.84 -0.008,3.548 -0.669,3.106 -1.139,2.49 -1.371,2.624 -1.631,2.784 -1.943,2.672 -2.581,2.544 -2.845,1.834 -3.099,1.356 -3.538,1.732 -4.218,1.821 -4.76,1.612 c -1,-0.649 -1.247,-1.78 -1.276,-2.908 0.079,-1.155 0.242,-2.485 1.416,-3.018 0.654,-0.197 1.36,-0.041 1.844,0.44 0.269,0.288 0.374,0.642 0.384,1.023 0.025,0.272 -0.1,0.502 -0.332,0.649 -0.164,0.012 -0.314,0.065 -0.448,-0.045 -0.461,-0.154 -0.021,-0.68 -0.277,-0.913 -0.189,-0.165 -0.42,-0.086 -0.652,-0.075 -0.327,0.065 -0.452,0.431 -0.577,0.688 -0.214,0.99 -0.171,2.146 0.337,2.98 0.162,0.111 0.365,0.262 0.57,0.142 0.003,-0.326 0.291,-0.568 0.551,-0.743 0.059,-0.488 0.105,-0.977 0.299,-1.41 0.18,-0.257 0.44,-0.526 0.807,-0.441 0.626,-0.103 1.027,0.595 1.267,1.032 0.149,0.056 0.219,-0.161 0.315,-0.242 0.765,-0.386 1.246,0.515 1.813,0.915 C 1.402,-0.149 1.359,0.027 1.208,0.161 0.903,0.824 0.421,0.018 0,0 m -1.87,-0.562 c -0.122,-0.056 -0.272,-0.03 -0.341,0.105 -0.09,0.801 -0.153,1.766 0.521,2.33 C -1.2,1.81 -1.385,1.196 -1.272,0.83 -1.322,0.313 -1.412,-0.218 -1.87,-0.562"
         style="fill:#231f20;fill-opacity:1;fill-rule:nonzero;stroke:none"
         id="path3555"/>
    </g>
    <g
       id="g3557"
       transform="matrix(1.25,0,0,-1.25,372.93571,396.84065)">
      <path
         inkscape:connector-curvature="0"
         d="m 0,0 c 0.107,0.151 0.078,0.381 0.267,0.478 0.853,-0.97 1.894,-1.803 3.225,-1.667 0.869,0.103 1.704,0.819 2.063,1.638 0.28,0.641 0.49,1.309 0.633,2.004 0.485,3.24 0.153,6.54 -0.502,9.633 C 5.501,12.9 5.316,13.714 4.644,14.332 4.287,14.682 3.69,14.568 3.284,14.428 2.797,14.165 2.599,13.633 2.59,13.116 2.745,11.214 3.509,9.55 3.772,7.69 3.992,6.034 4.173,4.133 3.836,2.498 3.716,2.252 3.474,2.005 3.189,1.989 2.304,2.13 2.239,3.121 1.961,3.785 1.593,5.331 1.319,6.905 1.194,8.562 1.044,9.934 1.79,11.531 0.76,12.622 0.431,12.864 0.116,13.119 -0.346,13.046 -0.834,12.987 -1.252,12.575 -1.52,12.178 l 0.136,0.07 C -1.099,9.532 -0.963,6.692 -0.15,4.172 -0.176,4.063 0.003,3.861 -0.214,3.845 -1.755,4.251 -2.567,2.503 -3.372,1.503 -3.427,1.516 -3.494,1.475 -3.522,1.556 -3.721,2.37 -3.878,3.184 -3.914,4.067 c 0.739,0.863 1.806,1.608 2.381,2.565 0.268,0.411 0.045,0.952 -0.068,1.359 -0.22,0.229 -0.44,0.526 -0.82,0.468 C -3.208,8.274 -3.827,7.643 -4.488,7.147 -4.556,7.105 -4.651,7.145 -4.706,7.199 c -0.06,0.516 -0.282,1.003 -0.165,1.535 1.119,1.003 2.564,1.914 3.244,3.294 l -0.454,0.539 c -0.411,0.295 -1.062,0.18 -1.468,-0.028 C -4.589,11.863 -5.545,10.916 -6.46,9.982 -7.025,9.379 -7.807,8.786 -8.044,8.009 -8.179,7.845 -7.944,7.426 -8.229,7.423 -9.244,8.31 -10.797,8.703 -12.042,8.147 -13.491,7.562 -14.21,6.005 -14.563,4.642 -14.67,4.464 -14.64,4.138 -14.884,4.095 c -0.838,0.848 -1.875,1.287 -3.058,1.248 -1.413,0 -2.556,-1.276 -3.143,-2.437 -1.428,-2.678 -1.673,-6.786 -0.165,-9.517 0.668,-1.53 2.205,-3.078 3.999,-3.06 1.536,0.028 2.815,1.305 3.4,2.643 0.305,0.751 0.538,1.963 -0.189,2.608 -0.275,0.31 -0.696,0.36 -1.104,0.316 -1.152,-0.311 -1.017,-1.628 -1.826,-2.302 -0.366,-0.072 -0.788,-0.035 -1.049,0.289 -0.704,0.999 -1.041,2.151 -1.148,3.4 -0.027,1.346 -0.069,2.841 0.504,4.016 0.187,0.3 0.455,0.738 0.918,0.607 0.697,-0.374 1.317,-1.17 2.224,-0.849 0.245,0.03 0.432,0.317 0.664,0.224 0.411,-3.054 1.208,-6.757 4.603,-7.73 1.348,-0.286 2.592,0.433 3.314,1.596 0.322,0.438 0.357,1.037 0.721,1.421 0.303,-0.446 0.364,-1.071 0.95,-1.296 0.368,-0.119 0.734,0.007 1.045,0.16 C -2.619,-3.247 -1.18,-1.684 0,0 m -8.917,-2.765 -0.431,-0.467 c -0.215,-0.192 -0.61,-0.196 -0.869,-0.09 -1.272,0.817 -1.504,2.31 -1.776,3.68 -0.166,1.67 -0.143,3.479 0.673,4.86 0.174,0.205 0.405,0.303 0.649,0.346 1.143,-0.139 1.577,-1.398 1.952,-2.278 0.59,-1.911 0.722,-4.275 -0.198,-6.051"
         style="fill:#231f20;fill-opacity:1;fill-rule:nonzero;stroke:none"
         id="path3559"/>
    </g>
    <g
       id="g3561"
       transform="matrix(1.25,0,0,-1.25,370.0247,408.42377)">
      <path
         inkscape:connector-curvature="0"
         d="m 0,0 c -0.109,-0.015 -0.271,-0.125 -0.242,-0.261 0.213,-0.895 0.467,-1.912 0.245,-2.852 -0.134,-0.205 -0.212,-0.573 -0.538,-0.549 -0.136,0.053 -0.219,0.202 -0.302,0.323 -0.17,0.706 0.013,1.441 0.06,2.135 0.011,0.326 0.034,0.694 -0.28,0.84 -0.191,0.08 -0.366,-0.044 -0.46,-0.181 -0.279,-0.696 -0.162,-1.497 -0.236,-2.259 0.102,-0.678 0.164,-1.521 0.955,-1.73 0.341,-0.16 0.72,0.007 1.032,0.118 0.379,0.127 0.524,0.549 0.78,0.81 0.248,1.022 0.56,2.493 -0.223,3.369 C 0.545,-0.09 0.299,0.017 0,0"
         style="fill:#231f20;fill-opacity:1;fill-rule:nonzero;stroke:none"
         id="path3563"/>
    </g>
    <g
       id="g3565"
       transform="matrix(1.25,0,0,-1.25,366.04695,409.99215)">
      <path
         inkscape:connector-curvature="0"
         d="m 0,0 c -0.558,0.117 -1.047,0.003 -1.451,-0.34 -0.179,-1.212 -0.057,-2.543 -0.14,-3.808 l 0.084,-0.23 c 0.192,-0.189 0.398,-0.35 0.656,-0.374 0.749,-0.088 1.233,0.46 1.731,0.954 l 0.173,0.437 c 0.198,0.587 0.435,1.377 0.116,1.959 C 1.149,-0.75 0.587,-0.212 0,0 m 0.215,-2.54 c -0.076,-0.504 -0.289,-1.022 -0.762,-1.285 -0.165,0.189 -0.086,0.475 -0.075,0.733 l -0.006,1.985 c 0.176,0.07 0.366,0.153 0.57,0.087 0.465,-0.322 0.282,-1.03 0.273,-1.52"
         style="fill:#231f20;fill-opacity:1;fill-rule:nonzero;stroke:none"
         id="path3567"/>
    </g>
    <g
       id="g3569"
       transform="matrix(1.25,0,0,-1.25,361.3232,411.72065)">
      <path
         inkscape:connector-curvature="0"
         d="m 0,0 c -0.579,-0.549 -0.994,-1.165 -1,-1.94 -0.035,-0.599 0.634,-0.878 0.976,-1.187 0.085,-0.339 -0.116,-0.613 -0.317,-0.859 -0.081,-0.069 -0.245,-0.043 -0.273,0.065 -0.126,0.407 -0.602,0.348 -0.848,0.563 l -0.047,1.957 c -0.179,0.243 -0.144,0.868 -0.672,0.686 -0.177,-0.029 -0.366,-0.112 -0.46,-0.29 -0.142,-0.749 0.029,-1.522 0.023,-2.283 -0.037,-0.381 0.102,-0.774 -0.099,-1.061 l -0.068,0.053 -0.619,2.115 c -0.275,0.35 -0.54,0.946 -1.095,0.791 -0.271,-0.125 -0.404,-0.398 -0.497,-0.644 -0.22,-1.171 -0.139,-2.475 -0.358,-3.646 -0.188,-0.233 -0.335,-0.547 -0.619,-0.659 -0.167,0.366 -0.063,0.87 -0.122,1.277 -0.144,0.814 0.243,1.647 -0.117,2.309 -0.097,0.19 -0.356,0.242 -0.587,0.212 -0.162,-0.083 -0.284,-0.166 -0.364,-0.33 -0.138,-1.156 -0.154,-2.312 -0.115,-3.508 -0.379,-0.167 -0.702,-0.455 -1.081,-0.622 -0.219,0.093 -0.058,0.339 -0.073,0.502 0.296,0.275 0.73,0.429 0.902,0.838 0.052,0.232 0.022,0.531 -0.25,0.623 -0.328,0.187 -0.5,-0.29 -0.801,-0.13 0.307,0.547 1.339,0.625 1.032,1.464 -0.085,0.326 -0.412,0.404 -0.697,0.442 l -1.215,-0.895 c -0.167,-0.967 -0.007,-2.067 -0.011,-3.086 -0.12,-0.219 -0.393,-0.058 -0.583,-0.074 -0.464,0.159 0.104,0.423 0.102,0.654 0.157,0.586 0.082,1.292 -0.303,1.75 -0.342,0.296 -0.831,0.21 -1.196,0.043 -0.311,-0.193 -0.745,-0.306 -0.672,-0.795 0.094,-1.25 -0.248,-2.436 -0.454,-3.62 0.179,-0.243 0.346,-0.622 0.739,-0.537 0.459,0.344 0.399,0.928 0.571,1.406 0.12,0.205 -0.087,0.556 0.17,0.695 l 0.52,-0.403 c 0.698,-0.442 1.539,-0.298 2.313,-0.14 l 1.037,0.907 c 0.284,0.22 0.519,-0.213 0.832,-0.209 0.474,0.14 0.988,0.376 1.242,0.855 l 0.421,0.004 c 0.541,0.318 0.194,1.008 0.435,1.445 0.245,-0.025 0.405,0.249 0.637,0.115 0.112,-0.298 0.158,-0.773 0.593,-0.783 0.217,-0.025 0.434,0.113 0.581,0.319 l 0.477,-0.145 c 0.163,0.069 0.353,0.098 0.433,0.276 0.133,0.259 0.021,0.544 0.169,0.763 0.219,-0.202 0.439,-0.404 0.751,-0.401 0.585,0.02 1.125,0.338 1.419,0.884 0.199,0.505 0.368,1.255 0.01,1.74 -0.058,0.435 -0.669,0.279 -0.687,0.714 0.093,0.218 0.131,0.532 0.389,0.616 0.164,-0.162 0.235,-0.46 0.507,-0.458 0.327,-0.024 0.255,0.356 0.389,0.521 C 1.393,-0.68 1.092,-0.411 0.857,-0.1 0.585,-0.035 0.298,0.125 0,0 m -10.96,-6.605 c -0.232,0.106 0.01,0.435 -0.128,0.624 0.04,0.055 0.108,0.11 0.189,0.083 0.138,-0.189 0.128,-0.542 -0.061,-0.707 m 6.855,2.459 c -0.109,-0.055 -0.123,0.067 -0.151,0.121 0.079,0.219 -0.005,0.503 0.143,0.695 0.097,-0.217 0.291,-0.622 0.008,-0.816"
         style="fill:#231f20;fill-opacity:1;fill-rule:nonzero;stroke:none"
         id="path3571"/>
    </g>
    <g
       id="g3573"
       transform="matrix(1.25,0,0,-1.25,344.01046,422.32352)">
      <path
         inkscape:connector-curvature="0"
         d="m 0,0 c -0.301,0.228 -0.598,0.008 -0.938,0.004 -0.22,0.284 0.158,0.505 0.128,0.79 0.171,0.586 0.638,0.074 0.991,0.119 0.068,0.041 0.067,0.095 0.108,0.15 C 0.258,1.457 0.105,1.809 -0.224,2.064 -0.43,2.239 -0.742,2.181 -0.986,2.097 -1.701,1.601 -2.168,0.699 -1.983,-0.196 c 0.166,-0.284 0.468,-0.539 0.768,-0.632 0.137,-0.093 0.366,0.031 0.476,-0.104 0.003,-0.258 -0.171,-0.504 -0.401,-0.602 -0.58,0.892 -1.167,-0.297 -1.764,-0.411 -0.163,0.012 -0.16,-0.301 -0.365,-0.153 -0.198,0.813 0.946,0.566 1.034,1.26 -0.002,0.272 -0.154,0.448 -0.373,0.609 -0.272,0.065 -0.554,-0.278 -0.747,-0.008 0.267,0.506 1.217,0.624 1.033,1.356 -0.043,0.231 -0.289,0.337 -0.506,0.349 -0.61,-0.197 -1.136,-0.583 -1.677,-0.928 0.036,-0.869 0.113,-1.779 0.135,-2.703 l -0.822,-0.702 c -0.068,-0.028 -0.175,-0.124 -0.217,-0.002 0.085,1.048 -0.089,2.079 -0.139,3.071 -0.057,0.203 -0.301,0.214 -0.478,0.226 -0.285,-0.016 -0.529,-0.1 -0.54,-0.413 l 0.253,-3.559 c 0.056,-0.19 0.262,-0.378 0.439,-0.458 0.328,-0.133 0.638,0.047 0.909,0.186 0.228,0.356 0.758,0.32 0.726,0.809 0.149,0.056 0.247,-0.188 0.369,-0.241 0.738,-0.305 1.275,0.352 1.801,0.724 l 0.148,0.219 c 0.135,0.029 0.286,-0.051 0.395,-0.132 0.491,-0.117 1.047,-0.003 1.411,0.34 0.417,0.385 0.603,0.849 0.598,1.393 C 0.453,-0.403 0.246,-0.161 0,0"
         style="fill:#231f20;fill-opacity:1;fill-rule:nonzero;stroke:none"
         id="path3575"/>
    </g>
    <g
       id="g3577"
       transform="matrix(1.25,0,0,-1.25,336.8132,404.0259)">
      <path
         inkscape:connector-curvature="0"
         d="m 0,0 c 0.415,-0.744 1.131,-1.62 2.002,-1.802 0.885,-0.086 1.82,0.222 2.288,1.015 L 4.714,0.305 C 5.182,2.511 5.115,5.148 4.428,7.248 4.247,7.763 3.886,8.48 3.247,8.541 2.975,8.512 2.717,8.441 2.529,8.208 1.991,7.618 2.204,6.696 2.374,6.004 2.81,4.5 2.91,2.679 2.681,1.046 2.615,0.909 2.467,0.677 2.277,0.702 2.113,0.768 2.016,0.93 1.92,1.065 1.362,2.474 1.767,4.218 1.602,5.779 1.581,6.472 1.344,7.123 0.715,7.47 0.32,7.602 -0.073,7.449 -0.329,7.161 -0.984,6.039 -0.902,4.613 -1.038,3.279 -1.504,3.683 -1.918,4.25 -2.438,4.611 -3.504,5.267 -4.965,5.878 -6.167,5.078 -6.248,5.077 -6.357,5.09 -6.424,5.007 -7.227,3.667 -6.517,1.975 -6.381,0.549 l -0.033,-3.548 0.225,-0.732 c 0.193,-0.311 0.508,-0.579 0.862,-0.63 1.512,-0.285 2.879,0.3 3.915,1.411 0.699,0.836 1.07,1.791 1.264,2.826 C -0.149,-0.069 -0.082,0.026 0,0 m -2.858,0.339 c -0.197,-0.654 -0.802,-1.34 -1.438,-1.659 -0.109,-0.015 -0.191,0.039 -0.219,0.147 0.053,1.483 -0.029,2.977 -0.233,4.348 0.475,0.073 0.966,-0.126 1.31,-0.531 0.55,-0.62 0.776,-1.501 0.58,-2.305"
         style="fill:#231f20;fill-opacity:1;fill-rule:nonzero;stroke:none"
         id="path3579"/>
    </g>
    <g
       id="g3581"
       transform="matrix(1.25,0,0,-1.25,330.91158,393.07302)">
      <path
         inkscape:connector-curvature="0"
         d="m 0,0 c 0.193,-0.284 0.346,-0.676 0.701,-0.822 0.3,-0.038 0.584,0.073 0.813,0.252 0.432,0.331 0.576,0.903 1.05,1.098 C 2.974,0.26 3.535,-0.101 4.008,0.243 4.72,1.093 5.336,2.037 5.584,3.1 5.7,3.713 5.842,4.516 5.348,4.987 5.059,5.365 4.149,5.233 4.4,5.943 4.559,6.447 4.96,7.063 5.544,7.123 5.597,7.26 5.528,7.381 5.513,7.517 5.292,7.868 5.068,8.505 4.485,8.404 4.145,8.374 3.903,8.113 3.688,7.852 3.167,6.964 2.659,6.075 2.52,5.054 2.55,4.701 2.433,4.224 2.72,3.969 3.023,3.578 3.552,3.719 3.919,3.777 L 3.947,3.627 C 3.734,3.15 3.713,2.538 3.309,2.207 3.064,2.191 2.872,2.407 2.761,2.569 2.27,2.823 1.908,2.262 1.53,2 1.337,2.256 1.511,2.598 1.453,2.91 1.664,3.537 2.516,3.994 2.238,4.698 2.191,5.241 1.68,4.734 1.5,5.044 1.439,5.723 1.746,6.325 2.312,6.792 2.39,7.16 2.521,7.637 2.192,7.919 1.456,8.157 0.973,7.472 0.502,7.006 -0.639,5.594 -0.129,3.411 -0.166,1.657 L -0.246,1.52 c -0.681,0.089 -0.987,-0.567 -1.5,-0.885 -0.258,1.357 0.041,2.706 0.11,4.025 0.076,0.558 0.124,1.198 -0.396,1.519 -0.219,0.134 -0.49,0.117 -0.72,0.02 -0.325,-0.18 -0.43,-0.535 -0.522,-0.862 -0.175,-1.524 -0.214,-3.183 -0.171,-4.759 0.078,-0.992 0.022,-2.202 1.032,-2.641 0.354,-0.064 0.665,0.088 0.935,0.295 C -0.981,-1.206 -0.498,-0.549 0,0"
         style="fill:#231f20;fill-opacity:1;fill-rule:nonzero;stroke:none"
         id="path3583"/>
    </g>
    <g
       id="g3585"
       transform="matrix(1.25,0,0,-1.25,342.60345,431.20902)"
       style="stroke:#cb006b;stroke-opacity:1;fill:none;fill-opacity:1">
      <path
         inkscape:connector-curvature="0"
         d="M 0,0 C 0,0 20.255,13.304 40.51,16.529"
         style="fill:none;fill-opacity:1;fill-rule:nonzero;stroke:#cb006b;stroke-width:0.95200001999999995;stroke-linecap:butt;stroke-linejoin:miter;stroke-miterlimit:4;stroke-opacity:1;stroke-dasharray:none"
         id="path3587"/>
    </g>
    <g
       id="g3589"
       transform="matrix(1.25,0,0,-1.25,343.39233,431.11427)"
       style="fill:#cb006b;fill-opacity:1">
      <path
         inkscape:connector-curvature="0"
         d="m 0,0 c 0,-0.263 -0.221,-0.476 -0.493,-0.476 -0.272,0 -0.492,0.213 -0.492,0.476 0,0.263 0.22,0.476 0.492,0.476 C -0.221,0.476 0,0.263 0,0"
         style="fill:#cb006b;fill-opacity:1;fill-rule:nonzero;stroke:none"
         id="path3591"/>
    </g>
    <g
       id="g3593"
       transform="matrix(1.25,0,0,-1.25,393.66483,410.59752)">
      <path
         inkscape:connector-curvature="0"
         d="m 0,0 c 0,-0.263 -0.221,-0.476 -0.493,-0.476 -0.272,0 -0.493,0.213 -0.493,0.476 0,0.263 0.221,0.476 0.493,0.476 C -0.221,0.476 0,0.263 0,0"
         style="fill:#ec008c;fill-opacity:1;fill-rule:nonzero;stroke:none"
         id="path3595"/>
    </g>
    <g
       id="g3597"
       transform="matrix(1.25,0,0,-1.25,393.66483,410.59752)"
       style="fill:#cb006b;fill-opacity:1">
      <path
         inkscape:connector-curvature="0"
         d="m 0,0 c 0,-0.263 -0.221,-0.476 -0.493,-0.476 -0.272,0 -0.493,0.213 -0.493,0.476 0,0.263 0.221,0.476 0.493,0.476 C -0.221,0.476 0,0.263 0,0"
         style="fill:#cb006b;fill-opacity:1;fill-rule:nonzero;stroke:none"
         id="path3599"/>
    </g>
  </g>
</svg>
